<?xml version="1.0" standalone="no"?>
<!DOCTYPE svg PUBLIC "-//W3C//DTD SVG 1.1//EN" "http://www.w3.org/Graphics/SVG/1.1/DTD/svg11.dtd" >
<svg xmlns="http://www.w3.org/2000/svg">
<metadata>
<json>
<![CDATA[
{
	"fontFamily": "XIcon",
	"majorVersion": 3,
	"minorVersion": 2,
	"version": "Version 3.2",
	"fontId": "XIcon",
	"psName": "XIcon",
	"subFamily": "Regular",
	"fullName": "XIcon",
	"description": "Font generated by IcoMoon."
}
]]>
</json>
</metadata>
<defs>
<font id="XIcon" horiz-adv-x="1024">
<font-face units-per-em="1024" ascent="960" descent="-64" />
<missing-glyph horiz-adv-x="1024" />
<glyph unicode="&#x20;" horiz-adv-x="512" d="" />
<glyph unicode="&#xe900;" glyph-name="alarm_HF" data-tags="alarm_HF" d="M810.667 70.4h-597.333c-12.8 0-23.467-10.667-23.467-23.467s10.667-23.467 23.467-23.467h597.333c12.8 0 23.467 10.667 23.467 23.467s-10.667 23.467-23.467 23.467z" />
<glyph unicode="&#xe901;" glyph-name="alarm_FL" data-tags="alarm_FL" d="M810.667 74.667h-597.333c-15.36 0-27.733-12.373-27.733-27.733s12.373-27.733 27.733-27.733h597.333c15.36 0 27.733 12.373 27.733 27.733s-12.373 27.733-27.733 27.733zM640 189.867c15.36 0 27.733 12.373 27.733 27.733v332.8c0 15.36-12.373 27.733-27.733 27.733s-27.733-12.373-27.733-27.733v-332.8c0-15.36 12.373-27.733 27.733-27.733z" />
<glyph unicode="&#xe902;" glyph-name="alarm_FF" data-tags="alarm_FF" d="M512 872.533c-177.493 0-322.133-144.64-322.133-322.133v-332.8c0-12.8 10.667-23.467 23.467-23.467h403.2v356.267c0 12.8 10.667 23.467 23.467 23.467s23.467-10.667 23.467-23.467v-356.267h147.2c12.8 0 23.467 10.667 23.467 23.467v332.8c0 177.493-144.64 322.133-322.133 322.133z" />
<glyph unicode="&#xe903;" glyph-name="alarm_HL" data-tags="alarm_HL" d="M810.667 189.867c-15.36 0-27.733 12.373-27.733 27.733v332.8c0 149.333-121.6 270.933-270.933 270.933s-270.933-121.6-270.933-270.933v-332.8c0-15.36-12.373-27.733-27.733-27.733s-27.733 12.373-27.733 27.733v332.8c0 180.053 146.347 326.4 326.4 326.4s326.4-146.347 326.4-326.4v-332.8c0-15.36-12.373-27.733-27.733-27.733z" />
<glyph unicode="&#xe904;" glyph-name="BACnet_FF" data-tags="BACnet_FF" d="M325.547 559.36c18.347 12.373 27.307 31.573 27.307 57.173 0 17.92-5.547 33.707-16.64 46.080s-25.6 20.053-42.667 21.76h-1.707v4.693h1.707c14.080 4.693 25.173 11.947 33.28 21.76 8.107 10.24 12.373 23.040 12.373 38.4 0 23.040-8.533 40.107-26.027 51.627-17.493 11.093-41.387 17.067-71.253 17.067h-96.427v-278.187h106.667c30.293 0 55.467 6.4 74.24 19.627zM188.16 779.947h52.053c34.987 0 52.907-12.8 52.907-37.973 0-14.080-4.693-24.32-14.080-30.293s-21.76-8.96-36.693-8.96h-53.76v76.8zM188.16 666.453h64.853c16.213 0 29.44-3.84 39.253-11.093 10.24-7.253 15.36-18.773 15.36-33.707s-4.693-26.453-14.080-33.707c-8.96-7.253-23.040-10.667-41.387-10.667h-64v89.173zM480.427 817.493l-108.8-278.187h43.947l26.88 72.533h122.88v-1.28s26.88-71.253 26.88-71.253h45.227l-108.8 278.187h-47.787zM456.107 650.24l45.227 122.453h3.84v-1.28s45.653-121.173 45.653-121.173h-94.72zM862.293 617.387c-7.253-12.373-17.067-22.613-29.013-30.293-13.227-8.107-28.587-12.373-46.080-12.373s-33.28 4.267-46.507 13.227c-13.653 8.533-24.32 20.907-32 37.12-7.68 14.933-11.52 33.28-11.52 53.76s3.84 39.68 11.093 55.040c7.68 15.787 17.92 27.733 31.147 36.693 12.8 8.533 28.16 12.8 45.227 12.8 15.787 0 29.44-2.56 41.387-8.107 11.093-5.12 21.76-12.8 31.573-23.040l28.587 28.587c-10.667 13.227-25.173 23.467-42.24 30.72-17.493 8.107-37.12 11.947-58.453 11.947-26.027 0-49.067-5.973-68.693-17.92-20.48-11.947-36.693-29.013-48.213-51.2-11.52-21.76-17.493-46.933-17.493-75.947s5.973-52.907 17.493-74.667c11.52-21.76 27.307-38.827 47.787-51.2 20.907-12.373 43.947-18.347 69.12-18.347s48.64 6.4 68.693 18.773c18.773 11.947 32.853 27.733 40.96 46.080l-33.28 17.92zM373.76 319.147c-10.24 6.4-22.187 9.387-35.84 9.387s-25.6-3.413-36.267-9.813c-11.093-6.4-19.627-13.653-24.747-21.76v-0.853h-5.12v28.587h-39.253v-198.4h41.813v105.387c0 11.52 2.56 21.76 7.253 31.147 4.693 8.96 11.093 16.213 19.627 21.76 7.68 5.12 16.64 8.107 26.453 8.107 11.52 0 20.907-4.267 27.733-12.8 6.827-8.96 10.24-21.333 10.24-37.12v-116.053h41.813v126.293c0 15.36-2.987 29.013-8.96 40.533s-14.507 20.053-24.747 26.453zM588.373 315.733c-13.653 8.533-29.867 12.8-47.787 12.8s-35.413-4.267-49.493-13.227c-14.933-8.533-26.453-20.907-34.56-36.267s-12.373-33.28-12.373-52.907 4.267-38.4 12.373-53.76c8.107-15.36 20.053-27.733 34.987-36.267 15.36-8.533 32.427-13.227 50.773-13.227 16.213 0 32.427 3.413 47.787 10.667 13.653 6.4 24.747 14.507 33.28 24.747l-23.040 23.467c-6.827-7.253-14.507-13.227-23.040-17.067-9.387-4.693-20.053-7.253-31.573-7.253-17.92 0-32 4.693-41.387 14.507-10.24 9.813-15.787 22.613-17.493 37.973v2.133s145.493 0 145.493 0c0 4.693 0 9.387 0 14.507 0 19.627-3.84 37.547-11.52 53.76-8.107 15.36-18.773 27.307-32.427 35.413zM486.4 241.92v2.56c2.56 15.36 8.533 27.733 17.92 36.693s21.76 13.653 36.267 13.653c13.227 0 24.747-4.693 34.133-13.653 8.96-8.96 14.080-21.333 14.933-36.693v-2.133s-103.253 0-103.253 0zM730.453 168.96c-3.413 5.973-4.693 15.36-4.693 28.16v92.16h53.76v34.987h-53.76v63.147h-42.24v-63.147h-36.693v-34.987h36.693v-99.84c0-21.76 4.693-38.4 14.507-49.493 9.387-11.52 24.32-17.493 43.947-17.493 7.68 0 14.933 0.853 22.613 2.133 6.827 1.28 12.8 2.987 17.493 5.12l-5.547 33.707c-25.173-8.107-40.533-5.547-46.080 5.12z" />
<glyph unicode="&#xe905;" glyph-name="BACnet_FL" data-tags="BACnet_FL" d="M375.893 322.56c-10.667 6.4-23.467 9.813-37.973 9.813s-26.88-3.413-38.4-10.24c-9.813-5.547-17.92-11.947-23.467-19.2v25.6h-47.787v-206.933h50.347v109.653c0 10.667 2.133 20.48 6.827 29.013 4.267 8.107 10.24 14.933 17.92 20.053 6.827 4.693 14.933 7.253 24.32 7.253 10.24 0 18.347-3.84 24.32-11.093 5.973-8.107 9.387-19.627 9.387-34.56v-120.32h50.347v130.56c0 15.787-2.987 30.293-9.387 42.667-6.4 11.947-15.36 21.76-26.453 28.16zM590.507 319.147c-14.507 8.96-31.147 13.227-49.92 13.227s-36.693-4.693-51.627-13.653c-15.36-8.96-27.733-21.76-36.267-37.973s-12.8-34.56-12.8-54.613 4.267-39.68 12.8-55.893c8.533-16.213 20.907-29.013 36.693-37.973s33.707-13.653 52.907-13.653c17.067 0 33.707 3.84 49.493 11.093 14.933 6.827 26.88 16.213 36.267 27.307l1.28 1.28-29.013 29.44-1.707-1.707c-6.827-7.68-14.933-13.653-23.040-17.92-8.96-4.267-18.773-6.827-29.867-6.827-16.64 0-29.867 4.267-38.4 13.227-8.96 8.533-14.080 19.627-15.787 33.28h145.067v2.133c0 5.547 0.427 11.093 0.427 16.64 0 20.053-4.267 38.827-11.947 55.467-8.533 16.213-20.053 28.587-34.133 37.12zM491.093 246.187c2.56 13.227 7.68 23.893 15.787 31.573 8.533 8.107 19.627 12.373 33.28 12.373 12.373 0 22.613-4.267 31.147-12.373 7.68-7.68 12.373-18.347 13.227-31.573h-93.867zM777.387 168.533c-24.32-8.107-38.827-6.827-43.52 2.56-2.987 5.12-4.267 14.080-4.267 26.453v87.893h53.76v43.52h-53.76v63.147h-50.773v-63.147h-36.693v-43.52h36.693v-96c0-22.613 5.12-40.107 15.36-52.48s26.453-18.773 47.36-18.773c7.68 0 15.787 0.853 23.467 2.56s14.507 3.413 20.053 5.973l1.707 0.853-6.827 42.24-2.56-0.853zM328.107 555.947c19.627 13.227 29.44 33.707 29.44 60.587 0 19.2-5.973 35.84-17.92 49.067-10.24 11.947-23.467 19.2-39.253 22.187 11.947 4.693 21.76 11.52 29.44 20.48 8.533 11.093 13.227 24.747 13.227 40.96 0 24.32-9.387 43.093-27.733 55.040-18.347 11.52-43.093 17.493-73.813 17.493h-100.693v-286.293h110.933c31.147 0 57.173 6.827 76.8 20.48zM192.427 775.68h47.787c32.853 0 48.64-11.093 48.64-33.707 0-12.8-3.84-21.333-11.947-26.453-8.533-5.547-20.053-8.107-34.56-8.107h-49.92v68.267zM192.427 662.187h60.587c15.36 0 27.733-3.413 36.693-10.24 9.387-6.4 13.653-16.213 13.653-30.293s-4.267-23.467-12.8-30.293c-8.107-6.4-21.333-9.813-38.4-9.813h-59.733v80.64zM561.92 608l26.453-71.253v-1.28h55.040l-111.787 285.013v1.28h-54.187l-110.933-283.733-1.28-2.987h52.907l26.88 72.533h116.907zM503.040 765.44l41.387-110.933h-82.773l40.96 110.933zM862.72 622.080l-1.707 0.853-0.853-1.707c-6.827-12.8-16.64-23.040-28.587-30.72-12.373-7.68-27.307-11.52-43.947-11.52s-31.573 4.267-44.373 12.373c-12.8 8.107-23.040 20.053-30.293 35.413-7.253 14.507-11.093 32-11.093 52.053s3.413 38.4 10.667 53.333c7.253 14.933 17.067 26.453 29.44 34.987 11.947 8.107 26.453 11.947 43.093 11.947 14.933 0 28.16-2.56 39.253-7.68s21.76-13.227 31.573-23.893l1.707-1.707 34.133 34.56-1.28 1.707c-11.52 14.080-26.453 25.6-44.8 33.707s-38.4 12.373-60.16 12.373c-26.453 0-50.347-5.973-70.827-18.347-21.333-12.373-37.973-30.293-49.92-52.48s-17.92-48.213-17.92-77.653 5.973-54.613 17.92-76.8c11.52-22.187 28.16-40.107 49.493-52.907s45.653-19.2 71.253-19.2 50.347 6.4 71.253 19.627c20.48 12.8 34.987 29.867 43.52 49.92l0.853 1.707-38.4 20.907z" />
<glyph unicode="&#xe906;" glyph-name="BACnet_HF" data-tags="BACnet_HF" d="M892.587 492.8h-93.013v43.52c-4.693-0.427-8.96-1.707-14.080-1.707-0.853 0-1.707 0-2.987 0v-41.813h-272.213v119.467h-17.067v-119.467s-255.147 0-255.147 0v46.933h-17.067v-46.933h-92.587v-16.213h746.667v-40.107h-746.24v-366.933h603.733v54.613c-5.973 0.853-11.947 0.853-17.067 2.987v-40.533h-165.547v36.693c-2.987 0-5.547-0.853-8.533-0.853s-5.547 0.853-8.533 1.28v-37.12h-139.947v39.253h-17.067v-39.253s-230.827 0-230.827 0v334.080h746.667v72.107z" />
<glyph unicode="&#xe907;" glyph-name="BACnet_HL" data-tags="BACnet_HL" d="M896.853 494.933v2.133h-93.013v34.133c-5.973-0.853-11.947-1.28-18.347-1.28-2.56 0-4.693 0.853-7.253 0.853v-34.133h-263.68v110.933h-25.6v-110.933h-246.613v38.4h-25.6v-38.4h-92.587v-24.32h746.667v-31.573h-746.24v-375.467h612.267v53.76c-9.813 0.427-18.347 2.133-25.6 5.547v-34.133h-157.013v29.013c-4.267-0.427-8.533-1.28-12.373-1.28-4.267 0-8.533 1.28-12.8 1.707v-29.013h-131.413v31.147s-25.6 0-25.6 0v-31.147h-221.867v325.547h746.667v78.507z" />
<glyph unicode="&#xe908;" glyph-name="alarm_TF" data-tags="alarm_TF" d="M810.667 70.4h-597.333c-12.8 0-23.467-10.667-23.467-23.467s10.667-23.467 23.467-23.467h597.333c12.8 0 23.467 10.667 23.467 23.467s-10.667 23.467-23.467 23.467zM512 872.533c-177.493 0-322.133-144.64-322.133-322.133v-332.8c0-12.8 10.667-23.467 23.467-23.467h403.2v356.267c0 12.8 10.667 23.467 23.467 23.467s23.467-10.667 23.467-23.467v-356.267h147.2c12.8 0 23.467 10.667 23.467 23.467v332.8c0 177.493-144.64 322.133-322.133 322.133z" />
<glyph unicode="&#xe909;" glyph-name="BACnet_TF" data-tags="BACnet_TF" d="M800 536.32c20.053 2.133 38.4 6.827 54.613 17.067 18.773 11.947 32.853 27.733 40.96 46.080l-33.28 17.92c-7.253-12.373-17.067-22.613-29.013-30.293-13.227-8.107-28.587-12.373-46.080-12.373s-33.28 4.267-46.507 13.227c-13.653 8.533-24.32 20.907-32 37.12-7.68 14.933-11.52 33.28-11.52 53.76s3.84 39.68 11.093 55.040c7.68 15.787 17.92 27.733 31.147 36.693 12.8 8.533 28.16 12.8 45.227 12.8 15.787 0 29.44-2.56 41.387-8.107 11.093-5.12 21.76-12.8 31.573-23.040l28.587 28.587c-10.667 13.227-25.173 23.467-42.24 30.72-17.493 8.107-37.12 11.947-58.453 11.947-26.027 0-49.067-5.973-68.693-17.92-20.48-11.947-36.693-29.013-48.213-51.2-11.52-21.76-17.493-46.933-17.493-75.947s5.973-52.907 17.493-74.667c11.52-21.76 27.307-38.827 47.787-51.2 20.053-11.947 42.24-17.493 66.133-18.347v-41.813h-272.213v119.467h54.187v-1.28s26.88-71.253 26.88-71.253h45.227l-108.8 278.187h-47.787l-108.8-278.187h43.947l26.88 72.533h51.627v-119.467h-255.147v46.933h12.8c30.293 0 55.467 6.4 74.24 19.627 18.347 12.373 27.307 31.573 27.307 57.173 0 17.92-5.547 33.707-16.64 46.080s-25.6 20.053-42.667 21.76h-1.707v4.693h1.707c14.080 4.693 25.173 11.947 33.28 21.76 8.107 10.24 12.373 23.040 12.373 38.4 0 23.040-8.533 40.107-26.027 51.627-17.493 11.093-41.387 17.067-71.253 17.067h-96.427v-278.187h76.8v-46.933h-92.587v-16.213h746.667v-40.107h-747.52v-366.933h603.733v54.613c2.987 0 5.547-1.707 8.96-1.707 7.68 0 14.933 0.853 22.613 2.133 6.827 1.28 12.8 2.987 17.493 5.12l-5.547 33.707c-25.173-8.107-40.533-5.547-46.080 5.12-3.413 5.973-4.693 15.36-4.693 28.16v92.16h53.76v34.987h-53.76v63.147h-42.24v-63.147h-36.693v-34.987h36.693v-99.84c0-21.76 4.693-38.4 14.507-49.493 4.693-5.547 10.667-10.24 18.347-12.8v-40.533h-165.547v36.693c13.227 0.853 26.88 3.84 39.68 9.813 13.653 6.4 24.747 14.507 33.28 24.747l-23.040 23.467c-6.827-7.253-14.507-13.227-23.040-17.067-9.387-4.693-20.053-7.253-31.573-7.253-17.92 0-32 4.693-41.387 14.507-10.24 9.813-15.787 22.613-17.493 37.973v2.133s145.493 0 145.493 0c0 4.693 0 9.387 0 14.507 0 19.627-3.84 37.547-11.52 53.76-8.107 15.36-18.773 27.307-32.427 35.413-13.653 8.533-29.867 12.8-47.787 12.8s-35.413-4.267-49.493-13.227c-14.933-8.533-26.453-20.907-34.56-36.267s-12.373-33.28-12.373-52.907 4.267-38.4 12.373-53.76c8.107-15.36 20.053-27.733 34.987-36.267 12.8-7.253 26.88-10.667 42.24-11.947v-37.12h-139.947v39.253h14.080v126.293c0 15.36-2.987 29.013-8.96 40.533s-14.507 20.053-24.747 26.453c-10.24 6.4-22.187 9.387-35.84 9.387s-25.6-3.413-36.267-9.813c-11.093-6.4-19.627-13.653-24.747-21.76v-0.853h-5.12v28.587h-39.253v-198.4h41.813v105.387c0 11.52 2.56 21.76 7.253 31.147 4.693 8.96 11.093 16.213 19.627 21.76 7.68 5.12 16.64 8.107 26.453 8.107 11.52 0 20.907-4.267 27.733-12.8 6.827-8.96 10.24-21.333 10.24-37.12v-116.053h11.093v-39.253h-231.253v334.080h746.667v72.107h-93.013v43.52zM501.333 772.693h3.84v-1.28s45.653-121.173 45.653-121.173h-94.72l45.227 122.453zM188.16 779.947h52.053c34.987 0 52.907-12.8 52.907-37.973 0-14.080-4.693-24.32-14.080-30.293s-21.76-8.96-36.693-8.96h-53.76v76.8zM188.16 666.453h64.853c16.213 0 29.44-3.84 39.253-11.093 10.24-7.253 15.36-18.773 15.36-33.707s-4.693-26.453-14.080-33.707c-8.96-7.253-23.040-10.667-41.387-10.667h-64v89.173zM486.4 244.48c2.56 15.36 8.107 27.733 17.493 36.693s21.76 13.653 36.267 13.653c13.227 0 24.747-4.693 34.133-13.653 8.96-8.96 14.080-21.333 14.933-36.693v-2.133s-103.253 0-103.253 0v2.56z" />
<glyph unicode="&#xe90a;" glyph-name="BACnet_TL" data-tags="BACnet_TL" d="M856.747 549.547c20.48 12.8 34.987 29.867 43.52 49.92l0.853 1.707-38.4 20.907-1.707 0.853-0.853-1.707c-6.827-12.8-16.64-23.040-28.587-30.72-12.373-7.68-27.307-11.52-43.947-11.52s-31.573 4.267-44.373 12.373c-12.8 8.107-23.040 20.053-30.293 35.413-7.253 14.507-11.093 32-11.093 52.053s3.413 38.4 10.667 53.333c7.253 14.933 17.067 26.453 29.44 34.987 11.947 8.107 26.453 11.947 43.093 11.947 14.933 0 28.16-2.56 39.253-7.68s21.76-13.227 31.573-23.893l1.707-1.707 34.133 34.56-1.28 1.707c-11.52 14.080-26.453 25.6-44.8 33.707s-38.4 12.373-60.16 12.373c-26.453 0-50.347-5.973-70.827-18.347-21.333-12.373-37.973-30.293-49.92-52.48s-17.92-48.213-17.92-77.653 5.973-54.613 17.92-76.8c11.52-22.187 28.16-40.107 49.493-52.907 19.627-11.52 40.96-17.067 64-18.347v-34.133h-263.68v110.933h46.933l26.453-71.253v-1.28h55.040l-111.787 285.013v1.28h-54.187l-110.933-283.733-1.28-2.987h52.907l26.88 72.533h44.373v-110.933h-246.613v38.4h8.533c31.147 0 57.173 6.827 76.8 20.48 19.627 13.227 29.44 33.707 29.44 60.587 0 19.2-5.973 35.84-17.92 49.067-10.24 11.947-23.467 19.2-39.253 22.187 11.947 4.693 21.76 11.52 29.44 20.48 8.533 11.093 13.227 24.747 13.227 40.96 0 24.32-9.387 43.093-27.733 55.040-18.347 11.52-43.093 17.493-73.813 17.493h-100.693v-286.293h76.8v-38.4h-92.587v-24.32h746.667v-31.573h-746.667v-375.467h612.267v53.76s2.987-0.853 4.693-0.853c7.68 0 15.787 0.853 23.467 2.56s14.507 3.413 20.053 5.973l1.707 0.853-6.827 42.24-2.56-0.853c-24.32-8.107-38.827-6.827-43.52 2.56-2.987 5.12-4.267 14.080-4.267 26.453v87.893h53.76v43.52h-53.76v63.147h-50.773v-63.147h-36.693v-43.52h36.693v-96c0-22.613 5.12-40.107 15.36-52.48 4.693-5.547 10.667-9.387 17.067-12.373v-34.133h-157.013v29.013c12.373 1.28 25.173 4.267 37.12 9.387 14.933 6.827 26.88 16.213 36.267 27.307l1.28 1.28-29.013 29.44-1.707-1.707c-6.827-7.68-14.933-13.653-23.040-17.92-8.96-4.267-18.773-6.827-29.867-6.827-16.64 0-29.867 4.267-38.4 13.227-8.96 8.533-14.080 19.627-15.787 33.28h145.067v2.133c0 5.547 0.427 11.093 0.427 16.64 0 20.053-4.267 38.827-11.947 55.467-8.533 16.213-20.053 28.587-34.133 37.12-14.507 8.96-31.147 13.227-49.92 13.227s-36.693-4.693-51.627-13.653c-15.36-8.96-27.733-21.76-36.267-37.973s-12.8-34.56-12.8-54.613 4.267-39.68 12.8-55.893c8.533-16.213 20.907-29.013 36.693-37.973 12.373-6.827 25.6-10.667 40.107-11.947v-29.013h-131.413v31.147h14.080v130.56c0 15.787-2.987 30.293-9.387 42.667-6.4 11.947-15.36 21.76-26.453 28.16-10.667 6.4-23.467 9.813-37.973 9.813s-26.88-3.413-38.4-10.24c-9.813-5.547-17.92-11.947-23.467-19.2v25.6h-47.787v-206.933h50.347v109.653c0 10.667 2.133 20.48 6.827 29.013 4.267 8.107 10.24 14.933 17.92 20.053 6.827 4.693 14.933 7.253 24.32 7.253 10.24 0 18.347-3.84 24.32-11.093 5.973-8.107 9.387-19.627 9.387-34.56v-120.32h11.093v-31.147h-222.72v325.547h746.667v80.64h-93.013v34.133c19.2 2.56 37.12 8.533 52.907 18.347zM503.040 765.44l41.387-110.933h-82.773l40.96 110.933zM192.427 775.68h47.787c32.853 0 48.64-11.093 48.64-33.707 0-12.8-3.84-21.333-11.947-26.453-8.533-5.547-20.053-8.107-34.56-8.107h-49.92v68.267zM192.427 662.187h60.587c15.36 0 27.733-3.413 36.693-10.24 9.387-6.4 13.653-16.213 13.653-30.293s-4.267-23.467-12.8-30.293c-8.107-6.4-21.333-9.813-38.4-9.813h-59.733v80.64zM506.88 277.76c8.533 8.107 19.627 12.373 33.28 12.373 12.373 0 22.613-4.267 31.147-12.373 7.68-7.68 12.373-18.347 13.227-31.573h-93.867c2.56 13.227 7.68 23.893 15.787 31.573z" />
<glyph unicode="&#xe90b;" glyph-name="angle_FF" data-tags="angle_FF" d="M933.547 112.213l-401.067 695.040c-8.533 14.507-32.427 14.507-40.533 0l-219.307-379.733c120.32-59.733 203.52-183.467 203.52-326.827 0-8.107-0.853-15.787-1.28-23.467h438.613c8.533 0 16.213 4.267 20.48 11.52s4.267 16.213 0 23.467z" />
<glyph unicode="&#xe90c;" glyph-name="angle_FL" data-tags="angle_FL" d="M913.067 72.96h-802.133c-9.813 0-19.2 5.12-23.893 13.653-5.12 8.533-5.12 19.2 0 27.733l401.067 695.040c7.68 13.227 24.747 17.92 37.973 10.24s17.92-24.747 10.24-37.973l-377.173-653.227h753.92c15.36 0 27.733-12.373 27.733-27.733s-12.373-27.733-27.733-27.733z" />
<glyph unicode="&#xe90d;" glyph-name="add_FF" data-tags="add_FF" d="M512 727.467c-12.8 0-23.467-10.667-23.467-23.467v-232.533h-232.533c-12.8 0-23.467-10.667-23.467-23.467s10.667-23.467 23.467-23.467h232.533v-232.533c0-12.8 10.667-23.467 23.467-23.467s23.467 10.667 23.467 23.467v512c0 12.8-10.667 23.467-23.467 23.467z" />
<glyph unicode="&#xe90e;" glyph-name="add_FL" data-tags="add_FL" d="M512 731.733c-15.36 0-27.733-12.373-27.733-27.733v-228.267h-228.267c-15.36 0-27.733-12.373-27.733-27.733s12.373-27.733 27.733-27.733h228.267v-228.267c0-15.36 12.373-27.733 27.733-27.733s27.733 12.373 27.733 27.733v512c0 15.36-12.373 27.733-27.733 27.733z" />
<glyph unicode="&#xe90f;" glyph-name="add_HF" data-tags="add_HF" d="M768 471.467h-149.333c-12.8 0-23.467-10.667-23.467-23.467s10.667-23.467 23.467-23.467h149.333c12.8 0 23.467 10.667 23.467 23.467s-10.667 23.467-23.467 23.467z" />
<glyph unicode="&#xe910;" glyph-name="add_HL" data-tags="add_HL" d="M768 475.733h-149.333c-15.36 0-27.733-12.373-27.733-27.733s12.373-27.733 27.733-27.733h149.333c15.36 0 27.733 12.373 27.733 27.733s-12.373 27.733-27.733 27.733z" />
<glyph unicode="&#xe911;" glyph-name="add_TF" data-tags="add_TF" d="M768 471.467h-149.333c-12.8 0-23.467-10.667-23.467-23.467s10.667-23.467 23.467-23.467h149.333c12.8 0 23.467 10.667 23.467 23.467s-10.667 23.467-23.467 23.467zM512 727.467c-12.8 0-23.467-10.667-23.467-23.467v-232.533h-232.533c-12.8 0-23.467-10.667-23.467-23.467s10.667-23.467 23.467-23.467h232.533v-232.533c0-12.8 10.667-23.467 23.467-23.467s23.467 10.667 23.467 23.467v512c0 12.8-10.667 23.467-23.467 23.467z" />
<glyph unicode="&#xe912;" glyph-name="angle_HF" data-tags="angle_HF" d="M248.747 386.56l-158.293-274.347c-4.267-7.253-4.267-16.213 0-23.467s11.947-11.52 20.48-11.52h316.587c0.427 7.68 1.28 15.36 1.28 23.467 0 125.867-73.813 234.24-180.053 285.867z" />
<glyph unicode="&#xe913;" glyph-name="angle_HL" data-tags="angle_HL" d="M452.267 72.96c-15.36 0-27.733 12.373-27.733 27.733 0 111.36-60.16 215.467-157.013 271.36-13.227 7.68-17.92 24.747-10.24 37.973s24.747 17.92 37.973 10.24c113.92-65.707 184.747-188.16 184.747-319.573 0-15.36-12.373-27.733-27.733-27.733z" />
<glyph unicode="&#xe914;" glyph-name="arrowDown_FL" data-tags="arrowDown_FL" d="M512 312.747c-23.467 0-46.933 8.96-64.853 26.88l-196.267 196.267c-10.667 10.667-10.667 28.587 0 39.253s28.587 10.667 39.253 0l196.267-196.267c13.653-13.653 37.547-13.653 51.2 0l196.267 196.267c10.667 10.667 28.587 10.667 39.253 0s10.667-28.587 0-39.253l-196.267-196.267c-17.92-17.92-41.387-26.88-64.853-26.88z" />
<glyph unicode="&#xe915;" glyph-name="arrowDown_TF" data-tags="arrowDown_TF" d="M512 317.013c-22.187 0-44.8 8.533-61.867 25.6l-196.267 196.267c-8.96 8.96-8.96 23.893 0 33.28 8.96 8.96 23.893 8.96 33.28 0l196.267-196.267c15.36-15.36 41.813-15.36 57.173 0l196.267 196.267c8.96 8.96 23.893 8.96 33.28 0 8.96-8.96 8.96-23.893 0-33.28l-196.267-196.267c-17.067-17.067-39.253-25.6-61.867-25.6z" />
<glyph unicode="&#xe916;" glyph-name="arrow_FF" data-tags="arrow_FF" d="M806.4 829.867h-362.667c-9.387 0-17.92-5.547-21.76-14.507-3.413-8.96-1.707-18.773 5.12-25.6l426.667-426.667c4.267-4.693 10.667-6.827 16.64-6.827 2.987 0 5.973 0.427 8.96 1.707 8.96 3.84 14.507 12.373 14.507 21.76v362.667c0 48.213-39.253 87.467-87.467 87.467z" />
<glyph unicode="&#xe917;" glyph-name="arrow_FL" data-tags="arrow_FL" d="M308.053 61.867c-23.467 0-46.933 8.96-64.853 26.88l-90.453 90.453c-35.84 35.84-35.84 93.867 0 129.707l374.613 374.613-103.253 103.253c-8.107 8.107-10.24 20.053-5.973 30.293s14.507 17.067 25.6 17.067h362.667c50.347 0 91.733-40.96 91.733-91.733v-362.667c0-11.093-6.827-21.333-17.067-25.6s-22.187-1.707-30.293 5.973l-122.88 122.88c-10.667 10.667-10.667 28.587 0 39.253s28.587 10.667 39.253 0l75.52-75.52v295.68c0 20.053-16.213 36.267-36.267 36.267h-295.68l75.52-75.52c5.12-5.12 8.107-12.373 8.107-19.627s-2.987-14.507-8.107-19.627l-394.24-394.24c-6.827-6.827-10.667-15.787-10.667-25.6s3.84-18.773 10.667-25.6l90.453-90.453c13.653-13.653 37.547-13.653 51.2 0l266.24 266.24c10.667 10.667 28.587 10.667 39.253 0s10.667-28.587 0-39.253l-266.24-266.24c-17.92-17.92-41.387-26.88-64.853-26.88z" />
<glyph unicode="&#xe918;" glyph-name="arrow_HF" data-tags="arrow_HF" d="M533.333 683.52l-377.6-377.6c-16.64-16.64-25.6-38.4-25.6-61.867s8.96-45.227 25.6-61.867l90.453-90.453c16.64-16.64 38.4-25.6 61.867-25.6s45.227 8.96 61.867 25.6l377.6 377.6-214.187 214.187z" />
<glyph unicode="&#xe919;" glyph-name="bringForward_FF" data-tags="bringForward_FF" d="M217.6 829.867h384c48.307 0 87.467-39.16 87.467-87.467v-384c0-48.307-39.16-87.467-87.467-87.467h-384c-48.307 0-87.467 39.16-87.467 87.467v384c0 48.307 39.16 87.467 87.467 87.467z" />
<glyph unicode="&#xe91a;" glyph-name="bringForward_FL" data-tags="bringForward_FL" d="M806.4 61.867h-256c-50.773 0-91.733 40.96-91.733 91.733v12.8c0 15.36 12.373 27.733 27.733 27.733s27.733-12.373 27.733-27.733v-12.8c0-20.053 16.213-36.267 36.267-36.267h256c20.053 0 36.267 16.213 36.267 36.267v256c0 20.053-16.213 36.267-36.267 36.267h-12.8c-15.36 0-27.733 12.373-27.733 27.733s12.373 27.733 27.733 27.733h12.8c50.773 0 91.733-40.96 91.733-91.733v-256c0-50.773-40.96-91.733-91.733-91.733z" />
<glyph unicode="&#xe91b;" glyph-name="bringForward_HF" data-tags="bringForward_HF" d="M806.4 497.067h-12.8c-12.8 0-23.467-10.667-23.467-23.467v-115.2c0-93.013-75.52-168.533-168.533-168.533h-115.2c-12.8 0-23.467-10.667-23.467-23.467v-12.8c0-48.213 39.253-87.467 87.467-87.467h256c48.213 0 87.467 39.253 87.467 87.467v256c0 48.213-39.253 87.467-87.467 87.467z" />
<glyph unicode="&#xe91c;" glyph-name="bringForward_HL" data-tags="bringForward_HL" d="M601.6 266.667h-384c-50.773 0-91.733 40.96-91.733 91.733v384c0 50.773 40.96 91.733 91.733 91.733h384c50.773 0 91.733-40.96 91.733-91.733v-384c0-50.773-40.96-91.733-91.733-91.733zM217.6 778.667c-20.053 0-36.267-16.213-36.267-36.267v-384c0-20.053 16.213-36.267 36.267-36.267h384c20.053 0 36.267 16.213 36.267 36.267v384c0 20.053-16.213 36.267-36.267 36.267h-384z" />
<glyph unicode="&#xe91d;" glyph-name="bringForward_TF" data-tags="bringForward_TF" d="M806.4 497.067h-12.8c-12.8 0-23.467-10.667-23.467-23.467v-115.2c0-93.013-75.52-168.533-168.533-168.533h-115.2c-12.8 0-23.467-10.667-23.467-23.467v-12.8c0-48.213 39.253-87.467 87.467-87.467h256c48.213 0 87.467 39.253 87.467 87.467v256c0 48.213-39.253 87.467-87.467 87.467zM217.6 829.867h384c48.307 0 87.467-39.16 87.467-87.467v-384c0-48.307-39.16-87.467-87.467-87.467h-384c-48.307 0-87.467 39.16-87.467 87.467v384c0 48.307 39.16 87.467 87.467 87.467z" />
<glyph unicode="&#xe91e;" glyph-name="bringToFront_FL" data-tags="bringToFront_FL" d="M870.4 373.333c-15.36 0-27.733-12.373-27.733-27.733v-192c0-20.053-16.213-36.267-36.267-36.267h-192c-15.36 0-27.733-12.373-27.733-27.733s12.373-27.733 27.733-27.733h192c50.773 0 91.733 40.96 91.733 91.733v192c0 15.36-12.373 27.733-27.733 27.733zM409.6 834.133h-192c-50.773 0-91.733-40.96-91.733-91.733v-192c0-15.36 12.373-27.733 27.733-27.733s27.733 12.373 27.733 27.733v192c0 20.053 16.213 36.267 36.267 36.267h192c15.36 0 27.733 12.373 27.733 27.733s-12.373 27.733-27.733 27.733z" />
<glyph unicode="&#xe91f;" glyph-name="bringToFront_HF" data-tags="bringToFront_HF" d="M870.4 369.067c-12.8 0-23.467-10.667-23.467-23.467v-192c0-22.187-18.347-40.533-40.533-40.533h-192c-12.8 0-23.467-10.667-23.467-23.467s10.667-23.467 23.467-23.467h192c48.213 0 87.467 39.253 87.467 87.467v192c0 12.8-10.667 23.467-23.467 23.467zM409.6 829.867h-192c-48.213 0-87.467-39.253-87.467-87.467v-192c0-12.8 10.667-23.467 23.467-23.467s23.467 10.667 23.467 23.467v192c0 22.187 18.347 40.533 40.533 40.533h192c12.8 0 23.467 10.667 23.467 23.467s-10.667 23.467-23.467 23.467z" />
<glyph unicode="&#xe920;" glyph-name="brush_FF" data-tags="brush_FF" d="M381.44 407.893c-8.96 8.96-23.893 8.96-33.28 0l-120.747-120.747c-8.96-8.96-8.96-23.893 0-33.28 4.693-4.693 10.667-6.827 16.64-6.827s11.947 2.133 16.64 6.827l120.747 120.747c8.96 8.96 8.96 23.893 0 33.28zM290.987 498.347c-8.96 8.96-23.893 8.96-33.28 0l-120.747-120.747c-8.96-8.96-8.96-23.893 0-33.28 4.693-4.693 10.667-6.827 16.64-6.827s11.947 2.133 16.64 6.827l120.747 120.747c8.96 8.96 8.96 23.893 0 33.28zM471.893 317.44c-8.96 8.96-23.893 8.96-33.28 0l-120.747-120.747c-8.96-8.96-8.96-23.893 0-33.28 4.693-4.693 10.667-6.827 16.64-6.827s11.947 2.133 16.64 6.827l120.747 120.747c8.96 8.96 8.96 23.893 0 33.28zM562.347 226.987c-8.96 8.96-23.893 8.96-33.28 0l-120.747-120.747c-8.96-8.96-8.96-23.893 0-33.28 4.693-4.693 10.667-6.827 16.64-6.827s11.947 2.133 16.64 6.827l120.747 120.747c8.96 8.96 8.96 23.893 0 33.28z" />
<glyph unicode="&#xe921;" glyph-name="brush_FL" data-tags="brush_FL" d="M384.427 410.88c-10.667 10.667-28.587 10.667-39.253 0l-120.747-120.747c-10.667-10.667-10.667-28.587 0-39.253 5.547-5.547 12.373-8.107 19.627-8.107s14.080 2.56 19.627 8.107l120.747 120.747c10.667 10.667 10.667 28.587 0 39.253zM293.973 501.333c-10.667 10.667-28.587 10.667-39.253 0l-120.747-120.747c-10.667-10.667-10.667-28.587 0-39.253 5.547-5.547 12.373-8.107 19.627-8.107s14.080 2.56 19.627 8.107l120.747 120.747c10.667 10.667 10.667 28.587 0 39.253zM474.88 320.427c-10.667 10.667-28.587 10.667-39.253 0l-120.747-120.747c-10.667-10.667-10.667-28.587 0-39.253 5.547-5.547 12.373-8.107 19.627-8.107s14.080 2.56 19.627 8.107l120.747 120.747c10.667 10.667 10.667 28.587 0 39.253zM565.333 229.973c-10.667 10.667-28.587 10.667-39.253 0l-120.747-120.747c-10.667-10.667-10.667-28.587 0-39.253 5.547-5.547 12.373-8.107 19.627-8.107s14.080 2.56 19.627 8.107l120.747 120.747c10.667 10.667 10.667 28.587 0 39.253z" />
<glyph unicode="&#xe922;" glyph-name="brush_HF" data-tags="brush_HF" d="M893.867 731.733c0 26.027-10.24 50.773-28.587 69.547-18.347 18.347-43.093 28.587-69.547 28.587v0c-26.027 0-50.773-10.24-69.12-28.587l-269.227-269.227-114.773 33.707c-8.107 2.56-17.067 0-23.040-5.973l-61.44-61.44c-8.96-8.96-8.96-23.893 0-33.28l271.36-271.36c4.267-4.267 10.24-6.827 16.64-6.827s12.373 2.56 16.64 6.827l61.44 61.44c5.973 5.973 8.533 14.933 5.973 23.040l-33.707 114.773 269.227 269.227c18.347 18.347 28.587 43.093 28.587 69.547z" />
<glyph unicode="&#xe923;" glyph-name="brush_HL" data-tags="brush_HL" d="M607.147 244.053c-11.947 0-23.040 7.68-26.453 20.053l-37.547 128.427c-2.987 9.813 0 20.48 6.827 27.307l279.040 279.040c8.96 8.96 13.653 20.48 13.653 33.28s-4.693 24.32-13.653 33.28c-8.96 8.96-20.48 13.653-33.28 13.653v0c-12.373 0-24.32-4.693-33.28-13.653l-279.040-279.040c-7.253-7.253-17.92-9.813-27.307-6.827l-128.427 37.547c-14.507 4.267-23.040 19.627-18.773 34.56 4.267 14.507 19.627 23.040 34.56 18.773l112.64-32.853 267.52 267.52c19.2 19.2 45.227 29.867 72.533 29.867v0c27.307 0 52.907-10.667 72.533-29.867 19.2-19.2 29.867-45.227 29.867-72.533s-10.667-52.907-29.867-72.533l-267.52-267.52 33.28-112.213c4.267-14.507-4.267-30.293-18.773-34.56-2.56-0.853-5.12-1.28-7.68-1.28z" />
<glyph unicode="&#xe924;" glyph-name="building_FF" data-tags="building_FF" d="M523.52 869.547c-7.253 4.267-16.213 4.267-23.467 0l-266.667-154.027s0 0 0 0c-26.88-15.787-43.52-44.373-43.52-75.52v-528.64c0-48.213 39.253-87.467 87.467-87.467h234.667c12.8 0 23.467 10.667 23.467 23.467v801.707c0 8.533-4.267 16.213-11.52 20.48z" />
<glyph unicode="&#xe925;" glyph-name="building_FL" data-tags="building_FL" d="M512 19.2h-234.667c-50.773 0-91.733 40.96-91.733 91.733v528.64c0 32.853 17.493 63.147 45.653 79.36v0l266.667 154.027c8.533 5.12 19.2 5.12 27.733 0s13.653-14.080 13.653-23.893v-802.133c0-15.36-12.373-27.733-27.733-27.733zM258.987 671.147c-11.093-6.4-17.92-18.347-17.92-31.573v-528.64c0-20.053 16.213-36.267 36.267-36.267h206.933v726.187l-225.28-130.133z" />
<glyph unicode="&#xe926;" glyph-name="building_HF" data-tags="building_HF" d="M790.613 715.52l-138.667 80.213c-7.253 4.267-16.213 4.267-23.467 0s-11.52-11.947-11.52-20.48v-728.32c0-12.8 10.667-23.467 23.467-23.467h106.667c48.213 0 87.467 39.253 87.467 87.467v528.64c0 31.147-16.64 60.16-43.52 75.947z" />
<glyph unicode="&#xe927;" glyph-name="building_HL" data-tags="building_HL" d="M746.667 19.2h-106.667c-15.36 0-27.733 12.373-27.733 27.733s12.373 27.733 27.733 27.733h106.667c20.053 0 36.267 16.213 36.267 36.267v528.64c0 12.8-6.827 24.747-17.92 31.573l-138.667 80.213c-13.227 7.68-17.92 24.747-10.24 37.973s24.747 17.92 37.973 10.24l138.667-80.213c28.16-16.213 45.653-46.933 45.653-79.36v-528.64c0-50.773-40.96-91.733-91.733-91.733z" />
<glyph unicode="&#xe928;" glyph-name="campus_FF" data-tags="campus_FF" d="M464.213 869.547c-7.253 4.267-16.213 4.267-23.467 0l-266.667-154.027c-26.88-15.787-43.52-44.8-43.52-75.52v-528.64c0-48.213 39.253-87.467 87.467-87.467h234.667c12.8 0 23.467 10.667 23.467 23.467v801.707c0 8.533-4.267 16.213-11.52 20.48z" />
<glyph unicode="&#xe929;" glyph-name="campus_FL" data-tags="campus_FL" d="M733.013 718.933l-138.667 80.213c-13.227 7.68-30.293 2.987-37.973-10.24s-2.987-30.293 10.24-37.973l138.667-80.213c11.093-6.4 17.92-18.347 17.92-31.573v-84.907c0-15.36 12.373-27.733 27.733-27.733s27.733 12.373 27.733 27.733v84.907c0 32.853-17.493 63.147-45.653 79.36zM465.92 872.96c-8.533 5.12-19.2 5.12-27.733 0l-266.667-154.027c-28.16-16.213-46.080-46.933-46.080-79.36v-528.64c0-50.773 40.96-91.733 91.733-91.733h234.667c15.36 0 27.733 12.373 27.733 27.733v802.133c0 9.813-5.12 19.2-14.080 23.893zM424.533 74.667h-206.933c-20.053 0-36.267 16.213-36.267 36.267v528.64c0 12.8 6.827 24.747 17.92 31.573l224.853 130.133v-726.187z" />
<glyph unicode="&#xe92a;" glyph-name="campus_HF" data-tags="campus_HF" d="M893.867 319.147c0 98.56-49.067 209.493-119.467 248.747v72.107c0 31.147-16.64 60.16-43.52 75.947l-138.667 80.213c-11.52 6.4-25.6 2.56-32-8.533s-2.56-25.6 8.533-32l138.667-80.213c12.373-7.253 20.053-20.48 20.053-34.987v-58.027c-2.133 0-4.267 0.427-6.4 0.427-97.28 0-172.8-141.653-172.8-263.253 0-98.56 54.187-157.44 149.333-165.547v-106.24c0-12.8 10.667-23.467 23.467-23.467s23.467 10.667 23.467 23.467v106.24c95.147 8.533 149.333 67.413 149.333 165.547z" />
<glyph unicode="&#xe92b;" glyph-name="campus_HL" data-tags="campus_HL" d="M898.133 319.147c0 123.733-77.227 267.52-177.067 267.52s-177.067-143.787-177.067-267.52c0-99.84 54.187-160 149.333-169.813v-102.4c0-15.36 12.373-27.733 27.733-27.733s27.733 12.373 27.733 27.733v102.4c95.147 9.813 149.333 69.973 149.333 169.813zM721.067 202.667c-81.92 0-121.6 37.973-121.6 116.48 0 101.12 63.573 212.48 121.6 212.48s121.6-110.933 121.6-212.48c0-78.080-39.68-116.48-121.6-116.48z" />
<glyph unicode="&#xe92c;" glyph-name="checkCircle_FF" data-tags="checkCircle_FF" d="M842.24 714.24l-121.6-121.6c8.96-8.96 8.96-23.893 0-33.28l-256-256c-4.693-4.693-10.667-6.827-16.64-6.827s-11.947 2.133-16.64 6.827l-128 128c-8.96 8.96-8.96 23.893 0 33.28l-171.52 171.52c-28.16-56.747-44.373-120.32-44.373-188.16 0-234.24 190.293-424.533 424.533-424.533s424.533 190.293 424.533 424.533c0 100.693-35.413 193.28-94.293 266.24z" />
<glyph unicode="&#xe92d;" glyph-name="checkCircle_FL" data-tags="checkCircle_FL" d="M512 19.2c-236.373 0-428.8 192.427-428.8 428.8s192.427 428.8 428.8 428.8 428.8-192.427 428.8-428.8c0-74.667-20.053-148.907-57.6-214.187-7.68-13.227-24.747-17.92-37.973-10.24s-17.92 24.747-10.24 37.973c32.853 56.747 50.347 121.173 50.347 186.453 0 205.653-167.253 373.333-373.333 373.333s-373.333-167.68-373.333-373.333 167.253-373.333 373.333-373.333c65.28 0 129.707 17.493 186.453 50.347 13.227 7.68 30.293 2.987 37.973-10.24s2.987-30.293-10.24-37.973c-65.28-37.973-139.52-57.6-214.187-57.6z" />
<glyph unicode="&#xe92e;" glyph-name="checkCircle_HF" data-tags="checkCircle_HF" d="M849.92 704v0s0 0-0.427 0.427c0 0 0 0 0-0.427zM303.36 464.64c8.96 8.96 23.893 8.96 33.28 0l111.36-111.36 239.36 239.36c8.96 8.96 23.893 8.96 33.28 0l121.173 121.173c-78.080 96.427-196.267 158.72-329.813 158.72-166.4 0-310.187-96.853-379.733-236.8l171.093-171.093z" />
<glyph unicode="&#xe92f;" glyph-name="checkCircle_HL" data-tags="checkCircle_HL" d="M448 292.267c-7.253 0-14.080 2.56-19.627 8.107l-128 128c-10.667 10.667-10.667 28.587 0 39.253s28.587 10.667 39.253 0l108.373-108.373 236.373 236.373c10.667 10.667 28.587 10.667 39.253 0s10.667-28.587 0-39.253l-256-256c-5.547-5.547-12.373-8.107-19.627-8.107z" />
<glyph unicode="&#xe930;" glyph-name="dashboard_FF" data-tags="dashboard_FF" d="M217.6 829.867h166.4c48.307 0 87.467-39.16 87.467-87.467v-588.8c0-48.307-39.16-87.467-87.467-87.467h-166.4c-48.307 0-87.467 39.16-87.467 87.467v588.8c0 48.307 39.16 87.467 87.467 87.467zM640 358.4h166.4c48.307 0 87.467-39.16 87.467-87.467v-117.333c0-48.307-39.16-87.467-87.467-87.467h-166.4c-48.307 0-87.467 39.16-87.467 87.467v117.333c0 48.307 39.16 87.467 87.467 87.467z" />
<glyph unicode="&#xe931;" glyph-name="dashboard_FL" data-tags="dashboard_FL" d="M384 834.133h-166.4c-50.773 0-91.733-40.96-91.733-91.733v-588.8c0-50.773 40.96-91.733 91.733-91.733h166.4c50.773 0 91.733 40.96 91.733 91.733v588.8c0 50.773-40.96 91.733-91.733 91.733zM420.267 153.6c0-20.053-16.213-36.267-36.267-36.267h-166.4c-20.053 0-36.267 16.213-36.267 36.267v588.8c0 20.053 16.213 36.267 36.267 36.267h166.4c20.053 0 36.267-16.213 36.267-36.267v-588.8zM806.4 362.667h-166.4c-50.773 0-91.733-40.96-91.733-91.733v-117.333c0-50.773 40.96-91.733 91.733-91.733h81.067c15.36 0 27.733 12.373 27.733 27.733s-12.373 27.733-27.733 27.733h-81.067c-20.053 0-36.267 16.213-36.267 36.267v117.333c0 20.053 16.213 36.267 36.267 36.267h166.4c20.053 0 36.267-16.213 36.267-36.267v-32c0-15.36 12.373-27.733 27.733-27.733s27.733 12.373 27.733 27.733v32c0 50.773-40.96 91.733-91.733 91.733z" />
<glyph unicode="&#xe932;" glyph-name="dashboard_HF" data-tags="dashboard_HF" d="M640 829.867h166.4c48.307 0 87.467-39.16 87.467-87.467v-215.467c0-48.307-39.16-87.467-87.467-87.467h-166.4c-48.307 0-87.467 39.16-87.467 87.467v215.467c0 48.307 39.16 87.467 87.467 87.467z" />
<glyph unicode="&#xe933;" glyph-name="dashboard_HL" data-tags="dashboard_HL" d="M806.4 435.2h-166.4c-50.773 0-91.733 40.96-91.733 91.733v215.467c0 50.773 40.96 91.733 91.733 91.733h166.4c50.773 0 91.733-40.96 91.733-91.733v-215.467c0-50.773-40.96-91.733-91.733-91.733zM640 778.667c-20.053 0-36.267-16.213-36.267-36.267v-215.467c0-20.053 16.213-36.267 36.267-36.267h166.4c20.053 0 36.267 16.213 36.267 36.267v215.467c0 20.053-16.213 36.267-36.267 36.267h-166.4z" />
<glyph unicode="&#xe934;" glyph-name="delete_FF" data-tags="delete_FF" d="M785.067 608.853c-4.267 4.693-10.667 7.68-17.067 7.68h-146.773l-11.093-442.027c0-12.8-10.667-23.040-23.467-23.040h-0.427c-12.8 0-23.040 11.093-23.040 23.893l11.093 441.173h-125.013l11.093-441.173c0-12.8-9.813-23.893-23.040-23.893h-0.427c-12.8 0-23.040 10.24-23.467 23.040l-11.093 442.027h-146.773c-6.4 0-12.8-2.56-17.067-7.68-4.267-4.693-6.827-11.093-5.973-17.92l37.973-487.253c3.413-45.227 41.813-80.64 87.040-80.64h308.48c45.227 0 83.627 35.413 87.040 80.64l37.973 487.253c0.427 6.4-1.707 12.8-5.973 17.92z" />
<glyph unicode="&#xe935;" glyph-name="delete_FL" data-tags="delete_FL" d="M770.133 620.8c-14.933 1.28-28.587-10.24-29.867-25.6l-37.973-487.253c-1.28-18.773-17.493-33.28-36.267-33.28h-308.48c-18.773 0-34.56 14.507-36.267 33.28l-37.973 487.253c-1.28 15.36-14.933 26.88-29.867 25.6-15.36-1.28-26.453-14.507-25.6-29.867l37.973-487.253c3.84-47.36 43.947-84.48 91.307-84.48h308.48c47.36 0 87.893 37.12 91.307 84.48l37.973 487.253c1.28 15.36-10.24 28.587-25.6 29.867zM437.333 147.2h0.853c15.36 0 27.307 13.227 26.88 28.587l-10.667 418.133c0 14.933-12.8 26.88-27.733 26.88h-0.853c-15.36 0-27.307-13.227-26.88-28.587l10.667-418.133c0-14.933 12.8-26.88 27.733-26.88zM585.813 147.2h0.853c14.933 0 27.307 11.947 27.733 26.88l10.667 418.133c0 15.36-11.52 28.16-26.88 28.587-17.493-0.427-28.16-11.947-28.587-26.88l-10.667-418.133c0-15.36 11.52-28.16 26.88-28.587z" />
<glyph unicode="&#xe936;" glyph-name="delete_HF" data-tags="delete_HF" d="M832 744.533h-171.093c-11.52 72.533-73.813 128-148.907 128s-137.813-55.467-148.907-128h-171.093c-12.8 0-23.467-10.667-23.467-23.467s10.667-23.467 23.467-23.467h640c12.8 0 23.467 10.667 23.467 23.467s-10.667 23.467-23.467 23.467zM512 825.6c49.493 0 90.88-34.56 101.547-81.067h-203.52c10.667 46.507 52.053 81.067 101.547 81.067z" />
<glyph unicode="&#xe937;" glyph-name="delete_HL" data-tags="delete_HL" d="M832 748.8h-167.253c-13.227 72.533-76.373 128-152.747 128s-139.947-55.467-152.747-128h-167.253c-15.36 0-27.733-12.373-27.733-27.733s12.373-27.733 27.733-27.733h640c15.36 0 27.733 12.373 27.733 27.733s-12.373 27.733-27.733 27.733zM512 821.333c45.653 0 83.627-30.72 96-72.533h-191.573c11.947 41.813 50.347 72.533 96 72.533z" />
<glyph unicode="&#xe938;" glyph-name="dismiss_FF" data-tags="dismiss_FF" d="M293.973 699.307c-8.96 8.96-23.893 8.96-33.28 0-8.96-8.96-8.96-23.893 0-33.28l218.027-218.027-218.027-218.027c-8.96-8.96-8.96-23.893 0-33.28 4.693-4.693 10.667-6.827 16.64-6.827s11.947 2.133 16.64 6.827l218.027 218.027 218.027-218.027c4.693-4.693 10.667-6.827 16.64-6.827s11.947 2.133 16.64 6.827c8.96 8.96 8.96 23.893 0 33.28l-469.333 469.333z" />
<glyph unicode="&#xe939;" glyph-name="dismiss_FL" data-tags="dismiss_FL" d="M296.96 702.293c-10.667 10.667-28.587 10.667-39.253 0s-10.667-28.587 0-39.253l215.040-215.040-215.040-215.040c-10.667-10.667-10.667-28.587 0-39.253 5.547-5.547 12.373-8.107 19.627-8.107s14.080 2.56 19.627 8.107l215.040 215.040 215.040-215.040c5.547-5.547 12.373-8.107 19.627-8.107s14.080 2.56 19.627 8.107c10.667 10.667 10.667 28.587 0 39.253l-469.333 469.333z" />
<glyph unicode="&#xe93a;" glyph-name="dismiss_HF" data-tags="dismiss_HF" d="M576 488.533c5.973 0 11.947 2.133 16.64 6.827l170.667 170.667c8.96 8.96 8.96 23.893 0 33.28-8.96 8.96-23.893 8.96-33.28 0l-170.667-170.667c-8.96-8.96-8.96-23.893 0-33.28 4.693-4.693 10.667-6.827 16.64-6.827z" />
<glyph unicode="&#xe93b;" glyph-name="dismiss_HL" data-tags="dismiss_HL" d="M576 484.267c7.253 0 14.080 2.56 19.627 8.107l170.667 170.667c10.667 10.667 10.667 28.587 0 39.253s-28.587 10.667-39.253 0l-170.667-170.667c-10.667-10.667-10.667-28.587 0-39.253 5.547-5.547 12.373-8.107 19.627-8.107z" />
<glyph unicode="&#xe93c;" glyph-name="distributeHorizontal_FF" data-tags="distributeHorizontal_FF" d="M426.667 770.133h170.667c12.96 0 23.467-10.506 23.467-23.467v-597.333c0-12.96-10.506-23.467-23.467-23.467h-170.667c-12.96 0-23.467 10.506-23.467 23.467v597.333c0 12.96 10.506 23.467 23.467 23.467z" />
<glyph unicode="&#xe93d;" glyph-name="distributeHorizontal_FL" data-tags="distributeHorizontal_FL" d="M625.067 149.333v597.333c0 15.36-12.373 27.733-27.733 27.733h-170.667c-15.36 0-27.733-12.373-27.733-27.733v-597.333c0-15.36 12.373-27.733 27.733-27.733h170.667c15.36 0 27.733 12.373 27.733 27.733zM454.4 177.067v541.867h115.2v-541.867h-115.2z" />
<glyph unicode="&#xe93e;" glyph-name="distributeHorizontal_HF" data-tags="distributeHorizontal_HF" d="M213.333 23.467c-12.8 0-23.467 10.667-23.467 23.467v802.133c0 12.8 10.667 23.467 23.467 23.467s23.467-10.667 23.467-23.467v-802.133c0-12.8-10.667-23.467-23.467-23.467zM810.667 23.467c-12.8 0-23.467 10.667-23.467 23.467v802.133c0 12.8 10.667 23.467 23.467 23.467s23.467-10.667 23.467-23.467v-802.133c0-12.8-10.667-23.467-23.467-23.467z" />
<glyph unicode="&#xe93f;" glyph-name="distributeHorizontal_HL" data-tags="distributeHorizontal_HL" d="M213.333 19.2c-15.36 0-27.733 12.373-27.733 27.733v802.133c0 15.36 12.373 27.733 27.733 27.733s27.733-12.373 27.733-27.733v-802.133c0-15.36-12.373-27.733-27.733-27.733zM810.667 19.2c-15.36 0-27.733 12.373-27.733 27.733v802.133c0 15.36 12.373 27.733 27.733 27.733s27.733-12.373 27.733-27.733v-802.133c0-15.36-12.373-27.733-27.733-27.733z" />
<glyph unicode="&#xe940;" glyph-name="distributeHorizontal_TF" data-tags="distributeHorizontal_TF" d="M213.333 872.533c-12.8 0-23.467-10.667-23.467-23.467v-802.133c0-12.8 10.667-23.467 23.467-23.467s23.467 10.667 23.467 23.467v802.133c0 12.8-10.667 23.467-23.467 23.467zM810.667 872.533c-12.8 0-23.467-10.667-23.467-23.467v-802.133c0-12.8 10.667-23.467 23.467-23.467s23.467 10.667 23.467 23.467v802.133c0 12.8-10.667 23.467-23.467 23.467zM426.667 770.133h170.667c12.96 0 23.467-10.506 23.467-23.467v-597.333c0-12.96-10.506-23.467-23.467-23.467h-170.667c-12.96 0-23.467 10.506-23.467 23.467v597.333c0 12.96 10.506 23.467 23.467 23.467z" />
<glyph unicode="&#xe941;" glyph-name="distributeHorizontal_TL" data-tags="distributeHorizontal_TL" d="M213.333 19.2c-15.36 0-27.733 12.373-27.733 27.733v802.133c0 15.36 12.373 27.733 27.733 27.733s27.733-12.373 27.733-27.733v-802.133c0-15.36-12.373-27.733-27.733-27.733zM810.667 19.2c-15.36 0-27.733 12.373-27.733 27.733v802.133c0 15.36 12.373 27.733 27.733 27.733s27.733-12.373 27.733-27.733v-802.133c0-15.36-12.373-27.733-27.733-27.733zM625.067 149.333v597.333c0 15.36-12.373 27.733-27.733 27.733h-170.667c-15.36 0-27.733-12.373-27.733-27.733v-597.333c0-15.36 12.373-27.733 27.733-27.733h170.667c15.36 0 27.733 12.373 27.733 27.733zM454.4 177.067v541.867h115.2v-541.867h-115.2z" />
<glyph unicode="&#xe942;" glyph-name="distributeVertical_FF" data-tags="distributeVertical_FF" d="M213.333 556.8h597.333c12.96 0 23.467-10.506 23.467-23.467v-170.667c0-12.96-10.506-23.467-23.467-23.467h-597.333c-12.96 0-23.467 10.506-23.467 23.467v170.667c0 12.96 10.506 23.467 23.467 23.467z" />
<glyph unicode="&#xe943;" glyph-name="distributeVertical_FL" data-tags="distributeVertical_FL" d="M213.333 334.933h597.333c15.36 0 27.733 12.373 27.733 27.733v170.667c0 15.36-12.373 27.733-27.733 27.733h-597.333c-15.36 0-27.733-12.373-27.733-27.733v-170.667c0-15.36 12.373-27.733 27.733-27.733zM241.067 505.6h541.867v-115.2h-541.867v115.2z" />
<glyph unicode="&#xe944;" glyph-name="distributeVertical_HF" data-tags="distributeVertical_HF" d="M87.467 746.667c0 12.8 10.667 23.467 23.467 23.467h802.133c12.8 0 23.467-10.667 23.467-23.467s-10.667-23.467-23.467-23.467h-802.133c-12.8 0-23.467 10.667-23.467 23.467zM87.467 149.333c0 12.8 10.667 23.467 23.467 23.467h802.133c12.8 0 23.467-10.667 23.467-23.467s-10.667-23.467-23.467-23.467h-802.133c-12.8 0-23.467 10.667-23.467 23.467z" />
<glyph unicode="&#xe945;" glyph-name="distributeVertical_HL" data-tags="distributeVertical_HL" d="M83.2 746.667c0 15.36 12.373 27.733 27.733 27.733h802.133c15.36 0 27.733-12.373 27.733-27.733s-12.373-27.733-27.733-27.733h-802.133c-15.36 0-27.733 12.373-27.733 27.733zM83.2 149.333c0 15.36 12.373 27.733 27.733 27.733h802.133c15.36 0 27.733-12.373 27.733-27.733s-12.373-27.733-27.733-27.733h-802.133c-15.36 0-27.733 12.373-27.733 27.733z" />
<glyph unicode="&#xe946;" glyph-name="distributeVertical_TF" data-tags="distributeVertical_TF" d="M87.467 746.667c0 12.8 10.667 23.467 23.467 23.467h802.133c12.8 0 23.467-10.667 23.467-23.467s-10.667-23.467-23.467-23.467h-802.133c-12.8 0-23.467 10.667-23.467 23.467zM87.467 149.333c0 12.8 10.667 23.467 23.467 23.467h802.133c12.8 0 23.467-10.667 23.467-23.467s-10.667-23.467-23.467-23.467h-802.133c-12.8 0-23.467 10.667-23.467 23.467zM213.333 556.8h597.333c12.96 0 23.467-10.506 23.467-23.467v-170.667c0-12.96-10.506-23.467-23.467-23.467h-597.333c-12.96 0-23.467 10.506-23.467 23.467v170.667c0 12.96 10.506 23.467 23.467 23.467z" />
<glyph unicode="&#xe947;" glyph-name="distributeVertical_TL" data-tags="distributeVertical_TL" d="M83.2 746.667c0 15.36 12.373 27.733 27.733 27.733h802.133c15.36 0 27.733-12.373 27.733-27.733s-12.373-27.733-27.733-27.733h-802.133c-15.36 0-27.733 12.373-27.733 27.733zM83.2 149.333c0 15.36 12.373 27.733 27.733 27.733h802.133c15.36 0 27.733-12.373 27.733-27.733s-12.373-27.733-27.733-27.733h-802.133c-15.36 0-27.733 12.373-27.733 27.733zM213.333 334.933h597.333c15.36 0 27.733 12.373 27.733 27.733v170.667c0 15.36-12.373 27.733-27.733 27.733h-597.333c-15.36 0-27.733-12.373-27.733-27.733v-170.667c0-15.36 12.373-27.733 27.733-27.733zM241.067 505.6h541.867v-115.2h-541.867v115.2z" />
<glyph unicode="&#xe948;" glyph-name="energy_FF" data-tags="energy_FF" d="M512 168.533c-3.413 0-7.253 0.853-10.667 2.56-11.52 5.973-16.213 20.053-10.667 31.573l68.267 136.533h-132.693c-8.107 0-15.787 4.267-20.053 11.093s-4.693 15.36-0.853 23.040l85.333 170.667c4.267 8.107 12.373 12.8 20.907 12.8v314.453c-22.187 0-43.947-9.387-57.6-28.16l-211.2-291.413c-55.040-75.52-75.52-168.533-57.6-261.547 25.6-130.987 130.56-235.52 261.12-260.693 21.76-4.267 43.093-5.973 64.853-5.973 0 0 0.427 0 0.853 0v145.067s0 0 0 0z" />
<glyph unicode="&#xe949;" glyph-name="energy_FL" data-tags="energy_FL" d="M511.147 19.2c-21.76 0-43.52 2.133-65.28 6.4-132.267 25.173-238.507 131.413-264.533 264.107-18.347 94.293 2.56 188.16 58.453 264.96l211.2 291.413c28.587 39.68 93.44 39.68 122.027 0l211.2-291.413c8.96-12.373 6.4-29.867-5.973-38.827s-29.867-6.4-38.827 5.973l-211.2 291.413c-7.68 10.24-24.747 10.24-32 0l-211.2-291.413c-46.933-64-64-142.933-48.64-221.867 21.333-110.507 110.080-198.827 220.587-220.16 84.48-16.213 170.24 5.547 235.093 59.307s102.4 132.693 102.4 217.173c0 15.36 12.373 27.733 27.733 27.733s27.733-12.373 27.733-27.733c0-100.693-44.373-195.413-122.453-259.84-61.013-50.347-136.96-77.227-215.467-77.227z" />
<glyph unicode="&#xe94a;" glyph-name="energy_HF" data-tags="energy_HF" d="M780.8 552.107l-211.2 291.413c-13.653 18.773-35.413 27.733-57.6 27.733v-314.453c3.413 0 7.253-0.427 10.667-2.133 11.52-5.973 16.213-20.053 10.667-31.573l-68.267-136.533h132.693c8.107 0 15.787-4.267 20.053-11.093s4.693-15.36 0.853-23.040l-85.333-170.667c-4.267-8.107-12.373-12.8-20.907-12.8l-0.853-145.067c77.653 0 152.747 26.453 212.48 75.947 76.8 63.573 120.747 157.013 120.747 256.427 0 70.4-22.187 138.24-64 195.84z" />
<glyph unicode="&#xe94b;" glyph-name="energy_HL" data-tags="energy_HL" d="M512 164.267c-4.267 0-8.533 0.853-12.373 2.987-13.653 6.827-19.2 23.467-12.373 37.12l65.28 130.56h-125.867c-9.813 0-18.347 5.12-23.467 13.227s-5.547 18.347-1.28 26.88l85.333 170.667c6.827 13.653 23.467 19.2 37.12 12.373s19.2-23.467 12.373-37.12l-65.28-130.56h125.867c9.813 0 18.347-5.12 23.467-13.227s5.547-18.347 1.28-26.88l-85.333-170.667c-4.693-9.813-14.507-15.36-24.747-15.36z" />
<glyph unicode="&#xe94c;" glyph-name="exit_FF" data-tags="exit_FF" d="M870.4 424.533h-358.4c-12.8 0-23.467 10.667-23.467 23.467h-358.4v-294.4c0-48.213 39.253-87.467 87.467-87.467h588.8c48.213 0 87.467 39.253 87.467 87.467v294.4c0-12.8-10.667-23.467-23.467-23.467zM801.707 346.027l-42.667-42.667c-4.693-4.693-10.667-6.827-16.64-6.827s-11.947 2.133-16.64 6.827c-8.96 8.96-8.96 23.893 0 33.28l42.667 42.667c8.96 8.96 23.893 8.96 33.28 0 8.96-8.96 8.96-23.893 0-33.28z" />
<glyph unicode="&#xe94d;" glyph-name="exit_FL" data-tags="exit_FL" d="M806.4 61.867h-588.8c-50.773 0-91.733 40.96-91.733 91.733v588.8c0 50.773 40.96 91.733 91.733 91.733h588.8c50.773 0 91.733-40.96 91.733-91.733v-81.067c0-15.36-12.373-27.733-27.733-27.733s-27.733 12.373-27.733 27.733v81.067c0 20.053-16.213 36.267-36.267 36.267h-588.8c-20.053 0-36.267-16.213-36.267-36.267v-588.8c0-20.053 16.213-36.267 36.267-36.267h588.8c20.053 0 36.267 16.213 36.267 36.267v81.067c0 15.36 12.373 27.733 27.733 27.733s27.733-12.373 27.733-27.733v-81.067c0-50.773-40.96-91.733-91.733-91.733z" />
<glyph unicode="&#xe94e;" glyph-name="exit_HF" data-tags="exit_HF" d="M488.533 448c0 12.8 10.667 23.467 23.467 23.467h301.653l-87.893 87.893c-8.96 8.96-8.96 23.893 0 33.28 8.96 8.96 23.893 8.96 33.28 0l128-128c4.693-4.693 6.827-10.667 6.827-16.64v294.4c0 48.213-39.253 87.467-87.467 87.467h-588.8c-48.213 0-87.467-39.253-87.467-87.467v-294.4h358.4z" />
<glyph unicode="&#xe94f;" glyph-name="exit_HL" data-tags="exit_HL" d="M890.027 467.627l-128 128c-10.667 10.667-28.587 10.667-39.253 0s-10.667-28.587 0-39.253l80.64-80.64h-291.413c-15.36 0-27.733-12.373-27.733-27.733s12.373-27.733 27.733-27.733h358.4c11.093 0 21.333 6.827 25.6 17.067s1.707 22.187-5.973 30.293zM765.44 382.293l-42.667-42.667c-10.667-10.667-10.667-28.587 0-39.253 5.547-5.547 12.373-8.107 19.627-8.107s14.080 2.56 19.627 8.107l42.667 42.667c10.667 10.667 10.667 28.587 0 39.253s-28.587 10.667-39.253 0z" />
<glyph unicode="&#xe950;" glyph-name="extend_FF" data-tags="extend_FF" d="M392.96 362.24l-215.893-215.893v156.587c0 12.8-10.667 23.467-23.467 23.467s-23.467-10.667-23.467-23.467v-213.333c0-12.8 10.667-23.467 23.467-23.467h213.333c12.8 0 23.467 10.667 23.467 23.467s-10.667 23.467-23.467 23.467h-156.587l215.893 215.893c8.96 8.96 8.96 23.893 0 33.28-8.96 8.96-23.893 8.96-33.28 0zM892.16 815.36c-3.413 8.96-12.373 14.507-21.76 14.507h-213.333c-12.8 0-23.467-10.667-23.467-23.467s10.667-23.467 23.467-23.467h156.587l-215.893-215.893c-8.96-8.96-8.96-23.893 0-33.28 4.693-4.693 10.667-6.827 16.64-6.827s11.947 2.133 16.64 6.827l256 256c6.827 6.827 8.533 16.64 5.12 25.6z" />
<glyph unicode="&#xe951;" glyph-name="extend_FL" data-tags="extend_FL" d="M389.973 365.227l-208.64-208.64v146.347c0 15.36-12.373 27.733-27.733 27.733s-27.733-12.373-27.733-27.733v-213.333c0-15.36 12.373-27.733 27.733-27.733h213.333c15.36 0 27.733 12.373 27.733 27.733s-12.373 27.733-27.733 27.733h-146.347l208.64 208.64c10.667 10.667 10.667 28.587 0 39.253s-28.587 10.667-39.253 0zM896 817.067c-4.267 10.24-14.507 17.067-25.6 17.067h-213.333c-15.36 0-27.733-12.373-27.733-27.733s12.373-27.733 27.733-27.733h146.347l-208.64-208.64c-10.667-10.667-10.667-28.587 0-39.253 5.547-5.547 12.373-8.107 19.627-8.107s14.080 2.56 19.627 8.107l256 256c8.107 8.107 10.24 20.053 5.973 30.293z" />
<glyph unicode="&#xe952;" glyph-name="extend_HF" data-tags="extend_HF" d="M870.4 659.2c-12.8 0-23.467-10.667-23.467-23.467v-42.667c0-12.8 10.667-23.467 23.467-23.467s23.467 10.667 23.467 23.467v42.667c0 12.8-10.667 23.467-23.467 23.467z" />
<glyph unicode="&#xe953;" glyph-name="extend_HL" data-tags="extend_HL" d="M870.4 565.333c-15.36 0-27.733 12.373-27.733 27.733v42.667c0 15.36 12.373 27.733 27.733 27.733s27.733-12.373 27.733-27.733v-42.667c0-15.36-12.373-27.733-27.733-27.733z" />
<glyph unicode="&#xe954;" glyph-name="eyeDropper_FF" data-tags="eyeDropper_FF" d="M654.080 464.64l-120.747 120.747c-8.96 8.96-23.893 8.96-33.28 0l-325.973-325.973c-2.56-2.56-4.693-5.547-5.547-9.387l-13.653-40.533c-14.080-15.787-21.333-36.267-21.333-57.6 0-23.467 8.96-45.227 25.6-61.867s38.4-25.6 61.867-25.6c21.333 0 41.387 7.68 57.6 21.76l40.533 13.653c3.413 1.28 6.4 2.987 8.96 5.547l325.973 325.973c8.96 8.96 8.96 23.893 0 33.28z" />
<glyph unicode="&#xe955;" glyph-name="eyeDropper_FL" data-tags="eyeDropper_FL" d="M220.587 60.587c-24.32 0-47.36 9.387-64.853 26.88s-26.88 40.533-26.88 64.853c0 22.187 7.68 43.093 22.187 59.733l13.227 39.68c1.28 4.267 3.413 7.68 6.827 10.667l325.973 325.973c10.667 10.667 28.587 10.667 39.253 0s10.667-28.587 0-39.253l-321.707-321.28-13.227-39.253c-1.28-4.267-3.413-7.68-6.827-10.667-6.827-6.827-10.667-15.787-10.667-25.6s3.84-18.773 10.667-25.6c13.653-13.653 37.547-13.653 51.2 0 2.987 2.987 6.827 5.547 10.667 6.827l39.253 13.227 321.28 321.28c10.667 10.667 28.587 10.667 39.253 0s10.667-28.587 0-39.253l-325.973-325.973c-2.987-2.987-6.827-5.547-10.667-6.827l-39.68-13.227c-16.64-14.080-37.547-22.187-59.733-22.187z" />
<glyph unicode="&#xe956;" glyph-name="eyeDropper_HF" data-tags="eyeDropper_HF" d="M896.853 719.787c0 29.013-11.093 56.32-32 76.8-40.96 40.96-112.64 40.96-154.027 0l-104.107-104.107-43.947 43.947c-8.96 8.96-23.893 8.96-33.28 0-8.96-8.96-8.96-23.893 0-33.28l241.493-241.493c4.693-4.693 10.667-6.827 16.64-6.827s11.947 2.133 16.64 6.827c8.96 8.96 8.96 23.893 0 33.28l-43.947 43.947 104.107 104.107c20.48 20.48 32 47.787 32 76.8z" />
<glyph unicode="&#xe957;" glyph-name="eyeDropper_HL" data-tags="eyeDropper_HL" d="M901.12 719.787c0 30.293-11.947 58.453-33.28 79.787-42.667 42.667-117.333 42.667-160 0l-101.12-101.12-40.533 40.533c-10.667 10.667-28.587 10.667-39.253 0s-10.667-28.587 0-39.253l241.493-241.493c5.547-5.547 12.373-8.107 19.627-8.107s14.080 2.56 19.627 8.107c10.667 10.667 10.667 28.587 0 39.253l-40.96 40.533 101.12 101.12c21.333 21.333 33.28 49.92 33.28 79.787zM829.013 679.253l-101.12-101.12-81.493 81.493 101.12 101.12c21.76 21.76 59.733 21.76 81.493 0v0c11.093-10.667 17.067-25.173 17.067-40.533s-5.973-29.867-17.067-40.533z" />
<glyph unicode="&#xe958;" glyph-name="film_FF" data-tags="film_FF" d="M849.067 770.133h-674.133c-48.213 0-87.467-39.253-87.467-87.467v-469.333c0-48.213 39.253-87.467 87.467-87.467h674.133c48.213 0 87.467 39.253 87.467 87.467v469.333c0 48.213-39.253 87.467-87.467 87.467zM656.64 390.827l-167.68-96.853c-10.24-5.973-21.76-8.96-33.28-8.96s-22.613 2.987-32.853 8.96c-20.907 11.947-33.28 33.28-33.28 57.173v193.707c0 23.893 12.373 45.227 33.28 57.173 20.48 11.947 45.653 11.947 66.133 0l167.68-96.853c20.48-11.947 32.853-33.28 32.853-57.173s-12.373-45.227-32.853-57.173z" />
<glyph unicode="&#xe959;" glyph-name="graphic_FF" data-tags="graphic_FF" d="M364.8 509.867h123.733v-123.733h-123.733v123.733zM849.067 770.133h-398.933v-108.8c0-12.8-10.667-23.467-23.467-23.467s-23.467 10.667-23.467 23.467v108.8h-228.267c-48.213 0-87.467-39.253-87.467-87.467v-211.2h125.867c12.8 0 23.467-10.667 23.467-23.467s-10.667-23.467-23.467-23.467h-125.867v-211.2c0-48.213 39.253-87.467 87.467-87.467h228.267v108.8c0 12.8 10.667 23.467 23.467 23.467s23.467-10.667 23.467-23.467v-108.8h226.133v236.8c0 12.8 10.667 23.467 23.467 23.467h236.8v296.533c0 48.213-39.253 87.467-87.467 87.467zM535.467 362.667c0-12.8-10.667-23.467-23.467-23.467h-170.667c-12.8 0-23.467 10.667-23.467 23.467v170.667c0 12.8 10.667 23.467 23.467 23.467h170.667c12.8 0 23.467-10.667 23.467-23.467v-170.667z" />
<glyph unicode="&#xe95a;" glyph-name="graphic_FL" data-tags="graphic_FL" d="M913.067 462.933c15.36 0 27.733 12.373 27.733 27.733v192c0 50.773-40.96 91.733-91.733 91.733h-674.133c-50.773 0-91.733-40.96-91.733-91.733v-469.333c0-50.773 40.96-91.733 91.733-91.733h524.8c7.68 0 14.507 2.987 19.627 8.107l213.333 213.333c8.107 8.107 10.24 20.053 5.973 30.293s-14.507 17.067-25.6 17.067h-213.333c-15.36 0-27.733-12.373-27.733-27.733v-185.6h-217.6v57.6c0 15.36-12.373 27.733-27.733 27.733s-27.733-12.373-27.733-27.733v-57.6h-224c-20.053 0-36.267 16.213-36.267 36.267v206.933h74.667c15.36 0 27.733 12.373 27.733 27.733s-12.373 27.733-27.733 27.733h-74.667v206.933c0 20.053 16.213 36.267 36.267 36.267h224v-57.6c0-15.36 12.373-27.733 27.733-27.733s27.733 12.373 27.733 27.733v57.6h394.667c20.053 0 36.267-16.213 36.267-36.267v-192c0-15.36 12.373-27.733 27.733-27.733zM727.467 334.933h118.613l-118.613-118.613v118.613z" />
<glyph unicode="&#xe95b;" glyph-name="graphic_HF" data-tags="graphic_HF" d="M723.2 139.52l199.68 199.68h-199.68v-199.68z" />
<glyph unicode="&#xe95c;" glyph-name="graphic_HL" data-tags="graphic_HL" d="M512 334.933h-170.667c-15.36 0-27.733 12.373-27.733 27.733v170.667c0 15.36 12.373 27.733 27.733 27.733h170.667c15.36 0 27.733-12.373 27.733-27.733v-170.667c0-15.36-12.373-27.733-27.733-27.733zM369.067 390.4h115.2v115.2h-115.2v-115.2z" />
<glyph unicode="&#xe95d;" glyph-name="film_FL" data-tags="film_FL" d="M763.733 121.6h-588.8c-50.773 0-91.733 40.96-91.733 91.733v469.333c0 50.773 40.96 91.733 91.733 91.733h674.133c50.773 0 91.733-40.96 91.733-91.733v-384c0-15.36-12.373-27.733-27.733-27.733s-27.733 12.373-27.733 27.733v384c0 20.053-16.213 36.267-36.267 36.267h-674.133c-20.053 0-36.267-16.213-36.267-36.267v-469.333c0-20.053 16.213-36.267 36.267-36.267h588.8c15.36 0 27.733-12.373 27.733-27.733s-12.373-27.733-27.733-27.733z" />
<glyph unicode="&#xe95e;" glyph-name="film_HF" data-tags="film_HF" d="M633.173 464.64l-167.68 96.853c-3.413 2.133-6.827 2.56-9.387 2.56-4.267 0-8.107-1.707-9.813-2.56-2.987-1.707-9.813-6.827-9.813-16.64v-193.707c0-9.813 6.827-14.933 9.813-16.64s10.667-5.12 19.2 0l167.68 96.853c8.533 5.12 9.387 13.227 9.387 16.64s-0.853 11.52-9.387 16.64z" />
<glyph unicode="&#xe95f;" glyph-name="film_HL" data-tags="film_HL" d="M456.107 280.747c-11.947 0-24.32 2.987-34.987 9.387-22.187 12.8-35.413 35.413-35.413 61.013v193.707c0 25.6 13.227 48.213 35.413 61.013s48.213 12.8 70.4 0l167.68-96.853c22.187-12.8 34.987-35.413 34.987-61.013s-13.227-48.213-34.987-61.013l-167.68-96.853c-11.093-6.4-23.040-9.387-35.413-9.387zM456.107 559.787c-3.413 0-5.973-1.28-7.68-2.133-2.133-1.28-7.253-5.12-7.253-12.8v-193.707c0-7.68 5.12-11.52 7.253-12.8s8.107-3.84 14.933 0l167.68 96.853c6.827 3.84 7.253 10.24 7.253 12.8s-0.853 8.96-7.253 12.8l-167.68 96.853c-2.56 1.707-5.12 2.133-7.253 2.133z" />
<glyph unicode="&#xe960;" glyph-name="floor_FF" data-tags="floor_FF" d="M806.4 829.867h-110.933c-48.213 0-87.467-39.253-87.467-87.467v-104.533h134.4c12.8 0 23.467-10.667 23.467-23.467s-10.667-23.467-23.467-23.467h-285.867c-48.213 0-87.467-39.253-87.467-87.467v-104.533h245.333c12.8 0 23.467-10.667 23.467-23.467s-10.667-23.467-23.467-23.467h-396.8c-48.213 0-87.467-39.253-87.467-87.467v-110.933c0-48.213 39.253-87.467 87.467-87.467h588.8c48.213 0 87.467 39.253 87.467 87.467v588.8c0 48.213-39.253 87.467-87.467 87.467z" />
<glyph unicode="&#xe961;" glyph-name="floor_FL" data-tags="floor_FL" d="M806.4 834.133h-110.933c-50.773 0-91.733-40.96-91.733-91.733v-147.2h-147.2c-50.773 0-91.733-40.96-91.733-91.733v-147.2h-147.2c-50.773 0-91.733-40.96-91.733-91.733v-110.933c0-50.773 40.96-91.733 91.733-91.733h503.467c15.36 0 27.733 12.373 27.733 27.733s-12.373 27.733-27.733 27.733h-503.467c-20.053 0-36.267 16.213-36.267 36.267v110.933c0 20.053 16.213 36.267 36.267 36.267h396.8c15.36 0 27.733 12.373 27.733 27.733s-12.373 27.733-27.733 27.733h-194.133v147.2c0 20.053 16.213 36.267 36.267 36.267h285.867c15.36 0 27.733 12.373 27.733 27.733s-12.373 27.733-27.733 27.733h-83.2v147.2c0 20.053 16.213 36.267 36.267 36.267h110.933c20.053 0 36.267-16.213 36.267-36.267v-503.467c0-15.36 12.373-27.733 27.733-27.733s27.733 12.373 27.733 27.733v503.467c0 50.773-40.96 91.733-91.733 91.733z" />
<glyph unicode="&#xe962;" glyph-name="floor_HF" data-tags="floor_HF" d="M392.533 829.867h-174.933c-48.213 0-87.467-39.253-87.467-87.467v-283.733c0-12.8 10.667-23.467 23.467-23.467s23.467 10.667 23.467 23.467v132.267h147.2c12.8 0 23.467 10.667 23.467 23.467s-10.667 23.467-23.467 23.467h-147.2v104.533c0 22.187 18.347 40.533 40.533 40.533h174.933c12.8 0 23.467 10.667 23.467 23.467s-10.667 23.467-23.467 23.467z" />
<glyph unicode="&#xe963;" glyph-name="floor_HL" data-tags="floor_HL" d="M392.533 834.133h-174.933c-50.773 0-91.733-40.96-91.733-91.733v-283.733c0-15.36 12.373-27.733 27.733-27.733s27.733 12.373 27.733 27.733v132.267h142.933c15.36 0 27.733 12.373 27.733 27.733s-12.373 27.733-27.733 27.733h-142.933v96c0 20.053 16.213 36.267 36.267 36.267h174.933c15.36 0 27.733 12.373 27.733 27.733s-12.373 27.733-27.733 27.733z" />
<glyph unicode="&#xe964;" glyph-name="fullscreen_FF" data-tags="fullscreen_FF" d="M806.4 829.867h-588.8c-48.213 0-87.467-39.253-87.467-87.467v-588.8c0-48.213 39.253-87.467 87.467-87.467h588.8c48.213 0 87.467 39.253 87.467 87.467v588.8c0 48.213-39.253 87.467-87.467 87.467zM748.8 234.667c0-12.8-10.667-23.467-23.467-23.467h-426.667c-12.8 0-23.467 10.667-23.467 23.467v426.667c0 12.8 10.667 23.467 23.467 23.467h426.667c12.8 0 23.467-10.667 23.467-23.467v-426.667z" />
<glyph unicode="&#xe965;" glyph-name="fullscreen_FL" data-tags="fullscreen_FL" d="M721.067 61.867h-503.467c-50.773 0-91.733 40.96-91.733 91.733v588.8c0 50.773 40.96 91.733 91.733 91.733h588.8c50.773 0 91.733-40.96 91.733-91.733v-503.467c0-15.36-12.373-27.733-27.733-27.733s-27.733 12.373-27.733 27.733v503.467c0 20.053-16.213 36.267-36.267 36.267h-588.8c-20.053 0-36.267-16.213-36.267-36.267v-588.8c0-20.053 16.213-36.267 36.267-36.267h503.467c15.36 0 27.733-12.373 27.733-27.733s-12.373-27.733-27.733-27.733z" />
<glyph unicode="&#xe966;" glyph-name="fullscreen_HF" data-tags="fullscreen_HF" d="M725.333 531.2c-12.8 0-23.467 10.667-23.467 23.467v83.2h-83.2c-12.8 0-23.467 10.667-23.467 23.467s10.667 23.467 23.467 23.467h-213.333c12.8 0 23.467-10.667 23.467-23.467s-10.667-23.467-23.467-23.467h-83.2v-83.2c0-12.8-10.667-23.467-23.467-23.467s-23.467 10.667-23.467 23.467v-213.333c0 12.8 10.667 23.467 23.467 23.467s23.467-10.667 23.467-23.467v-83.2h83.2c12.8 0 23.467-10.667 23.467-23.467s-10.667-23.467-23.467-23.467h213.333c-12.8 0-23.467 10.667-23.467 23.467s10.667 23.467 23.467 23.467h83.2v83.2c0 12.8 10.667 23.467 23.467 23.467s23.467-10.667 23.467-23.467v213.333c0-12.8-10.667-23.467-23.467-23.467z" />
<glyph unicode="&#xe967;" glyph-name="fullscreen_HL" data-tags="fullscreen_HL" d="M405.333 689.067h-106.667c-15.36 0-27.733-12.373-27.733-27.733v-106.667c0-15.36 12.373-27.733 27.733-27.733s27.733 12.373 27.733 27.733v78.933h78.933c15.36 0 27.733 12.373 27.733 27.733s-12.373 27.733-27.733 27.733zM725.333 689.067h-106.667c-15.36 0-27.733-12.373-27.733-27.733s12.373-27.733 27.733-27.733h78.933v-78.933c0-15.36 12.373-27.733 27.733-27.733s27.733 12.373 27.733 27.733v106.667c0 15.36-12.373 27.733-27.733 27.733zM725.333 369.067c-15.36 0-27.733-12.373-27.733-27.733v-78.933h-78.933c-15.36 0-27.733-12.373-27.733-27.733s12.373-27.733 27.733-27.733h106.667c15.36 0 27.733 12.373 27.733 27.733v106.667c0 15.36-12.373 27.733-27.733 27.733zM405.333 262.4h-78.933v78.933c0 15.36-12.373 27.733-27.733 27.733s-27.733-12.373-27.733-27.733v-106.667c0-15.36 12.373-27.733 27.733-27.733h106.667c15.36 0 27.733 12.373 27.733 27.733s-12.373 27.733-27.733 27.733z" />
<glyph unicode="&#xe968;" glyph-name="grab_FF" data-tags="grab_FF" d="M824.747 695.040c-16.213 8.107-28.587 12.373-38.4 15.36-11.947-23.893-30.293-34.56-44.8-27.733-18.347 8.107-21.333 32.853-20.053 64.427-0.427 0.853-1.28 1.28-1.707 2.133-15.787 17.067-33.707 36.267-53.333 45.227-28.16 12.8-52.48 11.947-73.813 10.24-5.973-26.453-18.773-39.68-37.547-36.693-16.64 2.987-24.747 19.627-31.573 44.373-1.707 0.853-2.987 1.28-4.693 1.707-17.067 7.253-36.693 15.36-64.427 15.36-25.173 0-42.24-8.533-55.467-15.787 3.84-23.040 1.28-42.667-13.653-46.080-15.787-3.84-34.987 10.667-50.773 28.16-12.8-2.133-25.6-5.12-36.693-11.093 0 0 0 0 0 0-59.733-125.867 31.573-283.733-3.84-306.347-16.213-10.24-55.040 3.84-84.053 69.547-72.533-16.213-79.36-69.12-79.36-140.8 0-87.467 98.987-340.907 401.493-340.907 240.64 0 362.24 159.573 362.24 474.027 0 59.733-8.107 125.013-69.12 154.88z" />
<glyph unicode="&#xe969;" glyph-name="grab_FL" data-tags="grab_FL" d="M531.627 61.867c-305.92 0-405.76 256.853-405.76 345.173 0 80.64 7.68 138.667 104.96 148.907 4.693 5.973 2.56 34.987 1.707 54.187-3.84 58.027-8.533 137.813 62.72 177.92 17.067 9.387 37.973 12.373 56.32 14.933 8.96 1.28 17.92 2.133 25.173 4.267 3.84 1.28 8.96 3.84 14.507 7.253 14.080 8.107 33.28 19.2 62.293 19.2s48.64-8.533 66.133-15.787c10.667-4.693 20.053-8.533 30.72-10.24 11.093-1.707 22.613-0.853 34.56 0 23.467 1.707 50.347 3.84 82.347-10.24 20.907-9.387 38.827-29.013 55.040-46.080 8.533-8.96 18.773-20.48 24.32-23.893 9.813-5.547 15.787-7.253 25.6-9.813 12.373-2.987 28.16-6.827 53.76-19.627 71.68-35.413 71.68-121.6 71.68-158.72 0-130.133-20.053-230.827-61.013-308.053-7.253-13.653-23.893-18.773-37.547-11.52s-18.773 23.893-11.52 37.547c36.693 68.693 54.613 160.853 54.613 282.027 0 63.147-11.947 94.72-40.533 109.227-20.053 9.813-31.573 12.8-42.667 15.36-11.52 2.987-23.893 5.973-40.533 15.787-12.8 7.253-24.747 20.48-37.12 33.707-11.947 12.8-26.453 28.587-37.12 33.28-19.2 8.533-34.987 7.253-55.040 5.547-14.080-1.28-29.867-2.56-46.933 0-17.493 2.56-32 8.533-44.373 14.080-14.507 5.973-27.307 11.52-44.373 11.52-14.080 0-23.040-5.12-34.56-11.947-7.68-4.693-16.64-9.813-27.307-12.8-9.813-2.56-21.333-4.267-33.28-5.973-13.227-1.707-28.587-3.84-36.267-8.107-38.4-21.76-38.4-66.133-34.987-126.293 2.987-45.227 6.827-106.667-51.2-113.067-46.933-5.12-55.467-12.373-55.467-93.867 0-74.24 86.187-289.707 350.293-289.707 59.307 0 109.227 11.093 152.747 34.56 13.653 7.253 30.293 2.133 37.547-11.52s2.133-30.293-11.52-37.547c-50.773-27.307-110.933-40.96-178.773-40.96z" />
<glyph unicode="&#xe96a;" glyph-name="grab_HF" data-tags="grab_HF" d="M771.84 714.24c-9.813 2.56-16.64 4.267-26.88 10.24-5.547 3.413-14.933 13.227-23.467 22.613-1.28-31.573 2.133-56.747 20.053-64.427 14.933-6.4 33.28 3.84 44.8 27.733-5.547 1.707-10.24 2.987-14.507 3.84zM549.973 803.84c-9.387 1.28-17.92 4.693-27.307 8.533 6.827-24.747 14.933-41.387 31.573-44.373 19.2-3.413 31.573 10.24 37.547 36.693-2.133 0-4.267 0-6.4 0-12.373-0.853-23.893-1.707-35.413 0zM393.387 811.093c-5.973-3.413-11.093-6.4-15.36-7.68-7.68-2.133-16.64-3.413-26.027-4.267-5.973-0.853-11.947-2.133-18.347-2.987 15.787-17.493 34.987-31.573 50.773-28.16 14.933 3.413 17.493 23.040 13.653 46.080-1.707-0.853-3.413-1.707-5.12-2.56zM297.387 784.64c-69.12-39.253-64.427-116.907-60.587-174.080 1.707-25.6 3.84-58.027-5.12-58.88-8.107-0.853-14.933-2.56-21.76-4.267 28.587-65.707 67.413-79.787 84.053-69.547 35.84 22.613-55.893 180.48 3.84 306.347z" />
<glyph unicode="&#xe96b;" glyph-name="graphicTemplate_FF" data-tags="graphicTemplate_FF" d="M447.147 401.493h42.667c12.96 0 23.467-10.506 23.467-23.467v-42.667c0-12.96-10.506-23.467-23.467-23.467h-42.667c-12.96 0-23.467 10.506-23.467 23.467v42.667c0 12.96 10.506 23.467 23.467 23.467zM618.667 612.267c-12.8 0-23.467 10.667-23.467 23.467v236.8h-339.2c-48.213 0-87.467-39.253-87.467-87.467v-674.133c0-48.213 39.253-87.467 87.467-87.467h512c48.213 0 87.467 39.253 87.467 87.467v501.333h-236.8zM740.693 310.613c0-6.4-2.56-12.373-6.827-16.64l-106.667-106.667c-4.267-4.267-10.24-6.827-16.64-6.827h-115.2v66.133c0 12.8-10.667 23.467-23.467 23.467s-23.467-10.667-23.467-23.467v-66.133h-99.413c-36.267 0-66.133 29.867-66.133 66.133v86.613h66.133c12.8 0 23.467 10.667 23.467 23.467s-10.667 23.467-23.467 23.467h-66.133v86.613c0 36.267 29.867 66.133 66.133 66.133h95.573v-66.133c0-12.8 10.667-23.467 23.467-23.467s23.467 10.667 23.467 23.467v66.133h182.613c36.267 0 66.133-29.867 66.133-66.133v-156.16z" />
<glyph unicode="&#xe96c;" glyph-name="graphicTemplate_FL" data-tags="graphicTemplate_FL" d="M832 315.733c-15.36 0-27.733-12.373-27.733-27.733v-177.067c0-20.053-16.213-36.267-36.267-36.267h-512c-20.053 0-36.267 16.213-36.267 36.267v674.133c0 20.053 16.213 36.267 36.267 36.267h334.933v-185.6c0-15.36 12.373-27.733 27.733-27.733h213.333c11.093 0 21.333 6.827 25.6 17.067s1.707 22.187-5.973 30.293l-213.333 213.333c-5.12 5.12-12.373 8.107-19.627 8.107h-362.667c-50.773 0-91.733-40.96-91.733-91.733v-674.133c0-50.773 40.96-91.733 91.733-91.733h512c50.773 0 91.733 40.96 91.733 91.733v177.067c0 15.36-12.373 27.733-27.733 27.733zM646.4 782.080l118.613-118.613h-118.613v118.613z" />
<glyph unicode="&#xe96d;" glyph-name="graphicTemplate_HF" data-tags="graphicTemplate_HF" d="M642.133 858.88v-199.68h199.68l-199.68 199.68z" />
<glyph unicode="&#xe96e;" glyph-name="graphicTemplate_HL" data-tags="graphicTemplate_HL" d="M674.56 537.6h-325.12c-38.827 0-70.4-31.573-70.4-70.4v-220.16c0-38.827 31.573-70.4 70.4-70.4h261.12c7.253 0 14.507 2.987 19.627 8.107l106.667 106.667c5.12 5.12 8.107 12.373 8.107 19.627v156.16c0 38.827-31.573 70.4-70.4 70.4zM689.493 322.133l-90.453-90.453h-99.413v14.933c0 15.36-12.373 27.733-27.733 27.733s-27.733-12.373-27.733-27.733v-14.933h-94.72c-8.107 0-14.933 6.827-14.933 14.933v82.347h14.933c15.36 0 27.733 12.373 27.733 27.733s-12.373 27.733-27.733 27.733h-14.933v82.347c0 8.107 6.827 14.933 14.933 14.933h91.307v-14.933c0-15.36 12.373-27.733 27.733-27.733s27.733 12.373 27.733 27.733v14.933h178.347c8.107 0 14.933-6.827 14.933-14.933v-145.067zM447.147 405.76h42.667c15.317 0 27.733-12.417 27.733-27.733v-42.667c0-15.317-12.417-27.733-27.733-27.733h-42.667c-15.317 0-27.733 12.417-27.733 27.733v42.667c0 15.317 12.417 27.733 27.733 27.733z" />
<glyph unicode="&#xe96f;" glyph-name="graphicTemplate_TF" data-tags="graphicTemplate_TF" d="M642.133 858.88v-199.68h199.68l-199.68 199.68zM447.147 401.493h42.667c12.96 0 23.467-10.506 23.467-23.467v-42.667c0-12.96-10.506-23.467-23.467-23.467h-42.667c-12.96 0-23.467 10.506-23.467 23.467v42.667c0 12.96 10.506 23.467 23.467 23.467zM618.667 612.267c-12.8 0-23.467 10.667-23.467 23.467v236.8h-339.2c-48.213 0-87.467-39.253-87.467-87.467v-674.133c0-48.213 39.253-87.467 87.467-87.467h512c48.213 0 87.467 39.253 87.467 87.467v501.333h-236.8zM740.693 310.613c0-6.4-2.56-12.373-6.827-16.64l-106.667-106.667c-4.267-4.267-10.24-6.827-16.64-6.827h-115.2v66.133c0 12.8-10.667 23.467-23.467 23.467s-23.467-10.667-23.467-23.467v-66.133h-99.413c-36.267 0-66.133 29.867-66.133 66.133v86.613h66.133c12.8 0 23.467 10.667 23.467 23.467s-10.667 23.467-23.467 23.467h-66.133v86.613c0 36.267 29.867 66.133 66.133 66.133h95.573v-66.133c0-12.8 10.667-23.467 23.467-23.467s23.467 10.667 23.467 23.467v66.133h182.613c36.267 0 66.133-29.867 66.133-66.133v-156.16z" />
<glyph unicode="&#xe970;" glyph-name="graphicTemplate_TL" data-tags="graphicTemplate_TL" d="M832 315.733c-15.36 0-27.733-12.373-27.733-27.733v-177.067c0-20.053-16.213-36.267-36.267-36.267h-512c-20.053 0-36.267 16.213-36.267 36.267v674.133c0 20.053 16.213 36.267 36.267 36.267h334.933v-185.6c0-15.36 12.373-27.733 27.733-27.733h213.333c11.093 0 21.333 6.827 25.6 17.067s1.707 22.187-5.973 30.293l-213.333 213.333c-5.12 5.12-12.373 8.107-19.627 8.107h-362.667c-50.773 0-91.733-40.96-91.733-91.733v-674.133c0-50.773 40.96-91.733 91.733-91.733h512c50.773 0 91.733 40.96 91.733 91.733v177.067c0 15.36-12.373 27.733-27.733 27.733zM646.4 782.080l118.613-118.613h-118.613v118.613zM349.44 537.6c-38.827 0-70.4-31.573-70.4-70.4v-220.16c0-38.827 31.573-70.4 70.4-70.4h261.12c7.253 0 14.507 2.987 19.627 8.107l106.667 106.667c5.12 5.12 8.107 12.373 8.107 19.627v156.16c0 38.827-31.573 70.4-70.4 70.4h-325.12zM689.493 467.2v-145.067l-90.453-90.453h-99.413v14.933c0 15.36-12.373 27.733-27.733 27.733s-27.733-12.373-27.733-27.733v-14.933h-94.72c-8.107 0-14.933 6.827-14.933 14.933v82.347h14.933c15.36 0 27.733 12.373 27.733 27.733s-12.373 27.733-27.733 27.733h-14.933v82.347c0 8.107 6.827 14.933 14.933 14.933h91.307v-14.933c0-15.36 12.373-27.733 27.733-27.733s27.733 12.373 27.733 27.733v14.933h178.347c8.107 0 14.933-6.827 14.933-14.933zM447.147 405.76h42.667c15.317 0 27.733-12.417 27.733-27.733v-42.667c0-15.317-12.417-27.733-27.733-27.733h-42.667c-15.317 0-27.733 12.417-27.733 27.733v42.667c0 15.317 12.417 27.733 27.733 27.733z" />
<glyph unicode="&#xe971;" glyph-name="hRotateCCW_FF" data-tags="hRotateCCW_FF" d="M209.067 785.92l46.507 46.507c8.96 8.96 8.96 23.893 0 33.28-8.96 8.96-23.893 8.96-33.28 0l-85.333-85.333c-8.96-8.96-8.96-23.893 0-33.28l85.333-85.333c4.693-4.693 10.667-6.827 16.64-6.827s11.947 2.133 16.64 6.827c8.96 8.96 8.96 23.893 0 33.28l-43.947 43.947c352.427-13.653 635.307-304.213 635.307-660.053 0-5.973 0-11.947-0.853-17.92l-0.853-11.947c-0.427-12.8 9.387-23.893 22.613-24.32 0 0 0.853 0 0.853 0 12.373 0 23.040 9.813 23.467 22.613l0.853 11.093c0.427 6.827 0.853 14.080 0.853 20.907 0 382.72-305.067 694.613-684.8 706.987z" />
<glyph unicode="&#xe972;" glyph-name="hRotateCCW_FL" data-tags="hRotateCCW_FL" d="M218.88 789.76l39.68 39.68c10.667 10.667 10.667 28.587 0 39.253s-28.587 10.667-39.253 0l-85.333-85.333c-10.667-10.667-10.667-28.587 0-39.253l85.333-85.333c5.547-5.547 12.373-8.107 19.627-8.107s14.080 2.56 19.627 8.107c10.667 10.667 10.667 28.587 0 39.253l-36.267 36.267c345.173-19.2 620.373-305.493 620.373-655.36 0-5.973 0-11.52-0.853-17.493l-0.853-12.373c-0.853-15.36 11.093-28.16 26.453-29.013 0 0 0.853 0 1.28 0 14.933 0 26.88 11.52 27.733 26.453l0.853 10.667c0.427 7.253 0.853 14.080 0.853 21.333 0 381.867-302.080 693.333-679.253 710.827z" />
<glyph unicode="&#xe973;" glyph-name="hRotateCCW_HL" data-tags="hRotateCCW_HL" d="M185.6 19.2c-32.853 0-59.733 26.88-59.733 59.733s26.88 59.733 59.733 59.733 59.733-26.88 59.733-59.733-26.88-59.733-59.733-59.733z" />
<glyph unicode="&#xe974;" glyph-name="hRotateCW_FF" data-tags="hRotateCW_FF" d="M910.933 114.773l-11.947-0.853c-5.973 0-11.947-0.853-17.92-0.853-355.84 0-646.4 282.88-660.053 635.307l43.947-43.947c4.693-4.693 10.667-6.827 16.64-6.827s11.947 2.133 16.64 6.827c8.96 8.96 8.96 23.893 0 33.28l-85.333 85.333c-8.96 8.96-23.893 8.96-33.28 0l-85.333-85.333c-8.96-8.96-8.96-23.893 0-33.28 8.96-8.96 23.893-8.96 33.28 0l46.507 46.507c12.373-379.733 324.267-684.8 706.987-684.8 7.253 0 14.080 0.427 20.907 0.853l10.667 0.853c12.8 0.427 23.040 11.52 22.613 24.32s-9.387 22.613-24.32 22.187z" />
<glyph unicode="&#xe975;" glyph-name="hRotateCW_FL" data-tags="hRotateCW_FL" d="M910.933 119.040l-11.947-0.853c-5.973 0-11.52-0.853-17.493-0.853-349.867 0-635.733 275.2-655.36 620.373l36.267-36.267c5.547-5.547 12.373-8.107 19.627-8.107s14.080 2.56 19.627 8.107c10.667 10.667 10.667 28.587 0 39.253l-85.333 85.333c-10.667 10.667-28.587 10.667-39.253 0l-85.333-85.333c-10.667-10.667-10.667-28.587 0-39.253s28.587-10.667 39.253 0l39.68 39.68c17.493-377.6 329.387-679.253 710.827-679.253 7.253 0 14.080 0.427 21.333 0.853l10.667 0.853c15.36 0.853 27.307 13.653 26.453 29.013s-13.653 26.88-29.013 26.453z" />
<glyph unicode="&#xe976;" glyph-name="hRotateCW_HL" data-tags="hRotateCW_HL" d="M881.067 714.667c-32.853 0-59.733 26.88-59.733 59.733s26.88 59.733 59.733 59.733 59.733-26.88 59.733-59.733-26.88-59.733-59.733-59.733z" />
<glyph unicode="&#xe977;" glyph-name="angle_TF" data-tags="angle_TF" d="M933.547 112.213l-401.067 695.040c-8.533 14.507-32.427 14.507-40.533 0l-219.307-379.733c120.32-59.733 203.52-183.467 203.52-326.827 0-8.107-0.853-15.787-1.28-23.467h438.613c8.533 0 16.213 4.267 20.48 11.52s4.267 16.213 0 23.467zM248.747 386.56l-158.293-274.347c-4.267-7.253-4.267-16.213 0-23.467s11.947-11.52 20.48-11.52h316.587c0.427 7.68 1.28 15.36 1.28 23.467 0 125.867-73.813 234.24-180.053 285.867z" />
<glyph unicode="&#xe978;" glyph-name="home_FF" data-tags="home_FF" d="M805.547 440.747l-277.333 267.52c-8.96 8.96-23.467 8.96-32.427 0l-277.333-267.52c-4.693-4.267-7.253-10.667-7.253-17.067v-270.080c0-48.213 39.253-87.467 87.467-87.467h106.667c12.8 0 23.467 10.667 23.467 23.467v232.533h166.4v-232.533c0-12.8 10.667-23.467 23.467-23.467h106.667c48.213 0 87.467 39.253 87.467 87.467v270.080c0 6.4-2.56 12.373-7.253 17.067z" />
<glyph unicode="&#xe979;" glyph-name="home_FL" data-tags="home_FL" d="M646.4 345.6c0 15.36-12.373 27.733-27.733 27.733h-213.333c-15.36 0-27.733-12.373-27.733-27.733v-228.267h-78.933c-20.053 0-36.267 16.213-36.267 36.267v227.84c0 15.36-12.373 27.733-27.733 27.733s-27.733-12.373-27.733-27.733v-227.84c0-50.773 40.96-91.733 91.733-91.733h106.667c15.36 0 27.733 12.373 27.733 27.733v228.267h185.6c15.36 0 27.733 12.373 27.733 27.733zM789.333 409.173c-15.36 0-27.733-12.373-27.733-27.733v-227.84c0-20.053-16.213-36.267-36.267-36.267h-106.667c-15.36 0-27.733-12.373-27.733-27.733s12.373-27.733 27.733-27.733h106.667c50.773 0 91.733 40.96 91.733 91.733v227.84c0 15.36-12.373 27.733-27.733 27.733z" />
<glyph unicode="&#xe97a;" glyph-name="home_HF" data-tags="home_HF" d="M913.067 429.227c-5.973 0-11.947 2.133-16.213 6.4l-341.76 329.813c-24.32 23.467-61.867 23.467-86.187 0l-341.76-329.813c-9.387-8.96-24.32-8.96-33.28 0.427s-8.96 24.32 0.427 33.28l342.187 329.813c42.24 40.96 108.8 40.96 151.467 0l341.76-329.813c9.387-8.96 9.387-23.893 0.427-33.28-4.693-4.693-10.667-7.253-17.067-7.253z" />
<glyph unicode="&#xe97b;" glyph-name="home_HL" data-tags="home_HL" d="M913.067 424.96c-6.827 0-14.080 2.56-19.2 7.68l-341.76 329.813c-22.613 21.76-57.6 21.76-80.213 0l-341.76-329.813c-11.093-10.667-28.587-10.24-39.253 0.853s-10.24 28.587 0.853 39.253l341.76 329.813c43.947 42.667 113.067 42.667 157.44 0l341.76-329.813c11.093-10.667 11.52-28.16 0.853-39.253-5.547-5.547-12.8-8.533-20.053-8.533z" />
<glyph unicode="&#xe97c;" glyph-name="network_FF" data-tags="network_FF" d="M870.4 471.467h-334.933v76.8h51.2c48.213 0 87.467 39.253 87.467 87.467v106.667c0 48.213-39.253 87.467-87.467 87.467h-149.333c-48.213 0-87.467-39.253-87.467-87.467v-106.667c0-48.213 39.253-87.467 87.467-87.467h51.2v-76.8h-334.933c-12.8 0-23.467-10.667-23.467-23.467s10.667-23.467 23.467-23.467h115.2v-76.8h-51.2c-48.213 0-87.467-39.253-87.467-87.467v-106.667c0-48.213 39.253-87.467 87.467-87.467h149.333c48.213 0 87.467 39.253 87.467 87.467v106.667c0 48.213-39.253 87.467-87.467 87.467h-51.2v76.8h554.667c12.8 0 23.467 10.667 23.467 23.467s-10.667 23.467-23.467 23.467z" />
<glyph unicode="&#xe97d;" glyph-name="network_FL" data-tags="network_FL" d="M870.4 475.733h-330.667v96c0 15.36-12.373 27.733-27.733 27.733h-74.667c-20.053 0-36.267 16.213-36.267 36.267v106.667c0 20.053 16.213 36.267 36.267 36.267h149.333c20.053 0 36.267-16.213 36.267-36.267v-106.667c0-15.36 12.373-27.733 27.733-27.733s27.733 12.373 27.733 27.733v106.667c0 50.773-40.96 91.733-91.733 91.733h-149.333c-50.773 0-91.733-40.96-91.733-91.733v-106.667c0-50.773 40.96-91.733 91.733-91.733h46.933v-68.267h-330.667c-15.36 0-27.733-12.373-27.733-27.733s12.373-27.733 27.733-27.733h110.933v-68.267h-46.933c-50.773 0-91.733-40.96-91.733-91.733v-106.667c0-50.773 40.96-91.733 91.733-91.733h149.333c50.773 0 91.733 40.96 91.733 91.733v106.667c0 15.36-12.373 27.733-27.733 27.733s-27.733-12.373-27.733-27.733v-106.667c0-20.053-16.213-36.267-36.267-36.267h-149.333c-20.053 0-36.267 16.213-36.267 36.267v106.667c0 20.053 16.213 36.267 36.267 36.267h74.667c15.36 0 27.733 12.373 27.733 27.733v96h550.4c15.36 0 27.733 12.373 27.733 27.733s-12.373 27.733-27.733 27.733z" />
<glyph unicode="&#xe97e;" glyph-name="network_HF" data-tags="network_HF" d="M657.067 347.733h149.333c48.307 0 87.467-39.16 87.467-87.467v-106.667c0-48.307-39.16-87.467-87.467-87.467h-149.333c-48.307 0-87.467 39.16-87.467 87.467v106.667c0 48.307 39.16 87.467 87.467 87.467z" />
<glyph unicode="&#xe97f;" glyph-name="network_HL" data-tags="network_HL" d="M806.4 61.867h-149.333c-50.773 0-91.733 40.96-91.733 91.733v106.667c0 50.773 40.96 91.733 91.733 91.733h149.333c50.773 0 91.733-40.96 91.733-91.733v-106.667c0-50.773-40.96-91.733-91.733-91.733zM657.067 296.533c-20.053 0-36.267-16.213-36.267-36.267v-106.667c0-20.053 16.213-36.267 36.267-36.267h149.333c20.053 0 36.267 16.213 36.267 36.267v106.667c0 20.053-16.213 36.267-36.267 36.267h-149.333z" />
<glyph unicode="&#xe980;" glyph-name="horiaontalAlignLeft_FF" data-tags="horiaontalAlignLeft_FF" d="M341.333 727.467h298.667c12.96 0 23.467-10.506 23.467-23.467v-170.667c0-12.96-10.506-23.467-23.467-23.467h-298.667c-12.96 0-23.467 10.506-23.467 23.467v170.667c0 12.96 10.506 23.467 23.467 23.467zM341.333 386.133h469.333c12.96 0 23.467-10.506 23.467-23.467v-170.667c0-12.96-10.506-23.467-23.467-23.467h-469.333c-12.96 0-23.467 10.506-23.467 23.467v170.667c0 12.96 10.506 23.467 23.467 23.467z" />
<glyph unicode="&#xe981;" glyph-name="horiaontalAlignLeft_FL" data-tags="horiaontalAlignLeft_FL" d="M341.333 561.067c-15.36 0-27.733-12.373-27.733-27.733s12.373-27.733 27.733-27.733h298.667c15.36 0 27.733 12.373 27.733 27.733v170.667c0 15.36-12.373 27.733-27.733 27.733h-298.667c-15.36 0-27.733-12.373-27.733-27.733s12.373-27.733 27.733-27.733h270.933v-115.2h-270.933zM810.667 390.4h-469.333c-15.36 0-27.733-12.373-27.733-27.733s12.373-27.733 27.733-27.733h441.6v-115.2h-441.6c-15.36 0-27.733-12.373-27.733-27.733s12.373-27.733 27.733-27.733h469.333c15.36 0 27.733 12.373 27.733 27.733v170.667c0 15.36-12.373 27.733-27.733 27.733z" />
<glyph unicode="&#xe982;" glyph-name="horiaontalAlignLeft_HF" data-tags="horiaontalAlignLeft_HF" d="M213.333 23.467c-12.8 0-23.467 10.667-23.467 23.467v802.133c0 12.8 10.667 23.467 23.467 23.467s23.467-10.667 23.467-23.467v-802.133c0-12.8-10.667-23.467-23.467-23.467z" />
<glyph unicode="&#xe983;" glyph-name="horiaontalAlignLeft_HL" data-tags="horiaontalAlignLeft_HL" d="M213.333 19.2c-15.36 0-27.733 12.373-27.733 27.733v802.133c0 15.36 12.373 27.733 27.733 27.733s27.733-12.373 27.733-27.733v-802.133c0-15.36-12.373-27.733-27.733-27.733z" />
<glyph unicode="&#xe984;" glyph-name="horizontalAlignCenter_FF" data-tags="horizontalAlignCenter_FF" d="M298.667 727.467h426.667c12.96 0 23.467-10.506 23.467-23.467v-170.667c0-12.96-10.506-23.467-23.467-23.467h-426.667c-12.96 0-23.467 10.506-23.467 23.467v170.667c0 12.96 10.506 23.467 23.467 23.467zM213.333 386.133h597.333c12.96 0 23.467-10.506 23.467-23.467v-170.667c0-12.96-10.506-23.467-23.467-23.467h-597.333c-12.96 0-23.467 10.506-23.467 23.467v170.667c0 12.96 10.506 23.467 23.467 23.467z" />
<glyph unicode="&#xe985;" glyph-name="horizontalAlignCenter_FL" data-tags="horizontalAlignCenter_FL" d="M384 676.267c15.36 0 27.733 12.373 27.733 27.733s-12.373 27.733-27.733 27.733h-85.333c-15.36 0-27.733-12.373-27.733-27.733v-170.667c0-15.36 12.373-27.733 27.733-27.733h85.333c15.36 0 27.733 12.373 27.733 27.733s-12.373 27.733-27.733 27.733h-57.6v115.2h57.6zM640 561.067c-15.36 0-27.733-12.373-27.733-27.733s12.373-27.733 27.733-27.733h85.333c15.36 0 27.733 12.373 27.733 27.733v170.667c0 15.36-12.373 27.733-27.733 27.733h-85.333c-15.36 0-27.733-12.373-27.733-27.733s12.373-27.733 27.733-27.733h57.6v-115.2h-57.6zM384 334.933c15.36 0 27.733 12.373 27.733 27.733s-12.373 27.733-27.733 27.733h-170.667c-15.36 0-27.733-12.373-27.733-27.733v-170.667c0-15.36 12.373-27.733 27.733-27.733h170.667c15.36 0 27.733 12.373 27.733 27.733s-12.373 27.733-27.733 27.733h-142.933v115.2h142.933zM810.667 390.4h-170.667c-15.36 0-27.733-12.373-27.733-27.733s12.373-27.733 27.733-27.733h142.933v-115.2h-142.933c-15.36 0-27.733-12.373-27.733-27.733s12.373-27.733 27.733-27.733h170.667c15.36 0 27.733 12.373 27.733 27.733v170.667c0 15.36-12.373 27.733-27.733 27.733z" />
<glyph unicode="&#xe986;" glyph-name="horizontalAlignCenter_HF" data-tags="horizontalAlignCenter_HF" d="M512 23.467c-12.8 0-23.467 10.667-23.467 23.467v802.133c0 12.8 10.667 23.467 23.467 23.467s23.467-10.667 23.467-23.467v-802.133c0-12.8-10.667-23.467-23.467-23.467z" />
<glyph unicode="&#xe987;" glyph-name="horizontalAlignCenter_HL" data-tags="horizontalAlignCenter_HL" d="M512 19.2c-15.36 0-27.733 12.373-27.733 27.733v802.133c0 15.36 12.373 27.733 27.733 27.733s27.733-12.373 27.733-27.733v-802.133c0-15.36-12.373-27.733-27.733-27.733z" />
<glyph unicode="&#xe988;" glyph-name="horizontalAlignRight_FF" data-tags="horizontalAlignRight_FF" d="M384 727.467h298.667c12.96 0 23.467-10.506 23.467-23.467v-170.667c0-12.96-10.506-23.467-23.467-23.467h-298.667c-12.96 0-23.467 10.506-23.467 23.467v170.667c0 12.96 10.506 23.467 23.467 23.467zM213.333 386.133h469.333c12.96 0 23.467-10.506 23.467-23.467v-170.667c0-12.96-10.506-23.467-23.467-23.467h-469.333c-12.96 0-23.467 10.506-23.467 23.467v170.667c0 12.96 10.506 23.467 23.467 23.467z" />
<glyph unicode="&#xe989;" glyph-name="horizontalAlignRight_FL" data-tags="horizontalAlignRight_FL" d="M682.667 561.067h-270.933v115.2h270.933c15.36 0 27.733 12.373 27.733 27.733s-12.373 27.733-27.733 27.733h-298.667c-15.36 0-27.733-12.373-27.733-27.733v-170.667c0-15.36 12.373-27.733 27.733-27.733h298.667c15.36 0 27.733 12.373 27.733 27.733s-12.373 27.733-27.733 27.733zM682.667 334.933c15.36 0 27.733 12.373 27.733 27.733s-12.373 27.733-27.733 27.733h-469.333c-15.36 0-27.733-12.373-27.733-27.733v-170.667c0-15.36 12.373-27.733 27.733-27.733h469.333c15.36 0 27.733 12.373 27.733 27.733s-12.373 27.733-27.733 27.733h-441.6v115.2h441.6z" />
<glyph unicode="&#xe98a;" glyph-name="horizontalAlignRight_HF" data-tags="horizontalAlignRight_HF" d="M810.667 23.467c-12.8 0-23.467 10.667-23.467 23.467v802.133c0 12.8 10.667 23.467 23.467 23.467s23.467-10.667 23.467-23.467v-802.133c0-12.8-10.667-23.467-23.467-23.467z" />
<glyph unicode="&#xe98b;" glyph-name="horizontalAlignRight_HL" data-tags="horizontalAlignRight_HL" d="M810.667 19.2c-15.36 0-27.733 12.373-27.733 27.733v802.133c0 15.36 12.373 27.733 27.733 27.733s27.733-12.373 27.733-27.733v-802.133c0-15.36-12.373-27.733-27.733-27.733z" />
<glyph unicode="&#xe98c;" glyph-name="layer_FF" data-tags="layer_FF" d="M861.013 645.12l-294.4 170.24c-33.707 19.2-75.52 19.2-108.8 0v0s-294.4-170.24-294.4-170.24c-20.48-11.947-32.853-33.28-32.853-57.173s12.373-45.227 32.853-57.173l294.4-170.24c16.64-9.813 35.413-14.507 54.613-14.507s37.547 4.693 54.613 14.507l294.4 170.24c20.48 11.947 32.853 33.28 32.853 57.173s-12.373 45.227-32.853 57.173z" />
<glyph unicode="&#xe98d;" glyph-name="layer_FL" data-tags="layer_FL" d="M139.52 399.36l315.733-182.187c17.493-10.24 37.12-14.933 56.747-14.933s39.253 5.12 56.747 14.933l315.733 182.187c13.227 7.68 17.92 24.747 10.24 37.973s-24.747 17.92-37.973 10.24l-315.733-182.187c-17.92-10.24-40.107-10.24-57.6 0l-315.733 182.187c-13.227 7.68-30.293 2.987-37.973-10.24s-2.987-30.293 10.24-37.973zM856.32 307.2l-315.733-182.187c-17.92-10.24-40.107-10.24-57.6 0l-315.733 182.187c-13.227 7.68-30.293 2.987-37.973-10.24s-2.987-30.293 10.24-37.973l315.733-182.187c17.493-10.24 37.12-14.933 56.747-14.933s39.253 5.12 56.747 14.933l315.733 182.187c13.227 7.68 17.92 24.747 10.24 37.973s-24.747 17.92-37.973 10.24z" />
<glyph unicode="&#xe98e;" glyph-name="layer_HF" data-tags="layer_HF" d="M142.080 403.2l315.733-182.187c16.64-9.813 35.413-14.507 54.613-14.507s37.547 4.693 54.613 14.507l315.733 182.187c11.093 6.4 14.933 20.907 8.533 32s-20.907 14.933-32 8.533l-315.733-182.187c-19.2-11.093-43.093-11.093-61.867 0l-315.733 182.187c-11.093 6.4-25.6 2.56-32-8.533s-2.56-25.6 8.533-32zM858.453 303.787l-315.733-182.187c-19.2-11.093-43.093-11.093-61.867 0l-315.733 182.187c-11.093 6.4-25.6 2.56-32-8.533s-2.56-25.6 8.533-32l315.733-182.187c16.64-9.813 35.413-14.507 54.613-14.507s37.547 4.693 54.613 14.507l315.733 182.187c11.093 6.4 14.933 20.907 8.533 32s-20.907 14.933-32 8.533z" />
<glyph unicode="&#xe98f;" glyph-name="layer_HL" data-tags="layer_HL" d="M512 342.187c-19.627 0-39.253 5.12-56.747 14.933l-294.4 170.24c-22.187 12.8-34.987 35.413-34.987 61.013s13.227 48.213 34.987 61.013l294.4 170.24c34.987 20.053 78.080 20.053 113.067 0l294.4-170.24c22.187-12.8 34.987-35.413 34.987-61.013s-13.227-48.213-34.987-61.013l-85.333-49.067c-13.227-7.68-30.293-2.987-37.973 10.24s-2.987 30.293 10.24 37.973l85.333 49.067c6.827 3.84 7.253 10.24 7.253 12.8s-0.853 8.96-7.253 12.8l-294.4 170.24c-17.92 10.24-40.107 10.24-57.6 0l-294.4-170.24c-6.827-3.84-7.253-10.24-7.253-12.8s0.853-8.96 7.253-12.8l294.4-170.24c17.92-10.24 40.107-10.24 57.6 0l64 37.12c13.227 7.68 30.293 2.987 37.973-10.24s2.987-30.293-10.24-37.973l-64-37.12c-17.493-10.24-37.12-14.933-56.747-14.933z" />
<glyph unicode="&#xe990;" glyph-name="license_FF" data-tags="license_FF" d="M618.667 612.267c-12.8 0-23.467 10.667-23.467 23.467v236.8h-339.2c-48.213 0-87.467-39.253-87.467-87.467v-674.133c0-48.213 39.253-87.467 87.467-87.467h512c48.213 0 87.467 39.253 87.467 87.467v501.333h-236.8zM303.787 727.467h128c12.8 0 23.467-10.667 23.467-23.467s-10.667-23.467-23.467-23.467h-128c-12.8 0-23.467 10.667-23.467 23.467s10.667 23.467 23.467 23.467zM303.787 626.773h64c12.8 0 23.467-10.667 23.467-23.467s-10.667-23.467-23.467-23.467h-64c-12.8 0-23.467 10.667-23.467 23.467s10.667 23.467 23.467 23.467zM303.787 525.653h128c12.8 0 23.467-10.667 23.467-23.467s-10.667-23.467-23.467-23.467h-128c-12.8 0-23.467 10.667-23.467 23.467s10.667 23.467 23.467 23.467zM367.787 235.947h-64c-12.8 0-23.467 10.667-23.467 23.467s10.667 23.467 23.467 23.467h64c12.8 0 23.467-10.667 23.467-23.467s-10.667-23.467-23.467-23.467zM701.013 193.707l-44.373-78.933-53.333 125.44-53.333-125.44-44.373 78.933-87.467-23.040 75.093 177.067v0.853s0 0.853 0 0.853c-8.533 17.067-12.8 34.987-12.8 53.333 0 67.84 55.040 122.88 122.88 122.88s122.88-55.040 122.88-122.88c0-17.92-4.267-35.84-12.8-53.333v-0.853s75.093-177.92 75.093-177.92l-87.467 23.040z" />
<glyph unicode="&#xe991;" glyph-name="license_FL" data-tags="license_FL" d="M832 535.467c-15.36 0-27.733-12.373-27.733-27.733v-396.8c0-20.053-16.213-36.267-36.267-36.267h-512c-20.053 0-36.267 16.213-36.267 36.267v674.133c0 20.053 16.213 36.267 36.267 36.267h334.933v-185.6c0-15.36 12.373-27.733 27.733-27.733h213.333c11.093 0 21.333 6.827 25.6 17.067s1.707 22.187-5.973 30.293l-213.333 213.333c-5.12 5.12-12.373 8.107-19.627 8.107h-362.667c-50.773 0-91.733-40.96-91.733-91.733v-674.133c0-50.773 40.96-91.733 91.733-91.733h512c50.773 0 91.733 40.96 91.733 91.733v396.8c0 15.36-12.373 27.733-27.733 27.733zM646.4 782.080l118.613-118.613h-118.613v118.613z" />
<glyph unicode="&#xe992;" glyph-name="license_HF" data-tags="license_HF" d="M642.133 858.88v-199.68h199.68l-199.68 199.68z" />
<glyph unicode="&#xe993;" glyph-name="license_HL" data-tags="license_HL" d="M367.787 575.573h-64c-15.36 0-27.733 12.373-27.733 27.733s12.373 27.733 27.733 27.733h64c15.36 0 27.733-12.373 27.733-27.733s-12.373-27.733-27.733-27.733zM431.787 676.267h-128c-15.36 0-27.733 12.373-27.733 27.733s12.373 27.733 27.733 27.733h128c15.36 0 27.733-12.373 27.733-27.733s-12.373-27.733-27.733-27.733zM431.787 474.453h-128c-15.36 0-27.733 12.373-27.733 27.733s12.373 27.733 27.733 27.733h128c15.36 0 27.733-12.373 27.733-27.733s-12.373-27.733-27.733-27.733zM367.787 231.68h-64c-15.36 0-27.733 12.373-27.733 27.733s12.373 27.733 27.733 27.733h64c15.36 0 27.733-12.373 27.733-27.733s-12.373-27.733-27.733-27.733zM550.827 105.387l-46.933 83.627-92.587-24.32 1.707 3.84 76.373 180.053c-8.533 17.493-12.8 35.84-12.8 54.187 0 69.973 57.173 127.147 127.147 127.147s127.147-57.173 127.147-127.147c0-18.347-4.267-36.693-12.8-54.187l78.080-183.893-92.587 24.32-46.933-83.627-52.907 124.16-52.48-124.16zM645.547 272.64l17.92-41.813 12.8 22.613 25.173-6.4-17.92 41.813-37.547-15.787zM530.773 253.44l12.8-22.613 17.92 41.813-37.547 15.787-17.92-41.813 25.173 6.4zM603.307 474.453c-39.68 0-71.68-32-71.68-71.68s32-71.68 71.68-71.68 71.68 32 71.68 71.68-32 71.68-71.68 71.68z" />
<glyph unicode="&#xe994;" glyph-name="license_TF" data-tags="license_TF" d="M642.133 858.88v-199.68h199.68l-199.68 199.68zM618.667 612.267c-12.8 0-23.467 10.667-23.467 23.467v236.8h-339.2c-48.213 0-87.467-39.253-87.467-87.467v-674.133c0-48.213 39.253-87.467 87.467-87.467h512c48.213 0 87.467 39.253 87.467 87.467v501.333h-236.8zM303.787 727.467h128c12.8 0 23.467-10.667 23.467-23.467s-10.667-23.467-23.467-23.467h-128c-12.8 0-23.467 10.667-23.467 23.467s10.667 23.467 23.467 23.467zM303.787 626.773h64c12.8 0 23.467-10.667 23.467-23.467s-10.667-23.467-23.467-23.467h-64c-12.8 0-23.467 10.667-23.467 23.467s10.667 23.467 23.467 23.467zM303.787 525.653h128c12.8 0 23.467-10.667 23.467-23.467s-10.667-23.467-23.467-23.467h-128c-12.8 0-23.467 10.667-23.467 23.467s10.667 23.467 23.467 23.467zM367.787 235.947h-64c-12.8 0-23.467 10.667-23.467 23.467s10.667 23.467 23.467 23.467h64c12.8 0 23.467-10.667 23.467-23.467s-10.667-23.467-23.467-23.467zM701.013 193.707l-44.373-78.933-53.333 125.44-53.333-125.44-44.373 78.933-87.467-23.040 75.093 177.067v0.853s0 0.853 0 0.853c-8.533 17.067-12.8 34.987-12.8 53.333 0 67.84 55.040 122.88 122.88 122.88s122.88-55.040 122.88-122.88c0-17.92-4.267-35.84-12.8-53.333v-0.853s75.093-177.92 75.093-177.92l-87.467 23.040z" />
<glyph unicode="&#xe995;" glyph-name="license_TL" data-tags="license_TL" d="M303.787 575.573h64c15.36 0 27.733 12.373 27.733 27.733s-12.373 27.733-27.733 27.733h-64c-15.36 0-27.733-12.373-27.733-27.733s12.373-27.733 27.733-27.733zM303.787 676.267h128c15.36 0 27.733 12.373 27.733 27.733s-12.373 27.733-27.733 27.733h-128c-15.36 0-27.733-12.373-27.733-27.733s12.373-27.733 27.733-27.733zM459.52 502.187c0 15.36-12.373 27.733-27.733 27.733h-128c-15.36 0-27.733-12.373-27.733-27.733s12.373-27.733 27.733-27.733h128c15.36 0 27.733 12.373 27.733 27.733zM303.787 287.147c-15.36 0-27.733-12.373-27.733-27.733s12.373-27.733 27.733-27.733h64c15.36 0 27.733 12.373 27.733 27.733s-12.373 27.733-27.733 27.733h-64zM550.827 105.387l52.48 124.16 52.907-124.16 46.933 83.627 92.587-24.32-78.080 183.893c8.533 17.493 12.8 35.84 12.8 54.187 0 69.973-57.173 127.147-127.147 127.147s-127.147-57.173-127.147-127.147c0-18.347 4.267-36.693 12.8-54.187l-76.373-180.053-1.707-3.84 92.587 24.32 46.933-83.627zM701.013 247.040l-25.173 6.4-12.8-22.613-17.92 41.813 37.547 15.787 17.92-41.813zM603.307 474.453c39.68 0 71.68-32 71.68-71.68s-32-71.68-71.68-71.68-71.68 32-71.68 71.68 32 71.68 71.68 71.68zM523.52 288.853l37.547-15.787-17.92-41.813-12.8 22.613-25.173-6.4 17.92 41.813zM832 535.467c-15.36 0-27.733-12.373-27.733-27.733v-396.8c0-20.053-16.213-36.267-36.267-36.267h-512c-20.053 0-36.267 16.213-36.267 36.267v674.133c0 20.053 16.213 36.267 36.267 36.267h334.933v-185.6c0-15.36 12.373-27.733 27.733-27.733h213.333c11.093 0 21.333 6.827 25.6 17.067s1.707 22.187-5.973 30.293l-213.333 213.333c-5.12 5.12-12.373 8.107-19.627 8.107h-362.667c-50.773 0-91.733-40.96-91.733-91.733v-674.133c0-50.773 40.96-91.733 91.733-91.733h512c50.773 0 91.733 40.96 91.733 91.733v396.8c0 15.36-12.373 27.733-27.733 27.733zM646.4 782.080l118.613-118.613h-118.613v118.613z" />
<glyph unicode="&#xe996;" glyph-name="line_FL" data-tags="line_FL" d="M153.6 61.867c-7.253 0-14.080 2.56-19.627 8.107-10.667 10.667-10.667 28.587 0 39.253l716.8 716.8c10.667 10.667 28.587 10.667 39.253 0s10.667-28.587 0-39.253l-716.8-716.8c-5.547-5.547-12.373-8.107-19.627-8.107z" />
<glyph unicode="&#xe997;" glyph-name="location_FF" data-tags="location_FF" d="M642.133 539.733c0-71.871-58.263-130.133-130.133-130.133s-130.133 58.263-130.133 130.133c0 71.871 58.263 130.133 130.133 130.133s130.133-58.263 130.133-130.133z" />
<glyph unicode="&#xe998;" glyph-name="location_FL" data-tags="location_FL" d="M511.147 875.52c-21.76 0-43.52-2.133-65.28-6.4-132.267-25.173-238.507-131.413-264.533-264.107-18.347-94.293 2.56-188.16 58.453-264.96l211.2-291.413c28.587-39.68 93.44-39.68 122.027 0l211.2 291.413c8.96 12.373 6.4 29.867-5.973 38.827s-29.867 6.4-38.827-5.973l-211.2-291.413c-7.68-10.24-24.747-10.24-32 0l-211.2 291.413c-46.933 64-64 142.933-48.64 221.867 21.333 110.507 110.080 198.827 220.587 220.16 84.48 16.213 170.24-5.547 235.093-59.307s102.4-132.693 102.4-217.173c0-15.36 12.373-27.733 27.733-27.733s27.733 12.373 27.733 27.733c0 100.693-44.373 195.413-122.453 259.84-61.013 50.347-136.96 77.227-215.467 77.227z" />
<glyph unicode="&#xe999;" glyph-name="location_HF" data-tags="location_HF" d="M838.4 605.867c-25.6 130.987-130.56 235.52-261.12 260.693-99.413 18.773-200.533-6.4-277.333-69.973s-120.747-157.013-120.747-256.427c0-70.4 22.187-138.24 64-195.84l211.2-291.413c13.653-18.773 34.56-29.44 57.6-29.44s43.947 10.667 57.6 29.44l211.2 291.413c55.040 75.947 75.52 168.533 57.6 261.547zM512 433.067c-58.88 0-106.667 47.787-106.667 106.667s47.787 106.667 106.667 106.667 106.667-47.787 106.667-106.667-47.787-106.667-106.667-106.667z" />
<glyph unicode="&#xe99a;" glyph-name="location_HL" data-tags="location_HL" d="M512.853 405.333c-74.24 0-134.4 60.16-134.4 134.4s60.16 134.4 134.4 134.4 134.4-60.16 134.4-134.4-60.16-134.4-134.4-134.4zM512.853 618.667c-43.52 0-78.933-35.413-78.933-78.933s35.413-78.933 78.933-78.933 78.933 35.413 78.933 78.933-35.413 78.933-78.933 78.933z" />
<glyph unicode="&#xe99b;" glyph-name="location_TF" data-tags="location_TF" d="M838.4 605.867c-25.6 130.987-130.56 235.52-261.12 260.693-99.413 18.773-200.533-6.4-277.333-69.973s-120.747-157.013-120.747-256.427c0-70.4 22.187-138.24 64-195.84l211.2-291.413c13.653-18.773 34.56-29.44 57.6-29.44s43.947 10.667 57.6 29.44l211.2 291.413c55.040 75.947 75.52 168.533 57.6 261.547zM512 433.067c-58.88 0-106.667 47.787-106.667 106.667s47.787 106.667 106.667 106.667 106.667-47.787 106.667-106.667-47.787-106.667-106.667-106.667z" />
<glyph unicode="&#xe99c;" glyph-name="location_TL" data-tags="location_TL" d="M726.613 798.293c-61.013 50.347-136.96 77.227-215.467 77.227-21.76 0-43.52-2.133-65.28-6.4-132.267-25.173-238.507-131.413-264.533-264.107-18.347-94.293 2.56-188.16 58.453-264.96l211.2-291.413c28.587-39.68 93.44-39.68 122.027 0l211.2 291.413c8.96 12.373 6.4 29.867-5.973 38.827s-29.867 6.4-38.827-5.973l-211.2-291.413c-7.68-10.24-24.747-10.24-32 0l-211.2 291.413c-46.933 64-64 142.933-48.64 221.867 21.333 110.507 110.080 198.827 220.587 220.16 84.48 16.213 170.24-5.547 235.093-59.307s102.4-132.693 102.4-217.173c0-15.36 12.373-27.733 27.733-27.733s27.733 12.373 27.733 27.733c0 100.693-44.373 195.413-122.453 259.84zM377.6 539.733c0-74.24 60.16-134.4 134.4-134.4s134.4 60.16 134.4 134.4-60.16 134.4-134.4 134.4-134.4-60.16-134.4-134.4zM590.933 539.733c0-43.52-35.413-78.933-78.933-78.933s-78.933 35.413-78.933 78.933 35.413 78.933 78.933 78.933 78.933-35.413 78.933-78.933z" />
<glyph unicode="&#xe99d;" glyph-name="mouseArrow_FF" data-tags="mouseArrow_FF" d="M777.813 366.933l-498.347 498.773c-6.4 6.827-16.64 8.533-25.173 5.12l212.907-544-68.267-68.267 86.187-219.733c3.413-9.387 12.373-14.933 21.76-14.933 2.987 0 5.547 0.427 8.533 1.707l121.173 47.36c5.973 2.133 10.667 6.827 12.8 12.373 2.56 5.547 2.56 12.373 0 17.92l-87.893 224h199.253c9.387 0 17.92 5.547 21.76 14.507s1.707 18.773-5.12 25.6z" />
<glyph unicode="&#xe99e;" glyph-name="mouseArrow_FL" data-tags="mouseArrow_FL" d="M506.88 19.2c-11.093 0-21.333 6.827-26.027 17.493l-37.547 96.427c-5.547 14.080 1.28 30.293 15.787 35.84 14.080 5.547 30.293-1.28 35.84-15.787l27.733-70.4 69.547 27.307-90.027 230.4c-3.413 8.533-2.133 18.347 2.987 25.6 5.12 7.68 13.653 11.947 23.040 11.947h166.827l-404.48 404.053v-559.787l33.28 33.28c10.667 10.667 28.587 10.667 39.253 0s10.667-28.587 0-39.253l-80.64-80.64c-8.107-8.107-19.627-10.24-30.293-5.973-10.24 4.267-17.067 14.507-17.067 25.6v693.76c0 11.093 6.827 21.333 17.067 25.6 10.667 4.267 22.187 2.133 30.293-5.973l498.773-498.773c8.107-8.107 10.24-20.053 5.973-30.293s-14.507-17.067-25.6-17.067h-192.853l85.333-218.453c2.56-6.827 2.56-14.507 0-21.333-2.987-6.827-8.533-11.947-15.36-14.507l-121.173-47.36c-3.413-1.28-6.827-1.707-10.24-1.707z" />
<glyph unicode="&#xe99f;" glyph-name="mouseArrow_HF" data-tags="mouseArrow_HF" d="M254.293 870.827s0 0-0.427 0c-8.96-3.84-14.507-12.373-14.507-21.76v-693.76c0-9.387 5.547-17.92 14.507-21.76 2.987-1.28 5.973-1.707 8.96-1.707 5.973 0 11.947 2.56 16.64 6.827l187.733 187.733-212.907 544.427z" />
<glyph unicode="&#xe9a0;" glyph-name="pen_FF" data-tags="pen_FF" d="M587.52 384.853l-138.24 138.24c-5.973 5.973-14.933 8.107-23.040 5.973l-204.373-58.453c-8.533-2.56-14.933-9.387-16.64-17.92l-72.96-351.573 173.227 173.227c-6.827 19.627-2.987 42.24 12.8 58.027 21.76 21.76 56.747 21.76 78.507 0s21.76-56.747 0-78.507c-10.667-10.667-25.173-16.213-39.253-16.213-6.4 0-12.8 1.28-18.773 3.413l-173.227-173.227 351.573 72.96c8.533 1.707 15.36 8.107 17.92 16.64l58.453 204.373c2.56 8.107 0 17.067-5.973 23.040z" />
<glyph unicode="&#xe9a1;" glyph-name="bringToFront_FF" data-tags="bringToFront_FF" d="M345.6 701.867h332.8c48.307 0 87.467-39.16 87.467-87.467v-332.8c0-48.307-39.16-87.467-87.467-87.467h-332.8c-48.307 0-87.467 39.16-87.467 87.467v332.8c0 48.307 39.16 87.467 87.467 87.467z" />
<glyph unicode="&#xe9a2;" glyph-name="bringToFront_HL" data-tags="bringToFront_HL" d="M678.4 189.867h-332.8c-50.773 0-91.733 40.96-91.733 91.733v332.8c0 50.773 40.96 91.733 91.733 91.733h332.8c50.773 0 91.733-40.96 91.733-91.733v-332.8c0-50.773-40.96-91.733-91.733-91.733zM345.6 650.667c-20.053 0-36.267-16.213-36.267-36.267v-332.8c0-20.053 16.213-36.267 36.267-36.267h332.8c20.053 0 36.267 16.213 36.267 36.267v332.8c0 20.053-16.213 36.267-36.267 36.267h-332.8z" />
</font>
</defs>
</svg>
