<?xml version="1.0" encoding="UTF-8"?>
<svg id="shadow" xmlns="http://www.w3.org/2000/svg" xmlns:xlink="http://www.w3.org/1999/xlink" viewBox="0 0 3447 1664">
  <defs>
    <filter id="AI_GaussianBlur_64" x="-200%" y="-200%" width="400%" height="400%">
      <feGaussianBlur stdDeviation="64"/>
    </filter>
  </defs>
  <g style="filter: url(#AI_GaussianBlur_64); opacity: .27;">
    <polygon points="3082.5 660.05 3144 720.9 2907.63 784.24 2969.13 845.1 2378.19 1003.44 2439.69 1064.3 2321.5 1095.97 2141.81 1066.78 1550.88 1225.13 1612.38 1285.98 1494.19 1317.65 1314.5 1288.46 841.75 1415.14 662.06 1385.95 543.88 1417.62 364.19 1388.43 302.69 1327.57 539.06 1264.23 477.56 1203.38 1068.5 1045.03 1007 984.17 1125.19 952.51 1304.88 981.69 1895.81 823.35 1834.31 762.49 1952.5 730.82 2132.19 760.01 2604.94 633.34 2784.63 662.53 2902.81 630.86 3082.5 660.05" style="fill-rule: evenodd;"/>
  </g>
</svg>