<?xml version="1.0" encoding="UTF-8"?>
<svg id="SP" xmlns="http://www.w3.org/2000/svg" xmlns:xlink="http://www.w3.org/1999/xlink" viewBox="0 0 24 24">
  <defs>
    <linearGradient id="linear-gradient" x1="17.85" y1="1.88" x2="6.15" y2="22.12" gradientUnits="userSpaceOnUse">
      <stop offset="0" stop-color="#eee"/>
      <stop offset="1" stop-color="#ccc"/>
    </linearGradient>
    <linearGradient id="linear-gradient-2" x1="16.75" y1="3.77" x2="7.25" y2="20.23" gradientUnits="userSpaceOnUse">
      <stop offset="0" stop-color="#ffdf66"/>
      <stop offset="1" stop-color="#d0b43b"/>
    </linearGradient>
    <filter id="X_Shadow_3" x="-200%" y="-200%" width="400%" height="400%">
      <feDropShadow dx="-0.75" dy="0.75" flood-color="black" flood-opacity="0.3" stdDeviation="0.75"/>
    </filter>
    <linearGradient id="linear-gradient-3" x1="15.62" y1="10.92" x2="14.38" y2="13.08" xlink:href="#linear-gradient"/>
  </defs>
  <rect x="4.4" y="2" width="15.2" height="20" rx="2.1" ry="2.1" style="fill: url(#linear-gradient); stroke-width: 0px;"/>
  <rect x="5.6" y="3.2" width="12.8" height="17.6" rx=".9" ry=".9" style="fill: #666; stroke-width: 0px;"/>
  <rect x="6.4" y="4" width="11.2" height="16" rx=".6" ry=".6" style="fill: url(#linear-gradient-2); stroke-width: 0px;"/>
  <g style="filter: url(#X_Shadow_3);">
    <path d="M15,13.35c-.33,0-.6-.27-.6-.6v-1.5c0-.33.27-.6.6-.6s.6.27.6.6v1.5c0,.33-.27.6-.6.6Z" style="fill: url(#linear-gradient-3); stroke-width: 0px;"/>
  </g>
</svg>