<?xml version="1.0" encoding="UTF-8"?>
<svg id="TL" xmlns="http://www.w3.org/2000/svg" version="1.1" viewBox="0 0 24 24">
  <!-- Generator: Adobe Illustrator 29.5.1, SVG Export Plug-In . SVG Version: 2.1.0 Build 141)  -->
  <defs>
    <style>
      .st0 {
        fill: #66f;
      }
    </style>
  </defs>
  <path class="st0" d="M21,10.8c-4.4,3.2-6.4,2-8.7.6-2.4-1.4-5.1-3-10.1.7-.3.2-.4.6-.1.9.2.3.6.4.9.1,4.3-3.2,6.4-2,8.7-.6,1.3.8,2.7,1.6,4.5,1.6s3.3-.6,5.6-2.3c.3-.2.4-.6.1-.9-.2-.3-.6-.4-.9-.1Z"/>
  <path class="st0" d="M21,15.8c-4.4,3.2-6.4,2-8.7.6-2.4-1.4-5.1-3-10.1.7-.3.2-.4.6-.1.9.2.3.6.4.9.1,4.3-3.2,6.4-2,8.7-.6,1.3.8,2.7,1.6,4.5,1.6s3.3-.6,5.6-2.3c.3-.2.4-.6.1-.9-.2-.3-.6-.4-.9-.1Z"/>
  <path class="st0" d="M3,8.2c4.4-3.2,6.4-2,8.7-.6,1.3.8,2.7,1.6,4.5,1.6s3.3-.6,5.6-2.3c.3-.2.4-.6.1-.9-.2-.3-.6-.3-.9-.1-4.4,3.2-6.4,2-8.7.6-2.4-1.4-5.1-3-10.1.7-.3.2-.4.6-.1.9.2.3.6.4.9.1Z"/>
</svg>