<?xml version="1.0" encoding="UTF-8"?>
<svg id="TL" xmlns="http://www.w3.org/2000/svg" version="1.1" viewBox="0 0 24 24">
  <!-- Generator: Adobe Illustrator 29.5.1, SVG Export Plug-In . SVG Version: 2.1.0 Build 141)  -->
  <defs>
    <style>
      .st0 {
        fill: #66f;
      }

      .st1 {
        fill: #fff;
      }
    </style>
  </defs>
  <path class="st1" d="M21.9,15.9c-.2-.3-.6-.4-.9-.1-4.4,3.2-6.4,2-8.7.6-2.4-1.4-5.1-3-10.1.7-.3.2-.4.6-.1.9.2.3.6.4.9.1,4.3-3.2,6.4-2,8.7-.6,1.3.8,2.7,1.6,4.5,1.6s3.3-.6,5.6-2.3c.3-.2.4-.6.1-.9Z"/>
  <path class="st1" d="M2.6,8.3c.1,0,.3,0,.4-.1,4.3-3.2,6.4-2,8.7-.6.3.2.7,0,.9-.2s0-.7-.2-.9c-2.4-1.4-5.1-3-10.1.7-.3.2-.4.6-.1.9.1.2.3.3.5.3h0Z"/>
  <path class="st1" d="M2.6,13.3c.1,0,.3,0,.4-.1,4.3-3.2,6.4-2,8.7-.6.3.2.7,0,.9-.2.2-.3,0-.7-.2-.9-2.4-1.4-5.1-3-10.1.7-.3.2-.4.6-.1.9.1.2.3.3.5.3h0Z"/>
  <path class="st0" d="M14.2,15.1c.3.1.7,0,.8-.4l.7-2.1h3.4l.7,2.1c0,.3.3.4.6.4s.1,0,.2,0c.3-.1.5-.5.4-.8l-3-9c-.2-.5-1.1-.5-1.2,0l-3,9c-.1.3,0,.7.4.8h0ZM17.4,7.6l1.3,3.8h-2.5l1.3-3.8h0Z"/>
</svg>