<?xml version="1.0" encoding="UTF-8"?>
<svg id="TF" xmlns="http://www.w3.org/2000/svg" viewBox="0 0 24 24">
  <path d="M10.9,10.9c-.6.6-.6,1.59,0,2.19.3.3.7.45,1.1.45s.79-.15,1.1-.45c.6-.6.6-1.59,0-2.19-.6-.6-1.59-.6-2.19,0Z" style="fill: #FFFFFF99; stroke-width: 0px;"/>
  <path d="M10.59,9.03c-.08-.49-.37-.89-.81-1.11-1.79-.91-3.96-.56-5.38.86-1.42,1.42-1.77,3.59-.87,5.38.22.43.62.73,1.11.81.08.01.17.02.25.02.41,0,.81-.16,1.11-.46l4.15-4.15c.35-.35.52-.86.44-1.36Z" style="fill: #FFFFFF99; stroke-width: 0px;"/>
  <path d="M10.39,13.85c-.35-.35-.86-.52-1.36-.44-.49.08-.89.37-1.11.81-.91,1.8-.56,3.96.86,5.38.9.9,2.08,1.37,3.29,1.37.71,0,1.43-.16,2.1-.5.43-.22.73-.62.81-1.11.08-.5-.08-1-.44-1.36l-4.15-4.15Z" style="fill: #FFFFFF99; stroke-width: 0px;"/>
  <path d="M20.47,9.83c-.22-.43-.62-.73-1.11-.81-.49-.08-1,.08-1.36.44l-4.15,4.15c-.35.35-.52.86-.44,1.36.08.49.37.89.81,1.11.67.34,1.38.5,2.1.5,1.21,0,2.39-.47,3.29-1.36,1.42-1.42,1.77-3.59.87-5.38Z" style="fill: #FFFFFF99; stroke-width: 0px;"/>
  <path d="M13.61,10.15c.29.29.7.46,1.11.46.08,0,.17,0,.25-.02.49-.08.89-.37,1.11-.81.91-1.8.56-3.96-.86-5.38-1.42-1.42-3.59-1.77-5.38-.87-.43.22-.73.62-.81,1.11-.08.5.08,1,.44,1.36l4.15,4.15Z" style="fill: #FFFFFF99; stroke-width: 0px;"/>
</svg>