<?xml version="1.0" encoding="UTF-8"?>
<svg id="TF" xmlns="http://www.w3.org/2000/svg" viewBox="0 0 24 24">
  <path d="M18.3,9.56l-4.95-6.83c-.63-.87-2.06-.87-2.7,0l-4.95,6.83c-1.29,1.77-1.77,3.95-1.35,6.13.6,3.07,3.06,5.52,6.12,6.11.51.1,1.01.14,1.52.14,1.82,0,3.58-.62,4.98-1.78,1.8-1.49,2.83-3.68,2.83-6.01,0-1.65-.52-3.24-1.5-4.59ZM16,14.7h-3.45v3.45c0,.3-.25.55-.55.55s-.55-.25-.55-.55v-3.45h-3.45c-.3,0-.55-.25-.55-.55s.25-.55.55-.55h3.45v-3.45c0-.3.25-.55.55-.55s.55.25.55.55v3.45h3.45c.3,0,.55.25.55.55s-.25.55-.55.55Z" style="fill: #FFFFFF99; stroke-width: 0px;"/>
</svg>