<?xml version="1.0" encoding="UTF-8"?>
<svg id="SP" xmlns="http://www.w3.org/2000/svg" viewBox="0 0 24 24">
  <circle cx="12" cy="12" r="7.4" style="fill: #f49500;"/>
  <g>
    <circle cx="12" cy="19.4" r="2.6" style="fill: #fcc000;"/>
    <path d="M6.27,13.19c-.67-.18-1.37-.09-1.97.26-.6.35-1.03.91-1.21,1.58s-.09,1.37.26,1.97c.35.6.91,1.03,1.58,1.21.22.06.45.09.68.09.45,0,.9-.12,1.3-.35,1.24-.72,1.67-2.31.95-3.55-.35-.6-.91-1.03-1.58-1.21Z" style="fill: #fcc000;"/>
    <path d="M6.89,6.05c-.6-.35-1.3-.44-1.97-.26-.67.18-1.23.61-1.58,1.21-.35.6-.44,1.3-.26,1.97s.61,1.23,1.21,1.58c.4.23.84.35,1.29.35.23,0,.45-.03.68-.09.67-.18,1.23-.61,1.58-1.21.35-.6.44-1.3.26-1.97s-.61-1.23-1.21-1.58Z" style="fill: #fcc000;"/>
    <circle cx="12" cy="4.6" r="2.6" style="fill: #fcc000;"/>
    <path d="M18.42,10.9c.44,0,.89-.11,1.29-.35,1.24-.72,1.67-2.31.95-3.55-.72-1.24-2.31-1.67-3.55-.95-1.24.72-1.67,2.31-.95,3.55.48.83,1.36,1.3,2.26,1.3Z" style="fill: #fcc000;"/>
    <path d="M19.71,13.45c-1.24-.72-2.83-.29-3.55.95-.72,1.24-.29,2.83.95,3.55.41.24.85.35,1.29.35.9,0,1.78-.47,2.26-1.3.72-1.24.29-2.83-.95-3.55Z" style="fill: #fcc000;"/>
  </g>
  <g>
    <g id="_x3C_Radial_Repeat_x3E_">
      <path d="M12,16.35c-.33,0-.6-.27-.6-.6v-1.5c0-.33.27-.6.6-.6s.6.27.6.6v1.5c0,.33-.27.6-.6.6Z" style="fill: #03a239;"/>
    </g>
    <g id="_x3C_Radial_Repeat_x3E_-2" data-name="_x3C_Radial_Repeat_x3E_">
      <path d="M8.75,14.48c-.21,0-.41-.11-.52-.3-.17-.29-.07-.65.22-.82l1.3-.75c.29-.17.65-.07.82.22.17.29.07.65-.22.82l-1.3.75c-.09.05-.2.08-.3.08Z" style="fill: #03a239;"/>
    </g>
    <g id="_x3C_Radial_Repeat_x3E_-3" data-name="_x3C_Radial_Repeat_x3E_">
      <path d="M10.05,11.48c-.1,0-.2-.03-.3-.08l-1.3-.75c-.29-.17-.39-.53-.22-.82.17-.29.53-.39.82-.22l1.3.75c.29.17.39.53.22.82-.11.19-.31.3-.52.3Z" style="fill: #03a239;"/>
    </g>
    <g id="_x3C_Radial_Repeat_x3E_-4" data-name="_x3C_Radial_Repeat_x3E_">
      <path d="M12,10.35c-.33,0-.6-.27-.6-.6v-1.5c0-.33.27-.6.6-.6s.6.27.6.6v1.5c0,.33-.27.6-.6.6Z" style="fill: #03a239;"/>
    </g>
    <g id="_x3C_Radial_Repeat_x3E_-5" data-name="_x3C_Radial_Repeat_x3E_">
      <path d="M13.95,11.48c-.21,0-.41-.11-.52-.3-.17-.29-.07-.65.22-.82l1.3-.75c.29-.17.65-.07.82.22.17.29.07.65-.22.82l-1.3.75c-.09.05-.2.08-.3.08Z" style="fill: #03a239;"/>
    </g>
    <g id="_x3C_Radial_Repeat_x3E_-6" data-name="_x3C_Radial_Repeat_x3E_">
      <path d="M15.25,14.47c-.1,0-.2-.03-.3-.08l-1.3-.75c-.29-.17-.39-.53-.22-.82.17-.29.53-.39.82-.22l1.3.75c.29.17.39.53.22.82-.11.19-.31.3-.52.3Z" style="fill: #03a239;"/>
    </g>
  </g>
</svg>