<?xml version="1.0" encoding="UTF-8"?>
<svg xmlns="http://www.w3.org/2000/svg" viewBox="0 0 24 24">
  <g id="HF">
    <path d="M12,4.6c-4.09,0-7.4,3.31-7.4,7.4s3.31,7.4,7.4,7.4,7.4-3.31,7.4-7.4-3.31-7.4-7.4-7.4ZM10.33,13.6l-1.3.75c-.09.05-.18.07-.27.07-.19,0-.38-.1-.48-.28-.15-.26-.06-.6.2-.75l1.3-.75c.26-.15.6-.06.75.2.15.26.06.6-.2.75ZM10.53,11.15c-.1.18-.29.28-.48.28-.09,0-.19-.02-.27-.07l-1.3-.75c-.26-.15-.35-.49-.2-.75.15-.26.49-.35.75-.2l1.3.75c.26.15.35.49.2.75ZM12.55,15.75c0,.3-.25.55-.55.55s-.55-.25-.55-.55v-1.5c0-.3.25-.55.55-.55s.55.25.55.55v1.5ZM12.55,9.75c0,.3-.25.55-.55.55s-.55-.25-.55-.55v-1.5c0-.3.25-.55.55-.55s.55.25.55.55v1.5ZM15.73,14.15c-.1.18-.29.28-.48.28-.09,0-.19-.02-.27-.07l-1.3-.75c-.26-.15-.35-.49-.2-.75.15-.26.49-.35.75-.2l1.3.75c.26.15.35.49.2.75ZM15.53,10.6l-1.3.75c-.09.05-.18.07-.27.07-.19,0-.38-.1-.48-.28-.15-.26-.06-.6.2-.75l1.3-.75c.27-.15.6-.06.75.2.15.26.06.6-.2.75Z" style="fill: #fff9;"/>
  </g>
  <g id="FF" style="fill: #fffe;">
    <g>
      <circle cx="12" cy="19.4" r="2.55"/>
      <path d="M6.25,13.24c-.66-.18-1.34-.08-1.93.25-.59.34-1.01.89-1.19,1.55-.18.66-.09,1.35.25,1.94s.89,1.01,1.55,1.19c.22.06.44.09.66.09.44,0,.88-.12,1.27-.34,1.22-.7,1.64-2.27.93-3.48-.34-.59-.89-1.01-1.55-1.19Z"/>
      <path d="M6.87,6.09s0,0,0,0c-.59-.34-1.28-.43-1.93-.25-.66.18-1.21.6-1.55,1.19-.34.59-.43,1.28-.25,1.94.18.66.6,1.21,1.19,1.55.39.23.83.34,1.27.34.22,0,.44-.03.66-.09.66-.18,1.21-.6,1.55-1.19.34-.59.43-1.28.25-1.94-.18-.66-.6-1.21-1.19-1.55Z"/>
      <circle cx="12" cy="4.6" r="2.55"/>
      <path d="M18.42,10.85c.43,0,.87-.11,1.27-.34,1.22-.7,1.64-2.27.93-3.48-.71-1.22-2.27-1.63-3.48-.93-1.22.7-1.64,2.27-.93,3.48.47.82,1.33,1.27,2.21,1.27Z"/>
      <path d="M19.68,13.49c-1.22-.7-2.78-.28-3.48.93-.7,1.22-.28,2.78.93,3.48.4.23.84.34,1.27.34.88,0,1.74-.46,2.21-1.27.7-1.22.28-2.78-.93-3.48Z"/>
    </g>
  </g>
</svg>