<svg xmlns="http://www.w3.org/2000/svg" xmlns:xlink="http://www.w3.org/1999/xlink" width="220" height="64" viewBox="0 0 220 64">
  <defs>
    <linearGradient id="linear-gradient" y1="0.609" x2="1" y2="0.61" gradientUnits="objectBoundingBox">
      <stop offset="0" stop-color="#3fc5f0"/>
      <stop offset="1" stop-color="#39f"/>
    </linearGradient>
    <linearGradient id="linear-gradient-2" y1="0.597" x2="1" y2="0.595" gradientUnits="objectBoundingBox">
      <stop offset="0" stop-color="#00dea4"/>
      <stop offset="1" stop-color="#93f2c9"/>
    </linearGradient>
  </defs>
  <g id="组_1535" data-name="组 1535" transform="translate(0 -12)">
    <rect id="矩形_2156" data-name="矩形 2156" width="64" height="64" transform="translate(0 12)" fill="none"/>
    <g id="组_1458" data-name="组 1458" transform="translate(186.981 18812)">
      <path id="路径_724" data-name="路径 724" d="M13.4,56.346,13.3,59.361l9.979-1.049,1.745,41.63L1.952,88.186,4.591,60.276l4.378-.46.176-2.8-5.763.913L0,90.108l27.193,15.7L24.509,54.586Z" transform="translate(-172 -18843.809)" fill="url(#linear-gradient)"/>
      <path id="路径_725" data-name="路径 725" d="M57.448,0,55.176,43.345l13.789-5.293-.089-2.824L57.1,39.053,58.584,3.718,76.34,8.476l2.231,23.6L73.763,33.64l.158,2.51,6.459-2.479L77.526,6.524Z" transform="translate(-218.342 -18798)" fill="url(#linear-gradient-2)"/>
    </g>
    <g id="border" transform="translate(64 12)">
      <rect id="矩形_3583" data-name="矩形 3583" width="156" height="64" fill="none"/>
      <path id="路径_796" data-name="路径 796" d="M16.12,29.62a4.215,4.215,0,0,0-2.97-1.23H5.44a4.2,4.2,0,0,0-4.2,4.2v16.1a4.2,4.2,0,0,0,4.2,4.2h7.7a4.2,4.2,0,0,0,4.2-4.2V32.59A4.22,4.22,0,0,0,16.12,29.62ZM14.545,48.695a1.4,1.4,0,0,1-1.4,1.4H5.44a1.4,1.4,0,0,1-1.4-1.4V32.59a1.4,1.4,0,0,1,1.4-1.4h7.7a1.4,1.4,0,0,1,1.4,1.4Z" transform="translate(-0.62 -14.195)" fill="#666"/>
      <path id="路径_797" data-name="路径 797" d="M174.205,28.39h-7.7a4.2,4.2,0,0,0-4.2,4.2V51.5a1.4,1.4,0,1,0,2.8,0V32.59a1.4,1.4,0,0,1,1.4-1.4h7.7a1.4,1.4,0,0,1,1.4,1.4V51.5a1.4,1.4,0,0,0,2.8,0V32.59a4.21,4.21,0,0,0-4.2-4.2Z" transform="translate(-81.15 -14.195)" fill="#666"/>
      <path id="路径_798" data-name="路径 798" d="M148.3,29.79V51.5a1.4,1.4,0,1,1-2.8,0V29.79a1.4,1.4,0,1,1,2.8,0Z" transform="translate(-72.75 -14.195)" fill="#666"/>
      <path id="路径_799" data-name="路径 799" d="M85.27,51.5a1.4,1.4,0,0,0,2.8,0V29.79a1.4,1.4,0,1,0-2.8,0Z" transform="translate(-42.635 -14.195)" fill="#666"/>
      <path id="路径_800" data-name="路径 800" d="M116.955,29.62a4.215,4.215,0,0,0-2.97-1.23H106.28a4.2,4.2,0,0,0-4.2,4.2v16.1a4.2,4.2,0,0,0,4.2,4.2h7.7a4.185,4.185,0,0,0,1.4-.24v6.54a1.405,1.405,0,0,1-1.4,1.4H106.28a1.4,1.4,0,0,1-1.4-1.4,1.4,1.4,0,0,0-2.8,0,4.2,4.2,0,0,0,4.2,4.2h7.705a4.2,4.2,0,0,0,4.2-4.2V32.59a4.2,4.2,0,0,0-1.23-2.97Zm-1.57,19.075a1.4,1.4,0,0,1-1.4,1.4H106.28a1.4,1.4,0,0,1-1.4-1.4V32.59a1.4,1.4,0,0,1,1.4-1.4h7.705a1.4,1.4,0,0,1,1.4,1.4Z" transform="translate(-51.04 -14.195)" fill="#666"/>
      <path id="路径_801" data-name="路径 801" d="M207.12,50.1a1.4,1.4,0,0,1-1.4-1.4,1.4,1.4,0,1,0-2.8,0,4.2,4.2,0,0,0,4.2,4.2h7.705a4.2,4.2,0,0,0,4.2-4.2V43.1a4.2,4.2,0,0,0-4.2-4.2H207.12a1.4,1.4,0,0,1-1.4-1.4V32.59a1.4,1.4,0,0,1,1.4-1.4h7.705a1.4,1.4,0,0,1,1.4,1.4,1.4,1.4,0,1,0,2.8,0,4.2,4.2,0,0,0-4.2-4.2H207.12a4.2,4.2,0,0,0-4.2,4.2v4.905a4.2,4.2,0,0,0,4.2,4.2h7.705a1.4,1.4,0,0,1,1.4,1.4v5.6a1.4,1.4,0,0,1-1.4,1.4Z" transform="translate(-101.46 -14.195)" fill="#39f"/>
      <path id="路径_802" data-name="路径 802" d="M56.555,28.39h-7.7a4.21,4.21,0,0,0-4.205,4.2V51.5a1.4,1.4,0,0,0,2.805,0V32.59a1.4,1.4,0,0,1,1.4-1.4h7.7a1.405,1.405,0,0,1,1.4,1.4,1.4,1.4,0,1,0,2.8,0,4.2,4.2,0,0,0-4.2-4.2Z" transform="translate(-22.325 -14.195)" fill="#666"/>
      <path id="路径_803" data-name="路径 803" d="M250.21,51.5V41.695h2.45a4.2,4.2,0,0,0,4.23-4.2v-7.7a1.4,1.4,0,0,0-2.8,0v7.7a1.4,1.4,0,0,1-1.4,1.4h-7.7a1.4,1.4,0,0,1-1.4-1.4v-7.7a1.405,1.405,0,0,0-2.805,0v7.7a4.21,4.21,0,0,0,4.205,4.2h2.4V51.5a1.4,1.4,0,0,0,2.8,0Z" transform="translate(-120.39 -14.195)" fill="#39f"/>
      <path id="路径_804" data-name="路径 804" d="M282.8,50.1a1.4,1.4,0,0,1-1.4-1.4,1.4,1.4,0,0,0-2.8,0,4.2,4.2,0,0,0,4.2,4.2h7.705a4.2,4.2,0,0,0,4.2-4.2V43.1a4.2,4.2,0,0,0-4.2-4.2H282.8a1.4,1.4,0,0,1-1.4-1.4V32.6a1.4,1.4,0,0,1,1.4-1.4h7.705a1.4,1.4,0,0,1,1.4,1.4,1.4,1.4,0,0,0,2.8,0,4.2,4.2,0,0,0-4.2-4.2H282.8a4.2,4.2,0,0,0-4.2,4.2v4.9a4.2,4.2,0,0,0,4.2,4.2h7.705a1.4,1.4,0,0,1,1.4,1.4v5.6a1.4,1.4,0,0,1-1.4,1.4Z" transform="translate(-139.3 -14.2)" fill="#39f"/>
    </g>
  </g>
</svg>
