<svg xmlns="http://www.w3.org/2000/svg" viewBox="0 0 312 128"><defs><style>.cls-1{fill:none;}.cls-2{fill:#666;}.cls-3{fill:#39f;}</style></defs><g id="border"><rect class="cls-1" width="312" height="128"/><path class="cls-2" d="M31,30.85a8.43,8.43,0,0,0-5.94-2.46H9.64a8.4,8.4,0,0,0-8.4,8.4V69a8.4,8.4,0,0,0,8.4,8.4H25.05a8.4,8.4,0,0,0,8.4-8.4V36.79A8.44,8.44,0,0,0,31,30.85ZM27.85,69a2.81,2.81,0,0,1-2.8,2.8H9.64A2.8,2.8,0,0,1,6.84,69V36.79A2.8,2.8,0,0,1,9.64,34H25.05a2.81,2.81,0,0,1,2.8,2.8Z"/><path class="cls-2" d="M186.11,28.39h-15.4a8.4,8.4,0,0,0-8.41,8.4V74.61a2.8,2.8,0,0,0,5.6,0V36.79a2.81,2.81,0,0,1,2.81-2.8h15.4a2.8,2.8,0,0,1,2.8,2.8V74.61a2.81,2.81,0,0,0,5.61,0V36.79a8.42,8.42,0,0,0-8.41-8.4Z"/><path class="cls-2" d="M151.1,31.19V74.61a2.8,2.8,0,1,1-5.6,0V31.19a2.8,2.8,0,1,1,5.6,0Z"/><path class="cls-2" d="M85.27,74.61a2.8,2.8,0,0,0,5.6,0V31.19a2.8,2.8,0,0,0-5.6,0Z"/><path class="cls-2" d="M131.83,30.85a8.43,8.43,0,0,0-5.94-2.46H110.48a8.4,8.4,0,0,0-8.4,8.4V69a8.4,8.4,0,0,0,8.4,8.4h15.41a8.37,8.37,0,0,0,2.8-.48V90a2.81,2.81,0,0,1-2.8,2.8H110.48a2.8,2.8,0,0,1-2.8-2.8,2.8,2.8,0,1,0-5.6,0,8.4,8.4,0,0,0,8.4,8.4h15.41a8.4,8.4,0,0,0,8.4-8.4V36.79A8.4,8.4,0,0,0,131.83,30.85ZM128.69,69a2.81,2.81,0,0,1-2.8,2.8H110.48a2.8,2.8,0,0,1-2.8-2.8V36.79a2.8,2.8,0,0,1,2.8-2.8h15.41a2.81,2.81,0,0,1,2.8,2.8Z"/><path class="cls-3" d="M211.32,71.81a2.81,2.81,0,0,1-2.8-2.8,2.8,2.8,0,0,0-5.6,0,8.4,8.4,0,0,0,8.4,8.4h15.41a8.4,8.4,0,0,0,8.4-8.4V57.8a8.4,8.4,0,0,0-8.4-8.4H211.32a2.81,2.81,0,0,1-2.8-2.8V36.79a2.81,2.81,0,0,1,2.8-2.8h15.41a2.8,2.8,0,0,1,2.8,2.8,2.8,2.8,0,1,0,5.6,0,8.4,8.4,0,0,0-8.4-8.4H211.32a8.4,8.4,0,0,0-8.4,8.4V46.6a8.4,8.4,0,0,0,8.4,8.4h15.41a2.8,2.8,0,0,1,2.8,2.8V69a2.8,2.8,0,0,1-2.8,2.8Z"/><path class="cls-2" d="M68.46,28.39H53.06a8.42,8.42,0,0,0-8.41,8.4V74.61a2.81,2.81,0,0,0,5.61,0V36.79a2.8,2.8,0,0,1,2.8-2.8h15.4a2.81,2.81,0,0,1,2.81,2.8,2.8,2.8,0,0,0,5.6,0,8.4,8.4,0,0,0-8.41-8.4Z"/><path class="cls-3" d="M259.64,74.61V55h4.9A8.4,8.4,0,0,0,273,46.6V31.19a2.8,2.8,0,1,0-5.6,0V46.6a2.81,2.81,0,0,1-2.81,2.8h-15.4a2.8,2.8,0,0,1-2.8-2.8V31.19a2.81,2.81,0,0,0-5.61,0V46.6a8.42,8.42,0,0,0,8.41,8.4H254V74.61a2.8,2.8,0,0,0,5.6,0Z"/><path class="cls-3" d="M287,71.81a2.81,2.81,0,0,1-2.8-2.8,2.8,2.8,0,1,0-5.6,0,8.4,8.4,0,0,0,8.4,8.4h15.41a8.4,8.4,0,0,0,8.4-8.4V57.8a8.4,8.4,0,0,0-8.4-8.4H287a2.81,2.81,0,0,1-2.8-2.8V36.79A2.81,2.81,0,0,1,287,34h15.41a2.8,2.8,0,0,1,2.8,2.8,2.8,2.8,0,0,0,5.6,0,8.4,8.4,0,0,0-8.4-8.4H287a8.4,8.4,0,0,0-8.4,8.4V46.6A8.4,8.4,0,0,0,287,55h15.41a2.8,2.8,0,0,1,2.8,2.8V69a2.8,2.8,0,0,1-2.8,2.8Z"/></g></svg>