<svg xmlns="http://www.w3.org/2000/svg" xmlns:xlink="http://www.w3.org/1999/xlink" viewBox="0 0 128 128"><defs><style>.cls-1{fill:url(#linear-gradient);}.cls-2{fill:url(#linear-gradient-2);}.cls-3{fill:none;}</style><linearGradient id="linear-gradient" x1="29.92" y1="72.78" x2="84.31" y2="72.78" gradientUnits="userSpaceOnUse"><stop offset="0" stop-color="#3fc5f0"/><stop offset="1" stop-color="#39f"/></linearGradient><linearGradient id="linear-gradient-2" x1="47.67" y1="47.35" x2="98.08" y2="47.35" gradientUnits="userSpaceOnUse"><stop offset="0" stop-color="#00dea4"/><stop offset="1" stop-color="#93f2c9"/></linearGradient></defs><g id="sp"><polygon class="cls-1" points="48.21 26.42 36.69 28.25 29.92 92.6 84.31 124 78.94 21.55 56.72 25.07 56.53 31.11 76.49 29.01 79.98 112.27 33.83 88.75 39.1 32.94 47.86 32.02 48.21 26.42"/><polygon class="cls-2" points="75.07 74.46 75.25 80.11 47.67 90.69 52.21 4 92.37 17.05 98.08 71.34 85.16 76.3 84.84 71.28 94.46 68.16 90 20.95 54.48 11.44 51.52 82.11 75.07 74.46"/></g><g id="border"><rect class="cls-3" width="128" height="128"/></g></svg>