<?xml version="1.0" encoding="UTF-8"?>
<svg id="TL" xmlns="http://www.w3.org/2000/svg" viewBox="0 0 24 24">
  <path d="M12,8.25c-.36,0-.65-.29-.65-.65V2.6c0-.36.29-.65.65-.65s.65.29.65.65v5c0,.36-.29.65-.65.65Z" style="fill: #000; stroke-width: 0px;"/>
  <path d="M12,22.05c-5.54,0-10.05-4.51-10.05-10.05C1.95,7.69,4.7,3.86,8.79,2.48c.34-.12.71.07.82.41.11.34-.07.71-.41.82-3.56,1.2-5.96,4.53-5.96,8.29,0,4.82,3.92,8.75,8.75,8.75s8.75-3.93,8.75-8.75c0-3.76-2.39-7.09-5.96-8.29-.34-.11-.52-.48-.41-.82s.48-.52.82-.41c4.09,1.38,6.84,5.2,6.84,9.52,0,5.54-4.51,10.05-10.05,10.05Z" style="fill: #000; stroke-width: 0px;"/>
</svg>