<?xml version="1.0" encoding="UTF-8"?>
<svg id="TL" xmlns="http://www.w3.org/2000/svg" viewBox="0 0 24 24">
  <path d="M21.82,13.82c-.09-.35-.46-.55-.8-.46l-3.67.98-4.71-2.72v-5.43l2.68-2.68c.25-.25.25-.67,0-.92s-.67-.25-.92,0l-1.76,1.76v-1.75c0-.36-.29-.65-.65-.65s-.65.29-.65.65v1.75l-1.76-1.76c-.25-.25-.67-.25-.92,0s-.25.67,0,.92l2.68,2.68v5.43l-4.71,2.72-3.67-.98c-.34-.09-.7.11-.8.46-.09.35.11.7.46.8l2.41.65-1.52.88c-.31.18-.42.58-.24.89.12.21.34.32.56.32.11,0,.22-.03.32-.09l1.52-.88-.65,2.41c-.09.35.11.7.46.8.06.02.11.02.17.02.29,0,.55-.19.63-.48l.98-3.67,4.71-2.72,4.71,2.72.98,3.67c.08.29.34.48.63.48.06,0,.11,0,.17-.02.35-.09.55-.45.46-.8l-.65-2.41,1.52.88c.1.06.21.09.32.09.22,0,.44-.12.56-.32.18-.31.07-.71-.24-.89l-1.52-.88,2.41-.65c.35-.09.55-.45.46-.8Z" style="fill: #404040; stroke-width: 0px;"/>
  <path d="M21.36,9.38l-2.41-.65,1.52-.88c.31-.18.42-.58.24-.89-.18-.31-.58-.42-.89-.24l-1.52.88.65-2.41c.09-.35-.11-.7-.46-.8-.34-.09-.7.11-.8.46l-.98,3.67-4.71,2.72-4.71-2.72-.98-3.67c-.09-.35-.45-.55-.8-.46-.35.09-.55.45-.46.8l.65,2.41-1.52-.88c-.31-.18-.71-.07-.89.24-.18.31-.07.71.24.89l1.52.88-2.41.65c-.35.09-.55.45-.46.8.08.29.34.48.63.48.06,0,.11,0,.17-.02l3.67-.98,4.71,2.72v5.43l-2.68,2.68c-.25.25-.25.67,0,.92s.67.25.92,0l1.76-1.76v1.75c0,.36.29.65.65.65s.65-.29.65-.65v-1.75l1.76,1.76c.13.13.29.19.46.19s.33-.06.46-.19c.25-.25.25-.67,0-.92l-2.68-2.68v-5.43l4.71-2.72,3.67.98c.06.02.11.02.17.02.29,0,.55-.19.63-.48.09-.35-.11-.7-.46-.8Z" style="fill: #404040; stroke-width: 0px;"/>
</svg>