<?xml version="1.0" encoding="UTF-8"?>
<svg id="TL" xmlns="http://www.w3.org/2000/svg" version="1.1" viewBox="0 0 24 24">
  <!-- Generator: Adobe Illustrator 29.5.1, SVG Export Plug-In . SVG Version: 2.1.0 Build 141)  -->
  <defs>
    <style>
      .st0 {
        fill: #66f;
      }

      .st1 {
        fill: #fff;
      }
    </style>
  </defs>
  <path class="st1" d="M21.4,9.4l-2.4-.6,1.5-.9c.3-.2.4-.6.2-.9s-.6-.4-.9-.2l-1.5.9.6-2.4c0-.3-.1-.7-.5-.8-.3,0-.7.1-.8.5l-1,3.7-4.7,2.7-4.7-2.7-1-3.7c0-.3-.4-.6-.8-.5-.3,0-.6.4-.5.8l.7,2.4-1.5-.9c-.3-.2-.7,0-.9.2-.2.3,0,.7.2.9l1.5.9-2.4.6c-.3,0-.5.4-.5.8,0,.3.3.5.6.5s.1,0,.2,0l3.7-1,4.7,2.7v5.4l-2.7,2.7c-.2.2-.2.7,0,.9s.7.2.9,0l1.8-1.8v1.8c0,.4.3.6.6.6s.6-.3.6-.6v-1.8l1.8,1.8c.1.1.3.2.5.2s.3,0,.5-.2c.2-.2.2-.7,0-.9l-2.7-2.7v-5.4l4.7-2.7,3.7,1c0,0,.1,0,.2,0,.3,0,.5-.2.6-.5,0-.4-.1-.7-.5-.8h0Z"/>
  <path class="st0" d="M21.8,13.8c0-.4-.5-.6-.8-.5l-3.7,1-4.7-2.7v-5.4l2.7-2.7c.2-.2.2-.7,0-.9s-.7-.2-.9,0l-1.8,1.8v-1.8c0-.4-.3-.6-.6-.6s-.6.3-.6.6v1.8l-1.8-1.8c-.2-.2-.7-.2-.9,0s-.2.7,0,.9l2.7,2.7v5.4l-4.7,2.7-3.7-1c-.3,0-.7.1-.8.5,0,.4.1.7.5.8l2.4.6-1.5.9c-.3.2-.4.6-.2.9.1.2.3.3.6.3s.2,0,.3,0l1.5-.9-.7,2.4c0,.4.1.7.5.8,0,0,.1,0,.2,0,.3,0,.6-.2.6-.5l1-3.7,4.7-2.7,4.7,2.7,1,3.7c0,.3.3.5.6.5s.1,0,.2,0c.4,0,.5-.5.5-.8l-.6-2.4,1.5.9c.1,0,.2,0,.3,0,.2,0,.4-.1.6-.3.2-.3,0-.7-.2-.9l-1.5-.9,2.4-.6c.4,0,.5-.4.5-.8h0Z"/>
</svg>