<?xml version="1.0" encoding="UTF-8"?>
<svg id="TL" xmlns="http://www.w3.org/2000/svg" version="1.1" viewBox="0 0 24 24">
  <!-- Generator: Adobe Illustrator 29.5.1, SVG Export Plug-In . SVG Version: 2.1.0 Build 141)  -->
  <defs>
    <style>
      .st0 {
        fill: #f76f83;
      }

      .st1 {
        fill: #fff;
      }
    </style>
  </defs>
  <path class="st0" d="M12,18.6c-3.7,0-6.7-3-6.7-6.6s3-6.7,6.7-6.7,6.6,3,6.6,6.7-.3,2.3-.9,3.3c-.2.3-.6.4-.9.2s-.4-.6-.2-.9c.5-.8.7-1.7.7-2.7,0-2.9-2.4-5.3-5.4-5.3s-5.3,2.4-5.3,5.3,2.4,5.3,5.3,5.3,1.9-.2,2.7-.7c.3-.2.7,0,.9.2s0,.7-.2.9c-1,.6-2.2.9-3.3.9h0Z"/>
  <g>
    <g id="_Radial_Repeat_">
      <path class="st1" d="M12,22c-.4,0-.6-.3-.6-.6v-.4c0-.4.3-.6.6-.6h0c.4,0,.6.3.6.6v.4c0,.4-.3.6-.6.6Z"/>
    </g>
    <g id="_Radial_Repeat_-2">
      <path class="st1" d="M7.3,20.8c-.1,0-.2,0-.3,0-.3-.2-.4-.6-.2-.9l.2-.4c.2-.3.6-.4.9-.2s.4.6.2.9l-.2.4c-.1.2-.3.3-.6.3h0Z"/>
    </g>
    <g id="_Radial_Repeat_-3">
      <path class="st1" d="M3.9,17.4c-.2,0-.4-.1-.6-.3-.2-.3,0-.7.2-.9l.3-.2c.3-.2.7,0,.9.2.2.3,0,.7-.2.9l-.3.2c0,0-.2,0-.3,0h0Z"/>
    </g>
    <g id="_Radial_Repeat_-4">
      <path class="st1" d="M3,12.6h-.4c-.4,0-.6-.3-.6-.6s.3-.6.6-.6h.4c.4,0,.7.3.7.6s-.3.6-.7.6Z"/>
    </g>
    <g id="_Radial_Repeat_-5">
      <path class="st1" d="M4.2,8.1c-.1,0-.2,0-.3,0l-.3-.2c-.3-.2-.4-.6-.2-.9s.6-.4.9-.2l.3.2c.3.2.4.6.2.9-.1.2-.3.3-.6.3h0Z"/>
    </g>
    <g id="_Radial_Repeat_-6">
      <path class="st1" d="M7.5,4.8c-.2,0-.4-.1-.6-.3l-.2-.3c-.2-.3,0-.7.2-.9.3-.2.7,0,.9.2l.2.3c.2.3,0,.7-.2.9,0,0-.2,0-.3,0h0Z"/>
    </g>
    <g id="_Radial_Repeat_-7">
      <path class="st1" d="M12,3.7c-.4,0-.6-.3-.6-.7v-.4c0-.4.3-.6.6-.6.4,0,.6.3.6.6v.4c0,.4-.3.7-.6.7Z"/>
    </g>
    <g id="_Radial_Repeat_-8">
      <path class="st1" d="M16.5,4.9c-.1,0-.2,0-.3,0-.3-.2-.4-.6-.2-.9l.2-.3c.2-.3.6-.4.9-.2.3.2.4.6.2.9l-.2.3c-.1.2-.3.3-.6.3Z"/>
    </g>
    <g id="_Radial_Repeat_-9">
      <path class="st1" d="M19.8,8.1c-.2,0-.4-.1-.6-.3-.2-.3,0-.7.2-.9l.4-.2c.3-.2.7,0,.9.2s0,.7-.2.9l-.4.2c-.1,0-.2,0-.3,0h0Z"/>
    </g>
    <g id="_Radial_Repeat_-10">
      <path class="st1" d="M21.4,12.6h-.4c-.4,0-.6-.3-.6-.6s.3-.6.6-.6h.4c.4,0,.6.3.6.6s-.3.6-.6.6Z"/>
    </g>
    <g id="_Radial_Repeat_-11">
      <path class="st1" d="M20.1,17.4c-.1,0-.2,0-.3,0l-.4-.2c-.3-.2-.4-.6-.2-.9.2-.3.6-.4.9-.2l.4.2c.3.2.4.6.2.9-.1.2-.3.3-.6.3h0Z"/>
    </g>
    <g id="_Radial_Repeat_-12">
      <path class="st1" d="M16.7,20.8c-.2,0-.4-.1-.6-.3l-.2-.4c-.2-.3,0-.7.2-.9.3-.2.7,0,.9.2l.2.4c.2.3,0,.7-.2.9-.1,0-.2,0-.3,0h0Z"/>
    </g>
  </g>
</svg>