<?xml version="1.0" encoding="UTF-8"?>
<svg id="TL" xmlns="http://www.w3.org/2000/svg" viewBox="0 0 24 24">
  <path d="M12,18.65c-3.67,0-6.65-2.98-6.65-6.65s2.98-6.65,6.65-6.65,6.65,2.98,6.65,6.65c0,1.16-.31,2.31-.9,3.32-.18.31-.58.42-.89.24-.31-.18-.42-.58-.24-.89.47-.82.72-1.74.72-2.67,0-2.95-2.4-5.35-5.35-5.35s-5.35,2.4-5.35,5.35,2.4,5.35,5.35,5.35c.93,0,1.86-.25,2.67-.72.31-.18.71-.07.89.24s.07.71-.24.89c-1.01.58-2.16.89-3.32.89Z" style="fill: #000; stroke-width: 0px;"/>
  <g>
    <g id="_Radial_Repeat_" data-name="&amp;lt;Radial Repeat&amp;gt;">
      <path d="M12,22.05c-.35-.02-.65-.29-.65-.65v-.4c0-.36.29-.65.65-.65h0c.36,0,.65.29.65.65v.4c0,.36-.29.65-.65.65Z" style="fill: #000; stroke-width: 0px;"/>
    </g>
    <g id="_Radial_Repeat_-2" data-name="&amp;lt;Radial Repeat&amp;gt;">
      <path d="M7.3,20.79c-.11,0-.22-.03-.33-.09-.31-.18-.42-.58-.24-.89l.2-.35c.18-.31.58-.42.89-.24.31.18.42.58.24.89l-.2.35c-.12.21-.34.32-.56.32Z" style="fill: #000; stroke-width: 0px;"/>
    </g>
    <g id="_Radial_Repeat_-3" data-name="&amp;lt;Radial Repeat&amp;gt;">
      <path d="M3.86,17.35c-.23,0-.44-.12-.56-.33-.18-.31-.07-.71.24-.89l.35-.2c.31-.18.71-.07.89.24.18.31.07.71-.24.89l-.35.2c-.1.06-.21.09-.32.09Z" style="fill: #000; stroke-width: 0px;"/>
    </g>
    <g id="_Radial_Repeat_-4" data-name="&amp;lt;Radial Repeat&amp;gt;">
      <path d="M3,12.65h-.4c-.36,0-.65-.29-.65-.65,0-.36.29-.65.65-.65h.4c.36,0,.65.29.65.65,0,.36-.29.65-.65.65Z" style="fill: #000; stroke-width: 0px;"/>
    </g>
    <g id="_Radial_Repeat_-5" data-name="&amp;lt;Radial Repeat&amp;gt;">
      <path d="M4.21,8.15c-.11,0-.22-.03-.33-.09l-.34-.2c-.31-.18-.42-.58-.24-.89.18-.31.58-.42.89-.24l.34.2c.31.18.42.58.24.89-.12.21-.34.32-.56.32Z" style="fill: #000; stroke-width: 0px;"/>
    </g>
    <g id="_Radial_Repeat_-6" data-name="&amp;lt;Radial Repeat&amp;gt;">
      <path d="M7.5,4.85c-.23,0-.44-.12-.56-.33l-.2-.35c-.18-.31-.07-.71.24-.89.31-.18.71-.07.89.24l.2.35c.18.31.07.71-.24.89-.1.06-.21.09-.32.09Z" style="fill: #000; stroke-width: 0px;"/>
    </g>
    <g id="_Radial_Repeat_-7" data-name="&amp;lt;Radial Repeat&amp;gt;">
      <path d="M12,3.65c-.35.05-.65-.29-.65-.65v-.4c0-.36.29-.65.65-.65.36-.05.65.29.65.65v.4c0,.36-.29.65-.65.65Z" style="fill: #000; stroke-width: 0px;"/>
    </g>
    <g id="_Radial_Repeat_-8" data-name="&amp;lt;Radial Repeat&amp;gt;">
      <path d="M16.5,4.86c-.11,0-.22-.03-.33-.09-.31-.18-.42-.58-.23-.89l.2-.35c.18-.31.58-.42.89-.23.31.18.42.58.23.89l-.2.35c-.12.21-.34.32-.56.32Z" style="fill: #000; stroke-width: 0px;"/>
    </g>
    <g id="_Radial_Repeat_-9" data-name="&amp;lt;Radial Repeat&amp;gt;">
      <path d="M19.8,8.15c-.23,0-.44-.12-.56-.33-.18-.31-.07-.71.24-.89l.35-.2c.31-.18.71-.07.89.24.18.31.07.71-.24.89l-.35.2c-.1.06-.21.09-.32.09Z" style="fill: #000; stroke-width: 0px;"/>
    </g>
    <g id="_Radial_Repeat_-10" data-name="&amp;lt;Radial Repeat&amp;gt;">
      <path d="M21.4,12.65h-.4c-.36,0-.65-.29-.65-.65,0-.36.29-.65.65-.65h.4c.36,0,.65.29.65.65,0,.36-.29.65-.65.65Z" style="fill: #000; stroke-width: 0px;"/>
    </g>
    <g id="_Radial_Repeat_-11" data-name="&amp;lt;Radial Repeat&amp;gt;">
      <path d="M20.14,17.35c-.11,0-.22-.03-.33-.09l-.35-.2c-.31-.18-.42-.58-.24-.89.18-.31.58-.42.89-.24l.35.2c.31.18.42.58.24.89-.12.21-.34.32-.56.32Z" style="fill: #000; stroke-width: 0px;"/>
    </g>
    <g id="_Radial_Repeat_-12" data-name="&amp;lt;Radial Repeat&amp;gt;">
      <path d="M16.7,20.79c-.23,0-.44-.12-.56-.33l-.2-.35c-.18-.31-.07-.71.24-.89.31-.18.71-.07.89.24l.2.35c.18.31.07.71-.24.89-.1.06-.21.09-.32.09Z" style="fill: #000; stroke-width: 0px;"/>
    </g>
  </g>
</svg>