<?xml version="1.0" encoding="UTF-8"?>
<svg id="TF" xmlns="http://www.w3.org/2000/svg" viewBox="0 0 24 24">
  <path d="M12,20.45h0c-.3,0-.55.25-.55.55v.4c0,.3.24.55.55.55h0c.3,0,.55-.25.55-.55v-.4c0-.3-.24-.55-.55-.55Z" style="fill: #F76F83FF; stroke-width: 0px;"/>
  <path d="M7.77,19.32c-.26-.15-.6-.06-.75.2l-.2.35c-.15.26-.06.6.2.75.09.05.18.07.28.07.19,0,.38-.1.48-.27l.2-.35c.15-.26.06-.6-.2-.75Z" style="fill: #F76F83FF; stroke-width: 0px;"/>
  <path d="M3.93,16.02l-.35.2c-.26.15-.35.49-.2.75.1.18.29.28.48.28.09,0,.19-.02.27-.07l.35-.2c.26-.15.35-.49.2-.75-.15-.26-.49-.36-.75-.2Z" style="fill: #F76F83FF; stroke-width: 0px;"/>
  <path d="M3.55,12c0-.3-.25-.55-.55-.55h-.4s0,0,0,0c-.3,0-.55.25-.55.55,0,.3.25.55.55.55h.4s0,0,0,0c.3,0,.55-.25.55-.55Z" style="fill: #F76F83FF; stroke-width: 0px;"/>
  <path d="M4.48,7.02l-.34-.2c-.26-.15-.6-.06-.75.2-.15.26-.06.6.2.75l.34.2c.09.05.18.07.28.07.19,0,.38-.1.48-.27.15-.26.06-.6-.2-.75Z" style="fill: #F76F83FF; stroke-width: 0px;"/>
  <path d="M7.03,4.48c.1.18.29.28.48.28.09,0,.19-.02.27-.07.26-.15.35-.49.2-.75l-.2-.35c-.15-.26-.49-.35-.75-.2-.26.15-.35.49-.2.75l.2.35Z" style="fill: #F76F83FF; stroke-width: 0px;"/>
  <path d="M12,3.55h0c.3,0,.55-.25.55-.55v-.4c0-.3-.24-.55-.55-.55h0c-.3,0-.55.25-.55.55v.4c0,.3.24.55.55.55Z" style="fill: #F76F83FF; stroke-width: 0px;"/>
  <path d="M16.22,4.68c.09.05.18.08.28.08.19,0,.37-.1.48-.27l.2-.35c.15-.26.06-.6-.2-.75-.27-.15-.6-.06-.75.2l-.2.35c-.15.26-.06.6.2.75Z" style="fill: #F76F83FF; stroke-width: 0px;"/>
  <path d="M19.8,8.05c.09,0,.19-.02.27-.07l.35-.2c.26-.15.35-.49.2-.75-.15-.26-.49-.36-.75-.2l-.35.2c-.26.15-.35.49-.2.75.1.18.29.28.48.28Z" style="fill: #F76F83FF; stroke-width: 0px;"/>
  <path d="M21.4,11.45h-.4s0,0,0,0c-.3,0-.55.25-.55.55,0,.3.25.55.55.55h.4s0,0,0,0c.3,0,.55-.25.55-.55,0-.3-.25-.55-.55-.55Z" style="fill: #F76F83FF; stroke-width: 0px;"/>
  <path d="M20.41,16.23l-.35-.2c-.26-.15-.6-.06-.75.2-.15.26-.06.6.2.75l.35.2c.09.05.18.07.28.07.19,0,.38-.1.48-.27.15-.26.06-.6-.2-.75Z" style="fill: #F76F83FF; stroke-width: 0px;"/>
  <path d="M16.97,19.52c-.15-.26-.48-.35-.75-.2-.26.15-.35.49-.2.75l.2.35c.1.18.29.28.48.28.09,0,.19-.02.27-.07.26-.15.35-.49.2-.75l-.2-.35Z" style="fill: #F76F83FF; stroke-width: 0px;"/>
  <circle cx="12" cy="12" r="6.55" style="fill: #F76F83FF; stroke-width: 0px;"/>
</svg>