<svg id="组_1609" data-name="组 1609" xmlns="http://www.w3.org/2000/svg" xmlns:xlink="http://www.w3.org/1999/xlink" width="128" height="128" viewBox="0 0 128 128">
  <defs>
    <clipPath id="clip-path">
      <rect id="矩形_4552" data-name="矩形 4552" width="128" height="128" fill="none"/>
    </clipPath>
    <filter id="Ellipse_144" x="5" y="8" width="124" height="124" filterUnits="userSpaceOnUse">
      <feOffset dx="3" dy="6" input="SourceAlpha"/>
      <feGaussianBlur stdDeviation="6" result="blur"/>
      <feFlood flood-color="#d29c00" flood-opacity="0.502"/>
      <feComposite operator="in" in2="blur"/>
      <feComposite in="SourceGraphic"/>
    </filter>
  </defs>
  <g id="组_1607" data-name="组 1607" clip-path="url(#clip-path)">
    <g transform="matrix(1, 0, 0, 1, 0, 0)" filter="url(#Ellipse_144)">
      <path id="Ellipse_144-2" data-name="Ellipse 144" d="M40-4A44,44,0,1,1-4,40,44.05,44.05,0,0,1,40-4Z" transform="translate(24 24)" fill="#ffc324"/>
    </g>
    <path id="Line_207" data-name="Line 207" d="M4.8,3H0A3,3,0,0,1-3,0,3,3,0,0,1,0-3H4.8a3,3,0,0,1,3,3A3,3,0,0,1,4.8,3Z" transform="translate(61.6 87)" fill="#fff"/>
    <path id="Line_208" data-name="Line 208" d="M0,6.6a3,3,0,0,1-3-3V0A3,3,0,0,1,0-3,3,3,0,0,1,3,0V3.6A3,3,0,0,1,0,6.6Z" transform="translate(64 39)" fill="#fff"/>
    <path id="Path_854" data-name="Path 854" d="M85.6,80.4H42.4a3,3,0,0,1-2.121-5.121A13.3,13.3,0,0,0,44.2,65.812V60.6a19.8,19.8,0,0,1,39.6,0v5.212a13.3,13.3,0,0,0,3.921,9.467A3,3,0,0,1,85.6,80.4Z" fill="#fff"/>
  </g>
</svg>
