<svg id="组_5259" data-name="组 5259" xmlns="http://www.w3.org/2000/svg" width="24" height="24" viewBox="0 0 24 24">
  <path id="Ellipse_1076" data-name="Ellipse 1076" d="M9.4-.55A9.95,9.95,0,1,1-.55,9.4,9.961,9.961,0,0,1,9.4-.55Z" transform="translate(2.6 2.6)" fill="#66f"/>
  <path id="Line_29" data-name="Line 29" d="M8,.55H0A.55.55,0,0,1-.55,0,.55.55,0,0,1,0-.55H8A.55.55,0,0,1,8.55,0,.55.55,0,0,1,8,.55Z" transform="translate(8 12)" fill="#fff"/>
  <rect id="矩形_12993" data-name="矩形 12993" width="24" height="24" fill="none"/>
  <path id="Line_29-2" data-name="Line 29" d="M8.55,1.1h-8A.55.55,0,0,1,.55,0h8a.55.55,0,1,1,0,1.1Z" transform="translate(12.55 7.45) rotate(90)" fill="#fff"/>
</svg>
