<?xml version="1.0" encoding="UTF-8"?><svg id="_图层_2" xmlns="http://www.w3.org/2000/svg" xmlns:xlink="http://www.w3.org/1999/xlink" viewBox="0 0 18.08 17.76"><defs><style>.cls-1{fill:url(#_未命名的渐变_10-2);}.cls-2{fill:url(#_未命名的渐变_10-3);}.cls-3{fill:url(#_未命名的渐变_15-3);}.cls-4{fill:url(#_未命名的渐变_15-2);}.cls-5{fill:#867aa6;}.cls-6{fill:url(#_未命名的渐变_10);}.cls-7{fill:url(#_未命名的渐变_15);}</style><linearGradient id="_未命名的渐变_15" x1="1.45" y1="12.59" x2="8.93" y2="16.9" gradientUnits="userSpaceOnUse"><stop offset="0" stop-color="#00b5c8"/><stop offset="1" stop-color="#8bc750"/></linearGradient><linearGradient id="_未命名的渐变_15-2" x1="2.86" y1="10.13" x2="10.35" y2="14.44" xlink:href="#_未命名的渐变_15"/><linearGradient id="_未命名的渐变_15-3" x1="4.24" y1="7.74" x2="11.72" y2="12.05" xlink:href="#_未命名的渐变_15"/><linearGradient id="_未命名的渐变_10" x1="-.57" y1="1.79" x2="9.97" y2="8.38" gradientUnits="userSpaceOnUse"><stop offset="0" stop-color="#007cc3"/><stop offset="1" stop-color="#00aedb"/></linearGradient><linearGradient id="_未命名的渐变_10-2" x1=".97" y1="-.68" x2="11.51" y2="5.91" xlink:href="#_未命名的渐变_10"/><linearGradient id="_未命名的渐变_10-3" x1="3.2" y1="-4.24" x2="13.74" y2="2.35" xlink:href="#_未命名的渐变_10"/></defs><g id="SP"><polygon class="cls-5" points="18 8.22 18 7.74 18 7.74 17.5 7.74 15.82 7.74 15.82 6.35 15.33 6.35 15.33 7.74 9.05 7.74 9.05 4.36 8.55 4.36 8.55 7.74 2.67 7.74 2.67 6.35 2.17 6.35 2.17 7.74 0 7.74 0 8.22 17.5 8.22 17.5 9.06 0 9.06 0 9.07 0 9.53 0 17.26 0 17.76 0 17.76 .5 17.76 .5 17.76 5.8 17.76 5.8 17.76 6.3 17.76 6.3 17.76 9.48 17.76 9.48 17.76 9.98 17.76 9.98 17.76 14.25 17.76 14.25 15.91 13.76 15.91 13.76 17.26 9.98 17.26 9.98 16.29 9.48 16.29 9.48 17.26 6.3 17.26 6.3 16.29 5.8 16.29 5.8 17.26 .5 17.26 .5 9.53 18 9.53 18 9.06 18 9.06 18 8.22 18 8.22"/><path class="cls-7" d="M5.81,11.82c-.25-.15-.53-.23-.86-.23s-.61.08-.87.23c-.27.15-.47.33-.59.53h-.03v-.67h-1.02v4.75h1.08v-2.52c0-.26.05-.49.16-.7.1-.2.25-.37.44-.49.17-.12.37-.18.59-.18.26,0,.46.09.61.28.15.2.23.48.23.84v2.77h1.08v-3.01c0-.37-.07-.69-.22-.97-.14-.28-.35-.49-.6-.64Z"/><path class="cls-4" d="M10.84,11.9c-.33-.2-.71-.31-1.14-.31s-.85.11-1.19.32c-.35.2-.63.49-.83.87-.2.37-.3.79-.3,1.26s.1.91.3,1.29c.2.37.48.66.84.87.37.21.77.31,1.21.31.39,0,.77-.08,1.14-.25.34-.16.62-.37.83-.63l-.61-.62c-.17.19-.35.33-.56.43-.22.11-.46.16-.72.16-.41,0-.72-.11-.94-.32-.23-.22-.36-.51-.4-.86h3.41c0-.13,0-.25,0-.39,0-.47-.09-.89-.28-1.28-.19-.37-.45-.66-.78-.85ZM8.48,13.62c.05-.35.19-.63.4-.83.21-.2.48-.31.82-.31.3,0,.56.1.77.31.2.2.31.48.33.83h-2.31Z"/><path class="cls-3" d="M15.27,15.44c-.25.08-.46.13-.63.13-.23,0-.38-.07-.45-.21-.07-.13-.11-.34-.11-.64v-2.11h1.26v-.92h-1.26v-1.48h-1.09v1.48h-.86v.92h.86v2.29c0,.52.12.92.35,1.2.23.28.59.42,1.07.42.18,0,.36-.02.54-.05.18-.04.33-.08.46-.13l-.14-.89Z"/><path class="cls-6" d="M3.91,3.25v-.03c.34-.1.6-.27.8-.51.2-.25.3-.56.3-.93,0-.56-.21-.98-.63-1.25-.42-.27-.99-.41-1.7-.41H.37v6.62h2.55c.73,0,1.32-.16,1.77-.47.44-.31.67-.76.67-1.38,0-.44-.13-.81-.4-1.12-.27-.31-.62-.48-1.04-.53ZM1.48,1.11h1.17c.79,0,1.19.28,1.19.84,0,.31-.1.53-.31.67-.21.13-.49.2-.84.2h-1.21v-1.7ZM3.87,5.52c-.2.16-.52.24-.94.24h-1.45v-1.99h1.47c.37,0,.67.08.89.25.23.16.34.41.34.75s-.1.58-.31.75Z"/><path class="cls-1" d="M8.25.13l-2.59,6.62h1.13l.63-1.7h2.81l.63,1.7h1.17L9.44.13h-1.19ZM7.78,4.05l1.03-2.77h.02l1.04,2.77h-2.08Z"/><path class="cls-2" d="M17.22,4.81c-.17.31-.4.55-.68.74-.3.19-.65.28-1.05.28s-.76-.1-1.06-.3c-.31-.2-.56-.48-.73-.85-.17-.35-.26-.76-.26-1.24s.08-.91.25-1.27c.17-.36.41-.64.71-.84.29-.19.64-.29,1.04-.29.36,0,.67.06.94.19s.52.32.76.57l.74-.74c-.26-.33-.61-.59-1.04-.77-.42-.19-.88-.29-1.39-.29-.62,0-1.16.14-1.64.42-.49.29-.88.69-1.15,1.21-.28.52-.41,1.12-.41,1.8s.14,1.26.41,1.77c.27.52.65.92,1.14,1.22.5.29,1.05.44,1.65.44s1.16-.15,1.64-.45c.47-.3.8-.68,1-1.14l-.86-.47Z"/></g></svg>