<svg id="Bacnet" xmlns="http://www.w3.org/2000/svg" width="32" height="32" viewBox="0 0 32 32">
  <rect id="矩形_18959" data-name="矩形 18959" width="32" height="32" fill="none"/>
  <g id="资源_78156" data-name="资源 78156" transform="translate(3 3)">
    <g id="HL" transform="translate(0 7.209)">
      <path id="路径_3984" data-name="路径 3984" d="M25.96,9.684V9H22.816V7.61h-.707V9H13.052V4.97h-.721V9H3.851V7.421H3.13V9H0v.682H25.239V10.9H0V23.521H20.552V21.433h-.707V22.8H14.393l-.029-1.2h-.707l.014,1.2H9.086V21.491H8.365V22.8H.721V11.584H25.96V10.9h0V9.684Z" transform="translate(0 -4.97)" fill="rgba(255,255,255,0.6)"/>
    </g>
    <g id="FL" transform="translate(0.37)">
      <path id="路径_3978" data-name="路径 3978" d="M2.43,11.734H3.911v.994h.044a2.373,2.373,0,0,1,.857-.787A2.311,2.311,0,0,1,6.074,11.6a2.32,2.32,0,0,1,1.248.341,2.188,2.188,0,0,1,.871.95,3.272,3.272,0,0,1,.319,1.44V18.8H6.945V14.687a2.075,2.075,0,0,0-.334-1.247,1.047,1.047,0,0,0-.886-.416,1.436,1.436,0,0,0-.857.267,1.711,1.711,0,0,0-.639.727A2.227,2.227,0,0,0,4,15.058V18.8H2.43v-7.05Z" transform="translate(0.561 5.617)" fill="rgba(255,255,255,0.93)"/>
      <path id="路径_3979" data-name="路径 3979" d="M13.651,17.6a3.369,3.369,0,0,1-1.2.935,3.843,3.843,0,0,1-1.655.371,3.382,3.382,0,0,1-1.757-.46,3.23,3.23,0,0,1-1.219-1.291,4.122,4.122,0,0,1-.436-1.915,3.9,3.9,0,0,1,.436-1.87,3.018,3.018,0,0,1,1.2-1.291,3.182,3.182,0,0,1,1.728-.475,2.9,2.9,0,0,1,1.655.46,3.054,3.054,0,0,1,1.132,1.262,4.279,4.279,0,0,1,.406,1.9V15.8H8.991a2.041,2.041,0,0,0,.581,1.276,1.809,1.809,0,0,0,1.365.475,2.257,2.257,0,0,0,1.045-.237,2.98,2.98,0,0,0,.813-.638l.886.92Zm-1.321-3a1.881,1.881,0,0,0-.479-1.232,1.539,1.539,0,0,0-1.118-.46,1.579,1.579,0,0,0-1.19.46A2.12,2.12,0,0,0,8.962,14.6h3.353Z" transform="translate(2.797 5.617)" fill="rgba(255,255,255,0.93)"/>
      <path id="路径_3980" data-name="路径 3980" d="M16.79,13.767H14.961V16.9a2.18,2.18,0,0,0,.16.95.653.653,0,0,0,.653.312,2.714,2.714,0,0,0,.915-.193l.2,1.321a3.3,3.3,0,0,1-.668.193,3.508,3.508,0,0,1-.784.074,1.88,1.88,0,0,1-1.553-.623,2.754,2.754,0,0,1-.508-1.781v-3.4H12.13V12.387h1.248v-2.2h1.582v2.2H16.79v1.366Z" transform="translate(4.942 4.935)" fill="rgba(255,255,255,0.93)"/>
      <path id="路径_3981" data-name="路径 3981" d="M.37.13H3.723A4.452,4.452,0,0,1,6.191.739a2.087,2.087,0,0,1,.915,1.855,2.2,2.2,0,0,1-.436,1.38,2.362,2.362,0,0,1-1.161.757v.045a2.329,2.329,0,0,1,1.51.787A2.463,2.463,0,0,1,7.6,7.225a2.337,2.337,0,0,1-.973,2.048,4.435,4.435,0,0,1-2.57.7H.37ZM3.753,4.108a2.256,2.256,0,0,0,1.219-.3,1.106,1.106,0,0,0,.45-.994c0-.831-.581-1.247-1.728-1.247H2V4.093H3.753Zm.334,4.379A2.187,2.187,0,0,0,5.451,8.13,1.32,1.32,0,0,0,5.9,7.017,1.286,1.286,0,0,0,5.407,5.9a2.036,2.036,0,0,0-1.292-.371H1.981V8.486h2.1Z" transform="translate(-0.37 0.063)" fill="rgba(255,255,255,0.93)"/>
      <path id="路径_3982" data-name="路径 3982" d="M9.42.13h1.728l3.76,9.826h-1.7l-.915-2.523H8.215L7.3,9.956H5.66Zm2.337,5.818-1.51-4.111h-.029l-1.5,4.111h3.02Z" transform="translate(2.02 0.063)" fill="rgba(255,255,255,0.93)"/>
      <path id="路径_3983" data-name="路径 3983" d="M20.718,7.822a3.747,3.747,0,0,1-1.452,1.692,4.337,4.337,0,0,1-2.381.668,4.578,4.578,0,0,1-2.4-.653,4.391,4.391,0,0,1-1.655-1.811,5.546,5.546,0,0,1-.6-2.627,5.912,5.912,0,0,1,.6-2.672A4.389,4.389,0,0,1,14.5.623,4.5,4.5,0,0,1,16.886,0,4.784,4.784,0,0,1,18.9.43a3.963,3.963,0,0,1,1.51,1.143l-1.074,1.1a3.676,3.676,0,0,0-1.1-.846,3.038,3.038,0,0,0-1.365-.282,2.7,2.7,0,0,0-1.51.43A2.992,2.992,0,0,0,14.33,3.221a4.4,4.4,0,0,0-.363,1.885,4.188,4.188,0,0,0,.377,1.84A2.9,2.9,0,0,0,15.4,8.208a2.941,2.941,0,0,0,3.063.03,2.851,2.851,0,0,0,.987-1.1l1.248.7Z" transform="translate(4.992 0)" fill="rgba(255,255,255,0.93)"/>
    </g>
  </g>
</svg>
