<svg id="delete" xmlns="http://www.w3.org/2000/svg" width="24" height="24" viewBox="0 0 24 24">
  <path id="联合_335" data-name="联合 335" d="M13162.538,5140.1a2.163,2.163,0,0,1-2.146-1.98l-.89-11.417a.65.65,0,1,1,1.3-.1l.893,11.417a.853.853,0,0,0,.846.784h7.225a.854.854,0,0,0,.847-.784l.893-11.417a.651.651,0,1,1,1.3.1l-.893,11.417a2.163,2.163,0,0,1-2.146,1.98Zm5.347-3a.651.651,0,0,1-.635-.668l.251-9.8a.636.636,0,0,1,.665-.631.65.65,0,0,1,.635.665l-.251,9.8a.651.651,0,0,1-.648.635Zm-3.484,0a.649.649,0,0,1-.648-.635l-.251-9.8a.649.649,0,0,1,.635-.665h.017a.65.65,0,0,1,.647.631l.251,9.8a.65.65,0,0,1-.635.668Zm-5.75-12.8a.65.65,0,1,1,0-1.3h3.914a3.643,3.643,0,0,1,7.172,0h3.915a.65.65,0,1,1,0,1.3Zm5.254-1.3h4.493a2.335,2.335,0,0,0-4.493,0Z" transform="translate(-13154.15 -5118.05)" fill="#f76f83"/>
  <rect id="矩形_15465" data-name="矩形 15465" width="24" height="24" fill="none"/>
</svg>
