<svg id="deviceA" xmlns="http://www.w3.org/2000/svg" width="24" height="24" viewBox="0 0 24 24">
  <path id="联合_287" data-name="联合 287" d="M13569.4,5245.35V5244h-1.9v1.35a.55.55,0,0,1-1.1,0V5244h-1.9v1.35a.551.551,0,0,1-1.1,0V5244h-.351a2.054,2.054,0,0,1-2.049-2.052v-.45h19.9v.45a2.051,2.051,0,0,1-2.049,2.052h-8.351v1.35a.548.548,0,1,1-1.1,0Zm-8.4-4.949v-6.9h19.9v6.9Zm7.9-1.95a.548.548,0,0,0,.548.549h3a.551.551,0,1,0,0-1.1h-3A.549.549,0,0,0,13568.9,5238.452Zm-7.9-6.05v-.453a2.053,2.053,0,0,1,2.049-2.048h12.352v-1.35a.551.551,0,0,1,1.1,0v1.35h2.348a2.053,2.053,0,0,1,2.052,2.048v.453Z" transform="translate(-13558.949 -5224.95)" fill="rgba(255,255,255,0.93)"/>
  <rect id="矩形_15327" data-name="矩形 15327" width="24" height="24" fill="none"/>
</svg>
