<svg id="deviceB" xmlns="http://www.w3.org/2000/svg" width="24" height="24" viewBox="0 0 24 24">
  <path id="联合_286" data-name="联合 286" d="M13567,5245.35V5244h-1.9v1.35a.55.55,0,1,1-1.1,0V5244h-.947a2.053,2.053,0,0,1-2.051-2.051v-.45h15.1v.45a2.053,2.053,0,0,1-2.051,2.051h-5.949v1.35a.55.55,0,1,1-1.1,0Zm-6-4.951v-6.9h15.1v6.9Zm5.5-1.949a.549.549,0,0,0,.552.549h3a.549.549,0,0,0,0-1.1h-3A.549.549,0,0,0,13566.5,5238.45Zm-5.5-6.051v-.45a2.05,2.05,0,0,1,2.051-2.048H13572v-1.353a.55.55,0,0,1,1.1,0v1.353h.951a2.05,2.05,0,0,1,2.051,2.048v.45Z" transform="translate(-13556.551 -5224.95)" fill="rgba(255,255,255,0.93)"/>
  <rect id="矩形_15328" data-name="矩形 15328" width="24" height="24" fill="none"/>
</svg>
