<svg id="deviceC" xmlns="http://www.w3.org/2000/svg" width="24" height="24" viewBox="0 0 24 24">
  <path id="联合_263" data-name="联合 263" d="M12799.049,5173.9a2.052,2.052,0,0,1-2.049-2.049v-.45h17.4v.45a2.052,2.052,0,0,1-2.049,2.049Zm16.753-3.049v-10.782a.985.985,0,0,0-.865-1.068h-14.887a.55.55,0,0,1,0-1.1h11.352v-1.351a.55.55,0,0,1,1.1,0v1.351h2.436a2.075,2.075,0,0,1,1.965,2.168v10.782a.55.55,0,1,1-1.1,0Zm-18.8-.55V5164h17.4v6.3Zm6.9-1.95a.552.552,0,0,0,.551.55h3a.55.55,0,0,0,0-1.1h-3A.55.55,0,0,0,12803.9,5168.351Zm-6.9-5.449v-.45a2.053,2.053,0,0,1,2.049-2.052h13.3a2.053,2.053,0,0,1,2.049,2.052v.45Z" transform="translate(-12794.949 -5152.95)" fill="rgba(255,255,255,0.93)"/>
  <rect id="矩形_13025" data-name="矩形 13025" width="24" height="24" fill="none"/>
</svg>
