<svg id="dismiss" xmlns="http://www.w3.org/2000/svg" width="24" height="24" viewBox="0 0 24 24">
  <path id="联合_346" data-name="联合 346" d="M13007.991,5137.908l-7.94-7.94-7.94,7.94a.65.65,0,0,1-.92-.917l7.943-7.94-7.943-7.94a.651.651,0,0,1,.92-.921l16.8,16.8a.65.65,0,1,1-.921.917Zm-5.57-11.228a.646.646,0,0,1,0-.917l5.57-5.573a.651.651,0,0,1,.921.921l-5.573,5.57a.64.64,0,0,1-.457.189A.648.648,0,0,1,13002.421,5126.68Z" transform="translate(-12988.051 -5117.051)" fill="rgba(255,255,255,0.93)"/>
  <rect id="矩形_15493" data-name="矩形 15493" width="24" height="24" fill="none"/>
</svg>
