<svg id="edit" xmlns="http://www.w3.org/2000/svg" width="24" height="24" viewBox="0 0 24 24">
  <path id="联合_280" data-name="联合 280" d="M12550.149,5174.1a2.153,2.153,0,0,1-2.15-2.151v-12a2.153,2.153,0,0,1,2.15-2.148h8.793a.65.65,0,0,1,0,1.3h-8.793a.849.849,0,0,0-.849.849v12a.849.849,0,0,0,.849.852h12a.852.852,0,0,0,.852-.852v-8.792a.649.649,0,0,1,1.3,0v8.792a2.153,2.153,0,0,1-2.15,2.151Zm3.176-5.323a.641.641,0,0,1-.191-.465.618.618,0,0,1,.034-.2l.353-1.06a.649.649,0,0,1,.155-.252l10.608-10.609a.651.651,0,0,1,.918,0l.706.709a.646.646,0,0,1,0,.918l-10.605,10.605a.641.641,0,0,1-.252.158l-1.061.354a.688.688,0,0,1-.208.035A.64.64,0,0,1,12553.325,5168.775Z" transform="translate(-12545.051 -5153.049)" fill="rgba(255,255,255,0.93)"/>
  <rect id="矩形_15308" data-name="矩形 15308" width="24" height="24" fill="none"/>
</svg>
