<?xml version="1.0" encoding="utf-8"?>
<!-- Generator: Adobe Illustrator 26.5.0, SVG Export Plug-In . SVG Version: 6.00 Build 0)  -->
<svg version="1.1" id="Layer_1" xmlns="http://www.w3.org/2000/svg" xmlns:xlink="http://www.w3.org/1999/xlink" x="0px" y="0px"
	 viewBox="0 0 1600 1200" style="enable-background:new 0 0 1600 1200;" xml:space="preserve">
<style type="text/css">
	.st0{fill:url(#SVGID_1_);}
	.st1{fill:url(#SVGID_00000157996336066650881190000017423016931228973205_);}
	.st2{fill:url(#SVGID_00000154411323326960920120000016939301311420313499_);}
	.st3{fill:url(#SVGID_00000008870837175436889560000006364384258252880523_);}
	.st4{fill:url(#SVGID_00000174588072241420196330000014608862001865813908_);}
	.st5{fill:#D98E18;}
	.st6{fill:#BD7400;}
	.st7{fill:none;stroke:#CED8E0;stroke-width:6;stroke-linecap:round;stroke-linejoin:round;}
	.st8{fill:url(#SVGID_00000169560467805266222580000016446323973089921188_);}
	.st9{fill:url(#SVGID_00000011025477352314301010000005088916214876102789_);}
	.st10{fill:#E2E8ED;}
	.st11{fill:#DDE3E8;}
	.st12{fill:url(#SVGID_00000149382444183850559920000017990623811525927852_);}
	.st13{fill:#E7EDF2;}
	.st14{fill:url(#SVGID_00000062911219196326769010000011158235425123854212_);}
	.st15{fill:#E88F00;}
	.st16{fill:url(#SVGID_00000114757392687913761750000017849910448454872197_);}
	.st17{fill:url(#SVGID_00000145026440606524403660000003672010879334458029_);}
	.st18{fill:url(#SVGID_00000173140627754719002750000017052745829512080009_);}
	.st19{fill:#D9901C;}
	.st20{fill:url(#SVGID_00000166642835820256203850000000173509630624262295_);}
	.st21{fill:#DBE1E6;}
	.st22{fill:url(#SVGID_00000173848306179506859140000012729615566786471812_);}
	.st23{fill:url(#SVGID_00000134235734478358296070000008906980670716547252_);}
	.st24{fill:url(#SVGID_00000013906656486522156770000014960512714263730354_);}
	.st25{fill:url(#SVGID_00000070097833778047100530000017221350841316709804_);}
	.st26{fill:#CED8E0;stroke:#CED8E0;stroke-linecap:round;stroke-linejoin:round;}
	.st27{fill:url(#SVGID_00000052784670939005609470000011399257237456457398_);}
	.st28{fill:url(#SVGID_00000181045148913360520500000017390886299380863124_);}
	.st29{fill:none;stroke:#F5F8FD;stroke-width:3;stroke-linecap:round;stroke-linejoin:round;}
	.st30{fill:url(#SVGID_00000111891949373757493110000015529996785976055209_);}
	.st31{fill:url(#SVGID_00000132790679573613045780000004413428604346351288_);}
	.st32{fill:url(#SVGID_00000039841913604490798340000015864557195104280709_);}
	.st33{opacity:0.81;fill:#FFFFFF;enable-background:new    ;}
	.st34{fill:url(#SVGID_00000033327977890037407880000008282432406692057996_);}
	.st35{fill:none;stroke:#CED8E0;stroke-linecap:round;stroke-linejoin:round;}
	.st36{fill:#CED8E0;}
	.st37{fill:url(#SVGID_00000070828169536928604220000008397590122563959742_);}
	.st38{fill:url(#SVGID_00000173850084563424413930000006887194629637265586_);}
	.st39{fill:#BCBCBC;}
	.st40{fill:url(#SVGID_00000057829541727406863090000014875748622188682136_);}
	.st41{fill:#D8E0E8;}
	.st42{fill:#CEDAE3;}
	.st43{fill:url(#SVGID_00000065047232433356784590000009583126380509363343_);}
	.st44{fill:url(#SVGID_00000078040027501329631710000003375637571325003405_);}
	.st45{fill:url(#SVGID_00000033358583238449912250000005361141899755604137_);}
	.st46{fill:url(#SVGID_00000075138733701461052410000002226724187234240401_);}
	.st47{fill:url(#SVGID_00000098937070523761216750000009902241873790427022_);}
	.st48{fill:url(#SVGID_00000093174123077042205530000003885905652519473826_);}
	.st49{fill:url(#SVGID_00000181045856351117525680000017051549486893868948_);}
	.st50{fill:url(#SVGID_00000035525548598925448670000003411866679507642797_);}
	.st51{fill:url(#SVGID_00000173844067170725468910000011504008713512116381_);}
	.st52{fill:url(#SVGID_00000123431906478302100400000005392686457480946088_);}
	.st53{fill:url(#SVGID_00000090266869808005010980000006622320241963571626_);}
	.st54{fill:url(#SVGID_00000062871461742101520190000012142174873794432655_);}
	.st55{fill:url(#SVGID_00000108274414923624895010000018362006032066063013_);}
	.st56{fill:url(#SVGID_00000164481025927725954870000013324286359835973039_);}
</style>
<g>
	<g id="Make2D::Visible::Curves">
		<g>
			
				<linearGradient id="SVGID_1_" gradientUnits="userSpaceOnUse" x1="1565.9612" y1="554.0093" x2="34.0455" y2="554.0093" gradientTransform="matrix(1 0 0 -1 0 1200)">
				<stop  offset="0" style="stop-color:#F5F8FA"/>
				<stop  offset="1" style="stop-color:#F5F8FA;stop-opacity:0"/>
			</linearGradient>
			<path class="st0" d="M41.2,635.3c54.3,245.3,419.4,264.9,634.6,397.4c430.1,264.7,817.9-4.6,870.2-248.3
				c70.7-329.5-41.4-525.5-429.2-614.9C818.7,100.7-53.8,205.5,41.2,635.3z"/>
			
				<linearGradient id="SVGID_00000016036026063368602630000001302426111847066268_" gradientUnits="userSpaceOnUse" x1="1305.39" y1="933.5862" x2="1461.59" y2="933.5862" gradientTransform="matrix(1 0 0 -1 0 1200)">
				<stop  offset="0" style="stop-color:#E6ECF2"/>
				<stop  offset="1" style="stop-color:#CEDAE3"/>
			</linearGradient>
			<path style="fill:url(#SVGID_00000016036026063368602630000001302426111847066268_);" d="M1461.6,243.3c0,1.1-0.5,2.1-1.2,2.9
				c-16.2,18.4-32.4,36.8-48.6,55.3c-1.5,1.7-4,2.6-6.2,3c-2.2,0.3-4.7,0.2-6.9-0.6c-29.5-10.1-58.9-20.2-88.4-30.4
				c-1.2-0.4-2.4-1-3.3-1.9c-0.9-0.9-1.7-2-1.7-3.4v-15c52.1-8.3,104.1-16.6,156.2-24.9L1461.6,243.3L1461.6,243.3z"/>
			
				<linearGradient id="SVGID_00000061465530089675226400000015478465527434068631_" gradientUnits="userSpaceOnUse" x1="1383.49" y1="910.4391" x2="1383.49" y2="1008.0909" gradientTransform="matrix(1 0 0 -1 0 1200)">
				<stop  offset="0" style="stop-color:#ECF2F7"/>
				<stop  offset="1" style="stop-color:#F7FAFF"/>
			</linearGradient>
			<path style="fill:url(#SVGID_00000061465530089675226400000015478465527434068631_);" d="M1306.6,250.3c-0.7,0.8-1.2,1.8-1.2,2.9
				c0,1.4,0.7,2.5,1.7,3.4c0.9,0.9,2.1,1.5,3.3,1.9c29.5,10.1,58.9,20.2,88.4,30.4c2.2,0.7,4.6,0.9,6.9,0.6c2.1-0.3,4.6-1.2,6.2-3
				c16.2-18.4,32.4-36.8,48.6-55.3c0.7-0.8,1.2-1.8,1.2-2.9c0-1.4-0.7-2.5-1.7-3.4c-0.9-0.9-2.1-1.5-3.3-1.9
				c-29.5-10.1-58.9-20.2-88.4-30.4c-2.2-0.7-4.6-0.9-6.9-0.6c-2.1,0.3-4.6,1.2-6.2,2.9C1339,213.4,1322.8,231.9,1306.6,250.3
				L1306.6,250.3z"/>
			
				<linearGradient id="SVGID_00000013185183502671813070000000040024415103619982_" gradientUnits="userSpaceOnUse" x1="106" y1="414.1363" x2="262.2" y2="414.1363" gradientTransform="matrix(1 0 0 -1 0 1200)">
				<stop  offset="0" style="stop-color:#E6ECF2"/>
				<stop  offset="1" style="stop-color:#CEDAE3"/>
			</linearGradient>
			<path style="fill:url(#SVGID_00000013185183502671813070000000040024415103619982_);" d="M262.2,762.7c0,1.1-0.5,2.1-1.2,2.9
				c-16.2,18.4-32.4,36.8-48.6,55.3c-1.5,1.7-4,2.6-6.2,3c-2.2,0.3-4.7,0.2-6.9-0.6c-29.5-10.1-58.9-20.2-88.4-30.4
				c-1.2-0.4-2.4-1-3.3-1.9c-0.9-0.9-1.7-2-1.7-3.4v-15c52.1-8.3,104.1-16.6,156.2-24.9L262.2,762.7L262.2,762.7z"/>
			
				<linearGradient id="SVGID_00000050653252255769396850000014917845154502091659_" gradientUnits="userSpaceOnUse" x1="106" y1="439.825" x2="262.2" y2="439.825" gradientTransform="matrix(1 0 0 -1 0 1200)">
				<stop  offset="0" style="stop-color:#ECF2F7"/>
				<stop  offset="1" style="stop-color:#F7FAFF"/>
			</linearGradient>
			<path style="fill:url(#SVGID_00000050653252255769396850000014917845154502091659_);" d="M199.4,808.3c2.2,0.7,4.6,0.9,6.9,0.6
				c2.1-0.3,4.6-1.2,6.2-3c16.2-18.4,32.4-36.8,48.6-55.3c0.7-0.8,1.2-1.8,1.2-2.9c0-1.3-0.7-2.5-1.6-3.4s-2.1-1.5-3.3-1.9
				c-29.5-10.1-58.9-20.2-88.4-30.4c-2.2-0.7-4.6-0.9-6.9-0.6c-2.1,0.3-4.6,1.2-6.2,3c-16.2,18.4-32.4,36.8-48.6,55.3
				c-0.7,0.8-1.2,1.8-1.2,2.9c0,1.3,0.7,2.5,1.7,3.4s2.1,1.5,3.3,1.9C140.4,788,169.9,798.1,199.4,808.3L199.4,808.3z"/>
			<polygon class="st5" points="238.2,754.4 238.2,758.2 200.6,765 199,761.5 			"/>
			<polygon class="st6" points="175.9,765.7 187.3,790.2 187.3,794 175.9,769.5 			"/>
			<path class="st7" d="M546.8,295c-12-4.1-24-8.3-36.1-12.4c-6-2.1-12-4.1-18-6.2c-3-1-6-2.1-9-3.1c-1.5-0.5-3-1-4.5-1.5
				c-0.8-0.3-1.5-0.5-2.2-0.8c-1.5-0.5-3-0.9-4.6-1.2c-2.2-0.4-4.4-0.6-6.6-0.7c-4.5-0.1-9.2,0.7-13.4,2.3c-2.2,0.9-4.3,2-6.2,3.5
				c-0.8,0.6-1.4,1.3-2.1,2l-2,2.3c-2.7,3.1-5.4,6.1-8.1,9.2c-5.4,6.1-10.8,12.3-16.2,18.4c-10.8,12.3-21.6,24.5-32.4,36.8
				c-43.5,49.5-87.1,99-130.6,148.6c-21.8,24.8-43.5,49.5-65.3,74.3c-7.5,8.5-15,17-22.4,25.5c-3.7,4.2-7.5,8.5-11.2,12.8
				c-0.9,1.1-1.7,1.8-2.4,3.1c-0.6,1.1-1.1,2.2-1.3,3.5c-0.5,2.7,0.2,5.2,1.7,7.4c1.7,2.6,4.3,4.5,7,5.9c0.7,0.4,1.5,0.7,2.2,1
				c0.5,0.2,1.1,0.4,1.6,0.6c0.5,0.2,0.9,0.3,1.4,0.5c1.8,0.6,3.7,1.3,5.5,1.9c3.7,1.3,7.4,2.5,11.1,3.8
				c62.4,21.4,124.7,42.9,187.1,64.3"/>
			
				<linearGradient id="SVGID_00000115509020252016067090000014488195682433427852_" gradientUnits="userSpaceOnUse" x1="383.5935" y1="482.9635" x2="393.6646" y2="510.6366" gradientTransform="matrix(1 0 0 -1 0 1200)">
				<stop  offset="0" style="stop-color:#8C9BAB"/>
				<stop  offset="1" style="stop-color:#DAE5F0"/>
			</linearGradient>
			<path style="fill:url(#SVGID_00000115509020252016067090000014488195682433427852_);" d="M370.1,712.1c-0.6-0.2-1-0.6-1.3-1.2
				c-0.4-0.7-0.6-1.4-0.8-2.2c-0.2-1.3-0.2-2.8-0.1-4.1c0.2-2.7,0.9-5.5,1.8-8s2.1-5.1,3.5-7.4c0.7-1.1,1.6-2.2,2.6-3.2
				c0.5-0.5,1.2-1,1.9-1.2c0.6-0.2,1.2-0.3,1.8-0.1c11,3.8,22,7.5,32.9,11.3c-4.9,8.5-9.9,16.9-14.8,25.4
				C388.5,718.4,379.3,715.3,370.1,712.1L370.1,712.1z"/>
			
				<linearGradient id="SVGID_00000136397974384228124490000014764977555917046148_" gradientUnits="userSpaceOnUse" x1="471.905" y1="450.43" x2="471.905" y2="530.82" gradientTransform="matrix(1 0 0 -1 0 1200)">
				<stop  offset="0" style="stop-color:#E7EDF2"/>
				<stop  offset="1" style="stop-color:#F7FAFF"/>
			</linearGradient>
			<polygon style="fill:url(#SVGID_00000136397974384228124490000014764977555917046148_);" points="490.1,749.6 546.2,684.3 
				436.2,669.2 397.6,713 			"/>
			<polygon class="st10" points="490.1,749.6 487.4,809.9 397.6,756.8 397.6,713 			"/>
			<path class="st11" d="M497.7,824.4c0.8,0.3,1.6-0.1,2.2-0.5c0.6-0.4,1.2-1,1.7-1.5c19.3-21.9,38.6-43.9,57.8-65.8
				c1.8-2,3.2-5,4.1-7.5c0.9-2.6,1.7-5.7,1.7-8.4v-56.2c0-0.9-0.1-1.8-0.3-2.7c-0.2-0.8-0.7-1.8-1.6-2.1c-0.8-0.3-1.6,0.1-2.2,0.5
				c-0.6,0.4-1.2,1-1.7,1.5c-19.3,21.9-38.6,43.9-57.9,65.8c-1.8,2-3.2,5-4.1,7.5c-0.9,2.6-1.6,5.7-1.6,8.4v56.2
				c0,0.9,0.1,1.8,0.3,2.7C496.4,823.1,496.8,824.1,497.7,824.4L497.7,824.4z"/>
			
				<linearGradient id="SVGID_00000106830303822730943200000005422894923294071742_" gradientUnits="userSpaceOnUse" x1="487.44" y1="449.4592" x2="563.39" y2="449.4592" gradientTransform="matrix(1 0 0 -1 0 1200)">
				<stop  offset="0" style="stop-color:#B6C7D4"/>
				<stop  offset="1" style="stop-color:#D1D7E3"/>
			</linearGradient>
			<path style="fill:url(#SVGID_00000106830303822730943200000005422894923294071742_);" d="M555,676.8c2.8,1,5.6,1.9,8.4,2.9
				c-0.8-0.3-1.6,0.1-2.2,0.5c-0.6,0.4-1.2,1-1.7,1.5c-19.3,21.9-38.6,43.9-57.9,65.8c-1.8,2-3.2,5-4.1,7.5
				c-0.9,2.6-1.6,5.7-1.6,8.4v56.2c0,0.9,0.1,1.8,0.3,2.7c0.2,0.8,0.7,1.8,1.6,2.1c-2.8-1-5.6-1.9-8.4-2.9c-0.9-0.3-1.4-1.3-1.6-2.1
				c-0.2-0.8-0.3-1.8-0.3-2.7v-56.2c0-2.8,0.7-5.9,1.6-8.4c0.9-2.5,2.3-5.5,4.1-7.5c19.3-21.9,38.6-43.9,57.8-65.8
				c0.5-0.6,1.1-1.1,1.7-1.5C553.4,676.8,554.2,676.5,555,676.8L555,676.8z"/>
			<path class="st13" d="M908.2,409.8V205.5c-1.9,2.2-3.9,4.4-5.8,6.6v204.3c0,1.6-0.4,3.1-1.5,4.3c1.9-2.2,3.9-4.4,5.8-6.6
				C907.7,412.9,908.2,411.4,908.2,409.8z"/>
			
				<linearGradient id="SVGID_00000168107807955766968690000007284178227526599820_" gradientUnits="userSpaceOnUse" x1="902.36" y1="943.6577" x2="546.7" y2="943.6577" gradientTransform="matrix(1 0 0 -1 0 1200)">
				<stop  offset="0" style="stop-color:#E0E6EB"/>
				<stop  offset="1" style="stop-color:#F7FAFF"/>
			</linearGradient>
			<path style="fill:url(#SVGID_00000168107807955766968690000007284178227526599820_);" d="M546.7,294.1c0,3,1.5,5.9,3.3,8
				c1.9,2.2,4.4,4,7.2,5c111.5,38.3,223.1,76.7,334.6,115c1.5,0.5,3.2,0.8,4.8,0.6c1.6-0.2,3.2-0.8,4.2-2.1c1.1-1.2,1.5-2.8,1.5-4.3
				V212.1c-118.5-40.8-237.1-81.5-355.7-122.2L546.7,294.1L546.7,294.1z"/>
			<path class="st6" d="M814.4,354.4l-2.3,2.6c0.9-1,1.3-2.4,1.2-3.8c-0.1-1.3-0.5-2.7-1.1-3.8c-27.5-52-55.1-103.9-82.6-155.9
				c-1.3-2.5-3.7-4.7-6.3-5.9c-1.3-0.6-2.8-1-4.3-0.9c-1.5,0.1-2.9,0.5-3.9,1.7l2.3-2.6c1-1.1,2.5-1.6,3.9-1.7
				c1.5-0.1,2.9,0.3,4.3,0.9c2.6,1.2,5,3.3,6.3,5.9c27.5,51.9,55.1,103.9,82.6,155.9c0.6,1.2,1.1,2.5,1.1,3.8
				S815.3,353.4,814.4,354.4L814.4,354.4z"/>
			<path class="st15" d="M804.9,358.2c1.2,0.4,2.5,0.6,3.8,0.5c1.3-0.1,2.5-0.6,3.4-1.6c0.9-1,1.3-2.4,1.2-3.8
				c-0.1-1.3-0.5-2.7-1.1-3.8c-27.5-52-55.1-103.9-82.6-155.9c-1.3-2.5-3.7-4.7-6.3-5.9c-1.3-0.6-2.8-1-4.3-0.9
				c-1.5,0.1-2.9,0.5-3.9,1.7c0,0,0,0.1-0.1,0.1c-27.5,33-55.1,66-82.6,99.1c-1,1.2-1.2,2.7-1.1,4.2c0.2,1.5,0.8,2.9,1.5,4.1
				c1.5,2.4,4.1,4.5,6.8,5.4C694.7,320.3,749.8,339.3,804.9,358.2L804.9,358.2z"/>
			
				<linearGradient id="SVGID_00000046311143311101053200000018428712487360333499_" gradientUnits="userSpaceOnUse" x1="730.48" y1="936.47" x2="712.21" y2="936.47" gradientTransform="matrix(1 0 0 -1 0 1200)">
				<stop  offset="0" style="stop-color:#E0E6EB"/>
				<stop  offset="1" style="stop-color:#F7FAFF"/>
			</linearGradient>
			<polygon style="fill:url(#SVGID_00000046311143311101053200000018428712487360333499_);" points="713.4,289 712.2,232.6 
				730.5,238.9 729.3,294.4 			"/>
			<polygon class="st6" points="714.6,233.4 712.2,232.6 713.4,289 715.7,286.3 			"/>
			
				<linearGradient id="SVGID_00000048488718260145115620000002411122826445088924_" gradientUnits="userSpaceOnUse" x1="731.1801" y1="893.6896" x2="711.41" y2="893.6896" gradientTransform="matrix(1 0 0 -1 0 1200)">
				<stop  offset="0" style="stop-color:#E0E6EB"/>
				<stop  offset="1" style="stop-color:#F7FAFF"/>
			</linearGradient>
			<path style="fill:url(#SVGID_00000048488718260145115620000002411122826445088924_);" d="M728.4,314.9c-2,1.1-4.4,1.2-7,0.2
				c-2.7-0.9-5.1-2.7-7-5.1c-2-2.4-2.9-4.8-2.9-7.2c0-2.6,0.9-4.4,2.9-5.4c1.8-0.9,4.2-0.9,7,0.1c5.5,1.9,9.8,7.1,9.8,12.1
				C731.2,312.2,730.3,313.9,728.4,314.9L728.4,314.9z"/>
			<polygon class="st6" points="157.8,726.8 169.2,751.3 167.6,751.6 157.8,730.5 			"/>
			<polygon class="st5" points="175.9,769.5 175.9,765.7 136.7,772.9 136.7,776.6 			"/>
			<path class="st5" d="M1418.3,249.4c0,1.1-0.5,2.1-1.2,2.9c-1.2,1.4-3,2.2-4.6,2.6c-1.7,0.5-3.6,0.6-5.4,0.4
				c-1.8-0.2-3.6-0.7-5.1-1.6c-1.5-0.9-2.9-2.4-2.9-4.3v-3.8h19.2V249.4L1418.3,249.4z"/>
			<polygon class="st5" points="187.3,790.2 210.4,786.1 210.4,789.8 187.3,794 			"/>
			<path class="st5" d="M1393.1,240.7c0,1.1-0.5,2.1-1.2,2.9c-1.2,1.4-3,2.2-4.6,2.6c-1.7,0.5-3.6,0.6-5.4,0.4
				c-1.8-0.2-3.6-0.7-5.1-1.6c-1.5-0.9-2.9-2.4-2.9-4.3V237h19.2V240.7L1393.1,240.7z"/>
			
				<linearGradient id="SVGID_00000008141207219641396110000007643521422948551086_" gradientUnits="userSpaceOnUse" x1="184.1" y1="409.75" x2="184.1" y2="477.39" gradientTransform="matrix(1 0 0 -1 0 1200)">
				<stop  offset="0" style="stop-color:#E88F00"/>
				<stop  offset="1" style="stop-color:#E8B461"/>
			</linearGradient>
			<polygon style="fill:url(#SVGID_00000008141207219641396110000007643521422948551086_);" points="169.2,751.3 130,758.4 
				136.7,772.9 175.9,765.7 187.3,790.2 210.4,786.1 199,761.5 238.2,754.4 231.5,740 192.3,747.1 180.9,722.6 157.8,726.8 			"/>
			<path class="st19" d="M730.8,312.3C730.8,312.3,730.7,312.3,730.8,312.3c-2,1.1-4.4,1.2-7.1,0.3s-5.1-2.7-7-5.1
				c-2-2.4-2.9-4.8-2.9-7.2c0-1,0.1-1.9,0.4-2.7c-1.9,1-2.8,2.8-2.8,5.3c0,2.4,0.9,4.8,2.9,7.2c2,2.4,4.4,4.2,7,5.1s5.1,0.8,7-0.2
				C729.5,314.3,730.3,313.4,730.8,312.3L730.8,312.3z"/>
			<polygon class="st19" points="713.4,289 729.3,294.4 729.4,291 715.7,286.3 			"/>
			<polygon class="st6" points="130,758.4 136.7,772.9 136.7,776.6 130,762.2 			"/>
			<path class="st5" d="M1367.8,232.1c0,1.1-0.5,2.1-1.2,2.9c-1.2,1.4-3,2.2-4.6,2.6c-1.7,0.5-3.6,0.6-5.4,0.4
				c-1.8-0.2-3.6-0.7-5.1-1.6c-1.5-0.9-2.9-2.4-2.9-4.3v-3.8h19.2V232.1L1367.8,232.1z"/>
			
				<linearGradient id="SVGID_00000034791278025835249890000014611217482881332867_" gradientUnits="userSpaceOnUse" x1="718.65" y1="406.6148" x2="764.85" y2="406.6148" gradientTransform="matrix(1 0 0 -1 0 1200)">
				<stop  offset="0" style="stop-color:#E0E6EB"/>
				<stop  offset="1" style="stop-color:#F7FAFF"/>
			</linearGradient>
			<path style="fill:url(#SVGID_00000034791278025835249890000014611217482881332867_);" d="M723.3,785.6c0.7-0.8,1.6-1.1,2.5-1.2
				c1-0.1,2,0.1,2.9,0.4c12,4.1,24.1,8.3,36.2,12.4l-4.6,5.3c-13.9-3.8-27.7-7.7-41.6-11.6C720.2,789.1,721.7,787.4,723.3,785.6
				L723.3,785.6z"/>
			<path class="st21" d="M724.1,816.2c-1.7-0.6-3.2-1.7-4.3-3c-1.1-1.3-2-3-2-4.8v-15c0-1.5,0.7-2.8,2.1-3.5c1.3-0.6,2.9-0.4,4.2,0
				c12,4.1,24.1,8.3,36.2,12.4c-5.9,6.7-11.8,13.4-17.7,20.2C736.3,820.5,730.2,818.4,724.1,816.2L724.1,816.2z"/>
			
				<linearGradient id="SVGID_00000078742636532944720600000014205198395580600228_" gradientUnits="userSpaceOnUse" x1="693.2" y1="377.5848" x2="739.4" y2="377.5848" gradientTransform="matrix(1 0 0 -1 0 1200)">
				<stop  offset="0" style="stop-color:#E0E6EB"/>
				<stop  offset="1" style="stop-color:#F7FAFF"/>
			</linearGradient>
			<path style="fill:url(#SVGID_00000078742636532944720600000014205198395580600228_);" d="M697.8,814.6c0.7-0.8,1.6-1.1,2.5-1.2
				c1-0.1,2,0.1,2.9,0.4c12,4.1,24.1,8.3,36.2,12.4c-1.4,1.8-2.8,3.6-4.2,5.4c-14-3.9-28-7.8-42-11.7
				C694.7,818.1,696.3,816.3,697.8,814.6L697.8,814.6z"/>
			<path class="st21" d="M698.6,845.2c-1.7-0.6-3.2-1.7-4.3-3c-1.1-1.3-2-3-2-4.8v-15c0-0.9,0.3-1.9,0.9-2.6
				c0.7-0.8,1.6-1.1,2.5-1.2c1-0.1,2,0.1,2.9,0.4c12.2,4.2,24.4,8.4,36.6,12.6c-1.2,8.3-2.4,16.7-3.7,25
				C720.6,852.8,709.6,849,698.6,845.2L698.6,845.2z"/>
			
				<linearGradient id="SVGID_00000101099880882035510060000009189366907256924076_" gradientUnits="userSpaceOnUse" x1="731.56" y1="365.5493" x2="807.53" y2="365.5493" gradientTransform="matrix(1 0 0 -1 0 1200)">
				<stop  offset="0" style="stop-color:#B6C7D4"/>
				<stop  offset="1" style="stop-color:#D1D7E3"/>
			</linearGradient>
			<path style="fill:url(#SVGID_00000101099880882035510060000009189366907256924076_);" d="M733.4,905.4c-0.9-0.3-1.3-1.3-1.6-2.1
				c-0.2-0.8-0.3-1.8-0.3-2.7v-56.2c0-2.8,0.7-5.9,1.7-8.4c0.9-2.5,2.3-5.5,4.1-7.5c19.3-21.9,38.6-43.9,57.8-65.8
				c0.5-0.6,1.1-1.1,1.7-1.5c0.6-0.4,1.4-0.7,2.2-0.5l8.4,2.9c-21.9,48.2-43.8,96.5-65.7,144.7C739.1,907.3,736.3,906.4,733.4,905.4
				L733.4,905.4z"/>
			<path class="st11" d="M745.8,906.3c-0.5,0.6-1.1,1.1-1.7,1.5c-0.6,0.4-1.4,0.7-2.2,0.5c-0.9-0.3-1.3-1.3-1.6-2.1
				c-0.2-0.8-0.3-1.8-0.3-2.7v-56.2c0-2.8,0.7-5.9,1.7-8.4c0.9-2.5,2.3-5.5,4.1-7.5c19.3-21.9,38.6-43.9,57.8-65.8
				c0.5-0.6,1.2-1.2,1.9-1.6c0.7-0.4,1.6-0.7,2.4-0.2c0.7,0.5,1.1,1.4,1.2,2.1c0.2,0.8,0.3,1.7,0.3,2.5v6.9
				c-19.6,41.8-39.2,83.7-58.7,125.5C749,902.6,747.4,904.5,745.8,906.3L745.8,906.3z"/>
			
				<linearGradient id="SVGID_00000047045883685650983380000001472875649019013508_" gradientUnits="userSpaceOnUse" x1="822.475" y1="327.82" x2="822.475" y2="428.19" gradientTransform="matrix(1 0 0 -1 0 1200)">
				<stop  offset="0" style="stop-color:#E7EDF2"/>
				<stop  offset="1" style="stop-color:#F7FAFF"/>
			</linearGradient>
			<polygon style="fill:url(#SVGID_00000047045883685650983380000001472875649019013508_);" points="745.8,837.6 803.6,771.8 
				899.2,828.3 860.6,872.2 			"/>
			<polygon class="st11" points="860.6,872.2 860.6,915.9 899.2,872 899.2,828.3 			"/>
			<polygon class="st10" points="745.8,900.1 860.6,915.9 860.6,872.2 745.8,837.6 			"/>
			
				<linearGradient id="SVGID_00000137109634678692727340000005866875744556900231_" gradientUnits="userSpaceOnUse" x1="893.4647" y1="307.6187" x2="903.5973" y2="335.4557" gradientTransform="matrix(1 0 0 -1 0 1200)">
				<stop  offset="0" style="stop-color:#8C9BAB"/>
				<stop  offset="1" style="stop-color:#DAE5F0"/>
			</linearGradient>
			<path style="fill:url(#SVGID_00000137109634678692727340000005866875744556900231_);" d="M875.2,885.7c-0.6-0.2-1-0.6-1.3-1.2
				c-0.4-0.7-0.6-1.4-0.8-2.2c-0.2-1.3-0.2-2.8-0.1-4.1c0.2-2.7,0.9-5.5,1.8-8s2.1-5.1,3.5-7.4c0.7-1.1,1.6-2.2,2.6-3.2
				c0.5-0.5,1.2-1,1.9-1.2c0.6-0.2,1.2-0.3,1.8-0.1c14,4.8,28.1,9.6,42.1,14.5c-3.1,9.1-6.2,18.2-9.4,27.2
				C903.3,895.4,889.3,890.6,875.2,885.7L875.2,885.7z"/>
			<polygon class="st26" points="541,753.3 545.6,748 545.6,721.8 541,727.1 			"/>
			<polygon class="st26" points="515.5,782.3 520.2,777 520.2,750.8 515.5,756 			"/>
			
				<linearGradient id="SVGID_00000003069678585469122070000016378258952240002203_" gradientUnits="userSpaceOnUse" x1="902.39" y1="1061.6082" x2="546.73" y2="1061.6082" gradientTransform="matrix(1 0 0 -1 0 1200)">
				<stop  offset="0" style="stop-color:#25114D"/>
				<stop  offset="1" style="stop-color:#624699"/>
			</linearGradient>
			<path style="fill:url(#SVGID_00000003069678585469122070000016378258952240002203_);" d="M902.4,193.4c0-2.9-1.5-5.9-3.3-8
				c-1.9-2.2-4.4-4-7.2-5c-111.5-38.3-223.1-76.7-334.6-115c-2.2-0.8-4.8-1-7,0c-2.4,1.1-3.5,3.3-3.5,5.8v18.7
				c118.5,40.8,237.1,81.5,355.7,122.2L902.4,193.4L902.4,193.4z"/>
			
				<linearGradient id="SVGID_00000176000805744903014710000003548685099070832797_" gradientUnits="userSpaceOnUse" x1="614.4568" y1="1196.5695" x2="853.5096" y2="942.0071" gradientTransform="matrix(1 0 0 -1 0 1200)">
				<stop  offset="0" style="stop-color:#836FAB"/>
				<stop  offset="0.29" style="stop-color:#806CA8"/>
				<stop  offset="0.46" style="stop-color:#7965A0"/>
				<stop  offset="0.6" style="stop-color:#6C5991"/>
				<stop  offset="0.73" style="stop-color:#5A497D"/>
				<stop  offset="0.84" style="stop-color:#423363"/>
				<stop  offset="0.95" style="stop-color:#261843"/>
				<stop  offset="1" style="stop-color:#140830"/>
			</linearGradient>
			<path style="fill:url(#SVGID_00000176000805744903014710000003548685099070832797_);" d="M902.4,193.4c0-2.9-1.5-5.9-3.3-8
				c-1.9-2.2-4.4-4-7.2-5c-111.5-38.3-223.1-76.7-334.6-115c-1.5-0.5-3.2-0.8-4.8-0.6c-1.6,0.2-3.2,0.8-4.2,2.1
				c1.9-2.2,3.9-4.4,5.8-6.6c1.1-1.2,2.7-1.9,4.2-2.1c1.6-0.2,3.3,0.1,4.8,0.6c111.5,38.3,223.1,76.7,334.6,115
				c2.8,0.9,5.3,2.8,7.2,5c1.8,2.1,3.3,5.1,3.3,8v18.7c-1.9,2.2-3.9,4.4-5.8,6.6V193.4L902.4,193.4z"/>
			<path class="st13" d="M928.9,878.7c0-0.9-0.1-1.8-0.2-2.6c-0.1-0.7-0.4-1.4-0.8-2c-0.7-1.1-1.7-1.4-2.9-1c-0.5,0.2-1,0.4-1.4,0.8
				c-0.5,0.4-1,0.8-1.4,1.2c-1.1,1.2-2,2.5-2.8,3.8c-1.3,2.3-2.4,5-3.2,7.5c-0.4,1.4-0.8,2.9-1,4.4c-0.2,1.2-0.3,2.4-0.3,3.7
				c0,0.9,0.1,1.8,0.2,2.6c0.1,0.7,0.4,1.4,0.8,2c0.7,1.1,1.7,1.4,2.9,1c0.5-0.2,1-0.4,1.4-0.8c0.5-0.4,1-0.8,1.4-1.2
				c1.1-1.2,2-2.5,2.8-3.8c1.3-2.3,2.4-5,3.2-7.5c0.4-1.4,0.8-2.9,1-4.4C928.8,881.2,928.9,879.9,928.9,878.7z"/>
			<path class="st7" d="M1365.8,576.3c13,4.5,34.4,12,47.4,16.5c6.5,2.2,13,4.5,19.5,6.7c3.2,1.1,6.5,2.2,9.8,3.4
				c1.6,0.6,3.2,1.1,4.9,1.7c0.8,0.3,1.6,0.6,2.4,0.8c1.6,0.6,3.2,1.2,4.7,2.1c1.7,1,3.3,2.1,4.6,3.6c1.2,1.3,2.2,2.8,2.7,4.4
				c0.5,1.5,0.7,3.1,0.4,4.7c-0.3,1.9-1.2,3.6-2.3,5c-0.3,0.4-0.7,0.8-1,1.1c-0.3,0.4-0.7,0.8-1.1,1.2c-0.7,0.8-1.4,1.6-2.1,2.4
				c-2.8,3.2-5.6,6.4-8.4,9.6c-5.6,6.4-11.2,12.8-16.8,19.1c-11.2,12.8-22.4,25.5-33.6,38.2c-44.5,50.6-88.9,101.2-133.4,151.7
				c-22.2,25.3-44.5,50.6-66.7,75.9c-7.9,9-15.8,17.9-23.6,26.9l-2.9,3.4c-1,1.1-2.1,2.1-3.3,2.9c-1.5,1-3,1.8-4.7,2.5
				c-1.9,0.8-3.8,1.3-5.8,1.7c-4.1,0.8-8.4,0.9-12.5,0.3c-1.9-0.3-3.7-0.7-5.5-1.2c-0.7-0.2-1.3-0.5-2-0.7c-7.8-2.7-15.5-5.3-23.3-8
				c-63.7-21.9-127.4-43.8-191.1-65.7"/>
			<line class="st29" x1="877.1" y1="182.8" x2="891.9" y2="201"/>
			<line class="st29" x1="877.1" y1="195.9" x2="891.9" y2="187.9"/>
			<line class="st29" x1="864.5" y1="185" x2="847.7" y2="179.2"/>
			
				<linearGradient id="SVGID_00000138540266531224491240000009721366974082535839_" gradientUnits="userSpaceOnUse" x1="1383.4865" y1="957.0039" x2="1383.4865" y2="969.0207" gradientTransform="matrix(1 0 0 -1 0 1200)">
				<stop  offset="0" style="stop-color:#E88F00"/>
				<stop  offset="1" style="stop-color:#E8B461"/>
			</linearGradient>
			<path style="fill:url(#SVGID_00000138540266531224491240000009721366974082535839_);" d="M1391.9,239.9c0.7-0.8,1.2-1.8,1.2-2.9
				c0-0.9-0.3-1.8-0.9-2.5c-0.6-0.8-1.5-1.5-2.4-2c-1.7-0.9-3.7-1.4-5.6-1.5c-1.9-0.1-3.9,0.2-5.7,0.8c-1,0.4-2,0.9-2.8,1.6
				c-0.6,0.6-1.2,1.2-1.6,2c-0.4,0.9-0.4,1.8-0.2,2.7c0.3,1,1,1.8,1.8,2.5c1.5,1.2,3.5,1.9,5.3,2.2c1.9,0.3,3.9,0.2,5.8-0.2
				c1-0.2,2.1-0.6,3-1.1C1390.6,241.1,1391.3,240.5,1391.9,239.9L1391.9,239.9z"/>
			
				<linearGradient id="SVGID_00000163776969007521214520000012940756667335315076_" gradientUnits="userSpaceOnUse" x1="1358.2264" y1="965.6939" x2="1358.2264" y2="977.7107" gradientTransform="matrix(1 0 0 -1 0 1200)">
				<stop  offset="0" style="stop-color:#E88F00"/>
				<stop  offset="1" style="stop-color:#E8B461"/>
			</linearGradient>
			<path style="fill:url(#SVGID_00000163776969007521214520000012940756667335315076_);" d="M1367.8,228.3c0-0.9-0.3-1.8-0.9-2.5
				c-0.6-0.8-1.5-1.5-2.4-2c-1.7-0.9-3.7-1.4-5.6-1.5c-1.9-0.1-3.9,0.2-5.7,0.8c-1,0.4-2,0.9-2.8,1.6c-0.6,0.6-1.2,1.2-1.6,2
				c-0.4,0.9-0.4,1.8-0.2,2.7c0.3,1,1,1.8,1.8,2.5c1.5,1.2,3.5,1.9,5.3,2.2c1.9,0.3,3.9,0.2,5.8-0.2c1-0.2,2.1-0.6,3-1.1
				c0.8-0.4,1.4-0.9,2-1.6C1367.3,230.4,1367.8,229.4,1367.8,228.3L1367.8,228.3z"/>
			
				<linearGradient id="SVGID_00000000931594236525474740000008820461582028212147_" gradientUnits="userSpaceOnUse" x1="1408.7365" y1="948.3339" x2="1408.7365" y2="960.3507" gradientTransform="matrix(1 0 0 -1 0 1200)">
				<stop  offset="0" style="stop-color:#E88F00"/>
				<stop  offset="1" style="stop-color:#E8B461"/>
			</linearGradient>
			<path style="fill:url(#SVGID_00000000931594236525474740000008820461582028212147_);" d="M1418.3,245.7c0-0.9-0.3-1.8-0.9-2.5
				c-0.6-0.8-1.5-1.5-2.4-2c-1.7-0.9-3.7-1.4-5.6-1.5c-1.9-0.1-3.9,0.2-5.7,0.8c-1,0.4-2,0.9-2.8,1.6c-0.6,0.6-1.2,1.2-1.6,2
				c-0.4,0.9-0.4,1.8-0.2,2.7c0.3,1,1,1.8,1.8,2.5c1.5,1.2,3.5,1.9,5.3,2.2c1.9,0.3,3.9,0.2,5.8-0.2c1-0.2,2.1-0.6,3-1.1
				c0.8-0.4,1.4-0.9,2-1.6C1417.9,247.8,1418.3,246.8,1418.3,245.7L1418.3,245.7z"/>
			<polygon class="st33" points="805,150.5 546.7,61.9 546.7,303.5 624.3,330.2 			"/>
			<g>
				
					<linearGradient id="SVGID_00000028298723999284489640000000043522711567916191_" gradientUnits="userSpaceOnUse" x1="1035.9628" y1="628.8159" x2="1297.8831" y2="926.7361" gradientTransform="matrix(1 0 0 -1 0 1200)">
					<stop  offset="0" style="stop-color:#E0E6EB"/>
					<stop  offset="1" style="stop-color:#F7FAFF"/>
				</linearGradient>
				<path style="fill:url(#SVGID_00000028298723999284489640000000043522711567916191_);" d="M1319.6,630.4
					c-1.3-0.4-1.9-1.8-2.2-2.9c-0.3-1.2-0.4-2.5-0.4-3.8V408.2c0-3.9,1-8.2,2.3-11.8c1.3-3.5,3.3-7.7,5.8-10.5
					c14.7-16.7,29.3-33.3,44-50c-118.2-40.6-236.5-81.3-354.7-121.9c-14.7,16.7-29.3,33.3-44,50c-2.5,2.9-4.5,7-5.8,10.5
					c-1.3,3.6-2.3,7.9-2.3,11.8v215.5c0,1.4,0.2,3.1,0.7,4.5c0.3,0.9,1,1.9,2,2.2C1083.2,549.1,1201.4,589.8,1319.6,630.4
					L1319.6,630.4z"/>
				<path class="st11" d="M1325.3,627.4c-0.7,0.8-1.6,1.7-2.5,2.3c-0.9,0.6-2.1,1.1-3.2,0.7c-1.3-0.4-1.9-1.8-2.2-2.9
					c-0.3-1.2-0.4-2.5-0.4-3.8V408.2c0-3.9,1-8.2,2.3-11.8c1.3-3.5,3.3-7.7,5.8-10.5c14.7-16.7,29.3-33.3,44-50v241.8
					C1354.5,594.2,1339.9,610.8,1325.3,627.4L1325.3,627.4z"/>
				<path class="st35" d="M1141.3,569.1c-1.3-0.4-1.9-1.8-2.2-2.9c-0.3-1.2-0.4-2.5-0.4-3.8v-30.5"/>
				<path class="st35" d="M978.2,513c-1.3-0.4-1.9-1.8-2.2-2.9c-0.3-1.2-0.4-2.5-0.4-3.8v-15c0-2.6,0.8-5.2,2.6-7.2
					c1.8-2,4.4-3,7-3.3c2.6-0.3,5.3,0.2,7.8,1c97.5,33.5,195,67,292.5,100.6c4.7,1.6,9.2,4.9,12.3,8.8c1.4,1.8,2.7,3.8,3.6,5.9
					c0.9,2.1,1.5,4.4,1.5,6.8v15c0,1.2,0.1,2.6,0.4,3.8c0.3,1.1,0.9,2.5,2.2,2.9"/>
				<path class="st36" d="M1108.2,420.8c3.8,1.3,7.4,3.7,10.2,6.5c18,18.3,36,36.6,54,55c4.2,4.3,9.5,7.8,15.3,9.8
					c43.1,14.8,86.2,29.6,129.4,44.5v2.8c-49-16.8-97.9-33.7-146.9-50.5c-3.8-1.3-7.4-3.7-10.2-6.5c-18-18.3-36-36.6-54-55
					c-4.2-4.3-9.5-7.8-15.3-9.8c-42.8-14.7-85.6-29.4-128.4-44.1v-2.8C1010.9,387.3,1059.6,404,1108.2,420.8z"/>
				<path class="st36" d="M1059.8,454.7c0-0.3,0.1-0.6,0.3-0.8c0.3-0.4,0.8-0.5,1.3-0.5c0.5,0,0.9,0.2,1.3,0.5
					c0.7,0.5,1.4,1.4,1.4,2.3c0,0.3-0.1,0.6-0.3,0.9c-0.3,0.4-0.8,0.4-1.3,0.4c-0.4,0-0.9-0.2-1.3-0.5
					C1060.5,456.5,1059.8,455.6,1059.8,454.7L1059.8,454.7z"/>
				<path class="st36" d="M1059.8,443.4c0-0.3,0.1-0.6,0.3-0.8c0.3-0.4,0.8-0.5,1.3-0.5c0.5,0,0.9,0.2,1.3,0.5
					c0.7,0.5,1.4,1.4,1.4,2.3c0,0.3-0.1,0.6-0.3,0.9c-0.3,0.4-0.8,0.4-1.3,0.4c-0.4,0-0.9-0.2-1.3-0.5
					C1060.5,445.2,1059.8,444.4,1059.8,443.4L1059.8,443.4z"/>
				<path class="st36" d="M1059.8,432.2c0-0.3,0.1-0.6,0.3-0.8c0.3-0.4,0.8-0.5,1.3-0.5c0.5,0,0.9,0.2,1.3,0.5
					c0.7,0.5,1.4,1.4,1.4,2.3c0,0.3-0.1,0.6-0.3,0.9c-0.3,0.4-0.8,0.4-1.3,0.4c-0.4,0-0.9-0.2-1.3-0.5
					C1060.5,434,1059.8,433.1,1059.8,432.2L1059.8,432.2z"/>
				<path class="st36" d="M1059.8,420.9c0-0.3,0.1-0.6,0.3-0.8c0.3-0.4,0.8-0.5,1.3-0.5c0.5,0,0.9,0.2,1.3,0.5
					c0.7,0.5,1.4,1.4,1.4,2.3c0,0.3-0.1,0.6-0.3,0.9c-0.3,0.4-0.8,0.4-1.3,0.4c-0.4,0-0.9-0.2-1.3-0.5
					C1060.5,422.7,1059.8,421.9,1059.8,420.9L1059.8,420.9z"/>
				<path class="st36" d="M1044.5,449.5L1044.5,449.5c0-0.6,0.2-1,0.7-1.2c0.4-0.2,1-0.1,1.4,0c1.8,0.6,3.6,1.2,5.4,1.8
					c0.6,0.2,1.1,0.6,1.4,1c0.4,0.4,0.7,1,0.7,1.6v0.1c0,0.3-0.1,0.6-0.3,0.9c-0.5,0.5-1.2,0.5-1.8,0.3c-1.8-0.6-3.6-1.2-5.4-1.8
					c-0.6-0.2-1.1-0.6-1.4-1C1044.8,450.6,1044.5,450,1044.5,449.5L1044.5,449.5z"/>
				<path class="st36" d="M1054.1,418.9L1054.1,418.9c0,0.4-0.1,0.7-0.3,1c-0.5,0.5-1.2,0.5-1.8,0.3c-1.8-0.6-3.6-1.2-5.4-1.8
					c-0.6-0.2-1.1-0.6-1.4-1c-0.4-0.4-0.7-1-0.7-1.6v-0.1c0-0.5,0.2-0.9,0.7-1.2c0.4-0.2,1-0.1,1.4,0c1.8,0.6,3.6,1.2,5.4,1.8
					c0.6,0.2,1.1,0.6,1.4,1C1053.7,417.7,1054.1,418.3,1054.1,418.9L1054.1,418.9z"/>
				<path class="st36" d="M1044.5,438.2L1044.5,438.2c0-0.4,0.1-0.7,0.3-0.9c0.4-0.5,1.2-0.5,1.8-0.3c1.8,0.6,3.6,1.2,5.4,1.8
					c0.6,0.2,1.1,0.6,1.4,1c0.4,0.4,0.7,1,0.7,1.6v0.1c0,0.3-0.1,0.6-0.3,0.9c-0.5,0.5-1.2,0.5-1.8,0.3c-1.8-0.6-3.6-1.2-5.4-1.8
					c-0.6-0.2-1.1-0.6-1.4-1C1044.8,439.4,1044.5,438.8,1044.5,438.2L1044.5,438.2z"/>
				<path class="st36" d="M1052,431.4c-1.8-0.6-3.6-1.2-5.4-1.8c-0.6-0.2-1.1-0.6-1.4-1c-0.4-0.4-0.7-1-0.7-1.6v-0.1
					c0-0.3,0.1-0.6,0.3-0.8c0.4-0.5,1.2-0.5,1.8-0.3c1.8,0.6,3.6,1.2,5.4,1.8c0.6,0.2,1.1,0.6,1.4,1c0.4,0.4,0.7,1,0.7,1.6v0.1
					c0,0.3-0.1,0.6-0.3,0.9C1053.3,431.6,1052.5,431.6,1052,431.4L1052,431.4z"/>
				
					<linearGradient id="SVGID_00000173160144613148182170000002362299749974274216_" gradientUnits="userSpaceOnUse" x1="1175.2269" y1="745.1852" x2="1103.0923" y2="745.1852" gradientTransform="matrix(1 0 0 -1 0 1200)">
					<stop  offset="0" style="stop-color:#E0E6EB"/>
					<stop  offset="1" style="stop-color:#F7FAFF"/>
				</linearGradient>
				<path style="fill:url(#SVGID_00000173160144613148182170000002362299749974274216_);" d="M1119.8,430c-1.8-1.8-3.8-3.4-5.9-4.8
					s-4.4-2.5-6.8-3.3c-0.7-0.2-1.4-0.5-2.1-0.7c-0.5-0.2-1.3-0.2-1.7,0.3c-0.3,0.4-0.3,0.9-0.2,1.3c0.1,0.5,0.4,0.9,0.7,1.2
					c18.2,18.5,36.4,37.1,54.6,55.6c1.8,1.8,3.8,3.4,5.9,4.8s4.4,2.5,6.8,3.3c0.7,0.2,1.4,0.5,2.1,0.7c0.4,0.1,0.8,0.2,1.1,0.1
					c0.4-0.1,0.7-0.4,0.8-0.8c0.1-0.4,0.1-0.8-0.1-1.1c-0.2-0.4-0.4-0.7-0.6-1C1156.2,467.1,1138,448.6,1119.8,430L1119.8,430z"/>
				<path class="st35" d="M1336.9,351.3c-8.7,9.9-17.3,19.7-26,29.6c-2.5,2.9-4.5,7-5.8,10.5c-1.3,3.6-2.3,7.9-2.3,11.8v15
					c0,2.6-0.7,5.1-2.5,7.1c-1.8,2.1-4.4,3.1-7,3.4s-5.4-0.2-7.9-1c-97.5-33.5-195-67-292.5-100.6c-4.6-1.6-8.8-4.6-11.8-8.2
					c-1.6-1.8-2.9-3.9-3.9-6.1c-1-2.2-1.6-4.6-1.6-7.1v-15c0-3.9,1-8.2,2.3-11.8c1.3-3.5,3.3-7.7,5.8-10.5
					c8.7-9.9,17.3-19.7,26-29.6"/>
				<polygon class="st26" points="1058.5,251.5 1043.6,268.5 1001,253.9 1016,236.9 				"/>
				<polygon class="st26" points="1323.7,342.6 1305.1,363.8 1228.5,337.5 1247.2,316.3 				"/>
				<polyline class="st35" points="1351.1,450.9 1351.1,356.2 1320.9,345.8 				"/>
				<polygon class="st26" points="1353.9,500.3 1336.8,519.7 1336.8,467.2 1353.9,447.8 				"/>
				<line class="st35" x1="1013.1" y1="240.1" x2="996.4" y2="234.3"/>
				<line class="st35" x1="1351.1" y1="598" x2="1351.1" y2="503.4"/>
				<line class="st35" x1="1244.3" y1="319.5" x2="1055.7" y2="254.7"/>
			</g>
			<g>
				
					<linearGradient id="SVGID_00000114059309856400252490000016222102657544529815_" gradientUnits="userSpaceOnUse" x1="862.6806" y1="673.1702" x2="1075.4594" y2="673.1702">
					<stop  offset="0" style="stop-color:#E6ECF2"/>
					<stop  offset="1" style="stop-color:#CEDAE3"/>
				</linearGradient>
				<path style="fill:url(#SVGID_00000114059309856400252490000016222102657544529815_);" d="M1075.5,633.7h-4.8
					c-2.1-1.8-4.9-3.3-8.3-4.5l-51.1-17.6h-86.8l-56.7,64h-5.1v10h0c0,1.5,0.3,3,0.9,4.5c2,4.5,6.1,7.8,12.3,10l94.8,32.6
					c6.2,2.1,12.9,2.5,20.1,1.2c6.8-1.3,12.3-4.1,16-8.3l65.1-73.6c2.4-2.7,3.5-5.5,3.5-8.4h0V633.7z M976.3,711.1l-74-25.5
					l59.7-67.5l74,25.5L976.3,711.1z"/>
				<path class="st39" d="M723,512.4c6.2,2.1,10.3,5.5,12.3,10c1.9,4.3,1,8.7-2.7,12.8l-29,32.7c-3.7,4.1-9.1,7-16,8.3
					c-4.2,0.8-11.6,0.5-18.6-1.7l-8.3,27.1l14.8,5.1L659,625.4l-17.9-6.2c-11.8-4.1-16.9-10-14.6-17.8l10.5-37l-42-14.5l-36.2,40.9
					l-32.6-11.2l91.6-103.6L723,512.4z M697.6,527.5l-63.4-21.8l-22.9,25.9l63.4,21.8L697.6,527.5z"/>
				<path class="st39" d="M457.6,421l125.7,43.3L566.8,483l-92.9-32l-20.3,23l83.3,28.7l-16.6,18.7L437,492.7l-21.8,24.6l93.3,32.1
					L492.1,568L366,524.5L457.6,421z"/>
				<path class="st39" d="M891.9,570.5c6.2,2.1,10.3,5.5,12.3,10c1.9,4.3,1,8.7-2.7,12.8l-29,32.7c-3.7,4.1-9.1,7-16,8.3
					c-4.2,0.8-11.6,0.5-18.6-1.7l-8.3,27.1l14.8,5.1l-16.6,18.7l-17.9-6.2c-11.8-4.1-16.9-10-14.6-17.8l10.5-37l-42-14.5l-36.2,40.9
					l-32.6-11.2l91.6-103.6L891.9,570.5z M866.6,585.7l-63.4-21.8l-22.9,25.9l63.4,21.8L866.6,585.7z"/>
				<path class="st39" d="M1227.1,685.9c6.2,2.1,10.3,5.5,12.3,10c1.9,4.3,1,8.7-2.7,12.8l-29,32.7c-3.7,4.1-9.1,7-16,8.3
					c-4.2,0.8-11.6,0.5-18.6-1.7l-8.3,27.1l14.8,5.1l-16.6,18.7l-17.9-6.2c-11.8-4.1-16.9-10-14.6-17.8l10.5-37l-42-14.5l-36.2,40.9
					l-32.6-11.2l91.6-103.6L1227.1,685.9z M1201.8,701.1l-63.4-21.8l-22.9,25.9l63.4,21.8L1201.8,701.1z"/>
				
					<linearGradient id="SVGID_00000176752989265020125620000000314333041139210633_" gradientUnits="userSpaceOnUse" x1="365.9882" y1="541.2598" x2="492.1307" y2="541.2598">
					<stop  offset="0" style="stop-color:#E6ECF2"/>
					<stop  offset="1" style="stop-color:#CEDAE3"/>
				</linearGradient>
				<polygon style="fill:url(#SVGID_00000176752989265020125620000000314333041139210633_);" points="366,514.5 366,524.5 
					492.1,568 492.1,558 				"/>
				<polygon class="st41" points="473.9,441 473.9,451 566.8,483 566.8,473 				"/>
				<polygon class="st42" points="583.3,454.3 566.8,473 566.8,483 583.3,464.3 				"/>
				<polygon class="st42" points="536.9,492.7 520.3,511.4 520.3,521.4 536.9,502.7 				"/>
				<polygon class="st42" points="508.6,539.4 492.1,558 492.1,568 508.6,549.4 				"/>
				<polygon class="st41" points="520.3,521.4 437,492.7 437,482.7 520.3,511.4 				"/>
				<polygon class="st42" points="473.9,441 453.6,464 453.6,474 473.9,451 				"/>
				<polygon class="st42" points="437,482.7 415.3,507.3 415.3,517.3 437,492.7 				"/>
				<g>
					
						<linearGradient id="SVGID_00000119804330355775042350000005604952749784228776_" gradientUnits="userSpaceOnUse" x1="526.2069" y1="580.3267" x2="558.8329" y2="580.3267">
						<stop  offset="0" style="stop-color:#E6ECF2"/>
						<stop  offset="1" style="stop-color:#CEDAE3"/>
					</linearGradient>
					<polygon style="fill:url(#SVGID_00000119804330355775042350000005604952749784228776_);" points="558.8,590.9 526.2,579.7 
						526.2,569.7 558.8,580.9 					"/>
					<polygon class="st42" points="595,540.1 558.8,580.9 558.8,590.9 595,550.1 					"/>
					<polygon class="st42" points="634.3,495.7 611.3,521.6 611.3,531.6 634.3,505.7 					"/>
					
						<linearGradient id="SVGID_00000142171777426555492420000014910775803927135385_" gradientUnits="userSpaceOnUse" x1="634.2611" y1="511.6006" x2="697.6449" y2="511.6006">
						<stop  offset="0" style="stop-color:#E6ECF2"/>
						<stop  offset="1" style="stop-color:#CEDAE3"/>
					</linearGradient>
					<polygon style="fill:url(#SVGID_00000142171777426555492420000014910775803927135385_);" points="697.6,527.5 634.3,505.7 
						634.3,495.7 697.6,517.5 					"/>
					<polygon class="st42" points="660.8,601.6 669.1,574.5 669.1,564.5 660.8,591.6 					"/>
					<path class="st42" d="M736.2,516.8h-5.2c-2.1-1.8-4.8-3.3-8.1-4.4l-15.5-5.3l-9.9,20.5l-22.9,25.9l-5.6-1.9v23
						c4.4,1.4,8.9,2,12.7,2.1h1.4c1.7,0,3.2-0.2,4.5-0.4c6.8-1.3,12.3-4.1,16-8.3l29-32.7c2.2-2.5,3.4-5.1,3.6-7.7v-0.8h0V516.8z"/>
					<polygon class="st42" points="675.6,596.7 659,615.4 659,625.4 675.6,606.7 					"/>
					
						<linearGradient id="SVGID_00000059297330624947587680000013078683634170244246_" gradientUnits="userSpaceOnUse" x1="595.0096" y1="552.2822" x2="636.9883" y2="552.2822">
						<stop  offset="0" style="stop-color:#E6ECF2"/>
						<stop  offset="1" style="stop-color:#CEDAE3"/>
					</linearGradient>
					<polygon style="fill:url(#SVGID_00000059297330624947587680000013078683634170244246_);" points="637,564.5 595,550.1 
						595,540.1 637,554.5 					"/>
					
						<linearGradient id="SVGID_00000052092546782818088430000016393937435019428777_" gradientUnits="userSpaceOnUse" x1="625.9575" y1="609.1491" x2="658.9989" y2="609.1491">
						<stop  offset="0" style="stop-color:#E6ECF2"/>
						<stop  offset="1" style="stop-color:#CEDAE3"/>
					</linearGradient>
					<path style="fill:url(#SVGID_00000052092546782818088430000016393937435019428777_);" d="M628.9,592.9l-0.6,2.2H626v10h0
						c0,6,5.2,10.8,15.1,14.2l17.9,6.2v-32.6H628.9z"/>
				</g>
				<g>
					
						<linearGradient id="SVGID_00000093161374444231630250000003596289109549140890_" gradientUnits="userSpaceOnUse" x1="695.1512" y1="638.4985" x2="727.7772" y2="638.4985">
						<stop  offset="0" style="stop-color:#E6ECF2"/>
						<stop  offset="1" style="stop-color:#CEDAE3"/>
					</linearGradient>
					<polygon style="fill:url(#SVGID_00000093161374444231630250000003596289109549140890_);" points="727.8,649.1 695.2,637.9 
						695.2,627.9 727.8,639.1 					"/>
					<polygon class="st42" points="764,598.2 727.8,639.1 727.8,649.1 764,608.2 					"/>
					<polygon class="st42" points="803.2,553.9 780.3,579.8 780.3,589.8 803.2,563.9 					"/>
					
						<linearGradient id="SVGID_00000162338402875329259060000018431843999572820377_" gradientUnits="userSpaceOnUse" x1="803.2054" y1="569.7725" x2="866.5892" y2="569.7725">
						<stop  offset="0" style="stop-color:#E6ECF2"/>
						<stop  offset="1" style="stop-color:#CEDAE3"/>
					</linearGradient>
					<polygon style="fill:url(#SVGID_00000162338402875329259060000018431843999572820377_);" points="866.6,585.7 803.2,563.9 
						803.2,553.9 866.6,575.7 					"/>
					<polygon class="st42" points="829.7,659.8 838,632.7 838,622.7 829.7,649.8 					"/>
					<path class="st42" d="M905.2,574.9H900c-2.1-1.8-4.8-3.3-8.1-4.4l-15.5-5.3l-9.9,20.5l-22.9,25.9l-5.6-1.9v23
						c4.4,1.4,8.9,2,12.7,2.1h1.4c1.7,0,3.2-0.2,4.5-0.4c6.8-1.3,12.3-4.1,16-8.3l29-32.7c2.2-2.5,3.4-5.1,3.6-7.7v-0.8h0V574.9z"/>
					<polygon class="st42" points="844.5,654.9 827.9,673.6 827.9,683.6 844.5,664.9 					"/>
					
						<linearGradient id="SVGID_00000158018587006216818590000009463241880029056678_" gradientUnits="userSpaceOnUse" x1="763.954" y1="610.4541" x2="805.9326" y2="610.4541">
						<stop  offset="0" style="stop-color:#E6ECF2"/>
						<stop  offset="1" style="stop-color:#CEDAE3"/>
					</linearGradient>
					<polygon style="fill:url(#SVGID_00000158018587006216818590000009463241880029056678_);" points="805.9,622.7 764,608.2 
						764,598.2 805.9,612.7 					"/>
					
						<linearGradient id="SVGID_00000024681214750133489910000004300834040327812763_" gradientUnits="userSpaceOnUse" x1="794.9019" y1="667.321" x2="827.9432" y2="667.321">
						<stop  offset="0" style="stop-color:#E6ECF2"/>
						<stop  offset="1" style="stop-color:#CEDAE3"/>
					</linearGradient>
					<path style="fill:url(#SVGID_00000024681214750133489910000004300834040327812763_);" d="M797.9,651l-0.6,2.2h-2.4v10h0
						c0,6,5.2,10.8,15.1,14.2l17.9,6.2V651H797.9z"/>
				</g>
				<g>
					
						<linearGradient id="SVGID_00000138562093544249803600000011331701490061277836_" gradientUnits="userSpaceOnUse" x1="1030.3403" y1="753.9136" x2="1062.9663" y2="753.9136">
						<stop  offset="0" style="stop-color:#E6ECF2"/>
						<stop  offset="1" style="stop-color:#CEDAE3"/>
					</linearGradient>
					<polygon style="fill:url(#SVGID_00000138562093544249803600000011331701490061277836_);" points="1063,764.5 1030.3,753.3 
						1030.3,743.3 1063,754.5 					"/>
					<polygon class="st42" points="1099.1,713.6 1063,754.5 1063,764.5 1099.1,723.6 					"/>
					<polygon class="st42" points="1138.4,669.3 1115.5,695.2 1115.5,705.2 1138.4,679.3 					"/>
					
						<linearGradient id="SVGID_00000100356806042376072160000006503808365351601849_" gradientUnits="userSpaceOnUse" x1="1138.3945" y1="685.1875" x2="1201.7783" y2="685.1875">
						<stop  offset="0" style="stop-color:#E6ECF2"/>
						<stop  offset="1" style="stop-color:#CEDAE3"/>
					</linearGradient>
					<polygon style="fill:url(#SVGID_00000100356806042376072160000006503808365351601849_);" points="1201.8,701.1 1138.4,679.3 
						1138.4,669.3 1201.8,691.1 					"/>
					<polygon class="st42" points="1164.9,775.2 1173.2,748.1 1173.2,738.1 1164.9,765.2 					"/>
					<path class="st42" d="M1240.4,690.4h-5.2c-2.1-1.8-4.8-3.3-8.1-4.4l-15.5-5.3l-9.9,20.5l-22.9,25.9l-5.6-1.9v23
						c4.4,1.4,8.9,2,12.7,2.1h1.4c1.7,0,3.2-0.2,4.5-0.4c6.8-1.3,12.3-4.1,16-8.3l29-32.7c2.2-2.5,3.4-5.1,3.6-7.7v-0.8h0V690.4z"/>
					<polygon class="st42" points="1179.7,770.3 1163.1,789 1163.1,799 1179.7,780.3 					"/>
					
						<linearGradient id="SVGID_00000024713085687870468850000006987210243060711089_" gradientUnits="userSpaceOnUse" x1="1099.1431" y1="725.8691" x2="1141.1217" y2="725.8691">
						<stop  offset="0" style="stop-color:#E6ECF2"/>
						<stop  offset="1" style="stop-color:#CEDAE3"/>
					</linearGradient>
					<polygon style="fill:url(#SVGID_00000024713085687870468850000006987210243060711089_);" points="1141.1,738.1 1099.1,723.6 
						1099.1,713.6 1141.1,728.1 					"/>
					
						<linearGradient id="SVGID_00000049918198060462626330000012140750873606348721_" gradientUnits="userSpaceOnUse" x1="1130.0909" y1="782.736" x2="1163.1323" y2="782.736">
						<stop  offset="0" style="stop-color:#E6ECF2"/>
						<stop  offset="1" style="stop-color:#CEDAE3"/>
					</linearGradient>
					<path style="fill:url(#SVGID_00000049918198060462626330000012140750873606348721_);" d="M1133.1,766.5l-0.6,2.2h-2.4v10h0
						c0,6,5.2,10.8,15.1,14.2l17.9,6.2v-32.6H1133.1z"/>
				</g>
				<polygon class="st42" points="902.3,685.7 962,618.2 962,608.2 902.3,675.7 				"/>
				
					<linearGradient id="SVGID_00000003075870485789889630000002859792262354943652_" gradientUnits="userSpaceOnUse" x1="961.9965" y1="625.9253" x2="1035.9789" y2="625.9253">
					<stop  offset="0" style="stop-color:#E6ECF2"/>
					<stop  offset="1" style="stop-color:#CEDAE3"/>
				</linearGradient>
				<polygon style="fill:url(#SVGID_00000003075870485789889630000002859792262354943652_);" points="1036,643.7 962,618.2 
					962,608.2 1036,633.7 				"/>
				
					<linearGradient id="SVGID_00000152224461110701131900000000171808511452525998_" gradientUnits="userSpaceOnUse" x1="803.184" y1="789.021" x2="803.184" y2="410.979">
					<stop  offset="0" style="stop-color:#ECF2F7"/>
					<stop  offset="1" style="stop-color:#F7FAFF"/>
				</linearGradient>
				<path style="fill:url(#SVGID_00000152224461110701131900000000171808511452525998_);" d="M457.6,411l125.7,43.3L566.8,473
					l-92.9-32l-20.3,23l83.3,28.7l-16.6,18.7L437,482.7l-21.8,24.6l93.3,32.1L492.1,558L366,514.5L457.6,411z M723,502.4
					c6.2,2.1,10.3,5.5,12.3,10c1.9,4.3,1,8.7-2.7,12.8l-29,32.7c-3.7,4.1-9.1,7-16,8.3c-4.2,0.8-11.6,0.5-18.6-1.7l-8.3,27.1
					l14.8,5.1L659,615.4l-17.9-6.2c-11.8-4.1-16.9-10-14.6-17.8l10.5-37l-42-14.5l-36.2,40.9l-32.6-11.2l91.6-103.6L723,502.4z
					 M697.6,517.5l-63.4-21.8l-22.9,25.9l63.4,21.8L697.6,517.5z M891.9,560.5c6.2,2.1,10.3,5.5,12.3,10c1.9,4.3,1,8.7-2.7,12.8
					l-29,32.7c-3.7,4.1-9.1,7-16,8.3c-4.2,0.8-11.6,0.5-18.6-1.7l-8.3,27.1l14.8,5.1l-16.6,18.7l-17.9-6.2
					c-11.8-4.1-16.9-10-14.6-17.8l10.5-37l-42-14.5l-36.2,40.9l-32.6-11.2l91.6-103.6L891.9,560.5z M866.6,575.7l-63.4-21.8
					l-22.9,25.9l63.4,21.8L866.6,575.7z M967.6,586.6l94.8,32.6c6.4,2.2,10.5,5.5,12.3,10c1.6,4.6,0.9,8.8-2.7,12.8l-65.1,73.6
					c-3.7,4.1-9.1,7-16,8.3c-7.2,1.4-13.9,1-20.1-1.2l-94.8-32.6c-6.2-2.1-10.3-5.5-12.3-10c-1.9-4.3-1-8.7,2.7-12.8l65.1-73.6
					c3.7-4.1,9.1-7,16-8.3C954.6,584,961.3,584.4,967.6,586.6z M976.3,701.1l59.7-67.5l-74-25.5l-59.7,67.5L976.3,701.1z
					 M1227.1,675.9c6.2,2.1,10.3,5.5,12.3,10c1.9,4.3,1,8.7-2.7,12.8l-29,32.7c-3.7,4.1-9.1,7-16,8.3c-4.2,0.8-11.6,0.5-18.6-1.7
					l-8.3,27.1l14.8,5.1l-16.6,18.7l-17.9-6.2c-11.8-4.1-16.9-10-14.6-17.8l10.5-37l-42-14.5l-36.2,40.9l-32.6-11.2l91.6-103.6
					L1227.1,675.9z M1201.8,691.1l-63.4-21.8l-22.9,25.9l63.4,21.8L1201.8,691.1z"/>
			</g>
		</g>
	</g>
</g>
</svg>
