<svg id="expandAll" xmlns="http://www.w3.org/2000/svg" width="20" height="20" viewBox="0 0 20 20">
  <path id="联合_433" data-name="联合 433" d="M6.275,13.707.158,7.59a.541.541,0,0,1,.766-.766l6.118,6.118a.712.712,0,0,0,1,0l6.117-6.118a.541.541,0,0,1,.766.766L8.807,13.707a1.789,1.789,0,0,1-2.531,0Zm0-6.666L.158.924A.541.541,0,0,1,.924.158L7.042,6.276a.711.711,0,0,0,1,0L14.159.158a.541.541,0,0,1,.766.766L8.807,7.041a1.789,1.789,0,0,1-2.531,0Z" transform="translate(2.458 2.885)" fill="#66f"/>
  <rect id="矩形_17691" data-name="矩形 17691" width="20" height="20" fill="none"/>
</svg>
