<svg id="export" xmlns="http://www.w3.org/2000/svg" width="24" height="24" viewBox="0 0 24 24">
  <path id="联合_330" data-name="联合 330" d="M13216.148,5138.1a2.156,2.156,0,0,1-2.149-2.152v-13.8a2.155,2.155,0,0,1,2.149-2.152h6.8a.651.651,0,0,1,0,1.3h-6.8a.849.849,0,0,0-.848.85v13.8a.848.848,0,0,0,.848.851h13.8a.847.847,0,0,0,.847-.851v-6.8a.651.651,0,1,1,1.3,0v6.8a2.153,2.153,0,0,1-2.148,2.152Zm1.653-4.653a10.663,10.663,0,0,1,10.65-10.65h1.431l-.894-.89a.65.65,0,1,1,.92-.919l2,2a.65.65,0,0,1,0,.917l-2,2a.646.646,0,0,1-.458.189.661.661,0,0,1-.462-.189.654.654,0,0,1,0-.92l.894-.89h-1.431a9.36,9.36,0,0,0-9.352,9.348.649.649,0,1,1-1.3,0Z" transform="translate(-13211.051 -5117.05)" fill="rgba(255,255,255,0.93)"/>
  <rect id="矩形_15451" data-name="矩形 15451" width="24" height="24" fill="none"/>
</svg>
