<svg id="file" xmlns="http://www.w3.org/2000/svg" width="24" height="24" viewBox="0 0 24 24">
  <rect id="矩形_17900" data-name="矩形 17900" width="24" height="24" fill="none"/>
  <path id="联合_435" data-name="联合 435" d="M11511.3,4989.151a2.147,2.147,0,0,1-2.148-2.152v-15.8a2.144,2.144,0,0,1,2.148-2.149h8.5a.667.667,0,0,1,.46.188l5,5a.651.651,0,0,1-.46,1.111h-5a.65.65,0,0,1-.651-.651v-4.351h-7.851a.848.848,0,0,0-.85.851V4987a.848.848,0,0,0,.85.851h12a.85.85,0,0,0,.85-.851v-9.3a.649.649,0,1,1,1.3,0v9.3a2.147,2.147,0,0,1-2.148,2.152Zm9.149-15.1h2.782l-2.782-2.78Zm-7.147,10.7a.649.649,0,1,1,0-1.3h8a.649.649,0,1,1,0,1.3Zm0-3a.649.649,0,1,1,0-1.3h8a.649.649,0,1,1,0,1.3Z" transform="translate(-11505.301 -4967.1)" fill="rgba(255,255,255,0.93)"/>
</svg>
