<svg id="import" xmlns="http://www.w3.org/2000/svg" width="24" height="24" viewBox="0 0 24 24">
  <path id="联合_378" data-name="联合 378" d="M12555.149,5138.1a.651.651,0,0,1,0-1.3h6.8a.849.849,0,0,0,.852-.849v-13.8a.851.851,0,0,0-.852-.848h-13.8a.849.849,0,0,0-.849.848v6.8a.651.651,0,0,1-1.3,0v-6.8a2.153,2.153,0,0,1,2.15-2.15h13.8a2.153,2.153,0,0,1,2.15,2.15v13.8a2.153,2.153,0,0,1-2.15,2.151Zm-9.147-.653a10.661,10.661,0,0,1,10.648-10.648h1.432l-.893-.892a.65.65,0,0,1,.921-.917l2,2a.65.65,0,0,1,0,.92l-2,2a.651.651,0,0,1-.921-.921l.893-.889h-1.432a9.359,9.359,0,0,0-9.35,9.349.649.649,0,0,1-1.3,0Z" transform="translate(-12543.051 -5117.05)" fill="rgba(255,255,255,0.93)"/>
  <rect id="矩形_15601" data-name="矩形 15601" width="24" height="24" fill="none"/>
</svg>
