<?xml version="1.0" encoding="UTF-8"?>
<svg id="SP" xmlns="http://www.w3.org/2000/svg" xmlns:xlink="http://www.w3.org/1999/xlink" viewBox="0 0 24 24">
  <defs>
    <linearGradient id="linear-gradient" x1="6.27" y1="6.26" x2="18.03" y2="6.26" gradientUnits="userSpaceOnUse">
      <stop offset="0" stop-color="#66f"/>
      <stop offset=".17" stop-color="#6464fa"/>
      <stop offset=".34" stop-color="#605fee"/>
      <stop offset=".51" stop-color="#5958d9"/>
      <stop offset=".69" stop-color="#4f4dbc"/>
      <stop offset=".87" stop-color="#433f97"/>
      <stop offset="1" stop-color="#383477"/>
    </linearGradient>
    <linearGradient id="linear-gradient-2" x1="16.02" y1="11.71" x2="21.05" y2="11.71" xlink:href="#linear-gradient"/>
    <linearGradient id="linear-gradient-3" x1="2.95" y1="12.42" x2="21.05" y2="12.42" gradientUnits="userSpaceOnUse">
      <stop offset="0" stop-color="#66f"/>
      <stop offset="1" stop-color="#00ced1"/>
    </linearGradient>
  </defs>
  <path d="M13.01,6.77c-.62-.36-1.39-.36-2.01,0-1.58.91-3.15,1.82-4.73,2.73v-3.48c1.58-.91,3.15-1.82,4.73-2.73.62-.36,1.39-.36,2.01,0,1.51.87,3.02,1.74,4.53,2.61.31.18.5.51.5.87s-.19.69-.5.87c-.5.29-1.01.58-1.51.87-1.01-.58-2.01-1.16-3.02-1.74Z" style="fill: url(#linear-gradient); stroke-width: 0px;"/>
  <path d="M20.55,12.87c.31-.18.5-.51.5-.87s-.19-.69-.5-.87c-.84-.48-1.68-.97-2.51-1.45v.58c0,.36-.19.69-.5.87l-1.51.87c1.01.58,2.01,1.16,3.02,1.74.5-.29,1.01-.58,1.51-.87Z" style="fill: url(#linear-gradient-2); stroke-width: 0px;"/>
  <path d="M17.53,11.13c-1.84,1.06-3.69,2.13-5.53,3.19v-3.48c1.84-1.06,3.69-2.13,5.53-3.19.31-.18.5-.51.5-.87v3.48c0,.36-.19.69-.5.87ZM13.01,20.71c2.51-1.45,5.03-2.9,7.54-4.35.31-.18.5-.51.5-.87v-3.48c0,.36-.19.69-.5.87-2.51,1.45-5.03,2.9-7.54,4.35-.62.36-1.39.36-2.01,0-1.68-.97-3.35-1.94-5.03-2.9V3.87c-.84.48-1.68.97-2.51,1.45-.31.18-.5.51-.5.87v9.29c0,.36.19.69.5.87,2.51,1.45,5.03,2.9,7.54,4.35.62.36,1.39.36,2.01,0Z" style="fill: url(#linear-gradient-3); stroke-width: 0px;"/>
</svg>