<?xml version="1.0" encoding="UTF-8"?>
<svg id="o" xmlns="http://www.w3.org/2000/svg" viewBox="0 0 124 24">
  <g>
    <polygon points="114.12 11.85 121.83 3 117.93 3 112.15 9.64 106.63 3 102.79 3 110.09 11.61 102.04 21 105.93 21 112.07 13.85 118.04 21 121.88 21 114.12 11.85" style="fill: #00ced1; stroke-width: 0px;"/>
    <path d="M32.57,3.59c-.38.38-.59.88-.59,1.41v2h2c.53,0,1.04-.21,1.41-.59s.59-.88.59-1.41v-2h-2c-.53,0-1.04.21-1.41.59Z" style="fill: #00ced1; stroke-width: 0px;"/>
  </g>
  <g>
    <path d="M31.99,15.03c0,1.79-.93,2.83-2.96,2.83h-3.2c-2.08,0-2.99-1.04-2.99-2.83V3h-3.2v12.27c0,3.79,1.97,5.73,5.81,5.73h3.79c3.84,0,5.84-1.95,5.84-5.73v-7.27h-3.09v7.03Z" style="fill: #fff; stroke-width: 0px;"/>
    <path d="M96.23,3v14.24c0,.61-.4,1.01-1.07,1.01-.59,0-.93-.32-1.15-.75-1.75-3.83-3.5-7.66-5.25-11.49-.75-2.05-1.87-3.33-4.37-3.33-2.8,0-4.13,1.57-4.13,3.92v14.4h3.15V6.76c0-.64.37-1.04,1.09-1.04.56,0,.88.24,1.12.77,1.75,3.83,3.5,7.66,5.25,11.49.75,2.05,1.89,3.33,4.4,3.33,2.77,0,4.13-1.57,4.13-3.95V3h-3.17Z" style="fill: #fff; stroke-width: 0px;"/>
    <path d="M67.8,2.68c-1.89,0-3.12.64-3.79,2.32-2.11,5.33-4.21,10.67-6.32,16h3.47c1.9-4.83,3.8-9.65,5.71-14.48.19-.43.48-.61.91-.61s.72.19.88.61c1.82,4.83,3.64,9.65,5.47,14.48h3.49c-2.03-5.33-4.05-10.67-6.08-16-.64-1.68-1.87-2.32-3.73-2.32Z" style="fill: #fff; stroke-width: 0px;"/>
    <path d="M6.15,14.76V3h-3.15v11.79c0,3.6,1.87,6.21,6.64,6.21h7.17v-3.15h-6.99c-2.83,0-3.68-1.36-3.68-3.09Z" style="fill: #fff; stroke-width: 0px;"/>
    <path d="M53.05,11.93c1.68-.67,2.59-1.92,2.59-4,0-2.93-1.79-4.93-6.03-4.93h-7.92c-1.01,0-1.49.48-1.49,1.47v15.07c0,.99.48,1.47,1.49,1.47h8c4.24,0,6.03-2.08,6.03-4.96,0-2.08-.96-3.41-2.67-4.11ZM43.29,6.41c0-.21.13-.32.35-.32h6.08c1.92,0,2.75.93,2.75,2.35s-.91,2.16-2.77,2.16h-6.4v-4.19ZM49.77,17.88h-6.13c-.21,0-.35-.08-.35-.29v-4.37h6.48c1.84,0,2.77.8,2.77,2.32s-.88,2.35-2.77,2.35Z" style="fill: #fff; stroke-width: 0px;"/>
  </g>
</svg>