<svg id="modbus" xmlns="http://www.w3.org/2000/svg" width="24" height="24" viewBox="0 0 24 24">
  <g id="资源_79156" data-name="资源 79156" transform="translate(3.001 1.99)">
    <g id="TF">
      <path id="路径_3969" data-name="路径 3969" d="M16.64,11.44a2.128,2.128,0,0,0-.41-.18,7.093,7.093,0,0,0,.12-1.31,8.2,8.2,0,0,0-.12-1.32,2.088,2.088,0,0,0,.41-.17,2.547,2.547,0,1,0-2.55-4.41,3.32,3.32,0,0,0-.36.26A7.44,7.44,0,0,0,11.46,3a2.119,2.119,0,0,0,.04-.44,2.55,2.55,0,0,0-5.1,0A3.128,3.128,0,0,0,6.44,3,7.241,7.241,0,0,0,4.17,4.31a3.32,3.32,0,0,0-.36-.26h0A2.51,2.51,0,0,0,1.88,3.8,2.545,2.545,0,0,0,.33,4.99,2.51,2.51,0,0,0,.09,6.91,2.545,2.545,0,0,0,1.28,8.46a2.088,2.088,0,0,0,.41.17,7.2,7.2,0,0,0-.12,1.32,8.077,8.077,0,0,0,.12,1.31,3,3,0,0,0-.41.18,2.553,2.553,0,0,0,.61,4.68,2.5,2.5,0,0,0,.66.09,2.6,2.6,0,0,0,1.27-.34,3.32,3.32,0,0,0,.36-.26,7.44,7.44,0,0,0,2.27,1.31,2.119,2.119,0,0,0-.04.44,2.55,2.55,0,0,0,5.1,0,3.128,3.128,0,0,0-.04-.44,7.241,7.241,0,0,0,2.27-1.31,3.32,3.32,0,0,0,.36.26,2.547,2.547,0,0,0,2.55-4.41Zm-8.23.76a.55.55,0,1,1,1.1,0v1.5a.55.55,0,0,1-1.1,0Zm1.1-4.5a.55.55,0,0,1-1.1,0V6.2a.55.55,0,0,1,1.1,0Zm-4.27.1a.553.553,0,0,1,.75-.2l1.3.75a.553.553,0,0,1-.28,1.03.519.519,0,0,1-.27-.07l-1.3-.75a.553.553,0,0,1-.2-.75Zm.47,4.58a.553.553,0,0,1-.28-1.03l1.3-.75a.549.549,0,1,1,.55.95l-1.3.75a.544.544,0,0,1-.27.07Zm6.97-.28a.55.55,0,0,1-.48.28.519.519,0,0,1-.27-.07l-1.3-.75a.549.549,0,1,1,.55-.95l1.3.75a.553.553,0,0,1,.2.75Zm-.2-3.55-1.3.75a.544.544,0,0,1-.27.07.553.553,0,0,1-.28-1.03l1.3-.75a.549.549,0,0,1,.55.95Z" fill="rgba(255,255,255,0.6)"/>
    </g>
    <g id="HF">
      <path id="路径_3970" data-name="路径 3970" d="M8.96,2.55a7.4,7.4,0,1,0,7.4,7.4,7.4,7.4,0,0,0-7.4-7.4Zm-1.67,9-1.3.75a.544.544,0,0,1-.27.07.553.553,0,0,1-.28-1.03l1.3-.75a.549.549,0,1,1,.55.95Zm.2-2.45a.55.55,0,0,1-.48.28.519.519,0,0,1-.27-.07l-1.3-.75a.549.549,0,1,1,.55-.95l1.3.75a.553.553,0,0,1,.2.75Zm2.02,4.6a.55.55,0,0,1-1.1,0V12.2a.55.55,0,1,1,1.1,0Zm0-6a.55.55,0,0,1-1.1,0V6.2a.55.55,0,0,1,1.1,0Zm3.17,4.4a.55.55,0,0,1-.48.28.519.519,0,0,1-.27-.07l-1.3-.75a.549.549,0,1,1,.55-.95l1.3.75a.553.553,0,0,1,.2.75Zm-.2-3.55-1.3.75a.544.544,0,0,1-.27.07.553.553,0,0,1-.28-1.03l1.3-.75a.549.549,0,0,1,.55.95Z" fill="rgba(255,255,255,0.93)"/>
    </g>
  </g>
  <rect id="矩形_18960" data-name="矩形 18960" width="24" height="24" fill="none"/>
</svg>
