<svg id="modbus" xmlns="http://www.w3.org/2000/svg" xmlns:xlink="http://www.w3.org/1999/xlink" width="24" height="24" viewBox="0 0 24 24">
  <defs>
    <linearGradient id="linear-gradient" x1="0.805" y1="0.06" x2="0.251" y2="0.858" gradientUnits="objectBoundingBox">
      <stop offset="0" stop-color="#fff1ae"/>
      <stop offset="1" stop-color="#f49500"/>
    </linearGradient>
  </defs>
  <g id="SP" transform="translate(3 2)">
    <circle id="椭圆_1117" data-name="椭圆 1117" cx="7.4" cy="7.4" r="7.4" transform="translate(1.61 2.6)" fill="url(#linear-gradient)"/>
    <circle id="椭圆_1118" data-name="椭圆 1118" cx="2.6" cy="2.6" r="2.6" transform="translate(6.41 14.8)" fill="#ffcf4a"/>
    <path id="路径_3959" data-name="路径 3959" d="M3.27,11.19a2.562,2.562,0,0,0-1.97.26A2.6,2.6,0,0,0,.09,13.03,2.562,2.562,0,0,0,.35,15a2.6,2.6,0,1,0,2.93-3.81Z" fill="#ffcf4a"/>
    <path id="路径_3960" data-name="路径 3960" d="M3.9,4.05a2.562,2.562,0,0,0-1.97-.26A2.6,2.6,0,0,0,.35,5,2.562,2.562,0,0,0,.09,6.97,2.6,2.6,0,0,0,2.59,8.9a2.648,2.648,0,0,0,.68-.09A2.6,2.6,0,0,0,4.85,7.6a2.562,2.562,0,0,0,.26-1.97A2.6,2.6,0,0,0,3.9,4.05Z" fill="#ffcf4a"/>
    <circle id="椭圆_1119" data-name="椭圆 1119" cx="2.6" cy="2.6" r="2.6" transform="translate(6.41 0)" fill="#ffcf4a"/>
    <path id="路径_3961" data-name="路径 3961" d="M15.42,8.9a2.5,2.5,0,0,0,1.29-.35,2.595,2.595,0,1,0-1.29.35Z" fill="#ffcf4a"/>
    <path id="路径_3962" data-name="路径 3962" d="M16.72,11.45a2.6,2.6,0,1,0-2.6,4.5,2.531,2.531,0,0,0,1.29.35,2.6,2.6,0,0,0,1.31-4.85Z" fill="#ffcf4a"/>
    <g id="_x3C_Radial_Repeat_x3E_">
      <path id="路径_3963" data-name="路径 3963" d="M9.01,14.35a.6.6,0,0,1-.6-.6v-1.5a.6.6,0,0,1,1.2,0v1.5A.6.6,0,0,1,9.01,14.35Z" fill="#03a239"/>
    </g>
    <g id="_x3C_Radial_Repeat_x3E_-2">
      <path id="路径_3964" data-name="路径 3964" d="M5.76,12.48a.6.6,0,0,1-.3-1.12l1.3-.75a.6.6,0,0,1,.6,1.04l-1.3.75A.641.641,0,0,1,5.76,12.48Z" fill="#03a239"/>
    </g>
    <g id="_x3C_Radial_Repeat_x3E_-3">
      <path id="路径_3965" data-name="路径 3965" d="M7.06,9.48a.674.674,0,0,1-.3-.08l-1.3-.75a.6.6,0,1,1,.6-1.04l1.3.75a.6.6,0,0,1-.3,1.12Z" fill="#03a239"/>
    </g>
    <g id="_x3C_Radial_Repeat_x3E_-4">
      <path id="路径_3966" data-name="路径 3966" d="M9.01,8.35a.6.6,0,0,1-.6-.6V6.25a.6.6,0,0,1,1.2,0v1.5A.6.6,0,0,1,9.01,8.35Z" fill="#03a239"/>
    </g>
    <g id="_x3C_Radial_Repeat_x3E_-5">
      <path id="路径_3967" data-name="路径 3967" d="M10.96,9.48a.6.6,0,0,1-.3-1.12l1.3-.75a.6.6,0,1,1,.6,1.04l-1.3.75A.641.641,0,0,1,10.96,9.48Z" fill="#03a239"/>
    </g>
    <g id="_x3C_Radial_Repeat_x3E_-6">
      <path id="路径_3968" data-name="路径 3968" d="M12.26,12.47a.674.674,0,0,1-.3-.08l-1.3-.75a.6.6,0,1,1,.6-1.04l1.3.75a.6.6,0,0,1-.3,1.12Z" fill="#03a239"/>
    </g>
  </g>
  <rect id="矩形_18960" data-name="矩形 18960" width="24" height="24" fill="none"/>
</svg>
