<svg xmlns="http://www.w3.org/2000/svg" width="112" height="112" viewBox="0 0 112 112">
  <g id="picture" opacity="0.1">
    <g id="组_4476" data-name="组 4476" transform="translate(9.567 20.767)">
      <path id="路径_3026" data-name="路径 3026" d="M50.464,9.878,5.328,55.014h68A9.58,9.58,0,0,0,82.9,45.447V42.307Z" transform="translate(9.969 15.453)" fill="rgba(255,255,255,0.6)"/>
      <path id="路径_3027" data-name="路径 3027" d="M85.35,4.45H11.617A9.58,9.58,0,0,0,2.05,14.017V65.35a9.554,9.554,0,0,0,8.181,9.427L60.668,24.335a2.57,2.57,0,0,1,3.631,0L94.917,54.957V14.017A9.58,9.58,0,0,0,85.35,4.45m-60.2,30.8a9.567,9.567,0,1,1,9.567-9.567A9.577,9.577,0,0,1,25.15,35.25" transform="translate(-2.05 -4.45)" fill="rgba(255,255,255,0.93)"/>
    </g>
    <rect id="矩形_15386" data-name="矩形 15386" width="112" height="112" fill="none"/>
  </g>
</svg>
