<svg id="restart" xmlns="http://www.w3.org/2000/svg" width="24" height="24" viewBox="0 0 24 24">
  <path id="路径_3346" data-name="路径 3346" d="M20.2,6.2l1.118.137a.65.65,0,1,0,.158-1.29l-2.748-.337A.648.648,0,0,0,18,5.274l-.342,2.789a.651.651,0,0,0,.566.724.747.747,0,0,0,.08.005.651.651,0,0,0,.645-.571l.16-1.308A8.744,8.744,0,1,1,12,3.25a8.785,8.785,0,0,1,2.262.306A.65.65,0,0,0,14.6,2.3,10.045,10.045,0,1,0,22.051,12,9.967,9.967,0,0,0,20.2,6.2" fill="rgba(255,255,255,0.93)"/>
  <rect id="矩形_15606" data-name="矩形 15606" width="24" height="24" fill="none"/>
</svg>
