<?xml version="1.0" encoding="UTF-8"?>
<svg width="22px" height="22px" viewBox="0 0 22 22" version="1.1" xmlns="http://www.w3.org/2000/svg" xmlns:xlink="http://www.w3.org/1999/xlink">
    <title>Combined Shape 2</title>
    <g id="Symbols" stroke="none" stroke-width="1" fill="none" fill-rule="evenodd">
        <g id="sun/l" transform="translate(-1, -1)" fill="#FFFFFF">
            <path d="M12,20.35 C12.36,20.35 12.65,20.64 12.65,21 L12.65,21.4 C12.65,21.76 12.36,22.05 12,22.05 C11.65,22.03 11.35,21.76 11.35,21.4 L11.35,21 C11.35,20.64 11.64,20.35 12,20.35 Z M7.82,19.22 C8.13,19.4 8.24,19.8 8.06,20.11 L7.86,20.46 C7.74,20.67 7.52,20.78 7.3,20.78 L7.3,20.79 C7.19,20.79 7.08,20.76 6.97,20.7 C6.66,20.52 6.55,20.12 6.73,19.81 L6.93,19.46 C7.11,19.15 7.51,19.04 7.82,19.22 Z M17.07,19.46 L17.27,19.81 C17.45,20.12 17.34,20.52 17.03,20.7 C16.93,20.76 16.82,20.79 16.71,20.79 L16.7,20.79 C16.47,20.79 16.26,20.67 16.14,20.46 L15.94,20.11 C15.76,19.8 15.87,19.4 16.18,19.22 C16.49,19.04 16.89,19.15 17.07,19.46 Z M12,5.35 C15.67,5.35 18.65,8.33 18.65,12 C18.65,13.16 18.34,14.31 17.75,15.32 C17.57,15.63 17.17,15.74 16.86,15.56 C16.55,15.38 16.44,14.98 16.62,14.67 C17.09,13.85 17.34,12.93 17.34,12 C17.34,9.05 14.94,6.65 11.99,6.65 C9.04,6.65 6.64,9.05 6.64,12 C6.64,14.95 9.04,17.35 11.99,17.35 C12.92,17.35 13.85,17.1 14.66,16.63 C14.97,16.45 15.37,16.56 15.55,16.87 C15.73,17.18 15.62,17.58 15.31,17.76 C14.3918182,18.2872727 13.3579339,18.591405 12.306018,18.6423441 L11.994,18.6490901 L11.7667038,18.645975 C8.20454052,18.5228791 5.35,15.5919149 5.35,12 C5.35,8.33 8.33,5.35 12,5.35 Z M4.78,16.17 C4.96,16.48 4.85,16.88 4.54,17.06 L4.19,17.26 C4.09,17.32 3.98,17.35 3.87,17.35 L3.86,17.35 C3.63,17.35 3.42,17.23 3.3,17.02 C3.12,16.71 3.23,16.31 3.54,16.13 L3.89,15.93 C4.2,15.75 4.6,15.86 4.78,16.17 Z M20.11,15.93 L20.46,16.13 C20.77,16.31 20.88,16.71 20.7,17.02 C20.58,17.23 20.36,17.34 20.14,17.34 L20.14,17.35 C20.03,17.35 19.92,17.32 19.81,17.26 L19.46,17.06 C19.15,16.88 19.04,16.48 19.22,16.17 C19.4,15.86 19.8,15.75 20.11,15.93 Z M3,11.35 C3.36,11.35 3.65,11.64 3.65,12 C3.65,12.36 3.36,12.65 3,12.65 L2.6,12.65 C2.24,12.65 1.95,12.36 1.95,12 C1.95,11.64 2.24,11.35 2.6,11.35 L3,11.35 Z M21.4,11.35 C21.76,11.35 22.05,11.64 22.05,12 C22.05,12.36 21.76,12.65 21.4,12.65 L21,12.65 C20.64,12.65 20.35,12.36 20.35,12 C20.35,11.64 20.64,11.35 21,11.35 L21.4,11.35 Z M4.19,6.73 L4.53,6.93 C4.84,7.11 4.95,7.51 4.77,7.82 C4.65,8.03 4.43,8.14 4.21,8.14 L4.21,8.15 C4.1,8.15 3.99,8.12 3.88,8.06 L3.54,7.86 C3.23,7.68 3.12,7.28 3.3,6.97 C3.48,6.66 3.88,6.55 4.19,6.73 Z M20.72,6.97 C20.9,7.28 20.79,7.68 20.48,7.86 L20.13,8.06 C20.03,8.12 19.92,8.15 19.81,8.15 L19.8,8.15 C19.57,8.15 19.36,8.03 19.24,7.82 C19.06,7.51 19.17,7.11 19.48,6.93 L19.83,6.73 C20.14,6.55 20.54,6.66 20.72,6.97 Z M17.03,3.3 C17.34,3.48 17.45,3.88 17.26,4.19 L17.06,4.54 C16.94,4.75 16.72,4.86 16.5,4.86 C16.39,4.86 16.28,4.83 16.17,4.77 C15.86,4.59 15.75,4.19 15.94,3.88 L16.14,3.53 C16.32,3.22 16.72,3.11 17.03,3.3 Z M7.87,3.52 L8.07,3.87 C8.25,4.18 8.14,4.58 7.83,4.76 C7.73,4.82 7.62,4.85 7.51,4.85 L7.5,4.85 C7.27,4.85 7.06,4.73 6.94,4.52 L6.74,4.17 C6.56,3.86 6.67,3.46 6.98,3.28 C7.29,3.1 7.69,3.21 7.87,3.52 Z M12.65,2.6 L12.65,3 C12.65,3.36 12.36,3.65 12,3.65 C11.65,3.7 11.35,3.36 11.35,3 L11.35,2.6 C11.35,2.24 11.64,1.95 12,1.95 C12.36,1.9 12.65,2.24 12.65,2.6 Z" id="Combined-Shape"></path>
        </g>
    </g>
</svg>