<?xml version="1.0" encoding="UTF-8"?>
<svg width="24px" height="24px" viewBox="0 0 24 24" version="1.1" xmlns="http://www.w3.org/2000/svg" xmlns:xlink="http://www.w3.org/1999/xlink">
    <title>fan2/dl</title>
    <g id="fan2/dl" stroke="none" stroke-width="1" fill="none" fill-rule="evenodd">
        <path d="M12.25,12.25 C12.11,12.39 11.89,12.39 11.75,12.25 C11.61,12.11 11.61,11.89 11.75,11.75 C11.82,11.68 11.91,11.65 12,11.65 C12.09,11.65 12.18,11.68 12.25,11.75 C12.39,11.89 12.39,12.11 12.25,12.25 L12.25,12.25 Z M10.83,10.83 C10.19,11.47 10.19,12.52 10.83,13.16 C11.15,13.48 11.57,13.64 12,13.64 C12.43,13.64 12.85,13.48 13.17,13.16 C13.81,12.52 13.81,11.47 13.17,10.83 C12.53,10.19 11.48,10.19 10.84,10.83 L10.83,10.83 Z" id="Fill-1" fill="#6666FF"></path>
        <path d="M10.46,13.78 L10.5038823,13.8238823 C10.6057099,13.9257099 10.8768852,14.1968852 11.2343564,14.5543564 L13.5340741,16.8540741 C13.7576431,17.0776431 13.9608877,17.2808877 14.1290264,17.4490264 L14.61,17.93 C14.99,18.3 15.16,18.84 15.08,19.37 C15,19.88 14.68,20.32 14.22,20.55 C13.54,20.89 12.81,21.06 12.08,21.06 C10.85,21.06 9.63,20.58 8.72,19.67 C7.27,18.21 6.91,16 7.84,14.17 C8.07,13.71 8.5,13.39 9.02,13.31 C9.54,13.23 10.08,13.4 10.46,13.78 Z M9.28,14.61 L9.22,14.61 C9.16,14.62 9.05,14.65 8.99,14.77 C8.32,16.1 8.57,17.7 9.63,18.76 C10.68,19.81 12.29,20.07 13.62,19.4 L13.63,19.42 C13.75,19.36 13.79,19.25 13.79,19.19 C13.81,19.07 13.77,18.95 13.69,18.87 L9.54,14.72 C9.47,14.65 9.38,14.61 9.28,14.61 Z M17.94,9.4 C18.31,9.02 18.85,8.84 19.38,8.93 C19.89,9.01 20.33,9.33 20.56,9.79 C21.49,11.63 21.13,13.84 19.68,15.29 C18.76,16.2 17.55,16.68 16.32,16.68 C15.59,16.68 14.86,16.51 14.18,16.17 C13.72,15.94 13.4,15.51 13.32,14.99 C13.24,14.47 13.41,13.93 13.79,13.55 Z M19.17,10.2 L19.11,10.2 C19.01,10.2 18.92,10.24 18.85,10.31 L14.7,14.46 C14.62,14.54 14.58,14.66 14.6,14.78 C14.61,14.84 14.64,14.95 14.76,15.01 C16.09,15.68 17.69,15.43 18.75,14.37 L18.76,14.35 C19.81,13.3 20.07,11.69 19.4,10.36 C19.34,10.24 19.23,10.2 19.17,10.2 Z M9.83,7.83 C10.29,8.06 10.61,8.49 10.69,9.01 C10.77,9.53 10.6,10.07 10.22,10.45 L6.07,14.6 C5.76,14.92 5.33,15.09 4.89,15.09 C4.81,15.09 4.72,15.08 4.63,15.07 C4.12,14.99 3.68,14.67 3.45,14.21 C2.52,12.37 2.87,10.16 4.33,8.71 C5.79,7.26 8,6.9 9.83,7.83 Z M7.68,8.63 C6.79,8.63 5.9,8.98 5.24,9.64 C4.19,10.69 3.93,12.3 4.6,13.63 C4.66,13.75 4.77,13.79 4.83,13.79 C4.95,13.81 5.07,13.77 5.15,13.69 L9.29,9.55 C9.37,9.47 9.41,9.35 9.39,9.23 C9.38,9.17 9.35,9.06 9.23,9 C8.74,8.75 8.21,8.63 7.68,8.63 Z M15.28,4.33 C16.73,5.79 17.09,8 16.16,9.83 C15.93,10.29 15.5,10.61 14.98,10.69 C14.9,10.71 14.81,10.71 14.72,10.71 C14.28,10.71 13.85,10.53 13.54,10.22 L13.0590264,9.73902635 C12.8908877,9.57088766 12.6876431,9.3676431 12.4640741,9.14407407 L10.302291,6.98229095 C9.92454348,6.60454348 9.62271047,6.30271047 9.47984365,6.15984365 L9.39,6.07 C9.01,5.7 8.84,5.16 8.92,4.63 C9,4.12 9.32,3.68 9.78,3.45 C11.62,2.52 13.83,2.88 15.28,4.33 Z M11.93,4.23 C11.41,4.23 10.87,4.35 10.38,4.6 L10.37,4.59 C10.25,4.65 10.21,4.76 10.21,4.82 C10.19,4.94 10.23,5.06 10.31,5.14 L14.46,9.29 C14.54,9.37 14.66,9.41 14.78,9.39 C14.84,9.38 14.95,9.35 15.01,9.23 C15.68,7.9 15.43,6.3 14.37,5.24 C13.71,4.58 12.82,4.23 11.93,4.23 Z" id="Combined-Shape" fill="#FFFFFF"></path>
    </g>
</svg>