<?xml version="1.0" encoding="UTF-8"?>
<svg width="20px" height="22px" viewBox="0 0 20 22" version="1.1" xmlns="http://www.w3.org/2000/svg" xmlns:xlink="http://www.w3.org/1999/xlink">
    <title>Combined Shape 3</title>
    <g id="Symbols" stroke="none" stroke-width="1" fill="none" fill-rule="evenodd">
        <g id="snow/l" transform="translate(-2, -1)" fill="#FFFFFF">
            <path d="M11.99,1.95 C12.35,1.95 12.64,2.24 12.64,2.6 L12.64,4.35 L14.4,2.59 C14.65,2.34 15.07,2.34 15.32,2.59 C15.57,2.84 15.57,3.26 15.32,3.51 L12.64,6.19 L12.6394968,10.869 L16.71,8.52 L17.69,4.85 C17.79,4.5 18.15,4.3 18.49,4.39 C18.84,4.49 19.04,4.84 18.95,5.19 L18.3,7.6 L19.82,6.72 C20.13,6.54 20.53,6.65 20.71,6.96 C20.89,7.27 20.78,7.67 20.47,7.85 L18.95,8.73 L21.36,9.38 L21.38,9.38 C21.73,9.48 21.93,9.83 21.84,10.18 C21.76,10.47 21.5,10.66 21.21,10.66 C21.15,10.66 21.1,10.66 21.04,10.64 L17.37,9.66 L13.3064968,12.005 L17.35,14.34 L21.02,13.36 C21.36,13.27 21.73,13.47 21.82,13.82 L21.78,13.82 C21.87,14.17 21.67,14.53 21.32,14.62 L18.91,15.27 L20.43,16.15 C20.74,16.33 20.85,16.73 20.67,17.04 C20.55,17.24 20.33,17.36 20.11,17.36 C20,17.36 19.89,17.33 19.79,17.27 L18.27,16.39 L18.92,18.8 C19.01,19.15 18.81,19.51 18.46,19.6 C18.4,19.62 18.35,19.62 18.29,19.62 C18,19.62 17.74,19.43 17.66,19.14 L16.68,15.47 L12.6594968,13.148 L12.66,17.81 L15.34,20.49 C15.59,20.74 15.59,21.16 15.34,21.41 C15.21,21.54 15.05,21.6 14.88,21.6 C14.71,21.6 14.55,21.54 14.42,21.41 L12.66,19.65 L12.66,21.4 C12.66,21.76 12.37,22.05 12.01,22.05 C11.65,22.05 11.36,21.76 11.36,21.4 L11.36,19.65 L9.6,21.41 C9.35,21.66 8.93,21.66 8.68,21.41 C8.43,21.16 8.43,20.74 8.68,20.49 L11.36,17.81 L11.3594968,13.102 L7.26,15.47 L6.28,19.14 C6.2,19.43 5.94,19.62 5.65,19.62 C5.59,19.62 5.54,19.62 5.48,19.6 C5.13,19.5 4.93,19.15 5.02,18.8 L5.67,16.39 L4.15,17.27 C4.05,17.33 3.94,17.36 3.83,17.36 C3.61,17.36 3.39,17.25 3.27,17.04 C3.09,16.73 3.2,16.33 3.51,16.15 L5.03,15.27 L2.62,14.62 C2.27,14.52 2.07,14.17 2.16,13.82 C2.26,13.47 2.62,13.27 2.96,13.36 L6.63,14.34 L10.6924968,11.994 L6.65,9.66 L2.98,10.64 C2.92,10.66 2.87,10.66 2.81,10.66 C2.52,10.66 2.26,10.47 2.18,10.18 C2.09,9.83 2.29,9.47 2.64,9.38 L5.05,8.73 L3.53,7.85 C3.22,7.67 3.11,7.27 3.29,6.96 C3.47,6.65 3.87,6.54 4.18,6.72 L5.7,7.6 L5.05,5.19 C4.96,4.84 5.16,4.48 5.51,4.39 C5.86,4.3 6.22,4.5 6.31,4.85 L7.29,8.52 L11.3394968,10.858 L11.34,6.19 L8.66,3.51 C8.41,3.26 8.41,2.84 8.66,2.59 C8.91,2.34 9.33,2.34 9.58,2.59 L11.34,4.35 L11.34,2.6 C11.34,2.24 11.63,1.95 11.99,1.95 Z" id="Combined-Shape"></path>
        </g>
    </g>
</svg>