<?xml version="1.0" encoding="UTF-8"?>
<svg width="24px" height="24px" viewBox="0 0 24 24" version="1.1" xmlns="http://www.w3.org/2000/svg" xmlns:xlink="http://www.w3.org/1999/xlink">
    <title>refresh/dl</title>
    <g id="refresh/dl" stroke="none" stroke-width="1" fill="none" fill-rule="evenodd">
        <path d="M20.2,6.2 L21.32,6.34 C21.67,6.39 22,6.13 22.04,5.77 C22.08,5.41 21.83,5.09 21.47,5.05 L18.72,4.71 C18.55,4.69 18.38,4.74 18.24,4.84 C18.1,4.95 18.02,5.1 17.99,5.27 L17.65,8.06 C17.61,8.42 17.86,8.74 18.22,8.78 L18.3,8.78 C18.62,8.78 18.9,8.54 18.94,8.21 L19.1,6.9 C20.16,8.38 20.74,10.13 20.74,11.99 C20.74,16.81 16.82,20.74 11.99,20.74 C11.22,20.74 10.46,20.64 9.72,20.44 C9.37,20.35 9.02,20.55 8.92,20.9 C8.83,21.25 9.03,21.6 9.38,21.7 C10.22,21.93 11.1,22.04 11.98,22.04 C17.52,22.04 22.03,17.53 22.03,11.99 C22.03,9.88 21.38,7.87 20.18,6.19 L20.2,6.2 Z" id="Fill-1" fill="#FFFFFF"></path>
        <path d="M5.77,15.21 C5.41,15.17 5.09,15.42 5.05,15.78 L4.89,17.09 C3.83,15.61 3.25,13.86 3.25,12 C3.25,7.18 7.17,3.25 12,3.25 C12.77,3.25 13.53,3.35 14.27,3.55 C14.62,3.64 14.97,3.44 15.07,3.09 C15.16,2.74 14.96,2.39 14.61,2.29 C13.77,2.06 12.89,1.95 12.01,1.95 C6.46,1.95 1.95,6.46 1.95,12 C1.95,14.11 2.6,16.12 3.8,17.8 L2.68,17.66 C2.33,17.62 2,17.87 1.96,18.23 C1.92,18.59 2.17,18.91 2.53,18.95 L5.28,19.29 L5.36,19.29 C5.5,19.29 5.65,19.24 5.76,19.15 C5.9,19.04 5.98,18.89 6.01,18.72 L6.35,15.93 C6.39,15.57 6.14,15.25 5.78,15.21 L5.77,15.21 Z" id="Fill-3" fill="#6666FF"></path>
    </g>
</svg>