<?xml version="1.0" encoding="UTF-8"?>
<svg width="24px" height="24px" viewBox="0 0 24 24" version="1.1" xmlns="http://www.w3.org/2000/svg" xmlns:xlink="http://www.w3.org/1999/xlink">
    <title>snow/dl</title>
    <g id="snow/dl" stroke="none" stroke-width="1" fill="none" fill-rule="evenodd">
        <path d="M21.36,9.38 L18.95,8.73 L20.47,7.85 C20.78,7.67 20.89,7.27 20.71,6.96 C20.53,6.65 20.13,6.54 19.82,6.72 L18.3,7.6 L18.95,5.19 C19.04,4.84 18.84,4.49 18.49,4.39 C18.15,4.3 17.79,4.5 17.69,4.85 L16.71,8.52 L12,11.24 L7.29,8.52 L6.31,4.85 C6.22,4.5 5.86,4.3 5.51,4.39 C5.16,4.48 4.96,4.84 5.05,5.19 L5.7,7.6 L4.18,6.72 C3.87,6.54 3.47,6.65 3.29,6.96 C3.11,7.27 3.22,7.67 3.53,7.85 L5.05,8.73 L2.64,9.38 C2.29,9.47 2.09,9.83 2.18,10.18 C2.26,10.47 2.52,10.66 2.81,10.66 C2.87,10.66 2.92,10.66 2.98,10.64 L6.65,9.66 L11.36,12.38 L11.36,17.81 L8.68,20.49 C8.43,20.74 8.43,21.16 8.68,21.41 C8.93,21.66 9.35,21.66 9.6,21.41 L11.36,19.65 L11.36,21.4 C11.36,21.76 11.65,22.05 12.01,22.05 C12.37,22.05 12.66,21.76 12.66,21.4 L12.66,19.65 L14.42,21.41 C14.55,21.54 14.71,21.6 14.88,21.6 C15.05,21.6 15.21,21.54 15.34,21.41 C15.59,21.16 15.59,20.74 15.34,20.49 L12.66,17.81 L12.66,12.38 L17.37,9.66 L21.04,10.64 C21.1,10.66 21.15,10.66 21.21,10.66 C21.5,10.66 21.76,10.47 21.84,10.18 C21.93,9.83 21.73,9.48 21.38,9.38 L21.36,9.38 Z" id="Fill-1" fill="#FFFFFF"></path>
        <path d="M21.82,13.82 C21.73,13.47 21.36,13.27 21.02,13.36 L17.35,14.34 L12.64,11.62 L12.64,6.19 L15.32,3.51 C15.57,3.26 15.57,2.84 15.32,2.59 C15.07,2.34 14.65,2.34 14.4,2.59 L12.64,4.35 L12.64,2.6 C12.64,2.24 12.35,1.95 11.99,1.95 C11.63,1.95 11.34,2.24 11.34,2.6 L11.34,4.35 L9.58,2.59 C9.33,2.34 8.91,2.34 8.66,2.59 C8.41,2.84 8.41,3.26 8.66,3.51 L11.34,6.19 L11.34,11.62 L6.63,14.34 L2.96,13.36 C2.62,13.27 2.26,13.47 2.16,13.82 C2.07,14.17 2.27,14.52 2.62,14.62 L5.03,15.27 L3.51,16.15 C3.2,16.33 3.09,16.73 3.27,17.04 C3.39,17.25 3.61,17.36 3.83,17.36 C3.94,17.36 4.05,17.33 4.15,17.27 L5.67,16.39 L5.02,18.8 C4.93,19.15 5.13,19.5 5.48,19.6 C5.54,19.62 5.59,19.62 5.65,19.62 C5.94,19.62 6.2,19.43 6.28,19.14 L7.26,15.47 L11.97,12.75 L16.68,15.47 L17.66,19.14 C17.74,19.43 18,19.62 18.29,19.62 C18.35,19.62 18.4,19.62 18.46,19.6 C18.81,19.51 19.01,19.15 18.92,18.8 L18.27,16.39 L19.79,17.27 C19.89,17.33 20,17.36 20.11,17.36 C20.33,17.36 20.55,17.24 20.67,17.04 C20.85,16.73 20.74,16.33 20.43,16.15 L18.91,15.27 L21.32,14.62 C21.67,14.53 21.87,14.17 21.78,13.82 L21.82,13.82 Z" id="Fill-3" fill="#6666FF"></path>
    </g>
</svg>