<?xml version="1.0" encoding="UTF-8"?>
<svg width="22px" height="22px" viewBox="0 0 22 22" version="1.1" xmlns="http://www.w3.org/2000/svg" xmlns:xlink="http://www.w3.org/1999/xlink">
    <title>Combined Shape</title>
    <g id="Symbols" stroke="none" stroke-width="1" fill="none" fill-rule="evenodd">
        <g id="refresh/l" transform="translate(-1, -1)" fill="#FFFFFF">
            <path d="M18.61824,4.70624 L18.72,4.71 L21.47,5.05 C21.83,5.09 22.08,5.41 22.04,5.77 C22,6.13 21.67,6.39 21.32,6.34 L20.2,6.2 L20.18,6.19 C21.38,7.87 22.03,9.88 22.03,11.99 C22.03,17.53 17.52,22.04 11.98,22.04 C11.1,22.04 10.22,21.93 9.38,21.7 C9.03,21.6 8.83,21.25 8.92,20.9 C9.02,20.55 9.37,20.35 9.72,20.44 C10.46,20.64 11.22,20.74 11.99,20.74 C16.82,20.74 20.74,16.81 20.74,11.99 C20.74,10.13 20.16,8.38 19.1,6.9 L18.94,8.21 C18.9,8.54 18.62,8.78 18.3,8.78 L18.22,8.78 C17.86,8.74 17.61,8.42 17.65,8.06 L17.99,5.27 C18.02,5.1 18.1,4.95 18.24,4.84 C18.38,4.74 18.55,4.69 18.72,4.71 Z M12.01,1.95 C12.89,1.95 13.77,2.06 14.61,2.29 C14.96,2.39 15.16,2.74 15.07,3.09 C14.97,3.44 14.62,3.64 14.27,3.55 C13.53,3.35 12.77,3.25 12,3.25 C7.17,3.25 3.25,7.18 3.25,12 C3.25,13.86 3.83,15.61 4.89,17.09 L5.05,15.78 C5.09,15.42 5.41,15.17 5.77,15.21 L5.78,15.21 C6.14,15.25 6.39,15.57 6.35,15.93 L6.01,18.72 C5.98,18.89 5.9,19.04 5.76,19.15 C5.65,19.24 5.5,19.29 5.36,19.29 L5.28,19.29 L2.53,18.95 C2.17,18.91 1.92,18.59 1.96,18.23 C2,17.87 2.33,17.62 2.68,17.66 L3.8,17.8 C2.6,16.12 1.95,14.11 1.95,12 C1.95,6.46 6.46,1.95 12.01,1.95 Z" id="Combined-Shape"></path>
        </g>
    </g>
</svg>