<svg id="Visualization" xmlns="http://www.w3.org/2000/svg" width="24" height="24" viewBox="0 0 24 24">
  <rect id="矩形_18980" data-name="矩形 18980" width="24" height="24" fill="none"/>
  <g id="资源_92128" data-name="资源 92128" transform="translate(1.9 2.95)">
    <g id="HF">
      <path id="路径_4429" data-name="路径 4429" d="M16.59,9.44h0a.555.555,0,0,1-.78,0L13.99,7.62,12.17,9.44a.552.552,0,0,1-.39.16.762.762,0,0,1-.47-.16L7.7,5.83,4.09,9.44a.562.562,0,0,1-.78,0h0L.1,12.65A2.043,2.043,0,0,0,2.05,14.1h15.8a2.043,2.043,0,0,0,1.95-1.45Z" fill="rgba(255,255,255,0.6)"/>
    </g>
    <g id="FF">
      <path id="路径_4430" data-name="路径 4430" d="M15.7,16.8H4.2a.55.55,0,1,0,0,1.1H15.7a.55.55,0,1,0,0-1.1Z" fill="rgba(255,255,255,0.93)"/>
      <path id="路径_4431" data-name="路径 4431" d="M3.31,9.44a.562.562,0,0,1,0-.78l4-4a.562.562,0,0,1,.78,0l3.65,3.65L13.6,6.45a.562.562,0,0,1,.78,0l2.21,2.21a.562.562,0,0,1,0,.78l3.21,3.21a1.974,1.974,0,0,0,.1-.59V2.05A2.053,2.053,0,0,0,17.85,0H2.05A2.053,2.053,0,0,0,0,2.05v10a1.986,1.986,0,0,0,.1.6L3.31,9.44Z" fill="rgba(255,255,255,0.93)"/>
    </g>
  </g>
</svg>
