<?xml version="1.0" encoding="UTF-8"?><svg id="_图层_2" xmlns="http://www.w3.org/2000/svg" xmlns:xlink="http://www.w3.org/1999/xlink" viewBox="0 0 20 18"><defs><style>.cls-1{fill:url(#_未命名的渐变_4);}.cls-2{fill:url(#_未命名的渐变_14);}.cls-3{fill:url(#_未命名的渐变_12);}</style><linearGradient id="_未命名的渐变_14" x1="20.77" y1="7.14" x2="-.12" y2="7.07" gradientUnits="userSpaceOnUse"><stop offset="0" stop-color="#62c2e8"/><stop offset="1" stop-color="#346baa"/></linearGradient><linearGradient id="_未命名的渐变_4" x1="19.35" y1="17.43" x2="1.16" y2="17.37" gradientUnits="userSpaceOnUse"><stop offset="0" stop-color="#43a3d4"/><stop offset="1" stop-color="#346baa"/></linearGradient><linearGradient id="_未命名的渐变_12" x1="16.66" y1="7.08" x2="2.96" y2="7.15" gradientUnits="userSpaceOnUse"><stop offset="0" stop-color="#f4f4ab"/><stop offset="1" stop-color="#64b064"/></linearGradient></defs><g id="SP"><rect class="cls-2" width="20" height="14.2" rx="2.1" ry="2.1"/><path class="cls-1" d="M15.88,18H4.12c-.29,0-.52-.27-.52-.6s.23-.6.52-.6h11.75c.29,0,.52.27.52.6s-.23.6-.52.6Z"/><path class="cls-3" d="M16.25,9.7c-.15,0-.31-.06-.42-.18l-1.78-1.78-1.78,1.78c-.11.11-.27.18-.42.18s-.39-.06-.51-.18l-3.58-3.58-3.58,3.58c-.23.23-.61.23-.85,0s-.23-.61,0-.85l4-4c.23-.23.61-.23.85,0l3.62,3.62,1.83-1.83c.23-.23.61-.23.85,0l2.21,2.21c.23.23.23.61,0,.85-.12.12-.27.18-.42.18Z"/></g></svg>