<?xml version="1.0" encoding="UTF-8"?>
<svg id="SP" xmlns="http://www.w3.org/2000/svg" xmlns:xlink="http://www.w3.org/1999/xlink" viewBox="0 0 24 24">
  <defs>
    <filter id="X_Shadow_3" x="-200%" y="-200%" width="400%" height="400%">
      <feDropShadow dx="-0.75" dy="0.75" flood-color="black" flood-opacity="0.3" stdDeviation="0.75"/>
    </filter>
    <linearGradient id="linear-gradient" x1="14.97" y1="4.35" x2="9.03" y2="14.65" gradientUnits="userSpaceOnUse">
      <stop offset="0" stop-color="#eee"/>
      <stop offset="1" stop-color="#ccc"/>
    </linearGradient>
    <linearGradient id="linear-gradient-2" x1="12.92" y1="10.12" x2="15.08" y2="8.88" gradientUnits="userSpaceOnUse">
      <stop offset="0" stop-color="#ff8da0"/>
      <stop offset="1" stop-color="#d54f67"/>
    </linearGradient>
    <linearGradient id="linear-gradient-3" x1="15.8" y1="9.3" x2="7.92" y2="22.95" gradientUnits="userSpaceOnUse">
      <stop offset="0" stop-color="#94ffff"/>
      <stop offset="1" stop-color="#66f"/>
    </linearGradient>
    <linearGradient id="linear-gradient-4" x1="14.93" y1="12.8" x2="8.78" y2="23.45" xlink:href="#linear-gradient-3"/>
  </defs>
  <rect x="3" y="3" width="18" height="18" rx="2.1" ry="2.1" style="fill: #666; stroke-width: 0px;"/>
  <g style="filter: url(#X_Shadow_3);">
    <rect x="5.9" y="5.9" width="12.2" height="7.2" rx=".6" ry=".6" style="fill: url(#linear-gradient); stroke-width: 0px;"/>
  </g>
  <path d="M14.75,10.1h-1.5c-.33,0-.6-.27-.6-.6s.27-.6.6-.6h1.5c.33,0,.6.27.6.6s-.27.6-.6.6Z" style="fill: url(#linear-gradient-2); stroke-width: 0px;"/>
  <path d="M18,12.3c-.54,0-.81-.17-1.18-.41-.42-.26-.93-.59-1.82-.59s-1.41.33-1.82.59c-.37.24-.64.41-1.18.41s-.81-.17-1.18-.41c-.42-.26-.93-.59-1.82-.59s-1.41.33-1.82.59c-.37.24-.64.41-1.18.41h-3v6.6c0,1.16.94,2.1,2.1,2.1h13.8c1.16,0,2.1-.94,2.1-2.1v-6.6h-3Z" style="fill: url(#linear-gradient-3); stroke-width: 0px;"/>
  <path d="M18,16.3c-.54,0-.81-.17-1.18-.41-.42-.26-.93-.59-1.82-.59s-1.41.33-1.82.59c-.37.24-.64.41-1.18.41s-.81-.17-1.18-.41c-.42-.26-.93-.59-1.82-.59s-1.41.33-1.82.59c-.37.24-.64.41-1.18.41h-3v2.6c0,1.16.94,2.1,2.1,2.1h13.8c1.16,0,2.1-.94,2.1-2.1v-2.6h-3Z" style="fill: url(#linear-gradient-4); stroke-width: 0px;"/>
</svg>