<?xml version="1.0" encoding="UTF-8"?>
<svg id="o" xmlns="http://www.w3.org/2000/svg" viewBox="0 0 72 24">
  <path d="M7.11,3.46l4.55,5.48,4.78-5.48h3.21l-6.36,7.31,6.4,7.55h-3.17l-4.93-5.9-5.06,5.9h-3.21l6.65-7.75L3.95,3.46h3.17Z" style="fill: #9457eb;"/>
  <path d="M29.47,3.46c3.34,0,4.78,2.07,4.78,4.44,0,2.24-1.3,4.67-4.78,4.67h-4.62c-.24,0-.37.11-.37.37v5.37h-2.6v-5.88c0-1.67.7-2.35,2.33-2.35h5.35c1.47,0,2.07-1.01,2.07-2.05s-.64-1.98-2.05-1.98h-7.72v-2.6h7.61Z" style="fill: #9457eb;"/>
  <path d="M39.04,1.65v16.66h-2.33V1.65h2.33Z" style="fill: #fff;"/>
  <path d="M49.82,6.69c2.9,0,4.05,1.63,4.05,3.83v5.46c0,1.67-.44,2.33-2.4,2.33h-5.43c-2.75,0-3.89-1.34-3.89-3.54s1.06-3.34,3.92-3.34h5.52v-.88c0-.9-.51-1.61-1.78-1.61h-6.95v-2.24h6.97ZM51.58,15.45v-2.18h-5.48c-1.23,0-1.67.51-1.67,1.36s.46,1.41,1.63,1.41h4.88c.46,0,.64-.18.64-.59Z" style="fill: #fff;"/>
  <path d="M68.67,6.69l-7,16.28h-2.51l2.18-5.08c-1.32,0-1.78-.42-2.18-1.43l-3.89-9.77h2.46l3.5,8.65c.15.42.26.48.7.48h.31l3.94-9.13h2.49Z" style="fill: #fff;"/>
</svg>