<?xml version="1.0" encoding="UTF-8"?>
<svg id="shadow" xmlns="http://www.w3.org/2000/svg" xmlns:xlink="http://www.w3.org/1999/xlink" viewBox="0 0 2483 2192">
  <defs>
    <filter id="AI_GaussianBlur_64" x="-200%" y="-200%" width="400%" height="400%">
      <feGaussianBlur stdDeviation="64"/>
    </filter>
  </defs>
  <g style="filter: url(#AI_GaussianBlur_64); opacity: .27;">
    <polygon points="1948.75 2003.88 2066.94 1972.21 1943.94 1850.49 2062.12 1818.82 1754.62 1514.53 1872.81 1482.87 1811.31 1422.01 1631.62 1392.82 1324.12 1088.53 1442.31 1056.86 1380.81 996 1201.12 966.81 955.12 723.38 775.44 694.2 713.94 633.34 534.25 604.15 416.06 635.82 539.06 757.53 420.88 789.2 728.38 1093.49 610.19 1125.16 671.69 1186.02 851.38 1215.21 1158.88 1519.49 1040.69 1551.16 1102.19 1612.02 1281.88 1641.21 1527.88 1884.64 1707.56 1913.83 1769.06 1974.69 1948.75 2003.88" style="fill-rule: evenodd;"/>
  </g>
</svg>