<?xml version="1.0" encoding="UTF-8"?>
<svg id="Layer_1" xmlns="http://www.w3.org/2000/svg" version="1.1" viewBox="0 0 150 120">
  <!-- Generator: Adobe Illustrator 29.4.0, SVG Export Plug-In . SVG Version: 2.1.0 Build 152)  -->
  <defs>
    <style>
      .st0 {
          fill: #fff;
        fill-opacity: .27;
      }

      .st3 {
        fill: #66f;
      }

      .st1 {
        fill: #fff;
        fill-opacity: .53;
      }

      .st2 {
        fill: #888;
        fill-opacity: .53;
      }
    </style>
  </defs>
  <rect id="_矩形" class="st2" x="23.5" y="21.2" width="103" height="77.5" rx="8" ry="8"/>
  <path class="st1" d="M31.5,26.2h26c1.7,0,3,1.3,3,3h0c0,1.7-1.3,3-3,3h-26c-1.7,0-3-1.3-3-3h0c0-1.7,1.3-3,3-3Z"/>
  <path class="st3" d="M31.5,59h36c1.7,0,3,1.3,3,3h0c0,1.7-1.3,3-3,3H31.5c-1.7,0-3-1.3-3-3h0c0-1.7,1.3-3,3-3Z"/>
  <path class="st1" d="M82.5,59h36c1.7,0,3,1.3,3,3h0c0,1.7-1.3,3-3,3h-36c-1.7,0-3-1.3-3-3h0c0-1.7,1.3-3,3-3Z"/>
  <path class="st0" d="M39.5,72h20c1.1,0,2,.9,2,2h0c0,1.1-.9,2-2,2h-20c-1.1,0-2-.9-2-2h0c0-1.1.9-2,2-2Z"/>
  <path class="st0" d="M90.5,72h20c1.1,0,2,.9,2,2h0c0,1.1-.9,2-2,2h-20c-1.1,0-2-.9-2-2h0c0-1.1.9-2,2-2Z"/>
</svg>