<?xml version="1.0" encoding="UTF-8"?>
<svg id="Layer_1" xmlns="http://www.w3.org/2000/svg" xmlns:xlink="http://www.w3.org/1999/xlink" version="1.1" viewBox="0 0 168 168">
  <!-- Generator: Adobe Illustrator 29.2.0, SVG Export Plug-In . SVG Version: 2.1.0 Build 108)  -->
  <defs>
    <style>
      .st0 {
        fill: url(#linear-gradient1);
      }

      .st1 {
        fill: #e3e3e3;
      }

      .st2 {
        fill: url(#linear-gradient);
      }

      .st3 {
        fill: #bcbcbc;
      }

      .st4 {
        filter: url(#X_Shadow_3);
      }

      .st5 {
        fill: #3c385c;
      }

      .st6 {
        filter: url(#X_Shadow_31);
      }

      .st7 {
        fill: #4d69b5;
      }
    </style>
    <linearGradient id="linear-gradient" x1="284.1" y1="151.3" x2="284.1" y2="151.5" gradientTransform="translate(-34355.2 -15279.1) scale(121.2 101.4)" gradientUnits="userSpaceOnUse">
      <stop offset="0" stop-color="#3f5591"/>
      <stop offset="1" stop-color="#293c72"/>
    </linearGradient>
    <filter id="X_Shadow_3" x="-200%" y="-200%" width="400%" height="400%">
      <feDropShadow dx="2" dy="3" flood-color="black" flood-opacity="0.3" stdDeviation="3"/>
    </filter>
    <filter id="X_Shadow_31" data-name="X_Shadow_3" x="-200%" y="-200%" width="400%" height="400%">
      <feDropShadow dx="2" dy="3" flood-color="black" flood-opacity="0.3" stdDeviation="3"/>
    </filter>
    <linearGradient id="linear-gradient1" x1="284.2" y1="150.9" x2="284.2" y2="151.9" gradientTransform="translate(-35586 -12301.2) scale(125.5 82)" gradientUnits="userSpaceOnUse">
      <stop offset="0" stop-color="#283b70"/>
      <stop offset="1" stop-color="#334a85"/>
    </linearGradient>
  </defs>
  <path id="_文件夹内侧" class="st2" d="M27.1,156.2h111.2c2.3,0,4.1-1.8,4.1-4.1v-82.2c0-2.3-1.8-4.1-4.1-4.1h-56.3c-1.5,0-2.9-.8-3.5-2.2l-3.3-6.7c-.7-1.3-2.1-2.1-3.5-2.2H25.4c-2.3,0-4.1,1.8-4.1,4.1v91.4c0,3.2,2.6,5.9,5.9,5.9h0Z"/>
  <g class="st4">
    <rect class="st3" x="40.5" y="46" width="64.1" height="87.1" transform="translate(-9.7 8.8) rotate(-6.5)"/>
  </g>
  <g class="st6">
    <rect class="st1" x="60.6" y="53.7" width="62.7" height="85.1" transform="translate(-10.3 11) rotate(-6.5)"/>
  </g>
  <path id="_文件夹外侧边缘" class="st7" d="M146.8,78.4v70.2c0,3.2-2.5,5.8-5.7,5.9H27.1c-3.2,0-5.8-2.5-5.9-5.7v-61c0-3.2,2.5-5.8,5.7-5.9h57.5c1.6,0,3.1-.6,4.1-1.8l5.9-5.9c1.1-1.1,2.6-1.8,4.1-1.8h42.4c3.2,0,5.9,2.6,5.9,5.9h0Z"/>
  <path id="_文件夹外侧" class="st0" d="M146.8,80.1v70.2c0,3.2-2.5,5.8-5.7,5.9H27.1c-3.2,0-5.8-2.5-5.9-5.7v-61c0-3.2,2.5-5.8,5.7-5.9h57.5c1.6,0,3.1-.6,4.1-1.8l5.9-5.9c1.1-1.1,2.6-1.8,4.1-1.8h42.4c3.2,0,5.9,2.6,5.9,5.9h0Z"/>
  <path id="_矩形_17278" class="st5" d="M142.1,46.3l9.6-5.6c.7-.4,1.6-.2,2,.5h0c.4.7.2,1.6-.5,2l-9.6,5.6c-.7.4-1.6.2-2-.5h0c-.4-.7-.2-1.6.5-2Z"/>
  <path id="_矩形_17279" class="st5" d="M38.7,34.3l-7.9-7.9c-.6-.6-.6-1.5,0-2.1h0c.6-.6,1.5-.6,2.1,0l7.9,7.9c.6.6.6,1.5,0,2.1h0c-.6.6-1.5.6-2.1,0Z"/>
  <path id="_矩形_17281" class="st5" d="M115.8,26.5l5.6-9.6c.4-.7,1.3-1,2-.5h0c.7.4,1,1.3.5,2l-5.6,9.6c-.4.7-1.3,1-2,.5h0c-.7-.4-1-1.3-.5-2Z"/>
  <path id="_加号" class="st5" d="M76.5,25.8v-5.3h-5.3v-3.5h5.3v-5.2h3.5v5.3h5.2v3.5h-5.2v5.2h-3.5Z"/>
  <path id="_加号-2" class="st5" d="M10.4,53.1l-3.2-4.2-4.2,3.2-2.1-2.8,4.2-3.2-3.2-4.2,2.8-2.1,3.2,4.2,4.2-3.2,2.1,2.8-4.2,3.2,3.2,4.2s-2.8,2.1-2.8,2.1Z"/>
</svg>