<?xml version="1.0" encoding="UTF-8"?>
<svg id="Layer_1" xmlns="http://www.w3.org/2000/svg" xmlns:xlink="http://www.w3.org/1999/xlink" version="1.1" viewBox="0 0 640 400">
  <!-- Generator: Adobe Illustrator 29.2.0, SVG Export Plug-In . SVG Version: 2.1.0 Build 108)  -->
  <defs>
    <style>
      .st0, .st1, .st2, .st3, .st4, .st5, .st6, .st7, .st8, .st9 {
        fill: none;
      }

      .st10 {
        fill: #4692ff;
      }

      .st10, .st1 {
        stroke: #c6c6c6;
      }

      .st11 {
        fill: #f76e83;
      }

      .st12 {
        fill: #253473;
      }

      .st13 {
        fill: url(#linear-gradient2);
      }

      .st14 {
        fill: url(#linear-gradient1);
      }

      .st15 {
        fill: url(#linear-gradient9);
      }

      .st16 {
        fill: url(#linear-gradient3);
      }

      .st17 {
        fill: url(#linear-gradient6);
      }

      .st18 {
        fill: url(#linear-gradient8);
      }

      .st19 {
        fill: url(#linear-gradient7);
      }

      .st20 {
        fill: url(#linear-gradient5);
      }

      .st21 {
        fill: url(#linear-gradient4);
      }

      .st22 {
        fill: #eaeaea;
      }

      .st23 {
        fill: #f46fff;
      }

      .st24 {
        fill: url(#linear-gradient13);
      }

      .st25 {
        fill: url(#linear-gradient12);
      }

      .st26 {
        fill: url(#linear-gradient15);
      }

      .st27 {
        fill: url(#linear-gradient11);
      }

      .st28 {
        fill: url(#linear-gradient10);
      }

      .st29 {
        fill: url(#linear-gradient14);
      }

      .st2 {
        stroke: #66f;
      }

      .st2, .st6, .st8, .st9 {
        stroke-linecap: round;
        stroke-width: 2px;
      }

      .st30 {
        fill: #007fff;
      }

      .st3 {
        stroke: #f5f5f5;
      }

      .st31 {
        fill: url(#linear-gradient);
      }

      .st32 {
        fill: #f476ff;
      }

      .st33 {
        fill: #66ff8b;
      }

      .st34 {
        fill: #66f;
      }

      .st4 {
        stroke: #9fcefa;
      }

      .st35 {
        fill: #8929f7;
      }

      .st5 {
        stroke: #62aadd;
      }

      .st6 {
        stroke: #9457eb;
      }

      .st36 {
        fill: #89b7ff;
      }

      .st7 {
        stroke: #5eb5d3;
      }

      .st37 {
        filter: url(#X_Shadow_311);
      }

      .st38 {
        filter: url(#X_Shadow_312);
      }

      .st39 {
        fill: #9fcefa;
      }

      .st40 {
        fill: #f2f2f2;
      }

      .st8 {
        stroke: #f76e83;
        stroke-linejoin: round;
      }

      .st41 {
        fill: #85aac9;
      }

      .st42 {
        fill: #ffdcd1;
      }

      .st43 {
        filter: url(#X_Shadow_31);
      }

      .st44 {
        fill: #14264e;
      }

      .st9 {
        stroke: #00ced1;
      }

      .st45 {
        fill: #9457eb;
      }

      .st46 {
        fill: #fff14a;
      }

      .st47 {
        fill: #e2f2ff;
      }
    </style>
    <filter id="X_Shadow_31" x="-200%" y="-200%" width="400%" height="400%">
      <feDropShadow dx="3" dy="4" flood-color="black" flood-opacity="0.3" stdDeviation="4"/>
    </filter>
    <linearGradient id="linear-gradient" x1="964.5" y1="214.9" x2="964.5" y2="213.8" gradientTransform="translate(-36035.4 37097.6) scale(37.4 -171.8)" gradientUnits="userSpaceOnUse">
      <stop offset="0" stop-color="#4566c3"/>
      <stop offset="1" stop-color="#2775b7"/>
    </linearGradient>
    <linearGradient id="linear-gradient1" x1="965.4" y1="214.9" x2="965.4" y2="213.8" gradientTransform="translate(-35503.5 37154.1) scale(37.4 -172.2)" gradientUnits="userSpaceOnUse">
      <stop offset="0" stop-color="#4566c3"/>
      <stop offset="1" stop-color="#2775b7"/>
    </linearGradient>
    <linearGradient id="linear-gradient2" x1="972" y1="216.3" x2="972" y2="215.2" gradientTransform="translate(-49374.8 26147.8) scale(51.2 -120)" gradientUnits="userSpaceOnUse">
      <stop offset="0" stop-color="#4566c3"/>
      <stop offset="1" stop-color="#2775b7"/>
    </linearGradient>
    <linearGradient id="linear-gradient3" x1="976.8" y1="215.8" x2="976.8" y2="214.7" gradientTransform="translate(-68676.4 28858.6) scale(70.5 -132.9)" gradientUnits="userSpaceOnUse">
      <stop offset="0" stop-color="#4566c3"/>
      <stop offset="1" stop-color="#2775b7"/>
    </linearGradient>
    <filter id="X_Shadow_311" data-name="X_Shadow_31" x="-200%" y="-200%" width="400%" height="400%">
      <feDropShadow dx="3" dy="4" flood-color="black" flood-opacity="0.3" stdDeviation="4"/>
    </filter>
    <linearGradient id="linear-gradient4" x1="986.3" y1="219.9" x2="986.3" y2="218.7" gradientTransform="translate(-213014.9 14733.1) scale(216.3 -65.7)" gradientUnits="userSpaceOnUse">
      <stop offset="0" stop-color="#547df4"/>
      <stop offset="1" stop-color="#65b3e6"/>
    </linearGradient>
    <linearGradient id="linear-gradient5" x1="132.2" y1="-194.4" x2="169.1" y2="-194.4" gradientTransform="translate(0 376)" gradientUnits="userSpaceOnUse">
      <stop offset="0" stop-color="#fff" stop-opacity="0"/>
      <stop offset="1" stop-color="#fff" stop-opacity=".5"/>
    </linearGradient>
    <linearGradient id="linear-gradient6" x1="441.4" y1="241.8" x2="441.4" y2="241.2" gradientTransform="translate(-655.7 4373.7) scale(1.8 -17.3)" gradientUnits="userSpaceOnUse">
      <stop offset="0" stop-color="#66f"/>
      <stop offset="1" stop-color="#66f" stop-opacity="0"/>
    </linearGradient>
    <linearGradient id="linear-gradient7" x1="168.3" y1="241.8" x2="168.3" y2="241.2" gradientTransform="translate(-45 4373.7) scale(1.2 -17.3)" gradientUnits="userSpaceOnUse">
      <stop offset="0" stop-color="#9457eb"/>
      <stop offset="1" stop-color="#9457eb" stop-opacity="0"/>
    </linearGradient>
    <linearGradient id="linear-gradient8" x1="167.6" y1="241.8" x2="167.6" y2="241.2" gradientTransform="translate(-56.9 4373.7) scale(1.2 -17.3)" gradientUnits="userSpaceOnUse">
      <stop offset="0" stop-color="#f76e83"/>
      <stop offset="1" stop-color="#f76e83" stop-opacity="0"/>
    </linearGradient>
    <linearGradient id="linear-gradient9" x1="442.3" y1="241.8" x2="442.3" y2="241.2" gradientTransform="translate(-633.6 4373.7) scale(1.8 -17.3)" gradientUnits="userSpaceOnUse">
      <stop offset="0" stop-color="#66ff8b"/>
      <stop offset="1" stop-color="#66ff8b" stop-opacity="0"/>
    </linearGradient>
    <linearGradient id="linear-gradient10" x1="167.5" y1="241.8" x2="167.5" y2="241.2" gradientTransform="translate(-59.3 4373.7) scale(1.2 -17.3)" gradientUnits="userSpaceOnUse">
      <stop offset="0" stop-color="#9457eb"/>
      <stop offset="1" stop-color="#9457eb" stop-opacity="0"/>
    </linearGradient>
    <linearGradient id="linear-gradient11" x1="168.4" y1="241.8" x2="168.4" y2="241.2" gradientTransform="translate(-42.6 4373.7) scale(1.2 -17.3)" gradientUnits="userSpaceOnUse">
      <stop offset="0" stop-color="#f76e83"/>
      <stop offset="1" stop-color="#f76e83" stop-opacity="0"/>
    </linearGradient>
    <linearGradient id="linear-gradient12" x1="167.8" y1="241.8" x2="167.8" y2="241.2" gradientTransform="translate(-54.5 4373.7) scale(1.2 -17.3)" gradientUnits="userSpaceOnUse">
      <stop offset="0" stop-color="#66ff8b"/>
      <stop offset="1" stop-color="#66ff8b" stop-opacity="0"/>
    </linearGradient>
    <linearGradient id="linear-gradient13" x1="168.1" y1="241.8" x2="168.1" y2="241.2" gradientTransform="translate(-47.3 4373.7) scale(1.2 -17.3)" gradientUnits="userSpaceOnUse">
      <stop offset="0" stop-color="#66f"/>
      <stop offset="1" stop-color="#66f" stop-opacity="0"/>
    </linearGradient>
    <filter id="X_Shadow_312" data-name="X_Shadow_31" x="-200%" y="-200%" width="400%" height="400%">
      <feDropShadow dx="3" dy="4" flood-color="black" flood-opacity="0.3" stdDeviation="4"/>
    </filter>
    <linearGradient id="linear-gradient14" x1="975.2" y1="223.2" x2="975.2" y2="222.1" gradientTransform="translate(-61499.5 10510.3) scale(63.4 -46.6)" gradientUnits="userSpaceOnUse">
      <stop offset="0" stop-color="#fff" stop-opacity="0"/>
      <stop offset="1" stop-color="#fff" stop-opacity=".5"/>
    </linearGradient>
    <linearGradient id="linear-gradient15" x1="971.6" y1="222.2" x2="971.6" y2="221.2" gradientTransform="translate(-48299.9 11351.7) scale(50.2 -50.2)" gradientUnits="userSpaceOnUse">
      <stop offset="0" stop-color="#fff" stop-opacity="0"/>
      <stop offset="1" stop-color="#fff" stop-opacity=".5"/>
    </linearGradient>
  </defs>
  <g id="_404状态">
    <g id="_空状态">
      <g id="_横点线">
        <path id="_路径_3314" class="st1" d="M543.2,60.2l-8,8h-67"/>
        <circle id="_椭圆_1030" class="st32" cx="543" cy="60.1" r="2.1"/>
      </g>
      <g id="_最后排的楼">
        <path id="_路径_3307" class="st44" d="M545,67.5c0-20.7-16.7-37.5-37.5-37.5s-37.5,16.7-37.5,37.5v232.4h74.9V67.5h0Z"/>
        <rect id="_矩形_15494" class="st44" x="155.4" y="47.1" width="61.8" height="244.4"/>
      </g>
      <g id="_图层_1-2-2">
        <path id="_路径_4321" class="st41" d="M514.3,303.7l9.6-11.2c7.3,6.6,16.8,12.2,29.8,12.2s24-6.9,24-18.3-8.9-20.3-37.4-20.3v-12.8c24.9,0,33.1-8.3,33.1-19.4s-7.3-15.9-19.3-16.1c-9.7.2-18,4.4-25.2,10.6l-10.3-10.8c9.9-7.9,21.6-13.4,36.1-13.4,22.6,0,38.6,10.2,38.6,28.6s-8.4,21.6-21.7,26v.7c14.6,3.1,26,12.8,26,27.7s-19.1,31.8-42.1,31.8-32.7-6.9-41.1-15.2h0Z"/>
        <path id="_路径_4322" class="st41" d="M514.3,303.8l9.6-11.2c7.3,6.6,16.8,12.2,29.8,12.2s24-6.9,24-18.3-8.9-20.3-37.4-20.3v-12.8c24.9,0,33.1-8.3,33.1-19.4s-7.3-15.9-19.3-16.1c-9.7.2-18,4.4-25.2,10.6l-10.3-10.8c9.9-7.9,21.6-13.4,36.1-13.4,22.6,0,38.6,10.2,38.6,28.6s-8.4,21.6-21.7,26v.7c14.6,3.1,26,12.8,26,27.7s-19.1,31.8-42.1,31.8-32.7-6.9-41.1-15.2h0Z"/>
        <path id="_路径_4323" class="st41" d="M514.2,303.9l9.6-11.2c7.3,6.6,16.8,12.2,29.8,12.2s24-6.9,24-18.3-8.9-20.3-37.4-20.3v-12.8c24.9,0,33.1-8.3,33.1-19.4s-7.3-15.9-19.3-16.1c-9.7.2-18,4.4-25.2,10.6l-10.3-10.8c9.9-7.9,21.6-13.4,36.1-13.4,22.6,0,38.6,10.2,38.6,28.6s-8.4,21.6-21.7,26v.7c14.6,3.1,26,12.8,26,27.7s-19.1,31.8-42.1,31.8-32.7-6.9-41.1-15.2h0Z"/>
        <path id="_路径_4324" class="st41" d="M514.2,303.9l9.6-11.2c7.3,6.6,16.8,12.2,29.8,12.2s24-6.9,24-18.3-8.9-20.3-37.4-20.3v-12.8c24.9,0,33.1-8.3,33.1-19.4s-7.3-15.9-19.3-16.1c-9.7.2-18,4.4-25.2,10.6l-10.3-10.8c9.9-7.9,21.6-13.4,36.1-13.4,22.6,0,38.6,10.2,38.6,28.6s-8.4,21.6-21.7,26v.7c14.6,3.1,26,12.8,26,27.7s-19.1,31.8-42.1,31.8-32.7-6.9-41.1-15.2h0Z"/>
        <path id="_路径_4325" class="st41" d="M514.1,303.9l9.6-11.2c7.3,6.6,16.8,12.2,29.8,12.2s24-6.9,24-18.3-8.9-20.3-37.4-20.3v-12.8c24.9,0,33.1-8.3,33.1-19.4s-7.3-15.9-19.3-16.1c-9.7.2-18,4.4-25.2,10.6l-10.3-10.8c9.9-7.9,21.6-13.4,36.1-13.4,22.6,0,38.6,10.2,38.6,28.6s-8.4,21.6-21.7,26v.7c14.6,3.1,26,12.8,26,27.7s-19.1,31.8-42.1,31.8-32.7-6.9-41.1-15.2h0Z"/>
        <path id="_路径_4326" class="st41" d="M514,303.9l9.6-11.2c7.3,6.6,16.8,12.2,29.8,12.2s24-6.9,24-18.3-8.9-20.3-37.4-20.3v-12.8c24.9,0,33.1-8.3,33.1-19.4s-7.3-15.9-19.3-16.1c-9.7.2-18,4.4-25.2,10.6l-10.3-10.8c9.9-7.9,21.6-13.4,36.1-13.4,22.6,0,38.6,10.2,38.6,28.6s-8.4,21.6-21.7,26v.7c14.6,3.1,26,12.8,26,27.7s-19.1,31.8-42.1,31.8-32.7-6.9-41.1-15.2h0Z"/>
        <path id="_路径_4327" class="st41" d="M514,304l9.6-11.2c7.3,6.6,16.8,12.2,29.8,12.2s24-6.9,24-18.3-8.9-20.3-37.4-20.3v-12.8c24.9,0,33.1-8.3,33.1-19.4s-7.3-15.9-19.3-16.1c-9.7.2-18,4.4-25.2,10.6l-10.3-10.8c9.9-7.9,21.6-13.4,36.1-13.4,22.6,0,38.6,10.2,38.6,28.6s-8.4,21.6-21.7,26v.7c14.6,3.1,26,12.8,26,27.7s-19.1,31.8-42.1,31.8-32.7-6.9-41.1-15.2h0Z"/>
        <path id="_路径_4328" class="st41" d="M513.9,304.1l9.6-11.2c7.3,6.6,16.8,12.2,29.8,12.2s24-6.9,24-18.3-8.9-20.3-37.4-20.3v-12.8c24.9,0,33.1-8.3,33.1-19.4s-7.3-15.9-19.3-16.1c-9.7.2-18,4.4-25.2,10.6l-10.3-10.8c9.9-7.9,21.6-13.4,36.1-13.4,22.6,0,38.6,10.2,38.6,28.6s-8.4,21.6-21.7,26v.7c14.6,3.1,26,12.8,26,27.7s-19.1,31.8-42.1,31.8-32.7-6.9-41.1-15.2h0Z"/>
        <path id="_路径_4329" class="st41" d="M513.9,304.1l9.6-11.2c7.3,6.6,16.8,12.2,29.8,12.2s24-6.9,24-18.3-8.9-20.3-37.4-20.3v-12.8c24.9,0,33.1-8.3,33.1-19.4s-7.3-15.9-19.3-16.1c-9.7.2-18,4.4-25.2,10.6l-10.3-10.8c9.9-7.9,21.6-13.4,36.1-13.4,22.6,0,38.6,10.2,38.6,28.6s-8.4,21.6-21.7,26v.7c14.6,3.1,26,12.8,26,27.7s-19.1,31.8-42.1,31.8-32.7-6.9-41.1-15.2h0Z"/>
        <path id="_路径_4330" class="st41" d="M513.8,304.2l9.6-11.2c7.3,6.6,16.8,12.2,29.8,12.2s24-6.9,24-18.3-8.9-20.3-37.4-20.3v-12.8c24.9,0,33.1-8.3,33.1-19.4s-7.3-15.9-19.3-16.1c-9.7.2-18,4.4-25.2,10.6l-10.3-10.8c9.9-7.9,21.6-13.4,36.1-13.4,22.6,0,38.6,10.2,38.6,28.6s-8.4,21.6-21.7,26v.7c14.6,3.1,26,12.8,26,27.7s-19.1,31.8-42.1,31.8-32.7-6.9-41.1-15.2h0Z"/>
        <path id="_路径_4331" class="st41" d="M513.7,304.2l9.6-11.2c7.3,6.6,16.8,12.2,29.8,12.2s24-6.9,24-18.3-8.9-20.3-37.4-20.3v-12.8c24.9,0,33.1-8.3,33.1-19.4s-7.3-15.9-19.3-16.1c-9.7.2-18,4.4-25.2,10.6l-10.3-10.8c9.9-7.9,21.6-13.4,36.1-13.4,22.6,0,38.6,10.2,38.6,28.6s-8.4,21.6-21.7,26v.7c14.6,3.1,26,12.8,26,27.7s-19.1,31.8-42.1,31.8-32.7-6.9-41.1-15.2h0Z"/>
        <path id="_路径_4332" class="st41" d="M513.7,304.3l9.6-11.2c7.3,6.6,16.8,12.2,29.8,12.2s24-6.9,24-18.3-8.9-20.3-37.4-20.3v-12.8c24.9,0,33.1-8.3,33.1-19.4s-7.3-15.9-19.3-16.1c-9.7.2-18,4.4-25.2,10.6l-10.3-10.8c9.9-7.9,21.6-13.4,36.1-13.4,22.6,0,38.6,10.2,38.6,28.6s-8.4,21.6-21.7,26v.7c14.6,3.1,26,12.8,26,27.7s-19.1,31.8-42.1,31.8-32.7-6.9-41.1-15.2h0Z"/>
        <path id="_路径_4333" class="st41" d="M513.6,304.4l9.6-11.2c7.3,6.6,16.8,12.2,29.8,12.2s24-6.9,24-18.3-8.9-20.3-37.4-20.3v-12.8c24.9,0,33.1-8.3,33.1-19.4s-7.3-15.9-19.3-16.1c-9.7.2-18,4.4-25.2,10.6l-10.3-10.8c9.9-7.9,21.6-13.4,36.1-13.4,22.6,0,38.6,10.2,38.6,28.6s-8.4,21.6-21.7,26v.7c14.6,3.1,26,12.8,26,27.7s-19.1,31.8-42.1,31.8-32.7-6.9-41.1-15.2h0Z"/>
        <path id="_路径_4334" class="st41" d="M513.6,304.4l9.6-11.2c7.3,6.6,16.8,12.2,29.8,12.2s24-6.9,24-18.3-8.9-20.3-37.4-20.3v-12.8c24.9,0,33.1-8.3,33.1-19.4s-7.3-15.9-19.3-16.1c-9.7.2-18,4.4-25.2,10.6l-10.3-10.8c9.9-7.9,21.6-13.4,36.1-13.4,22.6,0,38.6,10.2,38.6,28.6s-8.4,21.6-21.7,26v.7c14.6,3.1,26,12.8,26,27.7s-19.1,31.8-42.1,31.8-32.7-6.9-41.1-15.2h0Z"/>
        <path id="_路径_4335" class="st41" d="M513.6,304.5l9.6-11.2c7.3,6.6,16.8,12.2,29.8,12.2s24-6.9,24-18.3-8.9-20.3-37.4-20.3v-12.8c24.9,0,33.1-8.3,33.1-19.4s-7.3-15.9-19.3-16.1c-9.7.2-18,4.4-25.2,10.6l-10.3-10.8c9.9-7.9,21.6-13.4,36.1-13.4,22.6,0,38.6,10.2,38.6,28.6s-8.4,21.6-21.7,26v.7c14.6,3.1,26,12.8,26,27.7s-19.1,31.8-42.1,31.8-32.7-6.9-41.1-15.2h0Z"/>
        <path id="_路径_4336" class="st41" d="M513.5,304.5l9.6-11.2c7.3,6.6,16.8,12.2,29.8,12.2s24-6.9,24-18.3-8.9-20.3-37.4-20.3v-12.8c24.9,0,33.1-8.3,33.1-19.4s-7.3-15.9-19.3-16.1c-9.7.2-18,4.4-25.2,10.6l-10.3-10.8c9.9-7.9,21.6-13.4,36.1-13.4,22.6,0,38.6,10.2,38.6,28.6s-8.4,21.6-21.7,26v.7c14.6,3.1,26,12.8,26,27.7s-19.1,31.8-42.1,31.8-32.7-6.9-41.1-15.2h0Z"/>
        <path id="_路径_4337" class="st41" d="M513.5,304.6l9.6-11.2c7.3,6.6,16.8,12.2,29.8,12.2s24-6.9,24-18.3-8.9-20.3-37.4-20.3v-12.8c24.9,0,33.1-8.3,33.1-19.4s-7.3-15.9-19.3-16.1c-9.7.2-18,4.4-25.2,10.6l-10.3-10.8c9.9-7.9,21.6-13.4,36.1-13.4,22.6,0,38.6,10.2,38.6,28.6s-8.4,21.6-21.7,26v.7c14.6,3.1,26,12.8,26,27.7s-19.1,31.8-42.1,31.8-32.7-6.9-41.1-15.2h0Z"/>
        <path id="_路径_4338" class="st41" d="M513.4,304.7l9.6-11.2c7.3,6.6,16.8,12.2,29.8,12.2s24-6.9,24-18.3-8.9-20.3-37.4-20.3v-12.8c24.9,0,33.1-8.3,33.1-19.4s-7.3-15.9-19.3-16.1c-9.7.2-18,4.4-25.2,10.6l-10.3-10.8c9.9-7.9,21.6-13.4,36.1-13.4,22.6,0,38.6,10.2,38.6,28.6s-8.4,21.6-21.7,26v.7c14.6,3.1,26,12.8,26,27.7s-19.1,31.8-42.1,31.8-32.7-6.9-41.1-15.2h0Z"/>
        <path id="_路径_4339" class="st41" d="M513.4,304.7l9.6-11.2c7.3,6.6,16.8,12.2,29.8,12.2s24-6.9,24-18.3-8.9-20.3-37.4-20.3v-12.8c24.9,0,33.1-8.3,33.1-19.4s-7.3-15.9-19.3-16.1c-9.7.2-18,4.4-25.2,10.6l-10.3-10.8c9.9-7.9,21.6-13.4,36.1-13.4,22.6,0,38.6,10.2,38.6,28.6s-8.4,21.6-21.7,26v.7c14.6,3.1,26,12.8,26,27.7s-19.1,31.8-42.1,31.8-32.7-6.9-41.1-15.2h0Z"/>
        <path id="_路径_4340" class="st41" d="M513.3,304.7l9.6-11.2c7.3,6.6,16.8,12.2,29.8,12.2s24-6.9,24-18.3-8.9-20.3-37.4-20.3v-12.8c24.9,0,33.1-8.3,33.1-19.4s-7.3-15.9-19.3-16.1c-9.7.2-18,4.4-25.2,10.6l-10.3-10.8c9.9-7.9,21.6-13.4,36.1-13.4,22.6,0,38.6,10.2,38.6,28.6s-8.4,21.6-21.7,26v.7c14.6,3.1,26,12.8,26,27.7s-19.1,31.8-42.1,31.8-32.7-6.9-41.1-15.2h0Z"/>
        <path id="_路径_4341" class="st41" d="M513.2,304.7l9.6-11.2c7.3,6.6,16.8,12.2,29.8,12.2s24-6.9,24-18.3-8.9-20.3-37.4-20.3v-12.8c24.9,0,33.1-8.3,33.1-19.4s-7.3-15.9-19.3-16.1c-9.7.2-18,4.4-25.2,10.6l-10.3-10.8c9.9-7.9,21.6-13.4,36.1-13.4,22.6,0,38.6,10.2,38.6,28.6s-8.4,21.6-21.7,26v.7c14.6,3.1,26,12.8,26,27.7s-19.1,31.8-42.1,31.8-32.7-6.9-41.1-15.2h0Z"/>
        <path id="_路径_4342" class="st41" d="M513.2,304.8l9.6-11.2c7.3,6.6,16.8,12.2,29.8,12.2s24-6.9,24-18.3-8.9-20.3-37.4-20.3v-12.8c24.9,0,33.1-8.3,33.1-19.4s-7.3-15.9-19.3-16.1c-9.7.2-18,4.4-25.2,10.6l-10.3-10.8c9.9-7.9,21.6-13.4,36.1-13.4,22.6,0,38.6,10.2,38.6,28.6s-8.4,21.6-21.7,26v.7c14.6,3.1,26,12.8,26,27.7s-19.1,31.8-42.1,31.8-32.7-6.9-41.1-15.2h0Z"/>
        <path id="_路径_4343" class="st41" d="M513.1,304.9l9.6-11.2c7.3,6.6,16.8,12.2,29.8,12.2s24-6.9,24-18.3-8.9-20.3-37.4-20.3v-12.8c24.9,0,33.1-8.3,33.1-19.4s-7.3-15.9-19.3-16.1c-9.7.2-18,4.4-25.2,10.6l-10.3-10.8c9.9-7.9,21.6-13.4,36.1-13.4,22.6,0,38.6,10.2,38.6,28.6s-8.4,21.6-21.7,26v.7c14.6,3.1,26,12.8,26,27.7s-19.1,31.8-42.1,31.8-32.7-6.9-41.1-15.2h0Z"/>
        <path id="_路径_4344" class="st41" d="M513.1,304.9l9.6-11.2c7.3,6.6,16.8,12.2,29.8,12.2s24-6.9,24-18.3-8.9-20.3-37.4-20.3v-12.8c24.9,0,33.1-8.3,33.1-19.4s-7.3-15.9-19.3-16.1c-9.7.2-18,4.4-25.2,10.6l-10.3-10.8c9.9-7.9,21.6-13.4,36.1-13.4,22.6,0,38.6,10.2,38.6,28.6s-8.4,21.6-21.7,26v.7c14.6,3.1,26,12.8,26,27.7s-19.1,31.8-42.1,31.8-32.7-6.9-41.1-15.2h0Z"/>
        <path id="_路径_4345" class="st41" d="M513,305l9.6-11.2c7.3,6.6,16.8,12.2,29.8,12.2s24-6.9,24-18.3-8.9-20.3-37.4-20.3v-12.8c24.9,0,33.1-8.3,33.1-19.4s-7.3-15.9-19.3-16.1c-9.7.2-18,4.4-25.2,10.6l-10.3-10.8c9.9-7.9,21.6-13.4,36.1-13.4,22.6,0,38.6,10.2,38.6,28.6s-8.4,21.6-21.7,26v.7c14.6,3.1,26,12.8,26,27.7s-19.1,31.8-42.1,31.8-32.7-6.9-41.1-15.2h0Z"/>
        <path id="_路径_4346" class="st41" d="M512.9,305l9.6-11.2c7.3,6.6,16.8,12.2,29.8,12.2s24-6.9,24-18.3-8.9-20.3-37.4-20.3v-12.8c24.9,0,33.1-8.3,33.1-19.4s-7.3-15.9-19.3-16.1c-9.7.2-18,4.4-25.2,10.6l-10.3-10.8c9.9-7.9,21.6-13.4,36.1-13.4,22.6,0,38.6,10.2,38.6,28.6s-8.4,21.6-21.7,26v.7c14.6,3.1,26,12.8,26,27.7s-19.1,31.8-42.1,31.8-32.7-6.9-41.1-15.2h0Z"/>
        <path id="_路径_4347" class="st41" d="M512.9,305.1l9.6-11.2c7.3,6.6,16.8,12.2,29.8,12.2s24-6.9,24-18.3-8.9-20.3-37.4-20.3v-12.8c24.9,0,33.1-8.3,33.1-19.4s-7.3-15.9-19.3-16.1c-9.7.2-18,4.4-25.2,10.6l-10.3-10.8c9.9-7.9,21.6-13.4,36.1-13.4,22.6,0,38.6,10.2,38.6,28.6s-8.4,21.6-21.7,26v.7c14.6,3.1,26,12.8,26,27.7s-19.1,31.8-42.1,31.8-32.7-6.9-41.1-15.2h0Z"/>
        <path id="_路径_4348" class="st41" d="M512.8,305.1l9.6-11.2c7.3,6.6,16.8,12.2,29.8,12.2s24-6.9,24-18.3-8.9-20.3-37.4-20.3v-12.8c24.9,0,33.1-8.3,33.1-19.4s-7.3-15.9-19.3-16.1c-9.7.2-18,4.4-25.2,10.6l-10.3-10.8c9.9-7.9,21.6-13.4,36.1-13.4,22.6,0,38.6,10.2,38.6,28.6s-8.4,21.6-21.7,26v.7c14.6,3.1,26,12.8,26,27.7s-19.1,31.8-42.1,31.8-32.7-6.9-41.1-15.2h0Z"/>
        <path id="_路径_4349" class="st41" d="M512.8,305.2l9.6-11.2c7.3,6.6,16.8,12.2,29.8,12.2s24-6.9,24-18.3-8.9-20.3-37.4-20.3v-12.8c24.9,0,33.1-8.3,33.1-19.4s-7.3-15.9-19.3-16.1c-9.7.2-18,4.4-25.2,10.6l-10.3-10.8c9.9-7.9,21.6-13.4,36.1-13.4,22.6,0,38.6,10.2,38.6,28.6s-8.4,21.6-21.7,26v.7c14.6,3.1,26,12.8,26,27.7s-19.1,31.8-42.1,31.8-32.7-6.9-41.1-15.2h0Z"/>
        <path id="_路径_4350" class="st41" d="M512.7,305.3l9.6-11.2c7.3,6.6,16.8,12.2,29.8,12.2s24-6.9,24-18.3-8.9-20.3-37.4-20.3v-12.8c24.9,0,33.1-8.3,33.1-19.4s-7.3-15.9-19.3-16.1c-9.7.2-18,4.4-25.2,10.6l-10.3-10.8c9.9-7.9,21.6-13.4,36.1-13.4,22.6,0,38.6,10.2,38.6,28.6s-8.4,21.6-21.7,26v.7c14.6,3.1,26,12.8,26,27.7s-19.1,31.8-42.1,31.8-32.7-6.9-41.1-15.2h0Z"/>
        <path id="_路径_4351" class="st41" d="M512.7,305.3l9.6-11.2c7.3,6.6,16.8,12.2,29.8,12.2s24-6.9,24-18.3-8.9-20.3-37.4-20.3v-12.8c24.9,0,33.1-8.3,33.1-19.4s-7.3-15.9-19.3-16.1c-9.7.2-18,4.4-25.2,10.6l-10.3-10.8c9.9-7.9,21.6-13.4,36.1-13.4,22.6,0,38.6,10.2,38.6,28.6s-8.4,21.6-21.7,26v.7c14.6,3.1,26,12.8,26,27.7s-19.1,31.8-42.1,31.8-32.7-6.9-41.1-15.2h0Z"/>
        <path id="_路径_4352" class="st41" d="M512.7,305.4l9.6-11.2c7.3,6.6,16.8,12.2,29.8,12.2s24-6.9,24-18.3-8.9-20.3-37.4-20.3v-12.8c24.9,0,33.1-8.3,33.1-19.4s-7.3-15.9-19.3-16.1c-9.7.2-18,4.4-25.2,10.6l-10.3-10.8c9.9-7.9,21.6-13.4,36.1-13.4,22.6,0,38.6,10.2,38.6,28.6s-8.4,21.6-21.7,26v.7c14.6,3.1,26,12.8,26,27.7s-19.1,31.8-42.1,31.8-32.7-6.9-41.1-15.2h0Z"/>
        <path id="_路径_4353" class="st41" d="M512.6,305.4l9.6-11.2c7.3,6.6,16.8,12.2,29.8,12.2s24-6.9,24-18.3-8.9-20.3-37.4-20.3v-12.8c24.9,0,33.1-8.3,33.1-19.4s-7.3-15.9-19.3-16.1c-9.7.2-18,4.4-25.2,10.6l-10.3-10.8c9.9-7.9,21.6-13.4,36.1-13.4,22.6,0,38.6,10.2,38.6,28.6s-8.4,21.6-21.7,26v.7c14.6,3.1,26,12.8,26,27.7s-19.1,31.8-42.1,31.8-32.7-6.9-41.1-15.2h0Z"/>
        <path id="_路径_4354" class="st41" d="M512.6,305.5l9.6-11.2c7.3,6.6,16.8,12.2,29.8,12.2s24-6.9,24-18.3-8.9-20.3-37.4-20.3v-12.8c24.9,0,33.1-8.3,33.1-19.4s-7.3-15.9-19.3-16.1c-9.7.2-18,4.4-25.2,10.6l-10.3-10.8c9.9-7.9,21.6-13.4,36.1-13.4,22.6,0,38.6,10.2,38.6,28.6s-8.4,21.6-21.7,26v.7c14.6,3.1,26,12.8,26,27.7s-19.1,31.8-42.1,31.8-32.7-6.9-41.1-15.2h0Z"/>
        <path id="_路径_4355" class="st41" d="M512.5,305.6l9.6-11.2c7.3,6.6,16.8,12.2,29.8,12.2s24-6.9,24-18.3-8.9-20.3-37.4-20.3v-12.8c24.9,0,33.1-8.3,33.1-19.4s-7.3-15.9-19.3-16.1c-9.7.2-18,4.4-25.2,10.6l-10.3-10.8c9.9-7.9,21.6-13.4,36.1-13.4,22.6,0,38.6,10.2,38.6,28.6s-8.4,21.6-21.7,26v.7c14.6,3.1,26,12.8,26,27.7s-19.1,31.8-42.1,31.8-32.7-6.9-41.1-15.2h0Z"/>
        <path id="_路径_4356" class="st41" d="M512.4,305.6l9.6-11.2c7.3,6.6,16.8,12.2,29.8,12.2s24-6.9,24-18.3-8.9-20.3-37.4-20.3v-12.8c24.9,0,33.1-8.3,33.1-19.4s-7.3-15.9-19.3-16.1c-9.7.2-18,4.4-25.2,10.6l-10.3-10.8c9.9-7.9,21.6-13.4,36.1-13.4,22.6,0,38.6,10.2,38.6,28.6s-8.4,21.6-21.7,26v.7c14.6,3.1,26,12.8,26,27.7s-19.1,31.8-42.1,31.8-32.7-6.9-41.1-15.2h0Z"/>
        <path id="_路径_4357" class="st41" d="M512.4,305.6l9.6-11.2c7.3,6.6,16.8,12.2,29.8,12.2s24-6.9,24-18.3-8.9-20.3-37.4-20.3v-12.8c24.9,0,33.1-8.3,33.1-19.4s-7.3-15.9-19.3-16.1c-9.7.2-18,4.4-25.2,10.6l-10.3-10.8c9.9-7.9,21.6-13.4,36.1-13.4,22.6,0,38.6,10.2,38.6,28.6s-8.4,21.6-21.7,26v.7c14.6,3.1,26,12.8,26,27.7s-19.1,31.8-42.1,31.8-32.7-6.9-41.1-15.2h0Z"/>
        <path id="_路径_4358" class="st41" d="M512.3,305.6l9.6-11.2c7.3,6.6,16.8,12.2,29.8,12.2s24-6.9,24-18.3-8.9-20.3-37.4-20.3v-12.8c24.9,0,33.1-8.3,33.1-19.4s-7.3-15.9-19.3-16.1c-9.7.2-18,4.4-25.2,10.6l-10.3-10.8c9.9-7.9,21.6-13.4,36.1-13.4,22.6,0,38.6,10.2,38.6,28.6s-8.4,21.6-21.7,26v.7c14.6,3.1,26,12.8,26,27.7s-19.1,31.8-42.1,31.8-32.7-6.9-41.1-15.2h0Z"/>
        <path id="_路径_4359" class="st41" d="M512.3,305.7l9.6-11.2c7.3,6.6,16.8,12.2,29.8,12.2s24-6.9,24-18.3-8.9-20.3-37.4-20.3v-12.8c24.9,0,33.1-8.3,33.1-19.4s-7.3-15.9-19.3-16.1c-9.7.2-18,4.4-25.2,10.6l-10.3-10.8c9.9-7.9,21.6-13.4,36.1-13.4,22.6,0,38.6,10.2,38.6,28.6s-8.4,21.6-21.7,26v.7c14.6,3.1,26,12.8,26,27.7s-19.1,31.8-42.1,31.8-32.7-6.9-41.1-15.2h0Z"/>
        <path id="_路径_4360" class="st41" d="M512.2,305.8l9.6-11.2c7.3,6.6,16.8,12.2,29.8,12.2s24-6.9,24-18.3-8.9-20.3-37.4-20.3v-12.8c24.9,0,33.1-8.3,33.1-19.4s-7.3-15.9-19.3-16.1c-9.7.2-18,4.4-25.2,10.6l-10.3-10.8c9.9-7.9,21.6-13.4,36.1-13.4,22.6,0,38.6,10.2,38.6,28.6s-8.4,21.6-21.7,26v.7c14.6,3.1,26,12.8,26,27.7s-19.1,31.8-42.1,31.8-32.7-6.9-41.1-15.2h0Z"/>
        <path id="_路径_4361" class="st41" d="M512.1,305.8l9.6-11.2c7.3,6.6,16.8,12.2,29.8,12.2s24-6.9,24-18.3-8.9-20.3-37.4-20.3v-12.8c24.9,0,33.1-8.3,33.1-19.4s-7.3-15.9-19.3-16.1c-9.7.2-18,4.4-25.2,10.6l-10.3-10.8c9.9-7.9,21.6-13.4,36.1-13.4,22.6,0,38.6,10.2,38.6,28.6s-8.4,21.6-21.7,26v.7c14.6,3.1,26,12.8,26,27.7s-19.1,31.8-42.1,31.8-32.7-6.9-41.1-15.2h0Z"/>
        <path id="_路径_4362" class="st41" d="M512.1,305.9l9.6-11.2c7.3,6.6,16.8,12.2,29.8,12.2s24-6.9,24-18.3-8.9-20.3-37.4-20.3v-12.8c24.9,0,33.1-8.3,33.1-19.4s-7.3-15.9-19.3-16.1c-9.7.2-18,4.4-25.2,10.6l-10.3-10.8c9.9-7.9,21.6-13.4,36.1-13.4,22.6,0,38.6,10.2,38.6,28.6s-8.4,21.6-21.7,26v.7c14.6,3.1,26,12.8,26,27.7s-19.1,31.8-42.1,31.8-32.7-6.9-41.1-15.2h0Z"/>
        <path id="_路径_4363" class="st41" d="M512,305.9l9.6-11.2c7.3,6.6,16.8,12.2,29.8,12.2s24-6.9,24-18.3-8.9-20.3-37.4-20.3v-12.8c24.9,0,33.1-8.3,33.1-19.4s-7.3-15.9-19.3-16.1c-9.7.2-18,4.4-25.2,10.6l-10.3-10.8c9.9-7.9,21.6-13.4,36.1-13.4,22.6,0,38.6,10.2,38.6,28.6s-8.4,21.6-21.7,26v.7c14.6,3.1,26,12.8,26,27.7s-19.1,31.8-42.1,31.8-32.7-6.9-41.1-15.2h0Z"/>
        <path id="_路径_4364" class="st41" d="M512,306l9.6-11.2c7.3,6.6,16.8,12.2,29.8,12.2s24-6.9,24-18.3-8.9-20.3-37.4-20.3v-12.8c24.9,0,33.1-8.3,33.1-19.4s-7.3-15.9-19.3-16.1c-9.7.2-18,4.4-25.2,10.6l-10.3-10.8c9.9-7.9,21.6-13.4,36.1-13.4,22.6,0,38.6,10.2,38.6,28.6s-8.4,21.6-21.7,26v.7c14.6,3.1,26,12.8,26,27.7s-19.1,31.8-42.1,31.8-32.7-6.9-41.1-15.2h0Z"/>
        <path id="_路径_4365" class="st41" d="M511.9,306.1l9.6-11.2c7.3,6.6,16.8,12.2,29.8,12.2s24-6.9,24-18.3-8.9-20.3-37.4-20.3v-12.8c24.9,0,33.1-8.3,33.1-19.4s-7.3-15.9-19.3-16.1c-9.7.2-18,4.4-25.2,10.6l-10.3-10.8c9.9-7.9,21.6-13.4,36.1-13.4,22.6,0,38.6,10.2,38.6,28.6s-8.4,21.6-21.7,26v.7c14.6,3.1,26,12.8,26,27.7s-19.1,31.8-42.1,31.8-32.7-6.9-41.1-15.2h0Z"/>
        <path id="_路径_4366" class="st41" d="M511.9,306.1l9.6-11.2c7.3,6.6,16.8,12.2,29.8,12.2s24-6.9,24-18.3-8.9-20.3-37.4-20.3v-12.8c24.9,0,33.1-8.3,33.1-19.4s-7.3-15.9-19.3-16.1c-9.7.2-18,4.4-25.2,10.6l-10.3-10.8c9.9-7.9,21.6-13.4,36.1-13.4,22.6,0,38.6,10.2,38.6,28.6s-8.4,21.6-21.7,26v.7c14.6,3.1,26,12.8,26,27.7s-19.1,31.8-42.1,31.8-32.7-6.9-41.1-15.2h0Z"/>
        <path id="_路径_4367" class="st41" d="M511.9,306.2l9.6-11.2c7.3,6.6,16.8,12.2,29.8,12.2s24-6.9,24-18.3-8.9-20.3-37.4-20.3v-12.8c24.9,0,33.1-8.3,33.1-19.4s-7.3-15.9-19.3-16.1c-9.7.2-18,4.4-25.2,10.6l-10.3-10.8c9.9-7.9,21.6-13.4,36.1-13.4,22.6,0,38.6,10.2,38.6,28.6s-8.4,21.6-21.7,26v.7c14.6,3.1,26,12.8,26,27.7s-19.1,31.8-42.1,31.8-32.7-6.9-41.1-15.2h0Z"/>
        <path id="_路径_4368" class="st41" d="M511.8,306.2l9.6-11.2c7.3,6.6,16.8,12.2,29.8,12.2s24-6.9,24-18.3-8.9-20.3-37.4-20.3v-12.8c24.9,0,33.1-8.3,33.1-19.4s-7.3-15.9-19.3-16.1c-9.7.2-18,4.4-25.2,10.6l-10.3-10.8c9.9-7.9,21.6-13.4,36.1-13.4,22.6,0,38.6,10.2,38.6,28.6s-8.4,21.6-21.7,26v.7c14.6,3.1,26,12.8,26,27.7s-19.1,31.8-42.1,31.8-32.7-6.9-41.1-15.2h0Z"/>
        <path id="_路径_4369" class="st41" d="M511.8,306.3l9.6-11.2c7.3,6.6,16.8,12.2,29.8,12.2s24-6.9,24-18.3-8.9-20.3-37.4-20.3v-12.8c24.9,0,33.1-8.3,33.1-19.4s-7.3-15.9-19.3-16.1c-9.7.2-18,4.4-25.2,10.6l-10.3-10.8c9.9-7.9,21.6-13.4,36.1-13.4,22.6,0,38.6,10.2,38.6,28.6s-8.4,21.6-21.7,26v.7c14.6,3.1,26,12.8,26,27.7s-19.1,31.8-42.1,31.8-32.7-6.9-41.1-15.2h0Z"/>
        <path id="_路径_4370" class="st41" d="M511.7,306.4l9.6-11.2c7.3,6.6,16.8,12.2,29.8,12.2s24-6.9,24-18.3-8.9-20.3-37.4-20.3v-12.8c24.9,0,33.1-8.3,33.1-19.4s-7.3-15.9-19.3-16.1c-9.7.2-18,4.4-25.2,10.6l-10.3-10.8c9.9-7.9,21.6-13.4,36.1-13.4,22.6,0,38.6,10.2,38.6,28.6s-8.4,21.6-21.7,26v.7c14.6,3.1,26,12.8,26,27.7s-19.1,31.8-42.1,31.8-32.7-6.9-41.1-15.2h0Z"/>
        <path id="_路径_4371" class="st41" d="M511.7,306.4l9.6-11.2c7.3,6.6,16.8,12.2,29.8,12.2s24-6.9,24-18.3-8.9-20.3-37.4-20.3v-12.8c24.9,0,33.1-8.3,33.1-19.4s-7.3-15.9-19.3-16.1c-9.7.2-18,4.4-25.2,10.6l-10.3-10.8c9.9-7.9,21.6-13.4,36.1-13.4,22.6,0,38.6,10.2,38.6,28.6s-8.4,21.6-21.7,26v.7c14.6,3.1,26,12.8,26,27.7s-19.1,31.8-42.1,31.8-32.7-6.9-41.1-15.2h0Z"/>
        <path id="_路径_4372" class="st41" d="M511.6,306.4l9.6-11.2c7.3,6.6,16.8,12.2,29.8,12.2s24-6.9,24-18.3-8.9-20.3-37.4-20.3v-12.8c24.9,0,33.1-8.3,33.1-19.4s-7.3-15.9-19.3-16.1c-9.7.2-18,4.4-25.2,10.6l-10.3-10.8c9.9-7.9,21.6-13.4,36.1-13.4,22.6,0,38.6,10.2,38.6,28.6s-8.4,21.6-21.7,26v.7c14.6,3.1,26,12.8,26,27.7s-19.1,31.8-42.1,31.8-32.7-6.9-41.1-15.2h0Z"/>
        <path id="_路径_4373" class="st41" d="M511.5,306.4l9.6-11.2c7.3,6.6,16.8,12.2,29.8,12.2s24-6.9,24-18.3-8.9-20.3-37.4-20.3v-12.8c24.9,0,33.1-8.3,33.1-19.4s-7.3-15.9-19.3-16.1c-9.7.2-18,4.4-25.2,10.6l-10.3-10.8c9.9-7.9,21.6-13.4,36.1-13.4,22.6,0,38.6,10.2,38.6,28.6s-8.4,21.6-21.7,26v.7c14.6,3.1,26,12.8,26,27.7s-19.1,31.8-42.1,31.8-32.7-6.9-41.1-15.2h0Z"/>
        <path id="_路径_4374" class="st41" d="M511.5,306.5l9.6-11.2c7.3,6.6,16.8,12.2,29.8,12.2s24-6.9,24-18.3-8.9-20.3-37.4-20.3v-12.8c24.9,0,33.1-8.3,33.1-19.4s-7.3-15.9-19.3-16.1c-9.7.2-18,4.4-25.2,10.6l-10.3-10.8c9.9-7.9,21.6-13.4,36.1-13.4,22.6,0,38.6,10.2,38.6,28.6s-8.4,21.6-21.7,26v.7c14.6,3.1,26,12.8,26,27.7s-19.1,31.8-42.1,31.8-32.7-6.9-41.1-15.2h0Z"/>
        <path id="_路径_4375" class="st41" d="M511.4,306.6l9.6-11.2c7.3,6.6,16.8,12.2,29.8,12.2s24-6.9,24-18.3-8.9-20.3-37.4-20.3v-12.8c24.9,0,33.1-8.3,33.1-19.4s-7.3-15.9-19.3-16.1c-9.7.2-18,4.4-25.2,10.6l-10.3-10.8c9.9-7.9,21.6-13.4,36.1-13.4,22.6,0,38.6,10.2,38.6,28.6s-8.4,21.6-21.7,26v.7c14.6,3.1,26,12.8,26,27.7s-19.1,31.8-42.1,31.8-32.7-6.9-41.1-15.2h0Z"/>
        <path id="_路径_4376" class="st41" d="M511.4,306.6l9.6-11.2c7.3,6.6,16.8,12.2,29.8,12.2s24-6.9,24-18.3-8.9-20.3-37.4-20.3v-12.8c24.9,0,33.1-8.3,33.1-19.4s-7.3-15.9-19.3-16.1c-9.7.2-18,4.4-25.2,10.6l-10.3-10.8c9.9-7.9,21.6-13.4,36.1-13.4,22.6,0,38.6,10.2,38.6,28.6s-8.4,21.6-21.7,26v.7c14.6,3.1,26,12.8,26,27.7s-19.1,31.8-42.1,31.8-32.7-6.9-41.1-15.2h0Z"/>
        <path id="_路径_4377" class="st41" d="M511.3,306.7l9.6-11.2c7.3,6.6,16.8,12.2,29.8,12.2s24-6.9,24-18.3-8.9-20.3-37.4-20.3v-12.8c24.9,0,33.1-8.3,33.1-19.4s-7.3-15.9-19.3-16.1c-9.7.2-18,4.4-25.2,10.6l-10.3-10.8c9.9-7.9,21.6-13.4,36.1-13.4,22.6,0,38.6,10.2,38.6,28.6s-8.4,21.6-21.7,26v.7c14.6,3.1,26,12.8,26,27.7s-19.1,31.8-42.1,31.8-32.7-6.9-41.1-15.2h0Z"/>
        <path id="_路径_4378" class="st41" d="M511.2,306.7l9.6-11.2c7.3,6.6,16.8,12.2,29.8,12.2s24-6.9,24-18.3-8.9-20.3-37.4-20.3v-12.8c24.9,0,33.1-8.3,33.1-19.4s-7.3-15.9-19.3-16.1c-9.7.2-18,4.4-25.2,10.6l-10.3-10.8c9.9-7.9,21.6-13.4,36.1-13.4,22.6,0,38.6,10.2,38.6,28.6s-8.4,21.6-21.7,26v.7c14.6,3.1,26,12.8,26,27.7s-19.1,31.8-42.1,31.8-32.7-6.9-41.1-15.2h0Z"/>
        <path id="_路径_4379" class="st41" d="M511.2,306.8l9.6-11.2c7.3,6.6,16.8,12.2,29.8,12.2s24-6.9,24-18.3-8.9-20.3-37.4-20.3v-12.8c24.9,0,33.1-8.3,33.1-19.4s-7.3-15.9-19.3-16.1c-9.7.2-18,4.4-25.2,10.6l-10.3-10.8c9.9-7.9,21.6-13.4,36.1-13.4,22.6,0,38.6,10.2,38.6,28.6s-8.4,21.6-21.7,26v.7c14.6,3.1,26,12.8,26,27.7s-19.1,31.8-42.1,31.8-32.7-6.9-41.1-15.2h0Z"/>
        <path id="_路径_4380" class="st41" d="M511.1,306.9l9.6-11.2c7.3,6.6,16.8,12.2,29.8,12.2s24-6.9,24-18.3-8.9-20.3-37.4-20.3v-12.8c24.9,0,33.1-8.3,33.1-19.4s-7.3-15.9-19.3-16.1c-9.7.2-18,4.4-25.2,10.6l-10.3-10.8c9.9-7.9,21.6-13.4,36.1-13.4,22.6,0,38.6,10.2,38.6,28.6s-8.4,21.6-21.7,26v.7c14.6,3.1,26,12.8,26,27.7s-19.1,31.8-42.1,31.8-32.7-6.9-41.1-15.2h0Z"/>
        <path id="_路径_4381" class="st41" d="M511.1,306.9l9.6-11.2c7.3,6.6,16.8,12.2,29.8,12.2s24-6.9,24-18.3-8.9-20.3-37.4-20.3v-12.8c24.9,0,33.1-8.3,33.1-19.4s-7.3-15.9-19.3-16.1c-9.7.2-18,4.4-25.2,10.6l-10.3-10.8c9.9-7.9,21.6-13.4,36.1-13.4,22.6,0,38.6,10.2,38.6,28.6s-8.4,21.6-21.7,26v.7c14.6,3.1,26,12.8,26,27.7s-19.1,31.8-42.1,31.8-32.7-6.9-41.1-15.2h0Z"/>
        <path id="_路径_4382" class="st41" d="M511,307l9.6-11.2c7.3,6.6,16.8,12.2,29.8,12.2s24-6.9,24-18.3-8.9-20.3-37.4-20.3v-12.8c24.9,0,33.1-8.3,33.1-19.4s-7.3-15.9-19.3-16.1c-9.7.2-18,4.4-25.2,10.6l-10.3-10.8c9.9-7.9,21.6-13.4,36.1-13.4,22.6,0,38.6,10.2,38.6,28.6s-8.4,21.6-21.7,26v.7c14.6,3.1,26,12.8,26,27.7s-19.1,31.8-42.1,31.8-32.7-6.9-41.1-15.2h0Z"/>
        <path id="_路径_4383" class="st41" d="M511,307l9.6-11.2c7.3,6.6,16.8,12.2,29.8,12.2s24-6.9,24-18.3-8.9-20.3-37.4-20.3v-12.8c24.9,0,33.1-8.3,33.1-19.4s-7.3-15.9-19.3-16.1c-9.7.2-18,4.4-25.2,10.6l-10.3-10.8c9.9-7.9,21.6-13.4,36.1-13.4,22.6,0,38.6,10.2,38.6,28.6s-8.4,21.6-21.7,26v.7c14.6,3.1,26,12.8,26,27.7s-19.1,31.8-42.1,31.8-32.7-6.9-41.1-15.2h0Z"/>
        <path id="_路径_4384" class="st41" d="M511,307.1l9.6-11.2c7.3,6.6,16.8,12.2,29.8,12.2s24-6.9,24-18.3-8.9-20.3-37.4-20.3v-12.8c24.9,0,33.1-8.3,33.1-19.4s-7.3-15.9-19.3-16.1c-9.7.2-18,4.4-25.2,10.6l-10.3-10.8c9.9-7.9,21.6-13.4,36.1-13.4,22.6,0,38.6,10.2,38.6,28.6s-8.4,21.6-21.7,26v.7c14.6,3.1,26,12.8,26,27.7s-19.1,31.8-42.1,31.8-32.7-6.9-41.1-15.2h0Z"/>
        <path id="_路径_4385" class="st41" d="M510.9,307.2l9.6-11.2c7.3,6.6,16.8,12.2,29.8,12.2s24-6.9,24-18.3-8.9-20.3-37.4-20.3v-12.8c24.9,0,33.1-8.3,33.1-19.4s-7.3-15.9-19.3-16.1c-9.7.2-18,4.4-25.2,10.6l-10.3-10.8c9.9-7.9,21.6-13.4,36.1-13.4,22.6,0,38.6,10.2,38.6,28.6s-8.4,21.6-21.7,26v.7c14.6,3.1,26,12.8,26,27.7s-19.1,31.8-42.1,31.8-32.7-6.9-41.1-15.2h0Z"/>
        <path id="_路径_4386" class="st41" d="M510.9,307.2l9.6-11.2c7.3,6.6,16.8,12.2,29.8,12.2s24-6.9,24-18.3-8.9-20.3-37.4-20.3v-12.8c24.9,0,33.1-8.3,33.1-19.4s-7.3-15.9-19.3-16.1c-9.7.2-18,4.4-25.2,10.6l-10.3-10.8c9.9-7.9,21.6-13.4,36.1-13.4,22.6,0,38.6,10.2,38.6,28.6s-8.4,21.6-21.7,26v.7c14.6,3.1,26,12.8,26,27.7s-19.1,31.8-42.1,31.8-32.7-6.9-41.1-15.2h0Z"/>
        <path id="_路径_4387" class="st41" d="M510.8,307.2l9.6-11.2c7.3,6.6,16.8,12.2,29.8,12.2s24-6.9,24-18.3-8.9-20.3-37.4-20.3v-12.8c24.9,0,33.1-8.3,33.1-19.4s-7.3-15.9-19.3-16.1c-9.7.2-18,4.4-25.2,10.6l-10.3-10.8c9.9-7.9,21.6-13.4,36.1-13.4,22.6,0,38.6,10.2,38.6,28.6s-8.4,21.6-21.7,26v.7c14.6,3.1,26,12.8,26,27.7s-19.1,31.8-42.1,31.8-32.7-6.9-41.1-15.2h0Z"/>
        <path id="_路径_4388" class="st41" d="M510.7,307.2l9.6-11.2c7.3,6.6,16.8,12.2,29.8,12.2s24-6.9,24-18.3-8.9-20.3-37.4-20.3v-12.8c24.9,0,33.1-8.3,33.1-19.4s-7.3-15.9-19.3-16.1c-9.7.2-18,4.4-25.2,10.6l-10.3-10.8c9.9-7.9,21.6-13.4,36.1-13.4,22.6,0,38.6,10.2,38.6,28.6s-8.4,21.6-21.7,26v.7c14.6,3.1,26,12.8,26,27.7s-19.1,31.8-42.1,31.8-32.7-6.9-41.1-15.2h0Z"/>
        <path id="_路径_4389" class="st41" d="M510.7,307.3l9.6-11.2c7.3,6.6,16.8,12.2,29.8,12.2s24-6.9,24-18.3-8.9-20.3-37.4-20.3v-12.8c24.9,0,33.1-8.3,33.1-19.4s-7.3-15.9-19.3-16.1c-9.7.2-18,4.4-25.2,10.6l-10.3-10.8c9.9-7.9,21.6-13.4,36.1-13.4,22.6,0,38.6,10.2,38.6,28.6s-8.4,21.6-21.7,26v.7c14.6,3.1,26,12.8,26,27.7s-19.1,31.8-42.1,31.8-32.7-6.9-41.1-15.2h0Z"/>
        <path id="_路径_4390" class="st41" d="M510.6,307.4l9.6-11.2c7.3,6.6,16.8,12.2,29.8,12.2s24-6.9,24-18.3-8.9-20.3-37.4-20.3v-12.8c24.9,0,33.1-8.3,33.1-19.4s-7.3-15.9-19.3-16.1c-9.7.2-18,4.4-25.2,10.6l-10.3-10.8c9.9-7.9,21.6-13.4,36.1-13.4,22.6,0,38.6,10.2,38.6,28.6s-8.4,21.6-21.7,26v.7c14.6,3.1,26,12.8,26,27.7s-19.1,31.8-42.1,31.8-32.7-6.9-41.1-15.2h0Z"/>
        <path id="_路径_4391" class="st41" d="M510.6,307.4l9.6-11.2c7.3,6.6,16.8,12.2,29.8,12.2s24-6.9,24-18.3-8.9-20.3-37.4-20.3v-12.8c24.9,0,33.1-8.3,33.1-19.4s-7.3-15.9-19.3-16.1c-9.7.2-18,4.4-25.2,10.6l-10.3-10.8c9.9-7.9,21.6-13.4,36.1-13.4,22.6,0,38.6,10.2,38.6,28.6s-8.4,21.6-21.7,26v.7c14.6,3.1,26,12.8,26,27.7s-19.1,31.8-42.1,31.8-32.7-6.9-41.1-15.2h0Z"/>
        <path id="_路径_4392" class="st41" d="M510.5,307.5l9.6-11.2c7.3,6.6,16.8,12.2,29.8,12.2s24-6.9,24-18.3-8.9-20.3-37.4-20.3v-12.8c24.9,0,33.1-8.3,33.1-19.4s-7.3-15.9-19.3-16.1c-9.7.2-18,4.4-25.2,10.6l-10.3-10.8c9.9-7.9,21.6-13.4,36.1-13.4,22.6,0,38.6,10.2,38.6,28.6s-8.4,21.6-21.7,26v.7c14.6,3.1,26,12.8,26,27.7s-19.1,31.8-42.1,31.8-32.7-6.9-41.1-15.2h0Z"/>
        <path id="_路径_4393" class="st41" d="M510.4,307.5l9.6-11.2c7.3,6.6,16.8,12.2,29.8,12.2s24-6.9,24-18.3-8.9-20.3-37.4-20.3v-12.8c24.9,0,33.1-8.3,33.1-19.4s-7.3-15.9-19.3-16.1c-9.7.2-18,4.4-25.2,10.6l-10.3-10.8c9.9-7.9,21.6-13.4,36.1-13.4,22.6,0,38.6,10.2,38.6,28.6s-8.4,21.6-21.7,26v.7c14.6,3.1,26,12.8,26,27.7s-19.1,31.8-42.1,31.8-32.7-6.9-41.1-15.2h0Z"/>
        <path id="_路径_4394" class="st41" d="M510.4,307.6l9.6-11.2c7.3,6.6,16.8,12.2,29.8,12.2s24-6.9,24-18.3-8.9-20.3-37.4-20.3v-12.8c24.9,0,33.1-8.3,33.1-19.4s-7.3-15.9-19.3-16.1c-9.7.2-18,4.4-25.2,10.6l-10.3-10.8c9.9-7.9,21.6-13.4,36.1-13.4,22.6,0,38.6,10.2,38.6,28.6s-8.4,21.6-21.7,26v.7c14.6,3.1,26,12.8,26,27.7s-19.1,31.8-42.1,31.8-32.7-6.9-41.1-15.2h0Z"/>
        <path id="_路径_4395" class="st41" d="M510.3,307.7l9.6-11.2c7.3,6.6,16.8,12.2,29.8,12.2s24-6.9,24-18.3-8.9-20.3-37.4-20.3v-12.8c24.9,0,33.1-8.3,33.1-19.4s-7.3-15.9-19.3-16.1c-9.7.2-18,4.4-25.2,10.6l-10.3-10.8c9.9-7.9,21.6-13.4,36.1-13.4,22.6,0,38.6,10.2,38.6,28.6s-8.4,21.6-21.7,26v.7c14.6,3.1,26,12.8,26,27.7s-19.1,31.8-42.1,31.8-32.7-6.9-41.1-15.2h0Z"/>
        <path id="_路径_4396" class="st41" d="M510.3,307.7l9.6-11.2c7.3,6.6,16.8,12.2,29.8,12.2s24-6.9,24-18.3-8.9-20.3-37.4-20.3v-12.8c24.9,0,33.1-8.3,33.1-19.4s-7.3-15.9-19.3-16.1c-9.7.2-18,4.4-25.2,10.6l-10.3-10.8c9.9-7.9,21.6-13.4,36.1-13.4,22.6,0,38.6,10.2,38.6,28.6s-8.4,21.6-21.7,26v.7c14.6,3.1,26,12.8,26,27.7s-19.1,31.8-42.1,31.8-32.7-6.9-41.1-15.2h0Z"/>
        <path id="_路径_4397" class="st41" d="M510.2,307.8l9.6-11.2c7.3,6.6,16.8,12.2,29.8,12.2s24-6.9,24-18.3-8.9-20.3-37.4-20.3v-12.8c24.9,0,33.1-8.3,33.1-19.4s-7.3-15.9-19.3-16.1c-9.7.2-18,4.4-25.2,10.6l-10.3-10.8c9.9-7.9,21.6-13.4,36.1-13.4,22.6,0,38.6,10.2,38.6,28.6s-8.4,21.6-21.7,26v.7c14.6,3.1,26,12.8,26,27.7s-19.1,31.8-42.1,31.8-32.7-6.9-41.1-15.2h0Z"/>
        <path id="_路径_4398" class="st41" d="M510.2,307.8l9.6-11.2c7.3,6.6,16.8,12.2,29.8,12.2s24-6.9,24-18.3-8.9-20.3-37.4-20.3v-12.8c24.9,0,33.1-8.3,33.1-19.4s-7.3-15.9-19.3-16.1c-9.7.2-18,4.4-25.2,10.6l-10.3-10.8c9.9-7.9,21.6-13.4,36.1-13.4,22.6,0,38.6,10.2,38.6,28.6s-8.4,21.6-21.7,26v.7c14.6,3.1,26,12.8,26,27.7s-19.1,31.8-42.1,31.8-32.7-6.9-41.1-15.2h0Z"/>
        <path id="_路径_4399" class="st41" d="M510.2,307.9l9.6-11.2c7.3,6.6,16.8,12.2,29.8,12.2s24-6.9,24-18.3-8.9-20.3-37.4-20.3v-12.8c24.9,0,33.1-8.3,33.1-19.4s-7.3-15.9-19.3-16.1c-9.7.2-18,4.4-25.2,10.6l-10.3-10.8c9.9-7.9,21.6-13.4,36.1-13.4,22.6,0,38.6,10.2,38.6,28.6s-8.4,21.6-21.7,26v.7c14.6,3.1,26,12.8,26,27.7s-19.1,31.8-42.1,31.8-32.7-6.9-41.1-15.2h0Z"/>
        <path id="_路径_4400" class="st41" d="M510.1,308l9.6-11.2c7.3,6.6,16.8,12.2,29.8,12.2s24-6.9,24-18.3-8.9-20.3-37.4-20.3v-12.8c24.9,0,33.1-8.3,33.1-19.4s-7.3-15.9-19.3-16.1c-9.7.2-18,4.4-25.2,10.6l-10.3-10.8c9.9-7.9,21.6-13.4,36.1-13.4,22.6,0,38.6,10.2,38.6,28.6s-8.4,21.6-21.7,26v.7c14.6,3.1,26,12.8,26,27.7s-19.1,31.8-42.1,31.8-32.7-6.9-41.1-15.2h0Z"/>
        <path id="_路径_4401" class="st41" d="M510.1,308l9.6-11.2c7.3,6.6,16.8,12.2,29.8,12.2s24-6.9,24-18.3-8.9-20.3-37.4-20.3v-12.8c24.9,0,33.1-8.3,33.1-19.4s-7.3-15.9-19.3-16.1c-9.7.2-18,4.4-25.2,10.6l-10.3-10.8c9.9-7.9,21.6-13.4,36.1-13.4,22.6,0,38.6,10.2,38.6,28.6s-8.4,21.6-21.7,26v.7c14.6,3.1,26,12.8,26,27.7s-19.1,31.8-42.1,31.8-32.7-6.9-41.1-15.2h0Z"/>
        <path id="_路径_4402" class="st41" d="M510,308.1l9.6-11.2c7.3,6.6,16.8,12.2,29.8,12.2s24-6.9,24-18.3-8.9-20.3-37.4-20.3v-12.8c24.9,0,33.1-8.3,33.1-19.4s-7.3-15.9-19.3-16.1c-9.7.2-18,4.4-25.2,10.6l-10.3-10.8c9.9-7.9,21.6-13.4,36.1-13.4,22.6,0,38.6,10.2,38.6,28.6s-8.4,21.6-21.7,26v.7c14.6,3.1,26,12.8,26,27.7s-19.1,31.8-42.1,31.8-32.7-6.9-41.1-15.2h0Z"/>
        <path id="_路径_4403" class="st41" d="M509.9,308.1l9.6-11.2c7.3,6.6,16.8,12.2,29.8,12.2s24-6.9,24-18.3-8.9-20.3-37.4-20.3v-12.8c24.9,0,33.1-8.3,33.1-19.4s-7.3-15.9-19.3-16.1c-9.7.2-18,4.4-25.2,10.6l-10.3-10.8c9.9-7.9,21.6-13.4,36.1-13.4,22.6,0,38.6,10.2,38.6,28.6s-8.4,21.6-21.7,26v.7c14.6,3.1,26,12.8,26,27.7s-19.1,31.8-42.1,31.8-32.7-6.9-41.1-15.2h0Z"/>
        <path id="_路径_4404" class="st41" d="M509.9,308.1l9.6-11.2c7.3,6.6,16.8,12.2,29.8,12.2s24-6.9,24-18.3-8.9-20.3-37.4-20.3v-12.8c24.9,0,33.1-8.3,33.1-19.4s-7.3-15.9-19.3-16.1c-9.7.2-18,4.4-25.2,10.6l-10.3-10.8c9.9-7.9,21.6-13.4,36.1-13.4,22.6,0,38.6,10.2,38.6,28.6s-8.4,21.6-21.7,26v.7c14.6,3.1,26,12.8,26,27.7s-19.1,31.8-42.1,31.8-32.7-6.9-41.1-15.2h0Z"/>
        <path id="_路径_4405" class="st41" d="M509.8,308.2l9.6-11.2c7.3,6.6,16.8,12.2,29.8,12.2s24-6.9,24-18.3-8.9-20.3-37.4-20.3v-12.8c24.9,0,33.1-8.3,33.1-19.4s-7.3-15.9-19.3-16.1c-9.7.2-18,4.4-25.2,10.6l-10.3-10.8c9.9-7.9,21.6-13.4,36.1-13.4,22.6,0,38.6,10.2,38.6,28.6s-8.4,21.6-21.7,26v.7c14.6,3.1,26,12.8,26,27.7s-19.1,31.8-42.1,31.8-32.7-6.9-41.1-15.2h0Z"/>
        <path id="_路径_4406" class="st41" d="M509.8,308.2l9.6-11.2c7.3,6.6,16.8,12.2,29.8,12.2s24-6.9,24-18.3-8.9-20.3-37.4-20.3v-12.8c24.9,0,33.1-8.3,33.1-19.4s-7.3-15.9-19.3-16.1c-9.7.2-18,4.4-25.2,10.6l-10.3-10.8c9.9-7.9,21.6-13.4,36.1-13.4,22.6,0,38.6,10.2,38.6,28.6s-8.4,21.6-21.7,26v.7c14.6,3.1,26,12.8,26,27.7s-19.1,31.8-42.1,31.8-32.7-6.9-41.1-15.2h0Z"/>
        <path id="_路径_4407" class="st41" d="M509.7,308.3l9.6-11.2c7.3,6.6,16.8,12.2,29.8,12.2s24-6.9,24-18.3-8.9-20.3-37.4-20.3v-12.8c24.9,0,33.1-8.3,33.1-19.4s-7.3-15.9-19.3-16.1c-9.7.2-18,4.4-25.2,10.6l-10.3-10.8c9.9-7.9,21.6-13.4,36.1-13.4,22.6,0,38.6,10.2,38.6,28.6s-8.4,21.6-21.7,26v.7c14.6,3.1,26,12.8,26,27.7s-19.1,31.8-42.1,31.8-32.7-6.9-41.1-15.2h0Z"/>
        <path id="_路径_4408" class="st41" d="M509.6,308.3l9.6-11.2c7.3,6.6,16.8,12.2,29.8,12.2s24-6.9,24-18.3-8.9-20.3-37.4-20.3v-12.8c24.9,0,33.1-8.3,33.1-19.4s-7.3-15.9-19.3-16.1c-9.7.2-18,4.4-25.2,10.6l-10.3-10.8c9.9-7.9,21.6-13.4,36.1-13.4,22.6,0,38.6,10.2,38.6,28.6s-8.4,21.6-21.7,26v.7c14.6,3.1,26,12.8,26,27.7s-19.1,31.8-42.1,31.8-32.7-6.9-41.1-15.2h0Z"/>
        <path id="_路径_4409" class="st41" d="M509.6,308.4l9.6-11.2c7.3,6.6,16.8,12.2,29.8,12.2s24-6.9,24-18.3-8.9-20.3-37.4-20.3v-12.8c24.9,0,33.1-8.3,33.1-19.4s-7.3-15.9-19.3-16.1c-9.7.2-18,4.4-25.2,10.6l-10.3-10.8c9.9-7.9,21.6-13.4,36.1-13.4,22.6,0,38.6,10.2,38.6,28.6s-8.4,21.6-21.7,26v.7c14.6,3.1,26,12.8,26,27.7s-19.1,31.8-42.1,31.8-32.7-6.9-41.1-15.2h0Z"/>
        <path id="_路径_4410" class="st41" d="M509.5,308.5l9.6-11.2c7.3,6.6,16.8,12.2,29.8,12.2s24-6.9,24-18.3-8.9-20.3-37.4-20.3v-12.8c24.9,0,33.1-8.3,33.1-19.4s-7.3-15.9-19.3-16.1c-9.7.2-18,4.4-25.2,10.6l-10.3-10.8c9.9-7.9,21.6-13.4,36.1-13.4,22.6,0,38.6,10.2,38.6,28.6s-8.4,21.6-21.7,26v.7c14.6,3.1,26,12.8,26,27.7s-19.1,31.8-42.1,31.8-32.7-6.9-41.1-15.2h0Z"/>
        <path id="_路径_4411" class="st41" d="M509.5,308.5l9.6-11.2c7.3,6.6,16.8,12.2,29.8,12.2s24-6.9,24-18.3-8.9-20.3-37.4-20.3v-12.8c24.9,0,33.1-8.3,33.1-19.4s-7.3-15.9-19.3-16.1c-9.7.2-18,4.4-25.2,10.6l-10.3-10.8c9.9-7.9,21.6-13.4,36.1-13.4,22.6,0,38.6,10.2,38.6,28.6s-8.4,21.6-21.7,26v.7c14.6,3.1,26,12.8,26,27.7s-19.1,31.8-42.1,31.8-32.7-6.9-41.1-15.2h0Z"/>
        <path id="_路径_4412" class="st41" d="M509.4,308.6l9.6-11.2c7.3,6.6,16.8,12.2,29.8,12.2s24-6.9,24-18.3-8.9-20.3-37.4-20.3v-12.8c24.9,0,33.1-8.3,33.1-19.4s-7.3-15.9-19.3-16.1c-9.7.2-18,4.4-25.2,10.6l-10.3-10.8c9.9-7.9,21.6-13.4,36.1-13.4,22.6,0,38.6,10.2,38.6,28.6s-8.4,21.6-21.7,26v.7c14.6,3.1,26,12.8,26,27.7s-19.1,31.8-42.1,31.8-32.7-6.9-41.1-15.2h0Z"/>
        <path id="_路径_4413" class="st41" d="M509.3,308.6l9.6-11.2c7.3,6.6,16.8,12.2,29.8,12.2s24-6.9,24-18.3-8.9-20.3-37.4-20.3v-12.8c24.9,0,33.1-8.3,33.1-19.4s-7.3-15.9-19.3-16.1c-9.7.2-18,4.4-25.2,10.6l-10.3-10.8c9.9-7.9,21.6-13.4,36.1-13.4,22.6,0,38.6,10.2,38.6,28.6s-8.4,21.6-21.7,26v.7c14.6,3.1,26,12.8,26,27.7s-19.1,31.8-42.1,31.8-32.7-6.9-41.1-15.2h0Z"/>
        <path id="_路径_4414" class="st41" d="M509.3,308.7l9.6-11.2c7.3,6.6,16.8,12.2,29.8,12.2s24-6.9,24-18.3-8.9-20.3-37.4-20.3v-12.8c24.9,0,33.1-8.3,33.1-19.4s-7.3-15.9-19.3-16.1c-9.7.2-18,4.4-25.2,10.6l-10.3-10.8c9.9-7.9,21.6-13.4,36.1-13.4,22.6,0,38.6,10.2,38.6,28.6s-8.4,21.6-21.7,26v.7c14.6,3.1,26,12.8,26,27.7s-19.1,31.8-42.1,31.8-32.7-6.9-41.1-15.2h0Z"/>
        <path id="_路径_4415" class="st41" d="M509.3,308.7l9.6-11.2c7.3,6.6,16.8,12.2,29.8,12.2s24-6.9,24-18.3-8.9-20.3-37.4-20.3v-12.8c24.9,0,33.1-8.3,33.1-19.4s-7.3-15.9-19.3-16.1c-9.7.2-18,4.4-25.2,10.6l-10.3-10.8c9.9-7.9,21.6-13.4,36.1-13.4,22.6,0,38.6,10.2,38.6,28.6s-8.4,21.6-21.7,26v.7c14.6,3.1,26,12.8,26,27.7s-19.1,31.8-42.1,31.8-32.7-6.9-41.1-15.2h0Z"/>
        <path id="_路径_4416" class="st41" d="M509.3,308.8l9.6-11.2c7.3,6.6,16.8,12.2,29.8,12.2s24-6.9,24-18.3-8.9-20.3-37.4-20.3v-12.8c24.9,0,33.1-8.3,33.1-19.4s-7.3-15.9-19.3-16.1c-9.7.2-18,4.4-25.2,10.6l-10.3-10.8c9.9-7.9,21.6-13.4,36.1-13.4,22.6,0,38.6,10.2,38.6,28.6s-8.4,21.6-21.7,26v.7c14.6,3.1,26,12.8,26,27.7s-19.1,31.8-42.1,31.8-32.7-6.9-41.1-15.2h0Z"/>
        <path id="_路径_4417" class="st41" d="M509.2,308.9l9.6-11.2c7.3,6.6,16.8,12.2,29.8,12.2s24-6.9,24-18.3-8.9-20.3-37.4-20.3v-12.8c24.9,0,33.1-8.3,33.1-19.4s-7.3-15.9-19.3-16.1c-9.7.2-18,4.4-25.2,10.6l-10.3-10.8c9.9-7.9,21.6-13.4,36.1-13.4,22.6,0,38.6,10.2,38.6,28.6s-8.4,21.6-21.7,26v.7c14.6,3.1,26,12.8,26,27.7s-19.1,31.8-42.1,31.8-32.7-6.9-41.1-15.2h0Z"/>
        <path id="_路径_4418" class="st41" d="M509.1,308.9l9.6-11.2c7.3,6.6,16.8,12.2,29.8,12.2s24-6.9,24-18.3-8.9-20.3-37.4-20.3v-12.8c24.9,0,33.1-8.3,33.1-19.4s-7.3-15.9-19.3-16.1c-9.7.2-18,4.4-25.2,10.6l-10.3-10.8c9.9-7.9,21.6-13.4,36.1-13.4,22.6,0,38.6,10.2,38.6,28.6s-8.4,21.6-21.7,26v.7c14.6,3.1,26,12.8,26,27.7s-19.1,31.8-42.1,31.8-32.7-6.9-41.1-15.2h0Z"/>
        <path id="_路径_4419" class="st41" d="M509.1,308.9l9.6-11.2c7.3,6.6,16.8,12.2,29.8,12.2s24-6.9,24-18.3-8.9-20.3-37.4-20.3v-12.8c24.9,0,33.1-8.3,33.1-19.4s-7.3-15.9-19.3-16.1c-9.7.2-18,4.4-25.2,10.6l-10.3-10.8c9.9-7.9,21.6-13.4,36.1-13.4,22.6,0,38.6,10.2,38.6,28.6s-8.4,21.6-21.7,26v.7c14.6,3.1,26,12.8,26,27.7s-19.1,31.8-42.1,31.8-32.7-6.9-41.1-15.2h0Z"/>
        <path id="_路径_4420" class="st41" d="M509,308.9l9.6-11.2c7.3,6.6,16.8,12.2,29.8,12.2s24-6.9,24-18.3-8.9-20.3-37.4-20.3v-12.8c24.9,0,33.1-8.3,33.1-19.4s-7.3-15.9-19.3-16.1c-9.7.2-18,4.4-25.2,10.6l-10.3-10.8c9.9-7.9,21.6-13.4,36.1-13.4,22.6,0,38.6,10.2,38.6,28.6s-8.4,21.6-21.7,26v.7c14.6,3.1,26,12.8,26,27.7s-19.1,31.8-42.1,31.8-32.7-6.9-41.1-15.2h0Z"/>
        <path id="_路径_4421" class="st41" d="M509,309l9.6-11.2c7.3,6.6,16.8,12.2,29.8,12.2s24-6.9,24-18.3-8.9-20.3-37.4-20.3v-12.8c24.9,0,33.1-8.3,33.1-19.4s-7.3-15.9-19.3-16.1c-9.7.2-18,4.4-25.2,10.6l-10.3-10.8c9.9-7.9,21.6-13.4,36.1-13.4,22.6,0,38.6,10.2,38.6,28.6s-8.4,21.6-21.7,26v.7c14.6,3.1,26,12.8,26,27.7s-19.1,31.8-42.1,31.8-32.7-6.9-41.1-15.2h0Z"/>
        <path id="_路径_4422" class="st47" d="M509,309l9.6-11.2c7.3,6.6,16.8,12.2,29.8,12.2s24-6.9,24-18.3-8.9-20.3-37.4-20.3v-12.8c24.9,0,33.1-8.3,33.1-19.4s-7.3-15.9-19.3-16.1c-9.7.2-18,4.4-25.2,10.6l-10.3-10.8c9.9-7.9,21.6-13.4,36.1-13.4,22.6,0,38.6,10.2,38.6,28.6s-8.4,21.6-21.7,26v.7c14.6,3.1,26,12.8,26,27.7s-19.1,31.8-42.1,31.8-32.7-6.9-41.1-15.2h0Z"/>
      </g>
      <g id="_图层_1-2">
        <path id="_路径_4218" class="st41" d="M123.9,298.9h13.9v19.6h-13.9v26.6h-24.3v-26.6h-50.3l-1.1-15.3,51.1-80.8h24.6v76.5h0ZM72.5,298.9h27.1v-43.3l-1.6,2.8-25.5,40.5h0Z"/>
        <path id="_路径_4219" class="st41" d="M123.9,299h13.9v19.6h-13.9v26.6h-24.3v-26.6h-50.3l-1.1-15.3,51.1-80.8h24.6v76.5ZM72.5,299h27.1v-43.3l-1.6,2.8-25.5,40.5h0Z"/>
        <path id="_路径_4220" class="st41" d="M124,299h13.9v19.6h-13.9v26.6h-24.3v-26.6h-50.3l-1.1-15.3,51.1-80.8h24.6v76.5ZM72.5,299h27.1v-43.3l-1.6,2.8-25.5,40.5h0Z"/>
        <path id="_路径_4221" class="st41" d="M124,299h13.9v19.6h-13.9v26.6h-24.3v-26.6h-50.3l-1.1-15.3,51.1-80.8h24.6v76.5ZM72.6,299h27.1v-43.3l-1.6,2.8-25.5,40.5h0Z"/>
        <path id="_路径_4222" class="st41" d="M124,299.1h13.9v19.6h-13.9v26.6h-24.3v-26.6h-50.3l-1.1-15.3,51.1-80.8h24.6v76.5ZM72.6,299.1h27.1v-43.3l-1.6,2.8-25.5,40.5h0Z"/>
        <path id="_路径_4223" class="st41" d="M124.1,299.1h13.9v19.6h-13.9v26.6h-24.3v-26.6h-50.3l-1.1-15.3,51.1-80.8h24.6v76.5ZM72.6,299.1h27.1v-43.3l-1.6,2.8-25.5,40.5h0Z"/>
        <path id="_路径_4224" class="st41" d="M124.1,299.1h13.9v19.6h-13.9v26.6h-24.3v-26.6h-50.3l-1.1-15.3,51.1-80.8h24.6v76.5ZM72.7,299.1h27.1v-43.3l-1.6,2.8-25.5,40.5h0Z"/>
        <path id="_路径_4225" class="st41" d="M124.1,299.1h13.9v19.6h-13.9v26.6h-24.3v-26.6h-50.3l-1.1-15.3,51.1-80.8h24.6v76.5ZM72.7,299.1h27.1v-43.3l-1.6,2.8-25.5,40.5h0Z"/>
        <path id="_路径_4226" class="st41" d="M124.1,299.2h13.9v19.6h-13.9v26.6h-24.3v-26.6h-50.3l-1.1-15.3,51.1-80.8h24.6v76.5h0ZM72.7,299.2h27.1v-43.3l-1.6,2.8-25.5,40.5h0Z"/>
        <path id="_路径_4227" class="st41" d="M124.2,299.2h13.9v19.6h-13.9v26.6h-24.3v-26.6h-50.3l-1.1-15.3,51.1-80.8h24.6v76.5h0ZM72.8,299.2h27.1v-43.3l-1.6,2.8-25.5,40.5h0Z"/>
        <path id="_路径_4228" class="st41" d="M124.2,299.2h13.9v19.6h-13.9v26.6h-24.3v-26.6h-50.3l-1.1-15.3,51.1-80.8h24.6v76.5h0ZM72.8,299.2h27.1v-43.3l-1.6,2.8-25.5,40.5h0Z"/>
        <path id="_路径_4229" class="st41" d="M124.2,299.3h13.9v19.6h-13.9v26.6h-24.3v-26.6h-50.3l-1.1-15.3,51.1-80.8h24.6v76.5ZM72.8,299.3h27.1v-43.3l-1.6,2.8-25.5,40.5h0Z"/>
        <path id="_路径_4230" class="st41" d="M124.3,299.3h13.9v19.6h-13.9v26.6h-24.3v-26.6h-50.3l-1.1-15.3,51.1-80.8h24.6v76.5ZM72.9,299.3h27.1v-43.3l-1.6,2.8-25.5,40.5h0Z"/>
        <path id="_路径_4231" class="st41" d="M124.3,299.3h13.9v19.6h-13.9v26.6h-24.3v-26.6h-50.3l-1.1-15.3,51.1-80.8h24.6v76.5ZM72.9,299.3h27.1v-43.3l-1.6,2.8-25.5,40.5h0Z"/>
        <path id="_路径_4232" class="st41" d="M124.3,299.4h13.9v19.6h-13.9v26.6h-24.3v-26.6h-50.3l-1.1-15.3,51.1-80.8h24.6v76.5h0ZM72.9,299.4h27.1v-43.3l-1.6,2.8-25.5,40.5h0Z"/>
        <path id="_路径_4233" class="st41" d="M124.4,299.4h13.9v19.6h-13.9v26.5h-24.3v-26.5h-50.3l-1.1-15.3,51.1-80.8h24.6v76.5h0ZM73,299.4h27.1v-43.3l-1.6,2.8-25.5,40.5h0Z"/>
        <path id="_路径_4234" class="st41" d="M124.4,299.4h13.9v19.6h-13.9v26.6h-24.3v-26.6h-50.3l-1.1-15.3,51.1-80.8h24.6v76.5h0ZM73,299.4h27.1v-43.3l-1.6,2.8-25.5,40.5h0Z"/>
        <path id="_路径_4235" class="st41" d="M124.4,299.5h13.9v19.6h-13.9v26.6h-24.3v-26.6h-50.3l-1.1-15.3,51.1-80.8h24.6v76.5ZM73,299.5h27.1v-43.3l-1.6,2.8-25.5,40.5h0Z"/>
        <path id="_路径_4236" class="st41" d="M124.5,299.5h13.9v19.6h-13.9v26.6h-24.3v-26.6h-50.3l-1.1-15.3,51.1-80.8h24.6v76.5h0ZM73,299.5h27.1v-43.3l-1.6,2.8-25.5,40.5h0Z"/>
        <path id="_路径_4237" class="st41" d="M124.5,299.5h13.9v19.6h-13.9v26.6h-24.3v-26.6h-50.3l-1.1-15.3,51.1-80.8h24.6v76.5ZM73,299.5h27.1v-43.3l-1.6,2.8-25.5,40.5h0Z"/>
        <path id="_路径_4238" class="st41" d="M124.5,299.6h13.9v19.6h-13.9v26.6h-24.3v-26.6h-50.3l-1.1-15.3,51.1-80.8h24.6v76.5ZM73,299.6h27.1v-43.3l-1.6,2.8-25.5,40.5h0Z"/>
        <path id="_路径_4239" class="st41" d="M124.6,299.6h13.9v19.6h-13.9v26.6h-24.3v-26.6h-50.3l-1.1-15.3,51.1-80.8h24.6v76.5h0ZM73,299.6h27.1v-43.3l-1.6,2.8-25.5,40.5h0Z"/>
        <path id="_路径_4240" class="st41" d="M124.6,299.6h13.9v19.6h-13.9v26.6h-24.3v-26.6h-50.3l-1.1-15.3,51.1-80.8h24.6v76.5ZM73.1,299.6h27.1v-43.3l-1.6,2.8-25.5,40.5h0Z"/>
        <path id="_路径_4241" class="st41" d="M124.6,299.6h13.9v19.6h-13.9v26.6h-24.3v-26.6h-50.3l-1.1-15.3,51.1-80.8h24.6v76.5h0ZM73.1,299.6h27.1v-43.3l-1.6,2.8-25.5,40.5h0Z"/>
        <path id="_路径_4242" class="st41" d="M124.6,299.6h13.9v19.6h-13.9v26.6h-24.3v-26.6h-50.3l-1.1-15.3,51.1-80.8h24.6v76.5h0ZM73.1,299.6h27.1v-43.3l-1.6,2.8-25.5,40.5h0Z"/>
        <path id="_路径_4243" class="st41" d="M124.6,299.6h13.9v19.6h-13.9v26.6h-24.3v-26.6h-50.3l-1.1-15.3,51.1-80.8h24.6v76.5h0ZM73.2,299.6h27.1v-43.3l-1.6,2.8-25.5,40.5h0Z"/>
        <path id="_路径_4244" class="st41" d="M124.6,299.7h13.9v19.6h-13.9v26.6h-24.3v-26.6h-50.3l-1.1-15.3,51.1-80.8h24.6v76.5ZM73.2,299.7h27.1v-43.3l-1.6,2.8-25.5,40.5h0Z"/>
        <path id="_路径_4245" class="st41" d="M124.7,299.7h13.9v19.6h-13.9v26.6h-24.3v-26.6h-50.3l-1.1-15.3,51.1-80.8h24.6v76.5ZM73.2,299.7h27.1v-43.3l-1.6,2.8-25.5,40.5h0Z"/>
        <path id="_路径_4246" class="st41" d="M124.7,299.7h13.9v19.6h-13.9v26.6h-24.3v-26.6h-50.3l-1.1-15.3,51.1-80.8h24.6v76.5ZM73.3,299.7h27.1v-43.3l-1.6,2.8-25.5,40.5h0Z"/>
        <path id="_路径_4247" class="st41" d="M124.7,299.8h13.9v19.6h-13.9v26.6h-24.3v-26.6h-50.3l-1.1-15.3,51.1-80.8h24.6v76.5h0ZM73.3,299.8h27.1v-43.3l-1.6,2.8-25.5,40.5h0Z"/>
        <path id="_路径_4248" class="st41" d="M124.8,299.8h13.9v19.6h-13.9v26.6h-24.3v-26.6h-50.3l-1.1-15.3,51.1-80.8h24.6v76.5h0ZM73.3,299.8h27.1v-43.3l-1.6,2.8-25.5,40.5h0Z"/>
        <path id="_路径_4249" class="st41" d="M124.8,299.8h13.9v19.6h-13.9v26.6h-24.3v-26.6h-50.3l-1.1-15.3,51.1-80.8h24.6v76.5h0ZM73.4,299.8h27.1v-43.3l-1.6,2.8-25.5,40.5h0Z"/>
        <path id="_路径_4250" class="st41" d="M124.8,299.9h13.9v19.6h-13.9v26.6h-24.3v-26.6h-50.3l-1.1-15.3,51.1-80.8h24.6v76.5ZM73.4,299.9h27.1v-43.3l-1.6,2.8-25.5,40.5h0Z"/>
        <path id="_路径_4251" class="st41" d="M124.9,299.9h13.9v19.6h-13.9v26.6h-24.3v-26.6h-50.3l-1.1-15.3,51.1-80.8h24.6v76.5ZM73.4,299.9h27.1v-43.3l-1.6,2.8-25.5,40.5h0Z"/>
        <path id="_路径_4252" class="st41" d="M124.9,299.9h13.9v19.6h-13.9v26.6h-24.3v-26.6h-50.3l-1.1-15.3,51.1-80.8h24.6v76.5ZM73.5,299.9h27.1v-43.3l-1.6,2.8-25.5,40.5h0Z"/>
        <path id="_路径_4253" class="st41" d="M124.9,299.9h13.9v19.6h-13.9v26.6h-24.3v-26.6h-50.3l-1.1-15.3,51.1-80.8h24.6v76.5ZM73.5,299.9h27.1v-43.3l-1.6,2.8-25.5,40.5h0Z"/>
        <path id="_路径_4254" class="st41" d="M124.9,300h13.9v19.6h-13.9v26.6h-24.3v-26.6h-50.3l-1.1-15.3,51.1-80.8h24.6v76.5ZM73.5,300h27.1v-43.3l-1.6,2.8-25.5,40.5h0Z"/>
        <path id="_路径_4255" class="st41" d="M125,300h13.9v19.6h-13.9v26.6h-24.3v-26.6h-50.3l-1.1-15.3,51.1-80.8h24.6v76.5ZM73.6,300h27.1v-43.3l-1.6,2.8-25.5,40.5h0Z"/>
        <path id="_路径_4256" class="st41" d="M125,300h13.9v19.6h-13.9v26.6h-24.3v-26.6h-50.3l-1.1-15.3,51.1-80.8h24.6v76.5ZM73.6,300h27.1v-43.3l-1.6,2.8-25.5,40.5h0Z"/>
        <path id="_路径_4257" class="st41" d="M125,300.1h13.9v19.6h-13.9v26.6h-24.3v-26.6h-50.3l-1.1-15.3,51.1-80.8h24.6v76.5h0ZM73.6,300.1h27.1v-43.3l-1.6,2.8-25.5,40.5h0Z"/>
        <path id="_路径_4258" class="st41" d="M125.1,300.1h13.9v19.6h-13.9v26.6h-24.3v-26.6h-50.3l-1.1-15.3,51.1-80.8h24.6v76.5h0ZM73.7,300.1h27.1v-43.3l-1.6,2.8-25.5,40.5h0Z"/>
        <path id="_路径_4259" class="st41" d="M125.1,300.1h13.9v19.6h-13.9v26.5h-24.3v-26.5h-50.3l-1.1-15.3,51.1-80.8h24.6v76.5h0ZM73.7,300.1h27.1v-43.3l-1.6,2.8-25.5,40.5h0Z"/>
        <path id="_路径_4260" class="st41" d="M125.1,300.2h13.9v19.6h-13.9v26.6h-24.3v-26.6h-50.3l-1.1-15.3,51.1-80.8h24.6v76.5ZM73.7,300.2h27.1v-43.3l-1.6,2.8-25.5,40.5h0Z"/>
        <path id="_路径_4261" class="st41" d="M125.2,300.2h13.9v19.6h-13.9v26.6h-24.3v-26.6h-50.3l-1.1-15.3,51.1-80.8h24.6v76.5h0ZM73.8,300.2h27.1v-43.3l-1.6,2.8-25.5,40.5h0Z"/>
        <path id="_路径_4262" class="st41" d="M125.2,300.2h13.9v19.6h-13.9v26.6h-24.3v-26.6h-50.3l-1.1-15.3,51.1-80.8h24.6v76.5ZM73.8,300.2h27.1v-43.3l-1.6,2.8-25.5,40.5h0Z"/>
        <path id="_路径_4263" class="st41" d="M125.2,300.3h13.9v19.6h-13.9v26.6h-24.3v-26.6h-50.3l-1.1-15.3,51.1-80.8h24.6v76.5h0ZM73.8,300.3h27.1v-43.3l-1.6,2.8-25.5,40.5h0Z"/>
        <path id="_路径_4264" class="st41" d="M125.3,300.3h13.9v19.6h-13.9v26.6h-24.3v-26.6h-50.3l-1.1-15.3,51.1-80.8h24.6v76.5h0ZM73.8,300.3h27.1v-43.3l-1.6,2.8-25.5,40.5h0Z"/>
        <path id="_路径_4265" class="st41" d="M125.3,300.3h13.9v19.6h-13.9v26.6h-24.3v-26.6h-50.3l-1.1-15.3,51.1-80.8h24.6v76.5h0ZM73.8,300.3h27.1v-43.3l-1.6,2.8-25.5,40.5h0Z"/>
        <path id="_路径_4266" class="st41" d="M125.3,300.4h13.9v19.6h-13.9v26.6h-24.3v-26.6h-50.3l-1.1-15.3,51.1-80.8h24.6v76.5ZM73.8,300.4h27.1v-43.3l-1.6,2.8-25.5,40.5h0Z"/>
        <path id="_路径_4267" class="st41" d="M125.4,300.4h13.9v19.6h-13.9v26.6h-24.3v-26.6h-50.3l-1.1-15.3,51.1-80.8h24.6v76.5ZM73.8,300.4h27.1v-43.3l-1.6,2.8-25.5,40.5h0Z"/>
        <path id="_路径_4268" class="st41" d="M125.4,300.4h13.9v19.6h-13.9v26.6h-24.3v-26.6h-50.3l-1.1-15.3,51.1-80.8h24.6v76.5ZM73.9,300.4h27.1v-43.3l-1.6,2.8-25.5,40.5h0Z"/>
        <path id="_路径_4269" class="st41" d="M125.4,300.5h13.9v19.6h-13.9v26.6h-24.3v-26.6h-50.3l-1.1-15.3,51.1-80.8h24.6v76.5ZM73.9,300.5h27.1v-43.3l-1.6,2.8-25.5,40.5h0Z"/>
        <path id="_路径_4270" class="st41" d="M125.5,300.5h13.9v19.6h-13.9v26.6h-24.3v-26.6h-50.3l-1.1-15.3,51.1-80.8h24.6v76.5ZM73.9,300.5h27.1v-43.3l-1.6,2.8-25.5,40.5h0Z"/>
        <path id="_路径_4271" class="st41" d="M125.5,300.5h13.9v19.6h-13.9v26.6h-24.3v-26.6h-50.3l-1.1-15.3,51.1-80.8h24.6v76.5h0ZM74,300.5h27.1v-43.3l-1.6,2.8-25.5,40.5h0Z"/>
        <path id="_路径_4272" class="st41" d="M125.5,300.5h13.9v19.6h-13.9v26.6h-24.3v-26.6h-50.3l-1.1-15.3,51.1-80.8h24.6v76.5h0ZM74,300.5h27.1v-43.3l-1.6,2.8-25.5,40.5h0Z"/>
        <path id="_路径_4273" class="st41" d="M125.5,300.5h13.9v19.6h-13.9v26.6h-24.3v-26.6h-50.3l-1.1-15.3,51.1-80.8h24.6v76.5h0ZM74,300.5h27.1v-43.3l-1.6,2.8-25.5,40.5h0Z"/>
        <path id="_路径_4274" class="st41" d="M125.5,300.5h13.9v19.6h-13.9v26.6h-24.3v-26.6h-50.3l-1.1-15.3,51.1-80.8h24.6v76.5h0ZM74.1,300.5h27.1v-43.3l-1.6,2.8-25.5,40.5h0Z"/>
        <path id="_路径_4275" class="st41" d="M125.5,300.6h13.9v19.6h-13.9v26.6h-24.3v-26.6h-50.3l-1.1-15.3,51.1-80.8h24.6v76.5ZM74.1,300.6h27.1v-43.3l-1.6,2.8-25.5,40.5h0Z"/>
        <path id="_路径_4276" class="st41" d="M125.6,300.6h13.9v19.6h-13.9v26.6h-24.3v-26.6h-50.3l-1.1-15.3,51.1-80.8h24.6v76.5ZM74.1,300.6h27.1v-43.3l-1.6,2.8-25.5,40.5h0Z"/>
        <path id="_路径_4277" class="st41" d="M125.6,300.6h13.9v19.6h-13.9v26.6h-24.3v-26.6h-50.3l-1.1-15.3,51.1-80.8h24.6v76.5ZM74.2,300.6h27.1v-43.3l-1.6,2.8-25.5,40.5h0Z"/>
        <path id="_路径_4278" class="st41" d="M125.6,300.6h13.9v19.6h-13.9v26.6h-24.3v-26.6h-50.3l-1.1-15.3,51.1-80.8h24.6v76.5ZM74.2,300.6h27.1v-43.3l-1.6,2.8-25.5,40.5h0Z"/>
        <path id="_路径_4279" class="st41" d="M125.7,300.7h13.9v19.6h-13.9v26.6h-24.3v-26.6h-50.3l-1.1-15.3,51.1-80.8h24.6v76.5h0ZM74.2,300.7h27.1v-43.3l-1.6,2.8-25.5,40.5h0Z"/>
        <path id="_路径_4280" class="st41" d="M125.7,300.7h13.9v19.6h-13.9v26.6h-24.3v-26.6h-50.3l-1.1-15.3,51.1-80.8h24.6v76.5h0ZM74.3,300.7h27.1v-43.3l-1.6,2.8-25.5,40.5h0Z"/>
        <path id="_路径_4281" class="st41" d="M125.7,300.7h13.9v19.6h-13.9v26.6h-24.3v-26.6h-50.3l-1.1-15.3,51.1-80.8h24.6v76.5h0ZM74.3,300.7h27.1v-43.3l-1.6,2.8-25.5,40.5h0Z"/>
        <path id="_路径_4282" class="st41" d="M125.7,300.8h13.9v19.6h-13.9v26.6h-24.3v-26.6h-50.3l-1.1-15.3,51.1-80.8h24.6v76.5h0ZM74.3,300.8h27.1v-43.3l-1.6,2.8-25.5,40.5h0Z"/>
        <path id="_路径_4283" class="st41" d="M125.8,300.8h13.9v19.6h-13.9v26.6h-24.3v-26.6h-50.3l-1.1-15.3,51.1-80.8h24.6v76.5ZM74.4,300.8h27.1v-43.3l-1.6,2.8-25.5,40.5h0Z"/>
        <path id="_路径_4284" class="st41" d="M125.8,300.8h13.9v19.6h-13.9v26.6h-24.3v-26.6h-50.3l-1.1-15.3,51.1-80.8h24.6v76.5ZM74.4,300.8h27.1v-43.3l-1.6,2.8-25.5,40.5h0Z"/>
        <path id="_路径_4285" class="st41" d="M125.8,300.9h13.9v19.6h-13.9v26.5h-24.3v-26.5h-50.3l-1.1-15.3,51.1-80.8h24.6v76.5ZM74.4,300.9h27.1v-43.3l-1.6,2.8-25.5,40.5h0Z"/>
        <path id="_路径_4286" class="st41" d="M125.9,300.9h13.9v19.6h-13.9v26.5h-24.3v-26.5h-50.3l-1.1-15.3,51.1-80.8h24.6v76.5h0ZM74.5,300.9h27.1v-43.3l-1.6,2.8-25.5,40.5h0Z"/>
        <path id="_路径_4287" class="st41" d="M125.9,300.9h13.9v19.6h-13.9v26.6h-24.3v-26.6h-50.3l-1.1-15.3,51.1-80.8h24.6v76.5ZM74.5,300.9h27.1v-43.3l-1.6,2.8-25.5,40.5h0Z"/>
        <path id="_路径_4288" class="st41" d="M125.9,301h13.9v19.6h-13.9v26.6h-24.3v-26.6h-50.3l-1.1-15.3,51.1-80.8h24.6v76.5h0ZM74.5,301h27.1v-43.3l-1.6,2.8-25.5,40.5h0Z"/>
        <path id="_路径_4289" class="st41" d="M126,301h13.9v19.6h-13.9v26.6h-24.3v-26.6h-50.3l-1.1-15.3,51.1-80.8h24.6v76.5h0ZM74.6,301h27.1v-43.3l-1.6,2.8-25.5,40.5h0Z"/>
        <path id="_路径_4290" class="st41" d="M126,301h13.9v19.6h-13.9v26.6h-24.3v-26.6h-50.3l-1.1-15.3,51.1-80.8h24.6v76.5h0ZM74.6,301h27.1v-43.3l-1.6,2.8-25.5,40.5h0Z"/>
        <path id="_路径_4291" class="st41" d="M126,301.1h13.9v19.6h-13.9v26.6h-24.3v-26.6h-50.3l-1.1-15.3,51.1-80.8h24.6v76.5ZM74.6,301.1h27.1v-43.3l-1.6,2.8-25.5,40.5h0Z"/>
        <path id="_路径_4292" class="st41" d="M126.1,301.1h13.9v19.6h-13.9v26.6h-24.3v-26.6h-50.3l-1.1-15.3,51.1-80.8h24.6v76.5h0ZM74.7,301.1h27.1v-43.3l-1.6,2.8-25.5,40.5h0Z"/>
        <path id="_路径_4293" class="st41" d="M126.1,301.1h13.9v19.6h-13.9v26.6h-24.3v-26.6h-50.3l-1.1-15.3,51.1-80.8h24.6v76.5ZM74.7,301.1h27.1v-43.3l-1.6,2.8-25.5,40.5h0Z"/>
        <path id="_路径_4294" class="st41" d="M126.1,301.2h13.9v19.6h-13.9v26.6h-24.3v-26.6h-50.3l-1.1-15.3,51.1-80.8h24.6v76.5h0ZM74.7,301.2h27.1v-43.3l-1.6,2.8-25.5,40.5h0Z"/>
        <path id="_路径_4295" class="st41" d="M126.2,301.2h13.9v19.6h-13.9v26.6h-24.3v-26.6h-50.3l-1.1-15.3,51.1-80.8h24.6v76.5h0ZM74.7,301.2h27.1v-43.3l-1.6,2.8-25.5,40.5h0Z"/>
        <path id="_路径_4296" class="st41" d="M126.2,301.2h13.9v19.6h-13.9v26.6h-24.3v-26.6h-50.3l-1.1-15.3,51.1-80.8h24.6v76.5h0ZM74.7,301.2h27.1v-43.3l-1.6,2.8-25.5,40.5h0Z"/>
        <path id="_路径_4297" class="st41" d="M126.2,301.3h13.9v19.6h-13.9v26.6h-24.3v-26.6h-50.3l-1.1-15.3,51.1-80.8h24.6v76.5ZM74.7,301.3h27.1v-43.3l-1.6,2.8-25.5,40.5h0Z"/>
        <path id="_路径_4298" class="st41" d="M126.3,301.3h13.9v19.6h-13.9v26.6h-24.3v-26.6h-50.3l-1.1-15.3,51.1-80.8h24.6v76.5ZM74.7,301.3h27.1v-43.3l-1.6,2.8-25.5,40.5h0Z"/>
        <path id="_路径_4299" class="st41" d="M126.3,301.3h13.9v19.6h-13.9v26.6h-24.3v-26.6h-50.3l-1.1-15.3,51.1-80.8h24.6v76.5ZM74.8,301.3h27.1v-43.3l-1.6,2.8-25.5,40.5h0Z"/>
        <path id="_路径_4300" class="st41" d="M126.3,301.3h13.9v19.6h-13.9v26.6h-24.3v-26.6h-50.3l-1.1-15.3,51.1-80.8h24.6v76.5ZM74.8,301.3h27.1v-43.3l-1.6,2.8-25.5,40.5h0Z"/>
        <path id="_路径_4301" class="st41" d="M126.3,301.3h13.9v19.6h-13.9v26.6h-24.3v-26.6h-50.3l-1.1-15.3,51.1-80.8h24.6v76.5h0ZM74.8,301.3h27.1v-43.3l-1.6,2.8-25.5,40.5h0Z"/>
        <path id="_路径_4302" class="st41" d="M126.3,301.3h13.9v19.6h-13.9v26.6h-24.3v-26.6h-50.3l-1.1-15.3,51.1-80.8h24.6v76.5ZM74.9,301.3h27.1v-43.3l-1.6,2.8-25.5,40.5h0Z"/>
        <path id="_路径_4303" class="st41" d="M126.3,301.4h13.9v19.6h-13.9v26.6h-24.3v-26.6h-50.3l-1.1-15.3,51.1-80.8h24.6v76.5h0ZM74.9,301.4h27.1v-43.3l-1.6,2.8-25.5,40.5h0Z"/>
        <path id="_路径_4304" class="st41" d="M126.4,301.4h13.9v19.6h-13.9v26.6h-24.3v-26.6h-50.3l-1.1-15.3,51.1-80.8h24.6v76.5h0ZM74.9,301.4h27.1v-43.3l-1.6,2.8-25.5,40.5h0Z"/>
        <path id="_路径_4305" class="st41" d="M126.4,301.4h13.9v19.6h-13.9v26.6h-24.3v-26.6h-50.3l-1.1-15.3,51.1-80.8h24.6v76.5h0ZM75,301.4h27.1v-43.3l-1.6,2.8-25.5,40.5h0Z"/>
        <path id="_路径_4306" class="st41" d="M126.4,301.5h13.9v19.6h-13.9v26.6h-24.3v-26.6h-50.3l-1.1-15.3,51.1-80.8h24.6v76.5h0ZM75,301.5h27.1v-43.3l-1.6,2.8-25.5,40.5h0Z"/>
        <path id="_路径_4307" class="st41" d="M126.4,301.5h13.9v19.6h-13.9v26.6h-24.3v-26.6h-50.3l-1.1-15.3,51.1-80.8h24.6v76.5ZM75,301.5h27.1v-43.3l-1.6,2.8-25.5,40.5h0Z"/>
        <path id="_路径_4308" class="st41" d="M126.5,301.5h13.9v19.6h-13.9v26.6h-24.3v-26.6h-50.3l-1.1-15.3,51.1-80.8h24.6v76.5ZM75.1,301.5h27.1v-43.3l-1.6,2.8-25.5,40.5h0Z"/>
        <path id="_路径_4309" class="st41" d="M126.5,301.5h13.9v19.6h-13.9v26.6h-24.3v-26.6h-50.3l-1.1-15.3,51.1-80.8h24.6v76.5ZM75.1,301.5h27.1v-43.3l-1.6,2.8-25.5,40.5h0Z"/>
        <path id="_路径_4310" class="st41" d="M126.5,301.6h13.9v19.6h-13.9v26.6h-24.3v-26.6h-50.3l-1.1-15.3,51.1-80.8h24.6v76.5h0ZM75.1,301.6h27.1v-43.3l-1.6,2.8-25.5,40.5h0Z"/>
        <path id="_路径_4311" class="st41" d="M126.6,301.6h13.9v19.6h-13.9v26.5h-24.3v-26.5h-50.3l-1.1-15.3,51.1-80.8h24.6v76.5h0ZM75.2,301.6h27.1v-43.3l-1.6,2.8-25.5,40.5h0Z"/>
        <path id="_路径_4312" class="st41" d="M126.6,301.6h13.9v19.6h-13.9v26.5h-24.3v-26.5h-50.3l-1.1-15.3,51.1-80.8h24.6v76.5h0ZM75.2,301.6h27.1v-43.3l-1.6,2.8-25.5,40.5h0Z"/>
        <path id="_路径_4313" class="st41" d="M126.6,301.7h13.9v19.6h-13.9v26.6h-24.3v-26.6h-50.3l-1.1-15.3,51.1-80.8h24.6v76.5ZM75.2,301.7h27.1v-43.3l-1.6,2.8-25.5,40.5h0Z"/>
        <path id="_路径_4314" class="st41" d="M126.7,301.7h13.9v19.6h-13.9v26.6h-24.3v-26.6h-50.3l-1.1-15.3,51.1-80.8h24.6v76.5ZM75.3,301.7h27.1v-43.3l-1.6,2.8-25.5,40.5h0Z"/>
        <path id="_路径_4315" class="st41" d="M126.7,301.7h13.9v19.6h-13.9v26.6h-24.3v-26.6h-50.3l-1.1-15.3,51.1-80.8h24.6v76.5ZM75.3,301.7h27.1v-43.3l-1.6,2.8-25.5,40.5h0Z"/>
        <path id="_路径_4316" class="st41" d="M126.7,301.8h13.9v19.6h-13.9v26.6h-24.3v-26.6h-50.3l-1.1-15.3,51.1-80.8h24.6v76.5h0ZM75.3,301.8h27.1v-43.3l-1.6,2.8-25.5,40.5h0Z"/>
        <path id="_路径_4317" class="st41" d="M126.8,301.8h13.9v19.6h-13.9v26.6h-24.3v-26.6h-50.3l-1.1-15.3,51.1-80.8h24.6v76.5h0ZM75.4,301.8h27.1v-43.3l-1.6,2.8-25.5,40.5h0Z"/>
        <path id="_路径_4318" class="st41" d="M126.8,301.8h13.9v19.6h-13.9v26.6h-24.3v-26.6h-50.3l-1.1-15.3,51.1-80.8h24.6v76.5ZM75.4,301.8h27.1v-43.3l-1.6,2.8-25.5,40.5h0Z"/>
        <path id="_路径_4319" class="st47" d="M126.8,301.8h13.9v19.6h-13.9v26.6h-24.3v-26.6h-50.3l-1.1-15.3,51.1-80.8h24.6v76.5ZM75.4,301.8h27.1v-43.3l-1.6,2.8-25.5,40.5h0Z"/>
      </g>
      <g id="_最后第二排的楼">
        <path id="_路径_3308" class="st12" d="M215,128.6l45.3,21.6v166.2h-45.3v-187.8h0Z"/>
        <path id="_路径_3309" class="st12" d="M481.5,131.2l-45.3,21.6v166.2h45.3v-187.8Z"/>
        <rect id="_矩形_15495" class="st12" x="276.9" y="174.5" width="41.7" height="142"/>
      </g>
      <g id="_图层_1-2-3">
        <path id="_路径_4320-2" class="st41" d="M364.5,267.8c0,17.1-3.4,30.1-10.1,39.2-6.8,9-16.6,13.6-29.7,13.6s-22.7-4.5-29.5-13.3c-6.8-8.9-10.3-21.6-10.5-38.2v-22.7c0-17.3,3.4-30.3,10.3-39.3,6.8-8.9,16.6-13.4,29.5-13.4s22.7,4.4,29.5,13.2c6.8,8.9,10.3,21.6,10.5,38.1v22.7h0ZM341.1,242.9c0-10.2-1.3-17.7-4-22.4s-6.9-7-12.5-7-9.6,2.2-12.2,6.6-4,11.4-4.2,20.8v30.1c0,10.1,1.3,17.5,3.9,22.5s6.8,7.3,12.6,7.3,9.8-2.3,12.4-7.1,3.8-11.9,3.9-21.6v-29.3h0Z"/>
      </g>
      <g id="_图层_1-2-31">
        <path id="_路径_4320-21" class="st47" d="M359.9,266.4c0,17.1-3.4,30.1-10.1,39.2-6.8,9-16.6,13.6-29.7,13.6s-22.7-4.5-29.5-13.3c-6.8-8.9-10.3-21.6-10.5-38.2v-22.7c0-17.3,3.4-30.3,10.3-39.3,6.8-8.9,16.6-13.4,29.5-13.4s22.7,4.4,29.5,13.2c6.8,8.9,10.3,21.6,10.5,38.1v22.7h0ZM336.5,241.3c0-10.2-1.3-17.7-4-22.4s-6.9-7-12.5-7-9.6,2.2-12.2,6.6-4,11.4-4.2,20.8v30.1c0,10.1,1.3,17.5,3.9,22.5s6.8,7.3,12.6,7.3,9.8-2.3,12.4-7.1,3.8-11.9,3.9-21.6v-29.3h0Z"/>
      </g>
      <g id="_第二层楼">
        <g class="st43">
          <path id="_路径_3310-2" class="st31" d="M16,195.7l19.9-26.3,19.9,26.3v157.2H16v-157.2Z"/>
        </g>
        <path id="_路径_3311" class="st14" d="M584,185.6l19.9-26.4,19.9,26.4v157.5h-40v-157.5h0Z"/>
        <rect id="_矩形_15499-2" class="st13" x="361.9" y="201.2" width="54.7" height="128.2"/>
        <path id="_路径_3312-2" class="st16" d="M190.3,190.3h-41.9v141.9h75.3v-83.9h-33.3v-58h0Z"/>
        <g id="_窗户">
          <rect id="_矩形_15500" class="st36" x="18.6" y="203.9" width="8.1" height="4.9"/>
          <rect id="_矩形_15503" class="st36" x="30" y="203.9" width="6.5" height="4.9"/>
          <rect id="_矩形_15505" class="st36" x="30" y="212.9" width="6.5" height="5.7"/>
          <rect id="_矩形_15507" class="st36" x="30" y="222.7" width="6.5" height="4.9"/>
          <rect id="_矩形_15504" class="st36" x="39" y="203.9" width="6.5" height="4.9"/>
          <rect id="_矩形_15506" class="st36" x="39" y="212.9" width="6.5" height="5.7"/>
          <rect id="_矩形_15508" class="st36" x="39" y="222.7" width="6.5" height="4.9"/>
          <rect id="_矩形_15501" class="st36" x="18.6" y="222.7" width="8.1" height="4.9"/>
          <rect id="_矩形_15502" class="st36" x="18.6" y="212.9" width="8.1" height="5.7"/>
        </g>
      </g>
      <g id="_竖点线">
        <line id="_直线_2" class="st1" x1="474.6" y1="94.7" x2="474.6" y2="161.4"/>
        <circle id="_椭圆_1026" class="st10" cx="474.6" cy="94.4" r="2.1"/>
        <line id="_直线_3" class="st1" x1="483.9" y1="104" x2="483.9" y2="170.7"/>
        <circle id="_椭圆_1027" class="st10" cx="484" cy="103.8" r="2.1"/>
        <line id="_直线_4" class="st1" x1="493.2" y1="94.7" x2="493.2" y2="161.4"/>
        <circle id="_椭圆_1028" class="st10" cx="493.2" cy="93.2" r="2.1"/>
        <line id="_直线_5" class="st1" x1="502.5" y1="87.4" x2="502.5" y2="154"/>
        <circle id="_椭圆_1029" class="st10" cx="502.5" cy="86.1" r="2.1"/>
      </g>
      <g id="_横点线-3">
        <path id="_路径_3314-2" class="st3" d="M229.7,148.9l8-8h67"/>
        <circle id="_椭圆_1030-2" class="st23" cx="229.7" cy="148.5" r="2.1"/>
      </g>
      <g id="_排线">
        <line id="_直线_6" class="st7" x1="190.4" y1="116.3" x2="190.4" y2="169"/>
        <line id="_直线_7" class="st7" x1="195.8" y1="109.7" x2="195.8" y2="162.3"/>
        <line id="_直线_8" class="st7" x1="201.1" y1="105.6" x2="201.1" y2="158.3"/>
        <line id="_直线_9" class="st7" x1="206.4" y1="101" x2="206.4" y2="153.6"/>
      </g>
      <g id="_商场">
        <g class="st37">
          <rect id="_矩形_15496-2" class="st21" x="215.4" y="289.5" width="231" height="70.2"/>
        </g>
        <path id="_路径_3315" class="st4" d="M215.4,299.2h10l23.6,14.4h197.3"/>
        <g id="_窗户-2">
          <g id="_组_4851">
            <rect id="_矩形_15500-2" class="st39" x="219.5" y="325.4" width="8.9" height="5.7"/>
            <rect id="_矩形_15503-2" class="st39" x="231" y="325.4" width="6.5" height="5.7"/>
            <rect id="_矩形_15505-2" class="st39" x="231" y="335.2" width="6.5" height="4.9"/>
            <rect id="_矩形_15507-2" class="st39" x="231" y="344.2" width="6.5" height="4.9"/>
            <rect id="_矩形_15504-2" class="st39" x="240.7" y="325.4" width="6.5" height="5.7"/>
            <rect id="_矩形_15506-2" class="st39" x="240.7" y="335.2" width="6.5" height="4.9"/>
            <rect id="_矩形_15508-2" class="st39" x="240.7" y="344.2" width="6.5" height="4.9"/>
            <rect id="_矩形_15501-2" class="st39" x="219.5" y="344.2" width="8.9" height="4.9"/>
            <rect id="_矩形_15502-2" class="st39" x="219.5" y="335.2" width="8.9" height="4.9"/>
          </g>
          <g id="_组_4854">
            <rect id="_矩形_15500-3" class="st39" x="281.5" y="325.4" width="8.9" height="5.7"/>
            <rect id="_矩形_15503-3" class="st39" x="293" y="325.4" width="6.5" height="5.7"/>
            <rect id="_矩形_15505-3" class="st39" x="293" y="335.2" width="6.5" height="4.9"/>
            <rect id="_矩形_15507-3" class="st39" x="293" y="344.2" width="6.5" height="4.9"/>
            <rect id="_矩形_15504-3" class="st39" x="302.8" y="325.4" width="6.5" height="5.7"/>
            <rect id="_矩形_15506-3" class="st39" x="302.8" y="335.2" width="6.5" height="4.9"/>
            <rect id="_矩形_15508-3" class="st39" x="302.8" y="344.2" width="6.5" height="4.9"/>
            <rect id="_矩形_15501-3" class="st39" x="281.5" y="344.2" width="8.9" height="4.9"/>
            <rect id="_矩形_15502-3" class="st39" x="281.5" y="335.2" width="8.9" height="4.9"/>
          </g>
          <g id="_组_4856">
            <rect id="_矩形_15500-4" class="st39" x="343.6" y="325.4" width="8.9" height="5.7"/>
            <rect id="_矩形_15503-4" class="st39" x="355.1" y="325.4" width="6.5" height="5.7"/>
            <rect id="_矩形_15505-4" class="st39" x="355.1" y="335.2" width="6.5" height="4.9"/>
            <rect id="_矩形_15507-4" class="st39" x="355.1" y="344.2" width="6.5" height="4.9"/>
            <rect id="_矩形_15504-4" class="st39" x="364" y="325.4" width="7.3" height="5.7"/>
            <rect id="_矩形_15506-4" class="st39" x="364" y="335.2" width="7.3" height="4.9"/>
            <rect id="_矩形_15508-4" class="st39" x="364" y="344.2" width="7.3" height="4.9"/>
            <rect id="_矩形_15501-4" class="st39" x="343.6" y="344.2" width="8.9" height="4.9"/>
            <rect id="_矩形_15502-4" class="st39" x="343.6" y="335.2" width="8.9" height="4.9"/>
          </g>
          <g id="_组_4858">
            <rect id="_矩形_15500-5" class="st39" x="405.7" y="325.4" width="8.9" height="5.7"/>
            <rect id="_矩形_15503-5" class="st39" x="417.1" y="325.4" width="6.5" height="5.7"/>
            <rect id="_矩形_15505-5" class="st39" x="417.1" y="335.2" width="6.5" height="4.9"/>
            <rect id="_矩形_15507-5" class="st39" x="417.1" y="344.2" width="6.5" height="4.9"/>
            <rect id="_矩形_15504-5" class="st39" x="426.1" y="325.4" width="7.3" height="5.7"/>
            <rect id="_矩形_15506-5" class="st39" x="426.1" y="335.2" width="7.3" height="4.9"/>
            <rect id="_矩形_15508-5" class="st39" x="426.1" y="344.2" width="7.3" height="4.9"/>
            <rect id="_矩形_15501-5" class="st39" x="405.7" y="344.2" width="8.9" height="4.9"/>
            <rect id="_矩形_15502-5" class="st39" x="405.7" y="335.2" width="8.9" height="4.9"/>
          </g>
          <g id="_窗户-3">
            <rect id="_矩形_15500-6" class="st39" x="268.5" y="325.4" width="8.9" height="5.7"/>
            <rect id="_矩形_15503-6" class="st39" x="259.5" y="325.4" width="6.5" height="5.7"/>
            <rect id="_矩形_15505-6" class="st39" x="259.5" y="335.2" width="6.5" height="4.9"/>
            <rect id="_矩形_15507-6" class="st39" x="259.5" y="344.2" width="6.5" height="4.9"/>
            <rect id="_矩形_15504-6" class="st39" x="249.7" y="325.4" width="6.5" height="5.7"/>
            <rect id="_矩形_15506-6" class="st39" x="249.7" y="335.2" width="6.5" height="4.9"/>
            <rect id="_矩形_15508-6" class="st39" x="249.7" y="344.2" width="6.5" height="4.9"/>
            <rect id="_矩形_15501-6" class="st39" x="268.5" y="344.2" width="8.9" height="4.9"/>
            <rect id="_矩形_15502-6" class="st39" x="268.5" y="335.2" width="8.9" height="4.9"/>
          </g>
          <g id="_组_4853">
            <rect id="_矩形_15500-7" class="st39" x="330.5" y="325.4" width="8.1" height="5.7"/>
            <rect id="_矩形_15503-7" class="st39" x="320.8" y="325.4" width="7.3" height="5.7"/>
            <rect id="_矩形_15505-7" class="st39" x="320.8" y="335.2" width="7.3" height="4.9"/>
            <rect id="_矩形_15507-7" class="st39" x="320.8" y="344.2" width="7.3" height="4.9"/>
            <rect id="_矩形_15504-7" class="st39" x="311.8" y="325.4" width="6.5" height="5.7"/>
            <rect id="_矩形_15506-7" class="st39" x="311.8" y="335.2" width="6.5" height="4.9"/>
            <rect id="_矩形_15508-7" class="st39" x="311.8" y="344.2" width="6.5" height="4.9"/>
            <rect id="_矩形_15501-7" class="st39" x="330.5" y="344.2" width="8.1" height="4.9"/>
            <rect id="_矩形_15502-7" class="st39" x="330.5" y="335.2" width="8.1" height="4.9"/>
          </g>
          <g id="_组_4855">
            <rect id="_矩形_15500-8" class="st39" x="392.6" y="325.4" width="8.1" height="5.7"/>
            <rect id="_矩形_15503-8" class="st39" x="382.8" y="325.4" width="7.3" height="5.7"/>
            <rect id="_矩形_15505-8" class="st39" x="382.8" y="335.2" width="7.3" height="4.9"/>
            <rect id="_矩形_15507-8" class="st39" x="382.8" y="344.2" width="7.3" height="4.9"/>
            <rect id="_矩形_15504-8" class="st39" x="373.8" y="325.4" width="6.5" height="5.7"/>
            <rect id="_矩形_15506-8" class="st39" x="373.8" y="335.2" width="6.5" height="4.9"/>
            <rect id="_矩形_15508-8" class="st39" x="373.8" y="344.2" width="6.5" height="4.9"/>
            <rect id="_矩形_15501-8" class="st39" x="392.6" y="344.2" width="8.1" height="4.9"/>
            <rect id="_矩形_15502-8" class="st39" x="392.6" y="335.2" width="8.1" height="4.9"/>
          </g>
          <g id="_组_4857">
            <rect id="_矩形_15504-9" class="st39" x="435.9" y="325.4" width="6.5" height="5.7"/>
            <rect id="_矩形_15506-9" class="st39" x="435.9" y="335.2" width="6.5" height="4.9"/>
            <rect id="_矩形_15508-9" class="st39" x="435.9" y="344.2" width="6.5" height="4.9"/>
          </g>
        </g>
      </g>
      <g id="_建筑排线">
        <line id="_直线_10" class="st5" x1="623.7" y1="185.5" x2="623.7" y2="342.8"/>
        <line id="_直线_11" class="st5" x1="619.3" y1="185.5" x2="619.3" y2="342.8"/>
        <line id="_直线_12" class="st5" x1="614.9" y1="185.5" x2="614.9" y2="342.8"/>
        <line id="_直线_13" class="st5" x1="610.6" y1="185.5" x2="610.6" y2="342.8"/>
        <line id="_直线_14" class="st5" x1="606.2" y1="185.5" x2="606.2" y2="342.8"/>
        <line id="_直线_15" class="st5" x1="601.8" y1="185.5" x2="601.8" y2="342.8"/>
        <line id="_直线_16" class="st5" x1="597.4" y1="185.5" x2="597.4" y2="342.8"/>
        <line id="_直线_17" class="st5" x1="593.1" y1="185.5" x2="593.1" y2="342.8"/>
        <line id="_直线_18" class="st5" x1="588.7" y1="185.5" x2="588.7" y2="342.8"/>
        <line id="_直线_19" class="st5" x1="584.4" y1="185.5" x2="584.4" y2="342.8"/>
      </g>
      <g id="_竖点线-2">
        <line id="_直线_2-2" class="st3" x1="204.8" y1="264.2" x2="138.2" y2="264.2"/>
        <circle id="_椭圆_1026-2" class="st46" cx="205.1" cy="264.2" r="2.1"/>
        <line id="_直线_3-2" class="st3" x1="195.5" y1="273.5" x2="111.8" y2="273.5"/>
        <circle id="_椭圆_1027-2" class="st46" cx="195.8" cy="273.6" r="2.1"/>
        <line id="_直线_4-2" class="st3" x1="204.8" y1="282.8" x2="138.2" y2="282.8"/>
        <path id="_路径_3480" class="st46" d="M206.3,284.9c-1.2,0-2.1-.9-2.1-2.1s.9-2.1,2.1-2.1,2.1.9,2.1,2.1-.9,2.1-2.1,2.1h0Z"/>
        <line id="_直线_5-2" class="st3" x1="212.1" y1="292.2" x2="145.5" y2="292.2"/>
        <circle id="_椭圆_1029-2" class="st46" cx="213.4" cy="292.2" r="2.1"/>
      </g>
    </g>
    <g id="_柱状图">
      <rect id="_矩形_17267" class="st20" x="132.2" y="160.6" width="37" height="42.1" rx="8" ry="8"/>
      <rect id="_矩形_17268" class="st0" x="132.2" y="160.6" width="37" height="10.8"/>
      <rect id="_矩形_17269" class="st17" x="137.9" y="177.8" width="1.9" height="18.5" rx=".9" ry=".9"/>
      <path id="_矩形_17270" class="st19" d="M157,177.8h0c.4,0,.6.3.6.6v17.3c0,.4-.3.6-.6.6h0c-.4,0-.6-.3-.6-.6v-17.3c0-.4.3-.6.6-.6Z"/>
      <path id="_矩形_17271" class="st18" d="M144.2,177.8h0c.4,0,.6.3.6.6v17.3c0,.4-.3.6-.6.6h0c-.4,0-.6-.3-.6-.6v-17.3c0-.4.3-.6.6-.6Z"/>
      <rect id="_矩形_17272" class="st15" x="161.5" y="177.8" width="1.9" height="18.5" rx=".9" ry=".9"/>
      <path id="_矩形_17273" class="st28" d="M141.7,177.8h0c.4,0,.6.3.6.6v17.3c0,.4-.3.6-.6.6h0c-.4,0-.6-.3-.6-.6v-17.3c0-.4.3-.6.6-.6Z"/>
      <path id="_矩形_17274" class="st27" d="M159.5,177.8h0c.4,0,.6.3.6.6v17.3c0,.4-.3.6-.6.6h0c-.4,0-.6-.3-.6-.6v-17.3c0-.4.3-.6.6-.6Z"/>
      <path id="_矩形_17275" class="st25" d="M146.8,177.8h0c.4,0,.6.3.6.6v17.3c0,.4-.3.6-.6.6h0c-.4,0-.6-.3-.6-.6v-17.3c0-.4.3-.6.6-.6Z"/>
      <path id="_矩形_17276" class="st24" d="M154.4,177.8h0c.4,0,.6.3.6.6v17.3c0,.4-.3.6-.6.6h0c-.4,0-.6-.3-.6-.6v-17.3c0-.4.3-.6.6-.6Z"/>
      <rect id="_矩形_17277" class="st0" x="132.2" y="169.5" width="37" height="8.3"/>
      <circle id="_椭圆_1041" class="st45" cx="148.1" cy="173.4" r="1.3"/>
      <circle id="_椭圆_1042" class="st34" cx="142.4" cy="173.4" r="1.3"/>
      <circle id="_椭圆_1043" class="st11" cx="153.2" cy="173.4" r="1.3"/>
      <circle id="_椭圆_1044" class="st33" cx="158.9" cy="173.4" r="1.3"/>
    </g>
    <g id="_统计图">
      <g class="st38">
        <rect id="_矩形_17256-2" class="st29" x="291.7" y="106.4" width="67.6" height="49.8" rx="8" ry="8"/>
      </g>
      <g id="Group_9">
        <path id="_路径_3495" class="st0" d="M297.9,142.8h53.6"/>
        <line id="_直线_20" class="st0" x1="297.9" y1="136.3" x2="351.5" y2="136.3"/>
        <line id="_直线_21" class="st0" x1="297.9" y1="130" x2="351.5" y2="130"/>
        <line id="_直线_22" class="st0" x1="297.9" y1="123.6" x2="351.5" y2="123.6"/>
        <line id="_直线_23" class="st0" x1="297.9" y1="117.2" x2="351.5" y2="117.2"/>
        <path id="_路径_3496" class="st9" d="M297.9,149.1s4.7-9.8,9.9-9.2c2.7.4,3.4,3,6.1,3.5,8,1.8,4.9-16,13.1-16.3,6.7-.2,7.1,10.6,13.7,10.2,8.9-.5,10.6-20.1,10.6-20.1"/>
        <path id="_路径_3497" class="st8" d="M298,120.9s4.5,8.4,9.7,7.8c2.7-.4,3.4-3,6.1-3.5,8-1.8,4.9,16,13.1,16.3,6.7.2,7.1-10.6,13.7-10.2,8.9.5,10.6,11.4,10.6,11.4"/>
        <path id="_路径_3498" class="st6" d="M297.9,143s4.1-7.3,9.6-7,2.6-19.1,7.7-19.1,7.3,6.7,11.4,6.7,3.5-6,9.2-6.7c5.9-.7,14.7,3.8,14.7,3.8"/>
        <path id="_路径_3499" class="st2" d="M297.9,137.9s6.7-6.9,12.3-7.4c6.6-.6,8.8,7.8,15.5,7.4,8.4-.4,8.5-15.7,16.7-13.9,4.1.9,9.1,6.5,9.1,6.5"/>
        <path id="_路径_3500" class="st22" d="M297.5,111.2l-1.9,3.2h3.7l-1.9-3.2h0ZM297.5,149.5h-.4v.4h.4v-.4ZM355.3,149.5l-3.2-1.9v3.7l3.2-1.9h0ZM297.3,114.1v35.4h.6v-35.4h-.6ZM297.5,149.7h54.9v-.6h-54.9v.6Z"/>
      </g>
    </g>
    <g id="_拿着卡片的男白领">
      <path id="_路径_3504" class="st42" d="M517.6,361.2l2.8.4.3,5.8-5.6-1.6,2.6-4.6Z"/>
      <path id="_路径_3505" d="M513.8,365.1l1.9-1.3c0,.4,0,.8.3,1.1.7.8,1.7,1.3,2.8,1.3s1.4-.3,2-.7c.3,1.3.4,2.5.4,3.8s-2,.7-2.4.7c-1.2-.2-1.1,0-1.8-.6-.4-.3,0-1.2,0-1.2l-1,.2s.7,0-.8,0c-2,0-3.8-.4-5.5-1.7-1-.8.4-1.9,1.7-1.8l2.4.3h0Z"/>
      <path id="_路径_3506" class="st42" d="M503.2,362.1h2.8c0,0,.7,5.7.7,5.7l-5.3-1.9,1.8-3.8h0Z"/>
      <path id="_路径_3507" d="M498.8,366.7l2.4-1.9c.3.4.6.8,1,1.2.8.6,1.9,1,3,.8.7-.2,1.3-.4,1.8-1,.4,1,.6,2.1.8,3.1,0,.6-1.4,1-1.9,1-.8,0-1.4-.1-1.6-.4-.2-.2-.4-.4-.6-.5h-1.3c-.7.4-1.6.8-2.6.9-2.3,0-5.1,0-6.1-.5-.9-.5-.3-1.7.8-1.9l4.3-.8h0Z"/>
      <path id="_路径_3508" d="M501.4,362.9l-9.9-41.1s2.1-11.4,4.5-17.5c2.2-5.7,6.7-14.4,6.7-14.4l20.8,1s1.3-1,1.6,7c.4,8-2.6,25.5-2.6,25.5l-1.3,39.5h-6.7l-3.2-57.2-8,15.9,2.6,15.9,1.3,25.2h-5.7v.2Z"/>
      <path id="_路径_3509" class="st42" d="M504.2,241.2c.4-1.3,1.3-2.5,2.6-3.2.7-.4,1.4-.5,2.2-.6,1.6-.3,3.1.4,4.1,1.6,1.1,1,1.5,4.3.6,7-.4,1.2-1,2.3-1.7,3.3-.8,1.4-2.4,2.4-4.1,2.4s-3.8-1.5-4.2-3.6c-.4-2.3-.3-4.7.4-7h0Z"/>
      <path id="_路径_3510" d="M502.6,241.6c-1-.7-1.3-2.1-.6-3.2,1-1.9,2.1-1.7,4.5-1.9,1.5,0,2.1-1.4,4.8-1,2.2.4,2.7,2.6,3.5,3.8,1,1.1,1.3,2.5.6,3.8-.4.7-.7,1.3-1.3,1.9,0,0-.4-1.1-1-1.3h-1l-1,2s.7-3.2-.6-4.5c-.7-.5-1.6-.8-2.6-.6-.8.5-1.6,1-2.6,1.3-1,.4-2.1.3-2.9-.4h0Z"/>
      <path id="_路径_3511" class="st42" d="M506.8,250.5l5.7-1.9c-.4,1.3-.6,2.5-.6,3.8.2,1.2.4,2.4,1,3.5l-6.7-.4c.4-.8.8-1.7,1-2.6,0-.9,0-1.7-.4-2.6h0Z"/>
      <rect id="_矩形_17282" class="st26" x="446.8" y="193.7" width="53.6" height="53.6" rx="6" ry="6"/>
      <g id="Group_8">
        <path id="_路径_3493-2" class="st30" d="M490.4,220.5c0,9.2-7.5,16.7-16.7,16.7s-16.7-7.5-16.7-16.7,7.5-16.7,16.7-16.7v16.7h16.7Z"/>
        <path id="_路径_3494-2" class="st35" d="M474.9,203.8h0c8.5,0,15.4,6.9,15.4,15.4h-15.4v-15.4Z"/>
      </g>
      <path id="_路径_3512" class="st42" d="M469.1,249.6l1.9,2.9,1.9-1.6-1.6-2.9s-.8-3-1-3.5c-.3-.6-.6-1.3-1.2-1.8,0,0-.2-.2-.4-.3,0,0-.3,0-.4,0v.2l.2,1.1-1-1-.9-.7c-.4-.4-1-.4-1.4,0-.5.3-.7.9-.5,1.4.4,1.3,1,2.6,1.6,3.8.7.9,1.6,1.6,2.6,2.2h.2,0Z"/>
      <path id="_路径_3513" d="M495.3,264.2l-6.7-16.9h5.5l4.8,8,7.7-.4,3.5,6.1-14.7,3.2h0Z"/>
      <path id="_路径_3514" class="st40" d="M512.8,252.4l-6.7,2.9h3.8l4.1-.4-1.3-2.6h0Z"/>
      <rect id="_矩形_17283" x="470.4" y="251.6" width="3.2" height=".6" transform="translate(-59.6 312.6) rotate(-34.6)"/>
      <path id="_路径_3515" d="M500.4,257.5l-9.6,5.1-4.8,2.2-12.2-14.4-3.8,2.6,13.1,20.1,10.6-2.9,4.5-1.3,1.3,7,1,8-5.5,13.1,17.3,1.9,17.3-1.3-5.7-11.2-1.3-22.4-7.3-9.2h-8.9l-5.7,2.6h0Z"/>
    </g>
  </g>
</svg>