<?xml version="1.0" encoding="UTF-8"?>
<svg id="Layer_1" xmlns="http://www.w3.org/2000/svg" xmlns:xlink="http://www.w3.org/1999/xlink" version="1.1" viewBox="0 0 150 120">
  <!-- Generator: Adobe Illustrator 29.4.0, SVG Export Plug-In . SVG Version: 2.1.0 Build 152)  -->
  <defs>
    <style>
      .st0 {
        fill: #002c79;
      }

      .st0, .st1, .st2 {
        fill-rule: evenodd;
      }

      .st1 {
        fill: #0498fe;
      }

      .st3 {
        filter: url(#filter-2);
      }

      .st4 {
        fill: #ccf6fe;
      }
    </style>
    <filter id="filter-2" x="-43.6%" y="-37.2%" width="187.3%" height="188.0%">
      <feOffset dx="0" dy="3" in="SourceAlpha" result="shadowOffsetOuter1"/>
      <feGaussianBlur in="shadowOffsetOuter1" result="shadowBlurOuter1" stdDeviation="6"/>
    </filter>
  </defs>
  <path id="_路径备份" class="st2" d="M72.7,88.1l47-20.3c2.7,6.2,4.2,13.1,4.2,20.3,0,0-51.2,0-51.2,0Z"/>
  <g id="path-1" class="st3">
    <path class="st2" d="M79.6,80.7l20.3-47c12.1,5.1,21.9,14.7,27.1,26.7l-47.4,20.3Z"/>
  </g>
  <path id="path-11" class="st0" d="M79.6,80.7l20.3-47c12.1,5.1,21.9,14.7,27.1,26.7l-47.4,20.3Z"/>
  <path id="_形状结合" class="st1" d="M72.9,37.2c7,0,13.6,1.4,19.7,3.9l-20.2,46.7-33.7-37.4c9-8.2,21-13.2,34.2-13.2Z"/>
  <g>
    <path class="st4" d="M21.9,88.1s0,0,0,0h0Z"/>
    <path class="st4" d="M38.6,50.3c-10.3,9.3-16.7,22.7-16.7,37.7h50.4v-.2c0,0-33.7-37.5-33.7-37.5Z"/>
  </g>
</svg>