<?xml version="1.0" encoding="UTF-8"?>
<svg id="Layer_1" xmlns="http://www.w3.org/2000/svg" xmlns:xlink="http://www.w3.org/1999/xlink" version="1.1" viewBox="0 0 150 120">
  <!-- Generator: Adobe Illustrator 29.4.0, SVG Export Plug-In . SVG Version: 2.1.0 Build 152)  -->
  <defs>
    <style>
      .st0 {
        fill: url(#linear-gradient);
      }

      .st1 {
        fill: #888;
        fill-opacity: .27;
      }
    </style>
    <linearGradient id="linear-gradient" x1="19.9" y1="95.4" x2="66.7" y2="14.4" gradientUnits="userSpaceOnUse">
      <stop offset="0" stop-color="#66f"/>
      <stop offset="1" stop-color="#00ced1"/>
    </linearGradient>
  </defs>
  <rect id="_矩形" class="st1" x="58.5" y="61.6" width="13.8" height="26.5" rx="2" ry="2"/>
  <rect id="_矩形1" class="st1" x="78.7" y="61.6" width="13.8" height="26.5" rx="2" ry="2"/>
  <path class="st1" d="M24.6,97c.1.3.3.6.5.8.2.3.4.5.7.8.5.5,1,.8,1.6,1.1.6.2,1.3.4,1.9.3.3,0,.7,0,1-.1.3,0,.6-.2.9-.3.3-.1.6-.3.8-.5.3-.2.5-.4.8-.7.5-.5.8-1,1.1-1.6.2-.6.4-1.3.3-1.9,0-.3,0-.7-.1-1,0-.3-.2-.6-.3-.9-.8-1.8-1.4-3.6-2-5.5-.5-1.8-.9-3.7-1.2-5.5-.3-1.8-.5-3.6-.5-5.4,0-.4,0-.9,0-1.3,0-.2,0-.4,0-.7,0-.2,0-.4,0-.7,0-.9,0-1.8.1-2.7.1-1.8.4-3.5.8-5.3.4-1.8.8-3.6,1.4-5.3.6-1.8,1.3-3.5,2.1-5.3.8-1.7,1.8-3.4,2.9-5,4.1-6.3,9.7-11.4,16.3-14.9,1.7-.9,3.5-1.7,5.3-2.4,1.8-.7,3.6-1.2,5.4-1.7,1.8-.4,3.6-.8,5.4-1,1.7-.2,3.5-.3,5.3-.3s3.5.1,5.3.3c1.8.2,3.6.5,5.4,1,1.8.4,3.7,1,5.4,1.7,1.8.7,3.6,1.5,5.3,2.4,6.6,3.6,12.2,8.7,16.3,14.9,1.1,1.6,2,3.3,2.9,5,.8,1.7,1.5,3.5,2.1,5.3.6,1.7,1.1,3.5,1.4,5.3.4,1.7.6,3.5.8,5.3,0,.9.1,1.8.1,2.7,0,.2,0,.4,0,.7,0,.2,0,.4,0,.7,0,.4,0,.9,0,1.3,0,1.8-.2,3.6-.5,5.4-.3,1.9-.7,3.7-1.2,5.5-.5,1.9-1.2,3.7-2,5.5-.1.3-.2.6-.3.9,0,.3-.1.7-.1,1,0,.7.1,1.3.3,1.9.2.6.6,1.2,1.1,1.6.2.2.5.5.8.7.3.2.5.3.8.5.3.1.6.2.9.3.3,0,.7.1,1,.1.7,0,1.3-.1,1.9-.3.6-.2,1.2-.6,1.6-1.1.2-.2.5-.5.7-.8.2-.3.3-.5.5-.8,1-2.2,1.8-4.4,2.4-6.7.6-2.2,1.1-4.5,1.5-6.8.3-2.2.6-4.4.6-6.6,0-.5,0-1.1,0-1.6,0-.3,0-.5,0-.8,0-.3,0-.5,0-.8,0-1.1,0-2.2-.2-3.3-.2-2.2-.5-4.3-.9-6.4-.5-2.2-1-4.4-1.8-6.5-.7-2.2-1.6-4.3-2.6-6.4-1-2.1-2.2-4.2-3.5-6.2-5-7.6-11.8-13.9-19.9-18.3-2.1-1.1-4.3-2.1-6.5-3-2.2-.8-4.4-1.5-6.6-2.1-2.2-.5-4.4-.9-6.6-1.2-2.1-.3-4.3-.4-6.4-.4s-4.3.1-6.4.4c-2.2.3-4.4.7-6.6,1.2-2.3.5-4.5,1.2-6.6,2.1-2.2.9-4.4,1.8-6.5,3-8,4.3-14.9,10.6-19.9,18.3-1.3,2-2.5,4-3.5,6.2-1,2.1-1.9,4.2-2.6,6.4-.7,2.1-1.3,4.3-1.8,6.5-.4,2.1-.7,4.3-.9,6.4,0,1.1-.1,2.2-.2,3.3,0,.3,0,.5,0,.8,0,.3,0,.5,0,.8,0,.5,0,1.1,0,1.6,0,2.2.3,4.4.6,6.6.4,2.3.9,4.5,1.5,6.8.7,2.3,1.5,4.5,2.4,6.7Z"/>
  <path class="st0" d="M24.6,97c.1.3.3.6.5.8.2.3.4.5.7.8.5.5,1,.8,1.6,1.1.6.2,1.3.4,1.9.3.3,0,.7,0,1-.1.3,0,.6-.2.9-.3.3-.1.6-.3.8-.5.3-.2.5-.4.8-.7.5-.5.8-1,1.1-1.6.2-.6.4-1.3.3-1.9,0-.3,0-.7-.1-1,0-.3-.2-.6-.3-.9-.8-1.7-1.4-3.5-1.9-5.3-.5-1.8-.9-3.5-1.2-5.3-.3-1.9-.5-3.7-.6-5.6,0-.5,0-.9,0-1.4,0-.5,0-.9,0-1.4,0-.9,0-1.8.1-2.8.6-7.4,3.1-14.6,7.2-20.9,4.1-6.3,9.7-11.4,16.3-14.9,6.6-3.6,13.9-5.4,21.4-5.4s.6,0,.9,0c.3,0,.7-.2,1-.3.6-.3,1.2-.6,1.6-1.1.5-.5.8-1,1.1-1.6.1-.3.2-.6.3-1,0-.3,0-.6,0-.9s0-.6,0-.9c0-.3-.2-.7-.3-1-.3-.6-.6-1.2-1.1-1.6-.5-.5-1-.8-1.6-1.1-.3-.1-.6-.2-1-.3-.3,0-.6,0-.9,0-9.1,0-18.1,2.3-26.2,6.6-8,4.3-14.9,10.6-19.9,18.3-5,7.6-8,16.4-8.8,25.5,0,1.1-.2,2.3-.2,3.4,0,.3,0,.6,0,.8,0,.3,0,.6,0,.8,0,.6,0,1.1,0,1.7,0,2.3.3,4.6.7,6.8.4,2.2.9,4.4,1.5,6.5.7,2.2,1.4,4.4,2.4,6.5Z"/>
</svg>