<?xml version="1.0" encoding="UTF-8"?>
<svg id="Layer_1" xmlns="http://www.w3.org/2000/svg" version="1.1" viewBox="0 0 256 168">
  <!-- Generator: Adobe Illustrator 29.3.0, SVG Export Plug-In . SVG Version: 2.1.0 Build 146)  -->
  <defs>
    <style>
      .st0 {
        fill: #ffc581;
      }

      .st1, .st2 {
        fill: #25224b;
      }

      .st3 {
        fill: #2c4179;
      }

      .st4 {
        fill: #41c90f;
      }

      .st5 {
        fill: #ff3c3c;
      }

      .st2 {
        fill-rule: evenodd;
      }
    </style>
  </defs>
  <g id="_暂无数据" data-name="暂无数据">
    <g id="_网页" data-name="网页">
      <rect id="_网页底色" data-name="网页底色" class="st3" width="256" height="168" rx="10.6" ry="10.6"/>
      <g id="_顶部栏" data-name="顶部栏">
        <path id="_顶部栏-2" data-name="顶部栏-2" class="st1" d="M10.6,0h234.8c5.9,0,10.6,4.7,10.6,10.6v5.4H0v-5.4C0,4.7,4.7,0,10.6,0Z"/>
        <g id="_按钮" data-name="按钮">
          <circle id="_椭圆_1038" data-name="椭圆_1038" class="st5" cx="14" cy="8.7" r="3.3"/>
          <circle id="_椭圆_1039" data-name="椭圆_1039" class="st0" cx="24.7" cy="8.7" r="3.3"/>
          <circle id="_椭圆_1040" data-name="椭圆_1040" class="st4" cx="35.3" cy="8.7" r="3.3"/>
        </g>
      </g>
    </g>
    <path id="Union" class="st2" d="M104.5,65.3c0,4.7-3.8,8.6-8.6,8.6s-8.6-3.8-8.6-8.6,3.8-8.6,8.6-8.6c4.7,0,8.6,3.8,8.6,8.6h0ZM168.7,65.3c0,4.7-3.8,8.6-8.6,8.6s-8.6-3.8-8.6-8.6,3.8-8.6,8.6-8.6h0c4.7,0,8.6,3.8,8.6,8.6ZM108.7,106.7c3.1-10.7,14.3-16.8,25-13.6,6.6,1.9,11.7,7.1,13.6,13.6,1,3.4,4.6,5.4,8,4.4,3.4-1,5.4-4.6,4.4-8-5.1-17.5-23.5-27.5-40.9-22.3-10.7,3.2-19.2,11.6-22.3,22.3-.9,3.4,1.1,6.9,4.5,7.9,3.3.9,6.7-1,7.8-4.3Z"/>
  </g>
</svg>