<?xml version="1.0" encoding="UTF-8"?>
<svg id="Layer_1" xmlns="http://www.w3.org/2000/svg" xmlns:xlink="http://www.w3.org/1999/xlink" version="1.1" viewBox="0 0 640 400">
  <!-- Generator: Adobe Illustrator 29.2.0, SVG Export Plug-In . SVG Version: 2.1.0 Build 108)  -->
  <defs>
    <style>
      .st0, .st1, .st2, .st3, .st4, .st5, .st6, .st7, .st8, .st9, .st10 {
        fill: none;
      }

      .st11 {
        fill: #4692ff;
      }

      .st11, .st1 {
        stroke: #c6c6c6;
      }

      .st12 {
        fill: #f76e83;
      }

      .st13 {
        fill: #253473;
      }

      .st14 {
        fill: url(#linear-gradient2);
      }

      .st15 {
        fill: url(#linear-gradient1);
      }

      .st16 {
        fill: url(#linear-gradient9);
      }

      .st17 {
        fill: url(#linear-gradient3);
      }

      .st18 {
        fill: url(#linear-gradient6);
      }

      .st19 {
        fill: url(#linear-gradient8);
      }

      .st20 {
        fill: url(#linear-gradient7);
      }

      .st21 {
        fill: url(#linear-gradient4);
      }

      .st22 {
        fill: #eaeaea;
      }

      .st23 {
        fill: #f46fff;
      }

      .st24 {
        fill: url(#linear-gradient13);
      }

      .st25 {
        fill: url(#linear-gradient12);
      }

      .st26 {
        fill: url(#linear-gradient15);
      }

      .st27 {
        fill: url(#linear-gradient16);
      }

      .st28 {
        fill: url(#linear-gradient11);
      }

      .st29 {
        fill: url(#linear-gradient10);
      }

      .st30 {
        fill: url(#linear-gradient14);
      }

      .st2 {
        stroke: #66f;
      }

      .st2, .st6, .st8, .st9 {
        stroke-linecap: round;
        stroke-width: 2px;
      }

      .st31 {
        fill: #ff4545;
      }

      .st32 {
        fill: #007fff;
      }

      .st3 {
        stroke: #f5f5f5;
      }

      .st33 {
        fill: url(#linear-gradient);
      }

      .st34 {
        fill: #f476ff;
      }

      .st35 {
        fill: #66ff8b;
      }

      .st36 {
        fill: #66f;
      }

      .st4 {
        stroke: #9fcefa;
      }

      .st37 {
        fill: #8929f7;
      }

      .st5 {
        stroke: #62aadd;
      }

      .st6 {
        stroke: #9457eb;
      }

      .st38, .st39 {
        fill: #fff;
      }

      .st38, .st10 {
        stroke: #fff;
      }

      .st40, .st41 {
        fill-rule: evenodd;
      }

      .st42 {
        fill: #89b7ff;
      }

      .st7 {
        stroke: #5eb5d3;
      }

      .st43 {
        filter: url(#X_Shadow_311);
      }

      .st44 {
        fill: #9fcefa;
      }

      .st45 {
        opacity: .5;
      }

      .st46 {
        fill: #f2f2f2;
      }

      .st8 {
        stroke: #f76e83;
        stroke-linejoin: round;
      }

      .st47 {
        fill: #ffdcd1;
      }

      .st48 {
        filter: url(#X_Shadow_31);
      }

      .st49 {
        fill: url(#linear-gradient5);
        isolation: isolate;
        opacity: .7;
      }

      .st50 {
        fill: #14264e;
      }

      .st9 {
        stroke: #00ced1;
      }

      .st51 {
        fill: #9457eb;
      }

      .st52 {
        fill: #fff14a;
      }

      .st41 {
        fill: #c1c1c1;
      }
    </style>
    <linearGradient id="linear-gradient" x1="645.2" y1="-1.5" x2="645.2" y2="-.2" gradientTransform="translate(-31524.6 433.8) scale(49 224.8)" gradientUnits="userSpaceOnUse">
      <stop offset="0" stop-color="#4566c3"/>
      <stop offset="1" stop-color="#2775b7"/>
    </linearGradient>
    <linearGradient id="linear-gradient1" x1="646.7" y1="-1.5" x2="646.7" y2="-.2" gradientTransform="translate(-31133.8 435.7) scale(49 225.2)" gradientUnits="userSpaceOnUse">
      <stop offset="0" stop-color="#4566c3"/>
      <stop offset="1" stop-color="#2775b7"/>
    </linearGradient>
    <linearGradient id="linear-gradient2" x1="649.7" y1="-2" x2="649.7" y2="-.8" gradientTransform="translate(-43144.9 503.3) scale(67 157)" gradientUnits="userSpaceOnUse">
      <stop offset="0" stop-color="#4566c3"/>
      <stop offset="1" stop-color="#2775b7"/>
    </linearGradient>
    <linearGradient id="linear-gradient3" x1="651.8" y1="-1.9" x2="651.8" y2="-.7" gradientTransform="translate(-59913.1 485.8) scale(92.2 173.8)" gradientUnits="userSpaceOnUse">
      <stop offset="0" stop-color="#4566c3"/>
      <stop offset="1" stop-color="#2775b7"/>
    </linearGradient>
    <linearGradient id="linear-gradient4" x1="656.4" y1="-3.8" x2="656.4" y2="-2.3" gradientTransform="translate(-185422.6 575.7) scale(283 86)" gradientUnits="userSpaceOnUse">
      <stop offset="0" stop-color="#547df4"/>
      <stop offset="1" stop-color="#65b3e6"/>
    </linearGradient>
    <linearGradient id="linear-gradient5" x1="652.7" y1="-2.7" x2="653.4" y2="-1.8" gradientTransform="translate(-73032.6 441.7) scale(112.3)" gradientUnits="userSpaceOnUse">
      <stop offset="0" stop-color="#fff" stop-opacity=".8"/>
      <stop offset="1" stop-color="#fff" stop-opacity=".1"/>
    </linearGradient>
    <filter id="X_Shadow_31" x="-200%" y="-200%" width="400%" height="400%">
      <feDropShadow dx="3" dy="4" flood-color="black" flood-opacity="0.3" stdDeviation="4"/>
    </filter>
    <linearGradient id="linear-gradient6" x1="646.8" y1="-5.8" x2="646.8" y2="-4.7" gradientTransform="translate(-35522.9 533.9) scale(55 54)" gradientUnits="userSpaceOnUse">
      <stop offset="0" stop-color="#fff" stop-opacity="0"/>
      <stop offset="1" stop-color="#fff" stop-opacity=".5"/>
    </linearGradient>
    <filter id="X_Shadow_311" data-name="X_Shadow_31" x="-200%" y="-200%" width="400%" height="400%">
      <feDropShadow dx="3" dy="4" flood-color="black" flood-opacity="0.3" stdDeviation="4"/>
    </filter>
    <linearGradient id="linear-gradient7" x1="653.2" y1="-4.2" x2="653.2" y2="-3" gradientTransform="translate(-68682.9 455.4) scale(106 78)" gradientUnits="userSpaceOnUse">
      <stop offset="0" stop-color="#fff" stop-opacity=".4"/>
      <stop offset="1" stop-color="#fff" stop-opacity=".5"/>
    </linearGradient>
    <linearGradient id="linear-gradient8" x1="138.2" y1="242.7" x2="207.1" y2="242.7" gradientTransform="translate(0 400) scale(1 -1)" gradientUnits="userSpaceOnUse">
      <stop offset="0" stop-color="#fff" stop-opacity=".4"/>
      <stop offset="1" stop-color="#fff" stop-opacity=".5"/>
    </linearGradient>
    <linearGradient id="linear-gradient9" x1="449.9" y1="-10.8" x2="449.9" y2="-10.1" gradientTransform="translate(-1199 477.4) scale(3 29)" gradientUnits="userSpaceOnUse">
      <stop offset="0" stop-color="#66f"/>
      <stop offset="1" stop-color="#66f" stop-opacity="0"/>
    </linearGradient>
    <linearGradient id="linear-gradient10" x1="348.2" y1="-10.8" x2="348.2" y2="-10.1" gradientTransform="translate(-511.9 477.4) scale(2 29)" gradientUnits="userSpaceOnUse">
      <stop offset="0" stop-color="#9457eb"/>
      <stop offset="1" stop-color="#9457eb" stop-opacity="0"/>
    </linearGradient>
    <linearGradient id="linear-gradient11" x1="346.3" y1="-10.8" x2="346.3" y2="-10.1" gradientTransform="translate(-531.9 477.4) scale(2 29)" gradientUnits="userSpaceOnUse">
      <stop offset="0" stop-color="#f76e83"/>
      <stop offset="1" stop-color="#f76e83" stop-opacity="0"/>
    </linearGradient>
    <linearGradient id="linear-gradient12" x1="452.2" y1="-10.8" x2="452.2" y2="-10.1" gradientTransform="translate(-1162 477.4) scale(3 29)" gradientUnits="userSpaceOnUse">
      <stop offset="0" stop-color="#66ff8b"/>
      <stop offset="1" stop-color="#66ff8b" stop-opacity="0"/>
    </linearGradient>
    <linearGradient id="linear-gradient13" x1="346" y1="-10.8" x2="346" y2="-10.1" gradientTransform="translate(-535.9 477.4) scale(2 29)" gradientUnits="userSpaceOnUse">
      <stop offset="0" stop-color="#9457eb"/>
      <stop offset="1" stop-color="#9457eb" stop-opacity="0"/>
    </linearGradient>
    <linearGradient id="linear-gradient14" x1="348.6" y1="-10.8" x2="348.6" y2="-10.1" gradientTransform="translate(-507.9 477.4) scale(2 29)" gradientUnits="userSpaceOnUse">
      <stop offset="0" stop-color="#f76e83"/>
      <stop offset="1" stop-color="#f76e83" stop-opacity="0"/>
    </linearGradient>
    <linearGradient id="linear-gradient15" x1="346.7" y1="-10.8" x2="346.7" y2="-10.1" gradientTransform="translate(-527.9 477.4) scale(2 29)" gradientUnits="userSpaceOnUse">
      <stop offset="0" stop-color="#66ff8b"/>
      <stop offset="1" stop-color="#66ff8b" stop-opacity="0"/>
    </linearGradient>
    <linearGradient id="linear-gradient16" x1="347.9" y1="-10.8" x2="347.9" y2="-10.1" gradientTransform="translate(-515.9 477.4) scale(2 29)" gradientUnits="userSpaceOnUse">
      <stop offset="0" stop-color="#66f"/>
      <stop offset="1" stop-color="#66f" stop-opacity="0"/>
    </linearGradient>
  </defs>
  <g id="_暂无数据-大图">
    <g id="_空状态" class="st45">
      <g id="_横点线">
        <path id="_路径_3314" class="st1" d="M565.6,33.7l-11.6,11.6h-97.4"/>
        <circle id="_椭圆_1030" class="st34" cx="565.5" cy="33.5" r="3"/>
      </g>
      <g id="_最后排的楼">
        <path id="_路径_3307" class="st50" d="M534.1,76.4c0-26.2-21.3-47.5-47.5-47.5s-47.5,21.3-47.5,47.5v294.8h95V76.4Z"/>
        <rect id="_矩形_15494" class="st50" x="163.1" y="60.4" width="78.5" height="310.1"/>
      </g>
      <g id="_最后第二排的楼">
        <path id="_路径_3308" class="st13" d="M222.8,96.8l66,31.5v242h-66V96.8h0Z"/>
        <path id="_路径_3309" class="st13" d="M483.7,96.8l-66,31.5v242h66V96.8Z"/>
        <rect id="_矩形_15495" class="st13" x="295" y="163.8" width="60.6" height="206.8"/>
      </g>
      <g id="_第二层楼">
        <path id="_路径_3310" class="st33" d="M62.8,141.4l29.1-38.3,29.1,38.3v228.8h-58.2v-228.8Z"/>
        <path id="_路径_3311" class="st15" d="M527.3,141l29.1-38.4,29.1,38.4v229.3h-58.2v-229.3Z"/>
        <rect id="_矩形_15499" class="st14" x="346.1" y="184" width="79.6" height="186.5"/>
        <path id="_路径_3312" class="st17" d="M187.9,163.7h-61.1v206.6h109.6v-122.2h-48.5v-84.4h0Z"/>
        <g id="_窗户">
          <rect id="_矩形_15500" class="st42" x="68.1" y="159.1" width="11.9" height="7.1"/>
          <rect id="_矩形_15503" class="st42" x="84.7" y="159.1" width="9.5" height="7.1"/>
          <rect id="_矩形_15505" class="st42" x="84.7" y="172.1" width="9.5" height="8.3"/>
          <rect id="_矩形_15507" class="st42" x="84.7" y="186.4" width="9.5" height="7.1"/>
          <rect id="_矩形_15504" class="st42" x="97.8" y="159.1" width="9.5" height="7.1"/>
          <rect id="_矩形_15506" class="st42" x="97.8" y="172.1" width="9.5" height="8.3"/>
          <rect id="_矩形_15508" class="st42" x="97.8" y="186.4" width="9.5" height="7.1"/>
          <rect id="_矩形_15501" class="st42" x="68.1" y="186.4" width="11.9" height="7.1"/>
          <rect id="_矩形_15502" class="st42" x="68.1" y="172.1" width="11.9" height="8.3"/>
        </g>
      </g>
      <g id="_横点线-2">
        <line id="_直线_1" class="st10" x1="286.8" y1="107" x2="383.8" y2="107"/>
        <circle id="_椭圆_1025" class="st38" cx="286.2" cy="107" r="3"/>
      </g>
      <g id="_竖点线">
        <line id="_直线_2" class="st1" x1="430.4" y1="73.7" x2="430.4" y2="170.6"/>
        <circle id="_椭圆_1026" class="st11" cx="430.4" cy="73.2" r="3"/>
        <line id="_直线_3" class="st1" x1="444" y1="87.3" x2="444" y2="184.3"/>
        <circle id="_椭圆_1027" class="st11" cx="444.2" cy="86.8" r="3"/>
        <line id="_直线_4" class="st1" x1="457.6" y1="73.7" x2="457.6" y2="170.6"/>
        <circle id="_椭圆_1028" class="st11" cx="457.6" cy="71.4" r="3"/>
        <line id="_直线_5" class="st1" x1="471.2" y1="63" x2="471.2" y2="160"/>
        <circle id="_椭圆_1029" class="st11" cx="471.2" cy="61.1" r="3"/>
      </g>
      <g id="_横点线-3">
        <path id="_路径_3314-2" class="st10" d="M213.7,86.6l11.6-11.6h97.4"/>
        <circle id="_椭圆_1030-2" class="st23" cx="213.7" cy="85.9" r="3"/>
      </g>
      <g id="_排线">
        <line id="_直线_6" class="st7" x1="135.8" y1="157" x2="135.8" y2="233.6"/>
        <line id="_直线_7" class="st7" x1="143.5" y1="147.4" x2="143.5" y2="224"/>
        <line id="_直线_8" class="st7" x1="151.3" y1="141.5" x2="151.3" y2="218.1"/>
        <line id="_直线_9" class="st7" x1="159" y1="134.8" x2="159" y2="211.4"/>
      </g>
      <g id="_商场">
        <rect id="_矩形_15496" class="st21" x="167.9" y="268.4" width="336.3" height="102.2"/>
        <path id="_路径_3315" class="st4" d="M167.9,282.5h14.5l34.4,20.9h287.3"/>
        <g id="_窗户-2">
          <g id="_组_4851">
            <rect id="_矩形_15500-2" class="st44" x="173.8" y="320.6" width="13" height="8.3"/>
            <rect id="_矩形_15503-2" class="st44" x="190.4" y="320.6" width="9.5" height="8.3"/>
            <rect id="_矩形_15505-2" class="st44" x="190.4" y="334.9" width="9.5" height="7.1"/>
            <rect id="_矩形_15507-2" class="st44" x="190.4" y="348" width="9.5" height="7.1"/>
            <rect id="_矩形_15504-2" class="st44" x="204.7" y="320.6" width="9.5" height="8.3"/>
            <rect id="_矩形_15506-2" class="st44" x="204.7" y="334.9" width="9.5" height="7.1"/>
            <rect id="_矩形_15508-2" class="st44" x="204.7" y="348" width="9.5" height="7.1"/>
            <rect id="_矩形_15501-2" class="st44" x="173.8" y="348" width="13" height="7.1"/>
            <rect id="_矩形_15502-2" class="st44" x="173.8" y="334.9" width="13" height="7.1"/>
          </g>
          <g id="_组_4854">
            <rect id="_矩形_15500-3" class="st44" x="264.2" y="320.6" width="13" height="8.3"/>
            <rect id="_矩形_15503-3" class="st44" x="280.8" y="320.6" width="9.5" height="8.3"/>
            <rect id="_矩形_15505-3" class="st44" x="280.8" y="334.9" width="9.5" height="7.1"/>
            <rect id="_矩形_15507-3" class="st44" x="280.8" y="348" width="9.5" height="7.1"/>
            <rect id="_矩形_15504-3" class="st44" x="295" y="320.6" width="9.5" height="8.3"/>
            <rect id="_矩形_15506-3" class="st44" x="295" y="334.9" width="9.5" height="7.1"/>
            <rect id="_矩形_15508-3" class="st44" x="295" y="348" width="9.5" height="7.1"/>
            <rect id="_矩形_15501-3" class="st44" x="264.2" y="348" width="13" height="7.1"/>
            <rect id="_矩形_15502-3" class="st44" x="264.2" y="334.9" width="13" height="7.1"/>
          </g>
          <g id="_组_4856">
            <rect id="_矩形_15500-4" class="st44" x="354.4" y="320.6" width="13" height="8.3"/>
            <rect id="_矩形_15503-4" class="st44" x="371.1" y="320.6" width="9.5" height="8.3"/>
            <rect id="_矩形_15505-4" class="st44" x="371.1" y="334.9" width="9.5" height="7.1"/>
            <rect id="_矩形_15507-4" class="st44" x="371.1" y="348" width="9.5" height="7.1"/>
            <rect id="_矩形_15504-4" class="st44" x="384.1" y="320.6" width="10.7" height="8.3"/>
            <rect id="_矩形_15506-4" class="st44" x="384.1" y="334.9" width="10.7" height="7.1"/>
            <rect id="_矩形_15508-4" class="st44" x="384.1" y="348" width="10.7" height="7.1"/>
            <rect id="_矩形_15501-4" class="st44" x="354.4" y="348" width="13" height="7.1"/>
            <rect id="_矩形_15502-4" class="st44" x="354.4" y="334.9" width="13" height="7.1"/>
          </g>
          <g id="_组_4858">
            <rect id="_矩形_15500-5" class="st44" x="444.8" y="320.6" width="13" height="8.3"/>
            <rect id="_矩形_15503-5" class="st44" x="461.5" y="320.6" width="9.5" height="8.3"/>
            <rect id="_矩形_15505-5" class="st44" x="461.5" y="334.9" width="9.5" height="7.1"/>
            <rect id="_矩形_15507-5" class="st44" x="461.5" y="348" width="9.5" height="7.1"/>
            <rect id="_矩形_15504-5" class="st44" x="474.5" y="320.6" width="10.7" height="8.3"/>
            <rect id="_矩形_15506-5" class="st44" x="474.5" y="334.9" width="10.7" height="7.1"/>
            <rect id="_矩形_15508-5" class="st44" x="474.5" y="348" width="10.7" height="7.1"/>
            <rect id="_矩形_15501-5" class="st44" x="444.8" y="348" width="13" height="7.1"/>
            <rect id="_矩形_15502-5" class="st44" x="444.8" y="334.9" width="13" height="7.1"/>
          </g>
          <g id="_窗户-3">
            <rect id="_矩形_15500-6" class="st44" x="245.1" y="320.6" width="13" height="8.3"/>
            <rect id="_矩形_15503-6" class="st44" x="232.1" y="320.6" width="9.5" height="8.3"/>
            <rect id="_矩形_15505-6" class="st44" x="232.1" y="334.9" width="9.5" height="7.1"/>
            <rect id="_矩形_15507-6" class="st44" x="232.1" y="348" width="9.5" height="7.1"/>
            <rect id="_矩形_15504-6" class="st44" x="217.8" y="320.6" width="9.5" height="8.3"/>
            <rect id="_矩形_15506-6" class="st44" x="217.8" y="334.9" width="9.5" height="7.1"/>
            <rect id="_矩形_15508-6" class="st44" x="217.8" y="348" width="9.5" height="7.1"/>
            <rect id="_矩形_15501-6" class="st44" x="245.1" y="348" width="13" height="7.1"/>
            <rect id="_矩形_15502-6" class="st44" x="245.1" y="334.9" width="13" height="7.1"/>
          </g>
          <g id="_组_4853">
            <rect id="_矩形_15500-7" class="st44" x="335.5" y="320.6" width="11.9" height="8.3"/>
            <rect id="_矩形_15503-7" class="st44" x="321.2" y="320.6" width="10.7" height="8.3"/>
            <rect id="_矩形_15505-7" class="st44" x="321.2" y="334.9" width="10.7" height="7.1"/>
            <rect id="_矩形_15507-7" class="st44" x="321.2" y="348" width="10.7" height="7.1"/>
            <rect id="_矩形_15504-7" class="st44" x="308.1" y="320.6" width="9.5" height="8.3"/>
            <rect id="_矩形_15506-7" class="st44" x="308.1" y="334.9" width="9.5" height="7.1"/>
            <rect id="_矩形_15508-7" class="st44" x="308.1" y="348" width="9.5" height="7.1"/>
            <rect id="_矩形_15501-7" class="st44" x="335.5" y="348" width="11.9" height="7.1"/>
            <rect id="_矩形_15502-7" class="st44" x="335.5" y="334.9" width="11.9" height="7.1"/>
          </g>
          <g id="_组_4855">
            <rect id="_矩形_15500-8" class="st44" x="425.7" y="320.6" width="11.9" height="8.3"/>
            <rect id="_矩形_15503-8" class="st44" x="411.5" y="320.6" width="10.7" height="8.3"/>
            <rect id="_矩形_15505-8" class="st44" x="411.5" y="334.9" width="10.7" height="7.1"/>
            <rect id="_矩形_15507-8" class="st44" x="411.5" y="348" width="10.7" height="7.1"/>
            <rect id="_矩形_15504-8" class="st44" x="398.4" y="320.6" width="9.5" height="8.3"/>
            <rect id="_矩形_15506-8" class="st44" x="398.4" y="334.9" width="9.5" height="7.1"/>
            <rect id="_矩形_15508-8" class="st44" x="398.4" y="348" width="9.5" height="7.1"/>
            <rect id="_矩形_15501-8" class="st44" x="425.7" y="348" width="11.9" height="7.1"/>
            <rect id="_矩形_15502-8" class="st44" x="425.7" y="334.9" width="11.9" height="7.1"/>
          </g>
          <g id="_组_4857">
            <rect id="_矩形_15504-9" class="st44" x="488.8" y="320.6" width="9.5" height="8.3"/>
            <rect id="_矩形_15506-9" class="st44" x="488.8" y="334.9" width="9.5" height="7.1"/>
            <rect id="_矩形_15508-9" class="st44" x="488.8" y="348" width="9.5" height="7.1"/>
          </g>
        </g>
      </g>
      <g id="_建筑排线">
        <line id="_直线_10" class="st5" x1="585" y1="141.4" x2="585" y2="370.3"/>
        <line id="_直线_11" class="st5" x1="578.7" y1="141.4" x2="578.7" y2="370.3"/>
        <line id="_直线_12" class="st5" x1="572.3" y1="141.4" x2="572.3" y2="370.3"/>
        <line id="_直线_13" class="st5" x1="565.9" y1="141.4" x2="565.9" y2="370.3"/>
        <line id="_直线_14" class="st5" x1="559.6" y1="141.4" x2="559.6" y2="370.3"/>
        <line id="_直线_15" class="st5" x1="553.2" y1="141.4" x2="553.2" y2="370.3"/>
        <line id="_直线_16" class="st5" x1="546.8" y1="141.4" x2="546.8" y2="370.3"/>
        <line id="_直线_17" class="st5" x1="540.5" y1="141.4" x2="540.5" y2="370.3"/>
        <line id="_直线_18" class="st5" x1="534.2" y1="141.4" x2="534.2" y2="370.3"/>
        <line id="_直线_19" class="st5" x1="527.8" y1="141.4" x2="527.8" y2="370.3"/>
      </g>
      <g id="_竖点线-2">
        <line id="_直线_2-2" class="st3" x1="179.7" y1="316.2" x2="82.7" y2="316.2"/>
        <circle id="_椭圆_1026-2" class="st52" cx="180.1" cy="316.2" r="3"/>
        <line id="_直线_3-2" class="st3" x1="166.1" y1="329.8" x2="44.3" y2="329.8"/>
        <circle id="_椭圆_1027-2" class="st52" cx="166.5" cy="329.9" r="3"/>
        <line id="_直线_4-2" class="st3" x1="179.7" y1="343.3" x2="82.7" y2="343.3"/>
        <path id="_路径_3480" class="st52" d="M181.9,346.3c-1.7,0-3-1.3-3-3s1.3-3,3-3,3,1.3,3,3-1.3,3-3,3Z"/>
        <line id="_直线_5-2" class="st3" x1="190.3" y1="356.9" x2="93.3" y2="356.9"/>
        <circle id="_椭圆_1029-2" class="st52" cx="192.2" cy="356.9" r="3"/>
      </g>
    </g>
    <g id="_放大镜">
      <circle id="_椭圆_1031" class="st49" cx="301.5" cy="186" r="66.7"/>
      <path id="_路径_3316" class="st41" d="M357.5,185.9c0,31.2-25.3,56.4-56.4,56.4s-56.4-25.3-56.4-56.4,25.3-56.4,56.4-56.4,56.4,25.3,56.4,56.4h0ZM348.5,240.7c-30.3,26.2-76.2,22.9-102.3-7.4-26.2-30.3-22.9-76.2,7.4-102.3,30.3-26.2,76.2-22.9,102.3,7.4,23.5,27.2,23.5,67.6,0,94.9,1.8-.6,3.7-.2,5.1,1.2l39.9,39.9-11.4,11.4-39.9-39.9c-1.3-1.3-1.8-3.3-1.2-5.1h0Z"/>
    </g>
    <g id="_男白领">
      <path id="_路径_3317" class="st47" d="M402.9,358.9h3.4l.6,7.2-6.4-2.6,2.3-4.7h0Z"/>
      <path id="_路径_3318" d="M395,366.2l5.3-4.1c.4.5.7,1.1,1.2,1.5,1,.9,2.2,1.2,3.5,1.2.9-.2,1.7-.5,2.3-1.2.5,1.4.9,2.9,1.1,4.5,0,.8-1.8,1-2.3,1-1.5,0-1.4.2-2.3-.4-.4-.3-.6-1.3-.6-1.3l-1.2.4c-1.3,1-2.7,1.8-4.2,2.6-2.4,1-5.1.8-7.4-.4-1.2-.7-.3-2.2,1.1-2.6l3.7-1.2h-.2Z"/>
      <path id="_路径_3319" class="st47" d="M439.7,359.1h-3.4l-.6,7.2,6.4-2.6-2.3-4.7h0Z"/>
      <path id="_路径_3320" d="M447.5,366.4l-5.3-4.1c-.4.5-.7,1.1-1.2,1.5-1,.9-2.2,1.2-3.5,1.2-.9-.2-1.7-.5-2.3-1.2-.5,1.4-.9,2.9-1.1,4.5,0,.8,1.8,1,2.3,1,1.5,0,1.4.2,2.3-.4.4-.3.6-1.3.6-1.3l1.2.4c1.3,1,2.7,1.8,4.2,2.6,2.4,1,5.1.8,7.4-.4,1.2-.7.3-2.2-1.1-2.6l-3.7-1.2h.2Z"/>
      <path id="_路径_3321" class="st47" d="M417.2,214.9h9s-.2,2-.2,3.2.2,3.2.2,3.2h-9.8c.4-1.2.6-2.3.8-3.5v-2.9h0Z"/>
      <path id="_路径_3322" class="st47" d="M411.3,208.6c.6-.5,1.3-.9,2.1-1.1h.4l1,1.7.7-3.4s-.4-3.1.2-4.4c.7-1.5,2.9-2.2,3.9-2.4.4,0,.7-.2,1.1-.2,1.4-.3,2.8,0,4.2.5,2.1,1.1,1.7,1.5,2.6,3,.5,1.1.8,2.2.9,3.4h1.1c.4,0,.9.2,1.2.4.7.5,1.1,1.4.9,2.3,0,.9-.5,1.7-1.2,2.1-.6.3-1.2.3-2,.2,0,1-.3,2-.6,3-.8,1.4-1.9,2.7-3.2,3.6h-3.6c-1.5-.4-2.9-1.1-4.3-2-1-.7-1.9-1.5-2.7-2.3,0,0-2-.6-2.6-1.7-.5-.8-.5-2,0-2.7v-.2Z"/>
      <path id="_路径_3323" d="M419.3,199.9c1.7-1.5,5.1-.4,5.1-.4,0,0,.9,3,2.7,3.8s.6,5.3.6,5.3l.4,2.1,1.5-5.3s2.2-4.3,1.1-6.6c-1-1.9-2.7-3.4-4.7-4-1.6-.7-2.6-3.1-6.8-3-2.3.3-4.3,1.7-5.3,3.8-2,3.8-2,1.2-3.4,5.3-1,2.7,1.1,7.2,1.1,7.2l.9-.4h.9l1.5,3h.6c-.5-2-.4-4.2.4-6.1,2.1-.9,2.7-4.1,3.4-4.7h0Z"/>
      <path id="_路径_3324" class="st39" d="M415.5,219.5l5.8,1.2,5.8-1.2v15.5l-5.1,15.5-5.5-22.7-.9-8.2h0Z"/>
      <path id="_路径_3325" class="st31" d="M421.3,250.8h2l.9-26.5h-4.7l2,26.5h0Z"/>
      <path id="_路径_3326" class="st31" d="M421.5,220.9l2.6,3.4h-4.7l2.1-3.4Z"/>
      <path id="_路径_3327" class="st40" d="M427,221.7v13.4l-5.1,15.5-5.5-22.7-.8-8.2-.4-1.8-14.1,3.2,6.1,24.4-3.2,23.1h37.8l-6.4-24.6,6.8-23.9-15.2-2v3.7-.2Z"/>
      <path id="_路径_3328" class="st46" d="M415.4,217.9c.6-.5,1.2-1.1,2-1.5.2.9.4,1.8.9,2.6.9.9,2,1.5,3.2,2l-2.7,1.6-.4,2.7-1.7-2.2s-1.5-4.5-1.2-5h0Z"/>
      <path id="_路径_3329" class="st46" d="M427.6,218.1l-1.7-1.7c-.3.9-.7,1.8-1.3,2.6-1,.8-2,1.4-3.2,2l2.7,1.6.4,2.7,1.7-2.2s1.8-4.3,1.3-4.8h0Z"/>
      <path id="_路径_3330" class="st47" d="M377.4,236.1l-1.7-1.7c-1.7.3-3.4.3-5.1,0-1.2-.3-2.4-.8-3.4-1.5-1.8-1.2-3.6-1.8-4-3.8,0-.6-.2-1.1.2-1.5.5-.5,2.9.5,3.8.9.8.3,1.2,1.1,2,1.5.5.4,1.2.5,2,.4.9,0,1.4-.3,2.3-.2.8,0,1.6.2,2.3.6.7.5,1.2,1.2,1.7,2l2,1.1-2,2.3h0Z"/>
      <path id="_路径_3331" d="M401.1,221.1l4.3,15.1-16.8,15.9-12.3-13.7,5.3-5.8,7,6.6,12.5-18Z"/>
      <rect id="_矩形_15497" class="st39" x="375.9" y="234.6" width="5.5" height=".9" transform="translate(-49.8 357.7) rotate(-47.8)"/>
      <path id="_路径_3332" class="st47" d="M466.2,231.2l1.4-2c1.7,0,3.4-.2,5.1-.7,1.2-.4,2.2-1.1,3.2-2,1.6-1.3,3.4-2.2,3.5-4.3,0-.6,0-1.1-.4-1.4-.6-.4-2.8.9-3.6,1.3-.7.4-1.1,1.2-1.7,1.7-.5.4-1.2.6-1.9.7-.9,0-1.4,0-2.3,0-.8,0-1.6.4-2.2,1-.6.6-1.1,1.3-1.4,2.1l-1.8,1.3,2.2,2h0Z"/>
      <path id="_路径_3333" d="M442.2,220l-4.4,15.1,19.4,13.4,10.4-15.3-6-5-6,7.4-13.2-15.6h0Z"/>
      <rect id="_矩形_15498" class="st39" x="464.3" y="227.6" width=".9" height="5.5" transform="translate(-10.8 437.4) rotate(-49.9)"/>
      <path id="_路径_3334" d="M423,265.3h-16.1l-4,25.1-2.6,25.8v45.2l8.9.7,7-45.9,2-9.5,3.8-21.5,3,15.2,2.6,16.6,6.8,44.5,8.7-.4,1.1-45.4-3-31.4-3.4-19h-14.7Z"/>
    </g>
    <g id="_统计图">
      <g class="st48">
        <rect id="_矩形_17256-3" class="st18" x="20.6" y="217.9" width="65.3" height="64.2" rx="8" ry="8"/>
      </g>
      <g id="Group_8" class="st45">
        <path id="_路径_3493-2" class="st32" d="M76,250.2c0,12.7-10.3,23.1-23.1,23.1s-23.1-10.3-23.1-23.1,10.3-23.1,23.1-23.1v23.1h23.1Z"/>
        <path id="_路径_3494-2" class="st37" d="M54.9,227.2h0c11.7,0,21.2,9.5,21.2,21.2h-21.2v-21.2Z"/>
      </g>
    </g>
    <g id="_统计图-2">
      <g class="st43">
        <rect id="_矩形_17256-4" class="st20" x="493.5" y="125.1" width="126" height="92.7" rx="8" ry="8"/>
      </g>
      <g id="Group_9" class="st45">
        <path id="_路径_3495" class="st0" d="M505,193h99.8"/>
        <line id="_直线_20" class="st0" x1="505" y1="181.1" x2="604.8" y2="181.1"/>
        <line id="_直线_21" class="st0" x1="505" y1="169.2" x2="604.8" y2="169.2"/>
        <line id="_直线_22" class="st0" x1="505" y1="157.3" x2="604.8" y2="157.3"/>
        <line id="_直线_23" class="st0" x1="505" y1="145.4" x2="604.8" y2="145.4"/>
        <path id="_路径_3496" class="st9" d="M505,204.8s8.6-18.4,18.4-17.2c5.1.6,6.3,5.4,11.3,6.6,14.8,3.3,9.2-29.8,24.4-30.3,12.4-.4,13.1,19.8,25.5,19,16.5-1,19.6-37.4,19.6-37.4"/>
        <path id="_路径_3497" class="st8" d="M505.3,152.3s8.4,15.6,18.2,14.5c5.1-.6,6.3-5.4,11.3-6.6,14.8-3.3,9.2,29.8,24.4,30.3,12.4.4,13.1-19.8,25.5-19,16.5,1,19.6,21.4,19.6,21.4"/>
        <path id="_路径_3498" class="st6" d="M505,193.6s7.7-13.7,17.8-13,4.8-35.6,14.3-35.6,13.7,12.5,21.4,12.5,6.5-11.2,17.2-12.5c10.9-1.3,27.3,7.1,27.3,7.1"/>
        <path id="_路径_3499" class="st2" d="M505,184s12.6-12.9,22.9-13.8c12.3-1.2,16.4,14.5,28.7,13.8,15.6-.8,15.9-29.3,31.1-25.8,7.7,1.7,17,12.2,17,12.2"/>
        <path id="_路径_3500" class="st22" d="M504.5,134.2l-3.5,5.9h6.8l-3.5-5.9h0ZM504.5,205.5h-.6v.6h.6v-.6ZM612,205.5l-5.9-3.5v6.8l5.9-3.5h0ZM503.8,139.5v66h1.2v-66h-1.2ZM504.5,206h102.2v-1.2h-102.2v1.2Z"/>
      </g>
    </g>
    <g id="_柱状图">
      <rect id="_矩形_17267" class="st19" x="138.2" y="118" width="68.9" height="78.5" rx="8" ry="8"/>
      <rect id="_矩形_17268" class="st0" x="138.2" y="118" width="68.9" height="20.2"/>
      <g id="_组_5058" class="st45">
        <path id="_矩形_17269" class="st16" d="M150.6,150.1h0c1,0,1.8.8,1.8,1.8v30.9c0,1-.8,1.8-1.8,1.8h0c-1,0-1.8-.8-1.8-1.8v-30.9c0-1,.8-1.8,1.8-1.8h0Z"/>
        <path id="_矩形_17270" class="st29" d="M184.5,150.1h0c.6,0,1.2.5,1.2,1.2v32.1c0,.6-.5,1.2-1.2,1.2h0c-.6,0-1.2-.5-1.2-1.2v-32.1c0-.6.5-1.2,1.2-1.2Z"/>
        <path id="_矩形_17271" class="st28" d="M160.7,150.1h0c.6,0,1.2.5,1.2,1.2v32.1c0,.6-.5,1.2-1.2,1.2h0c-.6,0-1.2-.5-1.2-1.2v-32.1c0-.6.5-1.2,1.2-1.2Z"/>
        <path id="_矩形_17272" class="st25" d="M194.6,150.1h0c1,0,1.8.8,1.8,1.8v30.9c0,1-.8,1.8-1.8,1.8h0c-1,0-1.8-.8-1.8-1.8v-30.9c0-1,.8-1.8,1.8-1.8h0Z"/>
        <path id="_矩形_17273" class="st24" d="M156,150.1h0c.6,0,1.2.5,1.2,1.2v32.1c0,.6-.5,1.2-1.2,1.2h0c-.6,0-1.2-.5-1.2-1.2v-32.1c0-.6.5-1.2,1.2-1.2Z"/>
        <path id="_矩形_17274" class="st30" d="M189.3,150.1h0c.6,0,1.2.5,1.2,1.2v32.1c0,.6-.5,1.2-1.2,1.2h0c-.6,0-1.2-.5-1.2-1.2v-32.1c0-.6.5-1.2,1.2-1.2Z"/>
        <path id="_矩形_17275" class="st26" d="M165.5,150.1h0c.6,0,1.2.5,1.2,1.2v32.1c0,.6-.5,1.2-1.2,1.2h0c-.6,0-1.2-.5-1.2-1.2v-32.1c0-.6.5-1.2,1.2-1.2Z"/>
        <path id="_矩形_17276" class="st27" d="M179.8,150.1h0c.6,0,1.2.5,1.2,1.2v32.1c0,.6-.5,1.2-1.2,1.2h0c-.6,0-1.2-.5-1.2-1.2v-32.1c0-.6.5-1.2,1.2-1.2Z"/>
        <rect id="_矩形_17277" class="st0" x="138.2" y="134.6" width="68.9" height="15.4"/>
        <circle id="_椭圆_1041" class="st51" cx="167.9" cy="141.8" r="2.4"/>
        <circle id="_椭圆_1042" class="st36" cx="157.2" cy="141.8" r="2.4"/>
        <circle id="_椭圆_1043" class="st12" cx="177.4" cy="141.8" r="2.4"/>
        <circle id="_椭圆_1044" class="st35" cx="188.1" cy="141.8" r="2.4"/>
      </g>
    </g>
  </g>
</svg>