<?xml version="1.0" encoding="UTF-8"?>
<svg id="Layer_1" xmlns="http://www.w3.org/2000/svg" xmlns:xlink="http://www.w3.org/1999/xlink" version="1.1" viewBox="0 0 150 120">
  <!-- Generator: Adobe Illustrator 29.4.0, SVG Export Plug-In . SVG Version: 2.1.0 Build 152)  -->
  <defs>
    <style>
      .st0 {
        fill: #ccf6fe;
      }

      .st0, .st1, .st2 {
        fill-rule: evenodd;
      }

      .st1 {
        fill: #0498fe;
      }

      .st3 {
        filter: url(#filter-2);
      }
    </style>
    <filter id="filter-2" x="-42.4%" y="-35.9%" width="184.8%" height="184.8%">
      <feOffset dx="0" dy="3" in="SourceAlpha" result="shadowOffsetOuter1"/>
      <feGaussianBlur in="shadowOffsetOuter1" result="shadowBlurOuter1" stdDeviation="6"/>
      <feColorMatrix in="shadowBlurOuter1" values="0 0 0 0 0   0 0 0 0 0   0 0 0 0 0  0 0 0 0.4 0"/>
    </filter>
  </defs>
  <path id="_形状结合" data-name="形状结合" class="st0" d="M71.8,13.8c.2,0,.3,0,.5,0v48.8s47.8,0,47.8,0c-.3,26.5-21.8,47.8-48.3,47.8s-48.3-21.6-48.3-48.3S45.1,13.8,71.8,13.8Z"/>
  <g id="path-1" class="st3">
    <path class="st2" d="M77.1,9.6c26.7,0,48.4,21.7,48.4,48.4v.5h-48.8V9.6s.5,0,.5,0Z"/>
  </g>
  <path id="path-11" data-name="path-1" class="st1" d="M77.1,9.6c26.7,0,48.4,21.7,48.4,48.4v.5h-48.8V9.6s.5,0,.5,0Z"/>
</svg>