<?xml version="1.0" encoding="UTF-8"?>
<svg id="Layer_1" xmlns="http://www.w3.org/2000/svg" xmlns:xlink="http://www.w3.org/1999/xlink" version="1.1" viewBox="0 0 150 120">
  <!-- Generator: Adobe Illustrator 29.4.0, SVG Export Plug-In . SVG Version: 2.1.0 Build 152)  -->
  <defs>
    <style>
      .st0 {
        fill: #00ced1;
      }

      .st1 {
        fill: #0498fe;
      }

      .st2 {
        fill: url(#linear-gradient1);
      }

      .st2, .st3, .st4, .st5, .st6, .st7, .st8 {
        fill-opacity: .5;
      }

      .st3 {
        fill: url(#linear-gradient2);
      }

      .st4 {
        fill: url(#linear-gradient4);
      }

      .st5 {
        fill: url(#linear-gradient5);
      }

      .st6 {
        fill: url(#linear-gradient3);
      }

      .st7 {
        fill: url(#linear-gradient6);
      }

      .st8 {
        fill: url(#linear-gradient);
      }

      .st9 {
        fill: #9457eb;
      }
    </style>
    <linearGradient id="linear-gradient" x1="-1720" y1="69.6" x2="-1718.4" y2="69.6" gradientTransform="translate(63114.6 -937.5) scale(36.7 14)" gradientUnits="userSpaceOnUse">
      <stop offset="0" stop-color="#0498fe"/>
      <stop offset="1" stop-color="#00ced1"/>
    </linearGradient>
    <linearGradient id="linear-gradient1" x1="75" y1="85.4" x2="133.1" y2="85.4" gradientTransform="translate(0 122) scale(1 -1)" gradientUnits="userSpaceOnUse">
      <stop offset="0" stop-color="#00ced1"/>
      <stop offset="1" stop-color="#66f"/>
    </linearGradient>
    <linearGradient id="linear-gradient2" x1="75" y1="64.6" x2="133.1" y2="64.6" gradientTransform="translate(0 122) scale(1 -1)" gradientUnits="userSpaceOnUse">
      <stop offset="0" stop-color="#00ced1"/>
      <stop offset="1" stop-color="#66f"/>
    </linearGradient>
    <linearGradient id="linear-gradient3" x1="-1720" y1="97.7" x2="-1718.4" y2="97.7" gradientTransform="translate(63114.6 -921.5) scale(36.7 10)" gradientUnits="userSpaceOnUse">
      <stop offset="0" stop-color="#0498fe"/>
      <stop offset="1" stop-color="#00ced1"/>
    </linearGradient>
    <linearGradient id="linear-gradient4" x1="-1720.7" y1="55.1" x2="-1719.1" y2="55.1" gradientTransform="translate(63998.8 -920.5) scale(37.2 18)" gradientUnits="userSpaceOnUse">
      <stop offset="0" stop-color="#0498fe"/>
      <stop offset="1" stop-color="#00ced1"/>
    </linearGradient>
    <linearGradient id="linear-gradient5" y1="72.1" y2="72.1" gradientTransform="matrix(1,0,0,1,0,0)" xlink:href="#linear-gradient1"/>
    <linearGradient id="linear-gradient6" y1="83.1" y2="83.1" gradientTransform="matrix(1,0,0,1,0,0)" xlink:href="#linear-gradient1"/>
  </defs>
  <path id="Path_3670" class="st8" d="M16.9,25.9h58.1v21.4H16.9v-21.4Z"/>
  <path id="Path_36701" class="st2" d="M75,25.9h58.1v21.4h-58.1s0-21.4,0-21.4Z"/>
  <path id="Path_36702" class="st3" d="M75,51.8h58.1v11.1h-58.1s0-11.1,0-11.1Z"/>
  <path id="Path_3671" class="st6" d="M16.9,47.3c23.8,0,34.3,4.5,58.1,4.5v11.1c-23.8,0-34.3-5.2-58.1-5.2v-10.3h0Z"/>
  <path id="Path_3672" class="st4" d="M16.9,57.7c23.5,0,34.6,10,58.1,10v16.5c-23.5,0-34.6-9.2-58.1-9.2v-17.4h0Z"/>
  <path id="Path_3672-Copy" class="st5" d="M75,67.7c23.8,0,34.4,3.2,58.1,3.2v5.6c-23.8,0-34.4-4.3-58.1-4.3v-4.4h0Z"/>
  <path id="Path_3673-Copy" class="st7" d="M75,72.2c24,0,34.1,9,58.1,9v12.9c-24,0-34.1-9.8-58.1-9.8,0,0,0-12.1,0-12.1Z"/>
  <path id="Rectangle_43353" class="st1" d="M16.9,25.1h0c.4,0,.8.4.8.8v49.2c0,.4-.4.8-.8.8h0c-.4,0-.8-.4-.8-.8V25.9c0-.4.4-.8.8-.8Z"/>
  <path id="Rectangle_43354" class="st9" d="M133.1,25.1h0c.4,0,.8.4.8.8v21.4c0,.4-.4.8-.8.8h0c-.4,0-.8-.4-.8-.8v-21.4c0-.4.4-.8.8-.8Z"/>
  <path id="Rectangle_43356" class="st9" d="M133.1,51h0c.4,0,.8.4.8.8v11.1c0,.4-.4.8-.8.8h0c-.4,0-.8-.4-.8-.8v-11.1c0-.4.4-.8.8-.8Z"/>
  <path id="Rectangle_43357" class="st9" d="M133.1,70.1h0c.4,0,.8.4.8.8v5.6c0,.4-.4.8-.8.8h0c-.4,0-.8-.4-.8-.8v-5.6c0-.4.4-.8.8-.8Z"/>
  <path id="Rectangle_43358" class="st9" d="M133.1,80.4h0c.4,0,.8.4.8.8v12.9c0,.4-.4.8-.8.8h0c-.4,0-.8-.4-.8-.8v-12.9c0-.4.4-.8.8-.8Z"/>
  <path id="Rectangle_43354-Copy" class="st0" d="M75,25.1h0c.4,0,.8.4.8.8v21.4c0,.4-.4.8-.8.8h0c-.4,0-.8-.4-.8-.8v-21.4c0-.4.4-.8.8-.8Z"/>
  <path id="Rectangle_43356-Copy" class="st0" d="M75,51h0c.4,0,.8.4.8.8v11.1c0,.4-.4.8-.8.8h0c-.4,0-.8-.4-.8-.8v-11.1c0-.4.4-.8.8-.8Z"/>
  <path id="Rectangle_43356-Copy-2" class="st0" d="M75,66.9h0c.4,0,.8.4.8.8v16.5c0,.4-.4.8-.8.8h0c-.4,0-.8-.4-.8-.8v-16.5c0-.4.4-.8.8-.8Z"/>
</svg>