<?xml version="1.0" encoding="UTF-8"?>
<svg id="HL" xmlns="http://www.w3.org/2000/svg" viewBox="0 0 24 24">
  <path d="M13.54,10.05c-.42-.16-.91-.24-1.45-.24-.46,0-.91.07-1.33.21-.43.14-.79.41-1.09.79-.09.12-.18.25-.25.4-.08.15-.12.3-.12.47,0,.22.07.38.21.47.13.09.29.14.49.14.24,0,.43-.07.56-.21.12-.13.25-.28.36-.45.11-.16.26-.31.44-.43.18-.12.45-.18.81-.18.42,0,.74.06.94.19.2.12.33.31.39.55.06.24.09.54.09.9-.35,0-.73.02-1.14.05-.42.02-.85.08-1.25.17-.41.09-.79.23-1.13.41-.34.19-.62.45-.83.78-.2.33-.31.76-.31,1.26,0,.69.23,1.22.68,1.57.45.35,1,.53,1.65.53.48,0,.93-.11,1.33-.32.36-.19.7-.44.99-.74v.39c0,.18.04.34.13.47.09.13.27.2.52.2.44,0,.67-.23.67-.67v-4.48c0-.59-.12-1.07-.37-1.43-.25-.36-.58-.62-1.01-.78ZM13.6,14.68c0,.18-.08.36-.25.55-.17.19-.32.34-.45.45-.21.18-.45.32-.72.42-.26.1-.54.15-.82.15-.34,0-.61-.08-.79-.23-.18-.15-.28-.41-.28-.75,0-.31.08-.56.23-.76.15-.2.36-.35.62-.46.26-.11.54-.19.84-.24.31-.05.61-.08.89-.1.27-.01.51-.02.73-.03v1Z" style="fill: #66f;"/>
</svg>