<?xml version="1.0" encoding="UTF-8"?>
<svg id="FL" xmlns="http://www.w3.org/2000/svg" viewBox="0 0 24 24">
  <path d="M18.9,2.95H5.1c-1.19,0-2.15.96-2.15,2.15v1c0,1.19.96,2.15,2.15,2.15h13.8c1.19,0,2.15-.96,2.15-2.15v-1c0-1.19-.96-2.15-2.15-2.15ZM19.75,6.1c0,.47-.38.85-.85.85H5.1c-.47,0-.85-.38-.85-.85v-1c0-.47.38-.85.85-.85h13.8c.47,0,.85.38.85.85v1Z"/>
  <path d="M15.2,9.35c-3.23,0-5.85,2.62-5.85,5.85s2.62,5.85,5.85,5.85c.77,0,1.52-.15,2.24-.45.33-.14.49-.52.35-.85-.14-.33-.52-.49-.85-.35-.56.23-1.14.35-1.74.35-2.51,0-4.55-2.04-4.55-4.55s2.04-4.55,4.55-4.55,4.55,2.04,4.55,4.55c0,.6-.12,1.18-.35,1.74-.14.33.02.71.35.85.33.14.71-.02.85-.35.3-.72.45-1.47.45-2.24,0-3.23-2.62-5.85-5.85-5.85Z"/>
</svg>