<?xml version="1.0" encoding="UTF-8"?>
<svg id="TL" xmlns="http://www.w3.org/2000/svg" viewBox="0 0 24 24">
  <path d="M17.7,14.55h-1.85v-1.85c0-.36-.29-.65-.65-.65s-.65.29-.65.65v1.85h-1.85c-.36,0-.65.29-.65.65s.29.65.65.65h1.85v1.85c0,.36.29.65.65.65s.65-.29.65-.65v-1.85h1.85c.36,0,.65-.29.65-.65s-.29-.65-.65-.65Z"/>
  <path d="M7.25,8.25h11.65c1.19,0,2.15-.96,2.15-2.15v-1c0-1.19-.96-2.15-2.15-2.15H5.1c-1.19,0-2.15.96-2.15,2.15v1c0,1.19.96,2.15,2.15,2.15h.85v6.95c0,.36.29.65.65.65h2.79c.32,2.92,2.81,5.2,5.81,5.2.77,0,1.52-.15,2.24-.45.33-.14.49-.52.35-.85-.14-.33-.52-.49-.85-.35-.56.23-1.14.35-1.74.35-2.51,0-4.55-2.04-4.55-4.55s2.04-4.55,4.55-4.55,4.55,2.04,4.55,4.55c0,.6-.12,1.18-.35,1.74-.14.33.02.71.35.85.33.14.71-.02.85-.35.3-.72.45-1.47.45-2.24,0-3.23-2.62-5.85-5.85-5.85-3.01,0-5.49,2.28-5.81,5.2h-2.14v-6.3ZM4.25,6.1v-1c0-.47.38-.85.85-.85h13.8c.47,0,.85.38.85.85v1c0,.47-.38.85-.85.85H5.1c-.47,0-.85-.38-.85-.85Z"/>
</svg>