<?xml version="1.0" encoding="UTF-8"?>
<svg id="HL" xmlns="http://www.w3.org/2000/svg" viewBox="0 0 24 24">
  <path d="M10,14.55h-2.75v-6.95c0-.36-.29-.65-.65-.65s-.65.29-.65.65v7.6c0,.36.29.65.65.65h3.4c.36,0,.65-.29.65-.65s-.29-.65-.65-.65Z" style="fill: #66f;"/>
  <path d="M17.7,14.55h-1.85v-1.85c0-.36-.29-.65-.65-.65s-.65.29-.65.65v1.85h-1.85c-.36,0-.65.29-.65.65s.29.65.65.65h1.85v1.85c0,.36.29.65.65.65s.65-.29.65-.65v-1.85h1.85c.36,0,.65-.29.65-.65s-.29-.65-.65-.65Z" style="fill: #66f;"/>
</svg>