<?xml version="1.0" encoding="UTF-8"?>
<svg id="TF" xmlns="http://www.w3.org/2000/svg" viewBox="0 0 24 24">
  <path d="M7.15,8.15h11.75c1.13,0,2.05-.92,2.05-2.05v-1c0-1.13-.92-2.05-2.05-2.05H5.1c-1.13,0-2.05.92-2.05,2.05v1c0,1.13.92,2.05,2.05,2.05h.95v7.05c0,.3.25.55.55.55h2.88c.28,2.91,2.74,5.2,5.72,5.2,3.17,0,5.75-2.58,5.75-5.75s-2.58-5.75-5.75-5.75c-2.99,0-5.44,2.29-5.72,5.2h-2.33v-6.5ZM12.7,14.65h1.95v-1.95c0-.3.25-.55.55-.55s.55.25.55.55v1.95h1.95c.3,0,.55.25.55.55s-.25.55-.55.55h-1.95v1.95c0,.3-.25.55-.55.55s-.55-.25-.55-.55v-1.95h-1.95c-.3,0-.55-.25-.55-.55s.25-.55.55-.55Z"/>
</svg>