<?xml version="1.0" encoding="UTF-8"?>
<svg id="TL" xmlns="http://www.w3.org/2000/svg" viewBox="0 0 24 24">
  <path d="M15,5.95c-2.42,0-3.46,4.94-3.64,5.93-.38,2.04-1.41,4.87-2.36,4.87s-1.98-2.83-2.36-4.87c-.07-.35-.41-.59-.76-.52-.35.07-.59.4-.52.76.18.99,1.22,5.93,3.64,5.93s3.46-4.94,3.64-5.93c.38-2.04,1.41-4.87,2.36-4.87s1.98,2.83,2.36,4.87c.07.35.41.58.76.52.35-.07.59-.4.52-.76-.18-.99-1.22-5.93-3.64-5.93Z" style="fill: #000; stroke-width: 0px;"/>
  <path d="M18.9,2.95H5.1c-1.19,0-2.15.96-2.15,2.15v13.8c0,1.19.96,2.15,2.15,2.15h11.8c.36,0,.65-.29.65-.65s-.29-.65-.65-.65H5.1c-.47,0-.85-.38-.85-.85V5.1c0-.47.38-.85.85-.85h13.8c.47,0,.85.38.85.85v11.8c0,.36.29.65.65.65s.65-.29.65-.65V5.1c0-1.19-.96-2.15-2.15-2.15Z" style="fill: #000; stroke-width: 0px;"/>
</svg>