<?xml version="1.0" encoding="UTF-8"?>
<svg id="FF" xmlns="http://www.w3.org/2000/svg" viewBox="0 0 24 24">
  <path d="M18.54,12c0,.26-.18.49-.44.54-.3.06-.58-.14-.64-.44-.37-2-1.41-4.95-2.46-4.95s-2.09,2.95-2.46,4.95c-.18.98-1.2,5.85-3.54,5.85s-3.36-4.87-3.54-5.85c0-.03,0-.07,0-.1h-2.41v6.9c0,1.13.92,2.05,2.05,2.05h12.8c-.14,0-.28-.05-.39-.16-.21-.21-.21-.56,0-.78l1.56-1.56h-5.07c-.3,0-.55-.25-.55-.55s.25-.55.55-.55h5.07l-1.56-1.56c-.21-.21-.21-.56,0-.78.21-.21.56-.21.78,0l2.5,2.5c.11.11.16.25.16.39v-5.9h-2.41Z" style="fill: #000; stroke-width: 0px;"/>
  <path d="M18.29,20.79c-.11.11-.25.16-.39.16h1c1.13,0,2.05-.92,2.05-2.05v-1c0,.14-.05.28-.16.39l-2.5,2.5Z" style="fill: #000; stroke-width: 0px;"/>
</svg>