<?xml version="1.0" encoding="UTF-8"?>
<svg id="TL" xmlns="http://www.w3.org/2000/svg" viewBox="0 0 24 24">
  <path d="M20.4,17.25h-4.83l1.39-1.39c.25-.25.25-.67,0-.92s-.67-.25-.92,0l-2.5,2.5c-.25.25-.25.67,0,.92l2.5,2.5c.13.13.29.19.46.19s.33-.06.46-.19c.25-.25.25-.67,0-.92l-1.39-1.39h4.83c.36,0,.65-.29.65-.65s-.29-.65-.65-.65Z" style="fill: #000; stroke-width: 0px;"/>
  <g>
    <path d="M18.9,2.95H5.1c-1.19,0-2.15.96-2.15,2.15v13.8c0,1.19.96,2.15,2.15,2.15h6.9c.36,0,.65-.29.65-.65s-.29-.65-.65-.65h-6.9c-.47,0-.85-.38-.85-.85V5.1c0-.47.38-.85.85-.85h13.8c.47,0,.85.38.85.85v6.9c0,.36.29.65.65.65s.65-.29.65-.65v-6.9c0-1.19-.96-2.15-2.15-2.15Z" style="fill: #000; stroke-width: 0px;"/>
    <path d="M15,7.25c.95,0,1.98,2.83,2.36,4.87.06.35.41.58.76.52.35-.07.59-.4.52-.76-.18-.99-1.22-5.93-3.64-5.93s-3.46,4.94-3.64,5.93c-.38,2.04-1.41,4.87-2.36,4.87s-1.98-2.83-2.36-4.87c-.07-.35-.41-.59-.76-.52-.35.07-.59.4-.52.76.18.99,1.22,5.93,3.64,5.93s3.46-4.94,3.64-5.93c.38-2.04,1.41-4.87,2.36-4.87Z" style="fill: #000; stroke-width: 0px;"/>
  </g>
</svg>