<?xml version="1.0" encoding="UTF-8"?>
<svg id="TF" xmlns="http://www.w3.org/2000/svg" viewBox="0 0 24 24">
  <path d="M18.9,3.05H5.1c-1.13,0-2.05.92-2.05,2.05v13.8c0,1.13.92,2.05,2.05,2.05h8.75v-5.55c0-.85.7-1.55,1.55-1.55h5.55V5.1c0-1.13-.92-2.05-2.05-2.05ZM18.1,12.54c-.3.06-.59-.14-.64-.44-.37-2-1.41-4.95-2.46-4.95s-2.09,2.95-2.46,4.95c-.18.98-1.2,5.85-3.54,5.85s-3.36-4.87-3.54-5.85c-.06-.3.14-.59.44-.64.3-.06.59.14.64.44.37,2,1.41,4.95,2.46,4.95s2.09-2.95,2.46-4.95c.18-.98,1.2-5.85,3.54-5.85s3.36,4.87,3.54,5.85c.06.3-.14.59-.44.64Z" style="fill: #404040; stroke-width: 0px;"/>
  <path d="M20.4,14.85h-5c-.22,0-.42.13-.51.34-.08.21-.04.44.12.6l2.11,2.11-2.11,2.11c-.16.16-.2.39-.12.6.09.21.29.34.51.34h5c.3,0,.55-.25.55-.55v-1c0-.3-.25-.55-.55-.55s-.55.25-.55.55v.45h-3.12l1.56-1.56c.21-.21.21-.56,0-.78l-1.56-1.56h3.12v.45c0,.3.25.55.55.55s.55-.25.55-.55v-1c0-.3-.25-.55-.55-.55Z" style="fill: #404040; stroke-width: 0px;"/>
</svg>