<?xml version="1.0" encoding="UTF-8"?>
<svg id="TL" xmlns="http://www.w3.org/2000/svg" viewBox="0 0 24 24">
  <path d="M10.89,18.06c-.16-.26-.32-.5-.47-.72-.14-.2-.24-.35-.31-.45.31-.72.52-1.48.63-2.27.11-.8.16-1.6.16-2.4,0-.28-.06-.52-.18-.71-.13-.2-.36-.3-.69-.3-.35,0-.58.12-.68.36-.1.22-.16.48-.19.76-.03.46-.05.94-.08,1.42-.02.43-.08.87-.18,1.29l-2.25-3.48c.4-.4.81-.83,1.21-1.28.42-.46.77-.96,1.05-1.49.28-.53.43-1.12.43-1.74,0-1.06-.28-1.86-.83-2.37-.55-.51-1.36-.77-2.4-.77-2.21,0-3.33,1.11-3.33,3.29,0,.5.09,1,.27,1.48.18.49.4.96.67,1.41.26.44.52.85.77,1.24-.4.42-.79.88-1.17,1.37-.38.51-.7,1.06-.95,1.63-.25.58-.37,1.18-.37,1.8,0,1.2.36,2.17,1.08,2.88s1.69,1.07,2.89,1.07c.65,0,1.25-.15,1.79-.45.52-.29.99-.66,1.41-1.12.1.15.21.34.34.57.14.25.31.49.5.69.19.21.42.31.66.31.56,0,.85-.27.85-.81,0-.11-.06-.27-.19-.5-.12-.22-.27-.46-.43-.72ZM4.97,5.98c.28-.23.68-.35,1.17-.35.97,0,1.45.48,1.45,1.47,0,.36-.1.73-.31,1.11-.21.38-.46.75-.75,1.1-.27.33-.53.61-.76.85-.29-.42-.56-.9-.81-1.43-.26-.54-.4-1.09-.4-1.63s.14-.89.42-1.12ZM7.27,17.95c-.37.24-.8.36-1.3.36-.73,0-1.27-.19-1.6-.58-.33-.39-.5-.94-.5-1.65,0-.63.16-1.24.49-1.8.31-.55.68-1.05,1.08-1.48l2.74,4.19c-.24.4-.54.73-.9.96Z"/>
  <path d="M21.83,18.78c-.12-.22-.27-.46-.43-.72-.16-.26-.32-.5-.47-.72-.14-.2-.24-.35-.31-.45.31-.72.52-1.48.63-2.27.11-.8.16-1.6.16-2.4,0-.28-.06-.52-.18-.71-.13-.2-.36-.3-.69-.3-.35,0-.58.12-.68.36-.1.22-.16.48-.19.76-.03.46-.05.94-.08,1.42-.02.43-.08.87-.18,1.29l-2.25-3.48c.4-.4.81-.83,1.21-1.28.42-.46.77-.96,1.05-1.49.28-.53.43-1.12.43-1.74,0-1.06-.28-1.86-.83-2.37-.55-.51-1.36-.77-2.4-.77-2.21,0-3.33,1.11-3.33,3.29,0,.5.09,1,.27,1.48.18.49.4.96.67,1.41.26.44.52.85.77,1.24-.4.42-.79.88-1.17,1.37-.38.51-.7,1.06-.95,1.63-.25.58-.37,1.18-.37,1.8,0,1.2.36,2.17,1.08,2.88s1.69,1.07,2.89,1.07c.65,0,1.25-.15,1.79-.45.52-.29.99-.66,1.41-1.12.1.15.21.34.34.57.14.25.31.49.5.69.19.21.42.31.66.31.56,0,.85-.27.85-.81,0-.11-.06-.27-.19-.5ZM15.47,5.98c.28-.23.68-.35,1.17-.35.97,0,1.45.48,1.45,1.47,0,.36-.1.73-.31,1.11-.21.38-.46.75-.75,1.1-.27.33-.53.61-.76.85-.29-.42-.56-.9-.81-1.43-.26-.54-.4-1.09-.4-1.63s.14-.89.42-1.12ZM17.77,17.95c-.37.24-.8.36-1.3.36-.73,0-1.27-.19-1.6-.58-.33-.39-.5-.94-.5-1.65,0-.63.16-1.24.49-1.8.31-.55.68-1.05,1.08-1.48l2.74,4.19c-.24.4-.54.73-.9.96Z"/>
</svg>