<?xml version="1.0" encoding="UTF-8"?>
<svg id="TF" xmlns="http://www.w3.org/2000/svg" viewBox="0 0 24 24">
  <path d="M10.81,18.12c-.16-.26-.32-.5-.47-.72-.15-.22-.26-.38-.33-.47l-.02-.02v-.03c.32-.72.54-1.48.64-2.27.11-.79.16-1.6.16-2.38,0-.26-.06-.48-.17-.66-.11-.17-.31-.25-.6-.25-.31,0-.5.1-.59.3-.09.21-.15.46-.18.72-.03.46-.05.93-.08,1.41-.03.48-.1.96-.21,1.42l-.03.11-.06-.1-2.36-3.64.03-.03c.41-.41.82-.85,1.24-1.3.41-.45.76-.95,1.04-1.47.27-.52.41-1.08.41-1.69,0-1.03-.27-1.81-.79-2.3-.53-.49-1.31-.75-2.33-.75-2.17,0-3.23,1.04-3.23,3.19,0,.48.09.97.26,1.45.18.48.4.95.66,1.4.27.45.53.88.79,1.27l.02.03-.03.03c-.41.42-.81.89-1.19,1.39-.38.5-.69,1.04-.94,1.61-.24.57-.37,1.16-.37,1.76,0,1.17.35,2.11,1.05,2.8.7.69,1.65,1.04,2.82,1.04.63,0,1.22-.15,1.74-.44.53-.29,1-.68,1.42-1.15l.04-.05.04.05c.11.16.24.38.38.63.14.25.3.47.49.67.17.19.37.28.59.28.5,0,.75-.23.75-.71,0-.06-.03-.19-.18-.45-.12-.22-.27-.46-.43-.72ZM4.44,7.1c0-.55.15-.95.46-1.2.3-.25.72-.37,1.23-.37,1.03,0,1.55.53,1.55,1.57,0,.38-.11.77-.32,1.16-.21.39-.47.77-.76,1.12-.29.35-.57.65-.81.9l-.04.04-.03-.05c-.3-.44-.59-.94-.85-1.49-.27-.56-.4-1.12-.4-1.67ZM8.27,17.01c-.25.43-.57.77-.95,1.02-.38.25-.84.38-1.35.38-.76,0-1.33-.21-1.68-.61-.35-.4-.52-.98-.52-1.71,0-.65.17-1.27.5-1.85.33-.57.71-1.1,1.13-1.55l.04-.05.04.05,2.81,4.29-.02.03Z" style="fill: #333;"/>
  <path d="M21.74,18.83c-.12-.22-.27-.46-.43-.72-.16-.26-.32-.5-.47-.72-.15-.22-.26-.38-.33-.47l-.02-.02v-.03c.32-.72.54-1.48.64-2.27.11-.79.16-1.6.16-2.38,0-.26-.06-.48-.17-.66-.11-.17-.31-.25-.6-.25-.31,0-.5.1-.59.3-.09.21-.15.46-.18.72-.03.46-.05.93-.08,1.41-.03.48-.1.96-.21,1.42l-.03.11-.06-.1-2.36-3.64.03-.03c.41-.41.82-.85,1.24-1.3.41-.45.76-.95,1.04-1.47.27-.52.41-1.08.41-1.69,0-1.03-.27-1.81-.79-2.3-.53-.49-1.31-.75-2.33-.75-2.17,0-3.23,1.04-3.23,3.19,0,.48.09.97.26,1.45.18.48.4.95.66,1.4.27.45.53.88.79,1.27l.02.03-.03.03c-.41.42-.81.89-1.19,1.39-.38.5-.69,1.04-.94,1.61-.24.57-.37,1.16-.37,1.76,0,1.17.35,2.11,1.05,2.8.7.69,1.65,1.04,2.82,1.04.63,0,1.22-.15,1.74-.44.53-.29,1-.68,1.42-1.15l.04-.05.04.05c.11.16.24.38.38.63.14.25.3.47.49.67.17.19.37.28.59.28.5,0,.75-.23.75-.71,0-.06-.03-.19-.18-.45ZM14.94,7.1c0-.55.15-.95.46-1.2.3-.25.72-.37,1.23-.37,1.03,0,1.55.53,1.55,1.57,0,.38-.11.77-.32,1.16-.21.39-.47.77-.76,1.12-.29.35-.57.65-.81.9l-.04.04-.03-.05c-.3-.44-.59-.94-.85-1.49-.27-.56-.4-1.12-.4-1.67ZM18.77,17.01c-.25.43-.57.77-.95,1.02-.38.25-.84.38-1.35.38-.76,0-1.33-.21-1.68-.61-.35-.4-.52-.98-.52-1.71,0-.65.17-1.27.5-1.85.33-.57.71-1.1,1.13-1.55l.04-.05.04.05,2.81,4.29-.02.03Z" style="fill: #333;"/>
</svg>