<?xml version="1.0" encoding="UTF-8"?>
<svg id="TL" xmlns="http://www.w3.org/2000/svg" viewBox="0 0 24 24">
  <path d="M10.6,20.79c-.36,0-.65-.29-.65-.65,0-2.61-1.41-5.05-3.68-6.36-.31-.18-.42-.58-.24-.89.18-.31.58-.42.89-.24,2.67,1.54,4.33,4.41,4.33,7.49,0,.36-.29.65-.65.65Z" style="fill: #000; stroke-width: 0px;"/>
  <path d="M21.4,20.79H2.6c-.23,0-.45-.12-.56-.32-.12-.2-.12-.45,0-.65L11.44,3.53c.18-.31.58-.42.89-.24.31.18.42.58.24.89L3.73,19.49h17.67c.36,0,.65.29.65.65s-.29.65-.65.65Z" style="fill: #000; stroke-width: 0px;"/>
</svg>