<?xml version="1.0" encoding="UTF-8"?>
<svg id="FF" xmlns="http://www.w3.org/2000/svg" viewBox="0 0 24 24">
  <path d="M9.3,13.64c.41,0,.83.08,1.26.24.42.16.85.34,1.3.55.45.2.92.39,1.39.54.48.16.98.24,1.51.24.58,0,1.1-.16,1.55-.47.45-.31.79-.81,1.01-1.49.03-.08.04-.15.04-.22,0-.14-.06-.26-.16-.37-.11-.11-.24-.16-.37-.16-.13,0-.24.04-.33.11-.09.08-.16.17-.2.27-.12.32-.3.57-.54.77-.25.2-.58.29-1,.29s-.83-.08-1.26-.24c-.42-.16-.85-.34-1.3-.55-.45-.2-.92-.39-1.39-.54-.48-.16-.98-.24-1.51-.24-1.12,0-1.97.66-2.54,1.97-.04.08-.06.15-.06.21,0,.14.05.26.16.37.11.11.23.16.38.16.23,0,.39-.11.48-.35.12-.33.3-.6.55-.8.25-.2.6-.31,1.03-.31Z"/>
  <path d="M9.3,9.76c.41,0,.83.08,1.26.24.42.16.85.34,1.3.55.45.2.92.39,1.39.54.48.16.98.24,1.51.24.58,0,1.1-.16,1.55-.47.45-.31.79-.81,1.01-1.49.03-.08.04-.15.04-.22,0-.14-.05-.26-.16-.37-.11-.11-.24-.16-.37-.16-.13,0-.24.04-.33.11-.09.08-.16.17-.2.27-.12.31-.3.57-.54.77-.25.2-.58.29-1,.29s-.83-.08-1.26-.24c-.42-.16-.85-.34-1.3-.55-.45-.2-.92-.39-1.39-.54-.48-.16-.98-.24-1.51-.24-1.12,0-1.97.66-2.54,1.97-.04.08-.06.15-.06.21,0,.14.05.27.16.37.11.11.23.16.38.16.23,0,.39-.11.48-.35.11-.33.3-.6.55-.8.25-.2.6-.3,1.03-.3Z"/>
</svg>