<?xml version="1.0" encoding="UTF-8"?>
<svg id="FL" xmlns="http://www.w3.org/2000/svg" viewBox="0 0 24 24">
  <path d="M16.82,12.4c-.15,0-.28.05-.39.14-.1.09-.18.19-.22.31-.11.3-.28.54-.51.72-.23.18-.54.27-.93.27s-.81-.08-1.22-.24c-.41-.16-.85-.34-1.3-.54s-.92-.39-1.4-.55c-.49-.16-1-.24-1.54-.24-1.16,0-2.05.68-2.63,2.02-.04.09-.07.18-.07.25,0,.17.06.32.19.44.13.13.28.19.45.19.27,0,.47-.14.57-.41.11-.31.28-.57.52-.75.23-.19.56-.28.97-.28s.81.08,1.22.24c.41.16.85.34,1.3.54.45.2.92.39,1.4.55.49.16,1,.24,1.54.24.6,0,1.14-.17,1.6-.49.47-.33.82-.84,1.05-1.54.03-.09.04-.17.04-.25,0-.17-.06-.32-.19-.45-.13-.13-.28-.19-.44-.19Z"/>
  <path d="M7.24,11.3c.27,0,.47-.14.57-.41.11-.31.28-.56.52-.75.23-.19.56-.28.97-.28s.81.08,1.22.24c.41.16.85.34,1.3.54.45.2.92.39,1.4.55.49.16,1,.24,1.54.24.6,0,1.14-.17,1.6-.49.47-.33.82-.84,1.05-1.54.03-.09.04-.17.04-.25,0-.17-.06-.32-.19-.45-.13-.13-.28-.19-.44-.19-.15,0-.28.05-.39.14-.1.09-.18.2-.22.32-.11.3-.28.54-.51.72-.23.18-.54.27-.93.27s-.81-.08-1.22-.24c-.41-.16-.85-.34-1.3-.54-.45-.2-.92-.39-1.4-.55-.49-.16-1-.24-1.54-.24-1.16,0-2.05.68-2.63,2.02-.04.09-.07.18-.07.25,0,.17.06.32.19.44.13.13.28.19.45.19Z"/>
</svg>