<?xml version="1.0" encoding="UTF-8"?>
<svg id="HL" xmlns="http://www.w3.org/2000/svg" viewBox="0 0 24 24">
  <path d="M16.72,6.13h-2.94c-.11,0-.21.03-.3.08-.09.06-.14.15-.14.29s.05.23.14.29c.08.05.18.08.3.08h2.94c.11,0,.21-.03.3-.08.09-.06.14-.15.14-.29s-.05-.23-.14-.29c-.08-.05-.18-.08-.3-.08Z" style="fill: #66f;"/>
  <path d="M20.03,3c-.14,0-.27.06-.38.16-.13.13-.26.27-.4.42-.14.14-.29.26-.45.36-.08.05-.15.11-.22.17-.07.07-.11.17-.11.28,0,.31.17.47.48.47.1,0,.21-.03.3-.1.09-.06.18-.14.26-.22.04-.04.08-.08.11-.12v5c0,.16.03.29.1.4.07.11.2.17.37.17s.31-.06.38-.17c.07-.11.1-.24.1-.4V3.56c0-.37-.19-.56-.55-.56Z" style="fill: #66f;"/>
</svg>