<?xml version="1.0" encoding="UTF-8"?>
<svg id="TF" xmlns="http://www.w3.org/2000/svg" viewBox="0 0 24 24">
  <path d="M3.05,9.95v8.95c0,1.13.92,2.05,2.05,2.05h13.8c1.13,0,2.05-.92,2.05-2.05v-8.95H3.05ZM14,13.95h-4c-.3,0-.55-.25-.55-.55s.25-.55.55-.55h4c.3,0,.55.25.55.55s-.25.55-.55.55Z" style="fill: #404040; stroke-width: 0px;"/>
  <path d="M11.45,3.05h-4.75c-.87,0-1.64.55-1.93,1.37l-1.56,4.43h8.24V3.05Z" style="fill: #404040; stroke-width: 0px;"/>
  <path d="M19.23,4.42h0c-.29-.82-1.06-1.37-1.93-1.37h-4.75v5.8h8.24l-1.56-4.43Z" style="fill: #404040; stroke-width: 0px;"/>
</svg>