<?xml version="1.0" encoding="UTF-8"?>
<svg id="TF" xmlns="http://www.w3.org/2000/svg" viewBox="0 0 24 24">
  <path d="M6.72,17.35c-.31-.17-.65-.31-1-.43-.36-.12-.7-.25-1.01-.36-.32-.12-.58-.26-.79-.42-.21-.16-.32-.38-.32-.63s.07-.46.21-.6c.13-.13.3-.23.5-.27.2-.05.4-.07.6-.07.36,0,.65.06.84.19.19.13.35.27.46.43.11.15.22.29.33.41.1.11.25.17.44.17.17,0,.31-.04.41-.11.1-.07.14-.19.14-.37,0-.22-.07-.43-.22-.62-.15-.19-.32-.36-.5-.5-.27-.21-.57-.36-.9-.45-.72-.18-1.47-.18-2.19.07-.39.13-.71.34-.96.63-.25.28-.38.65-.38,1.1,0,.36.1.67.29.91.19.25.45.46.76.62.31.17.65.31,1,.44.36.13.7.26,1.01.38.32.13.58.28.79.45.21.17.32.39.32.65,0,.28-.08.5-.23.65-.15.15-.33.26-.55.31-.21.05-.44.08-.67.08-.4,0-.72-.07-.95-.21-.23-.14-.41-.31-.55-.49-.13-.18-.26-.34-.37-.48-.11-.13-.25-.19-.43-.19s-.31.04-.42.11c-.1.07-.15.2-.15.38,0,.26.08.5.23.7.16.21.33.39.53.54.3.23.64.39,1.01.48.81.19,1.65.17,2.39-.07.4-.13.73-.34.99-.64.25-.29.38-.7.38-1.19,0-.4-.1-.73-.29-.98-.19-.26-.45-.47-.76-.64Z" style="fill: #333;"/>
  <path d="M11.99,13.65c-.22,0-.37.07-.46.2-.09.14-.14.32-.14.53v5.89c0,.21.05.38.14.52.09.13.24.2.46.2s.37-.06.46-.2c.09-.14.14-.31.14-.52v-5.89c0-.21-.05-.39-.14-.53-.09-.14-.24-.2-.46-.2Z" style="fill: #333;"/>
  <path d="M12.01,10.36c-.57,0-.85.27-.85.84s.27.84.84.84.84-.27.84-.84c0-.22-.08-.42-.25-.59-.17-.17-.35-.25-.58-.25Z" style="fill: #333;"/>
  <path d="M21.34,14.25c-.32-.44-.86-.67-1.61-.67-.49,0-.93.12-1.31.36-.38.24-.72.56-1.01.94l-.09.12v-.15c0-.18,0-.38,0-.58,0-.2-.03-.36-.11-.5-.07-.13-.23-.19-.48-.19-.21,0-.36.06-.44.17-.08.12-.13.28-.13.48v6.06c0,.2.04.37.13.51.08.13.22.2.44.2s.37-.06.45-.19c.09-.13.13-.31.13-.51v-3.71c0-.25.07-.5.2-.72.13-.22.27-.42.43-.59.41-.46.92-.69,1.51-.69.33,0,.59.08.76.24.17.16.29.36.36.6.06.24.1.5.1.78v4.07c0,.2.04.37.13.51.08.13.22.2.44.2s.37-.06.45-.19c.09-.13.13-.31.13-.51v-4.29c0-.71-.16-1.29-.48-1.74Z" style="fill: #333;"/>
  <path d="M16.96,6.7c.06-.04.09-.1.09-.2s-.03-.17-.09-.2c-.07-.04-.15-.06-.25-.06h-2.94c-.1,0-.18.02-.25.06-.06.04-.09.1-.09.2s.03.17.09.2c.07.04.15.06.25.06h2.94c.1,0,.18-.02.25-.06Z" style="fill: #333;"/>
  <path d="M18.95,4.77c.08,0,.17-.03.25-.08.09-.06.17-.13.25-.21.08-.08.14-.15.2-.21l.09-.1v5.25c0,.14.03.25.08.34.05.08.15.13.29.13s.24-.04.3-.13c.06-.09.08-.21.08-.34V3.56c0-.31-.14-.46-.45-.46-.12,0-.22.04-.31.13-.13.13-.26.27-.4.42-.14.15-.3.27-.47.37-.07.04-.14.1-.2.16-.06.06-.08.12-.08.21,0,.25.12.37.38.37Z" style="fill: #333;"/>
</svg>