<?xml version="1.0" encoding="UTF-8"?>
<svg id="FF" xmlns="http://www.w3.org/2000/svg" viewBox="0 0 24 24">
  <path d="M7.32,18.15c-.19,0-.33.06-.43.17-.1.12-.19.26-.26.44-.07.18-.15.36-.25.55-.1.19-.24.35-.43.48-.19.13-.46.19-.79.19-.39,0-.71-.08-.96-.24-.24-.16-.43-.38-.56-.64-.13-.26-.22-.56-.27-.88-.05-.31-.08-.63-.08-.94s.02-.61.07-.92c.05-.31.13-.6.26-.86.13-.27.31-.48.55-.64.24-.16.56-.24.94-.24.33,0,.59.06.77.16.18.11.33.25.43.41.1.15.18.31.26.47.07.15.15.28.25.38.09.09.22.14.4.14.39,0,.58-.18.58-.55,0-.26-.08-.51-.22-.74-.15-.23-.32-.44-.51-.61-.26-.24-.55-.42-.87-.52-.32-.11-.66-.16-1.01-.16-.72,0-1.31.17-1.75.5-.45.33-.79.78-.99,1.33-.21.55-.32,1.16-.32,1.82s.1,1.28.31,1.85c.2.57.53,1.03.97,1.38.44.35,1.04.52,1.77.52.38,0,.74-.06,1.09-.18s.66-.31.92-.59c.21-.21.38-.44.52-.71.14-.26.21-.54.21-.83,0-.36-.19-.54-.58-.54Z"/>
  <path d="M14.3,14.73c-.23-.35-.53-.63-.89-.84-.37-.2-.82-.31-1.36-.31-.76,0-1.37.17-1.8.5-.44.33-.75.78-.93,1.33-.18.56-.27,1.19-.27,1.89s.09,1.3.26,1.86c.17.55.48,1,.9,1.34.42.33,1.02.5,1.78.5s1.36-.17,1.78-.5c.42-.33.73-.78.9-1.33.18-.56.26-1.18.26-1.86,0-.48-.05-.94-.15-1.38-.1-.44-.26-.84-.49-1.19ZM13.69,18.23c-.05.31-.13.6-.25.85-.12.26-.3.48-.53.64-.23.17-.54.25-.91.25-.49,0-.86-.13-1.12-.38-.25-.25-.43-.56-.52-.94-.09-.37-.14-.76-.14-1.15,0-.29.02-.61.06-.94.04-.33.12-.65.24-.94.12-.3.29-.54.53-.73.24-.19.55-.28.93-.28s.69.09.93.26c.23.17.41.39.54.66.12.27.21.56.25.88.04.31.06.62.06.92s-.02.6-.07.9Z"/>
  <path d="M21.48,17.98c-.19-.26-.45-.47-.76-.64-.31-.17-.65-.31-1-.43-.36-.12-.7-.25-1.01-.36-.32-.12-.58-.26-.79-.42-.21-.16-.32-.38-.32-.63s.07-.46.21-.6c.13-.13.3-.23.5-.27.2-.05.4-.07.6-.07.36,0,.65.06.84.19.19.13.35.27.46.43.11.15.22.29.33.41.1.11.25.17.44.17.17,0,.31-.04.41-.11.1-.07.14-.19.14-.37,0-.22-.07-.43-.22-.62-.15-.19-.32-.36-.5-.5-.27-.21-.57-.36-.9-.45-.72-.18-1.47-.18-2.19.07-.39.13-.71.34-.96.63-.25.28-.38.65-.38,1.1,0,.36.1.67.29.91.19.25.45.46.76.62.31.17.65.31,1,.44.36.13.7.26,1.01.38.32.13.58.28.79.45.21.17.32.39.32.65,0,.28-.08.5-.23.65-.15.15-.33.26-.55.31-.21.05-.44.08-.67.08-.4,0-.72-.07-.95-.21-.23-.14-.41-.31-.55-.49-.13-.18-.26-.34-.37-.48-.11-.13-.25-.19-.43-.19s-.31.04-.42.11c-.1.07-.15.2-.15.38,0,.26.08.5.23.7.16.21.33.39.53.54.3.23.64.39,1.01.48.81.19,1.64.17,2.39-.07.4-.13.73-.34.99-.64.25-.29.38-.7.38-1.19,0-.4-.1-.73-.29-.98Z"/>
</svg>