<?xml version="1.0" encoding="UTF-8"?>
<svg id="TF" xmlns="http://www.w3.org/2000/svg" viewBox="0 0 24 24">
  <path d="M6.6,14.78c.17,0,.33-.04.45-.11.12-.07.18-.19.18-.39s-.06-.32-.18-.39c-.13-.07-.28-.11-.45-.11h-1.24v-1.9c0-.2-.04-.37-.12-.51-.08-.13-.22-.19-.44-.19s-.37.06-.45.19c-.09.13-.13.31-.13.51v1.9h-1.05c-.17,0-.32.04-.45.11-.12.07-.18.2-.18.39s.06.32.18.39c.13.07.28.11.45.11h1.05v4.25c0,.44.04.79.12,1.05.08.25.23.43.46.54.23.11.59.17,1.05.17h.74c.17,0,.31-.04.41-.12.1-.08.15-.21.15-.39,0-.24-.07-.38-.21-.42-.16-.05-.34-.07-.55-.07-.25,0-.45-.01-.6-.04-.16-.03-.28-.12-.34-.26-.06-.13-.09-.34-.09-.64v-4.07h1.24Z" style="fill: #333;"/>
  <path d="M13.51,13.82c-.41-.16-.88-.24-1.41-.24-.45,0-.88.07-1.3.21-.41.14-.76.39-1.04.76-.09.12-.17.24-.24.38-.07.13-.1.27-.1.42,0,.19.05.31.16.39.12.08.26.12.43.12.21,0,.38-.06.49-.18.12-.12.24-.27.35-.44.12-.17.28-.33.47-.46.2-.13.49-.2.86-.2.44,0,.78.07,1,.21.22.14.37.34.43.61.06.26.1.59.1.97v.05h-.05c-.36.01-.75.03-1.18.05-.42.02-.84.08-1.24.16-.4.09-.77.22-1.1.4-.33.18-.59.43-.79.74-.19.31-.29.72-.29,1.21,0,.66.22,1.16.64,1.49.43.34.97.51,1.59.51.46,0,.9-.1,1.28-.31.39-.21.74-.48,1.05-.81l.09-.09v.65c0,.16.04.3.11.41.07.1.22.16.44.16.38,0,.57-.19.57-.57v-4.48c0-.57-.12-1.03-.35-1.37-.23-.34-.56-.59-.96-.75ZM13.7,18.36c0,.2-.09.41-.27.61-.17.2-.33.35-.46.46-.22.19-.47.33-.75.44-.27.11-.56.16-.86.16-.37,0-.66-.09-.86-.26-.21-.17-.31-.45-.31-.83,0-.33.08-.6.25-.82.16-.21.38-.38.66-.49.27-.11.56-.2.87-.25.31-.05.61-.08.9-.1.29-.01.55-.02.78-.03h.05s0,1.1,0,1.1Z" style="fill: #333;"/>
  <path d="M21.34,14.25c-.32-.44-.86-.67-1.61-.67-.49,0-.93.12-1.31.36-.38.24-.72.56-1.01.94l-.09.12v-.15c0-.18,0-.38,0-.58,0-.2-.03-.36-.11-.5-.07-.13-.23-.19-.48-.19-.21,0-.36.06-.44.17-.08.12-.13.28-.13.48v6.06c0,.2.04.37.13.51.08.13.22.2.44.2s.37-.06.45-.19c.09-.13.13-.31.13-.51v-3.71c0-.25.07-.5.2-.72.13-.22.27-.42.43-.59.41-.46.92-.69,1.51-.69.33,0,.59.08.76.24.17.16.29.36.36.6.06.24.1.5.1.78v4.07c0,.2.04.37.13.51.08.13.22.2.44.2s.37-.06.45-.19c.09-.13.13-.31.13-.51v-4.29c0-.71-.16-1.29-.48-1.74Z" style="fill: #333;"/>
  <path d="M13.78,6.77h2.94c.1,0,.18-.02.25-.06.06-.04.09-.1.09-.2s-.03-.17-.09-.2c-.07-.04-.15-.06-.25-.06h-2.94c-.1,0-.18.02-.25.06-.06.04-.09.1-.09.2s.03.17.09.2c.07.04.15.06.25.06Z" style="fill: #333;"/>
  <path d="M18.95,4.77c.08,0,.17-.03.25-.08.09-.06.17-.13.25-.21.08-.08.14-.15.2-.21l.09-.1v5.25c0,.14.03.25.08.34.05.08.15.13.29.13s.24-.04.3-.13c.06-.09.08-.21.08-.34V3.56c0-.31-.14-.46-.45-.46-.12,0-.22.04-.31.13-.13.13-.26.27-.4.42-.14.15-.3.27-.47.37-.07.04-.14.1-.2.16-.06.06-.08.12-.08.21,0,.25.12.37.38.37Z" style="fill: #333;"/>
</svg>