<?xml version="1.0" encoding="UTF-8"?>
<svg id="FL" xmlns="http://www.w3.org/2000/svg" viewBox="0 0 24 24">
  <path d="M7.32,18.05c-.21,0-.38.07-.5.2-.11.13-.21.28-.28.47-.07.18-.15.36-.24.53-.09.17-.23.32-.4.44-.17.12-.42.18-.74.18-.37,0-.68-.08-.9-.22-.23-.15-.41-.35-.53-.6-.12-.25-.21-.54-.26-.85-.05-.31-.07-.62-.07-.93s.02-.6.07-.9c.04-.3.13-.58.25-.83.12-.25.29-.45.52-.6.22-.15.52-.22.88-.22.31,0,.55.05.72.15.17.1.3.23.39.37.09.15.18.31.25.46.08.16.17.3.27.4.11.11.27.17.47.17.44,0,.68-.23.68-.65,0-.28-.08-.55-.24-.79-.16-.24-.33-.45-.53-.62-.27-.25-.57-.43-.91-.54-.33-.11-.68-.17-1.04-.17-.74,0-1.35.18-1.81.52-.47.35-.81.81-1.03,1.38-.22.56-.32,1.19-.32,1.86s.1,1.3.31,1.88c.21.59.55,1.06,1.01,1.42.46.36,1.08.54,1.84.54.39,0,.76-.06,1.12-.18.36-.12.69-.33.96-.61.21-.21.39-.46.54-.73.14-.27.22-.57.22-.88,0-.42-.23-.64-.68-.64Z"/>
  <path d="M14.39,14.68c-.24-.36-.55-.66-.93-.87-.38-.21-.85-.32-1.41-.32-.78,0-1.41.17-1.86.52-.45.34-.78.81-.96,1.38-.18.57-.28,1.21-.28,1.92s.09,1.32.27,1.89c.18.57.49,1.04.93,1.38.44.35,1.06.52,1.84.52s1.4-.17,1.84-.52c.44-.34.75-.81.93-1.38.18-.57.27-1.2.27-1.89,0-.48-.05-.96-.15-1.41-.1-.45-.27-.86-.51-1.23ZM13.59,18.21c-.04.3-.13.58-.24.83-.11.25-.28.45-.5.6-.21.15-.5.23-.85.23-.46,0-.81-.12-1.04-.35-.24-.23-.4-.53-.49-.89-.09-.36-.14-.74-.14-1.13,0-.29.02-.6.06-.92.04-.32.12-.63.23-.92.11-.28.28-.51.5-.69.22-.17.51-.26.87-.26s.65.08.87.24c.22.16.39.37.5.62.12.26.2.55.24.85.04.31.06.61.06.9s-.02.59-.07.89Z"/>
  <path d="M21.56,17.92c-.2-.27-.47-.49-.79-.66-.32-.17-.66-.32-1.01-.44-.36-.12-.7-.25-1-.36-.31-.12-.56-.25-.76-.4-.19-.15-.28-.33-.28-.55s.06-.41.18-.53c.12-.12.27-.2.46-.25.19-.04.38-.07.58-.07.34,0,.61.06.79.18.18.12.33.26.43.4.11.16.22.3.34.42.12.13.29.2.51.2.19,0,.35-.04.47-.13.12-.09.18-.24.18-.45,0-.25-.08-.48-.24-.68-.16-.2-.33-.37-.51-.52-.28-.22-.59-.38-.94-.47-.74-.19-1.51-.18-2.25.08-.4.14-.74.36-1.01.66-.27.3-.4.69-.4,1.17,0,.38.1.71.31.97.2.26.47.48.79.65.31.17.65.32,1.01.45.36.13.69.26,1,.38.31.13.56.27.76.43.19.16.28.34.28.58,0,.25-.07.45-.2.58-.13.14-.3.23-.5.28-.2.05-.42.07-.64.07-.38,0-.68-.07-.9-.2-.22-.13-.39-.29-.52-.47-.13-.18-.26-.34-.38-.48-.13-.15-.3-.22-.5-.22-.19,0-.35.04-.47.13-.13.09-.19.25-.19.46,0,.28.08.54.25.76.16.22.35.41.55.56.31.24.67.41,1.05.49.38.09.76.13,1.14.13.45,0,.89-.07,1.3-.2.42-.13.76-.36,1.03-.67.27-.31.41-.74.41-1.26,0-.42-.1-.77-.31-1.04Z"/>
</svg>