<?xml version="1.0" encoding="UTF-8"?>
<svg id="FL" xmlns="http://www.w3.org/2000/svg" viewBox="0 0 24 24">
  <path d="M6.77,17.26c-.32-.17-.66-.32-1.01-.44-.36-.12-.7-.25-1-.36-.31-.12-.56-.25-.76-.4-.19-.15-.28-.33-.28-.55s.06-.41.18-.53c.12-.12.27-.2.46-.25.19-.04.38-.07.58-.07.34,0,.61.06.79.18.18.12.33.26.43.4.11.16.22.3.34.42.12.13.29.2.51.2.19,0,.35-.04.47-.13.12-.09.18-.24.18-.45,0-.25-.08-.48-.24-.68-.16-.2-.33-.37-.51-.52-.28-.22-.59-.38-.94-.47-.74-.19-1.51-.18-2.25.08-.4.14-.74.36-1.01.66-.27.3-.4.69-.4,1.17,0,.38.1.71.31.97.2.26.47.48.79.65.31.17.65.32,1.01.45.36.13.69.26,1,.38.31.13.56.27.76.43.19.16.28.34.28.58,0,.25-.07.45-.2.58-.13.14-.3.23-.5.28-.2.05-.42.07-.64.07-.38,0-.68-.07-.9-.2-.22-.13-.39-.29-.52-.47-.13-.18-.26-.34-.38-.48-.13-.15-.3-.22-.5-.22-.19,0-.35.04-.47.13-.13.09-.19.25-.19.46,0,.28.08.54.25.76.16.22.35.41.55.56.31.24.67.41,1.05.49.38.09.76.13,1.14.13.45,0,.89-.07,1.3-.2.42-.13.76-.36,1.03-.67.27-.31.41-.74.41-1.26,0-.42-.1-.77-.31-1.04-.2-.27-.47-.49-.79-.66Z"/>
  <path d="M11.99,13.55c-.25,0-.44.08-.54.25-.1.16-.15.35-.15.58v5.89c0,.23.05.42.15.57.1.16.29.24.54.24s.44-.08.54-.24c.1-.15.15-.35.15-.57v-5.89c0-.23-.05-.42-.15-.58-.1-.17-.29-.25-.54-.25Z"/>
  <path d="M12.01,10.26c-.63,0-.95.32-.95.94s.32.94.94.94.94-.32.94-.94c0-.25-.09-.47-.27-.66-.18-.19-.4-.28-.65-.28Z"/>
  <path d="M21.42,14.2c-.34-.47-.91-.71-1.69-.71-.51,0-.97.13-1.36.38-.35.22-.67.51-.94.85,0-.14,0-.28,0-.43,0-.21-.04-.4-.12-.55-.09-.16-.28-.24-.56-.24-.24,0-.42.07-.52.21-.1.14-.15.32-.15.53v6.06c0,.22.05.41.14.56.1.16.28.24.52.24s.43-.08.53-.23c.1-.15.14-.34.14-.57v-3.71c0-.24.06-.46.18-.67.13-.21.27-.4.42-.57.39-.43.87-.65,1.44-.65.3,0,.54.07.69.21.16.14.27.33.33.56.06.23.09.49.09.75v4.07c0,.22.05.41.14.56.1.16.28.24.52.24s.43-.08.53-.23c.1-.15.14-.34.14-.57v-4.29c0-.73-.17-1.33-.5-1.8Z"/>
</svg>