<?xml version="1.0" encoding="UTF-8"?>
<svg id="FL" xmlns="http://www.w3.org/2000/svg" viewBox="0 0 24 24">
  <path d="M21.01,9.18l-1.69-4.8c-.3-.86-1.11-1.43-2.02-1.43H6.7c-.91,0-1.72.58-2.02,1.43l-1.69,4.8c-.02.07-.04.14-.04.22v9.5c0,1.19.96,2.15,2.15,2.15h11.8c.36,0,.65-.29.65-.65s-.29-.65-.65-.65H5.1c-.47,0-.85-.38-.85-.85v-8.85h15.5v6.85c0,.36.29.65.65.65s.65-.29.65-.65v-7.5c0-.07-.01-.15-.04-.22ZM18.1,4.81l1.38,3.94h-6.83v-4.5h4.65c.36,0,.68.23.8.56ZM5.9,4.81c.12-.34.44-.56.8-.56h4.65v4.5h-6.83l1.38-3.94Z" style="fill: #000; stroke-width: 0px;"/>
</svg>