<?xml version="1.0" encoding="UTF-8"?>
<svg id="HF" xmlns="http://www.w3.org/2000/svg" viewBox="0 0 24 24">
  <path d="M16.72,6.23h-2.94c-.1,0-.18.02-.25.06-.06.04-.09.1-.09.2s.03.17.09.2c.07.04.15.06.25.06h2.94c.1,0,.18-.02.25-.06.06-.04.09-.1.09-.2s-.03-.17-.09-.2c-.07-.04-.15-.06-.25-.06Z" style="fill: #999;"/>
  <path d="M20.03,3.1c-.12,0-.22.04-.31.13-.13.13-.26.27-.4.42-.14.15-.3.27-.47.37-.07.04-.14.1-.2.16-.06.06-.08.12-.08.21,0,.25.12.37.38.37.08,0,.17-.03.25-.08.09-.06.17-.13.25-.21.08-.08.14-.15.2-.21l.09-.1v5.25c0,.14.03.25.08.34.05.08.15.13.29.13s.24-.04.3-.13c.06-.09.08-.21.08-.34V3.56c0-.31-.14-.46-.45-.46Z" style="fill: #999;"/>
</svg>