<?xml version="1.0" encoding="UTF-8"?>
<svg id="TL" xmlns="http://www.w3.org/2000/svg" viewBox="0 0 24 24">
  <path d="M7.22,21.05c-.55,0-1.1-.21-1.52-.63l-2.12-2.12c-.84-.84-.84-2.2,0-3.04L12.36,6.48l-2.42-2.42c-.19-.19-.24-.47-.14-.71.1-.24.34-.4.6-.4h8.5c1.18,0,2.15.96,2.15,2.15v8.5c0,.26-.16.5-.4.6-.24.1-.52.04-.71-.14l-2.88-2.88c-.25-.25-.25-.67,0-.92.25-.25.67-.25.92,0l1.77,1.77v-6.93c0-.47-.38-.85-.85-.85h-6.93l1.77,1.77c.12.12.19.29.19.46s-.07.34-.19.46l-9.24,9.24c-.16.16-.25.37-.25.6s.09.44.25.6l2.12,2.12c.32.32.88.32,1.2,0l6.24-6.24c.25-.25.67-.25.92,0s.25.67,0,.92l-6.24,6.24c-.42.42-.97.63-1.52.63Z" style="fill: #000; stroke-width: 0px;"/>
</svg>