<?xml version="1.0" encoding="UTF-8"?>
<svg id="TL" xmlns="http://www.w3.org/2000/svg" viewBox="0 0 24 24">
  <path d="M20.2,6.2l1.12.14c.35.05.68-.21.72-.57.04-.36-.21-.68-.57-.72l-2.75-.34c-.17-.02-.34.03-.48.13-.14.11-.22.26-.25.43l-.34,2.79c-.04.36.21.68.57.72h.08c.32,0,.6-.24.64-.57l.16-1.31c1.06,1.48,1.64,3.23,1.64,5.09,0,4.82-3.92,8.75-8.75,8.75-.77,0-1.53-.1-2.27-.3-.35-.09-.7.11-.8.46-.09.35.11.7.46.8.84.23,1.72.34,2.6.34,5.54,0,10.05-4.51,10.05-10.05,0-2.11-.65-4.12-1.85-5.8h.02Z"/>
  <path d="M5.78,15.21h-.01c-.36-.04-.68.21-.72.57l-.16,1.31c-1.06-1.48-1.64-3.23-1.64-5.09C3.25,7.18,7.17,3.25,12,3.25c.77,0,1.53.1,2.27.3.35.09.7-.11.8-.46.09-.35-.11-.7-.46-.8-.84-.23-1.72-.34-2.6-.34C6.46,1.95,1.95,6.46,1.95,12c0,2.11.65,4.12,1.85,5.8l-1.12-.14c-.35-.04-.68.21-.72.57-.04.36.21.68.57.72l2.75.34h.08c.14,0,.29-.05.4-.14.14-.11.22-.26.25-.43l.34-2.79c.04-.36-.21-.68-.57-.72Z"/>
  <path d="M9.44,17.41c.19,0,.34-.06.45-.18.11-.12.18-.26.22-.42l.56-2.37h2.68l.55,2.37c.04.16.11.3.22.42.11.12.26.18.45.18s.35-.04.46-.13c.12-.09.18-.24.18-.44,0-.02,0-.06,0-.11,0-.06-.01-.09-.02-.11l-2.24-9.14c-.06-.24-.15-.45-.29-.62-.14-.18-.35-.26-.63-.26s-.48.08-.62.23c-.14.15-.24.35-.29.6l-2.27,9.19s-.02.05-.02.11c0,.06,0,.09,0,.11,0,.2.06.34.18.44.12.09.27.13.45.13ZM12.01,8.79l1.04,4.44h-2.1l1.06-4.44Z"/>
</svg>