<?xml version="1.0" encoding="UTF-8"?>
<svg id="TF" xmlns="http://www.w3.org/2000/svg" viewBox="0 0 24 24">
  <path d="M19.98,6.07l1.35.17c.31.04.58-.18.61-.48.04-.3-.18-.58-.48-.61l-2.75-.34c-.15-.02-.29.02-.41.11s-.19.22-.21.37l-.34,2.79c-.04.3.18.58.48.61h.07c.27,0,.51-.2.54-.48l.19-1.56c1.17,1.53,1.81,3.39,1.81,5.35,0,4.88-3.97,8.85-8.85,8.85-.78,0-1.55-.1-2.29-.3-.29-.08-.59.1-.67.39-.08.29.1.6.39.67.83.22,1.7.34,2.58.34,5.49,0,9.95-4.46,9.95-9.95,0-2.17-.7-4.22-1.97-5.93Z" style="fill: #333;"/>
  <path d="M5.77,15.3h-.01c-.31-.03-.58.19-.61.49l-.19,1.56c-1.17-1.53-1.81-3.39-1.81-5.35C3.15,7.12,7.12,3.15,12,3.15c.78,0,1.55.1,2.29.3.29.08.59-.1.67-.39.08-.29-.1-.6-.39-.67-.83-.22-1.7-.34-2.58-.34C6.51,2.05,2.05,6.51,2.05,12c0,2.17.7,4.22,1.97,5.93l-1.35-.17c-.31-.04-.58.18-.61.48-.04.3.18.58.48.61l2.75.34h.07c.12,0,.24-.04.34-.12.12-.09.19-.22.21-.37l.34-2.79c.04-.3-.18-.58-.48-.61Z" style="fill: #333;"/>
  <path d="M9.44,17.31c.16,0,.28-.05.37-.15.09-.1.16-.23.19-.37l.58-2.44h2.84v.04s.57,2.41.57,2.41c.03.15.1.27.19.37.09.1.21.15.37.15.17,0,.3-.04.4-.11.09-.07.14-.19.14-.36,0-.02,0-.05,0-.11,0-.06-.01-.07-.01-.07h0s0-.02,0-.02l-2.24-9.15c-.05-.23-.14-.42-.27-.58-.12-.15-.31-.23-.56-.23s-.42.07-.54.2c-.13.14-.22.32-.27.55l-2.27,9.22h0s0,.03,0,.07c0,.05,0,.09,0,.11,0,.17.05.28.14.36.1.08.23.11.39.11ZM11.96,8.56h.1s1.12,4.76,1.12,4.76h-2.35l1.14-4.76Z" style="fill: #333;"/>
</svg>