<?xml version="1.0" encoding="UTF-8"?>
<svg id="FF" xmlns="http://www.w3.org/2000/svg" viewBox="0 0 24 24">
  <path d="M6.51,10.14c-.41-.16-.88-.24-1.41-.24-.45,0-.88.07-1.3.21-.41.14-.76.39-1.04.76-.09.12-.17.24-.24.38-.07.13-.1.27-.1.42,0,.19.05.31.16.39.12.08.26.12.43.12.21,0,.38-.06.49-.18.12-.12.24-.27.35-.44.12-.17.28-.33.47-.46.2-.13.49-.2.86-.2.44,0,.78.07,1,.21.22.14.37.34.43.61.06.26.1.59.1.97v.05h-.05c-.36.01-.75.03-1.18.05-.42.02-.84.08-1.24.16-.4.09-.77.22-1.1.4-.33.18-.59.43-.79.74-.19.31-.29.72-.29,1.21,0,.66.22,1.16.64,1.49.43.34.97.51,1.59.51.46,0,.9-.1,1.28-.31.39-.21.74-.48,1.05-.81l.09-.09v.65c0,.16.04.3.11.41.07.1.22.16.44.16.38,0,.57-.19.57-.57v-4.48c0-.57-.12-1.03-.35-1.37-.23-.34-.56-.59-.96-.75ZM6.7,14.68c0,.2-.09.41-.27.61-.17.2-.33.35-.46.46-.22.19-.47.33-.75.44-.27.11-.56.16-.86.16-.37,0-.66-.09-.86-.26-.21-.17-.31-.45-.31-.83,0-.33.08-.6.25-.82.16-.21.38-.38.66-.49.27-.11.56-.2.87-.25.31-.05.61-.08.9-.1.29-.01.55-.02.78-.03h.05s0,1.1,0,1.1Z"/>
  <path d="M14.5,9.9c-.16,0-.28.05-.38.14-.09.09-.16.22-.21.36l-1.92,5.65-.05-.14-1.85-5.47c-.05-.15-.12-.28-.22-.39-.09-.1-.21-.15-.38-.15s-.3.04-.4.11c-.1.07-.15.19-.15.37,0,.06,0,.12.03.17.02.06.04.12.05.17l2.05,5.95c.14.43.44.64.91.64s.75-.21.91-.64c.04-.11.11-.33.23-.66l.42-1.19c.16-.44.32-.91.5-1.44l.48-1.41c.15-.44.27-.81.37-1.1.12-.37.14-.47.14-.49,0-.18-.05-.3-.14-.37-.1-.08-.24-.11-.41-.11Z"/>
  <path d="M21.6,10.98c.16-.04.3-.11.42-.19.11-.08.16-.2.16-.38,0-.14-.03-.27-.1-.37-.06-.09-.17-.14-.33-.14-.21,0-.41.06-.59.18-.19.13-.36.27-.5.42l-.03.04-.04-.04c-.22-.21-.48-.37-.77-.46-.29-.09-.6-.14-.91-.14-.44,0-.85.09-1.24.28-.38.18-.69.44-.92.78-.23.33-.35.74-.35,1.21,0,.39.09.73.28,1.02.19.29.45.53.78.73l.08.05-.08.04c-.18.09-.37.21-.58.36-.2.15-.29.33-.29.55s.1.37.3.5c.21.13.4.23.57.3l.12.05-.13.04c-.25.08-.49.19-.71.32-.22.13-.4.29-.54.49-.14.2-.21.44-.21.73,0,.36.09.65.28.86.19.22.44.38.74.48.3.11.63.18.96.21.34.03.65.05.92.05s.61-.02.96-.05c.35-.04.68-.11.99-.22.31-.11.56-.28.76-.51.2-.22.3-.53.3-.9s-.1-.71-.29-.95c-.19-.24-.45-.44-.76-.57-.31-.14-.65-.25-1-.33-.36-.08-.7-.14-1.01-.2-.32-.05-.59-.12-.79-.19-.22-.08-.33-.2-.33-.35,0-.13.07-.23.2-.3.12-.06.22-.12.3-.15h.02s.02,0,.02,0c.12.04.25.06.37.07.52.06,1.04,0,1.53-.21.37-.16.67-.39.91-.69.23-.3.35-.67.35-1.09,0-.37-.09-.73-.27-1.07l-.02-.04.04-.02c.14-.07.29-.14.46-.18ZM18.02,16.14c.26-.09.48-.13.67-.13.14,0,.32.02.56.08.23.05.47.13.7.23.24.1.44.22.6.36.17.15.26.32.26.5,0,.22-.08.39-.25.51-.16.12-.35.2-.57.25-.22.05-.44.08-.66.1s-.4.02-.54.02c-.19,0-.43-.02-.7-.06-.28-.04-.52-.12-.72-.25-.22-.13-.32-.35-.32-.64,0-.24.1-.45.3-.61.19-.16.42-.28.67-.37ZM19.94,13.17c-.25.21-.6.31-1.04.31-.38,0-.72-.12-1.01-.35-.29-.23-.44-.56-.44-.96s.14-.74.43-1.01c.28-.26.62-.4,1.02-.4.94,0,1.42.47,1.42,1.39,0,.46-.13.8-.38,1.01Z"/>
</svg>