<?xml version="1.0" encoding="UTF-8"?>
<svg id="TF" xmlns="http://www.w3.org/2000/svg" viewBox="0 0 24 24">
  <path d="M12.45,12.55c-.33,1.53-1.36,5.4-3.45,5.4s-3.12-3.87-3.45-5.4h-2.5v6.35c0,1.13.92,2.05,2.05,2.05h13.8c1.13,0,2.05-.92,2.05-2.05v-6.35h-8.5Z" style="fill: #404040; stroke-width: 0px;"/>
  <path d="M15,7.15c-.94,0-1.87,2.37-2.32,4.3h4.64c-.45-1.93-1.38-4.3-2.32-4.3Z" style="fill: #404040; stroke-width: 0px;"/>
  <path d="M11.55,11.45c.33-1.53,1.36-5.4,3.45-5.4s3.12,3.87,3.45,5.4h2.5v-6.35c0-1.13-.92-2.05-2.05-2.05H5.1c-1.13,0-2.05.92-2.05,2.05v6.35h8.5Z" style="fill: #404040; stroke-width: 0px;"/>
  <path d="M9,16.85c.94,0,1.87-2.37,2.32-4.3h-4.64c.45,1.93,1.38,4.3,2.32,4.3Z" style="fill: #404040; stroke-width: 0px;"/>
</svg>