<?xml version="1.0" encoding="UTF-8"?>
<svg id="TL" xmlns="http://www.w3.org/2000/svg" viewBox="0 0 24 24">
  <path d="M6.54,10.05c-.42-.16-.91-.24-1.45-.24-.46,0-.91.07-1.33.21-.43.14-.79.41-1.09.79-.09.12-.18.25-.25.4-.08.15-.11.3-.11.47,0,.22.07.38.21.47.13.09.29.14.49.14.24,0,.43-.07.56-.21.12-.13.25-.28.36-.45.11-.16.26-.31.44-.43.18-.12.45-.18.81-.18.43,0,.74.06.94.19.2.12.33.31.39.55.06.24.09.54.09.9-.34,0-.73.02-1.14.05-.42.02-.85.08-1.25.17-.41.09-.79.23-1.13.41-.34.19-.62.45-.83.78-.2.33-.31.76-.31,1.26,0,.69.23,1.22.68,1.57.45.35,1,.53,1.65.53.48,0,.93-.11,1.33-.32.36-.19.69-.44.99-.74v.39c0,.18.04.34.13.47.09.13.27.2.52.2.44,0,.67-.23.67-.67v-4.48c0-.59-.12-1.07-.37-1.43-.25-.36-.59-.62-1.01-.78ZM6.6,14.68c0,.18-.08.36-.25.55-.17.19-.32.34-.45.45-.21.18-.45.32-.72.42-.26.1-.54.15-.82.15-.34,0-.61-.08-.79-.23-.18-.15-.28-.41-.28-.75,0-.31.08-.56.23-.76.15-.2.36-.35.62-.46.26-.11.54-.19.84-.24.31-.05.6-.08.89-.1.27-.01.51-.02.73-.03v1Z"/>
  <path d="M14.5,9.8c-.19,0-.34.06-.45.17-.11.11-.18.24-.23.4l-1.83,5.37-1.8-5.33c-.06-.16-.14-.3-.23-.42-.1-.12-.26-.19-.46-.19-.18,0-.34.04-.46.13-.13.09-.19.24-.19.45,0,.07,0,.14.03.2.02.06.04.12.06.17l2.05,5.95c.15.47.49.7,1,.7s.83-.24,1-.7c.04-.11.11-.33.23-.66l.42-1.19c.16-.44.32-.91.5-1.44l.48-1.41c.15-.44.27-.81.37-1.1.13-.39.15-.49.15-.52,0-.21-.06-.36-.18-.45-.12-.09-.27-.13-.47-.13Z"/>
  <path d="M22.07,10.87c.14-.1.21-.25.21-.46,0-.16-.04-.31-.11-.42-.08-.12-.22-.19-.42-.19-.23,0-.45.07-.65.2-.18.12-.35.25-.49.4-.22-.21-.48-.36-.77-.45-.3-.1-.62-.15-.94-.15-.45,0-.88.1-1.28.29-.4.19-.72.46-.96.81-.24.35-.36.77-.36,1.27,0,.41.1.77.29,1.07.18.28.43.52.73.71-.16.09-.33.2-.52.33-.22.16-.33.38-.33.63s.12.44.34.58c.17.1.33.19.47.26-.21.08-.42.17-.61.28-.23.14-.43.31-.58.52-.15.21-.23.48-.23.79,0,.38.1.7.31.93.2.23.46.4.78.51.31.11.64.18.98.21.34.03.65.05.93.05s.61-.02.97-.05c.35-.04.69-.11,1.01-.23.32-.12.59-.3.8-.53.21-.24.32-.57.32-.97s-.1-.75-.31-1.01c-.2-.26-.47-.46-.8-.6-.32-.14-.66-.25-1.02-.33-.36-.08-.7-.15-1.01-.2-.31-.05-.57-.12-.77-.18-.18-.06-.27-.15-.27-.26,0-.09.05-.16.15-.22.1-.06.2-.11.27-.14.12.03.25.06.37.07.53.06,1.07,0,1.58-.22.38-.16.7-.4.95-.72.25-.32.37-.71.37-1.15,0-.37-.09-.73-.26-1.07.12-.06.25-.11.4-.15.17-.05.32-.12.45-.21ZM18.05,16.24c.24-.08.46-.13.63-.13.13,0,.31.02.54.07.22.05.45.12.68.22.23.1.42.22.58.35.15.13.22.27.22.43,0,.19-.07.33-.21.43-.14.11-.32.19-.53.24-.21.05-.43.08-.64.09-.22.01-.4.02-.53.02-.19,0-.42-.02-.68-.05-.26-.04-.49-.11-.68-.23-.19-.11-.28-.29-.28-.55,0-.21.09-.39.26-.54.18-.15.4-.27.64-.35ZM19.88,13.1c-.23.19-.56.29-.97.29-.36,0-.68-.11-.95-.32-.27-.21-.4-.5-.4-.88s.13-.69.39-.93c.26-.25.58-.37.95-.37.89,0,1.32.42,1.32,1.29,0,.43-.12.74-.34.93Z"/>
</svg>