<?xml version="1.0" encoding="UTF-8"?>
<svg id="FL" xmlns="http://www.w3.org/2000/svg" viewBox="0 0 24 24">
  <path d="M20,7.92c.36,0,.65-.29.65-.65v-2c0-.28-.18-.53-.44-.62L12.21,1.98c-.13-.04-.28-.04-.41,0L3.79,4.65c-.27.09-.44.34-.44.62v7.14c0,2.88,1.54,5.57,4.02,7.03l4.3,2.53c.1.06.22.09.33.09s.23-.03.33-.09l4.3-2.53c2.48-1.46,4.02-4.15,4.02-7.03v-1.14c0-.36-.29-.65-.65-.65s-.65.29-.65.65v1.14c0,2.42-1.29,4.68-3.38,5.91l-3.97,2.33-3.97-2.33c-2.08-1.22-3.38-3.49-3.38-5.91v-6.67l7.35-2.45,7.35,2.45v1.53c0,.36.29.65.65.65Z" style="fill: #000; stroke-width: 0px;"/>
</svg>