<?xml version="1.0" encoding="UTF-8"?>
<svg id="TF" xmlns="http://www.w3.org/2000/svg" viewBox="0 0 24 24">
  <path d="M18.75,9.93c.47-.05.9-.16,1.28-.4.44-.28.77-.65.96-1.08l-.78-.42c-.17.29-.4.53-.68.71-.31.19-.67.29-1.08.29s-.78-.1-1.09-.31c-.32-.2-.57-.49-.75-.87-.18-.35-.27-.78-.27-1.26s.09-.93.26-1.29c.18-.37.42-.65.73-.86.3-.2.66-.3,1.06-.3.37,0,.69.06.97.19.26.12.51.3.74.54l.67-.67c-.25-.31-.59-.55-.99-.72-.41-.19-.87-.28-1.37-.28-.61,0-1.15.14-1.61.42-.48.28-.86.68-1.13,1.2-.27.51-.41,1.1-.41,1.78s.14,1.24.41,1.75c.27.51.64.91,1.12,1.2.47.28.99.41,1.55.43v.98h-6.38v-2.8h1.27v.03s.63,1.67.63,1.67h1.06l-2.55-6.52h-1.12l-2.55,6.52h1.03l.63-1.7h1.21v2.8h-5.98v-1.1h.3c.71,0,1.3-.15,1.74-.46.43-.29.64-.74.64-1.34,0-.42-.13-.79-.39-1.08-.26-.29-.6-.47-1-.51h-.04v-.11h.04c.33-.11.59-.28.78-.51.19-.24.29-.54.29-.9,0-.54-.2-.94-.61-1.21-.41-.26-.97-.4-1.67-.4h-2.26v6.52h1.8v1.1h-2.17v.38h17.5v.94H3.02v8.6h14.15v-1.28c.07,0,.13.04.21.04.18,0,.35-.02.53-.05.16-.03.3-.07.41-.12l-.13-.79c-.59.19-.95.13-1.08-.12-.08-.14-.11-.36-.11-.66v-2.16h1.26v-.82h-1.26v-1.48h-.99v1.48h-.86v.82h.86v2.34c0,.51.11.9.34,1.16.11.13.25.24.43.3v.95h-3.88v-.86c.31-.02.63-.09.93-.23.32-.15.58-.34.78-.58l-.54-.55c-.16.17-.34.31-.54.4-.22.11-.47.17-.74.17-.42,0-.75-.11-.97-.34-.24-.23-.37-.53-.41-.89v-.05s3.41,0,3.41,0c0-.11,0-.22,0-.34,0-.46-.09-.88-.27-1.26-.19-.36-.44-.64-.76-.83-.32-.2-.7-.3-1.12-.3s-.83.1-1.16.31c-.35.2-.62.49-.81.85-.19.36-.29.78-.29,1.24s.1.9.29,1.26c.19.36.47.65.82.85.3.17.63.25.99.28v.87h-3.28v-.92h.33v-2.96c0-.36-.07-.68-.21-.95-.14-.27-.34-.47-.58-.62-.24-.15-.52-.22-.84-.22s-.6.08-.85.23c-.26.15-.46.32-.58.51v.02h-.12v-.67h-.92v4.65h.98v-2.47c0-.27.06-.51.17-.73.11-.21.26-.38.46-.51.18-.12.39-.19.62-.19.27,0,.49.1.65.3.16.21.24.5.24.87v2.72h.26v.92H3.42v-7.83h17.5v-1.69h-2.18v-1.02ZM11.75,4.39h.09v.03s1.07,2.84,1.07,2.84h-2.22l1.06-2.87ZM4.41,4.22h1.22c.82,0,1.24.3,1.24.89,0,.33-.11.57-.33.71-.22.14-.51.21-.86.21h-1.26v-1.8ZM4.41,6.88h1.52c.38,0,.69.09.92.26.24.17.36.44.36.79s-.11.62-.33.79c-.21.17-.54.25-.97.25h-1.5v-2.09ZM11.4,16.77c.06-.36.19-.65.41-.86.22-.21.51-.32.85-.32.31,0,.58.11.8.32.21.21.33.5.35.86v.05s-2.42,0-2.42,0v-.06Z" style="fill: #404040;"/>
</svg>