<?xml version="1.0" encoding="UTF-8"?>
<svg id="TL" xmlns="http://www.w3.org/2000/svg" viewBox="0 0 24 24">
  <path d="M20.08,9.62c.48-.3.82-.7,1.02-1.17l.02-.04-.9-.49-.04-.02-.02.04c-.16.3-.39.54-.67.72-.29.18-.64.27-1.03.27s-.74-.1-1.04-.29c-.3-.19-.54-.47-.71-.83-.17-.34-.26-.75-.26-1.22s.08-.9.25-1.25c.17-.35.4-.62.69-.82.28-.19.62-.28,1.01-.28.35,0,.66.06.92.18.26.12.51.31.74.56l.04.04.77-.78.03-.03-.03-.04c-.27-.33-.62-.6-1.05-.79-.43-.19-.9-.29-1.41-.29-.62,0-1.18.14-1.66.43-.5.29-.89.71-1.17,1.23-.28.52-.42,1.13-.42,1.82s.14,1.28.42,1.8c.27.52.66.94,1.16,1.24.46.27.96.4,1.5.43v.8h-6.18v-2.6h1.1l.62,1.67v.03h1.29l-2.62-6.68v-.03h-1.27l-2.6,6.65-.03.07h1.24l.63-1.7h1.04v2.6h-5.78v-.9h.2c.73,0,1.34-.16,1.8-.48.46-.31.69-.79.69-1.42,0-.45-.14-.84-.42-1.15-.24-.28-.55-.45-.92-.52.28-.11.51-.27.69-.48.2-.26.31-.58.31-.96,0-.57-.22-1.01-.65-1.29-.43-.27-1.01-.41-1.73-.41h-2.36v6.71h1.8v.9h-2.17v.57h17.5v.74H2.92v8.8h14.35v-1.26s.07.02.11.02c.18,0,.37-.02.55-.06.18-.04.34-.08.47-.14l.04-.02-.16-.99-.06.02c-.57.19-.91.16-1.02-.06-.07-.12-.1-.33-.1-.62v-2.06h1.26v-1.02h-1.26v-1.48h-1.19v1.48h-.86v1.02h.86v2.25c0,.53.12.94.36,1.23.11.13.25.22.4.29v.8h-3.68v-.68c.29-.03.59-.1.87-.22.35-.16.63-.38.85-.64l.03-.03-.68-.69-.04.04c-.16.18-.35.32-.54.42-.21.1-.44.16-.7.16-.39,0-.7-.1-.9-.31-.21-.2-.33-.46-.37-.78h3.4v-.05c0-.13.01-.26.01-.39,0-.47-.1-.91-.28-1.3-.2-.38-.47-.67-.8-.87-.34-.21-.73-.31-1.17-.31s-.86.11-1.21.32c-.36.21-.65.51-.85.89-.2.38-.3.81-.3,1.28s.1.93.3,1.31c.2.38.49.68.86.89.29.16.6.25.94.28v.68h-3.08v-.73h.33v-3.06c0-.37-.07-.71-.22-1-.15-.28-.36-.51-.62-.66-.25-.15-.55-.23-.89-.23s-.63.08-.9.24c-.23.13-.42.28-.55.45v-.6h-1.12v4.85h1.18v-2.57c0-.25.05-.48.16-.68.1-.19.24-.35.42-.47.16-.11.35-.17.57-.17.24,0,.43.09.57.26.14.19.22.46.22.81v2.82h.26v.73H3.52v-7.63h17.5v-1.89h-2.18v-.8c.45-.06.87-.2,1.24-.43ZM11.79,4.56l.97,2.6h-1.94l.96-2.6ZM4.51,4.32h1.12c.77,0,1.14.26,1.14.79,0,.3-.09.5-.28.62-.2.13-.47.19-.81.19h-1.17v-1.6ZM4.51,6.98h1.42c.36,0,.65.08.86.24.22.15.32.38.32.71s-.1.55-.3.71c-.19.15-.5.23-.9.23h-1.4v-1.89ZM11.88,15.99c.2-.19.46-.29.78-.29.29,0,.53.1.73.29.18.18.29.43.31.74h-2.2c.06-.31.18-.56.37-.74Z"/>
</svg>