<?xml version="1.0" encoding="UTF-8"?>
<svg id="TF" xmlns="http://www.w3.org/2000/svg" viewBox="0 0 24 24">
  <path d="M20.17,4.75l-8-2.67c-.11-.04-.24-.04-.35,0L3.83,4.75c-.22.08-.38.29-.38.52v7.14c0,2.84,1.52,5.5,3.97,6.94l4.3,2.53c.09.05.18.08.28.08s.19-.02.28-.08l4.3-2.53c2.45-1.44,3.97-4.1,3.97-6.94v-7.14c0-.24-.15-.45-.38-.52ZM16,12.55h-3.45v3.45c0,.3-.25.55-.55.55s-.55-.25-.55-.55v-3.45h-3.45c-.3,0-.55-.25-.55-.55s.25-.55.55-.55h3.45v-3.45c0-.3.25-.55.55-.55s.55.25.55.55v3.45h3.45c.3,0,.55.25.55.55s-.25.55-.55.55Z" style="fill: #404040; stroke-width: 0px;"/>
</svg>