<?xml version="1.0" encoding="UTF-8"?>
<svg id="TF" xmlns="http://www.w3.org/2000/svg" viewBox="0 0 24 24">
  <path d="M10.9,8.85h4.25v-3.75c0-1.13-.92-2.05-2.05-2.05H5.1c-1.13,0-2.05.92-2.05,2.05v8c0,1.13.92,2.05,2.05,2.05h3.75v-4.25c0-1.13.92-2.05,2.05-2.05Z" style="fill: #404040; stroke-width: 0px;"/>
  <path d="M18.9,8.85h-3.75v4.25c0,1.13-.92,2.05-2.05,2.05h-4.25v3.75c0,1.13.92,2.05,2.05,2.05h8c1.13,0,2.05-.92,2.05-2.05v-8c0-1.13-.92-2.05-2.05-2.05Z" style="fill: #404040; stroke-width: 0px;"/>
</svg>