<?xml version="1.0" encoding="UTF-8"?>
<svg id="FF" xmlns="http://www.w3.org/2000/svg" viewBox="0 0 24 24">
  <path d="M18.29,20.79c-.11.11-.25.16-.39.16h1c1.13,0,2.05-.92,2.05-2.05v-1c0,.14-.05.28-.16.39l-2.5,2.5Z" style="fill: #000; stroke-width: 0px;"/>
  <path d="M10.5,13.55c-.52,0-.95.43-.95.95v1.4c0,.52.43.95.95.95s.95-.43.95-.95v-1.4c0-.52-.43-.95-.95-.95Z" style="fill: #000; stroke-width: 0px;"/>
  <path d="M3.05,12v6.9c0,1.13.92,2.05,2.05,2.05h12.8c-.14,0-.28-.05-.39-.16-.21-.21-.21-.56,0-.78l1.56-1.56h-5.07c-.3,0-.55-.25-.55-.55s.25-.55.55-.55h5.07l-1.56-1.56c-.21-.21-.21-.56,0-.78.21-.21.56-.21.78,0l2.5,2.5c.11.11.16.25.16.39v-5.9H3.05ZM7.15,17.2c0,.3-.25.55-.55.55s-.55-.25-.55-.55v-4c0-.3.25-.55.55-.55s.55.25.55.55v4ZM12.55,15.9c0,1.13-.92,2.05-2.05,2.05s-2.05-.92-2.05-2.05v-1.4c0-1.13.92-2.05,2.05-2.05s2.05.92,2.05,2.05v1.4Z" style="fill: #000; stroke-width: 0px;"/>
</svg>