<?xml version="1.0" encoding="UTF-8"?>
<svg id="TL" xmlns="http://www.w3.org/2000/svg" viewBox="0 0 24 24">
  <path d="M5.1,15.25c.36,0,.65-.29.65-.65s-.29-.65-.65-.65c-.47,0-.85-.38-.85-.85V5.1c0-.47.38-.85.85-.85h8c.47,0,.85.38.85.85,0,.36.29.65.65.65s.65-.29.65-.65c0-1.19-.96-2.15-2.15-2.15H5.1c-1.19,0-2.15.96-2.15,2.15v8c0,1.19.96,2.15,2.15,2.15Z"/>
  <path d="M18.9,8.75c-.36,0-.65.29-.65.65s.29.65.65.65c.47,0,.85.38.85.85v8c0,.47-.38.85-.85.85h-8c-.47,0-.85-.38-.85-.85,0-.36-.29-.65-.65-.65s-.65.29-.65.65c0,1.19.96,2.15,2.15,2.15h8c1.19,0,2.15-.96,2.15-2.15v-8c0-1.19-.96-2.15-2.15-2.15Z"/>
  <path d="M20.81,3.19c-.25-.25-.67-.25-.92,0L3.19,19.89c-.25.25-.25.67,0,.92.13.13.29.19.46.19s.33-.06.46-.19L20.81,4.11c.25-.25.25-.67,0-.92Z"/>
</svg>