<?xml version="1.0" encoding="UTF-8"?>
<svg id="TL" xmlns="http://www.w3.org/2000/svg" viewBox="0 0 24 24">
  <g>
    <path d="M10.5,12.35c-1.19,0-2.15.96-2.15,2.15v1.4c0,1.19.96,2.15,2.15,2.15s2.15-.96,2.15-2.15v-1.4c0-1.19-.96-2.15-2.15-2.15ZM11.35,15.9c0,.47-.38.85-.85.85s-.85-.38-.85-.85v-1.4c0-.47.38-.85.85-.85s.85.38.85.85v1.4Z" style="fill: #000; stroke-width: 0px;"/>
    <path d="M10.25,9.5v-1.4c0-1.19-.96-2.15-2.15-2.15s-2.15.96-2.15,2.15v1.4c0,1.19.96,2.15,2.15,2.15s2.15-.96,2.15-2.15ZM8.95,9.5c0,.47-.38.85-.85.85s-.85-.38-.85-.85v-1.4c0-.47.38-.85.85-.85s.85.38.85.85v1.4Z" style="fill: #000; stroke-width: 0px;"/>
    <path d="M15.9,5.95c-1.19,0-2.15.96-2.15,2.15v1.4c0,1.19.96,2.15,2.15,2.15s2.15-.96,2.15-2.15v-1.4c0-1.19-.96-2.15-2.15-2.15ZM16.75,9.5c0,.47-.38.85-.85.85s-.85-.38-.85-.85v-1.4c0-.47.38-.85.85-.85s.85.38.85.85v1.4Z" style="fill: #000; stroke-width: 0px;"/>
    <path d="M12,6.15c-.36,0-.65.29-.65.65v4c0,.36.29.65.65.65s.65-.29.65-.65v-4c0-.36-.29-.65-.65-.65Z" style="fill: #000; stroke-width: 0px;"/>
    <path d="M6.6,12.55c-.36,0-.65.29-.65.65v4c0,.36.29.65.65.65s.65-.29.65-.65v-4c0-.36-.29-.65-.65-.65Z" style="fill: #000; stroke-width: 0px;"/>
  </g>
  <path d="M18.9,2.95H5.1c-1.19,0-2.15.96-2.15,2.15v13.8c0,1.19.96,2.15,2.15,2.15h11.8c.36,0,.65-.29.65-.65s-.29-.65-.65-.65H5.1c-.47,0-.85-.38-.85-.85V5.1c0-.47.38-.85.85-.85h13.8c.47,0,.85.38.85.85v11.8c0,.36.29.65.65.65s.65-.29.65-.65V5.1c0-1.19-.96-2.15-2.15-2.15Z" style="fill: #000; stroke-width: 0px;"/>
</svg>