<?xml version="1.0" encoding="UTF-8"?>
<svg id="TF" xmlns="http://www.w3.org/2000/svg" viewBox="0 0 24 24">
  <path d="M10.5,13.55c-.52,0-.95.43-.95.95v1.4c0,.52.43.95.95.95s.95-.43.95-.95v-1.4c0-.52-.43-.95-.95-.95Z" style="fill: #404040; stroke-width: 0px;"/>
  <path d="M8.1,7.15c-.52,0-.95.43-.95.95v1.4c0,.52.43.95.95.95s.95-.43.95-.95v-1.4c0-.52-.43-.95-.95-.95Z" style="fill: #404040; stroke-width: 0px;"/>
  <path d="M15.9,7.15c-.52,0-.95.43-.95.95v1.4c0,.52.43.95.95.95s.95-.43.95-.95v-1.4c0-.52-.43-.95-.95-.95Z" style="fill: #404040; stroke-width: 0px;"/>
  <path d="M18.9,3.05H5.1c-1.13,0-2.05.92-2.05,2.05v13.8c0,1.13.92,2.05,2.05,2.05h13.8c1.13,0,2.05-.92,2.05-2.05V5.1c0-1.13-.92-2.05-2.05-2.05ZM7.15,17.2c0,.3-.25.55-.55.55s-.55-.25-.55-.55v-4c0-.3.25-.55.55-.55s.55.25.55.55v4ZM6.05,9.5v-1.4c0-1.13.92-2.05,2.05-2.05s2.05.92,2.05,2.05v1.4c0,1.13-.92,2.05-2.05,2.05s-2.05-.92-2.05-2.05ZM12.55,15.9c0,1.13-.92,2.05-2.05,2.05s-2.05-.92-2.05-2.05v-1.4c0-1.13.92-2.05,2.05-2.05s2.05.92,2.05,2.05v1.4ZM12.55,10.8c0,.3-.25.55-.55.55s-.55-.25-.55-.55v-4c0-.3.25-.55.55-.55s.55.25.55.55v4ZM17.95,9.5c0,1.13-.92,2.05-2.05,2.05s-2.05-.92-2.05-2.05v-1.4c0-1.13.92-2.05,2.05-2.05s2.05.92,2.05,2.05v1.4Z" style="fill: #404040; stroke-width: 0px;"/>
</svg>