<?xml version="1.0" encoding="UTF-8"?>
<svg id="FL" xmlns="http://www.w3.org/2000/svg" viewBox="0 0 24 24">
  <path d="M18.9,2.95H5.1c-1.19,0-2.15.96-2.15,2.15v13.8c0,1.19.96,2.15,2.15,2.15h6.9c.36,0,.65-.29.65-.65s-.29-.65-.65-.65h-6.9c-.47,0-.85-.38-.85-.85V5.1c0-.47.38-.85.85-.85h13.8c.47,0,.85.38.85.85v6.9c0,.36.29.65.65.65s.65-.29.65-.65v-6.9c0-1.19-.96-2.15-2.15-2.15Z" style="fill: #000; stroke-width: 0px;"/>
  <path d="M10.5,12.35c-1.19,0-2.15.96-2.15,2.15v1.4c0,1.19.96,2.15,2.15,2.15s2.15-.96,2.15-2.15v-1.4c0-1.19-.96-2.15-2.15-2.15ZM11.35,15.9c0,.47-.38.85-.85.85s-.85-.38-.85-.85v-1.4c0-.47.38-.85.85-.85s.85.38.85.85v1.4Z" style="fill: #000; stroke-width: 0px;"/>
  <path d="M10.25,9.5v-1.4c0-1.19-.96-2.15-2.15-2.15s-2.15.96-2.15,2.15v1.4c0,1.19.96,2.15,2.15,2.15s2.15-.96,2.15-2.15ZM7.25,9.5v-1.4c0-.47.38-.85.85-.85s.85.38.85.85v1.4c0,.47-.38.85-.85.85s-.85-.38-.85-.85Z" style="fill: #000; stroke-width: 0px;"/>
  <path d="M15.9,11.65c1.19,0,2.15-.96,2.15-2.15v-1.4c0-1.19-.96-2.15-2.15-2.15s-2.15.96-2.15,2.15v1.4c0,1.19.96,2.15,2.15,2.15ZM15.05,8.1c0-.47.38-.85.85-.85s.85.38.85.85v1.4c0,.47-.38.85-.85.85s-.85-.38-.85-.85v-1.4Z" style="fill: #000; stroke-width: 0px;"/>
  <path d="M12,6.15c-.36,0-.65.29-.65.65v4c0,.36.29.65.65.65s.65-.29.65-.65v-4c0-.36-.29-.65-.65-.65Z" style="fill: #000; stroke-width: 0px;"/>
  <path d="M5.95,13.2v4c0,.36.29.65.65.65s.65-.29.65-.65v-4c0-.36-.29-.65-.65-.65s-.65.29-.65.65Z" style="fill: #000; stroke-width: 0px;"/>
</svg>