<?xml version="1.0" encoding="UTF-8"?>
<svg id="TF" xmlns="http://www.w3.org/2000/svg" viewBox="0 0 24 24">
  <path d="M5.1,15.15c.15,0,.29-.06.39-.16L14.99,5.49c.1-.1.16-.24.16-.39,0-1.13-.92-2.05-2.05-2.05H5.1c-1.13,0-2.05.92-2.05,2.05v8c0,1.13.92,2.05,2.05,2.05Z"/>
  <path d="M18.9,8.85c-.15,0-.29.06-.39.16l-9.5,9.5c-.1.1-.16.24-.16.39,0,1.13.92,2.05,2.05,2.05h8c1.13,0,2.05-.92,2.05-2.05v-8c0-1.13-.92-2.05-2.05-2.05Z"/>
  <path d="M20.74,3.26c-.21-.21-.56-.21-.78,0L3.26,19.96c-.21.21-.21.56,0,.78.11.11.25.16.39.16s.28-.05.39-.16L20.74,4.04c.21-.21.21-.56,0-.78Z"/>
</svg>