<?xml version="1.0" encoding="UTF-8"?>
<svg id="TF" xmlns="http://www.w3.org/2000/svg" viewBox="0 0 24 24">
  <path d="M8.39,11.23c.51,0,.99.11,1.44.32.44.21.88.48,1.3.79.42.31.86.63,1.3.94.44.31.92.57,1.43.78.5.21,1.07.31,1.67.31.89,0,1.71-.18,2.45-.55.74-.36,1.41-.88,2.01-1.53.11-.12.25-.28.41-.48.16-.2.31-.4.45-.61.13-.2.2-.38.2-.54,0-.55-.25-.81-.77-.81-.18,0-.37.09-.56.27-.2.19-.43.43-.67.71-.25.29-.53.58-.86.88-.32.3-.7.54-1.13.74-.43.19-.94.29-1.52.29-.47,0-.94-.11-1.39-.32-.44-.21-.9-.48-1.34-.79s-.89-.63-1.34-.94c-.45-.31-.92-.58-1.41-.78-.48-.21-1-.31-1.54-.31-1,0-1.92.24-2.73.72-.82.48-1.54,1.11-2.15,1.88-.09.13-.23.32-.4.56-.16.23-.25.43-.25.6,0,.53.25.79.77.79.16,0,.34-.1.53-.28.2-.2.42-.44.66-.74.25-.29.53-.59.85-.88.32-.29.69-.54,1.12-.74.43-.2.93-.3,1.48-.3Z" style="fill: #333;"/>
</svg>