<?xml version="1.0" encoding="UTF-8"?>
<svg id="FL" xmlns="http://www.w3.org/2000/svg" viewBox="0 0 24 24">
  <path d="M15.53,14.49c-.62,0-1.19-.11-1.71-.32-.51-.21-1-.48-1.45-.79-.44-.31-.88-.63-1.3-.94-.42-.31-.85-.58-1.28-.78-.43-.21-.9-.31-1.39-.31-.54,0-1.02.1-1.44.29-.42.19-.79.44-1.09.72-.31.28-.59.58-.84.87-.25.29-.47.54-.67.74-.21.21-.41.31-.6.31-.58,0-.87-.3-.87-.89,0-.19.09-.41.27-.65.17-.24.3-.43.4-.56.62-.78,1.35-1.42,2.18-1.91.83-.49,1.77-.73,2.78-.73.55,0,1.08.11,1.58.32.49.21.97.48,1.42.79.45.31.9.63,1.34.94.44.31.89.58,1.33.79.44.21.89.31,1.34.31.56,0,1.06-.1,1.48-.28.42-.19.79-.43,1.1-.72.32-.29.6-.58.85-.87.25-.29.48-.53.68-.72.21-.2.43-.3.63-.3.58,0,.87.31.87.91,0,.17-.07.37-.21.59-.14.21-.29.42-.45.62-.16.2-.3.36-.41.48-.6.66-1.29,1.18-2.04,1.55-.75.37-1.59.56-2.49.56Z"/>
</svg>