<?xml version="1.0" encoding="UTF-8"?>
<svg id="FL" xmlns="http://www.w3.org/2000/svg" viewBox="0 0 24 24">
  <path d="M20.4,13.75c-.36,0-.65.29-.65.65v4.5c0,.47-.38.85-.85.85h-4.5c-.36,0-.65.29-.65.65s.29.65.65.65h4.5c1.19,0,2.15-.96,2.15-2.15v-4.5c0-.36-.29-.65-.65-.65Z" style="fill: #000; stroke-width: 0px;"/>
  <path d="M9.6,2.95h-4.5c-1.19,0-2.15.96-2.15,2.15v4.5c0,.36.29.65.65.65s.65-.29.65-.65v-4.5c0-.47.38-.85.85-.85h4.5c.36,0,.65-.29.65-.65s-.29-.65-.65-.65Z" style="fill: #000; stroke-width: 0px;"/>
</svg>