<?xml version="1.0" encoding="UTF-8"?>
<svg id="TF" xmlns="http://www.w3.org/2000/svg" viewBox="0 0 24 24">
  <path d="M20.4,13.85c-.3,0-.55.25-.55.55v4.5c0,.52-.43.95-.95.95h-4.5c-.3,0-.55.25-.55.55s.25.55.55.55h4.5c1.13,0,2.05-.92,2.05-2.05v-4.5c0-.3-.25-.55-.55-.55Z" style="fill: #404040; stroke-width: 0px;"/>
  <path d="M10.15,3.6c0-.3-.25-.55-.55-.55h-4.5c-1.13,0-2.05.92-2.05,2.05v4.5c0,.3.25.55.55.55s.55-.25.55-.55v-4.5c0-.52.43-.95.95-.95h4.5c.3,0,.55-.25.55-.55Z" style="fill: #404040; stroke-width: 0px;"/>
  <rect x="6.05" y="6.05" width="11.9" height="11.9" rx="2.05" ry="2.05" style="fill: #404040; stroke-width: 0px;"/>
</svg>