<?xml version="1.0" encoding="UTF-8"?>
<svg id="TL" xmlns="http://www.w3.org/2000/svg" viewBox="0 0 24 24">
  <path d="M14.1,16.25H5.1c-1.19,0-2.15-.96-2.15-2.15V5.1c0-1.19.96-2.15,2.15-2.15h9c1.19,0,2.15.96,2.15,2.15v9c0,1.19-.96,2.15-2.15,2.15ZM5.1,4.25c-.47,0-.85.38-.85.85v9c0,.47.38.85.85.85h9c.47,0,.85-.38.85-.85V5.1c0-.47-.38-.85-.85-.85H5.1Z" style="fill: #000; stroke-width: 0px;"/>
  <path d="M18.9,21.05h-6c-1.19,0-2.15-.96-2.15-2.15v-.3c0-.36.29-.65.65-.65s.65.29.65.65v.3c0,.47.38.85.85.85h6c.47,0,.85-.38.85-.85v-6c0-.47-.38-.85-.85-.85h-.3c-.36,0-.65-.29-.65-.65s.29-.65.65-.65h.3c1.19,0,2.15.96,2.15,2.15v6c0,1.19-.96,2.15-2.15,2.15Z" style="fill: #000; stroke-width: 0px;"/>
</svg>