<?xml version="1.0" encoding="UTF-8"?>
<svg id="FL" xmlns="http://www.w3.org/2000/svg" viewBox="0 0 24 24">
  <path d="M9.01,12.87c-.25-.25-.67-.25-.92,0l-2.83,2.83c-.25.25-.25.67,0,.92.13.13.29.19.46.19s.33-.06.46-.19l2.83-2.83c.25-.25.25-.67,0-.92Z" style="fill: #000; stroke-width: 0px;"/>
  <path d="M6.89,10.75c-.25-.25-.67-.25-.92,0l-2.83,2.83c-.25.25-.25.67,0,.92.13.13.29.19.46.19s.33-.06.46-.19l2.83-2.83c.25-.25.25-.67,0-.92Z" style="fill: #000; stroke-width: 0px;"/>
  <path d="M11.13,14.99c-.25-.25-.67-.25-.92,0l-2.83,2.83c-.25.25-.25.67,0,.92.13.13.29.19.46.19s.33-.06.46-.19l2.83-2.83c.25-.25.25-.67,0-.92Z" style="fill: #000; stroke-width: 0px;"/>
  <path d="M13.25,17.11c-.25-.25-.67-.25-.92,0l-2.83,2.83c-.25.25-.25.67,0,.92.13.13.29.19.46.19s.33-.06.46-.19l2.83-2.83c.25-.25.25-.67,0-.92Z" style="fill: #000; stroke-width: 0px;"/>
</svg>