<?xml version="1.0" encoding="UTF-8"?>
<svg id="HL" xmlns="http://www.w3.org/2000/svg" viewBox="0 0 24 24">
  <path d="M14.23,16.78c-.28,0-.54-.18-.62-.47l-.88-3.01c-.07-.23,0-.48.16-.64l6.54-6.54c.21-.21.32-.48.32-.78s-.11-.57-.32-.78c-.21-.21-.48-.32-.78-.32h0c-.29,0-.57.11-.78.32l-6.54,6.54c-.17.17-.42.23-.64.16l-3.01-.88c-.34-.1-.54-.46-.44-.81.1-.34.46-.54.81-.44l2.64.77,6.27-6.27c.45-.45,1.06-.7,1.7-.7h0c.64,0,1.24.25,1.7.7.45.45.7,1.06.7,1.7s-.25,1.24-.7,1.7l-6.27,6.27.78,2.63c.1.34-.1.71-.44.81-.06.02-.12.03-.18.03Z" style="fill: #66f; stroke-width: 0px;"/>
</svg>