<?xml version="1.0" encoding="UTF-8"?>
<svg id="FF" xmlns="http://www.w3.org/2000/svg" viewBox="0 0 24 24">
  <path d="M8.94,12.94c-.21-.21-.56-.21-.78,0l-2.83,2.83c-.21.21-.21.56,0,.78.11.11.25.16.39.16s.28-.05.39-.16l2.83-2.83c.21-.21.21-.56,0-.78Z" style="fill: #000; stroke-width: 0px;"/>
  <path d="M6.82,10.82c-.21-.21-.56-.21-.78,0l-2.83,2.83c-.21.21-.21.56,0,.78.11.11.25.16.39.16s.28-.05.39-.16l2.83-2.83c.21-.21.21-.56,0-.78Z" style="fill: #000; stroke-width: 0px;"/>
  <path d="M11.06,15.06c-.21-.21-.56-.21-.78,0l-2.83,2.83c-.21.21-.21.56,0,.78.11.11.25.16.39.16s.28-.05.39-.16l2.83-2.83c.21-.21.21-.56,0-.78Z" style="fill: #000; stroke-width: 0px;"/>
  <path d="M13.18,17.18c-.21-.21-.56-.21-.78,0l-2.83,2.83c-.21.21-.21.56,0,.78.11.11.25.16.39.16s.28-.05.39-.16l2.83-2.83c.21-.21.21-.56,0-.78Z" style="fill: #000; stroke-width: 0px;"/>
</svg>