<?xml version="1.0" encoding="UTF-8"?>
<svg id="TL" xmlns="http://www.w3.org/2000/svg" viewBox="0 0 24 24">
  <path d="M17.5,22.05h-2.5c-.36,0-.65-.29-.65-.65s.29-.65.65-.65h2.5c.47,0,.85-.38.85-.85V7.51c0-.3-.16-.58-.42-.74l-3.25-1.88c-.31-.18-.42-.58-.24-.89.18-.31.58-.42.89-.24l3.25,1.88c.66.38,1.07,1.1,1.07,1.86v12.39c0,1.19-.96,2.15-2.15,2.15Z" style="fill: #000; stroke-width: 0px;"/>
  <path d="M12,22.05h-5.5c-1.19,0-2.15-.96-2.15-2.15V7.51c0-.77.41-1.48,1.07-1.86h0l6.25-3.61c.2-.12.45-.12.65,0,.2.12.32.33.32.56v18.8c0,.36-.29.65-.65.65ZM6.07,6.77c-.26.15-.42.43-.42.74v12.39c0,.47.38.85.85.85h4.85V3.73l-5.28,3.05Z" style="fill: #000; stroke-width: 0px;"/>
</svg>