<?xml version="1.0" encoding="UTF-8"?>
<svg id="TF" xmlns="http://www.w3.org/2000/svg" viewBox="0 0 24 24">
  <path d="M18.53,5.73l-3.25-1.88c-.17-.1-.38-.1-.55,0-.17.1-.27.28-.27.48v17.07c0,.3.25.55.55.55h2.5c1.13,0,2.05-.92,2.05-2.05V7.51c0-.73-.39-1.41-1.02-1.78Z" style="fill: #404040; stroke-width: 0px;"/>
  <path d="M12.27,2.12c-.17-.1-.38-.1-.55,0l-6.25,3.61s0,0,0,0c-.63.37-1.02,1.04-1.02,1.77v12.39c0,1.13.92,2.05,2.05,2.05h5.5c.3,0,.55-.25.55-.55V2.6c0-.2-.1-.38-.27-.48Z" style="fill: #404040; stroke-width: 0px;"/>
</svg>