<?xml version="1.0" encoding="UTF-8"?>
<svg id="TF" xmlns="http://www.w3.org/2000/svg" viewBox="0 0 24 24">
  <path d="M20.95,8.2v-3.1c0-1.13-.92-2.05-2.05-2.05H5.1c-1.13,0-2.05.92-2.05,2.05v3.1h17.9Z" style="fill: #404040; stroke-width: 0px;"/>
  <path d="M3.05,9.3v9.6c0,1.13.92,2.05,2.05,2.05h13.8c1.13,0,2.05-.92,2.05-2.05v-9.6H3.05ZM14.5,11.97l-2.5,5.65c-.09.21-.29.33-.5.33-.07,0-.15-.02-.22-.05-.28-.12-.4-.45-.28-.73l2.16-4.88h-3.16c-.3,0-.55-.25-.55-.55s.25-.55.55-.55h4c.19,0,.36.09.46.25.1.16.12.35.04.52Z" style="fill: #404040; stroke-width: 0px;"/>
</svg>