<?xml version="1.0" encoding="UTF-8"?>
<svg id="TL" xmlns="http://www.w3.org/2000/svg" viewBox="0 0 24 24">
  <path d="M11.24,17.99c.09.04.17.06.26.06.25,0,.49-.14.59-.39l2.5-5.65c.09-.2.07-.43-.05-.62-.12-.18-.33-.3-.54-.3h-4c-.36,0-.65.29-.65.65s.29.65.65.65h3l-2.1,4.74c-.15.33,0,.71.33.86Z" style="fill: #000; stroke-width: 0px;"/>
  <path d="M18.9,2.95H5.1c-1.19,0-2.15.96-2.15,2.15v13.8c0,1.19.96,2.15,2.15,2.15h11.8c.36,0,.65-.29.65-.65s-.29-.65-.65-.65H5.1c-.47,0-.85-.38-.85-.85v-9.5h15.5v7.5c0,.36.29.65.65.65s.65-.29.65-.65V5.1c0-1.19-.96-2.15-2.15-2.15ZM4.25,8.1v-3c0-.47.38-.85.85-.85h13.8c.47,0,.85.38.85.85v3H4.25Z" style="fill: #000; stroke-width: 0px;"/>
</svg>