<?xml version="1.0" encoding="UTF-8"?>
<svg id="TF" xmlns="http://www.w3.org/2000/svg" viewBox="0 0 24 24">
  <circle cx="12" cy="13.4" r="3.45" style="fill: #333;"/>
  <path d="M18.9,5.85h-2.35v-.75c0-1.13-.92-2.05-2.05-2.05h-5c-1.13,0-2.05.92-2.05,2.05v.75h-2.35c-1.13,0-2.05.92-2.05,2.05v11c0,1.13.92,2.05,2.05,2.05h13.8c1.13,0,2.05-.92,2.05-2.05V7.9c0-1.13-.92-2.05-2.05-2.05ZM12,17.95c-2.51,0-4.55-2.04-4.55-4.55s2.04-4.55,4.55-4.55,4.55,2.04,4.55,4.55-2.04,4.55-4.55,4.55Z" style="fill: #333;"/>
</svg>