<?xml version="1.0" encoding="UTF-8"?>
<svg id="TL" xmlns="http://www.w3.org/2000/svg" viewBox="0 0 24 24">
  <path d="M21.05,15.02c0-2.9-1.81-6.27-4.15-6.27s-4.15,3.37-4.15,6.27c0,2.34,1.27,3.75,3.5,3.98v2.4c0,.36.29.65.65.65s.65-.29.65-.65v-2.4c2.23-.23,3.5-1.64,3.5-3.98ZM16.9,17.75c-1.92,0-2.85-.89-2.85-2.73,0-2.37,1.49-4.98,2.85-4.98s2.85,2.6,2.85,4.98c0,1.83-.93,2.73-2.85,2.73Z" style="fill: #000; stroke-width: 0px;"/>
  <g>
    <path d="M17.18,5.65l-3.25-1.88c-.31-.18-.71-.07-.89.24-.18.31-.07.71.24.89l3.25,1.88c.26.15.42.43.42.74v1.99c0,.36.29.65.65.65s.65-.29.65-.65v-1.99c0-.77-.41-1.48-1.07-1.86Z" style="fill: #000; stroke-width: 0px;"/>
    <path d="M10.92,2.04c-.2-.12-.45-.12-.65,0l-6.25,3.61c-.66.38-1.08,1.1-1.08,1.86v12.39c0,1.19.96,2.15,2.15,2.15h5.5c.36,0,.65-.29.65-.65V2.6c0-.23-.12-.45-.33-.56ZM9.95,20.75h-4.85c-.47,0-.85-.38-.85-.85V7.51c0-.3.16-.58.42-.74l5.27-3.05v17.02Z" style="fill: #000; stroke-width: 0px;"/>
  </g>
</svg>