<?xml version="1.0" encoding="UTF-8"?>
<svg id="TL" xmlns="http://www.w3.org/2000/svg" viewBox="0 0 24 24">
  <path d="M15.74,20c-.17,0-.33-.06-.46-.19-.25-.25-.25-.67,0-.92l2.12-2.12c.25-.25.67-.25.92,0s.25.67,0,.92l-2.12,2.12c-.13.13-.29.19-.46.19Z" style="fill: #000; stroke-width: 0px;"/>
  <path d="M21.86,16.06L10.19,4.4c-.84-.84-2.2-.84-3.04,0l-3.53,3.53c-.84.84-.84,2.2,0,3.04l4.36,4.36-1.6,1.6h-3.12v-1.35c0-.36-.29-.65-.65-.65s-.65.29-.65.65v4c0,.36.29.65.65.65s.65-.29.65-.65v-1.35h3.39c.17,0,.34-.07.46-.19l1.79-1.79,2.85,2.85c.13.13.29.19.46.19s.33-.06.46-.19l3.54-3.54c.25-.25.25-.67,0-.92s-.67-.25-.92,0l-3.08,3.08-7.67-7.67c-.33-.33-.33-.87,0-1.2l3.53-3.53c.33-.33.87-.33,1.2,0l11.67,11.67c.25.25.67.25.92,0s.25-.67,0-.92Z" style="fill: #000; stroke-width: 0px;"/>
</svg>