<?xml version="1.0" encoding="UTF-8"?>
<svg id="FF" xmlns="http://www.w3.org/2000/svg" viewBox="0 0 24 24">
  <path d="M18.25,16.84c-.21-.21-.56-.21-.78,0l-2.12,2.12c-.21.21-.21.56,0,.78.11.11.25.16.39.16s.28-.05.39-.16l2.12-2.12c.21-.21.21-.56,0-.78Z" style="fill: #000; stroke-width: 0px;"/>
  <path d="M5.94,5.75l-2.25,2.25c-.39.39-.6.9-.6,1.45s.21,1.06.6,1.45l4.43,4.43-1.7,1.7h-3.26v-1.45c0-.3-.25-.55-.55-.55s-.55.25-.55.55v4c0,.3.25.55.55.55s.55-.25.55-.55v-1.45h3.49c.15,0,.29-.06.39-.16l1.86-1.86,2.93,2.93c.11.11.25.16.39.16s.28-.05.39-.16l3.32-3.32L5.94,5.75Z" style="fill: #000; stroke-width: 0px;"/>
</svg>