<?xml version="1.0" encoding="UTF-8"?>
<svg id="HF" xmlns="http://www.w3.org/2000/svg" viewBox="0 0 24 24">
  <path d="M10.17,10l3.67,4,7.12-7.76v-1.14c0-1.13-.92-2.05-2.05-2.05H5.1c-1.13,0-2.05.92-2.05,2.05v12.31l7.12-7.41ZM6.09,10.63l3.67-4c.1-.11.25-.18.41-.18s.3.06.41.18l3.26,3.56,3.26-3.56c.21-.22.55-.24.78-.03.22.21.24.55.03.78l-3.67,4c-.1.11-.25.18-.41.18s-.3-.06-.41-.18l-3.26-3.56-3.26,3.56c-.11.12-.26.18-.41.18-.13,0-.27-.05-.37-.14-.22-.21-.24-.55-.03-.78Z" style="fill: #606060; stroke-width: 0px;"/>
</svg>