<?xml version="1.0" encoding="UTF-8"?>
<svg id="TF" xmlns="http://www.w3.org/2000/svg" viewBox="0 0 24 24">
  <path d="M18.9,3.05H5.1c-1.13,0-2.05.92-2.05,2.05v13.8c0,1.13.92,2.05,2.05,2.05h13.8c1.13,0,2.05-.92,2.05-2.05V5.1c0-1.13-.92-2.05-2.05-2.05ZM9.15,17c0,.3-.25.55-.55.55h-3c-.3,0-.55-.25-.55-.55V7c0-.3.25-.55.55-.55h3c.3,0,.55.25.55.55v10ZM14.05,14c0,.3-.25.55-.55.55h-3c-.3,0-.55-.25-.55-.55v-4c0-.3.25-.55.55-.55h3c.3,0,.55.25.55.55v4ZM18.95,15.2c0,.3-.25.55-.55.55h-3c-.3,0-.55-.25-.55-.55v-6.4c0-.3.25-.55.55-.55h3c.3,0,.55.25.55.55v6.4Z" style="fill: #404040; stroke-width: 0px;"/>
</svg>