<?xml version="1.0" encoding="UTF-8"?>
<svg id="HL" xmlns="http://www.w3.org/2000/svg" viewBox="0 0 24 24">
  <path d="M8.6,19.05h-3c-.36,0-.65-.29-.65-.65v-10c0-.36.29-.65.65-.65h3c.36,0,.65.29.65.65v10c0,.36-.29.65-.65.65ZM6.25,17.75h1.7v-8.7h-1.7v8.7Z" style="fill: #66f; stroke-width: 0px;"/>
  <path d="M13.5,19.05h-3c-.36,0-.65-.29-.65-.65v-4c0-.36.29-.65.65-.65h3c.36,0,.65.29.65.65v4c0,.36-.29.65-.65.65ZM11.15,17.75h1.7v-2.7h-1.7v2.7Z" style="fill: #66f; stroke-width: 0px;"/>
  <path d="M18.4,19.05h-3c-.36,0-.65-.29-.65-.65v-6.4c0-.36.29-.65.65-.65h3c.36,0,.65.29.65.65v6.4c0,.36-.29.65-.65.65ZM16.05,17.75h1.7v-5.1h-1.7v5.1Z" style="fill: #66f; stroke-width: 0px;"/>
</svg>