<?xml version="1.0" encoding="UTF-8"?>
<svg id="TL" xmlns="http://www.w3.org/2000/svg" viewBox="0 0 24 24">
  <path d="M10.5,15.65c-.17,0-.33-.06-.46-.19l-3-3c-.25-.25-.25-.67,0-.92s.67-.25.92,0l2.54,2.54,5.54-5.54c.25-.25.67-.25.92,0s.25.67,0,.92l-6,6c-.13.13-.29.19-.46.19Z" style="fill: #000; stroke-width: 0px;"/>
  <path d="M17.9,21.05H5.1c-1.19,0-2.15-.96-2.15-2.15V5.1c0-1.19.96-2.15,2.15-2.15h13.8c1.19,0,2.15.96,2.15,2.15v12.8c0,.36-.29.65-.65.65s-.65-.29-.65-.65V5.1c0-.47-.38-.85-.85-.85H5.1c-.47,0-.85.38-.85.85v13.8c0,.47.38.85.85.85h12.8c.36,0,.65.29.65.65s-.29.65-.65.65Z" style="fill: #000; stroke-width: 0px;"/>
</svg>