<?xml version="1.0" encoding="UTF-8"?>
<svg id="TL" xmlns="http://www.w3.org/2000/svg" viewBox="0 0 24 24">
  <path d="M10.5,15.65c-.17,0-.33-.06-.46-.19l-3-3c-.25-.25-.25-.67,0-.92s.67-.25.92,0l2.54,2.54,5.54-5.54c.25-.25.67-.25.92,0s.25.67,0,.92l-6,6c-.13.13-.29.19-.46.19Z" style="fill: #000; stroke-width: 0px;"/>
  <path d="M12,22.05c-5.54,0-10.05-4.51-10.05-10.05S6.46,1.95,12,1.95s10.05,4.51,10.05,10.05c0,1.75-.47,3.49-1.35,5.02-.18.31-.58.42-.89.24-.31-.18-.42-.58-.24-.89.77-1.33,1.18-2.84,1.18-4.37,0-4.82-3.92-8.75-8.75-8.75S3.25,7.18,3.25,12s3.92,8.75,8.75,8.75c1.53,0,3.04-.41,4.37-1.18.31-.18.71-.07.89.24.18.31.07.71-.24.89-1.53.89-3.27,1.35-5.02,1.35Z" style="fill: #000; stroke-width: 0px;"/>
</svg>