<?xml version="1.0" encoding="UTF-8"?>
<svg id="TL" xmlns="http://www.w3.org/2000/svg" viewBox="0 0 24 24">
  <path d="M15.5,6.35h-7c-1.19,0-2.15.96-2.15,2.15v7c0,1.19.96,2.15,2.15,2.15h7c1.19,0,2.15-.96,2.15-2.15v-7c0-1.19-.96-2.15-2.15-2.15ZM16.35,15.5c0,.47-.38.85-.85.85h-7c-.47,0-.85-.38-.85-.85v-7c0-.47.38-.85.85-.85h7c.47,0,.85.38.85.85v7Z" style="fill: #000; stroke-width: 0px;"/>
  <path d="M13.5,5.25c.36,0,.65-.29.65-.65v-1c0-.36-.29-.65-.65-.65s-.65.29-.65.65v1c0,.36.29.65.65.65Z" style="fill: #000; stroke-width: 0px;"/>
  <path d="M16.5,5.25c.36,0,.65-.29.65-.65v-1c0-.36-.29-.65-.65-.65s-.65.29-.65.65v1c0,.36.29.65.65.65Z" style="fill: #000; stroke-width: 0px;"/>
  <path d="M10.5,5.25c.36,0,.65-.29.65-.65v-1c0-.36-.29-.65-.65-.65s-.65.29-.65.65v1c0,.36.29.65.65.65Z" style="fill: #000; stroke-width: 0px;"/>
  <path d="M7.5,5.25c.36,0,.65-.29.65-.65v-1c0-.36-.29-.65-.65-.65s-.65.29-.65.65v1c0,.36.29.65.65.65Z" style="fill: #000; stroke-width: 0px;"/>
  <path d="M13.5,18.75c-.36,0-.65.29-.65.65v1c0,.36.29.65.65.65s.65-.29.65-.65v-1c0-.36-.29-.65-.65-.65Z" style="fill: #000; stroke-width: 0px;"/>
  <path d="M16.5,18.75c-.36,0-.65.29-.65.65v1c0,.36.29.65.65.65s.65-.29.65-.65v-1c0-.36-.29-.65-.65-.65Z" style="fill: #000; stroke-width: 0px;"/>
  <path d="M10.5,18.75c-.36,0-.65.29-.65.65v1c0,.36.29.65.65.65s.65-.29.65-.65v-1c0-.36-.29-.65-.65-.65Z" style="fill: #000; stroke-width: 0px;"/>
  <path d="M7.5,18.75c-.36,0-.65.29-.65.65v1c0,.36.29.65.65.65s.65-.29.65-.65v-1c0-.36-.29-.65-.65-.65Z" style="fill: #000; stroke-width: 0px;"/>
  <path d="M4.6,12.85h-1c-.36,0-.65.29-.65.65s.29.65.65.65h1c.36,0,.65-.29.65-.65s-.29-.65-.65-.65Z" style="fill: #000; stroke-width: 0px;"/>
  <path d="M4.6,9.85h-1c-.36,0-.65.29-.65.65s.29.65.65.65h1c.36,0,.65-.29.65-.65s-.29-.65-.65-.65Z" style="fill: #000; stroke-width: 0px;"/>
  <path d="M4.6,15.85h-1c-.36,0-.65.29-.65.65s.29.65.65.65h1c.36,0,.65-.29.65-.65s-.29-.65-.65-.65Z" style="fill: #000; stroke-width: 0px;"/>
  <path d="M20.4,12.85h-1c-.36,0-.65.29-.65.65s.29.65.65.65h1c.36,0,.65-.29.65-.65s-.29-.65-.65-.65Z" style="fill: #000; stroke-width: 0px;"/>
  <path d="M20.4,9.85h-1c-.36,0-.65.29-.65.65s.29.65.65.65h1c.36,0,.65-.29.65-.65s-.29-.65-.65-.65Z" style="fill: #000; stroke-width: 0px;"/>
  <path d="M4.6,6.85h-1c-.36,0-.65.29-.65.65s.29.65.65.65h1c.36,0,.65-.29.65-.65s-.29-.65-.65-.65Z" style="fill: #000; stroke-width: 0px;"/>
  <path d="M19.4,8.15h1c.36,0,.65-.29.65-.65s-.29-.65-.65-.65h-1c-.36,0-.65.29-.65.65s.29.65.65.65Z" style="fill: #000; stroke-width: 0px;"/>
  <path d="M20.4,15.85h-1c-.36,0-.65.29-.65.65s.29.65.65.65h1c.36,0,.65-.29.65-.65s-.29-.65-.65-.65Z" style="fill: #000; stroke-width: 0px;"/>
  <circle cx="14" cy="10" r="1.15" style="fill: #000; stroke-width: 0px;"/>
</svg>