<?xml version="1.0" encoding="UTF-8"?>
<svg id="HF" xmlns="http://www.w3.org/2000/svg" viewBox="0 0 24 24">
  <path d="M13.5,3.05c-.3,0-.55.25-.55.55v1c0,.3.25.55.55.55s.55-.25.55-.55v-1c0-.3-.25-.55-.55-.55Z" style="fill: #606060; stroke-width: 0px;"/>
  <path d="M16.5,3.05c-.3,0-.55.25-.55.55v1c0,.3.25.55.55.55s.55-.25.55-.55v-1c0-.3-.25-.55-.55-.55Z" style="fill: #606060; stroke-width: 0px;"/>
  <path d="M10.5,3.05c-.3,0-.55.25-.55.55v1c0,.3.25.55.55.55s.55-.25.55-.55v-1c0-.3-.25-.55-.55-.55Z" style="fill: #606060; stroke-width: 0px;"/>
  <path d="M7.5,3.05c-.3,0-.55.25-.55.55v1c0,.3.25.55.55.55s.55-.25.55-.55v-1c0-.3-.25-.55-.55-.55Z" style="fill: #606060; stroke-width: 0px;"/>
  <path d="M13.5,18.85c-.3,0-.55.25-.55.55v1c0,.3.25.55.55.55s.55-.25.55-.55v-1c0-.3-.25-.55-.55-.55Z" style="fill: #606060; stroke-width: 0px;"/>
  <path d="M16.5,18.85c-.3,0-.55.25-.55.55v1c0,.3.25.55.55.55s.55-.25.55-.55v-1c0-.3-.25-.55-.55-.55Z" style="fill: #606060; stroke-width: 0px;"/>
  <path d="M10.5,18.85c-.3,0-.55.25-.55.55v1c0,.3.25.55.55.55s.55-.25.55-.55v-1c0-.3-.25-.55-.55-.55Z" style="fill: #606060; stroke-width: 0px;"/>
  <path d="M7.5,18.85c-.3,0-.55.25-.55.55v1c0,.3.25.55.55.55s.55-.25.55-.55v-1c0-.3-.25-.55-.55-.55Z" style="fill: #606060; stroke-width: 0px;"/>
  <path d="M4.6,12.95h-1c-.3,0-.55.25-.55.55s.25.55.55.55h1c.3,0,.55-.25.55-.55s-.25-.55-.55-.55Z" style="fill: #606060; stroke-width: 0px;"/>
  <path d="M4.6,9.95h-1c-.3,0-.55.25-.55.55s.25.55.55.55h1c.3,0,.55-.25.55-.55s-.25-.55-.55-.55Z" style="fill: #606060; stroke-width: 0px;"/>
  <path d="M4.6,15.95h-1c-.3,0-.55.25-.55.55s.25.55.55.55h1c.3,0,.55-.25.55-.55s-.25-.55-.55-.55Z" style="fill: #606060; stroke-width: 0px;"/>
  <path d="M20.4,12.95h-1c-.3,0-.55.25-.55.55s.25.55.55.55h1c.3,0,.55-.25.55-.55s-.25-.55-.55-.55Z" style="fill: #606060; stroke-width: 0px;"/>
  <path d="M20.4,9.95h-1c-.3,0-.55.25-.55.55s.25.55.55.55h1c.3,0,.55-.25.55-.55s-.25-.55-.55-.55Z" style="fill: #606060; stroke-width: 0px;"/>
  <path d="M4.6,6.95h-1c-.3,0-.55.25-.55.55s.25.55.55.55h1c.3,0,.55-.25.55-.55s-.25-.55-.55-.55Z" style="fill: #606060; stroke-width: 0px;"/>
  <path d="M19.4,8.05h1c.3,0,.55-.25.55-.55s-.25-.55-.55-.55h-1c-.3,0-.55.25-.55.55s.25.55.55.55Z" style="fill: #606060; stroke-width: 0px;"/>
  <path d="M20.4,15.95h-1c-.3,0-.55.25-.55.55s.25.55.55.55h1c.3,0,.55-.25.55-.55s-.25-.55-.55-.55Z" style="fill: #606060; stroke-width: 0px;"/>
</svg>