<?xml version="1.0" encoding="UTF-8"?>
<svg id="FL" xmlns="http://www.w3.org/2000/svg" viewBox="0 0 24 24">
  <path d="M21.4,14.15c-.36,0-.65-.29-.65-.65,0-1.85-1.5-3.35-3.35-3.35-.06,0-.12.01-.18.02l-.15.02c-.18.02-.36-.04-.5-.16-.14-.12-.21-.3-.21-.48,0-.03,0-.08,0-.11,0-2.32-1.96-4.28-4.35-4.28-.36,0-.65-.29-.65-.65s.29-.65.65-.65c2.9,0,5.29,2.19,5.61,5,2.47.11,4.44,2.15,4.44,4.65,0,.36-.29.65-.65.65Z"/>
  <path d="M15.4,20.15H5.6c-2.01,0-3.65-1.64-3.65-3.65,0-1.64,1.09-3.04,2.61-3.49-.14-.49-.21-1-.21-1.51,0-3.12,2.53-5.65,5.65-5.65,2.9,0,5.29,2.19,5.61,5,2.47.11,4.44,2.15,4.44,4.65,0,1.24-.48,2.41-1.36,3.29-.25.25-.67.25-.92,0-.25-.25-.25-.67,0-.92.63-.63.98-1.47.98-2.37,0-1.85-1.5-3.35-3.35-3.35-.06,0-.12.01-.18.02l-.15.02c-.18.02-.36-.04-.5-.16-.14-.12-.21-.3-.21-.48,0-.03,0-.08,0-.11,0-2.32-1.96-4.28-4.35-4.28s-4.35,1.95-4.35,4.35c0,.6.13,1.19.38,1.75.09.2.07.42-.04.6-.11.18-.3.3-.52.31-1.24.07-2.22,1.1-2.22,2.33s1.05,2.35,2.35,2.35h9.8c.36,0,.65.29.65.65s-.29.65-.65.65Z"/>
</svg>