<?xml version="1.0" encoding="UTF-8"?>
<svg id="HL" xmlns="http://www.w3.org/2000/svg" viewBox="0 0 24 24">
  <path d="M9.66,14.73c-.11,0-.2.04-.25.12-.05.07-.1.16-.13.26-.03.1-.07.19-.12.29-.04.09-.1.17-.17.23-.07.06-.16.09-.29.09-.14,0-.25-.04-.34-.11-.09-.08-.17-.18-.22-.31-.06-.13-.1-.27-.12-.42-.02-.15-.04-.3-.05-.45,0-.15-.01-.27-.01-.38s0-.23.01-.39c0-.15.02-.31.05-.48.02-.16.07-.31.12-.45.06-.14.13-.25.22-.33.09-.08.21-.12.35-.12.13,0,.23.03.29.08.07.05.12.12.15.2.03.08.06.17.09.26.03.09.06.17.11.24.05.07.14.11.25.11.2,0,.31-.11.31-.31,0-.21-.05-.42-.16-.6-.1-.18-.25-.33-.42-.44-.18-.11-.38-.17-.59-.17-.26,0-.48.05-.65.15-.17.1-.32.24-.42.41-.11.17-.19.36-.24.56-.06.21-.09.42-.11.63-.02.21-.03.42-.03.61s0,.39.03.6c.02.21.06.42.11.62.05.2.13.39.24.55.11.17.25.3.42.4.17.1.39.15.64.15.23,0,.43-.05.6-.15.17-.1.32-.25.43-.45.06-.1.11-.21.16-.34.05-.13.08-.26.08-.37,0-.2-.11-.31-.32-.31Z" style="fill: #66f;"/>
  <path d="M12.86,12.81c-.05-.21-.12-.4-.22-.57-.1-.17-.23-.32-.39-.42-.16-.11-.37-.16-.6-.16s-.46.05-.62.16c-.17.1-.3.25-.4.42-.1.17-.18.36-.23.57-.05.2-.08.42-.1.63-.02.21-.03.41-.03.59s0,.37.02.58c.02.21.05.42.1.62.05.21.12.39.22.56.1.17.23.31.4.42.17.1.37.16.62.16s.45-.05.61-.16c.16-.11.29-.25.39-.42.1-.17.17-.36.22-.57.05-.2.08-.41.1-.62.02-.21.02-.4.02-.58s0-.36-.02-.57c-.02-.21-.05-.42-.09-.62ZM12.3,14.46c-.01.19-.03.38-.07.56-.03.18-.08.33-.15.45-.1.17-.25.26-.45.26-.21,0-.36-.09-.46-.28-.06-.12-.11-.28-.14-.47-.03-.19-.05-.38-.06-.58,0-.2-.01-.37-.01-.5,0-.09,0-.21,0-.35,0-.14.02-.29.04-.44.02-.15.06-.29.11-.42.05-.13.12-.23.2-.31.08-.08.18-.11.31-.11s.24.04.32.12c.09.08.16.19.21.32s.09.29.11.44c.02.16.04.31.04.45,0,.14,0,.26,0,.36,0,.14,0,.3-.02.49Z" style="fill: #66f;"/>
  <path d="M14.55,17.92h-.78c.05-.06.1-.12.16-.19.09-.1.18-.22.28-.34.1-.12.19-.25.27-.38.08-.13.15-.26.2-.39.05-.13.08-.26.08-.38,0-.14-.03-.26-.1-.36-.07-.1-.15-.18-.26-.24-.11-.06-.23-.08-.36-.08-.16,0-.3.04-.41.11-.12.07-.21.18-.28.33-.02.04-.04.09-.05.14-.02.05-.02.1-.02.15,0,.14.08.22.22.22.08,0,.13-.03.17-.08.03-.04.05-.1.07-.16.01-.05.03-.11.05-.16.02-.05.04-.09.08-.12.04-.03.1-.04.18-.04.06,0,.12.02.16.05.04.03.08.08.1.13.02.06.03.11.03.17,0,.1-.03.21-.07.32-.05.12-.12.23-.2.35-.08.12-.17.23-.26.34-.09.11-.18.21-.26.31-.09.1-.15.18-.2.25-.06.08-.09.14-.09.2,0,.09.03.16.09.19.05.04.12.05.2.05h1.03c.06,0,.11-.01.15-.04.03-.02.07-.06.07-.15s-.04-.13-.07-.15c-.04-.02-.09-.04-.15-.04Z" style="fill: #66f;"/>
</svg>