<?xml version="1.0" encoding="UTF-8"?>
<svg id="FF" xmlns="http://www.w3.org/2000/svg" viewBox="0 0 24 24">
  <path d="M12.36,13.14c-.02-.16-.06-.32-.12-.46-.06-.15-.13-.27-.23-.36-.1-.1-.23-.15-.39-.15s-.28.05-.38.14c-.09.09-.17.2-.23.34-.05.14-.09.28-.12.44-.02.16-.04.31-.04.45,0,.14,0,.26,0,.35,0,.14,0,.31.01.51,0,.2.03.4.06.59.03.2.09.36.15.49.11.22.3.33.55.33s.42-.1.54-.31c.08-.13.13-.29.17-.48.03-.19.06-.38.07-.57.01-.19.02-.36.02-.5,0-.1,0-.22,0-.37,0-.15-.02-.3-.04-.46Z"/>
  <path d="M15.52,10.95c-.28-2.8-2.65-5-5.52-5-3.06,0-5.55,2.49-5.55,5.55,0,.54.08,1.07.23,1.58-1.52.4-2.63,1.79-2.63,3.42,0,1.96,1.59,3.55,3.55,3.55h9.8c2.51,0,4.55-2.04,4.55-4.55s-1.97-4.48-4.43-4.55ZM9.81,15.38c-.05.12-.1.23-.15.33-.1.18-.23.32-.39.41-.16.09-.34.13-.55.13-.23,0-.43-.05-.59-.14-.16-.09-.29-.21-.39-.37-.1-.15-.18-.33-.23-.52-.05-.2-.09-.4-.11-.6-.02-.21-.03-.4-.03-.59s0-.39.03-.6c.02-.21.06-.42.11-.62.05-.2.13-.38.23-.54.1-.16.23-.28.39-.38.16-.09.36-.14.6-.14.2,0,.38.05.54.15.16.1.29.24.39.4.09.17.14.35.14.55,0,.14-.07.21-.21.21-.08,0-.13-.02-.16-.07-.04-.06-.07-.13-.1-.21-.03-.09-.06-.18-.09-.27-.04-.09-.1-.17-.18-.24-.08-.07-.2-.1-.36-.1-.17,0-.31.05-.42.15-.1.09-.19.22-.25.37-.06.15-.1.31-.13.48-.03.17-.04.33-.05.49,0,.15-.01.29-.01.39s0,.23.01.38c0,.15.02.3.05.46.03.16.07.31.13.45.06.14.14.26.25.35.11.09.24.14.41.14.15,0,.27-.04.35-.11.08-.07.15-.16.19-.27.05-.1.09-.2.12-.3.03-.09.07-.17.12-.23.04-.05.1-.08.17-.08.15,0,.22.07.22.21,0,.1-.02.22-.07.34ZM12.86,14.57c-.02.2-.05.41-.1.61-.05.2-.12.38-.21.54-.09.16-.21.29-.36.39-.15.1-.33.14-.56.14s-.41-.05-.56-.14c-.15-.09-.27-.22-.36-.38-.09-.16-.16-.34-.21-.54-.05-.2-.08-.4-.1-.6-.02-.2-.02-.4-.02-.57s0-.37.03-.58c.02-.21.05-.41.1-.61.05-.2.12-.38.21-.54.09-.16.22-.29.37-.38.15-.1.34-.14.57-.14s.4.05.55.14c.15.1.27.23.36.39.09.16.16.35.21.54.05.2.08.4.09.6.02.2.02.39.02.56s0,.37-.02.57ZM14.55,18.02s.07,0,.09.02c0,0,.02.02.02.06s-.02.06-.02.06c-.02.01-.06.02-.09.02h-1.03c-.06,0-.1-.01-.14-.04-.01,0-.04-.03-.04-.11,0-.02,0-.06.07-.14.05-.07.12-.15.2-.24.08-.09.17-.2.26-.31s.18-.23.26-.34c.08-.12.15-.24.21-.36.05-.12.08-.25.08-.36,0-.07-.01-.15-.04-.21-.03-.07-.07-.12-.13-.17-.06-.05-.13-.07-.22-.07-.11,0-.19.02-.24.07-.05.04-.09.1-.11.16-.02.06-.04.12-.05.17-.01.05-.03.09-.05.12-.01.02-.03.04-.09.04-.08,0-.12-.03-.12-.12,0-.04,0-.08.02-.12.01-.04.03-.09.05-.12.06-.13.14-.22.24-.28.1-.06.22-.09.36-.09.12,0,.22.02.32.07.09.05.17.12.22.2.05.09.08.19.08.31,0,.11-.02.22-.07.34-.05.12-.12.25-.2.37-.08.12-.17.25-.26.37-.1.12-.19.23-.28.33-.07.08-.13.15-.19.22l-.12.14h1Z"/>
</svg>