<?xml version="1.0" encoding="UTF-8"?>
<svg id="TL" xmlns="http://www.w3.org/2000/svg" viewBox="0 0 24 24">
  <path d="M20.4,12.54c-.17,0-.33-.06-.46-.19l-7.34-7.34c-.33-.33-.87-.33-1.2,0l-7.34,7.34c-.25.25-.67.25-.92,0s-.25-.67,0-.92l7.34-7.34c.81-.81,2.23-.81,3.04,0l7.34,7.34c.25.25.25.67,0,.92-.13.13-.29.19-.46.19Z"/>
  <path d="M20.4,20.54c-.17,0-.33-.06-.46-.19l-7.34-7.34c-.33-.33-.87-.33-1.2,0l-7.34,7.34c-.25.25-.67.25-.92,0s-.25-.67,0-.92l7.34-7.34c.81-.81,2.23-.81,3.04,0l7.34,7.34c.25.25.25.67,0,.92-.13.13-.29.19-.46.19Z"/>
</svg>