<?xml version="1.0" encoding="UTF-8"?>
<svg id="TF" xmlns="http://www.w3.org/2000/svg" viewBox="0 0 24 24">
  <path d="M7.15,8.15h11.75c1.13,0,2.05-.92,2.05-2.05v-1c0-1.13-.92-2.05-2.05-2.05H5.1c-1.13,0-2.05.92-2.05,2.05v1c0,1.13.92,2.05,2.05,2.05h.95v10.25c0,.3.25.55.55.55h2.26c.03,1.11.93,2,2.04,2h8c1.13,0,2.05-.92,2.05-2.05v-1c0-1.13-.92-2.05-2.05-2.05h-8c-1.11,0-2.02.89-2.04,2h-1.71v-5.3h1.71c.03,1.11.93,2,2.04,2h8c1.13,0,2.05-.92,2.05-2.05v-1c0-1.13-.92-2.05-2.05-2.05h-8c-1.11,0-2.02.89-2.04,2h-1.71v-3.3Z" style="fill: #404040; stroke-width: 0px;"/>
</svg>