<?xml version="1.0" encoding="UTF-8"?>
<svg id="HL" xmlns="http://www.w3.org/2000/svg" viewBox="0 0 24 24">
  <path d="M14.09,16.64c-.19,0-.33-.06-.41-.19-.08-.12-.11-.26-.11-.43v-6.55l-1.05,6.64c-.02.13-.08.25-.15.36-.08.11-.2.17-.37.17s-.29-.05-.36-.15c-.07-.1-.12-.22-.14-.35l-1.06-6.65v6.55c0,.17-.04.31-.11.42-.08.12-.21.19-.41.19s-.33-.06-.41-.19c-.08-.12-.11-.26-.11-.43v-7.63c0-.29.06-.54.18-.73.13-.21.36-.31.69-.31.27,0,.46.09.59.25.12.16.19.36.23.6l.92,5.64.92-5.64c.04-.23.12-.43.24-.6.12-.17.32-.25.58-.25.33,0,.56.11.68.32.12.2.18.45.18.73v7.63c0,.17-.04.31-.11.42-.08.12-.21.19-.41.19Z" style="fill: #66f;"/>
</svg>