<?xml version="1.0" encoding="UTF-8"?>
<svg id="TL" xmlns="http://www.w3.org/2000/svg" viewBox="0 0 24 24">
  <path d="M13.68,16.46c.08.12.22.19.41.19s.34-.06.41-.19c.07-.12.11-.26.11-.42v-7.63c0-.28-.06-.53-.18-.73-.12-.21-.35-.32-.68-.32-.27,0-.46.09-.58.25-.12.16-.2.36-.24.6l-.92,5.64-.92-5.64c-.03-.23-.11-.43-.23-.6-.12-.17-.32-.25-.59-.25-.33,0-.56.1-.69.31-.12.2-.18.45-.18.73v7.63c0,.17.04.31.11.43.08.12.22.19.41.19s.34-.06.41-.19c.07-.12.11-.26.11-.42v-6.55l1.06,6.65c.02.14.07.26.14.35.08.1.2.15.36.15s.29-.06.37-.17c.07-.1.12-.22.15-.36l1.05-6.64v6.55c0,.17.04.31.11.43Z"/>
  <path d="M18.9,2.95H5.1c-1.19,0-2.15.96-2.15,2.15v13.8c0,1.19.96,2.15,2.15,2.15h11.8c.36,0,.65-.29.65-.65s-.29-.65-.65-.65H5.1c-.47,0-.85-.38-.85-.85V5.1c0-.47.38-.85.85-.85h13.8c.47,0,.85.38.85.85v11.8c0,.36.29.65.65.65s.65-.29.65-.65V5.1c0-1.19-.96-2.15-2.15-2.15Z"/>
</svg>