<?xml version="1.0" encoding="UTF-8"?>
<svg id="FF" xmlns="http://www.w3.org/2000/svg" viewBox="0 0 24 24">
  <path d="M11.05,15.48h.61c.36,0,.68-.05.96-.14.29-.1.52-.26.68-.49.17-.23.25-.55.25-.94s-.09-.73-.26-.97-.41-.41-.7-.51c-.29-.1-.62-.15-.98-.15h-1.07v2.69c0,.34.18.52.52.52Z"/>
  <path d="M13.22,12c.38.16.7.36.92.63.28.36.43.84.43,1.43,0,.5-.11.93-.34,1.27s-.53.6-.92.78c-.39.18-.83.27-1.31.27h-1.48c-.27,0-.51-.1-.7-.28-.19-.19-.29-.42-.29-.7v-3.4H3.05v6.9c0,1.13.92,2.05,2.05,2.05h13.8c1.13,0,2.05-.92,2.05-2.05v-6.9h-7.73Z"/>
</svg>