<?xml version="1.0" encoding="UTF-8"?>
<svg id="FF" xmlns="http://www.w3.org/2000/svg" viewBox="0 0 24 24">
  <polygon points="12.05 14.16 12.4 12 11.6 12 11.95 14.16 12.05 14.16"/>
  <path d="M14.5,12v4.03c0,.15-.03.27-.09.37-.06.09-.16.14-.33.14s-.26-.05-.32-.14c-.06-.1-.1-.23-.1-.37v-4.03h-.6l-.65,4.1c-.02.12-.07.22-.13.31-.06.08-.15.13-.29.13s-.23-.04-.28-.11c-.06-.08-.1-.19-.13-.31l-.66-4.12h-.6v4.03c0,.15-.03.27-.09.37-.06.09-.16.14-.33.14s-.26-.05-.32-.14c-.06-.1-.1-.23-.1-.37v-4.03H3.05v6.9c0,1.13.92,2.05,2.05,2.05h13.8c1.13,0,2.05-.92,2.05-2.05v-6.9h-6.44Z"/>
</svg>