<?xml version="1.0" encoding="UTF-8"?>
<svg id="TL" xmlns="http://www.w3.org/2000/svg" viewBox="0 0 24 24">
  <path d="M18.9,2.95H5.1c-1.19,0-2.15.96-2.15,2.15v13.8c0,1.19.96,2.15,2.15,2.15h11.8c.36,0,.65-.29.65-.65s-.29-.65-.65-.65H5.1c-.47,0-.85-.38-.85-.85V5.1c0-.47.38-.85.85-.85h13.8c.47,0,.85.38.85.85v11.8c0,.36.29.65.65.65s.65-.29.65-.65V5.1c0-1.19-.96-2.15-2.15-2.15Z"/>
  <path d="M14.03,11.03c.26-.36.4-.82.4-1.35,0-.6-.13-1.06-.39-1.37-.26-.31-.6-.52-1.02-.63-.42-.11-.88-.16-1.38-.16h-1.11c-.29,0-.55.11-.77.32s-.33.47-.33.76v6.8c0,.3.11.56.32.77s.47.31.77.31h1.48c.5,0,.95-.09,1.35-.27.4-.18.72-.46.96-.81s.35-.81.35-1.33c0-.61-.15-1.11-.45-1.49-.27-.35-.67-.61-1.18-.78.43-.18.77-.44,1-.77ZM13.21,13c.16.22.24.53.24.91s-.08.67-.23.88-.37.37-.63.46c-.27.09-.58.14-.93.14h-.61c-.29,0-.42-.13-.42-.42v-2.59h.97c.35,0,.67.05.95.14.27.09.49.25.66.47ZM12.76,10.93c-.31.23-.71.35-1.21.35h-.92v-2.25c0-.13.04-.23.11-.31.07-.08.17-.11.3-.11h.76c.45,0,.8.08,1.05.24.24.16.36.48.36.96,0,.51-.15.89-.46,1.11Z"/>
</svg>