<?xml version="1.0" encoding="UTF-8"?>
<svg id="FL" xmlns="http://www.w3.org/2000/svg" viewBox="0 0 24 24">
  <path d="M17.9,21.05h-7c-1.19,0-2.15-.96-2.15-2.15v-1c0-1.19.96-2.15,2.15-2.15h8c1.19,0,2.15.96,2.15,2.15,0,.36-.29.65-.65.65s-.65-.29-.65-.65c0-.47-.38-.85-.85-.85h-8c-.47,0-.85.38-.85.85v1c0,.47.38.85.85.85h7c.36,0,.65.29.65.65s-.29.65-.65.65Z" style="fill: #000; stroke-width: 0px;"/>
  <path d="M18.9,14.65h-8c-1.19,0-2.15-.96-2.15-2.15v-1c0-1.19.96-2.15,2.15-2.15h8c1.19,0,2.15.96,2.15,2.15v1c0,1.19-.96,2.15-2.15,2.15ZM10.9,10.65c-.47,0-.85.38-.85.85v1c0,.47.38.85.85.85h8c.47,0,.85-.38.85-.85v-1c0-.47-.38-.85-.85-.85h-8Z" style="fill: #000; stroke-width: 0px;"/>
  <path d="M18.9,8.25H5.1c-1.19,0-2.15-.96-2.15-2.15v-1c0-1.19.96-2.15,2.15-2.15h13.8c1.19,0,2.15.96,2.15,2.15v1c0,1.19-.96,2.15-2.15,2.15ZM5.1,4.25c-.47,0-.85.38-.85.85v1c0,.47.38.85.85.85h13.8c.47,0,.85-.38.85-.85v-1c0-.47-.38-.85-.85-.85H5.1Z" style="fill: #000; stroke-width: 0px;"/>
</svg>