<?xml version="1.0" encoding="UTF-8"?>
<svg id="TF" xmlns="http://www.w3.org/2000/svg" viewBox="0 0 24 24">
  <path d="M18.9,3.05H5.1c-1.13,0-2.05.92-2.05,2.05v13.8c0,1.13.92,2.05,2.05,2.05h13.8c1.13,0,2.05-.92,2.05-2.05V5.1c0-1.13-.92-2.05-2.05-2.05ZM14.5,16.03c0,.15-.03.27-.09.37-.06.09-.16.14-.33.14s-.26-.05-.32-.14c-.06-.1-.1-.23-.1-.37v-7.18h-.1s-1.15,7.26-1.15,7.26c-.02.12-.07.22-.13.31-.06.08-.15.13-.29.13s-.23-.04-.28-.11c-.06-.08-.1-.19-.13-.31l-1.16-7.28h-.1v7.19c0,.15-.03.27-.09.37-.06.09-.16.14-.33.14s-.26-.05-.32-.14c-.06-.1-.1-.23-.1-.37v-7.63c0-.27.06-.5.17-.68.11-.18.31-.26.6-.26.24,0,.4.07.5.21.11.15.18.33.21.55l.97,5.94h.1l.97-5.94c.04-.22.11-.4.22-.55.1-.14.27-.21.5-.21.3,0,.49.09.6.27.11.19.16.42.16.68v7.63Z" style="fill: #333;"/>
</svg>