<?xml version="1.0" encoding="UTF-8"?>
<svg id="TF" xmlns="http://www.w3.org/2000/svg" viewBox="0 0 24 24">
  <path d="M12.58,12.43c-.29-.1-.62-.15-.98-.15h-1.07v2.69c0,.34.18.52.52.52h.61c.36,0,.68-.05.96-.14.29-.1.52-.26.68-.49.17-.23.25-.55.25-.94s-.09-.73-.26-.97-.41-.41-.7-.51Z" style="fill: #333;"/>
  <path d="M12.82,11.01c.33-.25.49-.65.49-1.19,0-.52-.14-.87-.41-1.04-.27-.17-.64-.26-1.11-.26h-.76c-.15,0-.28.05-.37.14-.09.1-.14.22-.14.37v2.35h1.02c.52,0,.94-.12,1.27-.37Z" style="fill: #333;"/>
  <path d="M18.9,3.05H5.1c-1.13,0-2.05.92-2.05,2.05v13.8c0,1.13.92,2.05,2.05,2.05h13.8c1.13,0,2.05-.92,2.05-2.05V5.1c0-1.13-.92-2.05-2.05-2.05ZM14.23,15.34c-.22.34-.53.6-.92.78-.39.18-.83.27-1.31.27h-1.48c-.27,0-.51-.1-.7-.28-.19-.19-.29-.42-.29-.7v-6.8c0-.27.1-.5.3-.69.2-.19.43-.29.7-.29h1.11c.49,0,.95.05,1.36.16.4.1.73.3.97.59.24.29.36.73.36,1.31,0,.51-.13.94-.38,1.29-.25.35-.62.61-1.09.79l-.14.05.15.04c.56.16.98.42,1.27.79.28.36.43.84.43,1.43,0,.5-.11.93-.34,1.27Z" style="fill: #333;"/>
</svg>