<?xml version="1.0" encoding="UTF-8"?>
<svg id="TF" xmlns="http://www.w3.org/2000/svg" viewBox="0 0 24 24">
  <path d="M18.9,3.05H5.1c-1.13,0-2.05.92-2.05,2.05v13.8c0,1.13.92,2.05,2.05,2.05h13.8c1.13,0,2.05-.92,2.05-2.05V5.1c0-1.13-.92-2.05-2.05-2.05ZM14.47,8.45c-.11.07-.25.1-.42.1h-2.99c-.34,0-.52.18-.52.52v2.44h2.94c.17,0,.31.04.42.1.1.06.15.18.15.36s-.05.3-.15.36c-.11.07-.25.1-.42.1h-2.94v3.47c0,.18-.04.34-.12.46-.07.11-.2.17-.4.17s-.32-.06-.39-.17c-.07-.12-.11-.28-.11-.46v-7.41c0-.24.09-.45.26-.63.17-.18.37-.26.62-.26h3.64c.17,0,.31.04.42.1.1.06.15.18.15.36s-.05.3-.15.36Z" style="fill: #333;"/>
</svg>