<?xml version="1.0" encoding="UTF-8"?>
<svg id="TL" xmlns="http://www.w3.org/2000/svg" viewBox="0 0 24 24">
  <path d="M11.06,8.65h2.99c.19,0,.35-.04.47-.12.13-.08.2-.23.2-.45s-.07-.36-.2-.45c-.12-.08-.28-.12-.47-.12h-3.64c-.27,0-.5.1-.69.29-.19.19-.28.43-.28.7v7.41c0,.2.04.37.12.51.09.15.25.22.48.22s.39-.07.48-.22c.09-.14.13-.31.13-.51v-3.37h2.84c.19,0,.35-.04.47-.12.13-.08.2-.23.2-.45s-.07-.36-.2-.45c-.12-.08-.28-.12-.47-.12h-2.84v-2.34c0-.29.13-.42.42-.42Z"/>
  <path d="M18.9,2.95H5.1c-1.19,0-2.15.96-2.15,2.15v13.8c0,1.19.96,2.15,2.15,2.15h11.8c.36,0,.65-.29.65-.65s-.29-.65-.65-.65H5.1c-.47,0-.85-.38-.85-.85V5.1c0-.47.38-.85.85-.85h13.8c.47,0,.85.38.85.85v11.8c0,.36.29.65.65.65s.65-.29.65-.65V5.1c0-1.19-.96-2.15-2.15-2.15Z"/>
</svg>