<?xml version="1.0" encoding="UTF-8"?>
<svg id="HF" xmlns="http://www.w3.org/2000/svg" viewBox="0 0 24 24">
  <polygon points="10.33 8.85 10.33 12 10.94 12 10.43 8.84 10.33 8.85" style="fill: #999;"/>
  <path d="M18.9,3.05H5.1c-1.13,0-2.05.92-2.05,2.05v6.9h6.45v-3.6c0-.27.06-.5.17-.68.11-.18.31-.26.6-.26.24,0,.4.07.5.21.11.15.18.33.21.55l.62,3.78h.81l.62-3.78c.04-.22.11-.4.22-.55.1-.14.27-.21.5-.21.3,0,.49.09.6.27.11.19.16.42.16.68v3.6h6.44v-6.9c0-1.13-.92-2.05-2.05-2.05Z" style="fill: #999;"/>
  <polygon points="13.07 12 13.67 12 13.67 8.85 13.57 8.84 13.07 12" style="fill: #999;"/>
</svg>