<?xml version="1.0" encoding="UTF-8"?>
<svg id="HF" xmlns="http://www.w3.org/2000/svg" viewBox="0 0 24 24">
  <path d="M13.32,9.82c0-.52-.14-.87-.41-1.04-.27-.17-.64-.26-1.11-.26h-.76c-.15,0-.28.05-.37.14-.09.1-.14.22-.14.37v2.35h1.02c.52,0,.94-.12,1.27-.37.33-.25.49-.65.49-1.19Z" style="fill: #999;"/>
  <path d="M18.9,3.05H5.1c-1.13,0-2.05.92-2.05,2.05v6.9h6.48v-3.4c0-.27.1-.5.3-.69.2-.19.43-.29.7-.29h1.11c.49,0,.95.05,1.36.16.4.1.73.3.97.59.24.29.36.73.36,1.31,0,.51-.13.94-.38,1.29-.25.35-.62.61-1.09.79l-.14.05.15.04c.13.04.23.1.35.15h7.73v-6.9c0-1.13-.92-2.05-2.05-2.05Z" style="fill: #999;"/>
</svg>