<?xml version="1.0" encoding="UTF-8"?>
<svg id="TF" xmlns="http://www.w3.org/2000/svg" version="1.1" viewBox="0 0 24 24">
  <!-- Generator: Adobe Illustrator 29.2.1, SVG Export Plug-In . SVG Version: 2.1.0 Build 116)  -->
  <defs>
    <style>
      .st0 {
        fill: #404040;
      }
    </style>
  </defs>
  <rect class="st0" x="2" y="6.4" width="4.1" height="11.1" rx=".6" ry=".6"/>
  <rect class="st0" x="17.8" y="6.4" width="4.1" height="11.1" rx=".6" ry=".6"/>
  <path class="st0" d="M2.6,5.6h18.8c.3,0,.5-.2.5-.6s-.2-.6-.5-.6H2.6c-.3,0-.5.2-.5.6s.2.6.5.6Z"/>
  <path class="st0" d="M21.4,18.5H2.6c-.3,0-.5.2-.5.5s.2.5.5.5h18.8c.3,0,.5-.2.5-.5s-.2-.5-.5-.5Z"/>
</svg>