<?xml version="1.0" encoding="UTF-8"?>
<svg id="TL" xmlns="http://www.w3.org/2000/svg" version="1.1" viewBox="0 0 24 24">
  <!-- Generator: Adobe Illustrator 29.2.1, SVG Export Plug-In . SVG Version: 2.1.0 Build 116)  -->
  <path d="M5.6,17.6h-3c-.4,0-.6-.3-.6-.6V7c0-.4.3-.7.6-.7h3c.4,0,.7.3.7.7v10c0,.4-.3.6-.7.6ZM3.2,16.4h1.7V7.7h-1.7s0,8.7,0,8.7Z"/>
  <path d="M21.4,17.6h-3c-.4,0-.6-.3-.6-.6V7c0-.4.3-.7.6-.7h3c.4,0,.6.3.6.7v10c0,.4-.3.6-.6.6ZM19,16.4h1.7V7.7h-1.7v8.7Z"/>
  <path d="M21.4,5.7H2.6c-.4,0-.6-.3-.6-.7s.3-.7.6-.7h18.8c.4,0,.6.3.6.7s-.3.7-.6.7Z"/>
  <path d="M21.4,19.6H2.6c-.4,0-.6-.3-.6-.6s.3-.6.6-.6h18.8c.4,0,.6.3.6.6s-.3.6-.6.6Z"/>
</svg>