<?xml version="1.0" encoding="UTF-8"?>
<svg id="HF" xmlns="http://www.w3.org/2000/svg" viewBox="0 0 24 24">
  <path d="M11.53,14.95c.36-.42.74-.87,1.11-1.35.38-.48.74-.98,1.06-1.49.32-.51.59-1.02.8-1.52.2-.5.3-.98.3-1.42,0-.51-.12-.95-.35-1.32-.24-.37-.56-.66-.95-.86-.4-.21-.85-.31-1.34-.31-.58,0-1.09.13-1.53.4-.43.26-.78.67-1.03,1.2-.07.16-.14.33-.2.51-.06.18-.09.35-.09.53,0,.42.2.62.62.62.22,0,.38-.07.47-.2.1-.14.18-.33.22-.55.05-.23.11-.46.19-.68.08-.23.22-.43.41-.58.19-.16.48-.24.87-.24.31,0,.57.08.78.24.21.16.36.37.47.62.1.25.15.51.15.79,0,.44-.11.91-.32,1.39-.21.48-.48.96-.81,1.42-.32.46-.68.93-1.04,1.37s-.72.86-1.04,1.23c-.33.38-.6.71-.8.99-.2.27-.3.49-.3.64,0,.28.08.46.24.57.16.11.38.17.64.17h4.12c.18,0,.33-.04.45-.11.11-.07.17-.19.17-.39s-.05-.32-.17-.39c-.12-.07-.27-.11-.45-.11h-3.66l.07-.08c.26-.31.58-.67.94-1.09Z" style="fill: #999;"/>
</svg>