<?xml version="1.0" encoding="UTF-8"?>
<svg id="FF" xmlns="http://www.w3.org/2000/svg" viewBox="0 0 24 24">
  <path d="M7.2,8.43c-.29-.47-.68-.85-1.18-1.13-.5-.28-1.14-.42-1.91-.42h-.98c-.28,0-.51.1-.72.31-.2.21-.3.45-.3.73v8.15c0,.29.1.53.3.74.2.21.44.31.73.31h1.33c.72,0,1.31-.15,1.76-.46.46-.3.82-.71,1.07-1.21.26-.5.44-1.06.54-1.67.1-.6.15-1.21.15-1.8,0-.67-.06-1.31-.18-1.93-.12-.61-.32-1.15-.61-1.63ZM6.67,13.28c-.06.47-.18.92-.35,1.33-.17.41-.43.75-.76,1.01-.33.26-.79.39-1.34.39h-.38c-.18,0-.32-.06-.41-.18-.09-.12-.13-.26-.13-.41v-6.84c0-.16.04-.31.13-.42.09-.12.22-.18.4-.18h.45c.53,0,.96.13,1.29.39.33.26.58.59.75.99.17.4.29.83.35,1.28.06.45.09.89.09,1.3s-.03.87-.09,1.34Z"/>
  <path d="M21.5,12.73c-.33-.42-.83-.73-1.49-.92l-.15-.04.14-.05c.55-.21.98-.51,1.28-.92.29-.4.44-.91.44-1.51,0-.68-.14-1.19-.43-1.53-.28-.34-.67-.57-1.14-.69-.48-.12-1.01-.18-1.59-.18h-1.3c-.31,0-.59.11-.82.34s-.35.5-.35.81v7.93c0,.32.11.6.34.82.23.22.5.33.83.33h1.72c.57,0,1.08-.1,1.53-.31.45-.21.81-.51,1.07-.91.26-.4.4-.9.4-1.49,0-.69-.17-1.25-.5-1.67ZM17.3,8.54c0-.18.05-.32.16-.43.11-.11.25-.17.43-.17h.89c.54,0,.98.1,1.29.3.31.21.47.61.47,1.21,0,.63-.19,1.1-.57,1.39-.38.28-.87.43-1.47.43h-1.18v-2.73ZM20.51,15.32c-.19.27-.46.46-.79.57-.33.11-.7.17-1.12.17h-.71c-.39,0-.6-.21-.6-.6v-3.13h1.24c.42,0,.81.06,1.14.17.34.12.62.32.82.59.2.28.3.66.3,1.13s-.1.82-.29,1.09Z"/>
</svg>