<?xml version="1.0" encoding="UTF-8"?>
<svg id="HL" xmlns="http://www.w3.org/2000/svg" viewBox="0 0 24 24">
  <path d="M12.72,13.67c.38-.48.74-.99,1.07-1.5.33-.51.6-1.03.8-1.54.21-.51.31-1,.31-1.46,0-.53-.12-.99-.37-1.37-.24-.38-.58-.69-.99-.9-.41-.21-.88-.32-1.38-.32-.6,0-1.13.14-1.58.41-.45.27-.81.69-1.07,1.25-.07.16-.14.34-.2.52-.06.19-.09.38-.09.56,0,.48.24.72.72.72.25,0,.44-.08.55-.25.11-.16.19-.35.24-.58.05-.22.11-.45.19-.67.07-.21.2-.39.37-.54.17-.14.44-.21.8-.21.29,0,.53.07.72.22.19.15.34.34.44.57.1.23.15.49.15.75,0,.43-.1.88-.31,1.35-.21.47-.48.94-.8,1.41-.32.46-.67.92-1.04,1.36-.37.44-.72.86-1.04,1.23-.33.38-.6.71-.81.99-.22.29-.32.52-.32.7,0,.31.09.53.28.66.18.12.42.19.7.19h4.12c.2,0,.37-.04.5-.12.14-.09.22-.25.22-.47s-.07-.39-.22-.47c-.14-.08-.3-.12-.5-.12h-3.45c.25-.29.54-.63.87-1,.36-.42.74-.87,1.12-1.35Z" style="fill: #66f;"/>
</svg>