<?xml version="1.0" encoding="UTF-8"?>
<svg id="TL" xmlns="http://www.w3.org/2000/svg" viewBox="0 0 24 24">
  <path d="M7.29,8.38c-.3-.49-.7-.88-1.21-1.17-.51-.29-1.17-.43-1.96-.43h-.98c-.3,0-.57.12-.79.34-.22.23-.33.5-.33.8v8.15c0,.31.11.59.33.81.22.22.49.34.8.34h1.33c.74,0,1.35-.16,1.82-.47.47-.31.84-.73,1.1-1.25.26-.51.44-1.08.54-1.7.1-.61.15-1.22.15-1.81,0-.67-.06-1.33-.18-1.94-.12-.62-.33-1.18-.62-1.66ZM6.57,13.27c-.06.47-.17.9-.34,1.3-.17.4-.41.72-.73.97-.32.25-.75.37-1.28.37h-.38c-.15,0-.26-.05-.33-.14-.08-.1-.11-.22-.11-.35v-6.84c0-.14.04-.26.11-.36.07-.09.17-.14.32-.14h.45c.51,0,.92.12,1.23.37.31.24.56.56.72.95.17.39.28.81.34,1.26.06.44.09.88.09,1.29s-.03.86-.09,1.33Z"/>
  <path d="M12.72,13.67c.38-.48.74-.99,1.07-1.5.33-.51.6-1.03.8-1.54.21-.51.31-1,.31-1.46,0-.53-.12-.99-.37-1.37-.24-.38-.58-.69-.99-.9-.41-.21-.88-.32-1.38-.32-.6,0-1.13.14-1.58.41-.45.27-.81.69-1.07,1.25-.07.16-.14.33-.2.52-.06.19-.09.38-.09.56,0,.47.25.72.72.72.25,0,.44-.08.55-.25.11-.16.19-.35.24-.58.05-.22.11-.45.19-.67.07-.21.2-.39.38-.54.17-.14.44-.21.8-.21.29,0,.53.07.72.22.19.15.34.34.44.57.1.23.15.49.15.75,0,.43-.1.88-.31,1.35-.21.47-.48.94-.8,1.41-.32.46-.67.92-1.04,1.36-.36.43-.71.85-1.04,1.23-.32.37-.6.71-.81.99-.22.29-.32.52-.32.7,0,.31.09.53.28.66.18.12.42.19.7.19h4.12c.2,0,.37-.04.5-.12.14-.09.22-.25.22-.47s-.07-.39-.22-.47c-.14-.08-.3-.12-.5-.12h-3.45c.25-.29.54-.63.87-1,.36-.41.73-.86,1.12-1.35Z"/>
  <path d="M21.58,12.67c-.32-.41-.79-.72-1.4-.91.51-.21.91-.51,1.19-.9.31-.42.46-.95.46-1.57,0-.7-.15-1.24-.45-1.6-.3-.36-.7-.6-1.19-.73-.49-.12-1.03-.19-1.61-.19h-1.3c-.34,0-.64.12-.89.37-.25.25-.38.54-.38.88v7.93c0,.35.12.65.37.89s.55.36.9.36h1.72c.58,0,1.11-.11,1.57-.32.47-.21.84-.53,1.12-.95.27-.42.41-.94.41-1.54,0-.71-.18-1.29-.52-1.73ZM17.4,8.54c0-.15.04-.27.13-.36.09-.09.2-.14.35-.14h.89c.53,0,.94.1,1.23.29.28.19.43.56.43,1.13,0,.6-.18,1.04-.53,1.31-.36.27-.83.41-1.41.41h-1.08v-2.63ZM20.43,15.26c-.18.25-.43.43-.74.54-.32.11-.68.16-1.08.16h-.71c-.34,0-.5-.16-.5-.5v-3.03h1.14c.41,0,.79.06,1.11.17.32.11.58.3.77.56.19.26.28.62.28,1.07s-.09.78-.27,1.03Z"/>
</svg>