<?xml version="1.0" encoding="UTF-8"?>
<svg id="TF" xmlns="http://www.w3.org/2000/svg" viewBox="0 0 24 24">
  <path d="M19.5,5.05h-4.01c-.27-1.7-1.73-3-3.49-3s-3.23,1.3-3.49,3h-4.01c-.3,0-.55.25-.55.55s.25.55.55.55h15c.3,0,.55-.25.55-.55s-.25-.55-.55-.55ZM9.62,5.05c.25-1.09,1.22-1.9,2.38-1.9s2.13.81,2.38,1.9h-4.77Z" style="fill: #404040; stroke-width: 0px;"/>
  <path d="M18,8.05h-3.44l-.26,10.36c0,.3-.25.54-.55.54h-.01c-.3,0-.54-.26-.54-.56l.26-10.34h-2.93l.26,10.34c0,.3-.23.56-.54.56h-.01c-.3,0-.54-.24-.55-.54l-.26-10.36h-3.44c-.15,0-.3.06-.4.18-.1.11-.16.26-.14.42l.89,11.42c.08,1.06.98,1.89,2.04,1.89h7.23c1.06,0,1.96-.83,2.04-1.89l.89-11.42c.01-.15-.04-.3-.14-.42-.1-.11-.25-.18-.4-.18Z" style="fill: #404040; stroke-width: 0px;"/>
</svg>