<?xml version="1.0" encoding="UTF-8"?>
<svg id="FL" xmlns="http://www.w3.org/2000/svg" viewBox="0 0 24 24">
  <path d="M18.05,7.95c-.35-.03-.67.24-.7.6l-.89,11.42c-.03.44-.41.78-.85.78h-7.23c-.44,0-.81-.34-.85-.78l-.89-11.42c-.03-.36-.35-.63-.7-.6-.36.03-.62.34-.6.7l.89,11.42c.09,1.11,1.03,1.98,2.14,1.98h7.23c1.11,0,2.06-.87,2.14-1.98l.89-11.42c.03-.36-.24-.67-.6-.7Z" style="fill: #000; stroke-width: 0px;"/>
  <path d="M10.25,19.05h.02c.36,0,.64-.31.63-.67l-.25-9.8c0-.35-.3-.63-.65-.63h-.02c-.36,0-.64.31-.63.67l.25,9.8c0,.35.3.63.65.63Z" style="fill: #000; stroke-width: 0px;"/>
  <path d="M13.73,19.05h.02c.35,0,.64-.28.65-.63l.25-9.8c0-.36-.27-.66-.63-.67-.41.01-.66.28-.67.63l-.25,9.8c0,.36.27.66.63.67Z" style="fill: #000; stroke-width: 0px;"/>
</svg>