<?xml version="1.0" encoding="UTF-8"?>
<svg id="FF" xmlns="http://www.w3.org/2000/svg" viewBox="0 0 24 24">
  <path d="M19.99,4.95h-2.44v-1.35c0-.3-.25-.55-.55-.55s-.55.25-.55.55v1.35H5.1c-.3,0-.55.25-.55.55s.25.55.55.55h14.89c.48,0,.86.48.86,1.07v10.78c0,.3.25.55.55.55s.55-.25.55-.55V7.12c0-1.19-.88-2.17-1.96-2.17Z" style="fill: #000; stroke-width: 0px;"/>
  <path d="M17.4,7.45H4.1c-1.13,0-2.05.92-2.05,2.05v.45h17.4v-.45c0-1.13-.92-2.05-2.05-2.05Z" style="fill: #000; stroke-width: 0px;"/>
  <path d="M2.05,18.9c0,1.13.92,2.05,2.05,2.05h13.3c1.13,0,2.05-.92,2.05-2.05v-.45H2.05v.45Z" style="fill: #000; stroke-width: 0px;"/>
</svg>