<?xml version="1.0" encoding="UTF-8"?>
<svg id="FL" xmlns="http://www.w3.org/2000/svg" viewBox="0 0 24 24">
  <path d="M19.9,4.85h-2.25v-1.25c0-.36-.29-.65-.65-.65s-.65.29-.65.65v1.25H4.1c-1.19,0-2.15.96-2.15,2.15v10c0,1.19.96,2.15,2.15,2.15h.25v1.25c0,.36.29.65.65.65s.65-.29.65-.65v-1.25h1.7v1.25c0,.36.29.65.65.65s.65-.29.65-.65v-1.25h1.7v1.25c0,.36.29.65.65.65s.65-.29.65-.65v-1.25h7.25c.36,0,.65-.29.65-.65s-.29-.65-.65-.65H4.1c-.47,0-.85-.38-.85-.85v-.35h18.15c.36,0,.65-.29.65-.65V7c0-1.19-.96-2.15-2.15-2.15ZM4.1,6.15h15.8c.47,0,.85.38.85.85v.35H3.25v-.35c0-.47.38-.85.85-.85ZM3.25,15.35v-6.7h17.5v6.7H3.25Z" style="fill: #000; stroke-width: 0px;"/>
</svg>