<?xml version="1.0" encoding="UTF-8"?>
<svg id="TL" xmlns="http://www.w3.org/2000/svg" viewBox="0 0 24 24">
  <path d="M12.5,14.75h-3c-.36,0-.65.29-.65.65s.29.65.65.65h3c.36,0,.65-.29.65-.65s-.29-.65-.65-.65Z" style="fill: #000; stroke-width: 0px;"/>
  <g>
    <path d="M17.4,7.35H4.1c-1.19,0-2.15.96-2.15,2.15v9.4c0,1.19.96,2.15,2.15,2.15h13.3c1.19,0,2.15-.96,2.15-2.15v-9.4c0-1.19-.96-2.15-2.15-2.15ZM3.25,11.15h15v6.1H3.25v-6.1ZM4.1,8.65h13.3c.47,0,.85.38.85.85v.35H3.25v-.35c0-.47.38-.85.85-.85ZM17.4,19.75H4.1c-.47,0-.85-.38-.85-.85v-.35h15v.35c0,.47-.38.85-.85.85Z" style="fill: #000; stroke-width: 0px;"/>
    <path d="M19.99,4.85h-2.34v-1.25c0-.36-.29-.65-.65-.65s-.65.29-.65.65v1.25H5.1c-.36,0-.65.29-.65.65s.29.65.65.65h14.89c.41,0,.76.44.76.97v10.78c0,.36.29.65.65.65s.65-.29.65-.65V7.12c0-1.25-.93-2.27-2.06-2.27Z" style="fill: #000; stroke-width: 0px;"/>
  </g>
</svg>