<?xml version="1.0" encoding="UTF-8"?>
<svg id="TL" xmlns="http://www.w3.org/2000/svg" viewBox="0 0 24 24">
  <path d="M13.5,12.85h-3c-.36,0-.65.29-.65.65s.29.65.65.65h3c.36,0,.65-.29.65-.65s-.29-.65-.65-.65Z" style="fill: #000; stroke-width: 0px;"/>
  <path d="M17.5,4.85h-.85v-1.25c0-.36-.29-.65-.65-.65s-.65.29-.65.65v1.25H6.5c-1.19,0-2.15.96-2.15,2.15v10c0,1.19.96,2.15,2.15,2.15h.85v1.25c0,.36.29.65.65.65s.65-.29.65-.65v-1.25h1.7v1.25c0,.36.29.65.65.65s.65-.29.65-.65v-1.25h4.85c.36,0,.65-.29.65-.65s-.29-.65-.65-.65H6.5c-.47,0-.85-.38-.85-.85v-.35h13.35c.36,0,.65-.29.65-.65V7c0-1.19-.96-2.15-2.15-2.15ZM6.5,6.15h11c.47,0,.85.38.85.85v.35H5.65v-.35c0-.47.38-.85.85-.85ZM5.65,15.35v-6.7h12.7v6.7H5.65Z" style="fill: #000; stroke-width: 0px;"/>
</svg>