<?xml version="1.0" encoding="UTF-8"?>
<svg id="TF" xmlns="http://www.w3.org/2000/svg" viewBox="0 0 24 24">
  <path d="M19.55,7.45v-.45c0-1.13-.92-2.05-2.05-2.05h-.95v-1.35c0-.3-.25-.55-.55-.55s-.55.25-.55.55v1.35H6.5c-1.13,0-2.05.92-2.05,2.05v.45h15.1Z" style="fill: #404040; stroke-width: 0px;"/>
  <path d="M4.45,16.55v.45c0,1.13.92,2.05,2.05,2.05h.95v1.35c0,.3.25.55.55.55s.55-.25.55-.55v-1.35h1.9v1.35c0,.3.25.55.55.55s.55-.25.55-.55v-1.35h5.95c1.13,0,2.05-.92,2.05-2.05v-.45H4.45Z" style="fill: #404040; stroke-width: 0px;"/>
  <path d="M19.55,8.55H4.45v6.9h15.1v-6.9ZM13.5,14.05h-3c-.3,0-.55-.25-.55-.55s.25-.55.55-.55h3c.3,0,.55.25.55.55s-.25.55-.55.55Z" style="fill: #404040; stroke-width: 0px;"/>
</svg>