<?xml version="1.0" encoding="UTF-8"?>
<svg id="TF" xmlns="http://www.w3.org/2000/svg" viewBox="0 0 24 24">
  <path d="M18.9,6.85h-2.35v-1.75c0-1.13-.92-2.05-2.05-2.05h-5c-1.13,0-2.05.92-2.05,2.05v1.75h-2.35c-1.13,0-2.05.92-2.05,2.05v10c0,1.13.92,2.05,2.05,2.05h13.8c1.13,0,2.05-.92,2.05-2.05v-10c0-1.13-.92-2.05-2.05-2.05ZM8.55,5.1c0-.52.43-.95.95-.95h5c.52,0,.95.43.95.95v1.75h-6.9v-1.75ZM15,14.45h-2.45v2.45c0,.3-.25.55-.55.55s-.55-.25-.55-.55v-2.45h-2.45c-.3,0-.55-.25-.55-.55s.25-.55.55-.55h2.45v-2.45c0-.3.25-.55.55-.55s.55.25.55.55v2.45h2.45c.3,0,.55.25.55.55s-.25.55-.55.55Z" style="fill: #404040; stroke-width: 0px;"/>
</svg>