<?xml version="1.0" encoding="UTF-8"?>
<svg id="TL" xmlns="http://www.w3.org/2000/svg" viewBox="0 0 24 24">
  <path d="M12,17.55c.36,0,.65-.29.65-.65v-2.35h2.35c.36,0,.65-.29.65-.65s-.29-.65-.65-.65h-2.35v-2.35c0-.36-.29-.65-.65-.65s-.65.29-.65.65v2.35h-2.35c-.36,0-.65.29-.65.65s.29.65.65.65h2.35v2.35c0,.36.29.65.65.65Z" style="fill: #000; stroke-width: 0px;"/>
  <path d="M18.9,6.75h-2.25v-1.65c0-1.19-.96-2.15-2.15-2.15h-5c-1.19,0-2.15.96-2.15,2.15v1.65h-2.25c-1.19,0-2.15.96-2.15,2.15v10c0,1.19.96,2.15,2.15,2.15h12.8c.36,0,.65-.29.65-.65s-.29-.65-.65-.65H5.1c-.47,0-.85-.38-.85-.85v-10c0-.47.38-.85.85-.85h13.8c.47,0,.85.38.85.85v9c0,.36.29.65.65.65s.65-.29.65-.65v-9c0-1.19-.96-2.15-2.15-2.15ZM8.65,6.75v-1.65c0-.47.38-.85.85-.85h5c.47,0,.85.38.85.85v1.65h-6.7Z" style="fill: #000; stroke-width: 0px;"/>
</svg>