<?xml version="1.0" encoding="UTF-8"?>
<svg id="TF" xmlns="http://www.w3.org/2000/svg" viewBox="0 0 24 24">
  <path d="M12,2.05C6.51,2.05,2.05,6.51,2.05,12s4.46,9.95,9.95,9.95,9.95-4.46,9.95-9.95S17.49,2.05,12,2.05ZM16.39,15.61c.21.21.21.56,0,.78-.11.11-.25.16-.39.16s-.28-.05-.39-.16l-3.61-3.61-3.61,3.61c-.11.11-.25.16-.39.16s-.28-.05-.39-.16c-.21-.21-.21-.56,0-.78l3.61-3.61-3.61-3.61c-.21-.21-.21-.56,0-.78.21-.21.56-.21.78,0l3.61,3.61,3.61-3.61c.21-.21.56-.21.78,0,.21.21.21.56,0,.78l-3.61,3.61,3.61,3.61Z" style="fill: #404040; stroke-width: 0px;"/>
</svg>