<?xml version="1.0" encoding="UTF-8"?>
<svg id="TL" xmlns="http://www.w3.org/2000/svg" viewBox="0 0 24 24">
  <path d="M16.46,7.54c-.25-.25-.67-.25-.92,0l-3.54,3.54-3.54-3.54c-.25-.25-.67-.25-.92,0s-.25.67,0,.92l3.54,3.54-3.54,3.54c-.25.25-.25.67,0,.92.13.13.29.19.46.19s.33-.06.46-.19l3.54-3.54,3.54,3.54c.13.13.29.19.46.19s.33-.06.46-.19c.25-.25.25-.67,0-.92l-3.54-3.54,3.54-3.54c.25-.25.25-.67,0-.92Z" style="fill: #000; stroke-width: 0px;"/>
  <path d="M12,1.95C6.46,1.95,1.95,6.46,1.95,12s4.51,10.05,10.05,10.05c1.76,0,3.49-.47,5.02-1.35.31-.18.42-.58.24-.89-.18-.31-.58-.42-.89-.24-1.33.77-2.84,1.18-4.37,1.18-4.82,0-8.75-3.93-8.75-8.75S7.18,3.25,12,3.25s8.75,3.93,8.75,8.75c0,1.53-.41,3.04-1.18,4.37-.18.31-.07.71.24.89.31.18.71.07.89-.24.89-1.53,1.35-3.27,1.35-5.02,0-5.54-4.51-10.05-10.05-10.05Z" style="fill: #000; stroke-width: 0px;"/>
</svg>