<?xml version="1.0" encoding="UTF-8"?>
<svg id="FF" xmlns="http://www.w3.org/2000/svg" viewBox="0 0 24 24">
  <path d="M17.75,19.85H6.25c-.3,0-.55.25-.55.55s.25.55.55.55h11.5c.3,0,.55-.25.55-.55s-.25-.55-.55-.55Z" style="fill: #000; stroke-width: 0px;"/>
  <path d="M5.36,12.49c-.21-.21-.21-.56,0-.78l4-4c.21-.21.56-.21.78,0l3.65,3.65,1.86-1.86c.21-.21.56-.21.78,0l2.21,2.21c.21.21.21.56,0,.78l3.21,3.21c.06-.19.1-.39.1-.59V5.1c0-1.13-.92-2.05-2.05-2.05H4.1c-1.13,0-2.05.92-2.05,2.05v10c0,.21.04.41.1.6l3.21-3.21Z" style="fill: #000; stroke-width: 0px;"/>
</svg>