<?xml version="1.0" encoding="UTF-8"?>
<svg id="TL" xmlns="http://www.w3.org/2000/svg" viewBox="0 0 24 24">
  <path d="M18.25,12.75c-.17,0-.33-.06-.46-.19l-1.75-1.75-1.75,1.75c-.12.12-.29.19-.46.19s-.42-.07-.54-.19l-3.54-3.54-3.54,3.54c-.25.25-.67.25-.92,0s-.25-.67,0-.92l4-4c.25-.25.67-.25.92,0l3.58,3.58,1.79-1.79c.25-.25.67-.25.92,0l2.21,2.21c.25.25.25.67,0,.92-.13.13-.29.19-.46.19Z" style="fill: #000; stroke-width: 0px;"/>
  <g>
    <path d="M19.9,2.95H4.1c-1.19,0-2.15.96-2.15,2.15v10c0,1.19.96,2.15,2.15,2.15h13.8c.36,0,.65-.29.65-.65s-.29-.65-.65-.65H4.1c-.47,0-.85-.38-.85-.85V5.1c0-.47.38-.85.85-.85h15.8c.47,0,.85.38.85.85v8c0,.36.29.65.65.65s.65-.29.65-.65V5.1c0-1.19-.96-2.15-2.15-2.15Z" style="fill: #000; stroke-width: 0px;"/>
    <path d="M17.75,19.75H6.25c-.36,0-.65.29-.65.65s.29.65.65.65h11.5c.36,0,.65-.29.65-.65s-.29-.65-.65-.65Z" style="fill: #000; stroke-width: 0px;"/>
  </g>
</svg>