<?xml version="1.0" encoding="UTF-8"?>
<svg id="FF" xmlns="http://www.w3.org/2000/svg" viewBox="0 0 24 24">
  <path d="M12.02,14.96c-.89,0-1.32.42-1.32,1.28s.43,1.32,1.3,1.32,1.3-.43,1.3-1.3c0-.34-.13-.65-.38-.91s-.55-.4-.91-.4Z"/>
  <path d="M19.05,11.46c-.17-.1-.38-.15-.63-.15H5.58c-.24,0-.44.05-.61.16-.16.1-.24.27-.24.53s.08.43.24.53c.17.1.37.16.61.16h12.84c.25,0,.46-.05.63-.15.16-.09.24-.27.24-.54s-.08-.45-.24-.54Z"/>
  <path d="M12,9.04c.88,0,1.3-.43,1.3-1.3,0-.34-.13-.65-.38-.91s-.55-.4-.91-.4c-.89,0-1.32.42-1.32,1.28s.43,1.32,1.3,1.32Z"/>
</svg>