<?xml version="1.0" encoding="UTF-8"?>
<svg id="TL" xmlns="http://www.w3.org/2000/svg" viewBox="0 0 24 24">
  <path d="M12.02,14.86c-.95,0-1.42.47-1.42,1.38s.47,1.42,1.4,1.42,1.4-.47,1.4-1.4c0-.37-.14-.7-.4-.98-.27-.28-.6-.43-.98-.43Z"/>
  <path d="M19.1,11.37c-.18-.11-.41-.16-.68-.16H5.58c-.25,0-.48.06-.66.17-.19.12-.29.33-.29.62s.1.5.29.62c.19.11.41.17.66.17h12.84c.27,0,.5-.05.68-.16.19-.11.29-.32.29-.63s-.1-.52-.29-.63Z"/>
  <path d="M12,9.14c.93,0,1.4-.47,1.4-1.4,0-.37-.14-.7-.4-.98-.27-.28-.6-.43-.98-.43-.95,0-1.42.47-1.42,1.38s.47,1.42,1.4,1.42Z"/>
</svg>