<?xml version="1.0" encoding="UTF-8"?>
<svg id="TF" xmlns="http://www.w3.org/2000/svg" viewBox="0 0 24 24">
  <path d="M17.5,2.05H6.5c-1.13,0-2.05.92-2.05,2.05v15.8c0,1.13.92,2.05,2.05,2.05h11c1.13,0,2.05-.92,2.05-2.05V4.1c0-1.13-.92-2.05-2.05-2.05ZM18.45,19.9c0,.52-.43.95-.95.95H6.5c-.52,0-.95-.43-.95-.95V4.1c0-.52.43-.95.95-.95h11c.52,0,.95.43.95.95v15.8Z" style="fill: #000; stroke-width: 0px;"/>
  <path d="M15.13,6.07l-8-2c-.16-.04-.34,0-.47.1-.13.1-.21.26-.21.43v14.8c0,.17.08.33.21.43.1.08.22.12.34.12.04,0,.09,0,.13-.02l8-2c.25-.06.42-.28.42-.53V6.6c0-.25-.17-.47-.42-.53ZM13.55,12.75c0,.3-.25.55-.55.55s-.55-.25-.55-.55v-1.5c0-.3.25-.55.55-.55s.55.25.55.55v1.5Z" style="fill: #000; stroke-width: 0px;"/>
</svg>