<?xml version="1.0" encoding="UTF-8"?>
<svg id="TF" xmlns="http://www.w3.org/2000/svg" viewBox="0 0 24 24">
  <path d="M17.5,2.05H6.5c-1.13,0-2.05.92-2.05,2.05v15.8c0,1.13.92,2.05,2.05,2.05h11c1.13,0,2.05-.92,2.05-2.05V4.1c0-1.13-.92-2.05-2.05-2.05ZM18.45,19.9c0,.52-.43.95-.95.95H6.5c-.52,0-.95-.43-.95-.95V4.1c0-.52.43-.95.95-.95h11c.52,0,.95.43.95.95v15.8Z" style="fill: #000; stroke-width: 0px;"/>
  <path d="M17,4.05H7c-.3,0-.55.25-.55.55v14.8c0,.3.25.55.55.55h10c.3,0,.55-.25.55-.55V4.6c0-.3-.25-.55-.55-.55ZM15.55,12.75c0,.3-.25.55-.55.55s-.55-.25-.55-.55v-1.5c0-.3.25-.55.55-.55s.55.25.55.55v1.5Z" style="fill: #000; stroke-width: 0px;"/>
</svg>