<?xml version="1.0" encoding="UTF-8"?>
<svg id="TL" xmlns="http://www.w3.org/2000/svg" viewBox="0 0 24 24">
  <path d="M15,13.87c-.36,0-.65-.29-.65-.65v-2c0-.36.29-.65.65-.65s.65.29.65.65v2c0,.36-.29.65-.65.65Z" style="fill: #000; stroke-width: 0px;"/>
  <path d="M19.5,20.75h-.85V4.1c0-1.19-.96-2.15-2.15-2.15H7.5c-1.19,0-2.15.96-2.15,2.15v13.3c0,.36.29.65.65.65s.65-.29.65-.65V4.1c0-.47.38-.85.85-.85h9c.47,0,.85.38.85.85v16.65H4.5c-.36,0-.65.29-.65.65s.29.65.65.65h15c.36,0,.65-.29.65-.65s-.29-.65-.65-.65Z" style="fill: #000; stroke-width: 0px;"/>
</svg>