<?xml version="1.0" encoding="UTF-8"?>
<svg id="TL" xmlns="http://www.w3.org/2000/svg" viewBox="0 0 24 24">
  <path d="M15.5,22.05H6.5c-1.19,0-2.15-.96-2.15-2.15V4.1c0-1.19.96-2.15,2.15-2.15h11c1.19,0,2.15.96,2.15,2.15v13.8c0,.36-.29.65-.65.65s-.65-.29-.65-.65V4.1c0-.47-.38-.85-.85-.85H6.5c-.47,0-.85.38-.85.85v15.8c0,.47.38.85.85.85h9c.36,0,.65.29.65.65s-.29.65-.65.65Z" style="fill: #000; stroke-width: 0px;"/>
  <g>
    <path d="M17,3.95H7c-.36,0-.65.29-.65.65v14.8c0,.36.29.65.65.65h10c.36,0,.65-.29.65-.65V4.6c0-.36-.29-.65-.65-.65ZM16.35,18.75H7.65V5.25h8.7v13.5Z" style="fill: #000; stroke-width: 0px;"/>
    <path d="M15,13.4c.36,0,.65-.29.65-.65v-1.5c0-.36-.29-.65-.65-.65s-.65.29-.65.65v1.5c0,.36.29.65.65.65Z" style="fill: #000; stroke-width: 0px;"/>
  </g>
</svg>