<?xml version="1.0" encoding="UTF-8"?>
<svg id="HL" xmlns="http://www.w3.org/2000/svg" viewBox="0 0 24 24">
  <path d="M13,13.4c.36,0,.65-.29.65-.65v-1.5c0-.36-.29-.65-.65-.65s-.65.29-.65.65v1.5c0,.36.29.65.65.65Z" style="fill: #66f; stroke-width: 0px;"/>
  <path d="M15.16,5.97L7.16,3.97c-.19-.05-.4,0-.56.12-.16.12-.25.31-.25.51v14.8c0,.2.09.39.25.51.12.09.26.14.4.14.05,0,.11,0,.16-.02l8-2c.29-.07.49-.33.49-.63V6.6c0-.3-.2-.56-.49-.63ZM14.35,16.89l-6.7,1.67V5.43l6.7,1.67v9.79Z" style="fill: #66f; stroke-width: 0px;"/>
</svg>