<?xml version="1.0" encoding="UTF-8"?>
<svg id="TL" xmlns="http://www.w3.org/2000/svg" viewBox="0 0 24 24">
  <path d="M20.4,11.35c-.36,0-.65.29-.65.65v6.9c0,.47-.38.85-.85.85H5.1c-.47,0-.85-.38-.85-.85v-6.9c0-.36-.29-.65-.65-.65s-.65.29-.65.65v6.9c0,1.19.96,2.15,2.15,2.15h13.8c1.19,0,2.15-.96,2.15-2.15v-6.9c0-.36-.29-.65-.65-.65Z" style="fill: #000; stroke-width: 0px;"/>
  <path d="M11.75,15.6c.08.03.16.05.25.05.17,0,.34-.07.46-.19l4-4c.25-.25.25-.67,0-.92s-.67-.25-.92,0l-2.89,2.89V3.6c0-.36-.29-.65-.65-.65s-.65.29-.65.65v11.4c0,.26.16.5.4.6Z" style="fill: #000; stroke-width: 0px;"/>
  <path d="M9.04,12.96c.13.13.29.19.46.19s.33-.06.46-.19c.25-.25.25-.67,0-.92l-1.5-1.5c-.25-.25-.67-.25-.92,0s-.25.67,0,.92l1.5,1.5Z" style="fill: #000; stroke-width: 0px;"/>
</svg>