<?xml version="1.0" encoding="UTF-8"?>
<svg id="TF" xmlns="http://www.w3.org/2000/svg" viewBox="0 0 24 24">
  <path d="M11.79,15.51c.07.03.14.04.21.04.14,0,.28-.06.39-.16l4-4c.21-.21.21-.56,0-.78-.21-.21-.56-.21-.78,0l-3.06,3.06V3.6c0-.3-.25-.55-.55-.55s-.55.25-.55.55v11.4c0,.22.13.42.34.51Z" style="fill: #404040; stroke-width: 0px;"/>
  <path d="M9.11,12.89c.11.11.25.16.39.16s.28-.05.39-.16c.21-.21.21-.56,0-.78l-1.5-1.5c-.21-.21-.56-.21-.78,0-.21.21-.21.56,0,.78l1.5,1.5Z" style="fill: #404040; stroke-width: 0px;"/>
  <path d="M20.4,11.45h-1.86c-.15,0-.29.06-.39.16l-4.77,4.77c-.76.76-2,.76-2.76,0l-4.77-4.77c-.1-.1-.24-.16-.39-.16h-1.86c-.3,0-.55.25-.55.55v6.9c0,1.13.92,2.05,2.05,2.05h13.8c1.13,0,2.05-.92,2.05-2.05v-6.9c0-.3-.25-.55-.55-.55Z" style="fill: #404040; stroke-width: 0px;"/>
</svg>