<?xml version="1.0" encoding="UTF-8"?>
<svg id="HL" xmlns="http://www.w3.org/2000/svg" viewBox="0 0 24 24">
  <path d="M16.46,10.54c-.25-.25-.67-.25-.92,0l-2.89,2.89V3.6c0-.36-.29-.65-.65-.65s-.65.29-.65.65v11.4c0,.26.16.5.4.6.08.03.16.05.25.05.17,0,.34-.07.46-.19l4-4c.25-.25.25-.67,0-.92Z" style="fill: #66f; stroke-width: 0px;"/>
  <path d="M8.46,10.54c-.25-.25-.67-.25-.92,0s-.25.67,0,.92l1.5,1.5c.13.13.29.19.46.19s.33-.06.46-.19c.25-.25.25-.67,0-.92l-1.5-1.5Z" style="fill: #66f; stroke-width: 0px;"/>
</svg>