<?xml version="1.0" encoding="UTF-8"?>
<svg id="HF" xmlns="http://www.w3.org/2000/svg" viewBox="0 0 24 24">
  <path d="M16.39,10.61c-.21-.21-.56-.21-.78,0l-3.06,3.06V3.6c0-.3-.25-.55-.55-.55s-.55.25-.55.55v11.4c0,.22.13.42.34.51.07.03.14.04.21.04.14,0,.28-.06.39-.16l4-4c.21-.21.21-.56,0-.78Z" style="fill: #606060; stroke-width: 0px;"/>
  <path d="M8.39,10.61c-.21-.21-.56-.21-.78,0-.21.21-.21.56,0,.78l1.5,1.5c.11.11.25.16.39.16s.28-.05.39-.16c.21-.21.21-.56,0-.78l-1.5-1.5Z" style="fill: #606060; stroke-width: 0px;"/>
</svg>