<?xml version="1.0" encoding="UTF-8"?>
<svg id="HL" xmlns="http://www.w3.org/2000/svg" viewBox="0 0 24 24">
  <path d="M18.9,2.95h-8c-1.19,0-2.15.96-2.15,2.15v10c0,1.19.96,2.15,2.15,2.15h8c1.19,0,2.15-.96,2.15-2.15V5.1c0-1.19-.96-2.15-2.15-2.15ZM19.75,15.1c0,.47-.38.85-.85.85h-8c-.47,0-.85-.38-.85-.85V5.1c0-.47.38-.85.85-.85h8c.47,0,.85.38.85.85v10Z" style="fill: #66f; stroke-width: 0px;"/>
  <path d="M17.4,9.45h-1.85v-1.85c0-.36-.29-.65-.65-.65s-.65.29-.65.65v1.85h-1.85c-.36,0-.65.29-.65.65s.29.65.65.65h1.85v1.85c0,.36.29.65.65.65s.65-.29.65-.65v-1.85h1.85c.36,0,.65-.29.65-.65s-.29-.65-.65-.65Z" style="fill: #66f; stroke-width: 0px;"/>
</svg>