<?xml version="1.0" encoding="UTF-8"?>
<svg id="TL" xmlns="http://www.w3.org/2000/svg" viewBox="0 0 24 24">
  <path d="M8.73,15.92c-.17,0-.34-.07-.46-.19-.17-.17-.23-.43-.16-.67l.35-1.06c.03-.1.09-.18.16-.25L19.23,3.14c.25-.25.67-.25.92,0l.71.71c.25.25.25.67,0,.92l-10.61,10.61c-.07.07-.16.13-.25.16l-1.06.35c-.07.02-.14.03-.21.03Z" style="fill: #000; stroke-width: 0px;"/>
  <path d="M8.73,15.92c-.17,0-.34-.07-.46-.19-.17-.17-.23-.43-.16-.67l.35-1.06c.03-.1.09-.18.16-.25L19.23,3.14c.25-.25.67-.25.92,0l.71.71c.25.25.25.67,0,.92l-10.61,10.61c-.07.07-.16.13-.25.16l-1.06.35c-.07.02-.14.03-.21.03Z" style="fill: #000; stroke-width: 0px;"/>
  <path d="M17.1,21.05H5.1c-1.19,0-2.15-.96-2.15-2.15V6.9c0-1.19.96-2.15,2.15-2.15h8.79c.36,0,.65.29.65.65s-.29.65-.65.65H5.1c-.47,0-.85.38-.85.85v12c0,.47.38.85.85.85h12c.47,0,.85-.38.85-.85v-8.79c0-.36.29-.65.65-.65s.65.29.65.65v8.79c0,1.19-.96,2.15-2.15,2.15Z" style="fill: #000; stroke-width: 0px;"/>
</svg>