<?xml version="1.0" encoding="UTF-8"?>
<svg id="TF" xmlns="http://www.w3.org/2000/svg" viewBox="0 0 24 24">
  <path d="M18.81,9.13c-.21-.08-.44-.04-.6.12l-7.04,7.04h0c-.21.21-.48.38-.76.47l-1.07.36c-.72.24-1.46.06-1.99-.47-.53-.53-.71-1.28-.47-1.99l.36-1.07c.09-.29.26-.55.47-.76l7.04-7.04c.16-.16.2-.39.12-.6-.09-.21-.29-.34-.51-.34H5.1c-1.13,0-2.05.92-2.05,2.05v12c0,1.13.92,2.05,2.05,2.05h12c1.13,0,2.05-.92,2.05-2.05v-9.26c0-.22-.13-.42-.34-.51Z" style="fill: #404040; stroke-width: 0px;"/>
  <path d="M20.79,3.92l-.71-.71c-.21-.21-.56-.21-.78,0l-10.61,10.61c-.06.06-.11.13-.13.21l-.35,1.06c-.07.2-.01.42.13.56.1.1.25.16.39.16.06,0,.12,0,.17-.03l1.06-.35c.08-.03.15-.07.21-.13l10.61-10.61c.21-.21.21-.56,0-.78Z" style="fill: #404040; stroke-width: 0px;"/>
</svg>