<?xml version="1.0" encoding="UTF-8"?>
<svg id="TL" xmlns="http://www.w3.org/2000/svg" viewBox="0 0 24 24">
  <path d="M12,22.05s-.1,0-.15-.02c-.29-.07-.5-.33-.5-.63v-6.63l-5.24.87c-.24.04-.48-.06-.63-.25-.15-.19-.17-.45-.06-.67L11.42,2.32c.13-.27.43-.42.73-.35.29.07.5.33.5.63v6.63l5.24-.87c.24-.04.48.06.63.25.15.19.17.45.06.67l-3,6.2c-.16.32-.55.46-.87.3-.32-.16-.46-.54-.3-.87l2.45-5.07-4.76.79c-.19.03-.38-.02-.53-.15-.15-.12-.23-.31-.23-.5v-4.56l-4.22,8.72,4.76-.79c.19-.03.38.02.53.15.15.12.23.31.23.5v4.56l.26-.55c.16-.32.54-.46.87-.3s.46.54.3.87l-1.5,3.1c-.11.23-.34.37-.58.37Z" style="fill: #000; stroke-width: 0px;"/>
</svg>