<?xml version="1.0" encoding="UTF-8"?>
<svg id="FL" xmlns="http://www.w3.org/2000/svg" viewBox="0 0 24 24">
  <path d="M11.98,22.05c-.51,0-1.02-.05-1.53-.15-3.1-.59-5.59-3.08-6.2-6.19-.43-2.21.06-4.41,1.37-6.21l4.95-6.83c.67-.93,2.19-.93,2.86,0l4.95,6.83c.21.29.15.7-.14.91-.29.21-.7.15-.91-.14l-4.95-6.83c-.18-.24-.58-.24-.75,0l-4.95,6.83c-1.1,1.5-1.5,3.35-1.14,5.2.5,2.59,2.58,4.66,5.17,5.16,1.98.38,3.99-.13,5.51-1.39,1.52-1.26,2.4-3.11,2.4-5.09,0-.36.29-.65.65-.65s.65.29.65.65c0,2.36-1.04,4.58-2.87,6.09-1.43,1.18-3.21,1.81-5.05,1.81Z" style="fill: #000; stroke-width: 0px;"/>
</svg>