<?xml version="1.0" encoding="UTF-8"?>
<svg id="TF" xmlns="http://www.w3.org/2000/svg" viewBox="0 0 24 24">
  <path d="M18.3,9.56l-4.95-6.83c-.63-.87-2.06-.87-2.7,0l-4.95,6.83c-1.29,1.77-1.77,3.95-1.35,6.13.6,3.07,3.06,5.52,6.12,6.11.51.1,1.01.14,1.52.14,1.82,0,3.58-.62,4.98-1.78,1.8-1.49,2.83-3.68,2.83-6.01,0-1.65-.52-3.24-1.5-4.59ZM14.49,14.25l-2,4c-.1.19-.29.3-.49.3-.08,0-.17-.02-.25-.06-.27-.14-.38-.47-.25-.74l1.6-3.2h-3.11c-.19,0-.37-.1-.47-.26s-.11-.36-.02-.54l2-4c.14-.27.47-.38.74-.25.27.14.38.47.25.74l-1.6,3.2h3.11c.19,0,.37.1.47.26s.11.36.02.54Z" style="fill: #404040; stroke-width: 0px;"/>
</svg>