<?xml version="1.0" encoding="UTF-8"?>
<svg id="TF" xmlns="http://www.w3.org/2000/svg" viewBox="0 0 24 24">
  <path d="M3.36,16.89c.08.04.16.06.24.06.12,0,.24-.04.33-.11l4.52-3.44v-4.9c0-.3.25-.55.55-.55s.55.25.55.55v4.06l11.18-8.52c.19-.14.26-.39.19-.61-.08-.22-.29-.37-.52-.37h-8.8C6.89,3.05,3.05,6.89,3.05,11.6v4.8c0,.21.12.4.31.49Z" style="fill: #404040; stroke-width: 0px;"/>
  <path d="M20.64,7.11c-.19-.09-.41-.07-.58.06L3.27,19.96c-.19.14-.26.39-.19.61.08.22.29.37.52.37h8.8c4.71,0,8.55-3.84,8.55-8.55v-4.8c0-.21-.12-.4-.31-.49Z" style="fill: #404040; stroke-width: 0px;"/>
</svg>