<?xml version="1.0" encoding="UTF-8"?>
<svg id="FF" xmlns="http://www.w3.org/2000/svg" viewBox="0 0 24 24">
  <path d="M14.5,8.15c-.3,0-.55-.25-.55-.55V2.05h-7.95c-1.13,0-2.05.92-2.05,2.05v15.8c0,1.13.92,2.05,2.05,2.05h12c1.13,0,2.05-.92,2.05-2.05v-11.75h-5.55ZM18.05,16.4c0,.85-.7,1.55-1.55,1.55h-.56c-.22.58-.78,1-1.44,1h-4c-.12,0-.23-.04-.33-.11l-2-1.5c-.14-.1-.22-.27-.22-.44v-.95h-.9v.45c0,.3-.25.55-.55.55s-.55-.25-.55-.55v-3c0-.3.25-.55.55-.55s.55.25.55.55v.45h.9v-.45c0-.85.7-1.55,1.55-1.55h.45v-.9h-.45c-.3,0-.55-.25-.55-.55s.25-.55.55-.55h3c.3,0,.55.25.55.55s-.25.55-.55.55h-.45v.9h2.45c.66,0,1.22.42,1.44,1h.56c.85,0,1.55.7,1.55,1.55v2Z"/>
</svg>