<?xml version="1.0" encoding="UTF-8"?>
<svg id="TL" xmlns="http://www.w3.org/2000/svg" viewBox="0 0 24 24">
  <path d="M16.95,9.15h-3.97c-.36,0-.65.29-.65.65s.29.65.65.65h3.97c.36,0,.65-.29.65-.65s-.29-.65-.65-.65Z"/>
  <path d="M16.95,12.03h-3.97c-.36,0-.65.29-.65.65s.29.65.65.65h3.97c.36,0,.65-.29.65-.65s-.29-.65-.65-.65Z"/>
  <path d="M20.42,8.64h-.75v-.04c0-1.19-.87-2.15-1.93-2.15h-7.94v-.93h2.74c.36,0,.65-.29.65-.65s-.29-.65-.65-.65h-6.61c-.36,0-.65.29-.65.65s.29.65.65.65h2.57v.93h-2.2c-1.19,0-2.15.96-2.15,2.15v3.43h-.92v-2.74c0-.36-.29-.65-.65-.65s-.65.29-.65.65v6.61c0,.36.29.65.65.65s.65-.29.65-.65v-2.57h.92v3.22c0,.22.11.42.29.54l3.93,2.57c.11.07.23.11.36.11h5.69c.36,0,.65-.29.65-.65s-.29-.65-.65-.65h-5.48s-3.48-2.25-3.48-2.25v-7.62c0-.47.38-.85.85-.85h11.45c.34,0,.64.39.64.85v9.01c0,.36.29.65.65.65.32,0,.57-.23.62-.53h.77c.91,0,1.65-.74,1.65-1.65v-5.79c0-.91-.74-1.65-1.65-1.65ZM20.77,16.09c0,.19-.16.35-.35.35h-.75v-6.5h.75c.19,0,.35.16.35.35v5.79Z"/>
</svg>