<?xml version="1.0" encoding="UTF-8"?>
<svg id="HL" xmlns="http://www.w3.org/2000/svg" viewBox="0 0 24 24">
  <path d="M16.5,12.75h-.48c-.25-.59-.84-1-1.52-1h-2.35v-.7h.35c.36,0,.65-.29.65-.65s-.29-.65-.65-.65h-3c-.36,0-.65.29-.65.65s.29.65.65.65h.35v.7h-.35c-.91,0-1.65.74-1.65,1.65v.35h-.7v-.35c0-.36-.29-.65-.65-.65s-.65.29-.65.65v3c0,.36.29.65.65.65s.65-.29.65-.65v-.35h.7v.85c0,.2.1.4.26.52l2,1.5c.11.08.25.13.39.13h4c.68,0,1.26-.41,1.52-1h.48c.91,0,1.65-.74,1.65-1.65v-2c0-.91-.74-1.65-1.65-1.65ZM14.5,17.75h-3.78l-1.57-1.18v-3.17c0-.19.16-.35.35-.35h5c.19,0,.35.16.35.35v4c0,.19-.16.35-.35.35ZM16.85,16.4c0,.19-.16.35-.35.35h-.35v-2.7h.35c.19,0,.35.16.35.35v2Z" style="fill: #66f;"/>
</svg>