<?xml version="1.0" encoding="UTF-8"?>
<svg id="FL" xmlns="http://www.w3.org/2000/svg" viewBox="0 0 24 24">
  <path d="M19.9,8.05h-.4c-.21-.97-1.07-1.7-2.1-1.7h-7.75v-.7h2.6c.36,0,.65-.29.65-.65s-.29-.65-.65-.65h-6.5c-.36,0-.65.29-.65.65s.29.65.65.65h2.6v.7h-1.95c-1.19,0-2.15.96-2.15,2.15v3.35h-1v-2.6c0-.36-.29-.65-.65-.65s-.65.29-.65.65v6.5c0,.36.29.65.65.65s.65-.29.65-.65v-2.6h1v3.35c0,.21.1.41.27.53l3.5,2.5c.11.08.24.12.38.12h7c.36,0,.65-.29.65-.65s-.29-.65-.65-.65h-6.79l-3.06-2.18v-7.67c0-.47.38-.85.85-.85h11c.47,0,.85.38.85.85v8.5c0,.36.29.65.65.65s.65-.29.65-.65v-.05h.35c1.19,0,2.15-.96,2.15-2.15v-4.6c0-1.19-.96-2.15-2.15-2.15ZM20.75,14.8c0,.47-.38.85-.85.85h-.35v-6.3h.35c.47,0,.85.38.85.85v4.6Z"/>
</svg>