<?xml version="1.0" encoding="UTF-8"?>
<svg id="TF" xmlns="http://www.w3.org/2000/svg" viewBox="0 0 24 24">
  <path d="M20.43,8.74h-.86v-.32c0-1.03-.84-1.87-1.87-1.87h-8.03s.02-.05.02-.07v-1.05h2.84c.3,0,.55-.25.55-.55s-.25-.55-.55-.55h-6.61c-.3,0-.55.25-.55.55s.25.55.55.55h2.67v1.05s.01.05.02.07h-2.39c-1.1,0-1.99.89-1.99,1.99v3.6s-.03-.01-.05-.01h-1.05v-2.84c0-.3-.25-.55-.55-.55s-.55.25-.55.55v6.61c0,.3.25.55.55.55s.55-.25.55-.55v-2.67h1.05s.04,0,.06-.01v3.39c0,.15.08.29.21.38l1.69,1.11,2.28,1.5c.08.05.16.08.25.08h9.03c1.03,0,1.87-.84,1.87-1.87v-.16h.86c.85,0,1.54-.69,1.54-1.54v-5.82c0-.85-.69-1.54-1.54-1.54ZM16.95,13.23h-3.97c-.3,0-.55-.25-.55-.55s.25-.55.55-.55h3.97c.3,0,.55.25.55.55s-.25.55-.55.55ZM16.95,10.35h-3.97c-.3,0-.55-.25-.55-.55s.25-.55.55-.55h3.97c.3,0,.55.25.55.55s-.25.55-.55.55Z" style="fill: #404040;"/>
</svg>