<?xml version="1.0" encoding="UTF-8"?>
<svg id="TF" xmlns="http://www.w3.org/2000/svg" viewBox="0 0 24 24">
  <path d="M19.9,8.15h-.49c-.17-.96-1-1.7-2.01-1.7h-7.85v-.9h2.7c.3,0,.55-.25.55-.55s-.25-.55-.55-.55h-6.5c-.3,0-.55.25-.55.55s.25.55.55.55h2.7v.9h-2.05c-1.13,0-2.05.92-2.05,2.05v3.45h-1.2v-2.7c0-.3-.25-.55-.55-.55s-.55.25-.55.55v6.5c0,.3.25.55.55.55s.55-.25.55-.55v-2.7h1.2v3.45c0,.18.09.34.23.45l3.5,2.5c.09.07.21.1.32.1h9c1.13,0,2.05-.92,2.05-2.05v-.65h.45c1.13,0,2.05-.92,2.05-2.05v-4.6c0-1.13-.92-2.05-2.05-2.05ZM16.5,13.05h-4c-.3,0-.55-.25-.55-.55s.25-.55.55-.55h4c.3,0,.55.25.55.55s-.25.55-.55.55ZM16.5,10.05h-4c-.3,0-.55-.25-.55-.55s.25-.55.55-.55h4c.3,0,.55.25.55.55s-.25.55-.55.55Z" style="fill: #333;"/>
</svg>