<svg id="TL" xmlns="http://www.w3.org/2000/svg" viewBox="0 0 24 24">
  <path d="M19.5,15.1c-.36,0-.65.29-.65.65v4.15c0,.47-.38.85-.85.85H6c-.47,0-.85-.38-.85-.85V4.1c0-.47.38-.85.85-.85h7.85v4.35c0,.36.29.65.65.65h5c.26,0,.5-.16.6-.4.1-.24.04-.52-.14-.71l-5-5c-.12-.12-.29-.19-.46-.19H6c-1.19,0-2.15.96-2.15,2.15v15.8c0,1.19.96,2.15,2.15,2.15h12c1.19,0,2.15-.96,2.15-2.15v-4.15c0-.36-.29-.65-.65-.65ZM15.15,4.17l2.78,2.78h-2.78v-2.78Z"/>
  <path d="M8.11,17.42l2,1.5c.11.08.25.13.39.13h4c.68,0,1.26-.41,1.52-1h.48c.91,0,1.65-.74,1.65-1.65v-2c0-.91-.74-1.65-1.65-1.65h-.48c-.25-.59-.84-1-1.52-1h-2.35v-.7h.35c.36,0,.65-.29.65-.65s-.29-.65-.65-.65h-3c-.36,0-.65.29-.65.65s.29.65.65.65h.35v.7h-.35c-.91,0-1.65.74-1.65,1.65v.35h-.7v-.35c0-.36-.29-.65-.65-.65s-.65.29-.65.65v3c0,.36.29.65.65.65s.65-.29.65-.65v-.35h.7v.85c0,.2.1.4.26.52ZM16.15,14.05h.35c.19,0,.35.16.35.35v2c0,.19-.16.35-.35.35h-.35v-2.7ZM9.15,15.4v-2c0-.19.16-.35.35-.35h5c.19,0,.35.16.35.35v4c0,.19-.16.35-.35.35h-3.78l-1.57-1.18v-1.17Z"/>
</svg>