<?xml version="1.0" encoding="UTF-8"?>
<svg id="TF" xmlns="http://www.w3.org/2000/svg" viewBox="0 0 24 24">
  <path d="M18.75,3.13c-1.38-1.38-3.64-1.38-5.02,0l-4.6,4.6c-1.25,1.25-1.36,3.21-.35,4.59l1.06-1.06c1.34-1.34,3.67-1.34,5.01-.01l.4.4,3.5-3.5c.67-.67,1.04-1.56,1.04-2.51s-.37-1.84-1.04-2.51Z" style="fill: #404040; stroke-width: 0px;"/>
  <path d="M14.16,12.74c-.69.69-1.6,1.04-2.51,1.04s-1.8-.34-2.49-1.02l-.41-.41-3.5,3.5c-.67.67-1.04,1.56-1.04,2.51s.37,1.84,1.04,2.51c.69.69,1.6,1.04,2.51,1.04s1.82-.35,2.51-1.04l4.6-4.6c1.25-1.25,1.36-3.21.35-4.59l-1.06,1.06Z" style="fill: #404040; stroke-width: 0px;"/>
</svg>