<?xml version="1.0" encoding="UTF-8"?>
<svg id="FL" xmlns="http://www.w3.org/2000/svg" viewBox="0 0 24 24">
  <path d="M7.76,22.01c-.93,0-1.87-.36-2.58-1.07s-1.07-1.61-1.07-2.58.38-1.89,1.07-2.58l1.06-1.06c.25-.25.67-.25.92,0s.25.67,0,.92l-1.06,1.06c-.44.44-.69,1.03-.69,1.66s.24,1.22.69,1.66c.92.92,2.41.92,3.32,0l4.6-4.6c.92-.92.92-2.41,0-3.32l-1.41-1.41c-.25-.25-.25-.67,0-.92.25-.25.67-.25.92,0l1.41,1.41c1.42,1.42,1.42,3.74,0,5.16l-4.6,4.6c-.71.71-1.65,1.07-2.58,1.07Z" style="fill: #000; stroke-width: 0px;"/>
</svg>