<?xml version="1.0" encoding="UTF-8"?>
<svg id="FF" xmlns="http://www.w3.org/2000/svg" viewBox="0 0 24 24">
  <path d="M20.4,14.85h-5c-.22,0-.42.13-.51.34-.08.21-.04.44.12.6l2.11,2.11-2.11,2.11c-.16.16-.2.39-.12.6.09.21.29.34.51.34h5c.3,0,.55-.25.55-.55v-1c0-.3-.25-.55-.55-.55s-.55.25-.55.55v.45h-3.12l1.56-1.56c.21-.21.21-.56,0-.78l-1.56-1.56h3.12v.45c0,.3.25.55.55.55s.55-.25.55-.55v-1c0-.3-.25-.55-.55-.55Z" style="fill: #000; stroke-width: 0px;"/>
  <path d="M3.05,18.9c0,1.13.92,2.05,2.05,2.05h8.75v-5.55c0-.85.7-1.55,1.55-1.55h5.55v-4.55H3.05v9.6Z" style="fill: #000; stroke-width: 0px;"/>
</svg>