<?xml version="1.0" encoding="UTF-8"?>
<svg id="TL" xmlns="http://www.w3.org/2000/svg" viewBox="0 0 24 24">
  <g>
    <path d="M20.86,11.54l-3-3c-.25-.25-.67-.25-.92,0s-.25.67,0,.92l1.89,1.89h-6.83c-.36,0-.65.29-.65.65s.29.65.65.65h8.4c.26,0,.5-.16.6-.4.1-.24.04-.52-.14-.71Z" style="fill: #000; stroke-width: 0px;"/>
    <path d="M17.94,13.54l-1,1c-.25.25-.25.67,0,.92.13.13.29.19.46.19s.33-.06.46-.19l1-1c.25-.25.25-.67,0-.92s-.67-.25-.92,0Z" style="fill: #000; stroke-width: 0px;"/>
  </g>
  <path d="M18.9,21.05H5.1c-1.19,0-2.15-.96-2.15-2.15V5.1c0-1.19.96-2.15,2.15-2.15h13.8c1.19,0,2.15.96,2.15,2.15v1.9c0,.36-.29.65-.65.65s-.65-.29-.65-.65v-1.9c0-.47-.38-.85-.85-.85H5.1c-.47,0-.85.38-.85.85v13.8c0,.47.38.85.85.85h13.8c.47,0,.85-.38.85-.85v-1.9c0-.36.29-.65.65-.65s.65.29.65.65v1.9c0,1.19-.96,2.15-2.15,2.15Z" style="fill: #000; stroke-width: 0px;"/>
</svg>