<?xml version="1.0" encoding="UTF-8"?>
<svg id="TF" xmlns="http://www.w3.org/2000/svg" viewBox="0 0 24 24">
  <path d="M7.05,13.85c.56,0,.84-.27.84-.81,0-.61-.11-1.16-.32-1.63-.21-.47-.54-.84-.96-1.11s-.96-.4-1.59-.4c-.53,0-.98.1-1.35.31-.37.2-.67.49-.9.84-.23.35-.4.76-.5,1.19-.1.44-.16.9-.16,1.37,0,.64.1,1.25.31,1.81.21.56.54,1.02.98,1.37.44.35,1.03.52,1.75.52.37,0,.73-.06,1.07-.17.34-.11.65-.29.92-.54.2-.19.37-.4.52-.64.14-.23.22-.49.22-.76,0-.18-.05-.3-.15-.39-.1-.08-.24-.13-.41-.13-.18,0-.32.05-.41.15-.09.11-.17.25-.24.4-.07.17-.15.33-.25.5-.1.17-.25.32-.46.44-.2.12-.49.18-.87.18-.49,0-.88-.12-1.15-.36-.27-.24-.45-.55-.54-.93-.09-.37-.14-.77-.14-1.18v-.05h3.77ZM3.32,12.81c.04-.34.11-.66.22-.96.11-.3.29-.54.53-.73.24-.18.56-.28.95-.28.52,0,.94.18,1.23.53.29.35.44.78.44,1.28,0,.13-.08.2-.21.2h-3.16v-.06Z" style="fill: #333;"/>
  <path d="M14.83,16.44l-2.17-3.02,1.89-2.64c.04-.06.08-.12.11-.19.03-.06.04-.12.04-.19,0-.33-.18-.5-.54-.5-.12,0-.23.04-.32.11-.1.07-.18.16-.25.26l-1.6,2.23-1.59-2.23c-.07-.1-.15-.18-.25-.26-.09-.07-.2-.11-.32-.11-.17,0-.31.04-.41.12-.1.08-.15.2-.15.38,0,.06.02.12.05.19.04.07.08.14.12.2l1.88,2.64-.02.03-2.13,2.99-.11.19c-.03.06-.05.12-.05.18,0,.34.17.5.54.5.13,0,.23-.03.33-.11.1-.07.18-.16.25-.26l1.86-2.6,1.86,2.6c.07.1.15.18.25.26.09.07.2.11.33.11.17,0,.31-.04.41-.11.1-.07.14-.19.14-.37,0-.06-.01-.13-.04-.19-.03-.07-.07-.13-.11-.19Z" style="fill: #333;"/>
  <path d="M21.82,12.14c-.09-.41-.25-.79-.46-1.13-.21-.34-.48-.61-.81-.81-.33-.2-.73-.3-1.2-.3-.41,0-.77.1-1.09.29-.32.19-.59.46-.83.8l-.09.13v-.69c0-.16-.04-.29-.11-.39-.07-.1-.22-.14-.45-.14-.39,0-.58.19-.58.58v7.75c0,.2.04.37.13.51.08.14.22.2.44.2s.37-.07.45-.2c.09-.14.13-.32.13-.51v-2.44l.09.13c.23.33.51.59.83.77.32.18.69.27,1.1.27.5,0,.92-.11,1.25-.31.33-.21.6-.49.8-.84.2-.35.34-.75.43-1.17.09-.42.13-.85.13-1.28s-.05-.82-.14-1.23ZM20.72,14.23c-.04.29-.11.57-.22.83-.11.26-.27.48-.48.64-.21.17-.5.25-.84.25-.31,0-.61-.08-.89-.25-.28-.17-.51-.39-.69-.66-.18-.27-.27-.57-.27-.89v-1.37c0-.31.09-.61.26-.9.17-.29.4-.53.67-.71.28-.18.57-.27.88-.27.35,0,.63.08.85.23.22.15.38.36.49.61.11.24.19.51.22.8.04.29.05.57.05.84s-.02.55-.05.84Z" style="fill: #333;"/>
</svg>