<?xml version="1.0" encoding="UTF-8"?>
<svg id="TF" xmlns="http://www.w3.org/2000/svg" viewBox="0 0 24 24">
  <path d="M12,20.44c-.55,0-1.06-.21-1.45-.6l-7.34-7.34c-.21-.21-.21-.56,0-.78.21-.21.56-.21.78,0l7.34,7.34c.37.37.97.37,1.34,0l7.34-7.34c.21-.21.56-.21.78,0,.21.21.21.56,0,.78l-7.34,7.34c-.39.39-.9.6-1.45.6Z"/>
  <path d="M12,12.44c-.55,0-1.06-.21-1.45-.6L3.21,4.5c-.21-.21-.21-.56,0-.78.21-.21.56-.21.78,0l7.34,7.34c.37.37.97.37,1.34,0l7.34-7.34c.21-.21.56-.21.78,0,.21.21.21.56,0,.78l-7.34,7.34c-.39.39-.9.6-1.45.6Z"/>
</svg>