<?xml version="1.0" encoding="UTF-8"?>
<svg id="TL" xmlns="http://www.w3.org/2000/svg" viewBox="0 0 24 24">
  <path d="M7.99,13.04c0-.62-.11-1.19-.33-1.67-.22-.48-.56-.87-1-1.15-.44-.28-.99-.42-1.65-.42-.54,0-1.01.11-1.4.32-.38.21-.7.51-.93.87-.23.36-.41.78-.51,1.23-.1.45-.16.92-.16,1.39,0,.65.11,1.27.32,1.85.21.58.55,1.06,1.01,1.42.46.36,1.07.54,1.81.54.38,0,.75-.06,1.1-.17.36-.12.68-.31.96-.56.2-.19.38-.42.53-.66.15-.25.23-.52.23-.81,0-.21-.06-.36-.18-.46-.12-.1-.28-.15-.47-.15-.21,0-.38.06-.48.19-.1.12-.18.26-.25.43-.07.16-.15.32-.24.49-.09.16-.23.29-.42.4-.19.11-.46.16-.82.16-.47,0-.83-.11-1.08-.34-.25-.23-.42-.52-.51-.88-.09-.35-.13-.72-.13-1.11h3.67c.62,0,.94-.31.94-.91ZM6.48,12.77h-3.05c.04-.31.11-.6.21-.88.11-.28.27-.51.5-.68.22-.17.52-.26.89-.26.49,0,.88.17,1.15.49.27.33.41.74.41,1.22,0,.06-.02.1-.11.1Z"/>
  <path d="M14.91,16.39l-2.13-2.96,1.85-2.58c.05-.06.09-.13.12-.21.03-.08.05-.15.05-.23,0-.39-.22-.6-.64-.6-.15,0-.28.04-.39.13-.1.08-.19.17-.27.28l-1.52,2.12-1.5-2.12c-.08-.1-.17-.2-.27-.28-.11-.08-.24-.13-.39-.13-.19,0-.35.05-.47.14-.12.1-.18.25-.18.46,0,.08.02.16.07.24.04.07.08.13.12.2l1.84,2.58-2.11,2.97-.11.19c-.04.07-.06.15-.06.23,0,.39.22.6.64.6.15,0,.28-.04.39-.13.1-.08.19-.17.27-.28l1.78-2.49,1.78,2.49c.08.1.17.2.27.28.11.08.24.13.39.13.19,0,.35-.04.47-.13.12-.09.18-.24.18-.45,0-.08-.02-.16-.05-.23-.03-.07-.07-.14-.12-.21Z"/>
  <path d="M21.91,12.12c-.1-.42-.25-.81-.47-1.16-.22-.35-.5-.64-.84-.84-.34-.21-.77-.31-1.26-.31-.43,0-.81.1-1.14.3-.29.17-.54.41-.77.7v-.37c0-.18-.04-.33-.13-.45-.09-.12-.27-.18-.53-.18-.44,0-.68.23-.68.68v7.75c0,.22.05.41.14.57.1.17.28.25.52.25s.43-.08.54-.25c.1-.16.14-.35.14-.57v-2.13c.22.28.48.51.77.68.33.19.72.29,1.15.29.52,0,.96-.11,1.3-.33.35-.22.63-.51.83-.88.2-.36.35-.77.44-1.2.09-.43.13-.87.13-1.29s-.05-.83-.14-1.25ZM20.62,14.22c-.04.29-.11.56-.21.81-.1.25-.25.45-.45.6-.19.15-.46.23-.78.23-.29,0-.57-.08-.84-.24-.27-.16-.49-.37-.65-.63-.17-.25-.25-.54-.25-.83v-1.37c0-.29.08-.58.25-.85.16-.27.38-.5.64-.67.26-.17.54-.26.83-.26.32,0,.59.07.79.22.2.14.36.34.46.57.11.24.18.5.21.77.04.28.05.56.05.83s-.02.54-.05.83Z"/>
</svg>