<?xml version="1.0" encoding="UTF-8"?>
<svg id="TF" xmlns="http://www.w3.org/2000/svg" viewBox="0 0 24 24">
  <path d="M9.21,14.01l-5.06,5.06v-3.67c0-.3-.25-.55-.55-.55s-.55.25-.55.55v5c0,.3.25.55.55.55h5c.3,0,.55-.25.55-.55s-.25-.55-.55-.55h-3.67l5.06-5.06c.21-.21.21-.56,0-.78-.21-.21-.56-.21-.78,0Z" style="fill: #404040; stroke-width: 0px;"/>
  <path d="M20.91,3.39c-.08-.21-.29-.34-.51-.34h-5c-.3,0-.55.25-.55.55s.25.55.55.55h3.67l-5.06,5.06c-.21.21-.21.56,0,.78.11.11.25.16.39.16s.28-.05.39-.16l6-6c.16-.16.2-.39.12-.6Z" style="fill: #404040; stroke-width: 0px;"/>
  <path d="M20.4,7.05c-.3,0-.55.25-.55.55v1c0,.3.25.55.55.55s.55-.25.55-.55v-1c0-.3-.25-.55-.55-.55Z" style="fill: #404040; stroke-width: 0px;"/>
</svg>