<?xml version="1.0" encoding="UTF-8"?>
<svg id="TL" xmlns="http://www.w3.org/2000/svg" viewBox="0 0 24 24">
  <path d="M20.4,9.25c-.36,0-.65-.29-.65-.65v-1c0-.36.29-.65.65-.65s.65.29.65.65v1c0,.36-.29.65-.65.65Z" style="fill: #000; stroke-width: 0px;"/>
  <g>
    <path d="M9.14,13.94l-4.89,4.89v-3.43c0-.36-.29-.65-.65-.65s-.65.29-.65.65v5c0,.36.29.65.65.65h5c.36,0,.65-.29.65-.65s-.29-.65-.65-.65h-3.43l4.89-4.89c.25-.25.25-.67,0-.92s-.67-.25-.92,0Z" style="fill: #000; stroke-width: 0px;"/>
    <path d="M21,3.35c-.1-.24-.34-.4-.6-.4h-5c-.36,0-.65.29-.65.65s.29.65.65.65h3.43l-4.89,4.89c-.25.25-.25.67,0,.92.13.13.29.19.46.19s.33-.06.46-.19l6-6c.19-.19.24-.47.14-.71Z" style="fill: #000; stroke-width: 0px;"/>
  </g>
</svg>