<?xml version="1.0" encoding="UTF-8"?>
<svg id="FL" xmlns="http://www.w3.org/2000/svg" viewBox="0 0 24 24">
  <path d="M5.17,21.08c-.57,0-1.11-.22-1.52-.63-.41-.41-.63-.95-.63-1.52,0-.52.18-1.01.52-1.4l.31-.93c.03-.1.08-.18.16-.25l7.64-7.64c.25-.25.67-.25.92,0s.25.67,0,.92l-7.54,7.53-.31.92c-.03.1-.08.18-.16.25-.16.16-.25.37-.25.6s.09.44.25.6c.32.32.88.32,1.2,0,.07-.07.16-.13.25-.16l.92-.31,7.53-7.53c.25-.25.67-.25.92,0s.25.67,0,.92l-7.64,7.64c-.07.07-.16.13-.25.16l-.93.31c-.39.33-.88.52-1.4.52Z" style="fill: #000; stroke-width: 0px;"/>
</svg>