<?xml version="1.0" encoding="UTF-8"?>
<svg id="TL" xmlns="http://www.w3.org/2000/svg" viewBox="0 0 24 24">
  <path d="M21.12,5.63c0-.71-.28-1.37-.78-1.87-1-1-2.75-1-3.75,0l-2.37,2.37-.95-.95c-.25-.25-.67-.25-.92,0s-.25.67,0,.92l5.66,5.66c.13.13.29.19.46.19s.33-.06.46-.19c.25-.25.25-.67,0-.92l-.96-.95,2.37-2.37c.5-.5.78-1.17.78-1.87ZM19.43,6.58l-2.37,2.37-1.91-1.91,2.37-2.37c.51-.51,1.4-.51,1.91,0h0c.26.25.4.59.4.95s-.14.7-.4.95Z" style="fill: #000; stroke-width: 0px;"/>
  <path d="M5.17,21.08c-.57,0-1.11-.22-1.52-.63-.41-.41-.63-.95-.63-1.52,0-.52.18-1.01.52-1.4l.31-.93c.03-.1.08-.18.16-.25l7.64-7.64c.25-.25.67-.25.92,0s.25.67,0,.92l-7.54,7.53-.31.92c-.03.1-.08.18-.16.25-.16.16-.25.37-.25.6s.09.44.25.6c.32.32.88.32,1.2,0,.07-.07.16-.13.25-.16l.92-.31,7.53-7.53c.25-.25.67-.25.92,0s.25.67,0,.92l-7.64,7.64c-.07.07-.16.13-.25.16l-.93.31c-.39.33-.88.52-1.4.52Z" style="fill: #000; stroke-width: 0px;"/>
</svg>