<?xml version="1.0" encoding="UTF-8"?>
<svg id="TF" xmlns="http://www.w3.org/2000/svg" viewBox="0 0 24 24">
  <path d="M12,2.05H2.6c-.3,0-.55.25-.55.55v3.5c0,.3.25.55.55.55h1.02c-.99,1.55-1.57,3.38-1.57,5.35,0,5.49,4.46,9.95,9.95,9.95s9.95-4.46,9.95-9.95S17.49,2.05,12,2.05ZM14.1,17.66s-.04.01-.06.02c-.64.23-1.33.36-2.05.36-3.34,0-6.05-2.71-6.05-6.05,0-.34.04-.68.09-1.01,0-.02,0-.03,0-.05.5-2.83,2.98-5,5.95-5,1.47,0,2.81.53,3.86,1.4,0,0,.02.01.02.02,1.32,1.11,2.17,2.77,2.17,4.63,0,2.6-1.65,4.81-3.95,5.66Z" style="fill: #404040; stroke-width: 0px;"/>
  <path d="M13.75,10.08c-.6.12-.95.19-1.12.8.39.22.67.63.67,1.11,0,.06-.03.12-.04.18,1.11,1,.8,1.95.56,2.65-.21.62-.36,1.06.18,1.69,1.73-.77,2.95-2.5,2.95-4.52,0-1.22-.46-2.33-1.2-3.2-.52.98-1.35,1.15-2,1.28Z" style="fill: #404040; stroke-width: 0px;"/>
  <path d="M9.47,11.44c.4.46.64.72,1.24.57,0,0,0-.01,0-.02,0-.55.35-1.01.83-1.2.32-1.44,1.28-1.65,2.01-1.79.64-.12,1.1-.21,1.37-.99-.82-.6-1.82-.96-2.91-.96-2.15,0-3.96,1.38-4.65,3.3,1.11-.04,1.68.59,2.11,1.09Z" style="fill: #404040; stroke-width: 0px;"/>
  <path d="M12.65,13.1c-.19.11-.41.2-.65.2-.3,0-.57-.12-.8-.3-.3.1-.59.16-.83.16-.88,0-1.36-.56-1.74-1-.43-.49-.73-.84-1.53-.69-.02.18-.05.35-.05.53,0,2.73,2.22,4.95,4.95,4.95.31,0,.61-.04.9-.09-.6-.95-.33-1.76-.12-2.39.2-.58.31-.92-.14-1.37Z" style="fill: #404040; stroke-width: 0px;"/>
</svg>