<?xml version="1.0" encoding="UTF-8"?>
<svg id="FL" xmlns="http://www.w3.org/2000/svg" viewBox="0 0 24 24">
  <path d="M21.92,15.95c-.21-.29-.62-.35-.91-.14-4.35,3.21-6.36,2.01-8.68.63-2.38-1.41-5.07-3.02-10.12.7-.29.21-.35.62-.14.91.21.29.62.35.91.14,4.35-3.21,6.36-2.01,8.68-.63,1.29.77,2.67,1.59,4.47,1.59,1.52,0,3.34-.59,5.65-2.29.29-.21.35-.62.14-.91Z"/>
  <path d="M2.6,8.32c.13,0,.27-.04.39-.13,4.35-3.21,6.36-2.01,8.68-.63.31.18.71.08.89-.23.18-.31.08-.71-.23-.89-2.38-1.41-5.07-3.02-10.12.7-.29.21-.35.62-.14.91.13.17.32.26.52.26Z"/>
  <path d="M2.6,13.32c.13,0,.27-.04.39-.13,4.35-3.21,6.36-2.02,8.68-.63.31.18.71.08.89-.23.18-.31.08-.71-.23-.89-2.38-1.41-5.07-3.02-10.12.7-.29.21-.35.62-.14.91.13.17.32.26.52.26Z"/>
</svg>