<?xml version="1.0" encoding="UTF-8"?>
<svg id="FL" xmlns="http://www.w3.org/2000/svg" viewBox="0 0 24 24">
  <path d="M10.69,9.01c-.08-.52-.4-.95-.86-1.18-1.83-.93-4.04-.57-5.5.88s-1.81,3.66-.88,5.5c.23.46.67.78,1.18.86.09.01.18.02.26.02.44,0,.87-.17,1.18-.49l4.15-4.15c.38-.38.55-.92.47-1.44ZM9.3,9.54l-4.15,4.15c-.08.08-.2.12-.32.1-.06,0-.17-.04-.23-.16-.67-1.33-.41-2.94.64-3.99.66-.66,1.55-1.01,2.44-1.01.53,0,1.06.12,1.55.37.12.06.15.17.16.23.02.12-.02.24-.1.32Z" style="fill: #000; stroke-width: 0px;"/>
  <path d="M10.46,13.78c-.38-.38-.92-.55-1.44-.47-.52.08-.95.4-1.18.86-.93,1.83-.57,4.04.88,5.5.91.91,2.13,1.39,3.36,1.39.73,0,1.46-.17,2.14-.51.46-.23.78-.67.86-1.18.08-.53-.09-1.07-.47-1.44l-4.15-4.15ZM13.62,19.4c-1.33.67-2.94.41-3.99-.64-1.06-1.06-1.31-2.66-.64-3.99.06-.12.17-.15.23-.16.02,0,.04,0,.06,0,.1,0,.19.04.26.11l4.15,4.15c.08.08.12.2.1.32,0,.06-.04.17-.16.23Z" style="fill: #000; stroke-width: 0px;"/>
  <path d="M20.56,9.79c-.23-.46-.67-.78-1.18-.86-.53-.09-1.07.09-1.44.47l-4.15,4.15c-.38.38-.55.92-.47,1.44.08.52.4.95.86,1.18.68.34,1.41.51,2.14.51,1.23,0,2.44-.48,3.36-1.39,1.45-1.45,1.81-3.66.88-5.5ZM18.75,14.37c-1.06,1.06-2.66,1.31-3.99.64-.12-.06-.15-.17-.16-.23-.02-.12.02-.24.1-.32l4.15-4.15c.07-.07.16-.11.26-.11.02,0,.04,0,.06,0,.06,0,.17.04.23.16.67,1.33.41,2.94-.64,3.99Z" style="fill: #000; stroke-width: 0px;"/>
  <path d="M13.54,10.22c.31.31.74.49,1.18.49.09,0,.18,0,.26-.02.52-.08.95-.4,1.18-.86.93-1.83.57-4.04-.88-5.5-1.45-1.45-3.66-1.81-5.5-.88-.46.23-.78.67-.86,1.18-.08.53.09,1.07.47,1.44l4.15,4.15ZM10.38,4.6c.49-.25,1.03-.37,1.55-.37.89,0,1.78.35,2.44,1.01,1.06,1.06,1.31,2.66.64,3.99-.06.12-.17.15-.23.16-.12.02-.24-.02-.32-.1l-4.15-4.15c-.08-.08-.12-.2-.1-.32,0-.06.04-.17.16-.23Z" style="fill: #000; stroke-width: 0px;"/>
</svg>