<?xml version="1.0" encoding="UTF-8"?>
<svg id="FF" xmlns="http://www.w3.org/2000/svg" viewBox="0 0 24 24">
  <path d="M12,2.05H2.6c-.3,0-.55.25-.55.55v3.5c0,.3.25.55.55.55h1.02c-.99,1.55-1.57,3.38-1.57,5.35,0,5.49,4.46,9.95,9.95,9.95s9.95-4.46,9.95-9.95S17.49,2.05,12,2.05ZM14.1,17.66s-.04.01-.06.02c-.64.23-1.33.36-2.05.36-3.34,0-6.05-2.71-6.05-6.05,0-.34.04-.68.09-1.01,0-.02,0-.03,0-.05.5-2.83,2.98-5,5.95-5,1.47,0,2.81.53,3.86,1.4,0,0,.02.01.02.02,1.32,1.11,2.17,2.77,2.17,4.63,0,2.6-1.65,4.81-3.95,5.66Z" style="fill: #000; stroke-width: 0px;"/>
</svg>