<?xml version="1.0" encoding="UTF-8"?>
<svg id="HL" xmlns="http://www.w3.org/2000/svg" viewBox="0 0 24 24">
  <path d="M18.15,12c0-1.89-.86-3.59-2.21-4.72,0,0-.01-.01-.02-.02-1.07-.88-2.43-1.42-3.92-1.42-3.03,0-5.55,2.2-6.05,5.09,0,.02,0,.03,0,.05-.06.33-.09.67-.09,1.02,0,3.39,2.76,6.15,6.15,6.15.73,0,1.43-.14,2.09-.37.02,0,.04-.01.06-.02,2.34-.87,4.01-3.12,4.01-5.76ZM16.85,12c0,1.95-1.16,3.62-2.82,4.39-.44-.55-.31-.94-.11-1.53.23-.68.56-1.68-.53-2.71,0-.05.02-.1.02-.16,0-.5-.26-.93-.65-1.18.16-.47.46-.53,1.02-.64.6-.12,1.44-.29,2-1.2.67.83,1.08,1.87,1.08,3.02ZM12,7.15c1.04,0,2,.34,2.79.89-.25.66-.66.74-1.27.86-.7.14-1.73.35-2.08,1.81-.48.21-.81.67-.84,1.22-.49.1-.69-.13-1.06-.56-.41-.47-.98-1.11-2.05-1.13.71-1.81,2.46-3.1,4.51-3.1ZM7.15,12c0-.15.03-.29.04-.44.69-.1.96.2,1.37.67.38.43.89,1.03,1.82,1.03.23,0,.5-.06.78-.14.23.17.52.28.83.28.23,0,.45-.06.64-.16.33.37.23.67.05,1.2-.2.58-.47,1.4.04,2.34-.24.04-.48.07-.73.07-2.67,0-4.85-2.18-4.85-4.85Z" style="fill: #66f; stroke-width: 0px;"/>
</svg>