<?xml version="1.0" encoding="UTF-8"?>
<svg id="TF" xmlns="http://www.w3.org/2000/svg" viewBox="0 0 24 24">
  <path d="M21.84,16.01c-.18-.25-.52-.3-.77-.12-4.41,3.25-6.44,2.04-8.79.64-2.35-1.4-5.01-2.98-10.01.7-.24.18-.3.52-.12.77.18.24.52.3.77.12,4.41-3.25,6.44-2.04,8.79-.64,1.27.76,2.64,1.57,4.42,1.57,1.5,0,3.3-.58,5.59-2.27.24-.18.3-.52.12-.77Z"/>
  <path d="M2.6,8.22c.11,0,.23-.03.33-.11,4.41-3.25,6.44-2.04,8.79-.64.26.15.6.07.75-.19.16-.26.07-.6-.19-.75-2.35-1.4-5.01-2.98-10.01.7-.24.18-.3.52-.12.77.11.15.27.22.44.22Z"/>
  <path d="M2.6,13.22c.11,0,.23-.03.33-.11,4.41-3.25,6.44-2.04,8.79-.64.26.15.6.07.75-.19.16-.26.07-.6-.19-.75-2.35-1.4-5.01-2.98-10.01.7-.24.18-.3.52-.12.77.11.15.27.22.44.22Z"/>
  <path d="M14.23,15.02c.29.09.6-.06.7-.35l.71-2.12h3.54l.71,2.12c.08.23.29.38.52.38.06,0,.12,0,.17-.03.29-.1.44-.41.35-.7l-3-9c-.15-.45-.89-.45-1.04,0l-3,9c-.1.29.06.6.35.7ZM17.4,7.24l1.4,4.21h-2.81l1.4-4.21Z"/>
</svg>