<?xml version="1.0" encoding="UTF-8"?>
<svg id="FL" xmlns="http://www.w3.org/2000/svg" viewBox="0 0 24 24">
  <path d="M12,22.05c-5.54,0-10.05-4.51-10.05-10.05,0-1.85.52-3.68,1.48-5.25h-.83c-.36,0-.65-.29-.65-.65v-3.5c0-.36.29-.65.65-.65h9.4c5.54,0,10.05,4.51,10.05,10.05,0,1.76-.47,3.49-1.35,5.02-.18.31-.58.42-.89.24-.31-.18-.42-.58-.24-.89.77-1.33,1.18-2.84,1.18-4.37,0-4.82-3.93-8.75-8.75-8.75H3.25v2.2h1.44c.25,0,.48.14.59.37s.08.49-.08.69c-1.27,1.57-1.94,3.47-1.94,5.49,0,4.82,3.93,8.75,8.75,8.75,1.53,0,3.04-.41,4.37-1.18.31-.18.71-.07.89.24.18.31.07.71-.24.89-1.53.89-3.27,1.35-5.02,1.35Z" style="fill: #000; stroke-width: 0px;"/>
</svg>