<?xml version="1.0" encoding="UTF-8"?>
<svg id="HF" xmlns="http://www.w3.org/2000/svg" viewBox="0 0 24 24">
  <path d="M21.07,10.89c-4.41,3.25-6.44,2.04-8.79.64-2.35-1.4-5.01-2.98-10.01.7-.24.18-.3.52-.12.77.18.24.52.3.77.12,4.41-3.25,6.44-2.04,8.79-.64,1.27.76,2.64,1.57,4.42,1.57,1.5,0,3.3-.58,5.59-2.27.24-.18.3-.52.12-.77-.18-.25-.52-.3-.77-.12Z" style="fill: #606060;"/>
  <path d="M2.93,8.11c4.41-3.25,6.44-2.04,8.79-.64,1.27.76,2.64,1.57,4.42,1.57,1.5,0,3.3-.58,5.59-2.27.24-.18.3-.52.12-.77-.18-.25-.52-.3-.77-.12-4.41,3.25-6.44,2.04-8.79.64-2.35-1.4-5.01-2.98-10.01.7-.24.18-.3.52-.12.77.18.24.52.3.77.12Z" style="fill: #606060;"/>
</svg>