<?xml version="1.0" encoding="UTF-8"?>
<svg id="TL" xmlns="http://www.w3.org/2000/svg" viewBox="0 0 24 24">
  <path d="M20.98,10.14l-8.66-5c-.31-.18-.71-.07-.89.24-.18.31-.07.71.24.89l8.66,5c.38.22.42.59.42.74s-.04.51-.43.74l-8.66,5c-.31.18-.42.58-.24.89.12.21.34.32.56.32.11,0,.22-.03.32-.09l8.66-5c.67-.39,1.08-1.08,1.08-1.86s-.4-1.47-1.07-1.86Z" style="fill: #000; stroke-width: 0px;"/>
  <path d="M14.91,12c0-.78-.4-1.47-1.07-1.86L5.17,5.14c-.67-.39-1.48-.39-2.15,0-.67.39-1.07,1.08-1.07,1.86v10c0,.78.4,1.47,1.07,1.86.34.19.71.29,1.08.29s.74-.1,1.07-.29c.31-.18.42-.58.24-.89-.18-.31-.58-.42-.89-.24-.38.22-.72.07-.85,0-.13-.07-.43-.29-.43-.74V7c0-.44.3-.66.43-.74.13-.07.47-.22.85,0l8.66,5c.38.22.42.59.42.74s-.04.51-.43.74l-5.2,3c-.31.18-.42.58-.24.89.18.31.58.42.89.24l5.2-3c.67-.39,1.08-1.08,1.08-1.86Z" style="fill: #000; stroke-width: 0px;"/>
</svg>