<?xml version="1.0" encoding="UTF-8"?>
<svg id="TF" xmlns="http://www.w3.org/2000/svg" viewBox="0 0 24 24">
  <path d="M19.9,4.45H4.1c-1.13,0-2.05.92-2.05,2.05v11c0,1.13.92,2.05,2.05,2.05h15.8c1.13,0,2.05-.92,2.05-2.05V6.5c0-1.13-.92-2.05-2.05-2.05ZM15.39,13.34l-3.93,2.27c-.24.14-.51.21-.78.21s-.53-.07-.77-.21c-.49-.28-.78-.78-.78-1.34v-4.54c0-.56.29-1.06.78-1.34.48-.28,1.07-.28,1.55,0l3.93,2.27h0c.48.28.77.78.77,1.34s-.29,1.06-.77,1.34Z" style="fill: #404040; stroke-width: 0px;"/>
  <path d="M14.84,11.61l-3.93-2.27c-.08-.05-.16-.06-.22-.06-.1,0-.19.04-.23.06-.07.04-.23.16-.23.39v4.54c0,.23.16.35.23.39s.25.12.45,0l3.93-2.27c.2-.12.22-.31.22-.39s-.02-.27-.22-.39Z" style="fill: #404040; stroke-width: 0px;"/>
</svg>