<?xml version="1.0" encoding="UTF-8"?>
<svg id="HL" xmlns="http://www.w3.org/2000/svg" viewBox="0 0 24 24">
  <path d="M10.69,15.92c-.28,0-.57-.07-.82-.22-.52-.3-.83-.83-.83-1.43v-4.54c0-.6.31-1.13.83-1.43.52-.3,1.13-.3,1.65,0l3.93,2.27h0c.52.3.82.83.82,1.43s-.31,1.13-.82,1.43l-3.93,2.27c-.26.15-.54.22-.83.22ZM10.69,9.38c-.08,0-.14.03-.18.05-.05.03-.17.12-.17.3v4.54c0,.18.12.27.17.3.05.03.19.09.35,0l3.93-2.27c.16-.09.17-.24.17-.3s-.02-.21-.17-.3l-3.93-2.27c-.06-.04-.12-.05-.17-.05Z" style="fill: #66f; stroke-width: 0px;"/>
</svg>