<?xml version="1.0" encoding="UTF-8"?>
<svg id="TF" xmlns="http://www.w3.org/2000/svg" viewBox="0 0 24 24">
  <path d="M14.5,8.15c-.3,0-.55-.25-.55-.55V2.05h-7.95c-1.13,0-2.05.92-2.05,2.05v15.8c0,1.13.92,2.05,2.05,2.05h12c1.13,0,2.05-.92,2.05-2.05v-11.75h-5.55ZM16,17.55h-8c-.3,0-.55-.25-.55-.55s.25-.55.55-.55h8c.3,0,.55.25.55.55s-.25.55-.55.55ZM16,14.55h-8c-.3,0-.55-.25-.55-.55s.25-.55.55-.55h8c.3,0,.55.25.55.55s-.25.55-.55.55Z" style="fill: #404040; stroke-width: 0px;"/>
  <polygon points="15.05 2.37 15.05 7.05 19.73 7.05 15.05 2.37" style="fill: #404040; stroke-width: 0px;"/>
</svg>