<?xml version="1.0" encoding="UTF-8"?>
<svg id="TL" xmlns="http://www.w3.org/2000/svg" viewBox="0 0 24 24">
  <path d="M20.1,2.35c-.1-.24-.34-.4-.6-.4H4.5c-.36,0-.65.29-.65.65s.29.65.65.65h13.43l-4.39,4.39c-.12.12-.19.29-.19.46v11.73l-2.89-2.89c-.25-.25-.67-.25-.92,0s-.25.67,0,.92l4,4c.12.12.29.19.46.19.08,0,.17-.02.25-.05.24-.1.4-.34.4-.6v-13.03l5.31-5.31c.19-.19.24-.47.14-.71Z"/>
  <path d="M9.35,14.1c0,.36.29.65.65.65s.65-.29.65-.65v-6c0-.17-.07-.34-.19-.46l-3-3c-.25-.25-.67-.25-.92,0s-.25.67,0,.92l2.81,2.81v5.73Z"/>
</svg>