<?xml version="1.0" encoding="UTF-8"?>
<svg id="TL" xmlns="http://www.w3.org/2000/svg" viewBox="0 0 24 24">
  <path d="M10.69,15.92c-.28,0-.57-.07-.82-.22-.52-.3-.83-.83-.83-1.43v-4.54c0-.6.31-1.13.83-1.43.52-.3,1.13-.3,1.65,0l3.93,2.27h0c.52.3.82.83.82,1.43s-.31,1.13-.82,1.43l-3.93,2.27c-.26.15-.54.22-.83.22ZM10.69,9.38c-.08,0-.14.03-.18.05-.05.03-.17.12-.17.3v4.54c0,.18.12.27.17.3.05.03.19.09.35,0l3.93-2.27c.16-.09.17-.24.17-.3s-.02-.21-.17-.3l-3.93-2.27c-.06-.04-.12-.05-.17-.05Z" style="fill: #000; stroke-width: 0px;"/>
  <path d="M17.9,19.65H4.1c-1.19,0-2.15-.96-2.15-2.15V6.5c0-1.19.96-2.15,2.15-2.15h15.8c1.19,0,2.15.96,2.15,2.15v9c0,.36-.29.65-.65.65s-.65-.29-.65-.65V6.5c0-.47-.38-.85-.85-.85H4.1c-.47,0-.85.38-.85.85v11c0,.47.38.85.85.85h13.8c.36,0,.65.29.65.65s-.29.65-.65.65Z" style="fill: #000; stroke-width: 0px;"/>
</svg>