<?xml version="1.0" encoding="UTF-8"?>
<svg id="HL" xmlns="http://www.w3.org/2000/svg" viewBox="0 0 24 24">
  <path d="M12,19.05c-2.91,0-4.21-1.92-4.21-3.83,0-1.67.85-2.62,1.53-3.38.51-.57.82-.94.82-1.41,0-.2.09-.38.24-.51.15-.12.35-.17.54-.13.59.13,1.53.59,2.13,1.56.02-.08.05-.15.07-.23.06-.19.21-.35.39-.42.19-.07.4-.05.58.06,1.09.69,2.12,2.86,2.12,4.46,0,1.91-1.3,3.83-4.21,3.83ZM11.26,11.33c-.22.53-.6.96-.97,1.38-.62.69-1.2,1.35-1.2,2.52,0,1.59,1.09,2.53,2.91,2.53s2.91-.95,2.91-2.53c0-.85-.42-1.96-.9-2.69-.23.61-.44,1.05-.45,1.07-.13.27-.42.42-.72.36-.29-.06-.51-.31-.52-.61-.04-1.14-.6-1.73-1.07-2.03Z" style="fill: #66f; stroke-width: 0px;"/>
</svg>