<?xml version="1.0" encoding="UTF-8"?>
<svg id="FF" xmlns="http://www.w3.org/2000/svg" viewBox="0 0 24 24">
  <path d="M15.77,4.49c-.16-.08-.35-.07-.51.02-.16.09-.26.25-.27.43-.07.73-.29,1.33-.52,1.77-1.29-3.54-4.85-4.59-5.02-4.63-.14-.04-.29-.02-.42.05-.13.07-.22.2-.26.34-.36,1.41-1.33,2.57-2.35,3.81-1.58,1.9-3.37,4.06-3.37,7.63,0,5.12,3.26,8.05,8.95,8.05s8.95-2.93,8.95-8.05c0-3.6-2.92-8.35-5.18-9.41ZM12,18.95c-2.84,0-4.11-1.87-4.11-3.73,0-1.63.83-2.56,1.51-3.31.53-.59.85-.97.85-1.48,0-.17.08-.32.2-.43s.3-.15.46-.11c.61.13,1.6.63,2.18,1.7.05-.14.1-.29.14-.44.05-.16.17-.3.33-.36.16-.06.34-.04.49.05,1.07.67,2.07,2.8,2.07,4.38,0,1.86-1.27,3.73-4.11,3.73Z" style="fill: #000; stroke-width: 0px;"/>
</svg>