<?xml version="1.0" encoding="UTF-8"?>
<svg id="FL" xmlns="http://www.w3.org/2000/svg" viewBox="0 0 24 24">
  <path d="M12,22.05c-5.75,0-9.05-2.97-9.05-8.15,0-3.61,1.8-5.78,3.4-7.7,1.02-1.22,1.98-2.38,2.33-3.77.04-.17.15-.31.3-.4.15-.09.33-.11.5-.06.19.05,4.55,1.33,5.4,5.87.07.35-.17.69-.52.76-.36.06-.69-.17-.76-.52-.53-2.84-2.8-4.16-3.89-4.64-.51,1.34-1.42,2.44-2.38,3.59-1.52,1.83-3.09,3.73-3.09,6.86s1.34,6.85,7.75,6.85,7.75-3.73,7.75-6.85-2.61-7.44-4.49-8.33c-.33-.15-.46-.54-.31-.86.15-.33.54-.47.86-.31,2.31,1.08,5.23,5.77,5.23,9.5,0,5.18-3.3,8.15-9.05,8.15Z" style="fill: #000; stroke-width: 0px;"/>
</svg>