<?xml version="1.0" encoding="UTF-8"?>
<svg id="TL" xmlns="http://www.w3.org/2000/svg" viewBox="0 0 24 24">
  <path d="M9.2,2.95h-4.1c-1.19,0-2.15.96-2.15,2.15v6.65c0,.36.29.65.65.65s.65-.29.65-.65v-3.1h3.35c.36,0,.65-.29.65-.65s-.29-.65-.65-.65h-3.35v-2.25c0-.47.38-.85.85-.85h4.1c.36,0,.65-.29.65-.65s-.29-.65-.65-.65Z" style="fill: #000; stroke-width: 0px;"/>
  <path d="M18.9,2.95h-2.6c-1.19,0-2.15.96-2.15,2.15v3.45h-3.45c-1.19,0-2.15.96-2.15,2.15v3.45h-3.45c-1.19,0-2.15.96-2.15,2.15v2.6c0,1.19.96,2.15,2.15,2.15h11.8c.36,0,.65-.29.65-.65s-.29-.65-.65-.65H5.1c-.47,0-.85-.38-.85-.85v-2.6c0-.47.38-.85.85-.85h9.3c.36,0,.65-.29.65-.65s-.29-.65-.65-.65h-4.55v-3.45c0-.47.38-.85.85-.85h6.7c.36,0,.65-.29.65-.65s-.29-.65-.65-.65h-1.95v-3.45c0-.47.38-.85.85-.85h2.6c.47,0,.85.38.85.85v11.8c0,.36.29.65.65.65s.65-.29.65-.65V5.1c0-1.19-.96-2.15-2.15-2.15Z" style="fill: #000; stroke-width: 0px;"/>
</svg>