<?xml version="1.0" encoding="UTF-8"?>
<svg id="TF" xmlns="http://www.w3.org/2000/svg" viewBox="0 0 24 24">
  <path d="M3.6,12.3c.3,0,.55-.25.55-.55v-3.1h3.45c.3,0,.55-.25.55-.55s-.25-.55-.55-.55h-3.45v-2.45c0-.52.43-.95.95-.95h4.1c.3,0,.55-.25.55-.55s-.25-.55-.55-.55h-4.1c-1.13,0-2.05.92-2.05,2.05v6.65c0,.3.25.55.55.55Z" style="fill: #404040; stroke-width: 0px;"/>
  <path d="M18.9,3.05h-2.6c-1.13,0-2.05.92-2.05,2.05v2.45h3.15c.3,0,.55.25.55.55s-.25.55-.55.55h-6.7c-1.13,0-2.05.92-2.05,2.05v2.45h5.75c.3,0,.55.25.55.55s-.25.55-.55.55H5.1c-1.13,0-2.05.92-2.05,2.05v2.6c0,1.13.92,2.05,2.05,2.05h13.8c1.13,0,2.05-.92,2.05-2.05V5.1c0-1.13-.92-2.05-2.05-2.05Z" style="fill: #404040; stroke-width: 0px;"/>
</svg>