<?xml version="1.0" encoding="UTF-8"?>
<svg id="FL" xmlns="http://www.w3.org/2000/svg" viewBox="0 0 24 24">
  <path d="M18.15,20.15H4.1c-1.19,0-2.15-.96-2.15-2.15V6c0-1.19.96-2.15,2.15-2.15h5.3c.17,0,.34.07.46.19l1,1c.25.25.25.67,0,.92s-.67.25-.92,0l-.81-.81h-5.03c-.47,0-.85.38-.85.85v12c0,.47.38.85.85.85h14.05c.41,0,.76-.29.83-.7l1.64-9H7.14l-1.36,7.47c-.07.35-.41.58-.76.52-.35-.06-.59-.4-.52-.76l1.45-8c.06-.31.33-.53.64-.53h14.8c.19,0,.38.09.5.23s.17.34.14.53l-1.78,9.77c-.19,1.02-1.08,1.76-2.11,1.76Z" style="fill: #000; stroke-width: 0px;"/>
</svg>