<?xml version="1.0" encoding="UTF-8"?>
<svg id="TF" xmlns="http://www.w3.org/2000/svg" viewBox="0 0 24 24">
  <path d="M5.68,6.85h6.85l-2.74-2.74c-.1-.1-.24-.16-.39-.16h-5.3c-1.13,0-2.05.92-2.05,2.05v12c0,.68.34,1.28.85,1.65l2.24-12.35c.05-.26.28-.45.54-.45Z" style="fill: #404040; stroke-width: 0px;"/>
  <path d="M21.82,8.15c-.1-.12-.26-.2-.42-.2h-7.77s-7.49,0-7.49,0l-2.2,12.08c.05,0,.1.02.16.02h14.05c.99,0,1.84-.71,2.01-1.68l1.78-9.77c.03-.16-.01-.33-.12-.45ZM16.95,17.05h-4c-.3,0-.55-.25-.55-.55s.25-.55.55-.55h4c.3,0,.55.25.55.55s-.25.55-.55.55Z" style="fill: #404040; stroke-width: 0px;"/>
</svg>