<?xml version="1.0" encoding="UTF-8"?>
<svg id="HL" xmlns="http://www.w3.org/2000/svg" viewBox="0 0 24 24">
  <path d="M9.5,6.35h-2.5c-.36,0-.65.29-.65.65v2.5c0,.36.29.65.65.65s.65-.29.65-.65v-1.85h1.85c.36,0,.65-.29.65-.65s-.29-.65-.65-.65Z" style="fill: #66f; stroke-width: 0px;"/>
  <path d="M17,6.35h-2.5c-.36,0-.65.29-.65.65s.29.65.65.65h1.85v1.85c0,.36.29.65.65.65s.65-.29.65-.65v-2.5c0-.36-.29-.65-.65-.65Z" style="fill: #66f; stroke-width: 0px;"/>
  <path d="M17,13.85c-.36,0-.65.29-.65.65v1.85h-1.85c-.36,0-.65.29-.65.65s.29.65.65.65h2.5c.36,0,.65-.29.65-.65v-2.5c0-.36-.29-.65-.65-.65Z" style="fill: #66f; stroke-width: 0px;"/>
  <path d="M9.5,16.35h-1.85v-1.85c0-.36-.29-.65-.65-.65s-.65.29-.65.65v2.5c0,.36.29.65.65.65h2.5c.36,0,.65-.29.65-.65s-.29-.65-.65-.65Z" style="fill: #66f; stroke-width: 0px;"/>
</svg>