<?xml version="1.0" encoding="UTF-8"?>
<svg id="TL" xmlns="http://www.w3.org/2000/svg" viewBox="0 0 24 24">
  <g>
    <path d="M9.5,6.35h-2.5c-.36,0-.65.29-.65.65v2.5c0,.36.29.65.65.65s.65-.29.65-.65v-1.85h1.85c.36,0,.65-.29.65-.65s-.29-.65-.65-.65Z" style="fill: #000; stroke-width: 0px;"/>
    <path d="M17,6.35h-2.5c-.36,0-.65.29-.65.65s.29.65.65.65h1.85v1.85c0,.36.29.65.65.65s.65-.29.65-.65v-2.5c0-.36-.29-.65-.65-.65Z" style="fill: #000; stroke-width: 0px;"/>
    <path d="M17,13.85c-.36,0-.65.29-.65.65v1.85h-1.85c-.36,0-.65.29-.65.65s.29.65.65.65h2.5c.36,0,.65-.29.65-.65v-2.5c0-.36-.29-.65-.65-.65Z" style="fill: #000; stroke-width: 0px;"/>
    <path d="M9.5,16.35h-1.85v-1.85c0-.36-.29-.65-.65-.65s-.65.29-.65.65v2.5c0,.36.29.65.65.65h2.5c.36,0,.65-.29.65-.65s-.29-.65-.65-.65Z" style="fill: #000; stroke-width: 0px;"/>
  </g>
  <path d="M16.9,21.05H5.1c-1.19,0-2.15-.96-2.15-2.15V5.1c0-1.19.96-2.15,2.15-2.15h13.8c1.19,0,2.15.96,2.15,2.15v11.8c0,.36-.29.65-.65.65s-.65-.29-.65-.65V5.1c0-.47-.38-.85-.85-.85H5.1c-.47,0-.85.38-.85.85v13.8c0,.47.38.85.85.85h11.8c.36,0,.65.29.65.65s-.29.65-.65.65Z" style="fill: #000; stroke-width: 0px;"/>
</svg>