<?xml version="1.0" encoding="UTF-8"?>
<svg id="TF" xmlns="http://www.w3.org/2000/svg" viewBox="0 0 24 24">
  <path d="M18.9,3.05H5.1c-1.13,0-2.05.92-2.05,2.05v13.8c0,1.13.92,2.05,2.05,2.05h13.8c1.13,0,2.05-.92,2.05-2.05V5.1c0-1.13-.92-2.05-2.05-2.05ZM9.5,17.55h-2.5c-.3,0-.55-.25-.55-.55v-2.5c0-.3.25-.55.55-.55s.55.25.55.55v1.95h1.95c.3,0,.55.25.55.55s-.25.55-.55.55ZM9.5,7.55h-1.95v1.95c0,.3-.25.55-.55.55s-.55-.25-.55-.55v-2.5c0-.3.25-.55.55-.55h2.5c.3,0,.55.25.55.55s-.25.55-.55.55ZM17.55,17c0,.3-.25.55-.55.55h-2.5c-.3,0-.55-.25-.55-.55s.25-.55.55-.55h1.95v-1.95c0-.3.25-.55.55-.55s.55.25.55.55v2.5ZM17.55,9.5c0,.3-.25.55-.55.55s-.55-.25-.55-.55v-1.95h-1.95c-.3,0-.55-.25-.55-.55s.25-.55.55-.55h2.5c.3,0,.55.25.55.55v2.5Z" style="fill: #404040; stroke-width: 0px;"/>
</svg>