<?xml version="1.0" encoding="UTF-8"?>
<svg id="HF" xmlns="http://www.w3.org/2000/svg" viewBox="0 0 24 24">
  <path d="M17,10.05c-.3,0-.55-.25-.55-.55v-1.95h-1.95c-.3,0-.55-.25-.55-.55s.25-.55.55-.55h-5c.3,0,.55.25.55.55s-.25.55-.55.55h-1.95v1.95c0,.3-.25.55-.55.55s-.55-.25-.55-.55v5c0-.3.25-.55.55-.55s.55.25.55.55v1.95h1.95c.3,0,.55.25.55.55s-.25.55-.55.55h5c-.3,0-.55-.25-.55-.55s.25-.55.55-.55h1.95v-1.95c0-.3.25-.55.55-.55s.55.25.55.55v-5c0,.3-.25.55-.55.55Z" style="fill: #606060; stroke-width: 0px;"/>
</svg>