<?xml version="1.0" encoding="UTF-8"?>
<svg id="TF" xmlns="http://www.w3.org/2000/svg" viewBox="0 0 24 24">
  <path d="M3.6,13.15c.3,0,.55-.25.55-.55,0-3.01,2.44-5.45,5.45-5.45h9.47l-2.06,2.06c-.21.21-.21.56,0,.78.11.11.25.16.39.16s.28-.05.39-.16l3-3c.21-.21.21-.56,0-.78l-3-3c-.21-.21-.56-.21-.78,0-.21.21-.21.56,0,.78l2.06,2.06h-9.47c-3.61,0-6.55,2.94-6.55,6.55,0,.3.25.55.55.55Z"/>
  <path d="M20.4,10.85c-.3,0-.55.25-.55.55,0,3.01-2.44,5.45-5.45,5.45H4.93l2.06-2.06c.21-.21.21-.56,0-.78-.21-.21-.56-.21-.78,0l-3,3c-.21.21-.21.56,0,.78l3,3c.11.11.25.16.39.16s.28-.05.39-.16c.21-.21.21-.56,0-.78l-2.06-2.06h9.47c3.61,0,6.55-2.94,6.55-6.55,0-.3-.25-.55-.55-.55Z"/>
</svg>