<?xml version="1.0" encoding="UTF-8"?>
<svg id="HF" xmlns="http://www.w3.org/2000/svg" viewBox="0 0 24 24">
  <path d="M16.74,5.95l-.73-.12-4.15.87s-.1.02-.15.01l-3.19-.19s-.09-.01-.14-.03l-3.69-1.22c-1.43,1.55-2.37,3.54-2.59,5.75l2.19-.51c.21-.05.43.03.56.2l.92,1.19c.08.1.12.23.11.37l-.13,2.3.11.29.42-.71c.06-.11.17-.19.29-.24l1.92-.69c.14-.05.3-.04.44.03.14.07.24.19.28.34l.54,1.85,1,.93.27-.18-.71-1.93c-.06-.17-.04-.35.06-.5.1-.15.26-.24.44-.24l2.21-.06,1.59-1.19-.4-1.41c-.06-.21.01-.44.19-.58l1.52-1.21-.22-1.56c-.02-.15.02-.31.12-.43l.94-1.14Z" style="fill: #606060; stroke-width: 0px;"/>
  <path d="M19.77,15.39l-.46,1.22c-.08.21-.29.36-.51.36h-1.41l-2.34,1.71,1.48,2.18c2.27-1.17,4.03-3.18,4.87-5.62l-1.63.16Z" style="fill: #606060; stroke-width: 0px;"/>
</svg>