<?xml version="1.0" encoding="UTF-8"?>
<svg id="FF" xmlns="http://www.w3.org/2000/svg" viewBox="0 0 24 24">
  <path d="M13.84,18.85c-.17-.25-.11-.58.13-.75l2.92-2.12c.09-.07.21-.11.32-.11h1.2l.45-1.19c.07-.2.25-.33.46-.35l2.4-.23c.15-.68.23-1.38.23-2.1,0-5.49-4.46-9.95-9.95-9.95-2.45,0-4.68.89-6.42,2.36l3.08,1.02,3.05.19,4.18-.87c.07-.01.13-.02.2,0l1.78.28c.2.03.36.16.43.35.07.18.04.39-.09.54l-1.4,1.69.23,1.63c.03.19-.05.39-.2.51l-1.48,1.17.4,1.43c.06.22-.02.45-.2.59l-2.04,1.52c-.09.07-.2.1-.31.11l-1.61.05.6,1.61c.09.24,0,.5-.21.65l-.99.67c-.09.06-.2.09-.31.09-.14,0-.27-.05-.38-.15l-1.43-1.33c-.07-.07-.12-.15-.15-.25l-.42-1.44-1.18.43-.9,1.52c-.11.18-.32.28-.52.27-.21-.02-.39-.16-.47-.35l-.56-1.47c-.03-.07-.04-.15-.03-.23l.13-2.21-.58-.75-2.14.49c.09,5.41,4.51,9.79,9.94,9.79,1.23,0,2.41-.24,3.5-.65l-1.67-2.45Z" style="fill: #000; stroke-width: 0px;"/>
</svg>