<?xml version="1.0" encoding="UTF-8"?>
<svg id="TL" xmlns="http://www.w3.org/2000/svg" viewBox="0 0 24 24">
  <path d="M10.68,17.73c-.16,0-.32-.06-.44-.17l-1.43-1.33c-.09-.08-.15-.18-.18-.29l-.39-1.33-1.05.38-.88,1.49c-.13.21-.37.35-.62.32-.25-.02-.46-.18-.55-.42l-.56-1.47c-.03-.08-.05-.18-.04-.27l.12-2.18-.51-.67-1.39.32c-.35.08-.7-.14-.78-.49-.08-.35.14-.7.49-.78l1.8-.42c.25-.06.51.04.66.24l.92,1.19c.09.12.14.28.13.43l-.13,2.28.03.07.31-.53c.08-.13.2-.23.34-.28l1.92-.69c.17-.06.36-.05.52.03.16.08.28.23.33.4l.53,1.83.92.86.14-.09-.68-1.85c-.07-.2-.05-.42.07-.59.12-.17.31-.28.52-.29l2.17-.06,1.51-1.13-.38-1.35c-.07-.25.02-.52.22-.69l1.48-1.17-.22-1.51c-.03-.18.03-.37.14-.51l.83-1.01-.54-.09-4.13.86c-.06.01-.11.02-.17.01l-3.19-.19c-.06,0-.11-.01-.17-.03l-2.86-.94c-.34-.11-.53-.48-.41-.82.11-.34.48-.53.82-.41l2.78.92,3.02.18,4.17-.87c.08-.02.16-.02.24,0l1.78.28c.23.04.42.19.51.41s.04.46-.11.64l-1.37,1.66.23,1.59c.03.23-.06.46-.24.6l-1.43,1.13.38,1.36c.07.26-.02.54-.24.7l-2.04,1.52c-.11.08-.24.12-.37.13l-1.48.04.55,1.48c.1.28,0,.6-.25.76l-.99.67c-.11.07-.24.11-.36.11Z" style="fill: #000; stroke-width: 0px;"/>
  <path d="M15.72,21.29c-.21,0-.41-.1-.54-.28l-1.42-2.09c-.2-.29-.13-.68.15-.89l2.92-2.12c.11-.08.25-.12.38-.12h1.13l.42-1.12c.09-.23.3-.39.55-.42l1.62-.16c.35-.04.67.23.71.58.03.36-.23.67-.58.71l-1.22.12-.44,1.16c-.1.25-.34.42-.61.42h-1.37l-2.24,1.63,1.07,1.57c.2.3.12.7-.17.9-.11.08-.24.11-.36.11Z" style="fill: #000; stroke-width: 0px;"/>
  <path d="M12,1.95C6.46,1.95,1.95,6.46,1.95,12s4.51,10.05,10.05,10.05c1.76,0,3.49-.47,5.02-1.35.31-.18.42-.58.24-.89-.18-.31-.58-.42-.89-.24-1.33.77-2.84,1.18-4.37,1.18-4.83,0-8.75-3.93-8.75-8.75S7.17,3.25,12,3.25s8.75,3.93,8.75,8.75c0,1.53-.41,3.04-1.18,4.37-.18.31-.07.71.24.89.31.18.71.07.89-.24.89-1.53,1.35-3.27,1.35-5.02,0-5.54-4.51-10.05-10.05-10.05Z" style="fill: #000; stroke-width: 0px;"/>
</svg>