<?xml version="1.0" encoding="UTF-8"?>
<svg id="FF" xmlns="http://www.w3.org/2000/svg" viewBox="0 0 24 24">
  <rect x="9.93" y="13.09" width="2.1" height="2.1" rx=".55" ry=".55"/>
  <path d="M14.5,8.15c-.3,0-.55-.25-.55-.55V2.05h-7.95c-1.13,0-2.05.92-2.05,2.05v15.8c0,1.13.92,2.05,2.05,2.05h12c1.13,0,2.05-.92,2.05-2.05v-11.75h-5.55ZM17.36,15.22c0,.15-.06.29-.16.39l-2.5,2.5c-.1.1-.24.16-.39.16h-2.7v-1.55c0-.3-.25-.55-.55-.55s-.55.25-.55.55v1.55h-2.33c-.85,0-1.55-.7-1.55-1.55v-2.03h1.55c.3,0,.55-.25.55-.55s-.25-.55-.55-.55h-1.55v-2.03c0-.85.7-1.55,1.55-1.55h2.24v1.55c0,.3.25.55.55.55s.55-.25.55-.55v-1.55h4.28c.85,0,1.55.7,1.55,1.55v3.66Z"/>
</svg>