<?xml version="1.0" encoding="UTF-8"?>
<svg id="TL" xmlns="http://www.w3.org/2000/svg" viewBox="0 0 24 24">
  <path d="M19.5,15.1c-.36,0-.65.29-.65.65v4.15c0,.47-.38.85-.85.85H6c-.47,0-.85-.38-.85-.85V4.1c0-.47.38-.85.85-.85h7.85v4.35c0,.36.29.65.65.65h5c.26,0,.5-.16.6-.4.1-.24.04-.52-.14-.71l-5-5c-.12-.12-.29-.19-.46-.19H6c-1.19,0-2.15.96-2.15,2.15v15.8c0,1.19.96,2.15,2.15,2.15h12c1.19,0,2.15-.96,2.15-2.15v-4.15c0-.36-.29-.65-.65-.65ZM15.15,4.17l2.78,2.78h-2.78v-2.78Z"/>
  <path d="M8.19,9.9c-.91,0-1.65.74-1.65,1.65v5.16c0,.91.74,1.65,1.65,1.65h6.12c.17,0,.34-.07.46-.19l2.5-2.5c.12-.12.19-.29.19-.46v-3.66c0-.91-.74-1.65-1.65-1.65h-7.62ZM16.16,11.55v3.4l-2.12,2.12h-2.33v-.35c0-.36-.29-.65-.65-.65s-.65.29-.65.65v.35h-2.22c-.19,0-.35-.16-.35-.35v-1.93h.35c.36,0,.65-.29.65-.65s-.29-.65-.65-.65h-.35v-1.93c0-.19.16-.35.35-.35h2.14v.35c0,.36.29.65.65.65s.65-.29.65-.65v-.35h4.18c.19,0,.35.16.35.35Z"/>
  <rect x="9.83" y="12.99" width="2.3" height="2.3" rx=".65" ry=".65"/>
</svg>