<?xml version="1.0" encoding="UTF-8"?>
<svg id="FF" xmlns="http://www.w3.org/2000/svg" viewBox="0 0 24 24">
  <rect x="8.55" y="10.55" width="2.9" height="2.9" style="fill: #000; stroke-width: 0px;"/>
  <path d="M19.9,4.45h-9.35v2.55c0,.3-.25.55-.55.55s-.55-.25-.55-.55v-2.55h-5.35c-1.13,0-2.05.92-2.05,2.05v4.95h2.95c.3,0,.55.25.55.55s-.25.55-.55.55h-2.95v4.95c0,1.13.92,2.05,2.05,2.05h5.35v-2.55c0-.3.25-.55.55-.55s.55.25.55.55v2.55h5.3v-5.55c0-.3.25-.55.55-.55h5.55v-6.95c0-1.13-.92-2.05-2.05-2.05ZM12.55,14c0,.3-.25.55-.55.55h-4c-.3,0-.55-.25-.55-.55v-4c0-.3.25-.55.55-.55h4c.3,0,.55.25.55.55v4Z" style="fill: #000; stroke-width: 0px;"/>
</svg>