<?xml version="1.0" encoding="UTF-8"?>
<svg id="HL" xmlns="http://www.w3.org/2000/svg" viewBox="0 0 24 24">
  <path d="M15.81,9.9h-7.62c-.91,0-1.65.74-1.65,1.65v5.16c0,.91.74,1.65,1.65,1.65h6.12c.17,0,.34-.07.46-.19l2.5-2.5c.12-.12.19-.29.19-.46v-3.66c0-.91-.74-1.65-1.65-1.65ZM16.16,14.95l-2.12,2.12h-2.33v-.35c0-.36-.29-.65-.65-.65s-.65.29-.65.65v.35h-2.22c-.19,0-.35-.16-.35-.35v-1.93h.35c.36,0,.65-.29.65-.65s-.29-.65-.65-.65h-.35v-1.93c0-.19.16-.35.35-.35h2.14v.35c0,.36.29.65.65.65s.65-.29.65-.65v-.35h4.18c.19,0,.35.16.35.35v3.4Z" style="fill: #66f;"/>
  <rect x="9.83" y="12.99" width="2.3" height="2.3" rx=".65" ry=".65" style="fill: #66f;"/>
</svg>