<?xml version="1.0" encoding="UTF-8"?>
<svg id="TF" xmlns="http://www.w3.org/2000/svg" viewBox="0 0 24 24">
  <path d="M12.46,20.95c-7.09,0-9.41-5.94-9.41-7.99,0-1.84.17-3.16,2.37-3.39.21-.02.16-.77.12-1.38-.08-1.34-.2-3.17,1.42-4.08h0c.38-.21.86-.28,1.28-.33.22-.03.43-.05.61-.1.1-.03.22-.1.36-.18.32-.19.75-.44,1.41-.44s1.11.19,1.51.36c.26.11.49.21.75.24.27.04.54.02.83,0,.54-.04,1.15-.09,1.88.23.47.21.88.66,1.25,1.06.21.23.45.49.6.57.24.14.4.18.63.24.29.07.65.16,1.24.45,1.43.7,1.62,2.23,1.62,3.63,0,7.37-2.86,11.11-8.49,11.11Z" style="fill: #404040; stroke-width: 0px;"/>
</svg>