<?xml version="1.0" encoding="UTF-8"?>
<svg id="FF" xmlns="http://www.w3.org/2000/svg" viewBox="0 0 24 24">
  <path d="M19.33,6.21c-.38-.19-.67-.29-.9-.36-.28.56-.71.81-1.05.65-.43-.19-.5-.77-.47-1.51-.01-.02-.03-.03-.04-.05-.37-.4-.79-.85-1.25-1.06-.66-.3-1.23-.28-1.73-.24-.14.62-.44.93-.88.86-.39-.07-.58-.46-.74-1.04-.04-.02-.07-.03-.11-.04-.4-.17-.86-.36-1.51-.36-.59,0-.99.2-1.3.37.09.54.03,1-.32,1.08-.37.09-.82-.25-1.19-.66-.3.05-.6.12-.86.26,0,0,0,0,0,0-1.4,2.95.74,6.65-.09,7.18-.38.24-1.29-.09-1.97-1.63-1.7.38-1.86,1.62-1.86,3.3,0,2.05,2.32,7.99,9.41,7.99,5.64,0,8.49-3.74,8.49-11.11,0-1.4-.19-2.93-1.62-3.63Z" style="fill: #000; stroke-width: 0px;"/>
</svg>