<?xml version="1.0" encoding="UTF-8"?>
<svg id="TL" xmlns="http://www.w3.org/2000/svg" viewBox="0 0 24 24">
  <path d="M12,14.65h-4c-.36,0-.65-.29-.65-.65v-4c0-.36.29-.65.65-.65h4c.36,0,.65.29.65.65v4c0,.36-.29.65-.65.65ZM8.65,13.35h2.7v-2.7h-2.7v2.7Z" style="fill: #000; stroke-width: 0px;"/>
  <path d="M21.4,11.65c.36,0,.65-.29.65-.65v-4.5c0-1.19-.96-2.15-2.15-2.15H4.1c-1.19,0-2.15.96-2.15,2.15v11c0,1.19.96,2.15,2.15,2.15h12.3c.18,0,.34-.07.46-.19l5-5c.19-.19.24-.47.14-.71-.1-.24-.34-.4-.6-.4h-5c-.36,0-.65.29-.65.65v4.35h-5.1v-1.35c0-.36-.29-.65-.65-.65s-.65.29-.65.65v1.35h-5.25c-.47,0-.85-.38-.85-.85v-4.85h1.75c.36,0,.65-.29.65-.65s-.29-.65-.65-.65h-1.75v-4.85c0-.47.38-.85.85-.85h5.25v1.35c0,.36.29.65.65.65s.65-.29.65-.65v-1.35h9.25c.47,0,.85.38.85.85v4.5c0,.36.29.65.65.65ZM17.05,14.65h2.78l-2.78,2.78v-2.78Z" style="fill: #000; stroke-width: 0px;"/>
</svg>