<?xml version="1.0" encoding="UTF-8"?>
<svg id="HF" xmlns="http://www.w3.org/2000/svg" viewBox="0 0 24 24">
  <path d="M18.09,5.76c-.23-.06-.39-.1-.63-.24-.13-.08-.35-.31-.55-.53-.03.74.05,1.33.47,1.51.35.15.78-.09,1.05-.65-.13-.04-.24-.07-.34-.09Z" style="fill: #606060; stroke-width: 0px;"/>
  <path d="M12.89,3.66c-.22-.03-.42-.11-.64-.2.16.58.35.97.74,1.04.45.08.74-.24.88-.86-.05,0-.1,0-.15,0-.29.02-.56.04-.83,0Z" style="fill: #606060; stroke-width: 0px;"/>
  <path d="M9.22,3.49c-.14.08-.26.15-.36.18-.18.05-.39.08-.61.1-.14.02-.28.05-.43.07.37.41.82.74,1.19.66.35-.08.41-.54.32-1.08-.04.02-.08.04-.12.06Z" style="fill: #606060; stroke-width: 0px;"/>
  <path d="M6.97,4.11c-1.62.92-1.51,2.74-1.42,4.08.04.6.09,1.36-.12,1.38-.19.02-.35.06-.51.1.67,1.54,1.58,1.87,1.97,1.63.84-.53-1.31-4.23.09-7.18Z" style="fill: #606060; stroke-width: 0px;"/>
</svg>