<?xml version="1.0" encoding="UTF-8"?>
<svg id="TL" xmlns="http://www.w3.org/2000/svg" viewBox="0 0 24 24">
  <path d="M12.46,21.05c-7.17,0-9.51-6.02-9.51-8.09,0-1.89.18-3.25,2.46-3.49.11-.14.06-.82.04-1.27-.09-1.36-.2-3.23,1.47-4.17.4-.22.89-.29,1.32-.35.21-.03.42-.05.59-.1.09-.03.21-.09.34-.17.33-.19.78-.45,1.46-.45s1.14.2,1.55.37c.25.11.47.2.72.24.26.04.53.02.81,0,.55-.04,1.18-.09,1.93.24.49.22.91.68,1.29,1.08.2.21.44.48.57.56.23.13.37.17.6.23.29.07.66.16,1.26.46,1.68.83,1.68,2.85,1.68,3.72,0,3.05-.47,5.41-1.43,7.22-.17.32-.56.44-.88.27-.32-.17-.44-.56-.27-.88.86-1.61,1.28-3.77,1.28-6.61,0-1.48-.28-2.22-.95-2.56-.47-.23-.74-.3-1-.36-.27-.07-.56-.14-.95-.37-.3-.17-.58-.48-.87-.79-.28-.3-.62-.67-.87-.78-.45-.2-.82-.17-1.29-.13-.33.03-.7.06-1.1,0-.41-.06-.75-.2-1.04-.33-.34-.14-.64-.27-1.04-.27-.33,0-.54.12-.81.28-.18.11-.39.23-.64.3-.23.06-.5.1-.78.14-.31.04-.67.09-.85.19-.9.51-.9,1.55-.82,2.96.07,1.06.16,2.5-1.2,2.65-1.1.12-1.3.29-1.3,2.2,0,1.74,2.02,6.79,8.21,6.79,1.39,0,2.56-.26,3.58-.81.32-.17.71-.05.88.27.17.32.05.71-.27.88-1.19.64-2.6.96-4.19.96Z" style="fill: #000; stroke-width: 0px;"/>
</svg>