<?xml version="1.0" encoding="UTF-8"?>
<svg id="TF" xmlns="http://www.w3.org/2000/svg" viewBox="0 0 24 24">
  <path d="M3.18,5.06c-.48,0-.71.23-.71.71,0,.13.04.25.12.36.09.12.18.22.27.3l6.77,5.58-6.77,5.58c-.09.08-.18.18-.27.29-.08.11-.12.23-.12.37,0,.49.23.73.71.73.1,0,.2-.03.29-.09.1-.06.19-.12.27-.19l6.91-5.7c.15-.12.28-.27.4-.44.12-.17.18-.35.18-.55,0-.21-.06-.4-.18-.57-.12-.17-.26-.33-.42-.46L3.74,5.31c-.08-.07-.17-.13-.27-.18-.09-.05-.19-.08-.29-.08Z" style="fill: #333;"/>
  <path d="M13.83,13.24c-.24,0-.44.05-.61.16-.16.1-.24.27-.24.53s.08.43.24.53c.17.1.37.16.61.16h6.85c.24,0,.44-.05.61-.16.16-.1.24-.27.24-.53s-.08-.43-.24-.53c-.17-.1-.37-.16-.61-.16h-6.85Z" style="fill: #333;"/>
  <path d="M13.83,9.36c-.24,0-.44.05-.61.16-.16.1-.24.27-.24.53s.08.43.24.53c.17.1.37.16.61.16h6.85c.24,0,.44-.05.61-.16.16-.1.24-.27.24-.53s-.08-.43-.24-.53c-.17-.1-.37-.16-.61-.16h-6.85Z" style="fill: #333;"/>
</svg>