<?xml version="1.0" encoding="UTF-8"?>
<svg id="TL" xmlns="http://www.w3.org/2000/svg" viewBox="0 0 24 24">
  <path d="M10.7,10.9L3.81,5.23c-.08-.07-.18-.13-.29-.19-.11-.06-.22-.09-.34-.09-.54,0-.81.27-.81.81,0,.15.05.29.14.42.09.13.19.23.29.32l6.68,5.5-6.68,5.5c-.1.08-.19.19-.28.31-.1.12-.14.27-.14.43,0,.55.27.83.81.83.12,0,.23-.03.34-.1.1-.06.2-.13.28-.2l6.91-5.7c.15-.13.29-.28.42-.46.13-.19.19-.39.19-.6,0-.23-.06-.44-.19-.62-.12-.18-.27-.34-.44-.48Z"/>
  <path d="M20.67,13.14h-6.85c-.25,0-.48.06-.66.17-.19.12-.29.33-.29.62s.1.5.29.62c.19.11.41.17.66.17h6.85c.25,0,.48-.06.66-.17.19-.12.29-.33.29-.62s-.1-.5-.29-.62c-.19-.11-.41-.17-.66-.17Z"/>
  <path d="M13.83,10.84h6.85c.25,0,.48-.06.66-.17.19-.12.29-.33.29-.62s-.1-.5-.29-.62c-.19-.11-.41-.17-.66-.17h-6.85c-.25,0-.48.06-.66.17-.19.12-.29.33-.29.62s.1.5.29.62c.19.11.41.17.66.17Z"/>
</svg>