<?xml version="1.0" encoding="UTF-8"?>
<svg id="HF" xmlns="http://www.w3.org/2000/svg" viewBox="0 0 24 24">
  <circle cx="4.35" cy="4.35" r="1.3" style="fill: #606060; stroke-width: 0px;"/>
  <circle cx="19.65" cy="4.35" r="1.3" style="fill: #606060; stroke-width: 0px;"/>
  <circle cx="4.35" cy="19.75" r="1.3" style="fill: #606060; stroke-width: 0px;"/>
  <circle cx="19.65" cy="19.75" r="1.3" style="fill: #606060; stroke-width: 0px;"/>
  <path d="M15.33,3.8h-1.66c-.3,0-.55.25-.55.55s.25.55.55.55h1.66c.3,0,.55-.25.55-.55s-.25-.55-.55-.55Z" style="fill: #606060; stroke-width: 0px;"/>
  <path d="M10.34,3.8h-1.66c-.3,0-.55.25-.55.55s.25.55.55.55h1.66c.3,0,.55-.25.55-.55s-.25-.55-.55-.55Z" style="fill: #606060; stroke-width: 0px;"/>
  <path d="M3.8,15.32c0,.3.25.55.55.55s.55-.25.55-.55v-1.66c0-.3-.25-.55-.55-.55s-.55.25-.55.55v1.66Z" style="fill: #606060; stroke-width: 0px;"/>
  <path d="M4.35,10.89c.3,0,.55-.25.55-.55v-1.66c0-.3-.25-.55-.55-.55s-.55.25-.55.55v1.66c0,.3.25.55.55.55Z" style="fill: #606060; stroke-width: 0px;"/>
  <path d="M15.33,19.1h-1.66c-.3,0-.55.25-.55.55s.25.55.55.55h1.66c.3,0,.55-.25.55-.55s-.25-.55-.55-.55Z" style="fill: #606060; stroke-width: 0px;"/>
  <path d="M10.34,19.1h-1.66c-.3,0-.55.25-.55.55s.25.55.55.55h1.66c.3,0,.55-.25.55-.55s-.25-.55-.55-.55Z" style="fill: #606060; stroke-width: 0px;"/>
  <path d="M20.2,8.68c0-.3-.25-.55-.55-.55s-.55.25-.55.55v1.66c0,.3.25.55.55.55s.55-.25.55-.55v-1.66Z" style="fill: #606060; stroke-width: 0px;"/>
  <path d="M19.65,13.11c-.3,0-.55.25-.55.55v1.66c0,.3.25.55.55.55s.55-.25.55-.55v-1.66c0-.3-.25-.55-.55-.55Z" style="fill: #606060; stroke-width: 0px;"/>
</svg>