<?xml version="1.0" encoding="UTF-8"?>
<svg id="TL" xmlns="http://www.w3.org/2000/svg" viewBox="0 0 24 24">
  <path d="M21.86,12.6l-1.77-1.77c.79-.89,1.44-1.92,1.92-3.07.14-.33-.02-.71-.35-.85-.33-.14-.71.02-.85.35-1.47,3.59-4.93,5.9-8.8,5.9s-7.33-2.32-8.8-5.9c-.14-.33-.52-.49-.85-.35-.33.14-.49.52-.35.85.47,1.15,1.13,2.18,1.92,3.07l-1.77,1.77c-.25.25-.25.67,0,.92.13.13.29.19.46.19s.33-.06.46-.19l1.77-1.77c1.09.96,2.36,1.7,3.75,2.16l-.65,2.42c-.09.35.11.7.46.8.06.02.11.02.17.02.29,0,.55-.19.63-.48l.65-2.43c.7.14,1.42.22,2.16.22s1.46-.08,2.16-.22l.65,2.43c.08.29.34.48.63.48.06,0,.11,0,.17-.02.35-.09.55-.45.46-.8l-.65-2.42c1.39-.46,2.66-1.2,3.75-2.16l1.77,1.77c.13.13.29.19.46.19s.33-.06.46-.19c.25-.25.25-.67,0-.92Z" style="fill: #000; stroke-width: 0px;"/>
</svg>