<?xml version="1.0" encoding="UTF-8"?>
<svg id="FF" xmlns="http://www.w3.org/2000/svg" viewBox="0 0 24 24">
  <path d="M14.62,14.38c-.65.71-1.58,1.17-2.62,1.17-1.96,0-3.55-1.59-3.55-3.55,0-.45.09-.88.25-1.28l-4.14-2.56c-1.04,1.01-1.89,2.23-2.46,3.63-.06.13-.06.28,0,.42,1.66,4.04,5.55,6.65,9.91,6.65,2.37,0,4.6-.78,6.41-2.13l-3.8-2.35Z"/>
  <path d="M21.91,11.79c-1.66-4.04-5.55-6.65-9.91-6.65-2.37,0-4.6.78-6.41,2.13l3.8,2.35c.65-.71,1.58-1.17,2.62-1.17,1.96,0,3.55,1.59,3.55,3.55,0,.45-.09.88-.25,1.28l4.14,2.56c1.04-1.01,1.89-2.23,2.46-3.63.06-.13.06-.28,0-.42Z"/>
</svg>