<?xml version="1.0" encoding="UTF-8"?>
<svg id="FF" xmlns="http://www.w3.org/2000/svg" viewBox="0 0 24 24">
  <path d="M19.95,10.83c.81-.9,1.48-1.94,1.96-3.11.12-.28-.02-.6-.3-.72-.28-.11-.6.02-.72.3-1.49,3.62-4.98,5.97-8.89,5.97s-7.4-2.34-8.89-5.97c-.12-.28-.43-.41-.72-.3-.28.12-.42.44-.3.72.48,1.17,1.15,2.21,1.96,3.11l-1.84,1.84c-.21.21-.21.56,0,.78.11.11.25.16.39.16s.28-.05.39-.16l1.84-1.84c1.12,1.01,2.44,1.77,3.88,2.23l-.67,2.51c-.08.29.1.6.39.67.05.01.1.02.14.02.24,0,.47-.16.53-.41l.67-2.52c.72.15,1.47.24,2.23.24s1.51-.08,2.23-.24l.67,2.52c.07.25.29.41.53.41.05,0,.09,0,.14-.02.29-.08.47-.38.39-.67l-.67-2.51c1.44-.46,2.76-1.22,3.88-2.23l1.84,1.84c.11.11.25.16.39.16s.28-.05.39-.16c.21-.21.21-.56,0-.78l-1.84-1.84Z" style="fill: #000; stroke-width: 0px;"/>
  <path d="M19.95,10.83c.81-.9,1.48-1.94,1.96-3.11.12-.28-.02-.6-.3-.72-.28-.11-.6.02-.72.3-1.49,3.62-4.98,5.97-8.89,5.97s-7.4-2.34-8.89-5.97c-.12-.28-.43-.41-.72-.3-.28.12-.42.44-.3.72.48,1.17,1.15,2.21,1.96,3.11l-1.84,1.84c-.21.21-.21.56,0,.78.11.11.25.16.39.16s.28-.05.39-.16l1.84-1.84c1.12,1.01,2.44,1.77,3.88,2.23l-.67,2.51c-.08.29.1.6.39.67.05.01.1.02.14.02.24,0,.47-.16.53-.41l.67-2.52c.72.15,1.47.24,2.23.24s1.51-.08,2.23-.24l.67,2.52c.07.25.29.41.53.41.05,0,.09,0,.14-.02.29-.08.47-.38.39-.67l-.67-2.51c1.44-.46,2.76-1.22,3.88-2.23l1.84,1.84c.11.11.25.16.39.16s.28-.05.39-.16c.21-.21.21-.56,0-.78l-1.84-1.84Z" style="fill: #000; stroke-width: 0px;"/>
</svg>