<?xml version="1.0" encoding="UTF-8"?>
<svg id="TL" xmlns="http://www.w3.org/2000/svg" viewBox="0 0 24 24">
  <path d="M21.4,12.54c-.16,0-.33-.06-.45-.18l-8.01-7.73c-.53-.51-1.35-.51-1.88,0L3.05,12.36c-.26.25-.67.24-.92-.02-.25-.26-.24-.67.02-.92L10.16,3.69c1.03-1,2.65-1,3.69,0l8.01,7.73c.26.25.27.66.02.92-.13.13-.3.2-.47.2Z" style="fill: #000; stroke-width: 0px;"/>
  <g>
    <path d="M15.15,14.4c0-.36-.29-.65-.65-.65h-5c-.36,0-.65.29-.65.65v5.35h-1.85c-.47,0-.85-.38-.85-.85v-5.34c0-.36-.29-.65-.65-.65s-.65.29-.65.65v5.34c0,1.19.96,2.15,2.15,2.15h2.5c.36,0,.65-.29.65-.65v-5.35h4.35c.36,0,.65-.29.65-.65Z" style="fill: #000; stroke-width: 0px;"/>
    <path d="M18.5,12.91c-.36,0-.65.29-.65.65v5.34c0,.47-.38.85-.85.85h-2.5c-.36,0-.65.29-.65.65s.29.65.65.65h2.5c1.19,0,2.15-.96,2.15-2.15v-5.34c0-.36-.29-.65-.65-.65Z" style="fill: #000; stroke-width: 0px;"/>
  </g>
</svg>