<?xml version="1.0" encoding="UTF-8"?>
<svg id="TF" xmlns="http://www.w3.org/2000/svg" viewBox="0 0 24 24">
  <path d="M12.38,5.9c-.21-.21-.55-.21-.76,0l-6.5,6.27c-.11.1-.17.25-.17.4v6.33c0,1.13.92,2.05,2.05,2.05h2.5c.3,0,.55-.25.55-.55v-5.45h3.9v5.45c0,.3.25.55.55.55h2.5c1.13,0,2.05-.92,2.05-2.05v-6.33c0-.15-.06-.29-.17-.4l-6.5-6.27Z" style="fill: #404040; stroke-width: 0px;"/>
  <path d="M21.78,11.5L13.77,3.77c-.99-.96-2.55-.96-3.55,0L2.22,11.5c-.22.21-.22.56-.01.78.21.22.56.22.78.01l8.01-7.73c.57-.55,1.45-.55,2.02,0l8.01,7.73c.11.1.24.15.38.15s.29-.06.4-.17c.21-.22.21-.57-.01-.78Z" style="fill: #404040; stroke-width: 0px;"/>
</svg>