<?xml version="1.0" encoding="UTF-8"?>
<svg id="TL" xmlns="http://www.w3.org/2000/svg" viewBox="0 0 24 24">
  <path d="M12,22.05c-.36,0-.65-.29-.65-.65V2.6c0-.36.29-.65.65-.65s.65.29.65.65v18.8c0,.36-.29.65-.65.65Z" style="fill: #000; stroke-width: 0px;"/>
  <g>
    <path d="M9,6.65c.36,0,.65-.29.65-.65s-.29-.65-.65-.65h-2c-.36,0-.65.29-.65.65v4c0,.36.29.65.65.65h2c.36,0,.65-.29.65-.65s-.29-.65-.65-.65h-1.35v-2.7h1.35Z" style="fill: #000; stroke-width: 0px;"/>
    <path d="M15,9.35c-.36,0-.65.29-.65.65s.29.65.65.65h2c.36,0,.65-.29.65-.65v-4c0-.36-.29-.65-.65-.65h-2c-.36,0-.65.29-.65.65s.29.65.65.65h1.35v2.7h-1.35Z" style="fill: #000; stroke-width: 0px;"/>
    <path d="M9,14.65c.36,0,.65-.29.65-.65s-.29-.65-.65-.65h-4c-.36,0-.65.29-.65.65v4c0,.36.29.65.65.65h4c.36,0,.65-.29.65-.65s-.29-.65-.65-.65h-3.35v-2.7h3.35Z" style="fill: #000; stroke-width: 0px;"/>
    <path d="M19,13.35h-4c-.36,0-.65.29-.65.65s.29.65.65.65h3.35v2.7h-3.35c-.36,0-.65.29-.65.65s.29.65.65.65h4c.36,0,.65-.29.65-.65v-4c0-.36-.29-.65-.65-.65Z" style="fill: #000; stroke-width: 0px;"/>
  </g>
</svg>