<?xml version="1.0" encoding="UTF-8"?>
<svg id="TL" xmlns="http://www.w3.org/2000/svg" viewBox="0 0 24 24">
  <path d="M5,22.05c-.36,0-.65-.29-.65-.65V2.6c0-.36.29-.65.65-.65s.65.29.65.65v18.8c0,.36-.29.65-.65.65Z" style="fill: #000; stroke-width: 0px;"/>
  <g>
    <path d="M8,9.35c-.36,0-.65.29-.65.65s.29.65.65.65h7c.36,0,.65-.29.65-.65v-4c0-.36-.29-.65-.65-.65h-7c-.36,0-.65.29-.65.65s.29.65.65.65h6.35v2.7h-6.35Z" style="fill: #000; stroke-width: 0px;"/>
    <path d="M19,13.35h-11c-.36,0-.65.29-.65.65s.29.65.65.65h10.35v2.7h-10.35c-.36,0-.65.29-.65.65s.29.65.65.65h11c.36,0,.65-.29.65-.65v-4c0-.36-.29-.65-.65-.65Z" style="fill: #000; stroke-width: 0px;"/>
  </g>
</svg>