<?xml version="1.0" encoding="UTF-8"?>
<svg id="FL" xmlns="http://www.w3.org/2000/svg" viewBox="0 0 24 24">
  <path d="M16,9.35h-6.35v-2.7h6.35c.36,0,.65-.29.65-.65s-.29-.65-.65-.65h-7c-.36,0-.65.29-.65.65v4c0,.36.29.65.65.65h7c.36,0,.65-.29.65-.65s-.29-.65-.65-.65Z" style="fill: #000; stroke-width: 0px;"/>
  <path d="M16,14.65c.36,0,.65-.29.65-.65s-.29-.65-.65-.65H5c-.36,0-.65.29-.65.65v4c0,.36.29.65.65.65h11c.36,0,.65-.29.65-.65s-.29-.65-.65-.65H5.65v-2.7h10.35Z" style="fill: #000; stroke-width: 0px;"/>
</svg>