<?xml version="1.0" encoding="UTF-8"?>
<svg id="FF" xmlns="http://www.w3.org/2000/svg" viewBox="0 0 24 24">
  <path d="M4.9,4.08l1.09-1.09c.21-.21.21-.56,0-.78-.21-.21-.56-.21-.78,0l-2,2c-.21.21-.21.56,0,.78l2,2c.11.11.25.16.39.16s.28-.05.39-.16c.21-.21.21-.56,0-.78l-1.03-1.03c8.26.32,14.89,7.13,14.89,15.47,0,.14,0,.28-.02.42l-.02.28c-.01.3.22.56.53.57,0,0,.02,0,.02,0,.29,0,.54-.23.55-.53l.02-.26c.01-.16.02-.33.02-.49,0-8.97-7.15-16.28-16.05-16.57Z" style="fill: #000; stroke-width: 0px;"/>
</svg>