<?xml version="1.0" encoding="UTF-8"?>
<svg id="TL" xmlns="http://www.w3.org/2000/svg" viewBox="0 0 24 24">
  <path d="M4.35,22.05c-.77,0-1.4-.63-1.4-1.4s.63-1.4,1.4-1.4,1.4.63,1.4,1.4-.63,1.4-1.4,1.4Z" style="fill: #000; stroke-width: 0px;"/>
  <path d="M5.13,3.99l.93-.93c.25-.25.25-.67,0-.92s-.67-.25-.92,0l-2,2c-.25.25-.25.67,0,.92l2,2c.13.13.29.19.46.19s.33-.06.46-.19c.25-.25.25-.67,0-.92l-.85-.85c8.09.45,14.54,7.16,14.54,15.36,0,.14,0,.27-.02.41l-.02.29c-.02.36.26.66.62.68,0,0,.02,0,.03,0,.35,0,.63-.27.65-.62l.02-.25c.01-.17.02-.33.02-.5,0-8.95-7.08-16.25-15.92-16.66Z" style="fill: #000; stroke-width: 0px;"/>
</svg>