<?xml version="1.0" encoding="UTF-8"?>
<svg id="HF" xmlns="http://www.w3.org/2000/svg" viewBox="0 0 24 24">
  <path d="M14.43,13.89c-.36,0-.79.25-.79,1.45,0,1.28.5,1.47.79,1.47.24,0,.78-.14.78-1.47,0-1.2-.43-1.45-.78-1.45Z" style="fill: #606060; stroke-width: 0px;"/>
  <path d="M18.3,9.56l-4.95-6.83c-.32-.44-.83-.66-1.35-.66v11.39l1.48-2.82h.56l-2.04,3.89v7.4c1.81,0,3.56-.62,4.97-1.78,1.8-1.49,2.83-3.68,2.83-6.01,0-1.65-.52-3.24-1.5-4.59ZM14.43,17.36c-.93,0-1.53-.79-1.53-2.02s.6-2.01,1.53-2.01,1.52.79,1.52,2.01-.6,2.02-1.52,2.02Z" style="fill: #606060; stroke-width: 0px;"/>
</svg>