<?xml version="1.0" encoding="UTF-8"?>
<svg id="FF" xmlns="http://www.w3.org/2000/svg" viewBox="0 0 24 24">
  <path d="M9.58,11.2c-.3,0-.79.19-.79,1.45,0,1.33.55,1.48.79,1.48s.79-.14.79-1.48c0-1.26-.5-1.45-.79-1.45Z" style="fill: #000; stroke-width: 0px;"/>
  <path d="M12,2.08c-.52,0-1.03.22-1.35.66l-4.95,6.83c-1.29,1.78-1.77,3.95-1.35,6.13.6,3.07,3.06,5.52,6.12,6.11.51.1,1.01.14,1.52.14,0,0,.01,0,.02,0v-7.4l-1.48,2.82h-.57l2.04-3.89V2.08ZM9.58,14.67c-.94,0-1.52-.78-1.52-2.02s.58-2,1.52-2,1.53.77,1.53,2-.6,2.02-1.53,2.02Z" style="fill: #000; stroke-width: 0px;"/>
</svg>