<?xml version="1.0" encoding="UTF-8"?>
<svg id="TL" xmlns="http://www.w3.org/2000/svg" viewBox="0 0 24 24">
  <path d="M19.25,13.5c-.36,0-.65.29-.65.65,0,1.97-.87,3.83-2.4,5.09-1.52,1.26-3.53,1.76-5.51,1.39-2.58-.49-4.66-2.57-5.17-5.16-.36-1.85.04-3.69,1.14-5.2l4.95-6.83c.18-.24.58-.24.75,0l4.95,6.83c.21.29.62.35.91.14.29-.21.35-.62.14-.91l-4.95-6.83c-.67-.93-2.19-.93-2.86,0l-4.95,6.83c-1.31,1.8-1.8,4-1.37,6.21.61,3.11,3.1,5.59,6.2,6.19.51.1,1.02.15,1.53.15,1.84,0,3.62-.63,5.05-1.81,1.82-1.51,2.87-3.73,2.87-6.09,0-.36-.29-.65-.65-.65Z" style="fill: #000; stroke-width: 0px;"/>
  <path d="M9.58,10.55c-.95,0-1.62.77-1.62,2.1s.67,2.12,1.62,2.12,1.63-.78,1.63-2.12-.68-2.1-1.63-2.1ZM9.58,14.02c-.39,0-.69-.4-.69-1.38s.31-1.35.69-1.35.69.38.69,1.35-.31,1.38-.69,1.38Z" style="fill: #000; stroke-width: 0px;"/>
  <path d="M14.43,17.46c.95,0,1.62-.78,1.62-2.12s-.67-2.11-1.62-2.11-1.63.77-1.63,2.11.68,2.12,1.63,2.12ZM14.43,13.99c.39,0,.68.36.68,1.35s-.3,1.37-.68,1.37-.69-.4-.69-1.37.3-1.35.69-1.35Z" style="fill: #000; stroke-width: 0px;"/>
  <polygon points="14.2 10.55 13.42 10.55 9.79 17.46 10.58 17.46 14.2 10.55" style="fill: #000; stroke-width: 0px;"/>
</svg>