<?xml version="1.0" encoding="UTF-8"?>
<svg id="TF" xmlns="http://www.w3.org/2000/svg" viewBox="0 0 24 24">
  <path d="M14.43,13.89c-.36,0-.79.25-.79,1.45,0,1.28.5,1.47.79,1.47.24,0,.78-.14.78-1.47,0-1.2-.43-1.45-.78-1.45Z" style="fill: #404040; stroke-width: 0px;"/>
  <path d="M9.58,11.2c-.3,0-.79.19-.79,1.45,0,1.33.55,1.48.79,1.48s.79-.14.79-1.48c0-1.26-.5-1.45-.79-1.45Z" style="fill: #404040; stroke-width: 0px;"/>
  <path d="M18.3,9.56l-4.95-6.83c-.63-.87-2.06-.87-2.7,0l-4.95,6.83c-1.29,1.78-1.77,3.95-1.35,6.13.6,3.07,3.06,5.52,6.12,6.11.51.1,1.01.14,1.52.14,1.82,0,3.58-.62,4.98-1.78,1.8-1.49,2.83-3.68,2.83-6.01,0-1.65-.52-3.24-1.5-4.59ZM8.05,12.65c0-1.23.58-2,1.52-2s1.53.77,1.53,2-.6,2.02-1.53,2.02-1.52-.78-1.52-2.02ZM10.52,17.36h-.57l3.52-6.71h.56l-3.51,6.71ZM14.43,17.36c-.93,0-1.53-.79-1.53-2.02s.6-2.01,1.53-2.01,1.52.79,1.52,2.01-.6,2.02-1.52,2.02Z" style="fill: #404040; stroke-width: 0px;"/>
</svg>