<?xml version="1.0" encoding="UTF-8"?>
<svg id="HL" xmlns="http://www.w3.org/2000/svg" viewBox="0 0 24 24">
  <path d="M7.96,12.65c0-1.33.67-2.1,1.62-2.1s1.63.77,1.63,2.1-.68,2.12-1.63,2.12-1.62-.78-1.62-2.12ZM10.27,12.65c0-.97-.31-1.35-.69-1.35s-.69.38-.69,1.35.31,1.38.69,1.38.69-.4.69-1.38ZM13.42,10.55h.78l-3.62,6.91h-.79l3.63-6.91ZM12.8,15.34c0-1.33.68-2.11,1.63-2.11s1.62.77,1.62,2.11-.67,2.12-1.62,2.12-1.63-.78-1.63-2.12ZM15.11,15.34c0-.99-.3-1.35-.68-1.35s-.69.36-.69,1.35.3,1.37.69,1.37.68-.4.68-1.37Z" style="fill: #66f; stroke-width: 0px;"/>
</svg>