<?xml version="1.0" encoding="UTF-8"?>
<svg id="TL" xmlns="http://www.w3.org/2000/svg" viewBox="0 0 24 24">
  <path d="M17.06,9.94l-2-2c-.25-.25-.67-.25-.92,0s-.25.67,0,.92l.89.89h-1.43c-5.87,0-10.65,4.78-10.65,10.65,0,.36.29.65.65.65s.65-.29.65-.65c0-5.16,4.19-9.35,9.35-9.35h1.43l-.89.89c-.25.25-.25.67,0,.92.13.13.29.19.46.19s.33-.06.46-.19l2-2c.25-.25.25-.67,0-.92Z" style="fill: #000; stroke-width: 0px;"/>
  <path d="M18.9,21.05h-6.8c-.36,0-.65-.29-.65-.65s.29-.65.65-.65h6.8c.47,0,.85-.38.85-.85V5.1c0-.47-.38-.85-.85-.85H5.1c-.47,0-.85.38-.85.85v6.8c0,.36-.29.65-.65.65s-.65-.29-.65-.65v-6.8c0-1.19.96-2.15,2.15-2.15h13.8c1.19,0,2.15.96,2.15,2.15v13.8c0,1.19-.96,2.15-2.15,2.15Z" style="fill: #000; stroke-width: 0px;"/>
</svg>