<?xml version="1.0" encoding="UTF-8"?>
<svg id="TF" xmlns="http://www.w3.org/2000/svg" viewBox="0 0 24 24">
  <path d="M9.1,5.55c.3,0,.55-.25.55-.55s-.25-.55-.55-.55h-3c-.3,0-.55.25-.55.55s.25.55.55.55h.95v12.9h-.95c-.3,0-.55.25-.55.55s.25.55.55.55h3c.3,0,.55-.25.55-.55s-.25-.55-.55-.55h-.95V5.55h.95Z" style="fill: #404040; stroke-width: 0px;"/>
  <path d="M4.6,7.45h-.5c-1.13,0-2.05.92-2.05,2.05v5c0,1.13.92,2.05,2.05,2.05h.5c.3,0,.55-.25.55-.55v-8c0-.3-.25-.55-.55-.55Z" style="fill: #404040; stroke-width: 0px;"/>
  <path d="M19.9,7.45h-9.3c-.3,0-.55.25-.55.55v8c0,.3.25.55.55.55h9.3c1.13,0,2.05-.92,2.05-2.05v-5c0-1.13-.92-2.05-2.05-2.05ZM11.85,12.8c-.44,0-.8-.36-.8-.8s.36-.8.8-.8.8.36.8.8-.36.8-.8.8ZM15.35,12.8c-.44,0-.8-.36-.8-.8s.36-.8.8-.8.8.36.8.8-.36.8-.8.8ZM18.85,12.8c-.44,0-.8-.36-.8-.8s.36-.8.8-.8.8.36.8.8-.36.8-.8.8Z" style="fill: #404040; stroke-width: 0px;"/>
</svg>