<?xml version="1.0" encoding="UTF-8"?>
<svg id="TL" xmlns="http://www.w3.org/2000/svg" viewBox="0 0 24 24">
  <g>
    <path d="M9.1,5.65c.36,0,.65-.29.65-.65s-.29-.65-.65-.65h-3c-.36,0-.65.29-.65.65s.29.65.65.65h.85v12.7h-.85c-.36,0-.65.29-.65.65s.29.65.65.65h3c.36,0,.65-.29.65-.65s-.29-.65-.65-.65h-.85V5.65h.85Z" style="fill: #000; stroke-width: 0px;"/>
    <circle cx="11.85" cy="12" r=".9" style="fill: #000; stroke-width: 0px;"/>
    <circle cx="15.35" cy="12" r=".9" style="fill: #000; stroke-width: 0px;"/>
    <circle cx="18.85" cy="12" r=".9" style="fill: #000; stroke-width: 0px;"/>
  </g>
  <g>
    <path d="M4.1,8.65h.5c.36,0,.65-.29.65-.65s-.29-.65-.65-.65h-.5c-1.19,0-2.15.96-2.15,2.15v5c0,1.19.96,2.15,2.15,2.15h.5c.36,0,.65-.29.65-.65s-.29-.65-.65-.65h-.5c-.47,0-.85-.38-.85-.85v-5c0-.47.38-.85.85-.85Z" style="fill: #000; stroke-width: 0px;"/>
    <path d="M19.9,7.35h-9.3c-.36,0-.65.29-.65.65s.29.65.65.65h9.3c.47,0,.85.38.85.85v5c0,.47-.38.85-.85.85h-9.3c-.36,0-.65.29-.65.65s.29.65.65.65h9.3c1.19,0,2.15-.96,2.15-2.15v-5c0-1.19-.96-2.15-2.15-2.15Z" style="fill: #000; stroke-width: 0px;"/>
  </g>
</svg>