<?xml version="1.0" encoding="UTF-8"?>
<svg id="FF" xmlns="http://www.w3.org/2000/svg" viewBox="0 0 24 24">
  <path d="M17.8,12v2.72c0,.25.03.43.08.55.06.12.16.2.3.23.13.02.3.04.51.04.17,0,.33.02.47.06.12.04.18.15.18.36,0,.16-.04.26-.13.33-.09.07-.21.1-.35.1h-.63c-.4,0-.7-.05-.9-.15-.2-.1-.32-.25-.39-.46-.07-.22-.1-.52-.1-.9v-2.87h-2.96c0,.09.03.17.03.27v3.68c0,.18-.04.32-.11.44-.07.11-.19.16-.38.16s-.3-.05-.37-.16c-.07-.12-.11-.26-.11-.43v-3.49c0-.16-.03-.31-.06-.46h-2.55c-.04.05-.08.1-.11.16-.11.19-.17.4-.17.62v3.18c0,.18-.04.32-.11.44-.07.11-.19.16-.38.16s-.3-.05-.37-.16c-.07-.12-.11-.26-.11-.43v-3.95h-3.06v3.89c0,.19-.04.34-.12.47-.08.12-.21.18-.42.18s-.33-.06-.41-.18c-.08-.13-.12-.29-.12-.47v-3.89h-1.91v6.9c0,1.13.92,2.05,2.05,2.05h13.8c1.13,0,2.05-.92,2.05-2.05v-6.9h-3.15Z"/>
</svg>