<?xml version="1.0" encoding="UTF-8"?>
<svg id="HF" xmlns="http://www.w3.org/2000/svg" viewBox="0 0 24 24">
  <path d="M19.85,10.94l.5-.5c.39-.39.6-.9.6-1.45s-.21-1.06-.6-1.45l-3.89-3.89c-.77-.77-2.12-.77-2.9,0h0s-3.89,3.89-3.89,3.89c-.24.24-.4.53-.5.84l1.77,1.77.32-.32c.77-.78,2.12-.78,2.9,0,.39.39.6.9.6,1.45s-.21,1.06-.6,1.45l-.32.32,1.77,1.77c.31-.1.61-.26.84-.5l.5-.5.32.32c.78.77,2.13.78,2.9,0,.39-.39.6-.9.6-1.45s-.21-1.06-.6-1.45l-.32-.32Z" style="fill: #606060; stroke-width: 0px;"/>
</svg>