<?xml version="1.0" encoding="UTF-8"?>
<svg id="FF" xmlns="http://www.w3.org/2000/svg" viewBox="0 0 24 24">
  <path d="M12.67,13.45c-.21-.21-.21-.56,0-.78l.71-.71c.18-.18.28-.42.28-.67s-.1-.49-.28-.67c-.37-.37-.97-.37-1.34,0l-.71.71c-.21.21-.56.21-.78,0l-2.15-2.15c-.32.09-.62.24-.86.48l-.5.5-.32-.32c-.77-.77-2.12-.78-2.9,0-.39.39-.6.9-.6,1.45s.21,1.06.6,1.45l.32.32-.5.5c-.39.39-.6.9-.6,1.45s.21,1.06.6,1.45l3.89,3.89c.39.39.9.6,1.45.6s1.06-.21,1.45-.6l3.89-3.89c.24-.24.4-.53.5-.84l-2.16-2.16Z" style="fill: #000; stroke-width: 0px;"/>
</svg>