<?xml version="1.0" encoding="UTF-8"?>
<svg id="TF" xmlns="http://www.w3.org/2000/svg" viewBox="0 0 24 24">
  <path d="M18.9,3.05H5.1c-1.13,0-2.05.92-2.05,2.05v13.8c0,1.13.92,2.05,2.05,2.05h13.8c1.13,0,2.05-.92,2.05-2.05V5.1c0-1.13-.92-2.05-2.05-2.05ZM6.02,15.89c0,.19-.04.34-.12.47-.08.12-.21.18-.42.18s-.33-.06-.41-.18c-.08-.13-.12-.29-.12-.47v-7.78c0-.19.04-.35.12-.48.08-.12.21-.18.42-.18s.34.06.41.18c.08.12.12.28.12.48v7.78ZM13.91,15.95c0,.18-.04.32-.11.44-.07.11-.19.16-.38.16s-.3-.05-.37-.16c-.07-.12-.11-.26-.11-.43v-3.49c0-.24-.03-.46-.08-.67-.06-.21-.16-.39-.31-.52-.15-.14-.37-.21-.66-.21-.51,0-.95.2-1.3.59-.13.15-.26.32-.37.51-.11.19-.17.4-.17.62v3.18c0,.18-.04.32-.11.44-.07.11-.19.16-.38.16s-.3-.05-.37-.16c-.07-.12-.11-.26-.11-.43v-5.19c0-.17.04-.3.11-.4.07-.1.19-.14.37-.14.21,0,.34.05.4.16.07.12.1.26.09.43,0,.18,0,.34,0,.5v.15l.09-.12c.25-.33.53-.6.86-.81.32-.2.7-.31,1.12-.31.64,0,1.11.19,1.38.57.27.38.41.89.41,1.49v3.68ZM17.88,15.27c.06.12.16.2.3.23.13.02.3.04.51.04.17,0,.33.02.47.06.12.04.18.15.18.36,0,.16-.04.26-.13.33-.09.07-.21.1-.35.1h-.63c-.4,0-.7-.05-.9-.15-.2-.1-.32-.25-.39-.46-.07-.22-.1-.52-.1-.9v-3.65h-.91c-.15,0-.28-.03-.39-.09-.1-.06-.15-.16-.15-.33s.05-.27.15-.33c.11-.06.24-.09.39-.09h.91v-1.63c0-.18.04-.32.11-.44.07-.11.19-.16.38-.16s.31.05.37.16c.07.12.1.26.1.43v1.63h1.07c.15,0,.28.03.39.09.1.06.15.16.15.33s-.05.27-.15.33c-.11.06-.24.09-.39.09h-1.07v3.5c0,.25.03.43.08.55Z" style="fill: #333;"/>
</svg>