<?xml version="1.0" encoding="UTF-8"?>
<svg id="HF" xmlns="http://www.w3.org/2000/svg" viewBox="0 0 24 24">
  <path d="M18.9,3.05H5.1c-1.13,0-2.05.92-2.05,2.05v6.9h1.91v-3.89c0-.19.04-.35.12-.48.08-.12.21-.18.42-.18s.34.06.41.18c.08.12.12.28.12.48v3.89h3.06v-1.24c0-.17.04-.3.11-.4.07-.1.19-.14.37-.14.21,0,.34.05.4.16.07.12.1.26.09.43,0,.18,0,.34,0,.5v.15l.09-.12c.25-.33.53-.6.86-.81.32-.2.7-.31,1.12-.31.64,0,1.11.19,1.38.57.23.32.34.74.38,1.22h2.96v-.78h-.91c-.15,0-.28-.03-.39-.09-.1-.06-.15-.16-.15-.33s.05-.27.15-.33c.11-.06.24-.09.39-.09h.91v-1.63c0-.18.04-.32.11-.44.07-.11.19-.16.38-.16s.31.05.37.16c.07.12.1.26.1.43v1.63h1.07c.15,0,.28.03.39.09.1.06.15.16.15.33s-.05.27-.15.33c-.11.06-.24.09-.39.09h-1.07v.78h3.15v-6.9c0-1.13-.92-2.05-2.05-2.05Z" style="fill: #999;"/>
  <path d="M12.55,11.27c-.15-.14-.37-.21-.66-.21-.51,0-.95.2-1.3.59-.09.1-.17.23-.26.35h2.55c-.01-.07,0-.15-.03-.21-.06-.21-.16-.39-.31-.52Z" style="fill: #999;"/>
</svg>