<?xml version="1.0" encoding="UTF-8"?>
<svg id="TL" xmlns="http://www.w3.org/2000/svg" viewBox="0 0 24 24">
  <path d="M19.99,10.94l.42-.42c.84-.84.84-2.2,0-3.04l-3.89-3.89c-.81-.81-2.23-.81-3.04,0l-3.89,3.89c-.25.25-.25.67,0,.92.25.25.67.25.92,0l3.89-3.89c.32-.32.88-.32,1.2,0l3.89,3.89c.33.33.33.87,0,1.2l-.88.88c-.25.25-.25.67,0,.92l.71.71c.16.16.25.37.25.6s-.09.44-.25.6c-.32.32-.88.32-1.2,0l-.71-.71c-.25-.25-.67-.25-.92,0l-.88.88c-.25.25-.25.67,0,.92s.67.25.92,0l.43-.42.25.25c.41.41.95.63,1.52.63s1.11-.22,1.52-.63c.41-.41.63-.95.63-1.52s-.22-1.11-.63-1.52l-.25-.25Z" style="fill: #000; stroke-width: 0px;"/>
  <path d="M13.98,13.06l.25-.25c.41-.41.63-.95.63-1.52s-.22-1.11-.63-1.52c-.84-.84-2.2-.84-3.04,0l-.25.25-.42-.42c-.81-.81-2.23-.81-3.04,0l-.43.42-.25-.25c-.81-.81-2.23-.81-3.04,0-.41.41-.63.95-.63,1.52s.22,1.11.63,1.52l.25.25-.42.42c-.84.84-.84,2.2,0,3.04l3.89,3.89c.41.41.95.63,1.52.63s1.11-.22,1.52-.63l3.89-3.89c.84-.84.84-2.2,0-3.04l-.42-.42ZM13.48,15.61l-3.89,3.89c-.32.32-.88.32-1.2,0l-3.89-3.89c-.33-.33-.33-.87,0-1.2l.88-.88c.25-.25.25-.67,0-.92l-.71-.71c-.16-.16-.25-.37-.25-.6s.09-.44.25-.6c.16-.16.37-.25.6-.25s.44.09.6.25l.71.71c.25.25.67.25.92,0l.89-.88c.32-.32.88-.32,1.2,0l.88.88c.25.25.67.25.92,0l.71-.71c.33-.33.87-.33,1.2,0,.16.16.25.37.25.6s-.09.44-.25.6l-.71.71c-.25.25-.25.67,0,.92l.88.88c.33.33.33.87,0,1.2Z" style="fill: #000; stroke-width: 0px;"/>
</svg>