<?xml version="1.0" encoding="UTF-8"?>
<svg id="TL" xmlns="http://www.w3.org/2000/svg" viewBox="0 0 24 24">
  <path d="M5,7.58c-.09.14-.14.32-.14.53v7.78c0,.2.04.38.13.52.09.15.26.23.49.23s.4-.08.5-.23c.09-.14.14-.32.14-.52v-7.78c0-.21-.04-.39-.13-.53-.09-.15-.26-.22-.49-.22s-.4.07-.5.22Z"/>
  <path d="M12.97,16.43c.09.14.24.21.45.21s.38-.07.46-.2c.08-.13.12-.29.12-.49v-3.68c0-.62-.14-1.15-.43-1.55-.29-.41-.78-.61-1.46-.61-.44,0-.83.11-1.17.32-.3.19-.56.43-.8.72,0-.11,0-.23,0-.35,0-.18-.03-.34-.11-.48-.08-.14-.24-.21-.49-.21-.21,0-.36.06-.45.18-.08.12-.13.27-.13.46v5.19c0,.19.04.35.12.48.09.14.24.21.45.21s.38-.07.46-.2c.08-.13.12-.29.12-.49v-3.18c0-.2.05-.39.16-.57.11-.18.23-.34.36-.49.33-.37.75-.56,1.23-.56.26,0,.46.06.59.18.13.12.23.28.28.47.05.2.08.41.08.64v3.49c0,.19.04.35.12.48Z"/>
  <path d="M18.87,11.32c.16,0,.31-.04.43-.11.13-.08.2-.21.2-.41s-.07-.34-.2-.41c-.12-.07-.27-.11-.43-.11h-.97v-1.53c0-.19-.04-.35-.12-.48-.08-.14-.24-.21-.46-.21s-.38.07-.46.2c-.08.13-.12.29-.12.49v1.53h-.81c-.16,0-.31.04-.43.11-.13.08-.2.21-.2.41s.07.34.2.41c.12.07.27.11.43.11h.81v3.55c0,.39.04.7.11.93.07.24.22.42.44.52.21.1.53.16.94.16h.63c.17,0,.3-.04.41-.12.11-.08.17-.22.17-.41,0-.25-.08-.4-.25-.45-.14-.04-.31-.07-.5-.07-.21,0-.37-.01-.5-.03-.11-.02-.18-.08-.23-.17-.05-.1-.07-.27-.07-.51v-3.4h.97Z"/>
  <path d="M18.9,2.95H5.1c-1.19,0-2.15.96-2.15,2.15v13.8c0,1.19.96,2.15,2.15,2.15h11.8c.36,0,.65-.29.65-.65s-.29-.65-.65-.65H5.1c-.47,0-.85-.38-.85-.85V5.1c0-.47.38-.85.85-.85h13.8c.47,0,.85.38.85.85v11.8c0,.36.29.65.65.65s.65-.29.65-.65V5.1c0-1.19-.96-2.15-2.15-2.15Z"/>
</svg>