<?xml version="1.0" encoding="UTF-8"?>
<svg id="TF" xmlns="http://www.w3.org/2000/svg" viewBox="0 0 24 24">
  <path d="M14.9,3.05c-3.34,0-6.05,2.71-6.05,6.05,0,.2.01.41.04.63l-5.68,5.68c-.1.1-.16.24-.16.39v4.6c0,.3.25.55.55.55h4.6c.3,0,.55-.25.55-.55v-1.45h1.45c.3,0,.55-.25.55-.55v-1.45h1.45c.3,0,.55-.25.55-.55v-1.45h.62c.51.13,1.02.2,1.52.2,3.34,0,6.05-2.71,6.05-6.05s-2.71-6.05-6.05-6.05ZM11.47,12.31l-5.68,5.68c-.11.11-.25.16-.39.16s-.28-.05-.39-.16c-.21-.21-.21-.56,0-.78l5.68-5.68c.21-.21.56-.21.78,0,.21.21.21.56,0,.78ZM17.69,9c-.15.29-.56.34-.79.1l-2-2c-.23-.23-.19-.64.1-.79.75-.37,1.68-.25,2.31.37.62.62.75,1.56.37,2.31Z" style="fill: #404040; stroke-width: 0px;"/>
</svg>