<?xml version="1.0" encoding="UTF-8"?>
<svg id="TL" xmlns="http://www.w3.org/2000/svg" viewBox="0 0 24 24">
  <path d="M14.9,2.95c-3.39,0-6.15,2.76-6.15,6.15,0,.19.01.39.03.59l-5.64,5.64c-.12.12-.19.29-.19.46v4.6c0,.36.29.65.65.65h4.6c.36,0,.65-.29.65-.65v-1.35h1.35c.36,0,.65-.29.65-.65v-1.35h1.35c.36,0,.65-.29.65-.65s-.29-.65-.65-.65h-2c-.36,0-.65.29-.65.65v1.35h-1.35c-.36,0-.65.29-.65.65v1.35h-3.3v-3.68l5.68-5.68c.15-.15.21-.35.18-.56-.04-.24-.06-.48-.06-.73,0-2.67,2.18-4.85,4.85-4.85s4.85,2.18,4.85,4.85-2.18,4.85-4.85,4.85c-.36,0-.65.29-.65.65s.29.65.65.65c3.39,0,6.15-2.76,6.15-6.15s-2.76-6.15-6.15-6.15Z" style="fill: #000; stroke-width: 0px;"/>
  <path d="M10.62,11.46l-5.68,5.68c-.25.25-.25.67,0,.92.13.13.29.19.46.19s.33-.06.46-.19l5.68-5.68c.25-.25.25-.67,0-.92s-.67-.25-.92,0Z" style="fill: #000; stroke-width: 0px;"/>
  <path d="M16.44,9.56c.22.22.52.34.82.34.06,0,.12,0,.19-.02.36-.06.66-.28.82-.6h0c.51-1.02.31-2.25-.5-3.06-.81-.81-2.04-1.01-3.06-.5-.32.16-.54.46-.6.82-.06.37.06.75.32,1.01l2,2ZM16.85,7.15c.35.35.48.87.34,1.33l-1.67-1.67c.47-.13.98-.01,1.33.34Z" style="fill: #000; stroke-width: 0px;"/>
</svg>