<?xml version="1.0" encoding="UTF-8"?>
<svg id="TF" xmlns="http://www.w3.org/2000/svg" viewBox="0 0 24 24">
  <path d="M20.95,9.1v-4c0-1.13-.92-2.05-2.05-2.05h-4c-1.08,0-1.96.84-2.03,1.9h-1.73c-.08-1.06-.96-1.9-2.03-1.9h-4c-1.13,0-2.05.92-2.05,2.05v4c0,1.08.84,1.96,1.9,2.03v1.73c-1.06.08-1.9.96-1.9,2.03v4c0,1.13.92,2.05,2.05,2.05h4c1.08,0,1.96-.84,2.03-1.9h1.73c.08,1.06.96,1.9,2.03,1.9h4c1.13,0,2.05-.92,2.05-2.05v-4c0-1.08-.84-1.96-1.9-2.03v-1.73c1.06-.08,1.9-.96,1.9-2.03ZM14.9,12.85c-1.13,0-2.05.92-2.05,2.05v3.05h-1.7v-3.05c0-1.13-.92-2.05-2.05-2.05h-3.05v-1.7h3.05c1.13,0,2.05-.92,2.05-2.05v-3.05h1.7v3.05c0,1.13.92,2.05,2.05,2.05h3.05v1.7h-3.05Z" style="fill: #333;"/>
</svg>