<?xml version="1.0" encoding="UTF-8"?>
<svg id="HL" xmlns="http://www.w3.org/2000/svg" viewBox="0 0 24 24">
  <path d="M9.1,2.95h-4c-1.19,0-2.15.96-2.15,2.15v4c0,1.19.96,2.15,2.15,2.15h4c1.19,0,2.15-.96,2.15-2.15v-4c0-1.19-.96-2.15-2.15-2.15ZM9.95,9.1c0,.47-.38.85-.85.85h-4c-.47,0-.85-.38-.85-.85v-4c0-.47.38-.85.85-.85h4c.47,0,.85.38.85.85v4Z" style="fill: #66f;"/>
  <path d="M18.9,2.95h-4c-1.19,0-2.15.96-2.15,2.15v4c0,1.19.96,2.15,2.15,2.15h4c1.19,0,2.15-.96,2.15-2.15v-4c0-1.19-.96-2.15-2.15-2.15ZM19.75,9.1c0,.47-.38.85-.85.85h-4c-.47,0-.85-.38-.85-.85v-4c0-.47.38-.85.85-.85h4c.47,0,.85.38.85.85v4Z" style="fill: #66f;"/>
  <path d="M9.1,12.75h-4c-1.19,0-2.15.96-2.15,2.15v4c0,1.19.96,2.15,2.15,2.15h4c1.19,0,2.15-.96,2.15-2.15v-4c0-1.19-.96-2.15-2.15-2.15ZM9.95,18.9c0,.47-.38.85-.85.85h-4c-.47,0-.85-.38-.85-.85v-4c0-.47.38-.85.85-.85h4c.47,0,.85.38.85.85v4Z" style="fill: #66f;"/>
  <path d="M18.9,12.75h-4c-1.19,0-2.15.96-2.15,2.15v4c0,1.19.96,2.15,2.15,2.15h3c.36,0,.65-.29.65-.65s-.29-.65-.65-.65h-3c-.47,0-.85-.38-.85-.85v-4c0-.47.38-.85.85-.85h4c.47,0,.85.38.85.85v3c0,.36.29.65.65.65s.65-.29.65-.65v-3c0-1.19-.96-2.15-2.15-2.15Z" style="fill: #66f;"/>
</svg>