<?xml version="1.0" encoding="UTF-8"?>
<svg id="FL" xmlns="http://www.w3.org/2000/svg" viewBox="0 0 24 24">
  <path d="M13.4,17.85h-2.8c-.36,0-.65.29-.65.65s.29.65.65.65h2.8c.36,0,.65-.29.65-.65s-.29-.65-.65-.65Z"/>
  <path d="M5.5,9.95c-.36,0-.65.29-.65.65v2.8c0,.36.29.65.65.65s.65-.29.65-.65v-2.8c0-.36-.29-.65-.65-.65Z"/>
  <path d="M13.4,4.85h-2.8c-.36,0-.65.29-.65.65s.29.65.65.65h2.8c.36,0,.65-.29.65-.65s-.29-.65-.65-.65Z"/>
  <path d="M18.5,9.95c-.36,0-.65.29-.65.65v2.8c0,.36.29.65.65.65s.65-.29.65-.65v-2.8c0-.36-.29-.65-.65-.65Z"/>
</svg>