<?xml version="1.0" encoding="UTF-8"?>
<svg id="HL" xmlns="http://www.w3.org/2000/svg" viewBox="0 0 24 24">
  <path id="path118" d="M11.97,8.36s2.48-.02,4.73.7c2.26.72,3.71,2.02,3.71,2.02h1.52s-1.6-1.76-4.67-2.84c-3.07-1.08-5.3-.95-5.3-.95v1.07" style="fill: #006bb6;"/>
  <path id="path122" d="M6.81,8.18c-2.89.91-4.81,2.89-4.81,2.89h1.52s1.26-1.23,3.69-2c2.43-.77,4.75-.71,4.75-.71v-1.07s-2.25-.12-5.15.9" style="fill: #0cb14b;"/>
  <path id="path134" d="M22,16.72h-1.83s-1.6-1.92-1.6-1.92l-1.87,1.92h-1.52l2.7-2.75-2.15-2.56h1.78s1.34,1.57,1.34,1.57l1.56-1.56h1.52l-2.38,2.4,2.45,2.91Z" style="fill: #006bb6;"/>
  <path id="path146" d="M5.11,13.6l2.16-2.19h-1.54l-2.2,2.24v-2.23h-1.52v5.31s1.52,0,1.52,0v-1.52l.6-.61,1.78,2.12h1.82s-2.62-3.12-2.62-3.12Z" style="fill: #0cb14b;"/>
</svg>