<?xml version="1.0" encoding="UTF-8"?>
<svg id="FF" xmlns="http://www.w3.org/2000/svg" viewBox="0 0 24 24">
  <path d="M20.41,10.97s-1.45-1.3-3.68-2.01c-2-.64-4.28-.7-4.76-.7v-.88s.19,0,.25,0c.7,0,2.58.09,5.01.95,2.46.86,3.98,2.18,4.46,2.65h-1.28Z" style="fill: #0cb14b;"/>
  <path d="M2.25,10.98c.53-.49,2.25-1.96,4.6-2.7,2.32-.81,4.2-.89,4.9-.89.05,0,.19,0,.22,0v.88h-.11c-.56,0-2.56.05-4.67.72-2.43.77-3.68,1.97-3.73,2.02l-1.21-.02Z" style="fill: #0cb14b;"/>
  <polygon points="15.41 16.62 18.01 13.97 15.94 11.51 17.51 11.51 18.84 13.12 20.48 11.48 21.69 11.51 19.41 13.8 21.78 16.62 20.18 16.61 18.58 14.65 16.63 16.65 15.41 16.62" style="fill: #006bb6;"/>
  <polygon points="2.1 16.62 2.1 11.51 3.42 11.51 3.42 13.89 5.79 11.48 7.03 11.5 4.97 13.59 7.51 16.61 5.91 16.61 4.13 14.45 3.45 15.13 3.42 16.62 2.1 16.62" style="fill: #0cb14b;"/>
</svg>