<?xml version="1.0" encoding="UTF-8"?>
<svg id="TL" xmlns="http://www.w3.org/2000/svg" viewBox="0 0 24 24">
  <path d="M21.05,9.1v-4c0-1.19-.96-2.15-2.15-2.15h-4c-1.1,0-2,.83-2.13,1.9h-1.55c-.13-1.07-1.03-1.9-2.13-1.9h-4c-1.19,0-2.15.96-2.15,2.15v4c0,1.1.83,2,1.9,2.12v1.55c-1.07.13-1.9,1.02-1.9,2.12v4c0,1.19.96,2.15,2.15,2.15h4c1.1,0,2-.83,2.13-1.9h1.55c.13,1.07,1.03,1.9,2.13,1.9h3c.36,0,.65-.29.65-.65s-.29-.65-.65-.65h-3c-.47,0-.85-.38-.85-.85v-4c0-.47.38-.85.85-.85h4c.47,0,.85.38.85.85v3c0,.36.29.65.65.65s.65-.29.65-.65v-3c0-1.1-.83-2-1.9-2.12v-1.55c1.07-.13,1.9-1.02,1.9-2.12ZM14.05,5.1c0-.47.38-.85.85-.85h4c.47,0,.85.38.85.85v4c0,.47-.38.85-.85.85h-4c-.47,0-.85-.38-.85-.85v-4ZM4.25,9.1v-4c0-.47.38-.85.85-.85h4c.47,0,.85.38.85.85v4c0,.47-.38.85-.85.85h-4c-.47,0-.85-.38-.85-.85ZM9.95,18.9c0,.47-.38.85-.85.85h-4c-.47,0-.85-.38-.85-.85v-4c0-.47.38-.85.85-.85h4c.47,0,.85.38.85.85v4ZM12.75,14.9v2.95h-1.5v-2.95c0-1.19-.96-2.15-2.15-2.15h-2.95v-1.5h2.95c1.19,0,2.15-.96,2.15-2.15v-2.95h1.5v2.95c0,1.19.96,2.15,2.15,2.15h2.95v1.5h-2.95c-1.19,0-2.15.96-2.15,2.15Z"/>
</svg>