<?xml version="1.0" encoding="UTF-8"?>
<svg id="TF" xmlns="http://www.w3.org/2000/svg" viewBox="0 0 24 24">
  <path d="M20.12,12.1l-7.4,4.27c-.45.26-1.01.26-1.45,0l-7.4-4.27c-.26-.15-.6-.06-.75.2-.15.26-.06.6.2.75l7.4,4.27c.39.23.83.34,1.28.34s.88-.11,1.28-.34l7.4-4.27c.26-.15.35-.49.2-.75-.15-.26-.49-.35-.75-.2Z" style="fill: #404040; stroke-width: 0px;"/>
  <path d="M20.12,15.38l-7.4,4.27c-.45.26-1.01.26-1.45,0l-7.4-4.27c-.26-.15-.6-.06-.75.2-.15.26-.06.6.2.75l7.4,4.27c.39.23.83.34,1.28.34s.88-.11,1.28-.34l7.4-4.27c.26-.15.35-.49.2-.75-.15-.26-.49-.35-.75-.2Z" style="fill: #404040; stroke-width: 0px;"/>
  <path d="M3.82,10.06l6.9,3.99c.39.23.83.34,1.28.34s.88-.11,1.28-.34l6.9-3.99c.48-.28.77-.78.77-1.34s-.29-1.06-.77-1.34l-6.9-3.99c-.79-.45-1.77-.45-2.55,0h0s-6.9,3.99-6.9,3.99c-.48.28-.77.78-.77,1.34s.29,1.06.77,1.34Z" style="fill: #404040; stroke-width: 0px;"/>
</svg>