<?xml version="1.0" encoding="UTF-8"?>
<svg id="FL" xmlns="http://www.w3.org/2000/svg" viewBox="0 0 24 24">
  <path d="M3.27,13.14l7.4,4.27c.41.24.87.35,1.33.35s.92-.12,1.33-.35l7.4-4.27c.31-.18.42-.58.24-.89-.18-.31-.58-.42-.89-.24l-7.4,4.27c-.42.24-.94.24-1.35,0l-7.4-4.27c-.31-.18-.71-.07-.89.24-.18.31-.07.71.24.89Z" style="fill: #000; stroke-width: 0px;"/>
  <path d="M20.07,15.3l-7.4,4.27c-.42.24-.94.24-1.35,0l-7.4-4.27c-.31-.18-.71-.07-.89.24-.18.31-.07.71.24.89l7.4,4.27c.41.24.87.35,1.33.35s.92-.12,1.33-.35l7.4-4.27c.31-.18.42-.58.24-.89-.18-.31-.58-.42-.89-.24Z" style="fill: #000; stroke-width: 0px;"/>
</svg>