<?xml version="1.0" encoding="UTF-8"?>
<svg id="HF" xmlns="http://www.w3.org/2000/svg" viewBox="0 0 24 24">
  <path d="M3.33,13.05l7.4,4.27c.39.23.83.34,1.28.34s.88-.11,1.28-.34l7.4-4.27c.26-.15.35-.49.2-.75-.15-.26-.49-.35-.75-.2l-7.4,4.27c-.45.26-1.01.26-1.45,0l-7.4-4.27c-.26-.15-.6-.06-.75.2-.15.26-.06.6.2.75Z" style="fill: #606060; stroke-width: 0px;"/>
  <path d="M20.12,15.38l-7.4,4.27c-.45.26-1.01.26-1.45,0l-7.4-4.27c-.26-.15-.6-.06-.75.2-.15.26-.06.6.2.75l7.4,4.27c.39.23.83.34,1.28.34s.88-.11,1.28-.34l7.4-4.27c.26-.15.35-.49.2-.75-.15-.26-.49-.35-.75-.2Z" style="fill: #606060; stroke-width: 0px;"/>
</svg>