<?xml version="1.0" encoding="UTF-8"?>
<svg id="TL" xmlns="http://www.w3.org/2000/svg" viewBox="0 0 24 24">
  <path d="M12,14.48c-.46,0-.92-.12-1.33-.35l-6.9-3.99c-.52-.3-.82-.83-.82-1.43s.31-1.13.82-1.43l6.9-3.99c.82-.47,1.83-.47,2.65,0l6.9,3.99c.52.3.82.83.82,1.43s-.31,1.13-.82,1.43l-2,1.15c-.31.18-.71.07-.89-.24-.18-.31-.07-.71.24-.89l2-1.15c.16-.09.17-.24.17-.3s-.02-.21-.17-.3l-6.9-3.99c-.42-.24-.94-.24-1.35,0l-6.9,3.99c-.16.09-.17.24-.17.3s.02.21.17.3l6.9,3.99c.42.24.94.24,1.35,0l1.5-.87c.31-.18.71-.07.89.24.18.31.07.71-.24.89l-1.5.87c-.41.24-.87.35-1.33.35Z" style="fill: #000; stroke-width: 0px;"/>
  <g>
    <path d="M3.27,13.14l7.4,4.27c.41.24.87.35,1.33.35s.92-.12,1.33-.35l7.4-4.27c.31-.18.42-.58.24-.89-.18-.31-.58-.42-.89-.24l-7.4,4.27c-.42.24-.94.24-1.35,0l-7.4-4.27c-.31-.18-.71-.07-.89.24-.18.31-.07.71.24.89Z" style="fill: #000; stroke-width: 0px;"/>
    <path d="M20.07,15.3l-7.4,4.27c-.42.24-.94.24-1.35,0l-7.4-4.27c-.31-.18-.71-.07-.89.24-.18.31-.07.71.24.89l7.4,4.27c.41.24.87.35,1.33.35s.92-.12,1.33-.35l7.4-4.27c.31-.18.42-.58.24-.89-.18-.31-.58-.42-.89-.24Z" style="fill: #000; stroke-width: 0px;"/>
  </g>
</svg>