<?xml version="1.0" encoding="UTF-8"?>
<svg id="HF" xmlns="http://www.w3.org/2000/svg" viewBox="0 0 24 24">
  <path d="M13.83,13.24c-.24,0-.44.05-.61.16-.16.1-.24.27-.24.53s.08.43.24.53c.17.1.37.16.61.16h6.85c.24,0,.44-.05.61-.16.16-.1.24-.27.24-.53s-.08-.43-.24-.53c-.17-.1-.37-.16-.61-.16h-6.85Z" style="fill: #999;"/>
  <path d="M13.83,9.36c-.24,0-.44.05-.61.16-.16.1-.24.27-.24.53s.08.43.24.53c.17.1.37.16.61.16h6.85c.24,0,.44-.05.61-.16.16-.1.24-.27.24-.53s-.08-.43-.24-.53c-.17-.1-.37-.16-.61-.16h-6.85Z" style="fill: #999;"/>
</svg>