<?xml version="1.0" encoding="UTF-8"?>
<svg id="HL" xmlns="http://www.w3.org/2000/svg" viewBox="0 0 24 24">
  <path d="M20.67,13.14h-6.85c-.25,0-.48.06-.66.17-.19.12-.29.33-.29.62s.1.5.29.62c.19.11.41.17.66.17h6.85c.25,0,.48-.06.66-.17.19-.12.29-.33.29-.62s-.1-.5-.29-.62c-.19-.11-.41-.17-.66-.17Z" style="fill: #66f;"/>
  <path d="M13.83,10.84h6.85c.25,0,.48-.06.66-.17.19-.12.29-.33.29-.62s-.1-.5-.29-.62c-.19-.11-.41-.17-.66-.17h-6.85c-.25,0-.48.06-.66.17-.19.12-.29.33-.29.62s.1.5.29.62c.19.11.41.17.66.17Z" style="fill: #66f;"/>
</svg>