<?xml version="1.0" encoding="UTF-8"?>
<svg id="TL" xmlns="http://www.w3.org/2000/svg" viewBox="0 0 24 24">
  <path d="M11,6.18c.09-.13.13-.27.13-.42,0-.54-.27-.81-.81-.81-.12,0-.23.03-.34.09-.1.06-.2.12-.29.19l-6.89,5.66c-.17.14-.31.3-.44.48-.13.19-.19.4-.19.62s.07.44.2.62c.13.18.28.34.43.46l6.89,5.68c.08.06.18.12.29.19.12.07.23.11.33.11.54,0,.81-.28.81-.83,0-.16-.04-.3-.13-.43-.08-.12-.19-.22-.3-.31l-6.68-5.5,6.68-5.5c.11-.08.21-.19.3-.32Z"/>
  <path d="M20.67,13.14h-6.85c-.25,0-.48.06-.66.17-.19.12-.29.33-.29.62s.1.5.29.62c.19.11.41.17.66.17h6.85c.25,0,.48-.06.66-.17.19-.12.29-.33.29-.62s-.1-.5-.29-.62c-.19-.11-.41-.17-.66-.17Z"/>
  <path d="M13.83,10.84h6.85c.25,0,.48-.06.66-.17.19-.12.29-.33.29-.62s-.1-.5-.29-.62c-.19-.11-.41-.17-.66-.17h-6.85c-.25,0-.48.06-.66.17-.19.12-.29.33-.29.62s.1.5.29.62c.19.11.41.17.66.17Z"/>
</svg>