<?xml version="1.0" encoding="UTF-8"?>
<svg id="TF" xmlns="http://www.w3.org/2000/svg" viewBox="0 0 24 24">
  <path d="M10.32,5.06c-.1,0-.2.03-.29.08-.1.05-.19.11-.27.18l-6.89,5.66c-.16.13-.3.29-.42.46-.12.17-.18.36-.18.57s.06.4.19.57c.13.17.27.32.41.44l6.89,5.68c.08.05.17.11.28.18.1.06.2.1.28.1.48,0,.71-.24.71-.73,0-.14-.04-.26-.11-.37-.08-.11-.17-.21-.28-.29l-6.78-5.58,6.77-5.58c.11-.08.2-.18.28-.3.08-.11.11-.24.11-.36,0-.48-.23-.71-.71-.71Z" style="fill: #333;"/>
  <path d="M13.83,13.24c-.24,0-.44.05-.61.16-.16.1-.24.27-.24.53s.08.43.24.53c.17.1.37.16.61.16h6.85c.24,0,.44-.05.61-.16.16-.1.24-.27.24-.53s-.08-.43-.24-.53c-.17-.1-.37-.16-.61-.16h-6.85Z" style="fill: #333;"/>
  <path d="M13.83,9.36c-.24,0-.44.05-.61.16-.16.1-.24.27-.24.53s.08.43.24.53c.17.1.37.16.61.16h6.85c.24,0,.44-.05.61-.16.16-.1.24-.27.24-.53s-.08-.43-.24-.53c-.17-.1-.37-.16-.61-.16h-6.85Z" style="fill: #333;"/>
</svg>