<?xml version="1.0" encoding="UTF-8"?>
<svg id="TL" xmlns="http://www.w3.org/2000/svg" viewBox="0 0 24 24">
  <path d="M8.5,6.59c-.25,0-.44.08-.54.25-.1.16-.15.35-.15.58v9.16c0,.23.05.42.15.58.1.17.29.25.54.25s.44-.08.54-.25c.1-.16.15-.35.15-.58V7.42c0-.23-.05-.42-.15-.58-.1-.17-.29-.25-.54-.25Z"/>
  <path d="M18.57,10.87c.14-.1.21-.25.21-.46,0-.16-.04-.31-.11-.42-.08-.12-.22-.19-.42-.19-.23,0-.45.07-.65.2-.18.12-.35.25-.49.4-.22-.21-.48-.36-.77-.45-.3-.1-.62-.15-.94-.15-.45,0-.88.1-1.28.29-.4.19-.72.46-.96.81-.24.35-.36.77-.36,1.27,0,.41.1.77.29,1.07.18.28.43.52.73.71-.16.09-.33.2-.52.33-.22.16-.33.38-.33.63s.12.44.34.58c.17.1.33.19.47.26-.21.08-.42.17-.61.28-.23.14-.43.31-.58.52-.15.21-.23.48-.23.79,0,.38.1.7.31.93.2.23.46.4.78.51.31.11.64.18.98.21.34.03.65.05.93.05s.61-.02.97-.05c.35-.04.69-.11,1.01-.23.32-.12.59-.3.8-.53.21-.24.32-.57.32-.97s-.1-.75-.31-1.01c-.2-.26-.47-.46-.8-.6-.32-.14-.66-.25-1.02-.33-.36-.08-.7-.15-1.01-.2-.31-.05-.57-.12-.77-.18-.18-.06-.27-.15-.27-.26,0-.09.05-.16.15-.22.1-.06.2-.11.27-.14.12.03.25.06.37.07.53.06,1.07,0,1.58-.22.38-.16.7-.4.95-.72.25-.32.37-.71.37-1.15,0-.37-.09-.73-.26-1.07.12-.06.25-.11.4-.15.17-.05.32-.12.45-.21ZM14.55,16.24c.24-.08.46-.13.63-.13.13,0,.31.02.54.07.22.05.45.12.68.22.23.1.42.22.58.35.15.13.22.27.22.43,0,.19-.07.33-.21.43-.14.11-.32.19-.53.24-.21.05-.43.08-.64.09-.22.01-.4.02-.53.02-.19,0-.42-.02-.68-.05-.26-.04-.49-.11-.68-.23-.19-.11-.28-.29-.28-.55,0-.21.09-.39.26-.54.18-.15.4-.27.64-.35ZM16.38,13.1c-.23.19-.56.29-.97.29-.36,0-.68-.11-.95-.32-.27-.21-.4-.5-.4-.88s.13-.69.39-.93c.26-.25.58-.37.95-.37.89,0,1.32.42,1.32,1.29,0,.43-.12.74-.34.93Z"/>
</svg>