<?xml version="1.0" encoding="UTF-8"?>
<svg id="FF" xmlns="http://www.w3.org/2000/svg" viewBox="0 0 24 24">
  <path d="M14.5,8.15c-.3,0-.55-.25-.55-.55V2.05h-7.95c-1.13,0-2.05.92-2.05,2.05v15.8c0,1.13.92,2.05,2.05,2.05h12c1.13,0,2.05-.92,2.05-2.05v-11.75h-5.55ZM7.12,5.45h3c.3,0,.55.25.55.55s-.25.55-.55.55h-3c-.3,0-.55-.25-.55-.55s.25-.55.55-.55ZM7.12,7.81h1.5c.3,0,.55.25.55.55s-.25.55-.55.55h-1.5c-.3,0-.55-.25-.55-.55s.25-.55.55-.55ZM7.12,10.18h3c.3,0,.55.25.55.55s-.25.55-.55.55h-3c-.3,0-.55-.25-.55-.55s.25-.55.55-.55ZM8.62,16.97h-1.5c-.3,0-.55-.25-.55-.55s.25-.55.55-.55h1.5c.3,0,.55.25.55.55s-.25.55-.55.55ZM16.43,17.96l-1.04,1.85-1.25-2.94-1.25,2.94-1.04-1.85-2.05.54,1.76-4.15v-.02s0-.02,0-.02c-.2-.4-.3-.82-.3-1.25,0-1.59,1.29-2.88,2.88-2.88s2.88,1.29,2.88,2.88c0,.42-.1.84-.3,1.25v.02s1.76,4.17,1.76,4.17l-2.05-.54Z"/>
</svg>