<?xml version="1.0" encoding="UTF-8"?>
<svg id="HL" xmlns="http://www.w3.org/2000/svg" viewBox="0 0 24 24">
  <path d="M8.62,9.01h-1.5c-.36,0-.65-.29-.65-.65s.29-.65.65-.65h1.5c.36,0,.65.29.65.65s-.29.65-.65.65Z" style="fill: #66f;"/>
  <path d="M10.12,6.65h-3c-.36,0-.65-.29-.65-.65s.29-.65.65-.65h3c.36,0,.65.29.65.65s-.29.65-.65.65Z" style="fill: #66f;"/>
  <path d="M10.12,11.38h-3c-.36,0-.65-.29-.65-.65s.29-.65.65-.65h3c.36,0,.65.29.65.65s-.29.65-.65.65Z" style="fill: #66f;"/>
  <path d="M8.62,17.07h-1.5c-.36,0-.65-.29-.65-.65s.29-.65.65-.65h1.5c.36,0,.65.29.65.65s-.29.65-.65.65Z" style="fill: #66f;"/>
  <path d="M12.91,20.03l-1.1-1.96-2.17.57.04-.09,1.79-4.22c-.2-.41-.3-.84-.3-1.27,0-1.64,1.34-2.98,2.98-2.98s2.98,1.34,2.98,2.98c0,.43-.1.86-.3,1.27l1.83,4.31-2.17-.57-1.1,1.96-1.24-2.91-1.23,2.91ZM15.13,16.11l.42.98.3-.53.59.15-.42-.98-.88.37ZM12.44,16.56l.3.53.42-.98-.88-.37-.42.98.59-.15ZM14.14,11.38c-.93,0-1.68.75-1.68,1.68s.75,1.68,1.68,1.68,1.68-.75,1.68-1.68-.75-1.68-1.68-1.68Z" style="fill: #66f;"/>
</svg>