<?xml version="1.0" encoding="UTF-8"?>
<svg id="TL" xmlns="http://www.w3.org/2000/svg" viewBox="0 0 24 24">
  <path d="M7.12,9.01h1.5c.36,0,.65-.29.65-.65s-.29-.65-.65-.65h-1.5c-.36,0-.65.29-.65.65s.29.65.65.65Z"/>
  <path d="M7.12,6.65h3c.36,0,.65-.29.65-.65s-.29-.65-.65-.65h-3c-.36,0-.65.29-.65.65s.29.65.65.65Z"/>
  <path d="M10.77,10.73c0-.36-.29-.65-.65-.65h-3c-.36,0-.65.29-.65.65s.29.65.65.65h3c.36,0,.65-.29.65-.65Z"/>
  <path d="M7.12,15.77c-.36,0-.65.29-.65.65s.29.65.65.65h1.5c.36,0,.65-.29.65-.65s-.29-.65-.65-.65h-1.5Z"/>
  <path d="M12.91,20.03l1.23-2.91,1.24,2.91,1.1-1.96,2.17.57-1.83-4.31c.2-.41.3-.84.3-1.27,0-1.64-1.34-2.98-2.98-2.98s-2.98,1.34-2.98,2.98c0,.43.1.86.3,1.27l-1.79,4.22-.04.09,2.17-.57,1.1,1.96ZM16.43,16.71l-.59-.15-.3.53-.42-.98.88-.37.42.98ZM14.14,11.38c.93,0,1.68.75,1.68,1.68s-.75,1.68-1.68,1.68-1.68-.75-1.68-1.68.75-1.68,1.68-1.68ZM12.27,15.73l.88.37-.42.98-.3-.53-.59.15.42-.98Z"/>
  <path d="M19.5,9.95c-.36,0-.65.29-.65.65v9.3c0,.47-.38.85-.85.85H6c-.47,0-.85-.38-.85-.85V4.1c0-.47.38-.85.85-.85h7.85v4.35c0,.36.29.65.65.65h5c.26,0,.5-.16.6-.4.1-.24.04-.52-.14-.71l-5-5c-.12-.12-.29-.19-.46-.19H6c-1.19,0-2.15.96-2.15,2.15v15.8c0,1.19.96,2.15,2.15,2.15h12c1.19,0,2.15-.96,2.15-2.15v-9.3c0-.36-.29-.65-.65-.65ZM15.15,4.17l2.78,2.78h-2.78v-2.78Z"/>
</svg>