<?xml version="1.0" encoding="UTF-8"?>
<svg id="TL" xmlns="http://www.w3.org/2000/svg" viewBox="0 0 24 24">
  <path d="M20.48,11.79h0c-1.26-1.26-4.08-.34-6.56,2.14-1.43,1.43-2.32,2.97-2.59,4.26l-4.85-4.85c-.26-.26-.25-.91.05-1.69.37-.98,1.11-2.06,2.09-3.03,2.09-2.09,4.19-2.66,4.72-2.14l3.39,3.39c.25.25.67.25.92,0s.25-.67,0-.92l-3.39-3.39c-1.07-1.07-3.28-.55-5.45,1.16v-2.47h8.79c.36,0,.65-.29.65-.65s-.29-.65-.65-.65H3.6c-.36,0-.65.29-.65.65s.29.65.65.65h3.91v3.66c-1,1.05-1.79,2.2-2.19,3.28-.5,1.32-.41,2.41.25,3.07l6.22,6.22s0,0,0,0c.38.38.9.56,1.52.56,1.42,0,3.31-.97,5.04-2.7,2.48-2.48,3.4-5.3,2.14-6.56ZM17.42,17.42c-2.09,2.09-4.19,2.67-4.72,2.14-.53-.53.04-2.63,2.14-4.72,1.61-1.61,3.23-2.32,4.13-2.32.27,0,.47.06.59.18.53.53-.04,2.63-2.14,4.72Z"/>
  <path d="M15.36,15.36c-1.21,1.21-1.84,2.54-1.41,2.97.43.43,1.76-.2,2.97-1.41,1.21-1.21,1.84-2.54,1.41-2.97-.43-.43-1.76.2-2.97,1.41Z"/>
</svg>