<?xml version="1.0" encoding="UTF-8"?>
<svg id="HF" xmlns="http://www.w3.org/2000/svg" viewBox="0 0 24 24">
  <path d="M11.48,17.24l-4.17.83c-.3.06-.49.35-.43.65.05.26.28.44.54.44.04,0,.07,0,.11-.01l4.17-.83c.3-.06.49-.35.43-.65-.06-.3-.35-.49-.65-.43Z" style="fill: #999;"/>
  <path d="M10.33,19.85h-1.67c-.3,0-.55.25-.55.55s.25.55.55.55h1.67c.3,0,.55-.25.55-.55s-.25-.55-.55-.55Z" style="fill: #999;"/>
  <path d="M14.5,3.05c-.3,0-.55.25-.55.55s.25.55.55.55c2.87,0,5.2,2.33,5.2,5.2,0,2.01-1.13,3.8-2.94,4.68-.19.09-.31.28-.31.5v.63l-2.06.41c-.3.06-.49.35-.43.65.05.26.28.44.54.44.04,0,.07,0,.11-.01l2.5-.5c.26-.05.44-.28.44-.54v-.74c2.01-1.11,3.25-3.19,3.25-5.51,0-3.47-2.83-6.3-6.3-6.3Z" style="fill: #999;"/>
  <path d="M16.48,17.24l-2.08.42c-.3.06-.49.35-.43.65.05.26.28.44.54.44.04,0,.07,0,.11-.01l2.08-.42c.3-.06.49-.35.43-.65-.06-.3-.34-.49-.65-.43Z" style="fill: #999;"/>
  <path d="M15.33,19.85h-.83c-.3,0-.55.25-.55.55s.25.55.55.55h.83c.3,0,.55-.25.55-.55s-.25-.55-.55-.55Z" style="fill: #999;"/>
</svg>