<?xml version="1.0" encoding="UTF-8"?>
<svg id="FL" xmlns="http://www.w3.org/2000/svg" viewBox="0 0 24 24">
  <path d="M12,2.95c-3.53,0-6.4,2.87-6.4,6.4,0,2.47,1.39,4.68,3.62,5.76.32.16.71.02.87-.3.16-.32.02-.71-.3-.87-1.78-.86-2.88-2.62-2.88-4.59,0-2.81,2.29-5.1,5.1-5.1s5.1,2.29,5.1,5.1c0,1.97-1.1,3.73-2.88,4.59-.22.11-.37.34-.37.58v.55l-4.48.9c-.35.07-.58.41-.51.76.06.31.33.52.64.52.04,0,.08,0,.13-.01l5-1c.3-.06.52-.33.52-.64v-.69c2.02-1.14,3.25-3.23,3.25-5.56,0-3.53-2.87-6.4-6.4-6.4Z"/>
  <path d="M13.96,17.15l-4.17.83c-.35.07-.58.41-.51.76.06.31.33.52.64.52.04,0,.08,0,.13-.01l4.17-.83c.35-.07.58-.41.51-.76-.07-.35-.41-.58-.76-.51Z"/>
  <path d="M12.83,19.75h-1.67c-.36,0-.65.29-.65.65s.29.65.65.65h1.67c.36,0,.65-.29.65-.65s-.29-.65-.65-.65Z"/>
</svg>