<?xml version="1.0" encoding="UTF-8"?>
<svg id="TL" xmlns="http://www.w3.org/2000/svg" viewBox="0 0 24 24">
  <path d="M19.35,9.6c-.12-.16-.31-.25-.51-.25H5.16c-.2,0-.39.09-.51.25-.12.16-.17.36-.12.56l1,4c.07.29.33.49.63.49h11.68c.3,0,.56-.2.63-.49l1-4c.05-.19,0-.4-.12-.56ZM17.33,13.35H6.67l-.68-2.7h12.01l-.68,2.7Z"/>
  <path d="M21.91,7.6c-.12-.16-.31-.25-.51-.25H2.6c-.2,0-.39.09-.51.25-.12.16-.17.36-.12.56l2,8c.07.29.33.49.63.49h12.8c.36,0,.65-.29.65-.65s-.29-.65-.65-.65H5.11l-1.68-6.7h17.14l-1.3,5.19c-.09.35.12.7.47.79.34.09.7-.12.79-.47l1.5-6c.05-.19,0-.4-.12-.56Z"/>
</svg>