<?xml version="1.0" encoding="UTF-8"?>
<svg id="TL" xmlns="http://www.w3.org/2000/svg" viewBox="0 0 24 24">
  <path d="M20.4,12.92c.36,0,.65-.29.65-.65v-4.55c0-2.36-4.55-3.6-9.05-3.6S2.95,5.36,2.95,7.73v8.55c0,2.36,4.55,3.6,9.05,3.6s9.05-1.24,9.05-3.6-4.55-3.6-9.05-3.6c-3.03,0-6.08.56-7.75,1.65v-6.6c0-.94,3.02-2.3,7.75-2.3s7.75,1.36,7.75,2.3v4.55c0,.36.29.65.65.65ZM12,13.98c4.73,0,7.75,1.36,7.75,2.3s-3.02,2.3-7.75,2.3-7.75-1.36-7.75-2.3,3.02-2.3,7.75-2.3Z"/>
  <path d="M12,17.92c1.09,0,4.65-.12,4.65-1.65s-3.56-1.65-4.65-1.65-4.65.12-4.65,1.65,3.56,1.65,4.65,1.65ZM12,15.92c1.39,0,2.4.18,2.95.35-.56.17-1.56.35-2.95.35s-2.4-.18-2.95-.35c.56-.17,1.56-.35,2.95-.35Z"/>
</svg>