<?xml version="1.0" encoding="UTF-8"?>
<svg id="TF" xmlns="http://www.w3.org/2000/svg" viewBox="0 0 24 24">
  <path d="M21.68,13.3l-3.21-1.89c-.17-.53-.67-.97-1.42-1.31v-3.83c0-1.41-2.62-2.05-5.05-2.05s-5.05.64-5.05,2.05v3.83c-.75.33-1.26.77-1.42,1.31l-3.21,1.89c-.26.15-.35.49-.19.75.1.17.29.27.47.27.09,0,.19-.02.28-.08l2.84-1.67c1.8-.6,4.04-.9,6.28-.9s4.48.3,6.28.9l2.84,1.67c.09.05.18.08.28.08.19,0,.37-.1.47-.27.15-.26.07-.6-.19-.75Z" style="fill: #333;"/>
  <path d="M12,12.78c-4.34,0-8.95,1.23-8.95,3.5s4.61,3.5,8.95,3.5,8.95-1.23,8.95-3.5-4.61-3.5-8.95-3.5ZM12,17.82c-.76,0-4.55-.07-4.55-1.55s3.79-1.55,4.55-1.55,4.55.07,4.55,1.55-3.79,1.55-4.55,1.55Z" style="fill: #333;"/>
</svg>