<?xml version="1.0" encoding="UTF-8"?>
<svg id="HF" xmlns="http://www.w3.org/2000/svg" viewBox="0 0 24 24">
  <path d="M12,17.05c2.78,0,5.05-2.27,5.05-5.05,0-.3-.25-.55-.55-.55H7.5c-.3,0-.55.25-.55.55,0,2.78,2.27,5.05,5.05,5.05Z" style="fill: #606060; stroke-width: 0px;"/>
  <path d="M20.41,16.22l-1.73-1c-.26-.15-.6-.06-.75.2-.15.26-.06.6.2.75l1.73,1c.09.05.18.07.27.07.19,0,.38-.1.48-.28.15-.26.06-.6-.2-.75Z" style="fill: #606060; stroke-width: 0px;"/>
  <path d="M16.17,18.13c-.15-.26-.49-.35-.75-.2-.26.15-.35.49-.2.75l1,1.73c.1.18.29.28.48.28.09,0,.19-.02.27-.07.26-.15.35-.49.2-.75l-1-1.73Z" style="fill: #606060; stroke-width: 0px;"/>
  <path d="M12,18.85c-.3,0-.55.25-.55.55v2c0,.3.25.55.55.55s.55-.25.55-.55v-2c0-.3-.25-.55-.55-.55Z" style="fill: #606060; stroke-width: 0px;"/>
  <path d="M8.58,17.93c-.26-.15-.6-.06-.75.2l-1,1.73c-.15.26-.06.6.2.75.09.05.18.07.27.07.19,0,.38-.1.48-.28l1-1.73c.15-.26.06-.6-.2-.75Z" style="fill: #606060; stroke-width: 0px;"/>
  <path d="M5.32,15.22l-1.73,1c-.26.15-.35.49-.2.75.1.18.29.28.48.28.09,0,.19-.02.27-.07l1.73-1c.26-.15.35-.49.2-.75-.15-.26-.49-.35-.75-.2Z" style="fill: #606060; stroke-width: 0px;"/>
</svg>