<?xml version="1.0" encoding="UTF-8"?>
<svg id="TF" xmlns="http://www.w3.org/2000/svg" viewBox="0 0 24 24">
  <path d="M13.29,13.29c2.44-2.44,5.2-3.36,6.42-2.14l-5.52-5.52c-1.07-1.07-3.3-.5-5.48,1.29v-2.77h8.89c.3,0,.55-.25.55-.55s-.25-.55-.55-.55H3.6c-.3,0-.55.25-.55.55s.25.55.55.55h4.01v3.8c-2.31,2.39-3.17,5.05-1.98,6.24l5.52,5.52c-1.22-1.22-.3-3.98,2.14-6.42Z" style="fill: #333;"/>
  <path d="M20.41,11.86c-1.22-1.22-3.98-.3-6.42,2.14-2.44,2.44-3.36,5.2-2.14,6.42s3.98.3,6.42-2.14,3.36-5.2,2.14-6.42ZM16.84,16.84c-1.17,1.17-2.44,1.8-2.83,1.41-.39-.39.24-1.66,1.41-2.83s2.44-1.8,2.83-1.41c.39.39-.24,1.66-1.41,2.83Z" style="fill: #333;"/>
</svg>