<?xml version="1.0" encoding="UTF-8"?>
<svg id="HL" xmlns="http://www.w3.org/2000/svg" viewBox="0 0 24 24">
  <path d="M12,17.15c2.84,0,5.15-2.31,5.15-5.15,0-.36-.29-.65-.65-.65s-.65.29-.65.65c0,2.12-1.73,3.85-3.85,3.85s-3.85-1.73-3.85-3.85c0-.36-.29-.65-.65-.65s-.65.29-.65.65c0,2.84,2.31,5.15,5.15,5.15Z" style="fill: #66f; stroke-width: 0px;"/>
  <path d="M20.46,16.14l-1.73-1c-.31-.18-.71-.07-.89.24-.18.31-.07.71.24.89l1.73,1c.1.06.21.09.32.09.22,0,.44-.12.56-.32.18-.31.07-.71-.24-.89Z" style="fill: #66f; stroke-width: 0px;"/>
  <path d="M16.26,18.08c-.18-.31-.58-.42-.89-.24-.31.18-.42.58-.24.89l1,1.73c.12.21.34.32.56.32.11,0,.22-.03.32-.09.31-.18.42-.58.24-.89l-1-1.73Z" style="fill: #66f; stroke-width: 0px;"/>
  <path d="M12,18.75c-.36,0-.65.29-.65.65v2c0,.36.29.65.65.65s.65-.29.65-.65v-2c0-.36-.29-.65-.65-.65Z" style="fill: #66f; stroke-width: 0px;"/>
  <path d="M8.63,17.84c-.31-.18-.71-.07-.89.24l-1,1.73c-.18.31-.07.71.24.89.1.06.21.09.32.09.22,0,.44-.12.56-.32l1-1.73c.18-.31.07-.71-.24-.89Z" style="fill: #66f; stroke-width: 0px;"/>
  <path d="M5.27,15.14l-1.73,1c-.31.18-.42.58-.24.89.12.21.34.32.56.32.11,0,.22-.03.32-.09l1.73-1c.31-.18.42-.58.24-.89-.18-.31-.58-.42-.89-.24Z" style="fill: #66f; stroke-width: 0px;"/>
</svg>