<?xml version="1.0" encoding="UTF-8"?>
<svg id="TL" xmlns="http://www.w3.org/2000/svg" viewBox="0 0 24 24">
  <path d="M7.35,16.27c0,1.53,3.56,1.65,4.65,1.65s4.65-.12,4.65-1.65-3.56-1.65-4.65-1.65-4.65.12-4.65,1.65ZM12,16.62c-1.39,0-2.4-.18-2.95-.35.56-.17,1.56-.35,2.95-.35s2.4.18,2.95.35c-.56.17-1.56.35-2.95.35Z"/>
  <path d="M21.73,13.21l-3.15-1.85c-.48-1.53-3.63-2.24-6.58-2.24-1.33,0-2.7.15-3.85.44v-3.25c.11-.25,1.44-.89,3.85-.89s3.74.64,3.85.85v1.43c0,.36.29.65.65.65s.65-.29.65-.65v-1.43c0-1.49-2.59-2.15-5.15-2.15s-5.15.66-5.15,2.15v3.75c-.73.34-1.26.79-1.43,1.34l-3.15,1.85c-.31.18-.41.58-.23.89.12.21.34.32.56.32.11,0,.22-.03.33-.09l2.42-1.42v.85c-1.45.6-2.4,1.44-2.4,2.51,0,2.36,4.55,3.6,9.05,3.6s9.05-1.24,9.05-3.6c0-1.08-.95-1.91-2.4-2.51v-.85l2.42,1.42c.1.06.22.09.33.09.22,0,.44-.11.56-.32.18-.31.08-.71-.23-.89ZM19.75,16.27c0,.94-3.02,2.3-7.75,2.3s-7.75-1.36-7.75-2.3,3.02-2.3,7.75-2.3,7.75,1.36,7.75,2.3ZM12,12.68c-1.89,0-3.78.22-5.35.65v-1.55c0-.39,1.87-1.35,5.35-1.35s5.35.96,5.35,1.35v1.55c-1.57-.43-3.46-.65-5.35-.65Z"/>
</svg>