<?xml version="1.0" encoding="UTF-8"?>
<svg id="TL" xmlns="http://www.w3.org/2000/svg" viewBox="0 0 24 24">
  <path d="M15.9,9.35c0-3.53-2.87-6.4-6.4-6.4s-6.4,2.87-6.4,6.4c0,2.47,1.39,4.68,3.62,5.76.32.16.71.02.87-.3.16-.32.02-.71-.3-.87-1.78-.86-2.88-2.62-2.88-4.59,0-2.81,2.29-5.1,5.1-5.1s5.1,2.29,5.1,5.1c0,1.97-1.1,3.73-2.88,4.59-.22.11-.37.34-.37.58v.55l-1.2.24v-2.94l1.81-1.81c.25-.25.25-.67,0-.92s-.67-.25-.92,0l-1.54,1.54-1.54-1.54c-.25-.25-.67-.25-.92,0s-.25.67,0,.92l1.81,1.81v3.2l-1.98.4c-.35.07-.58.41-.51.76.06.31.33.52.64.52.04,0,.08,0,.13-.01l5-1c.3-.06.52-.33.52-.64v-.69c2.02-1.14,3.25-3.23,3.25-5.56Z"/>
  <path d="M14.5,2.95c-.36,0-.65.29-.65.65s.29.65.65.65c2.81,0,5.1,2.29,5.1,5.1,0,1.97-1.1,3.73-2.88,4.59-.22.11-.37.34-.37.58v.55l-1.98.4c-.35.07-.58.41-.51.76.06.31.33.52.64.52.04,0,.08,0,.13-.01l2.5-.5c.3-.06.52-.33.52-.64v-.69c2.02-1.14,3.25-3.23,3.25-5.56,0-3.53-2.87-6.4-6.4-6.4Z"/>
  <path d="M11.46,17.15l-4.17.83c-.35.07-.58.41-.51.76.06.31.33.52.64.52.04,0,.08,0,.13-.01l4.17-.83c.35-.07.58-.41.51-.76-.07-.35-.41-.58-.76-.51Z"/>
  <path d="M10.33,19.75h-1.67c-.36,0-.65.29-.65.65s.29.65.65.65h1.67c.36,0,.65-.29.65-.65s-.29-.65-.65-.65Z"/>
  <path d="M16.46,17.15l-2.08.42c-.35.07-.58.41-.51.76.06.31.33.52.64.52.04,0,.08,0,.13-.01l2.08-.42c.35-.07.58-.41.51-.76-.07-.35-.41-.58-.76-.51Z"/>
  <path d="M15.33,19.75h-.83c-.36,0-.65.29-.65.65s.29.65.65.65h.83c.36,0,.65-.29.65-.65s-.29-.65-.65-.65Z"/>
</svg>