<?xml version="1.0" encoding="UTF-8"?>
<svg id="TF" xmlns="http://www.w3.org/2000/svg" viewBox="0 0 24 24">
  <path d="M13.98,17.24l-4.17.83c-.3.06-.49.35-.43.65.05.26.28.44.54.44.04,0,.07,0,.11-.01l4.17-.83c.3-.06.49-.35.43-.65-.06-.3-.35-.49-.65-.43Z"/>
  <path d="M12.83,19.85h-1.67c-.3,0-.55.25-.55.55s.25.55.55.55h1.67c.3,0,.55-.25.55-.55s-.25-.55-.55-.55Z"/>
  <path d="M12,3.05c-3.47,0-6.3,2.83-6.3,6.3,0,2.31,1.24,4.39,3.25,5.51v1.74c0,.16.07.32.2.43.1.08.22.12.35.12.04,0,.07,0,.11-.01l1.84-.37v-4.44l-1.84-1.84c-.21-.21-.21-.56,0-.78.21-.21.56-.21.78,0l1.61,1.61,1.61-1.61c.21-.21.56-.21.78,0,.21.21.21.56,0,.78l-1.84,1.84v4.22l2.06-.41c.26-.05.44-.28.44-.54v-.74c2.01-1.11,3.25-3.19,3.25-5.51,0-3.47-2.83-6.3-6.3-6.3Z"/>
</svg>