<?xml version="1.0" encoding="UTF-8"?>
<svg id="TL" xmlns="http://www.w3.org/2000/svg" viewBox="0 0 24 24">
  <path d="M5.33,7.7h2.4l-1.25,2.51c-.16.32-.03.71.29.87.09.05.19.07.29.07.24,0,.47-.13.58-.36l1.73-3.45c.1-.2.09-.44-.03-.63-.12-.19-.33-.31-.55-.31h-2.4l1.25-2.51c.16-.32.03-.71-.29-.87-.32-.16-.71-.03-.87.29l-1.72,3.45c-.1.2-.09.44.03.63.12.19.33.31.55.31Z" style="fill: #000; stroke-width: 0px;"/>
  <g>
    <path d="M16.95,12.85c-1.88,0-3.4,1.52-3.4,3.4,0,1.25.67,2.37,1.75,2.97v1.18c0,.36.29.65.65.65h2c.36,0,.65-.29.65-.65v-1.18c1.08-.59,1.75-1.72,1.75-2.97,0-1.88-1.53-3.4-3.4-3.4ZM17.71,18.2c-.25.1-.41.34-.41.6v.94h-.7v-.94c0-.27-.16-.51-.41-.61-.81-.32-1.34-1.08-1.34-1.95,0-1.16.94-2.1,2.1-2.1s2.1.94,2.1,2.1c0,.87-.52,1.63-1.34,1.95Z" style="fill: #000; stroke-width: 0px;"/>
    <path d="M16.95,11.15c2.26,0,4.1-1.84,4.1-4.1s-1.84-4.1-4.1-4.1-4.1,1.84-4.1,4.1,1.84,4.1,4.1,4.1ZM16.3,4.33v.78c0,.36.29.65.65.65s.65-.29.65-.65v-.78c1.23.29,2.15,1.4,2.15,2.72,0,.28-.05.54-.13.79l-.67-.38c-.31-.18-.71-.07-.89.24-.18.31-.07.71.24.89l.67.39c-.51.54-1.23.88-2.03.88s-1.52-.34-2.03-.88l.67-.39c.31-.18.42-.58.24-.89-.18-.31-.58-.42-.89-.24l-.67.38c-.08-.25-.13-.51-.13-.79,0-1.32.92-2.42,2.15-2.72Z" style="fill: #000; stroke-width: 0px;"/>
    <path d="M16.95,8c.52,0,.95-.43.95-.95s-.43-.95-.95-.95-.95.43-.95.95.43.95.95.95Z" style="fill: #000; stroke-width: 0px;"/>
    <path d="M6.8,16.35c-1.27.52-2.08.8-2.74.14-.25-.25-.67-.25-.92,0s-.25.67,0,.92c.57.57,1.19.77,1.82.77.81,0,1.62-.33,2.34-.62,1.27-.52,2.08-.8,2.74-.14.25.25.67.25.92,0s.25-.67,0-.92c-1.3-1.3-2.89-.66-4.16-.14Z" style="fill: #000; stroke-width: 0px;"/>
    <path d="M6.8,19.22c-1.27.52-2.08.8-2.74.14-.25-.25-.67-.25-.92,0s-.25.67,0,.92c.57.57,1.19.77,1.82.77.81,0,1.62-.33,2.34-.62,1.27-.52,2.08-.8,2.74-.14.25.25.67.25.92,0s.25-.67,0-.92c-1.3-1.3-2.89-.66-4.16-.14Z" style="fill: #000; stroke-width: 0px;"/>
    <path d="M6.8,13.48c-1.27.52-2.08.8-2.74.14-.25-.25-.67-.25-.92,0s-.25.67,0,.92c.57.57,1.19.77,1.82.77.81,0,1.62-.33,2.34-.62,1.27-.52,2.08-.8,2.74-.14.25.25.67.25.92,0s.25-.67,0-.92c-1.3-1.3-2.89-.66-4.16-.14Z" style="fill: #000; stroke-width: 0px;"/>
  </g>
</svg>