<?xml version="1.0" encoding="UTF-8"?>
<svg id="FF" xmlns="http://www.w3.org/2000/svg" viewBox="0 0 24 24">
  <path d="M5.33,7.6h2.56l-1.33,2.65c-.14.27-.03.6.25.74.08.04.16.06.25.06.2,0,.4-.11.49-.3l1.73-3.45c.08-.17.08-.37-.02-.54s-.28-.26-.47-.26h-2.56l1.33-2.65c.14-.27.03-.6-.25-.74-.27-.13-.6-.03-.74.25l-1.72,3.45c-.08.17-.08.37.02.54s.28.26.47.26Z" style="fill: #000; stroke-width: 0px;"/>
  <path d="M17.5,3.11v2c0,.3-.25.55-.55.55s-.55-.25-.55-.55v-2c-1.94.27-3.45,1.93-3.45,3.94,0,.53.11,1.04.3,1.5l1.75-1.01c.27-.15.6-.06.75.2.15.26.06.6-.2.75l-1.73,1c.73.94,1.86,1.55,3.14,1.55s2.41-.61,3.14-1.55l-1.73-1c-.26-.15-.35-.49-.2-.75.15-.26.49-.35.75-.2l1.74,1.01c.19-.46.3-.97.3-1.5,0-2.02-1.51-3.67-3.45-3.94ZM16.95,7.9c-.47,0-.85-.38-.85-.85s.38-.85.85-.85.85.38.85.85-.38.85-.85.85Z" style="fill: #000; stroke-width: 0px;"/>
  <path d="M6.84,16.44c-1.31.53-2.15.83-2.85.12-.21-.21-.56-.21-.78,0-.21.21-.21.56,0,.78.54.54,1.14.74,1.75.74.79,0,1.59-.33,2.3-.62,1.31-.53,2.15-.83,2.85-.12.21.21.56.21.78,0,.21-.21.21-.56,0-.78-1.26-1.26-2.8-.63-4.05-.12Z" style="fill: #000; stroke-width: 0px;"/>
  <path d="M6.84,19.31c-1.31.53-2.15.83-2.85.12-.21-.21-.56-.21-.78,0-.21.21-.21.56,0,.78.54.54,1.14.74,1.75.74.79,0,1.59-.33,2.3-.62,1.31-.53,2.15-.83,2.85-.12.21.21.56.21.78,0,.21-.21.21-.56,0-.78-1.26-1.26-2.8-.63-4.05-.12Z" style="fill: #000; stroke-width: 0px;"/>
  <path d="M6.84,13.57c-1.31.53-2.15.83-2.85.12-.21-.21-.56-.21-.78,0-.21.21-.21.56,0,.78.54.54,1.14.74,1.75.74.79,0,1.59-.33,2.3-.62,1.31-.53,2.15-.83,2.85-.12.21.21.56.21.78,0,.21-.21.21-.56,0-.78-1.26-1.26-2.8-.63-4.05-.12Z" style="fill: #000; stroke-width: 0px;"/>
</svg>