<?xml version="1.0" encoding="UTF-8"?>
<svg id="TF" xmlns="http://www.w3.org/2000/svg" viewBox="0 0 24 24">
  <path d="M19.5,20.85h-.95v-2.8h-7.55c-.3,0-.55-.25-.55-.55V6.5c0-.3.25-.55.55-.55h7.55v-1.85c0-1.13-.92-2.05-2.05-2.05H7.5c-1.13,0-2.05.92-2.05,2.05v16.75h-.95c-.3,0-.55.25-.55.55s.25.55.55.55h15c.3,0,.55-.25.55-.55s-.25-.55-.55-.55Z" style="fill: #404040; stroke-width: 0px;"/>
  <path d="M17.01,7.11c-.21.21-.21.56,0,.78l2.06,2.06h-7.07c-.3,0-.55.25-.55.55s.25.55.55.55h8.4c.22,0,.42-.13.51-.34.09-.21.04-.44-.12-.6l-3-3c-.21-.21-.56-.21-.78,0Z" style="fill: #404040; stroke-width: 0px;"/>
  <path d="M20.4,12.95h-8.4c-.22,0-.42.13-.51.34-.09.21-.04.44.12.6l3,3c.11.11.25.16.39.16s.28-.05.39-.16c.21-.21.21-.56,0-.78l-2.06-2.06h7.07c.3,0,.55-.25.55-.55s-.25-.55-.55-.55Z" style="fill: #404040; stroke-width: 0px;"/>
</svg>