<?xml version="1.0" encoding="UTF-8"?>
<svg id="HF" xmlns="http://www.w3.org/2000/svg" viewBox="0 0 24 24">
  <path d="M17.01,7.11c-.21.21-.21.56,0,.78l2.06,2.06h-7.07c-.3,0-.55.25-.55.55s.25.55.55.55h8.4c.22,0,.42-.13.51-.34.09-.21.04-.44-.12-.6l-3-3c-.21-.21-.56-.21-.78,0Z" style="fill: #606060; stroke-width: 0px;"/>
  <path d="M20.4,12.95h-8.4c-.22,0-.42.13-.51.34-.09.21-.04.44.12.6l3,3c.11.11.25.16.39.16s.28-.05.39-.16c.21-.21.21-.56,0-.78l-2.06-2.06h7.07c.3,0,.55-.25.55-.55s-.25-.55-.55-.55Z" style="fill: #606060; stroke-width: 0px;"/>
</svg>