<?xml version="1.0" encoding="UTF-8"?>
<svg id="TL" xmlns="http://www.w3.org/2000/svg" viewBox="0 0 24 24">
  <path d="M12,18.8c.36,0,.65-.29.65-.65v-1.52c.44-.24.75-.7.75-1.23,0-.77-.63-1.4-1.4-1.4s-1.4.63-1.4,1.4c0,.54.31,1,.75,1.23v1.52c0,.36.29.65.65.65Z" style="fill: #000; stroke-width: 0px;"/>
  <path d="M17.5,10.75h-.85v-4.15c0-2.56-2.09-4.65-4.65-4.65s-4.65,2.09-4.65,4.65v4.15h-.85c-1.19,0-2.15.96-2.15,2.15v7c0,1.19.96,2.15,2.15,2.15h10c.36,0,.65-.29.65-.65s-.29-.65-.65-.65H6.5c-.47,0-.85-.38-.85-.85v-7c0-.47.38-.85.85-.85h11c.47,0,.85.38.85.85v6c0,.36.29.65.65.65s.65-.29.65-.65v-6c0-1.19-.96-2.15-2.15-2.15ZM8.65,10.75v-4.15c0-1.85,1.5-3.35,3.35-3.35s3.35,1.5,3.35,3.35v4.15h-6.7Z" style="fill: #000; stroke-width: 0px;"/>
</svg>