<?xml version="1.0" encoding="UTF-8"?>
<svg id="TF" xmlns="http://www.w3.org/2000/svg" viewBox="0 0 24 24">
  <path d="M17.5,10.85h-.95v-4.25c0-2.51-2.04-4.55-4.55-4.55s-4.55,2.04-4.55,4.55v4.25h-.95c-1.13,0-2.05.92-2.05,2.05v7c0,1.13.92,2.05,2.05,2.05h11c1.13,0,2.05-.92,2.05-2.05v-7c0-1.13-.92-2.05-2.05-2.05ZM12.55,16.57v1.58c0,.3-.25.55-.55.55s-.55-.25-.55-.55v-1.58c-.44-.21-.75-.65-.75-1.17,0-.72.58-1.3,1.3-1.3s1.3.58,1.3,1.3c0,.52-.31.96-.75,1.17ZM15.45,10.85h-6.9v-4.25c0-1.9,1.55-3.45,3.45-3.45s3.45,1.55,3.45,3.45v4.25Z" style="fill: #404040; stroke-width: 0px;"/>
</svg>