<?xml version="1.0" encoding="UTF-8"?>
<svg id="TL" xmlns="http://www.w3.org/2000/svg" viewBox="0 0 24 24">
  <g>
    <path d="M12,11.15h8.4c.26,0,.5-.16.6-.4.1-.24.04-.52-.14-.71l-3-3c-.25-.25-.67-.25-.92,0s-.25.67,0,.92l1.89,1.89h-6.83c-.36,0-.65.29-.65.65s.29.65.65.65Z" style="fill: #000; stroke-width: 0px;"/>
    <path d="M20.4,12.85h-8.4c-.26,0-.5.16-.6.4-.1.24-.04.52.14.71l3,3c.13.13.29.19.46.19s.33-.06.46-.19c.25-.25.25-.67,0-.92l-1.89-1.89h6.83c.36,0,.65-.29.65-.65s-.29-.65-.65-.65Z" style="fill: #000; stroke-width: 0px;"/>
  </g>
  <path d="M19.5,20.75h-.85v-1.25c0-.36-.29-.65-.65-.65s-.65.29-.65.65v1.25H6.65V4.1c0-.47.38-.85.85-.85h9c.47,0,.85.38.85.85v.4c0,.36.29.65.65.65s.65-.29.65-.65v-.4c0-1.19-.96-2.15-2.15-2.15H7.5c-1.19,0-2.15.96-2.15,2.15v16.65h-.85c-.36,0-.65.29-.65.65s.29.65.65.65h15c.36,0,.65-.29.65-.65s-.29-.65-.65-.65Z" style="fill: #000; stroke-width: 0px;"/>
</svg>