<?xml version="1.0" encoding="UTF-8"?>
<svg id="HL" xmlns="http://www.w3.org/2000/svg" viewBox="0 0 24 24">
  <path d="M12,11.15h8.4c.26,0,.5-.16.6-.4.1-.24.04-.52-.14-.71l-3-3c-.25-.25-.67-.25-.92,0s-.25.67,0,.92l1.89,1.89h-6.83c-.36,0-.65.29-.65.65s.29.65.65.65Z" style="fill: #66f; stroke-width: 0px;"/>
  <path d="M20.4,12.85h-8.4c-.26,0-.5.16-.6.4-.1.24-.04.52.14.71l3,3c.13.13.29.19.46.19s.33-.06.46-.19c.25-.25.25-.67,0-.92l-1.89-1.89h6.83c.36,0,.65-.29.65-.65s-.29-.65-.65-.65Z" style="fill: #66f; stroke-width: 0px;"/>
</svg>