<?xml version="1.0" encoding="UTF-8"?>
<svg id="TL" xmlns="http://www.w3.org/2000/svg" viewBox="0 0 24 24">
  <path d="M21.4,3.85h-6c-.36,0-.65.29-.65.65v1.4c-1.84.25-2.86,1.54-3.76,2.7-.81,1.03-1.52,1.94-2.74,2.18v-2.28c0-.36-.29-.65-.65-.65H2.6c-.36,0-.65.29-.65.65v6c0,.36.29.65.65.65h5c.36,0,.65-.29.65-.65v-2.4c1.84-.25,2.86-1.54,3.76-2.7.81-1.03,1.52-1.94,2.74-2.18v1.28c0,.36.29.65.65.65h6c.36,0,.65-.29.65-.65v-4c0-.36-.29-.65-.65-.65ZM3.25,13.85v-4.7h3.7v2.35s0,0,0,0,0,0,0,0v2.35h-3.7ZM20.75,7.85h-4.7v-1.35s0,0,0,0,0,0,0,0v-1.35h4.7v2.7Z" style="fill: #000; stroke-width: 0px;"/>
  <path d="M18.75,12.85h-5c-.36,0-.65.29-.65.65v6c0,.36.29.65.65.65h5c.36,0,.65-.29.65-.65v-6c0-.36-.29-.65-.65-.65ZM18.1,18.85h-3.7v-4.7h3.7v4.7Z" style="fill: #000; stroke-width: 0px;"/>
</svg>