<?xml version="1.0" encoding="UTF-8"?>
<svg id="HF" xmlns="http://www.w3.org/2000/svg" viewBox="0 0 24 24">
  <path d="M17.38,7.39c.43-.25.62-.77.44-1.24-.08-.1-.17-.18-.28-.24-1.51-.87-3.02-1.74-4.52-2.61-.62-.36-1.39-.36-2.01,0l-4.73,2.73v3.48l4.73-2.73c.62-.36,1.39-.36,2.01,0,.9.52,1.81,1.04,2.72,1.57.55-.32,1.11-.64,1.66-.96h0Z" style="fill: #606060; stroke-width: 0px;"/>
  <path d="M20.83,11.37c-.08-.1-.17-.18-.28-.24-.74-.43-1.47-.85-2.21-1.28v.41c0,.47-.25.9-.65,1.13-.45.26-.91.52-1.36.78.8.46,1.61.93,2.41,1.39.55-.32,1.11-.64,1.66-.96.43-.25.61-.77.43-1.24Z" style="fill: #606060; stroke-width: 0px;"/>
</svg>