<?xml version="1.0" encoding="UTF-8"?>
<svg id="FF" xmlns="http://www.w3.org/2000/svg" viewBox="0 0 24 24">
  <path d="M20.55,12.87c-2.51,1.45-5.03,2.9-7.54,4.35-.62.36-1.39.36-2.01,0-1.68-.97-3.35-1.94-5.03-2.9V3.87c-.84.48-1.68.97-2.51,1.45-.31.18-.5.51-.5.87v9.29c0,.36.19.69.5.87,2.51,1.45,5.03,2.9,7.54,4.35.62.36,1.39.36,2.01,0,2.51-1.45,5.03-2.9,7.54-4.35.31-.18.5-.51.5-.87v-3.48c0,.36-.19.69-.5.87Z" style="fill: #000; stroke-width: 0px;"/>
  <path d="M18.03,10.26v-3.48c0,.36-.19.69-.5.87-1.84,1.06-3.69,2.13-5.53,3.19v3.48c1.84-1.06,3.69-2.13,5.53-3.19.31-.18.5-.51.5-.87Z" style="fill: #000; stroke-width: 0px;"/>
</svg>