<?xml version="1.0" encoding="UTF-8"?>
<svg id="TF" xmlns="http://www.w3.org/2000/svg" viewBox="0 0 24 24">
  <path d="M5,6.69c-.22,0-.37.07-.46.2-.09.14-.14.32-.14.53v9.16c0,.21.05.39.14.53.09.14.24.2.46.2s.37-.07.46-.2c.09-.14.14-.32.14-.53V7.42c0-.21-.05-.39-.14-.53-.09-.14-.24-.2-.46-.2Z" style="fill: #333;"/>
  <path d="M14.3,11.05c-.23-.35-.53-.63-.89-.84-.37-.2-.82-.31-1.36-.31-.76,0-1.37.17-1.8.5-.44.33-.75.78-.93,1.33-.18.56-.27,1.19-.27,1.89s.09,1.3.26,1.86c.17.55.48,1,.9,1.34.42.33,1.02.5,1.78.5s1.36-.17,1.78-.5c.42-.33.73-.78.9-1.33.18-.56.26-1.18.26-1.86,0-.48-.05-.94-.15-1.38-.1-.44-.26-.84-.49-1.19ZM13.69,14.54c-.05.31-.13.6-.25.85-.12.26-.3.48-.53.64-.23.17-.54.25-.91.25-.49,0-.86-.13-1.12-.38-.25-.25-.43-.56-.52-.94-.09-.37-.14-.76-.14-1.15,0-.29.02-.61.06-.94.04-.33.12-.65.24-.94.12-.3.29-.54.53-.73.24-.19.55-.28.93-.28s.69.09.93.26c.23.17.41.39.54.66.12.27.21.56.25.88.04.31.06.62.06.92s-.02.6-.07.9Z" style="fill: #333;"/>
  <path d="M21.6,10.98c.16-.04.3-.11.42-.19.11-.08.16-.2.16-.38,0-.14-.03-.27-.1-.37-.06-.09-.17-.14-.33-.14-.21,0-.41.06-.59.18-.19.13-.36.27-.5.42l-.03.04-.04-.04c-.22-.21-.48-.37-.77-.46-.29-.09-.6-.14-.91-.14-.44,0-.85.09-1.24.28-.38.18-.69.44-.92.78-.23.33-.35.74-.35,1.21,0,.39.09.73.28,1.02.19.29.45.53.78.73l.08.05-.08.04c-.18.09-.37.21-.58.36-.2.15-.29.33-.29.55s.1.37.3.5c.21.13.4.23.57.3l.12.05-.13.04c-.25.08-.49.19-.71.32-.22.13-.4.29-.54.49-.14.2-.21.44-.21.73,0,.36.09.65.28.86.19.22.44.38.74.48.3.11.63.18.96.21.34.03.65.05.92.05s.61-.02.96-.05c.35-.04.68-.11.99-.22.31-.11.56-.28.76-.51.2-.22.3-.53.3-.9s-.1-.71-.29-.95c-.19-.24-.45-.44-.76-.57-.31-.14-.65-.25-1-.33-.36-.08-.7-.14-1.01-.2-.32-.05-.59-.12-.79-.19-.22-.08-.33-.2-.33-.35,0-.13.07-.23.2-.3.12-.06.22-.12.3-.15h.02s.02,0,.02,0c.12.04.25.06.37.07.52.06,1.04,0,1.53-.21.37-.16.67-.39.91-.69.23-.3.35-.67.35-1.09,0-.37-.09-.73-.27-1.07l-.02-.04.04-.02c.14-.07.29-.14.46-.18ZM18.02,16.14c.26-.09.48-.13.67-.13.14,0,.32.02.56.08.23.05.47.13.7.23.24.1.44.22.6.36.17.15.26.32.26.5,0,.22-.08.39-.25.51-.16.12-.35.2-.57.25-.22.05-.44.08-.66.1s-.4.02-.54.02c-.19,0-.43-.02-.7-.06-.28-.04-.52-.12-.72-.25-.22-.13-.32-.35-.32-.64,0-.24.1-.45.3-.61.19-.16.42-.28.67-.37ZM19.94,13.17c-.25.21-.6.31-1.04.31-.38,0-.72-.12-1.01-.35-.29-.23-.44-.56-.44-.96s.14-.74.43-1.01c.28-.26.62-.4,1.02-.4.94,0,1.42.47,1.42,1.39,0,.46-.13.8-.38,1.01Z" style="fill: #333;"/>
</svg>