<?xml version="1.0" encoding="UTF-8"?>
<svg id="FL" xmlns="http://www.w3.org/2000/svg" viewBox="0 0 24 24">
  <path d="M18.75,12.85h-5c-.36,0-.65.29-.65.65v6c0,.36.29.65.65.65h5c.36,0,.65-.29.65-.65v-6c0-.36-.29-.65-.65-.65ZM18.1,18.85h-3.7v-4.7h3.7v4.7Z" style="fill: #000; stroke-width: 0px;"/>
  <path d="M16.05,6.5c0-.36-.29-.65-.65-.65-2.27,0-3.41,1.46-4.41,2.75-.81,1.03-1.52,1.94-2.74,2.18v-2.28c0-.36-.29-.65-.65-.65H2.6c-.36,0-.65.29-.65.65v6c0,.36.29.65.65.65h5c.36,0,.65-.29.65-.65v-2.4c1.84-.25,2.86-1.54,3.76-2.7.94-1.21,1.75-2.25,3.39-2.25.36,0,.65-.29.65-.65ZM3.25,13.85v-4.7h3.7v2.35s0,0,0,0,0,0,0,0v2.35h-3.7Z" style="fill: #000; stroke-width: 0px;"/>
</svg>