<?xml version="1.0" encoding="UTF-8"?>
<svg id="TF" xmlns="http://www.w3.org/2000/svg" viewBox="0 0 24 24">
  <path d="M21.4,3.95h-6c-.3,0-.55.25-.55.55v1.45h-4.1c-.3,0-.55.25-.55.55v4.45h-2.05v-2.45c0-.3-.25-.55-.55-.55H2.6c-.3,0-.55.25-.55.55v6c0,.3.25.55.55.55h5c.3,0,.55-.25.55-.55v-2.45h2.05v4.45c0,.3.25.55.55.55h2.45v2.45c0,.3.25.55.55.55h5c.3,0,.55-.25.55-.55v-6c0-.3-.25-.55-.55-.55h-5c-.3,0-.55.25-.55.55v2.45h-1.9V7.05h3.55v1.45c0,.3.25.55.55.55h6c.3,0,.55-.25.55-.55v-4c0-.3-.25-.55-.55-.55Z" style="fill: #404040; stroke-width: 0px;"/>
</svg>