<?xml version="1.0" encoding="UTF-8"?>
<svg id="HF" xmlns="http://www.w3.org/2000/svg" viewBox="0 0 24 24">
  <rect x="13.2" y="12.95" width="6.1" height="7.1" rx=".55" ry=".55" style="fill: #606060; stroke-width: 0px;"/>
  <path d="M15.95,6.5c0-.3-.25-.55-.55-.55-2.22,0-3.34,1.44-4.33,2.71-.85,1.09-1.59,2.04-2.92,2.24v-2.41c0-.3-.25-.55-.55-.55H2.6c-.3,0-.55.25-.55.55v6c0,.3.25.55.55.55h5c.3,0,.55-.25.55-.55v-2.5c1.86-.22,2.88-1.51,3.78-2.67.96-1.23,1.79-2.29,3.47-2.29.3,0,.55-.25.55-.55Z" style="fill: #606060; stroke-width: 0px;"/>
</svg>