<?xml version="1.0" encoding="UTF-8"?>
<svg id="FL" xmlns="http://www.w3.org/2000/svg" viewBox="0 0 24 24">
  <path d="M7.6,7.85H2.6c-.36,0-.65.29-.65.65v6c0,.36.29.65.65.65h5c.36,0,.65-.29.65-.65v-6c0-.36-.29-.65-.65-.65ZM6.95,13.85h-3.7v-4.7h3.7v4.7Z" style="fill: #000; stroke-width: 0px;"/>
  <path d="M21.4,3.85h-6c-.36,0-.65.29-.65.65v4c0,.36.29.65.65.65h6c.36,0,.65-.29.65-.65v-4c0-.36-.29-.65-.65-.65ZM20.75,7.85h-4.7v-2.7h4.7v2.7Z" style="fill: #000; stroke-width: 0px;"/>
  <path d="M18.75,12.85h-5c-.36,0-.65.29-.65.65v6c0,.36.29.65.65.65h5c.36,0,.65-.29.65-.65v-6c0-.36-.29-.65-.65-.65ZM18.1,18.85h-3.7v-4.7h3.7v4.7Z" style="fill: #000; stroke-width: 0px;"/>
</svg>