<?xml version="1.0" encoding="UTF-8"?>
<svg id="TL" xmlns="http://www.w3.org/2000/svg" viewBox="0 0 24 24">
  <path d="M5,6.59c-.25,0-.44.08-.54.25-.1.16-.15.35-.15.58v9.16c0,.23.05.42.15.58.1.17.29.25.54.25s.44-.08.54-.25c.1-.16.15-.35.15-.58V7.42c0-.23-.05-.42-.15-.58-.1-.17-.29-.25-.54-.25Z"/>
  <path d="M14.39,11c-.24-.36-.55-.66-.93-.87-.38-.21-.85-.32-1.41-.32-.78,0-1.41.17-1.86.52-.45.34-.78.81-.96,1.38-.18.57-.28,1.21-.28,1.92s.09,1.32.27,1.89c.18.57.49,1.04.93,1.38.44.35,1.06.52,1.84.52s1.4-.17,1.84-.52c.44-.34.75-.81.93-1.38.18-.57.27-1.2.27-1.89,0-.48-.05-.96-.15-1.41-.1-.45-.27-.86-.51-1.23ZM13.59,14.53c-.04.3-.13.58-.24.83-.11.25-.28.45-.5.6-.21.15-.5.23-.85.23-.46,0-.81-.12-1.04-.35-.24-.23-.4-.53-.49-.89-.09-.36-.14-.74-.14-1.13,0-.29.02-.6.06-.92.04-.32.12-.63.23-.92.11-.28.28-.51.5-.69.22-.17.51-.26.87-.26s.65.08.87.24c.22.16.39.37.5.62.12.26.2.55.24.85.04.31.06.61.06.9s-.02.59-.07.89Z"/>
  <path d="M22.07,10.87c.14-.1.21-.25.21-.46,0-.16-.04-.31-.11-.42-.08-.12-.22-.19-.42-.19-.23,0-.45.07-.65.2-.18.12-.35.25-.49.4-.22-.21-.48-.36-.77-.45-.3-.1-.62-.15-.94-.15-.45,0-.88.1-1.28.29-.4.19-.72.46-.96.81-.24.35-.36.77-.36,1.27,0,.41.1.77.29,1.07.18.28.43.52.73.71-.16.09-.33.2-.52.33-.22.16-.33.38-.33.63s.12.44.34.58c.17.1.33.19.47.26-.21.08-.42.17-.61.28-.23.14-.43.31-.58.52-.15.21-.23.48-.23.79,0,.38.1.7.31.93.2.23.46.4.78.51.31.11.64.18.98.21.34.03.65.05.93.05s.61-.02.97-.05c.35-.04.69-.11,1.01-.23.32-.12.59-.3.8-.53.21-.24.32-.57.32-.97s-.1-.75-.31-1.01c-.2-.26-.47-.46-.8-.6-.32-.14-.66-.25-1.02-.33-.36-.08-.7-.15-1.01-.2-.31-.05-.57-.12-.77-.18-.18-.06-.27-.15-.27-.26,0-.09.05-.16.15-.22.1-.06.2-.11.27-.14.12.03.25.06.37.07.53.06,1.07,0,1.58-.22.38-.16.7-.4.95-.72.25-.32.37-.71.37-1.15,0-.37-.09-.73-.26-1.07.12-.06.25-.11.4-.15.17-.05.32-.12.45-.21ZM18.05,16.24c.24-.08.46-.13.63-.13.13,0,.31.02.54.07.22.05.45.12.68.22.23.1.42.22.58.35.15.13.22.27.22.43,0,.19-.07.33-.21.43-.14.11-.32.19-.53.24-.21.05-.43.08-.64.09-.22.01-.4.02-.53.02-.19,0-.42-.02-.68-.05-.26-.04-.49-.11-.68-.23-.19-.11-.28-.29-.28-.55,0-.21.09-.39.26-.54.18-.15.4-.27.64-.35ZM19.88,13.1c-.23.19-.56.29-.97.29-.36,0-.68-.11-.95-.32-.27-.21-.4-.5-.4-.88s.13-.69.39-.93c.26-.25.58-.37.95-.37.89,0,1.32.42,1.32,1.29,0,.43-.12.74-.34.93Z"/>
</svg>