<?xml version="1.0" encoding="UTF-8"?>
<svg id="TF" xmlns="http://www.w3.org/2000/svg" viewBox="0 0 24 24">
  <path d="M21.4,3.95h-6c-.3,0-.55.25-.55.55v1.5c-1.86.22-2.88,1.51-3.78,2.67-.85,1.09-1.59,2.04-2.92,2.24v-2.41c0-.3-.25-.55-.55-.55H2.6c-.3,0-.55.25-.55.55v6c0,.3.25.55.55.55h5c.3,0,.55-.25.55-.55v-2.5c1.86-.22,2.88-1.51,3.78-2.67.85-1.09,1.59-2.04,2.92-2.24v1.41c0,.3.25.55.55.55h6c.3,0,.55-.25.55-.55v-4c0-.3-.25-.55-.55-.55Z" style="fill: #404040; stroke-width: 0px;"/>
  <rect x="13.2" y="12.95" width="6.1" height="7.1" rx=".55" ry=".55" style="fill: #404040; stroke-width: 0px;"/>
</svg>