<?xml version="1.0" encoding="UTF-8"?>
<svg id="TF" xmlns="http://www.w3.org/2000/svg" viewBox="0 0 24 24">
  <path d="M20.55,12.87c-2.51,1.45-5.03,2.9-7.54,4.35-.62.36-1.39.36-2.01,0-1.68-.97-3.35-1.94-5.03-2.9V3.87c-.84.48-1.68.97-2.51,1.45-.31.18-.5.51-.5.87v9.29c0,.36.19.69.5.87,2.51,1.45,5.03,2.9,7.54,4.35.62.36,1.39.36,2.01,0,2.51-1.45,5.03-2.9,7.54-4.35.31-.18.5-.51.5-.87v-3.48c0,.36-.19.69-.5.87Z" style="fill: #404040; stroke-width: 0px;"/>
  <path d="M17.53,7.65c-1.84,1.06-3.69,2.13-5.53,3.19v3.48c1.84-1.06,3.69-2.13,5.53-3.19.31-.18.5-.51.5-.87v-3.48c0,.36-.19.69-.5.87Z" style="fill: #404040; stroke-width: 0px;"/>
  <path d="M13.01,6.77c.9.52,1.81,1.05,2.72,1.57.55-.32,1.11-.64,1.66-.96h0c.43-.25.62-.77.44-1.24-.08-.1-.17-.18-.28-.24-1.51-.87-3.02-1.74-4.52-2.61-.62-.36-1.39-.36-2.01,0-1.58.91-3.15,1.82-4.73,2.73v3.48c1.58-.91,3.15-1.82,4.73-2.73.62-.36,1.39-.36,2.01,0Z" style="fill: #404040; stroke-width: 0px;"/>
  <path d="M17.68,11.39c-.45.26-.9.52-1.36.78.8.46,1.61.93,2.41,1.39.55-.32,1.11-.64,1.66-.96.43-.25.61-.77.43-1.24-.08-.1-.17-.18-.28-.24-.74-.43-1.47-.85-2.21-1.28v.41c0,.47-.25.9-.65,1.13Z" style="fill: #404040; stroke-width: 0px;"/>
</svg>