<?xml version="1.0" encoding="UTF-8"?>
<svg id="FL" xmlns="http://www.w3.org/2000/svg" viewBox="0 0 24 24">
  <path d="M19.9,19.65H4.1c-1.19,0-2.15-.96-2.15-2.15V6.5c0-1.19.96-2.15,2.15-2.15h15.8c.5,0,.93.31,1.09.79.16.48,0,.98-.4,1.28l-8.2,6.1c-.23.17-.55.17-.78,0l-5.37-4c-.29-.21-.35-.62-.13-.91.22-.29.62-.35.91-.13l4.98,3.71,7.44-5.54H4.1c-.47,0-.85.38-.85.85v11c0,.47.38.85.85.85h15.8c.47,0,.85-.38.85-.85v-8.5c0-.36.29-.65.65-.65s.65.29.65.65v8.5c0,1.19-.96,2.15-2.15,2.15Z" style="fill: #000; stroke-width: 0px;"/>
</svg>