<?xml version="1.0" encoding="UTF-8"?>
<svg id="TF" xmlns="http://www.w3.org/2000/svg" viewBox="0 0 24 24">
  <path d="M14.31,11.91c.19.26.5.42.82.42s.63-.16.82-.42l2.05-2.83c.45-.61.68-1.33.68-2.09,0-1.06-.47-2.06-1.29-2.74s-1.9-.95-2.96-.75c-1.4.27-2.52,1.38-2.79,2.78-.19.99.03,1.98.61,2.79l2.05,2.83ZM15.13,5.9c.61,0,1.1.49,1.1,1.1s-.49,1.1-1.1,1.1-1.1-.49-1.1-1.1.49-1.1,1.1-1.1Z" style="fill: #404040; stroke-width: 0px;"/>
  <path d="M21.57,7.48l-1.12-.36c-.15-.05-.33-.03-.46.06-.14.09-.23.23-.25.4-.1.8-.38,1.53-.85,2.16l-2.05,2.82c-.4.55-1.03.87-1.71.87-.3,0-.55.25-.55.55v3.62l-5.17,1.65v-10.85l.75-.24c.29-.09.45-.4.36-.69-.09-.29-.4-.45-.69-.36l-.96.31-6.1-1.95c-.17-.05-.35-.02-.49.08-.14.1-.23.27-.23.44v12c0,.24.15.45.38.52l6.27,2c.05.02.11.03.17.03s.11,0,.17-.03l6.1-1.95,6.1,1.95c.05.02.11.03.17.03.12,0,.23-.04.32-.11.14-.1.23-.27.23-.44v-12c0-.24-.15-.45-.38-.52Z" style="fill: #404040; stroke-width: 0px;"/>
</svg>