<?xml version="1.0" encoding="UTF-8"?>
<svg id="HL" xmlns="http://www.w3.org/2000/svg" viewBox="0 0 24 24">
  <path d="M17.46,4.19c-.84-.7-1.95-.98-3.04-.77-1.44.27-2.59,1.42-2.87,2.86-.2,1.02.03,2.04.63,2.87l2.05,2.83c.21.29.54.46.9.46s.69-.17.9-.46l2.05-2.82c.46-.63.7-1.37.7-2.15,0-1.09-.48-2.12-1.32-2.81ZM17.03,8.38h0s-1.9,2.62-1.9,2.62l-1.9-2.62c-.39-.54-.53-1.19-.41-1.85.18-.92.92-1.66,1.83-1.83.16-.03.32-.05.47-.05.55,0,1.06.18,1.49.54.54.45.85,1.11.85,1.81,0,.5-.16.98-.45,1.38Z" style="fill: #66f; stroke-width: 0px;"/>
  <path d="M15.13,5.8c-.66,0-1.2.54-1.2,1.2s.54,1.2,1.2,1.2,1.2-.54,1.2-1.2-.54-1.2-1.2-1.2Z" style="fill: #66f; stroke-width: 0px;"/>
</svg>