<?xml version="1.0" encoding="UTF-8"?>
<svg id="TL" xmlns="http://www.w3.org/2000/svg" viewBox="0 0 24 24">
  <path d="M14.23,11.97c.21.29.54.46.9.46s.69-.17.9-.46l2.05-2.82c.46-.63.7-1.37.7-2.15,0-1.09-.48-2.12-1.32-2.81-.84-.7-1.95-.98-3.04-.77-1.44.27-2.59,1.42-2.87,2.86-.2,1.02.03,2.04.63,2.87l2.05,2.83ZM12.83,6.53c.18-.92.92-1.66,1.83-1.83.16-.03.32-.05.47-.05.55,0,1.06.18,1.49.54.54.45.85,1.11.85,1.81,0,.5-.16.98-.45,1.38h0s-1.9,2.62-1.9,2.62l-1.9-2.62c-.39-.54-.53-1.19-.41-1.85Z" style="fill: #000; stroke-width: 0px;"/>
  <path d="M21.6,7.38l-1.12-.36c-.34-.11-.71.08-.82.42-.11.34.08.71.42.82l.66.21v10.64l-4.97-1.59v-3.6c0-.33-.29-.6-.65-.6s-.65.27-.65.6v3.6l-4.97,1.59v-10.64l.68-.22c.34-.11.53-.48.42-.82-.11-.34-.47-.53-.82-.42l-.93.3-6.07-1.94c-.2-.06-.41-.03-.58.09-.17.12-.27.32-.27.52v12c0,.28.18.53.45.62l6.27,2c.13.04.27.04.4,0l6.07-1.94,6.07,1.94c.06.02.13.03.2.03.14,0,.27-.04.38-.12.17-.12.27-.32.27-.52v-12c0-.28-.18-.53-.45-.62ZM3.25,6.89l4.97,1.59v10.64l-4.97-1.59V6.89Z" style="fill: #000; stroke-width: 0px;"/>
  <path d="M15.13,8.2c.66,0,1.2-.54,1.2-1.2s-.54-1.2-1.2-1.2-1.2.54-1.2,1.2.54,1.2,1.2,1.2Z" style="fill: #000; stroke-width: 0px;"/>
</svg>