<?xml version="1.0" encoding="UTF-8"?>
<svg id="FL" xmlns="http://www.w3.org/2000/svg" viewBox="0 0 24 24">
  <path d="M21.6,7.38l-1.12-.36c-.34-.11-.71.08-.82.42-.11.34.08.71.42.82l.66.21v10.64l-4.97-1.59v-3.6c0-.33-.29-.6-.65-.6s-.65.27-.65.6v3.6l-4.97,1.59v-10.64l.68-.22c.34-.11.53-.48.42-.82-.11-.34-.47-.53-.82-.42l-.93.3-6.07-1.94c-.2-.06-.41-.03-.58.09-.17.12-.27.32-.27.52v12c0,.28.18.53.45.62l6.27,2c.13.04.27.04.4,0l6.07-1.94,6.07,1.94c.06.02.13.03.2.03.14,0,.27-.04.38-.12.17-.12.27-.32.27-.52v-12c0-.28-.18-.53-.45-.62ZM3.25,6.89l4.97,1.59v10.64l-4.97-1.59V6.89Z" style="fill: #000; stroke-width: 0px;"/>
</svg>