<?xml version="1.0" encoding="UTF-8"?>
<svg id="TL" xmlns="http://www.w3.org/2000/svg" viewBox="0 0 24 24">
  <path d="M7.58,10.11c-.19-.21-.48-.31-.84-.31-.3,0-.57.1-.78.29-.19.16-.35.35-.48.55-.08-.23-.19-.42-.34-.57-.17-.18-.42-.27-.72-.27s-.55.1-.76.29c-.17.15-.32.31-.44.48,0-.1,0-.2-.01-.29-.01-.14-.06-.26-.14-.35-.09-.09-.24-.13-.47-.13-.42,0-.64.21-.64.61v6.26c0,.2.05.37.14.51.1.15.26.22.49.22s.4-.07.5-.21c.09-.14.14-.31.14-.52v-4.59c0-.12.04-.28.13-.46.09-.19.2-.36.33-.51.13-.14.25-.22.37-.22.11,0,.18.06.23.19.05.14.08.3.09.46,0,.18.01.3.01.38v4.76c0,.2.05.37.14.51.1.15.26.22.49.22s.4-.07.5-.21c.09-.14.14-.31.14-.52v-4.63c0-.13.04-.29.11-.47.07-.18.17-.35.3-.48.12-.13.25-.2.39-.2.12,0,.19.05.24.16.05.12.09.26.1.41.01.15.02.28.02.36v4.85c0,.2.05.37.14.51.1.15.26.22.49.22s.4-.07.5-.21c.09-.14.14-.31.14-.52v-4.94c0-.29-.03-.59-.1-.88-.07-.29-.19-.55-.38-.75Z"/>
  <path d="M13.54,10.05c-.42-.16-.91-.24-1.45-.24-.46,0-.91.07-1.33.21-.43.14-.79.41-1.09.79-.09.12-.18.25-.25.4-.08.15-.11.3-.11.47,0,.22.07.38.21.47.13.09.29.14.49.14.24,0,.43-.07.56-.21.12-.13.25-.28.36-.45.11-.16.26-.31.44-.43.18-.12.45-.18.81-.18.43,0,.74.06.94.19.2.12.33.31.39.55.06.24.09.54.09.9-.34,0-.73.02-1.14.05-.42.02-.85.08-1.25.17-.41.09-.79.23-1.13.41-.34.19-.62.45-.83.78-.2.33-.31.76-.31,1.26,0,.69.23,1.22.68,1.57.45.35,1,.53,1.65.53.48,0,.93-.11,1.33-.32.36-.19.69-.44.99-.74v.39c0,.18.04.34.13.47.09.13.27.2.52.2.44,0,.67-.23.67-.67v-4.48c0-.59-.12-1.07-.37-1.43-.25-.36-.59-.62-1.01-.78ZM13.6,14.68c0,.18-.08.36-.25.55-.17.19-.32.34-.45.45-.21.18-.45.32-.72.42-.26.1-.54.15-.82.15-.34,0-.61-.08-.79-.23-.18-.15-.28-.41-.28-.75,0-.31.08-.56.23-.76.15-.2.36-.35.62-.46.26-.11.54-.19.84-.24.31-.05.6-.08.89-.1.27-.01.51-.02.73-.03v1Z"/>
  <path d="M22.03,16.59c-.03-.07-.07-.14-.12-.21l-2.13-2.96,1.85-2.58c.05-.06.09-.13.12-.21.03-.08.05-.15.05-.23,0-.39-.22-.6-.64-.6-.15,0-.28.04-.39.13-.1.08-.19.17-.27.28l-1.52,2.12-1.5-2.12c-.08-.1-.17-.2-.27-.28-.11-.08-.24-.13-.39-.13-.19,0-.35.05-.47.14-.12.1-.18.25-.18.46,0,.08.02.16.07.24.04.07.08.13.12.2l1.84,2.58-2.11,2.97-.11.19c-.04.07-.06.15-.06.23,0,.39.22.6.64.6.15,0,.28-.04.39-.13.1-.08.19-.17.27-.28l1.78-2.49,1.78,2.49c.08.1.17.2.27.28.11.08.24.13.39.13.19,0,.35-.04.47-.13.12-.09.18-.24.18-.45,0-.08-.02-.16-.05-.23Z"/>
</svg>