<?xml version="1.0" encoding="UTF-8"?>
<svg id="TF" xmlns="http://www.w3.org/2000/svg" viewBox="0 0 24 24">
  <path d="M7.51,10.18c-.17-.18-.43-.28-.77-.28-.28,0-.52.09-.72.26-.21.18-.38.39-.52.62l-.06.1-.03-.11c-.07-.25-.19-.47-.34-.63-.15-.16-.37-.24-.65-.24s-.5.09-.7.26c-.2.18-.38.38-.52.59l-.09.14v-.17c0-.16,0-.31-.01-.44,0-.12-.05-.21-.12-.28-.07-.07-.2-.1-.4-.1-.36,0-.54.17-.54.51v6.26c0,.18.04.34.12.46.08.12.21.18.4.18s.34-.06.42-.17c.08-.12.12-.27.12-.46v-4.59c0-.14.05-.3.14-.51.09-.2.21-.38.35-.54.15-.17.3-.25.45-.25.1,0,.24.04.32.25.06.15.09.32.1.49,0,.18.01.31.01.39v4.76c0,.18.04.34.12.46.08.12.21.18.4.18s.34-.06.42-.17c.08-.12.12-.27.12-.46v-4.63c0-.14.04-.31.12-.51.08-.2.19-.37.32-.51.14-.15.29-.23.46-.23.16,0,.27.08.33.22.06.13.09.28.11.44.01.16.02.28.02.37v4.85c0,.18.04.34.12.46.08.12.21.18.4.18s.34-.06.42-.17c.08-.12.12-.27.12-.46v-4.94c0-.29-.03-.57-.09-.86-.06-.28-.18-.51-.36-.7Z" style="fill: #333;"/>
  <path d="M13.51,10.14c-.41-.16-.88-.24-1.41-.24-.45,0-.88.07-1.3.21-.41.14-.76.39-1.04.76-.09.12-.17.24-.24.38-.07.13-.1.27-.1.42,0,.19.05.31.16.39.12.08.26.12.43.12.21,0,.38-.06.49-.18.12-.12.24-.27.35-.44.12-.17.28-.33.47-.46.2-.13.49-.2.86-.2.44,0,.78.07,1,.21.22.14.37.34.43.61.06.26.1.59.1.97v.05h-.05c-.36.01-.75.03-1.18.05-.42.02-.84.08-1.24.16-.4.09-.77.22-1.1.4-.33.18-.59.43-.79.74-.19.31-.29.72-.29,1.21,0,.66.22,1.16.64,1.49.43.34.97.51,1.59.51.46,0,.9-.1,1.28-.31.39-.21.74-.48,1.05-.81l.09-.09v.65c0,.16.04.3.11.41.07.1.22.16.44.16.38,0,.57-.19.57-.57v-4.48c0-.57-.12-1.03-.35-1.37-.23-.34-.56-.59-.96-.75ZM13.7,14.68c0,.2-.09.41-.27.61-.17.2-.33.35-.46.46-.22.19-.47.33-.75.44-.27.11-.56.16-.86.16-.37,0-.66-.09-.86-.26-.21-.17-.31-.45-.31-.83,0-.33.08-.6.25-.82.16-.21.38-.38.66-.49.27-.11.56-.2.87-.25.31-.05.61-.08.9-.1.29-.01.55-.02.78-.03h.05s0,1.1,0,1.1Z" style="fill: #333;"/>
  <path d="M21.94,16.64c-.03-.07-.07-.13-.11-.19l-2.17-3.02,1.89-2.64c.04-.06.08-.12.11-.19.03-.06.04-.12.04-.19,0-.33-.18-.5-.54-.5-.12,0-.23.04-.32.11-.1.07-.18.16-.25.26l-1.6,2.23-1.59-2.23c-.07-.1-.15-.18-.25-.26-.09-.07-.2-.11-.32-.11-.17,0-.31.04-.41.12-.1.08-.15.2-.15.38,0,.06.02.12.05.19.04.07.08.14.12.2l1.88,2.64-.02.03-2.13,2.99-.11.19c-.03.06-.05.12-.05.18,0,.34.17.5.54.5.13,0,.23-.03.33-.11.1-.07.18-.16.25-.26l1.86-2.6,1.86,2.6c.07.1.15.18.25.26.09.07.2.11.33.11.17,0,.31-.04.41-.11.1-.07.14-.19.14-.37,0-.06-.01-.13-.04-.19Z" style="fill: #333;"/>
</svg>