<?xml version="1.0" encoding="UTF-8"?>
<svg id="TL" xmlns="http://www.w3.org/2000/svg" viewBox="0 0 24 24">
  <path d="M19.6,10.08c-.21-1.48-1.3-2.66-2.73-3.01.76-.33,1.29-1.09,1.29-1.96,0-1.19-.96-2.15-2.15-2.15s-2.15.96-2.15,2.15c0,.88.53,1.63,1.29,1.96-1.39.34-2.46,1.47-2.72,2.89h-7.32c-1.19,0-2.15.96-2.15,2.15v6.8c0,1.19.96,2.15,2.15,2.15h12.8c.36,0,.65-.29.65-.65s-.29-.65-.65-.65h-6.32c-.26-1.42-1.33-2.54-2.72-2.89.76-.33,1.28-1.09,1.28-1.96,0-1.19-.96-2.15-2.15-2.15s-2.15.96-2.15,2.15c0,.88.53,1.63,1.28,1.96-1.3.32-2.31,1.32-2.65,2.61-.14-.15-.23-.35-.23-.58v-6.8c0-.47.38-.85.85-.85h13.8c.47,0,.85.38.85.85v5.8c0,.36.29.65.65.65s.65-.29.65-.65v-5.8c0-.94-.61-1.73-1.45-2.02ZM8,14.05c.47,0,.85.38.85.85s-.38.85-.85.85-.85-.38-.85-.85.38-.85.85-.85ZM8,18.05c1.07,0,1.96.72,2.25,1.7h-4.49c.28-.98,1.18-1.7,2.25-1.7ZM16,4.25c.47,0,.85.38.85.85s-.38.85-.85.85-.85-.38-.85-.85.38-.85.85-.85ZM16,8.25c1.07,0,1.96.72,2.25,1.7h-4.49c.28-.98,1.18-1.7,2.25-1.7Z"/>
</svg>