<?xml version="1.0" encoding="UTF-8"?>
<svg id="TF" xmlns="http://www.w3.org/2000/svg" viewBox="0 0 24 24">
  <path d="M19.5,10.55c-.2-1.59-1.46-2.85-3.05-3.06.91-.21,1.6-1.02,1.6-2,0-1.13-.92-2.05-2.05-2.05s-2.05.92-2.05,2.05c0,.97.69,1.79,1.6,2-1.56.2-2.8,1.41-3.04,2.95h-7.41c-1.13,0-2.05.92-2.05,2.05v6.4c0,1.06.81,1.93,1.85,2.03-.25-.05-.45-.26-.45-.53,0-1.8,1.36-3.28,3.1-3.5-.91-.21-1.6-1.02-1.6-2,0-1.13.92-2.05,2.05-2.05s2.05.92,2.05,2.05c0,.97-.68,1.79-1.6,2,1.74.22,3.1,1.7,3.1,3.5,0,.3-.25.55-.55.55h7.9c1.13,0,2.05-.92,2.05-2.05v-6.4c0-.92-.61-1.69-1.45-1.95Z" style="fill: #333;"/>
</svg>