<?xml version="1.0" encoding="UTF-8"?>
<svg id="TF" xmlns="http://www.w3.org/2000/svg" viewBox="0 0 24 24">
  <path d="M21.79,11.61l-2-2c-.21-.21-.56-.21-.78,0-.21.21-.21.56,0,.78l1.06,1.06h-4.85l-5.84-5.84c-.1-.1-.24-.16-.39-.16H2.6c-.3,0-.55.25-.55.55s.25.55.55.55h6.17l5.84,5.84c.1.1.24.16.39.16h5.07l-1.06,1.06c-.21.21-.21.56,0,.78.11.11.25.16.39.16s.28-.05.39-.16l2-2c.21-.21.21-.56,0-.78Z" style="fill: #404040; stroke-width: 0px;"/>
  <path d="M11.61,14.61l-2.84,2.84H2.6c-.3,0-.55.25-.55.55s.25.55.55.55h6.4c.15,0,.29-.06.39-.16l3-3c.21-.21.21-.56,0-.78-.21-.21-.56-.21-.78,0Z" style="fill: #404040; stroke-width: 0px;"/>
</svg>