<?xml version="1.0" encoding="UTF-8"?>
<svg id="TL" xmlns="http://www.w3.org/2000/svg" viewBox="0 0 24 24">
  <path d="M9,18.65H2.6c-.36,0-.65-.29-.65-.65s.29-.65.65-.65h6.13l2.81-2.81c.25-.25.67-.25.92,0s.25.67,0,.92l-3,3c-.12.12-.29.19-.46.19Z" style="fill: #000; stroke-width: 0px;"/>
  <path d="M21.86,11.54l-2-2c-.25-.25-.67-.25-.92,0s-.25.67,0,.92l.89.89h-4.56l-5.81-5.81c-.12-.12-.29-.19-.46-.19H2.6c-.36,0-.65.29-.65.65s.29.65.65.65h6.13l5.81,5.81c.12.12.29.19.46.19h4.83l-.89.89c-.25.25-.25.67,0,.92.13.13.29.19.46.19s.33-.06.46-.19l2-2c.25-.25.25-.67,0-.92Z" style="fill: #000; stroke-width: 0px;"/>
</svg>