<?xml version="1.0" encoding="UTF-8"?>
<svg id="TF" xmlns="http://www.w3.org/2000/svg" viewBox="0 0 24 24">
  <path d="M7.51,10.18c-.17-.18-.43-.28-.77-.28-.28,0-.52.09-.72.26-.21.18-.38.39-.52.62l-.06.1-.03-.11c-.07-.25-.19-.47-.34-.63-.15-.16-.37-.24-.65-.24s-.5.09-.7.26c-.2.18-.38.38-.52.59l-.09.14v-.17c0-.16,0-.31-.01-.44,0-.12-.05-.21-.12-.28-.07-.07-.2-.1-.4-.1-.36,0-.54.17-.54.51v6.26c0,.18.04.34.12.46.08.12.21.18.4.18s.34-.06.42-.17c.08-.12.12-.27.12-.46v-4.59c0-.14.05-.3.14-.51.09-.2.21-.38.35-.54.15-.17.3-.25.45-.25.1,0,.24.04.32.25.06.15.09.32.1.49,0,.18.01.31.01.39v4.76c0,.18.04.34.12.46.08.12.21.18.4.18s.34-.06.42-.17c.08-.12.12-.27.12-.46v-4.63c0-.14.04-.31.12-.51.08-.2.19-.37.32-.51.14-.15.29-.23.46-.23.16,0,.27.08.33.22.06.13.09.28.11.44.01.16.02.28.02.37v4.85c0,.18.04.34.12.46.08.12.21.18.4.18s.34-.06.42-.17c.08-.12.12-.27.12-.46v-4.94c0-.29-.03-.57-.09-.86-.06-.28-.18-.51-.36-.7Z" style="fill: #333;"/>
  <path d="M11.99,9.97c-.22,0-.37.07-.46.2-.09.14-.14.32-.14.53v5.89c0,.21.05.38.14.52.09.13.24.2.46.2s.37-.06.46-.2c.09-.14.14-.31.14-.52v-5.89c0-.21-.05-.39-.14-.53-.09-.14-.24-.2-.46-.2Z" style="fill: #333;"/>
  <path d="M12.01,6.68c-.57,0-.85.27-.85.84s.27.84.84.84.84-.27.84-.84c0-.22-.08-.42-.25-.59-.17-.17-.35-.25-.58-.25Z" style="fill: #333;"/>
  <path d="M21.34,10.57c-.32-.44-.86-.67-1.61-.67-.49,0-.93.12-1.31.36-.38.24-.72.56-1.01.94l-.09.12v-.15c0-.18,0-.38,0-.58,0-.2-.03-.36-.11-.5-.07-.13-.23-.19-.48-.19-.21,0-.36.06-.44.17-.08.12-.13.28-.13.48v6.06c0,.2.04.37.13.51.08.13.22.2.44.2s.37-.06.45-.19c.09-.13.13-.31.13-.51v-3.71c0-.25.07-.5.2-.72.13-.22.27-.42.43-.59.41-.46.92-.69,1.51-.69.33,0,.59.08.76.24.17.16.29.36.36.6.06.24.1.5.1.78v4.07c0,.2.04.37.13.51.08.13.22.2.44.2s.37-.06.45-.19c.09-.13.13-.31.13-.51v-4.29c0-.71-.16-1.29-.48-1.74Z" style="fill: #333;"/>
</svg>