<?xml version="1.0" encoding="UTF-8"?>
<svg id="FL" xmlns="http://www.w3.org/2000/svg" viewBox="0 0 24 24">
  <path d="M7.58,10.11c-.19-.21-.48-.31-.84-.31-.3,0-.57.1-.78.29-.19.16-.35.35-.48.55-.08-.23-.19-.42-.34-.57-.17-.18-.42-.27-.72-.27s-.55.1-.76.29c-.17.15-.32.31-.44.48,0-.1,0-.2-.01-.29-.01-.14-.06-.26-.14-.35-.09-.09-.24-.13-.47-.13-.42,0-.64.21-.64.61v6.26c0,.2.05.37.14.51.1.15.26.22.49.22s.4-.07.5-.21c.09-.14.14-.31.14-.52v-4.59c0-.12.04-.28.13-.46.09-.19.2-.36.33-.51.13-.14.25-.22.37-.22.11,0,.18.06.23.19.05.14.08.3.09.46,0,.18.01.3.01.38v4.76c0,.2.05.37.14.51.1.15.26.22.49.22s.4-.07.5-.21c.09-.14.14-.31.14-.52v-4.63c0-.13.04-.29.11-.47.07-.18.17-.35.3-.48.12-.13.25-.2.39-.2.12,0,.19.05.24.16.05.12.09.26.1.41.01.15.02.28.02.36v4.85c0,.2.05.37.14.51.1.15.26.22.49.22s.4-.07.5-.21c.09-.14.14-.31.14-.52v-4.94c0-.29-.03-.59-.1-.88-.07-.29-.19-.55-.38-.75Z"/>
  <path d="M11.99,9.87c-.25,0-.44.08-.54.25-.1.16-.15.35-.15.58v5.89c0,.23.05.42.15.57.1.16.29.24.54.24s.44-.08.54-.24c.1-.15.15-.35.15-.57v-5.89c0-.23-.05-.42-.15-.58-.1-.17-.29-.25-.54-.25Z"/>
  <path d="M12.01,6.58c-.63,0-.95.32-.95.94s.32.94.94.94.94-.32.94-.94c0-.25-.09-.47-.27-.66-.18-.19-.4-.28-.65-.28Z"/>
  <path d="M21.42,10.52c-.34-.47-.91-.71-1.69-.71-.51,0-.97.13-1.36.38-.35.22-.67.51-.94.85,0-.14,0-.28,0-.43,0-.21-.04-.4-.12-.55-.09-.16-.28-.24-.56-.24-.24,0-.42.07-.52.21-.1.14-.15.32-.15.53v6.06c0,.22.05.41.14.56.1.16.28.24.52.24s.43-.08.53-.23c.1-.15.14-.34.14-.57v-3.71c0-.24.06-.46.18-.67.13-.21.27-.4.42-.57.39-.43.87-.65,1.44-.65.3,0,.54.07.69.21.16.14.27.33.33.56.06.23.09.49.09.75v4.07c0,.22.05.41.14.56.1.16.28.24.52.24s.43-.08.53-.23c.1-.15.14-.34.14-.57v-4.29c0-.73-.17-1.33-.5-1.8Z"/>
</svg>