<?xml version="1.0" encoding="UTF-8"?>
<svg id="HL" xmlns="http://www.w3.org/2000/svg" viewBox="0 0 24 24">
  <path d="M12,13.6c-.36,0-.65.29-.65.65v1.5c0,.36.29.65.65.65s.65-.29.65-.65v-1.5c0-.36-.29-.65-.65-.65Z" style="fill: #66f;"/>
  <path d="M9.73,12.56l-1.3.75c-.31.18-.42.58-.24.89.12.21.34.33.56.33.11,0,.22-.03.32-.09l1.3-.75c.31-.18.42-.58.24-.89-.18-.31-.58-.42-.89-.24Z" style="fill: #66f;"/>
  <path d="M10.38,10.31l-1.3-.75c-.31-.18-.71-.07-.89.24-.18.31-.07.71.24.89l1.3.75c.1.06.21.09.32.09.22,0,.44-.12.56-.33.18-.31.07-.71-.24-.89Z" style="fill: #66f;"/>
  <path d="M12,7.6c-.36,0-.65.29-.65.65v1.5c0,.36.29.65.65.65s.65-.29.65-.65v-1.5c0-.36-.29-.65-.65-.65Z" style="fill: #66f;"/>
  <path d="M14.92,9.56l-1.3.75c-.31.18-.42.58-.24.89.12.21.34.32.56.32.11,0,.22-.03.32-.09l1.3-.75c.31-.18.42-.58.24-.89s-.58-.42-.89-.24Z" style="fill: #66f;"/>
  <path d="M15.57,13.31l-1.3-.75c-.31-.18-.71-.07-.89.24-.18.31-.07.71.24.89l1.3.75c.1.06.21.09.32.09.22,0,.44-.12.56-.32.18-.31.07-.71-.24-.89Z" style="fill: #66f;"/>
</svg>