<?xml version="1.0" encoding="UTF-8"?>
<svg id="FL" xmlns="http://www.w3.org/2000/svg" viewBox="0 0 24 24">
  <path d="M19.89,13.51c.1-.49.17-.99.17-1.51s-.07-1.02-.17-1.51c1.14-.77,1.52-2.3.82-3.51-.7-1.21-2.22-1.65-3.46-1.04-.76-.66-1.65-1.17-2.62-1.51-.09-1.38-1.23-2.47-2.63-2.47s-2.54,1.09-2.63,2.47c-.97.34-1.85.85-2.62,1.51-.58-.28-1.22-.36-1.85-.19-.68.18-1.25.62-1.61,1.23-.35.61-.45,1.33-.27,2.01.17.62.55,1.14,1.08,1.5-.1.49-.17.99-.17,1.51s.07,1.02.17,1.51c-.53.36-.92.88-1.08,1.5-.18.68-.09,1.4.26,2.01.35.61.93,1.05,1.61,1.24.23.06.46.09.69.09.4,0,.79-.11,1.15-.29.76.66,1.65,1.17,2.62,1.51.09,1.38,1.23,2.47,2.63,2.47s2.54-1.09,2.63-2.47c.97-.34,1.86-.85,2.62-1.51.37.18.76.28,1.15.28.92,0,1.81-.48,2.3-1.32.7-1.21.32-2.74-.82-3.51ZM16.11,14.38c-.53.92-.44,2.03.14,2.85-.55.45-1.17.81-1.85,1.07-.42-.91-1.34-1.54-2.4-1.54s-1.98.63-2.4,1.54c-.68-.26-1.3-.62-1.85-1.07.58-.82.67-1.93.14-2.85-.35-.61-.93-1.05-1.61-1.23-.31-.08-.62-.1-.93-.07-.06-.35-.1-.7-.1-1.07s.04-.73.1-1.08c.08,0,.16.03.24.03.23,0,.46-.03.69-.09.68-.18,1.25-.62,1.61-1.23.35-.61.45-1.33.27-2.01-.08-.31-.22-.59-.4-.84.55-.45,1.17-.81,1.85-1.07.42.91,1.34,1.54,2.4,1.54s1.98-.63,2.4-1.54c.68.26,1.3.62,1.85,1.07-.58.82-.67,1.93-.14,2.85.49.85,1.38,1.32,2.3,1.32.08,0,.16-.02.23-.03.06.35.1.71.1,1.08s-.04.72-.1,1.07c-1-.09-2.01.38-2.54,1.31ZM19.58,7.62c.37.64.15,1.47-.49,1.84-.64.37-1.47.15-1.84-.49-.37-.65-.15-1.47.49-1.84.21-.12.44-.18.67-.18.47,0,.92.24,1.17.67ZM12,3.25c.74,0,1.35.61,1.35,1.35s-.61,1.35-1.35,1.35-1.35-.61-1.35-1.35.61-1.35,1.35-1.35ZM4.42,7.62c.18-.31.47-.54.82-.63.12-.03.23-.05.35-.05.23,0,.46.06.67.18.31.18.54.47.63.82.09.35.04.71-.14,1.02-.18.31-.47.54-.82.63-.35.09-.71.04-1.02-.13-.31-.18-.54-.47-.63-.82-.09-.35-.04-.71.14-1.02ZM5.24,17c-.35-.09-.64-.32-.82-.63-.18-.31-.23-.68-.13-1.02.09-.35.32-.64.63-.82.21-.12.44-.18.67-.18.12,0,.23.02.35.05.35.09.64.32.82.63.37.64.15,1.47-.49,1.84-.31.18-.68.23-1.02.13ZM12,20.75c-.74,0-1.35-.61-1.35-1.35s.61-1.35,1.35-1.35,1.35.61,1.35,1.35-.61,1.35-1.35,1.35ZM19.58,16.37c-.37.65-1.2.87-1.84.49-.64-.37-.87-1.2-.5-1.84.25-.43.71-.67,1.17-.67.23,0,.46.06.67.18.64.37.87,1.2.5,1.84Z"/>
</svg>