<?xml version="1.0" encoding="UTF-8"?>
<svg id="HF" xmlns="http://www.w3.org/2000/svg" viewBox="0 0 24 24">
  <path d="M12,4.6c-4.09,0-7.4,3.31-7.4,7.4s3.31,7.4,7.4,7.4,7.4-3.31,7.4-7.4-3.31-7.4-7.4-7.4ZM10.33,13.6l-1.3.75c-.09.05-.18.07-.27.07-.19,0-.38-.1-.48-.28-.15-.26-.06-.6.2-.75l1.3-.75c.26-.15.6-.06.75.2.15.26.06.6-.2.75ZM10.53,11.15c-.1.18-.29.28-.48.28-.09,0-.19-.02-.27-.07l-1.3-.75c-.26-.15-.35-.49-.2-.75.15-.26.49-.35.75-.2l1.3.75c.26.15.35.49.2.75ZM12.55,15.75c0,.3-.25.55-.55.55s-.55-.25-.55-.55v-1.5c0-.3.25-.55.55-.55s.55.25.55.55v1.5ZM12.55,9.75c0,.3-.25.55-.55.55s-.55-.25-.55-.55v-1.5c0-.3.25-.55.55-.55s.55.25.55.55v1.5ZM15.73,14.15c-.1.18-.29.28-.48.28-.09,0-.19-.02-.27-.07l-1.3-.75c-.26-.15-.35-.49-.2-.75.15-.26.49-.35.75-.2l1.3.75c.26.15.35.49.2.75ZM15.53,10.6l-1.3.75c-.09.05-.18.07-.27.07-.19,0-.38-.1-.48-.28-.15-.26-.06-.6.2-.75l1.3-.75c.27-.15.6-.06.75.2.15.26.06.6-.2.75Z" style="fill: #606060;"/>
</svg>