<?xml version="1.0" encoding="UTF-8"?>
<svg id="FL" xmlns="http://www.w3.org/2000/svg" viewBox="0 0 24 24">
  <path d="M11.88,22.05c-.26,0-.5-.16-.61-.41l-.88-2.26c-.13-.33.03-.71.37-.84.33-.13.71.03.84.37l.65,1.65,1.63-.64-2.11-5.4c-.08-.2-.05-.43.07-.6.12-.18.32-.28.54-.28h3.91L6.81,4.17v13.12l.78-.78c.25-.25.67-.25.92,0,.25.25.25.67,0,.92l-1.89,1.89c-.19.19-.46.24-.71.14-.24-.1-.4-.34-.4-.6V2.6c0-.26.16-.5.4-.6.25-.1.52-.05.71.14l11.69,11.69c.19.19.24.47.14.71-.1.24-.34.4-.6.4h-4.52l2,5.12c.06.16.06.34,0,.5-.07.16-.2.28-.36.34l-2.84,1.11c-.08.03-.16.04-.24.04Z" style="fill: #000; stroke-width: 0px;"/>
</svg>