<?xml version="1.0" encoding="UTF-8"?>
<svg id="FL" xmlns="http://www.w3.org/2000/svg" viewBox="0 0 24 24">
  <path d="M18.9,2.95h-3.9c-1.19,0-2.15.96-2.15,2.15v5.8c0,1.19.96,2.15,2.15,2.15h3.9c1.19,0,2.15-.96,2.15-2.15v-5.8c0-1.19-.96-2.15-2.15-2.15ZM19.75,10.9c0,.47-.38.85-.85.85h-3.9c-.47,0-.85-.38-.85-.85v-5.8c0-.47.38-.85.85-.85h3.9c.47,0,.85.38.85.85v5.8Z" style="fill: #000; stroke-width: 0px;"/>
  <path d="M9,10.95h-3.9c-1.19,0-2.15.96-2.15,2.15v5.8c0,1.19.96,2.15,2.15,2.15h3.9c1.19,0,2.15-.96,2.15-2.15v-5.8c0-1.19-.96-2.15-2.15-2.15ZM9.85,18.9c0,.47-.38.85-.85.85h-3.9c-.47,0-.85-.38-.85-.85v-5.8c0-.47.38-.85.85-.85h3.9c.47,0,.85.38.85.85v5.8Z" style="fill: #000; stroke-width: 0px;"/>
  <path d="M9,2.95h-3.9c-1.19,0-2.15.96-2.15,2.15v2c0,1.19.96,2.15,2.15,2.15h3.9c1.19,0,2.15-.96,2.15-2.15v-2c0-1.19-.96-2.15-2.15-2.15ZM9.85,7.1c0,.47-.38.85-.85.85h-3.9c-.47,0-.85-.38-.85-.85v-2c0-.47.38-.85.85-.85h3.9c.47,0,.85.38.85.85v2Z" style="fill: #000; stroke-width: 0px;"/>
</svg>