<?xml version="1.0" encoding="UTF-8"?>
<svg id="TL" xmlns="http://www.w3.org/2000/svg" viewBox="0 0 24 24">
  <path d="M20.4,17.25h-5.33l1.39-1.39c.25-.25.25-.67,0-.92s-.67-.25-.92,0l-2.5,2.5c-.25.25-.25.67,0,.92l2.5,2.5c.13.13.29.19.46.19s.33-.06.46-.19c.25-.25.25-.67,0-.92l-1.39-1.39h5.33c.36,0,.65-.29.65-.65s-.29-.65-.65-.65Z" style="fill: #000; stroke-width: 0px;"/>
  <g>
    <path d="M18.9,2.95h-3.9c-1.19,0-2.15.96-2.15,2.15v5.8c0,1.19.96,2.15,2.15,2.15h3.9c1.19,0,2.15-.96,2.15-2.15v-5.8c0-1.19-.96-2.15-2.15-2.15ZM19.75,10.9c0,.47-.38.85-.85.85h-3.9c-.47,0-.85-.38-.85-.85v-5.8c0-.47.38-.85.85-.85h3.9c.47,0,.85.38.85.85v5.8Z" style="fill: #000; stroke-width: 0px;"/>
    <path d="M9,10.95h-3.9c-1.19,0-2.15.96-2.15,2.15v5.8c0,1.19.96,2.15,2.15,2.15h3.9c1.19,0,2.15-.96,2.15-2.15v-5.8c0-1.19-.96-2.15-2.15-2.15ZM9.85,18.9c0,.47-.38.85-.85.85h-3.9c-.47,0-.85-.38-.85-.85v-5.8c0-.47.38-.85.85-.85h3.9c.47,0,.85.38.85.85v5.8Z" style="fill: #000; stroke-width: 0px;"/>
    <path d="M9,2.95h-3.9c-1.19,0-2.15.96-2.15,2.15v2c0,1.19.96,2.15,2.15,2.15h3.9c1.19,0,2.15-.96,2.15-2.15v-2c0-1.19-.96-2.15-2.15-2.15ZM9.85,7.1c0,.47-.38.85-.85.85h-3.9c-.47,0-.85-.38-.85-.85v-2c0-.47.38-.85.85-.85h3.9c.47,0,.85.38.85.85v2Z" style="fill: #000; stroke-width: 0px;"/>
  </g>
</svg>