<?xml version="1.0" encoding="UTF-8"?>
<svg id="FF" xmlns="http://www.w3.org/2000/svg" viewBox="0 0 24 24">
  <path d="M16.62,5.06L7.62,3.06c-.16-.03-.33,0-.46.11-.13.1-.21.26-.21.43v12.6c0,.17.08.32.21.43.1.08.22.12.34.12.04,0,.08,0,.12-.01l9-2c.25-.06.43-.28.43-.54V5.6c0-.26-.18-.48-.43-.54ZM13.64,7.52c-.07.04-.16.07-.27.07h-1.99c-.24,0-.36.12-.36.36v1.64h1.98c.11,0,.2.02.27.07.06.04.09.11.09.23s-.03.19-.09.23c-.07.04-.16.07-.27.07h-1.98v2.33c0,.12-.03.22-.07.3-.05.07-.13.11-.25.11s-.2-.04-.25-.11c-.05-.08-.07-.18-.07-.29v-4.94c0-.16.05-.29.17-.41.11-.11.24-.17.4-.17h2.43c.11,0,.2.02.27.07.06.04.09.11.09.23s-.03.19-.09.23Z"/>
</svg>