<?xml version="1.0" encoding="UTF-8"?>
<svg id="HL" xmlns="http://www.w3.org/2000/svg" viewBox="0 0 24 24">
  <path d="M10.69,13.01c-.16,0-.27-.05-.33-.16-.06-.09-.08-.21-.08-.35v-4.94c0-.18.07-.35.19-.48.13-.13.29-.2.47-.2h2.43c.13,0,.24.03.32.08.09.06.14.16.14.31s-.05.25-.14.31c-.08.05-.19.08-.32.08h-1.99c-.18,0-.26.08-.26.26v1.54h1.88c.13,0,.24.03.32.08.09.06.14.16.14.31s-.05.25-.14.31c-.08.05-.19.08-.32.08h-1.88v2.23c0,.14-.03.26-.09.35-.06.1-.18.15-.33.15Z" style="fill: #66f;"/>
  <path d="M5.14,19.47c-.1,0-.18-.04-.22-.1-.04-.06-.06-.14-.06-.23v-2.96l-.47,3c-.01.07-.04.13-.08.19-.04.06-.11.09-.21.09s-.16-.03-.2-.09c-.04-.05-.06-.11-.08-.19l-.48-3.02v2.96c0,.09-.02.16-.06.23-.04.07-.12.11-.23.11s-.18-.04-.22-.1c-.04-.06-.06-.14-.06-.23v-3.81c0-.15.03-.28.09-.38.07-.11.19-.17.37-.17.14,0,.25.05.31.14.06.08.1.19.12.31l.44,2.67.44-2.67c.02-.12.06-.22.12-.31.07-.09.17-.14.31-.14.17,0,.3.06.36.17.06.1.09.23.09.38v3.81c0,.09-.02.16-.06.23-.04.07-.12.11-.23.11Z" style="fill: #66f;"/>
</svg>