<?xml version="1.0" encoding="UTF-8"?>
<svg id="TL" xmlns="http://www.w3.org/2000/svg" viewBox="0 0 24 24">
  <path d="M13.37,6.9h-2.43c-.19,0-.34.07-.47.2-.13.13-.19.29-.19.48v4.94c0,.13.03.25.08.35.06.1.17.16.33.16s.27-.05.33-.15c.06-.09.09-.21.09-.35v-2.23h1.88c.13,0,.24-.03.32-.08.09-.06.14-.16.14-.31s-.05-.25-.14-.31c-.09-.05-.19-.08-.32-.08h-1.88v-1.54c0-.18.08-.26.26-.26h1.99c.13,0,.24-.03.32-.08.09-.06.14-.16.14-.31s-.05-.25-.14-.31c-.09-.05-.19-.08-.32-.08Z"/>
  <path d="M4.92,19.36c.04.07.12.1.22.1s.18-.04.23-.11c.04-.06.06-.14.06-.23v-3.81c0-.15-.03-.27-.09-.38-.07-.11-.19-.17-.36-.17-.14,0-.25.05-.31.14-.06.08-.1.19-.12.31l-.44,2.67-.44-2.67c-.02-.12-.06-.23-.12-.31-.07-.09-.17-.14-.31-.14-.17,0-.3.06-.37.17-.06.1-.09.23-.09.38v3.81c0,.09.02.16.06.23.04.07.12.1.22.1s.18-.04.23-.11c.04-.06.06-.14.06-.23v-2.96l.48,3.02c.01.07.04.14.08.19.04.06.11.09.2.09s.16-.03.21-.09c.04-.05.07-.12.08-.19l.47-3v2.96c0,.09.02.16.06.23Z"/>
  <path d="M21.4,9.25h-4.25v-3.65c0-.3-.21-.57-.51-.63L7.64,2.97c-.19-.04-.39,0-.55.13-.15.12-.24.31-.24.51v2.15H2.6c-.36,0-.65.29-.65.65s.29.65.65.65h4.25v2.2H2.6c-.36,0-.65.29-.65.65s.29.65.65.65h4.25v2.2H2.6c-.36,0-.65.29-.65.65s.29.65.65.65h4.25v2.15c0,.2.09.38.24.51.12.09.26.14.41.14.05,0,.09,0,.14-.02l3.71-.82v3.74H2.6c-.36,0-.65.29-.65.65s.29.65.65.65h9.4c.36,0,.65-.29.65-.65v-4.68l3.99-.89c.3-.07.51-.33.51-.63v-3.65h4.25c.36,0,.65-.29.65-.65s-.29-.65-.65-.65ZM15.85,13.68l-7.7,1.71V4.41l7.7,1.71v7.56Z"/>
</svg>