<?xml version="1.0" encoding="UTF-8"?>
<svg id="HL" xmlns="http://www.w3.org/2000/svg" viewBox="0 0 24 24">
  <path d="M13.39,13.01c-.13,0-.23-.04-.28-.13-.05-.08-.08-.18-.08-.29v-4.15l-.67,4.21c-.02.09-.05.17-.1.24-.06.08-.14.12-.26.12s-.2-.04-.25-.11c-.05-.06-.08-.14-.1-.24l-.67-4.23v4.16c0,.11-.02.21-.07.29-.05.09-.15.13-.29.13s-.23-.04-.28-.13c-.05-.08-.08-.18-.08-.29v-5.09c0-.2.04-.36.12-.5.09-.14.25-.22.47-.22.18,0,.32.06.4.18.08.11.13.25.15.41l.6,3.66.6-3.66c.03-.16.08-.29.16-.4.08-.12.22-.18.4-.18.23,0,.38.07.47.22.08.14.12.3.12.49v5.09c0,.11-.02.21-.07.29-.05.09-.15.13-.29.13Z" style="fill: #66f;"/>
  <path d="M5.23,17.39c-.13-.16-.31-.29-.54-.38.19-.09.34-.21.45-.37.13-.19.2-.42.2-.69,0-.31-.07-.54-.2-.7-.13-.16-.31-.27-.52-.32-.21-.05-.45-.08-.7-.08h-.56c-.15,0-.29.06-.4.17s-.17.25-.17.4v3.4c0,.16.06.29.17.4s.25.16.4.16h.74c.25,0,.48-.05.69-.14.21-.09.37-.23.49-.42s.18-.41.18-.68c0-.31-.08-.57-.23-.76ZM3.44,15.64c0-.06.02-.1.05-.14.03-.03.07-.05.13-.05h.38c.22,0,.39.04.51.12.11.07.17.23.17.46,0,.25-.07.43-.22.54-.15.11-.35.17-.59.17h-.44v-1.1ZM4.69,18.5c-.07.1-.17.18-.3.22-.13.04-.29.07-.46.07h-.3c-.13,0-.18-.06-.18-.18v-1.27h.46c.17,0,.33.02.47.07.13.04.24.12.32.23.08.11.12.25.12.44s-.04.32-.11.42Z" style="fill: #66f;"/>
</svg>