<?xml version="1.0" encoding="UTF-8"?>
<svg id="HL" xmlns="http://www.w3.org/2000/svg" viewBox="0 0 24 24">
  <path d="M13.49,10.27c-.18-.23-.43-.4-.76-.51.27-.12.48-.29.64-.5.18-.24.27-.55.27-.91,0-.4-.09-.72-.26-.93-.17-.21-.41-.35-.69-.42-.28-.07-.59-.11-.93-.11h-.74c-.2,0-.38.07-.52.22-.15.14-.22.32-.22.52v4.53c0,.21.07.38.22.52.14.14.32.21.53.21h.98c.33,0,.64-.06.91-.18.27-.12.49-.31.65-.55.16-.24.24-.54.24-.89,0-.41-.1-.75-.3-1ZM11.1,7.92c0-.08.02-.14.07-.19.04-.05.11-.07.19-.07h.51c.3,0,.53.05.69.16.16.1.24.31.24.63,0,.34-.1.58-.3.73-.2.15-.47.23-.79.23h-.6v-1.48ZM12.8,11.75c-.1.14-.24.24-.41.3-.18.06-.39.09-.61.09h-.41c-.18,0-.26-.08-.26-.26v-1.71h.63c.23,0,.44.03.63.1.18.06.32.17.43.31.1.15.16.35.16.6s-.05.44-.15.58Z" style="fill: #66f;"/>
  <path d="M5.14,19.47c-.1,0-.18-.04-.22-.1-.04-.06-.06-.14-.06-.23v-2.96l-.47,3c-.01.07-.04.13-.08.19-.04.06-.11.09-.21.09s-.16-.03-.2-.09c-.04-.05-.06-.11-.08-.19l-.48-3.02v2.96c0,.09-.02.16-.06.23-.04.07-.12.11-.23.11s-.18-.04-.22-.1c-.04-.06-.06-.14-.06-.23v-3.81c0-.15.03-.28.09-.38.07-.11.19-.17.37-.17.14,0,.25.05.31.14.06.08.1.19.12.31l.44,2.67.44-2.67c.02-.12.06-.22.12-.31.07-.09.17-.14.31-.14.17,0,.3.06.36.17.06.1.09.23.09.38v3.81c0,.09-.02.16-.06.23-.04.07-.12.11-.23.11Z" style="fill: #66f;"/>
</svg>