<?xml version="1.0" encoding="UTF-8"?>
<svg id="TF" xmlns="http://www.w3.org/2000/svg" viewBox="0 0 24 24">
  <path d="M12.56,9.26c.22-.17.34-.44.34-.81,0-.35-.09-.59-.28-.71-.18-.12-.43-.18-.75-.18h-.51c-.11,0-.19.03-.26.1-.06.07-.1.15-.1.26v1.58h.7c.35,0,.64-.08.85-.25Z" style="fill: #333;"/>
  <path d="M12.4,10.17c-.2-.07-.42-.1-.66-.1h-.73v1.81c0,.24.12.36.36.36h.41c.24,0,.46-.03.65-.1.19-.07.35-.18.46-.33.11-.16.17-.37.17-.63s-.06-.5-.18-.66c-.12-.16-.28-.28-.48-.35Z" style="fill: #333;"/>
  <path d="M5.06,16.59c.12-.17.18-.38.18-.63,0-.28-.06-.5-.18-.64-.12-.14-.28-.24-.47-.29-.2-.05-.43-.08-.67-.08h-.56c-.13,0-.24.05-.33.14s-.14.2-.14.33v3.4c0,.13.04.24.14.33s.2.14.33.14h.74c.24,0,.45-.04.64-.13.19-.09.34-.21.45-.38.11-.17.17-.38.17-.62,0-.29-.07-.52-.21-.7-.14-.18-.35-.31-.62-.38l-.15-.04.14-.05c.23-.09.41-.21.53-.38ZM4.4,17.31c.15.05.27.14.36.26.09.12.14.29.14.5s-.04.36-.13.48c-.09.12-.2.21-.35.26-.14.05-.31.07-.49.07h-.3c-.18,0-.28-.1-.28-.28v-1.37h.56c.18,0,.35.03.5.08ZM3.88,16.84h-.54v-1.2c0-.08.03-.15.08-.2.05-.05.12-.08.2-.08h.38c.24,0,.43.04.57.13.14.09.22.28.22.54,0,.28-.09.49-.26.62-.17.12-.38.19-.65.19Z" style="fill: #333;"/>
  <path d="M21.4,9.35h-4.35v-3.75c0-.26-.18-.48-.43-.54L7.62,3.06c-.17-.04-.33,0-.46.11-.13.1-.21.26-.21.43v2.25H2.6c-.3,0-.55.25-.55.55s.25.55.55.55h4.35v5.9H2.6c-.3,0-.55.25-.55.55s.25.55.55.55h4.35v2.25c0,.17.08.32.21.43.1.08.22.12.34.12.04,0,.08,0,.12-.01l3.83-.85v3.96H2.6c-.3,0-.55.25-.55.55s.25.55.55.55h9.4c.3,0,.55-.25.55-.55v-4.76l4.07-.9c.25-.06.43-.28.43-.54v-3.75h4.35c.3,0,.55-.25.55-.55s-.25-.55-.55-.55ZM13.47,12.11c-.15.23-.35.4-.6.51-.25.12-.55.18-.87.18h-.98c-.18,0-.33-.06-.46-.19-.13-.12-.19-.27-.19-.45v-4.53c0-.17.06-.32.19-.45.13-.13.28-.19.45-.19h.74c.33,0,.63.04.9.1.26.07.48.2.64.39.16.19.24.48.24.86,0,.34-.08.62-.25.85-.17.23-.41.4-.72.52l-.14.05.15.04c.37.11.65.28.84.52.19.24.28.55.28.94,0,.33-.08.61-.22.84Z" style="fill: #333;"/>
</svg>