<?xml version="1.0" encoding="UTF-8"?>
<svg id="FL" xmlns="http://www.w3.org/2000/svg" viewBox="0 0 24 24">
  <path d="M21.4,9.25h-4.25v-3.65c0-.3-.21-.57-.51-.63L7.64,2.97c-.19-.04-.39,0-.55.13-.15.12-.24.31-.24.51v2.15H2.6c-.36,0-.65.29-.65.65s.29.65.65.65h4.25v2.2H2.6c-.36,0-.65.29-.65.65s.29.65.65.65h4.25v2.2H2.6c-.36,0-.65.29-.65.65s.29.65.65.65h4.25v2.15c0,.2.09.38.24.51.12.09.26.14.41.14.05,0,.09,0,.14-.02l3.71-.82v3.74H2.6c-.36,0-.65.29-.65.65s.29.65.65.65h9.4c.36,0,.65-.29.65-.65v-4.68l3.99-.89c.3-.07.51-.33.51-.63v-3.65h4.25c.36,0,.65-.29.65-.65s-.29-.65-.65-.65ZM15.85,13.68l-7.7,1.71V4.41l7.7,1.71v7.56Z"/>
</svg>