<?xml version="1.0" encoding="UTF-8"?>
<svg id="HL" xmlns="http://www.w3.org/2000/svg" viewBox="0 0 24 24">
  <path d="M13.39,13.01c-.13,0-.23-.04-.28-.13-.05-.08-.08-.18-.08-.29v-4.15l-.67,4.21c-.02.09-.05.17-.1.24-.06.08-.14.12-.26.12s-.2-.04-.25-.11c-.05-.06-.08-.14-.1-.24l-.67-4.23v4.16c0,.11-.02.21-.07.29-.05.09-.15.13-.29.13s-.23-.04-.28-.13c-.05-.08-.08-.18-.08-.29v-5.09c0-.2.04-.36.12-.5.09-.14.25-.22.47-.22.18,0,.32.06.4.18.08.11.13.25.15.41l.6,3.66.6-3.66c.03-.16.08-.29.16-.4.08-.12.22-.18.4-.18.23,0,.38.07.47.22.08.14.12.3.12.49v5.09c0,.11-.02.21-.07.29-.05.09-.15.13-.29.13Z" style="fill: #66f;"/>
  <path d="M5.14,19.47c-.1,0-.18-.04-.22-.1-.04-.06-.06-.14-.06-.23v-2.96l-.47,3c-.01.07-.04.13-.08.19-.04.06-.11.09-.21.09s-.16-.03-.2-.09c-.04-.05-.06-.11-.08-.19l-.48-3.02v2.96c0,.09-.02.16-.06.23-.04.07-.12.11-.23.11s-.18-.04-.22-.1c-.04-.06-.06-.14-.06-.23v-3.81c0-.15.03-.28.09-.38.07-.11.19-.17.37-.17.14,0,.25.05.31.14.06.08.1.19.12.31l.44,2.67.44-2.67c.02-.12.06-.22.12-.31.07-.09.17-.14.31-.14.17,0,.3.06.36.17.06.1.09.23.09.38v3.81c0,.09-.02.16-.06.23-.04.07-.12.11-.23.11Z" style="fill: #66f;"/>
</svg>