<?xml version="1.0" encoding="UTF-8"?>
<svg id="TF" xmlns="http://www.w3.org/2000/svg" viewBox="0 0 24 24">
  <path d="M5,19.31s.07.06.14.06.12-.02.14-.06c.03-.05.04-.1.04-.17v-3.81c0-.13-.03-.24-.08-.33-.05-.08-.14-.12-.28-.12-.11,0-.18.03-.23.1-.05.07-.09.16-.11.27l-.49,2.97h-.1l-.49-2.97c-.01-.11-.05-.19-.1-.27-.05-.06-.12-.1-.23-.1-.14,0-.23.04-.28.12-.05.09-.08.2-.08.33v3.81c0,.07.02.13.04.17.03.04.07.06.14.06s.12-.02.14-.06c.03-.05.04-.1.04-.17v-3.59h.1s.58,3.63.58,3.63c0,.06.03.11.06.15.02.03.06.05.12.05s.1-.02.12-.05c.03-.04.05-.09.06-.15l.57-3.63h.1v3.6c0,.07.02.13.04.17Z" style="fill: #333;"/>
  <path d="M21.4,9.35h-4.35v-3.75c0-.26-.18-.48-.43-.54L7.62,3.06c-.16-.03-.33,0-.46.11-.13.1-.21.26-.21.43v2.25H2.6c-.3,0-.55.25-.55.55s.25.55.55.55h4.35v2.4H2.6c-.3,0-.55.25-.55.55s.25.55.55.55h4.35v2.4H2.6c-.3,0-.55.25-.55.55s.25.55.55.55h4.35v2.25c0,.17.08.32.21.43.1.08.22.12.34.12.04,0,.08,0,.12-.01l3.83-.85v3.96H2.6c-.3,0-.55.25-.55.55s.25.55.55.55h9.4c.3,0,.55-.25.55-.55v-4.76l4.07-.9c.25-.06.43-.28.43-.54v-3.75h4.35c.3,0,.55-.25.55-.55s-.25-.55-.55-.55ZM13.65,12.59c0,.09-.02.17-.06.24-.04.06-.1.09-.2.09s-.16-.03-.2-.09c-.04-.06-.06-.14-.06-.24v-4.79h-.1s-.76,4.83-.76,4.83c-.01.08-.04.14-.09.2-.04.05-.09.08-.18.08s-.14-.02-.17-.07c-.04-.05-.07-.12-.08-.2l-.77-4.85h-.1v4.8c0,.09-.02.17-.06.24-.04.06-.1.09-.2.09s-.16-.03-.2-.09c-.04-.06-.06-.14-.06-.24v-5.09c0-.18.04-.33.11-.45.07-.11.2-.17.39-.17.15,0,.26.04.32.14.07.1.12.22.14.36l.65,3.96h.1l.65-3.96c.02-.14.07-.26.14-.36.07-.09.17-.14.32-.14.19,0,.32.06.38.17.07.12.11.27.11.44v5.09Z" style="fill: #333;"/>
</svg>