<?xml version="1.0" encoding="UTF-8"?>
<svg id="HL" xmlns="http://www.w3.org/2000/svg" viewBox="0 0 24 24">
  <path d="M13.49,10.27c-.18-.23-.43-.4-.76-.51.27-.12.48-.29.64-.5.18-.24.27-.55.27-.91,0-.4-.09-.72-.26-.93-.17-.21-.41-.35-.69-.42-.28-.07-.59-.11-.93-.11h-.74c-.2,0-.38.07-.52.22s-.22.32-.22.52v4.53c0,.21.07.38.22.52s.32.21.53.21h.98c.33,0,.64-.06.91-.18.27-.12.49-.31.65-.55.16-.24.24-.54.24-.89,0-.41-.1-.75-.3-1ZM11.1,7.92c0-.08.02-.14.07-.19.05-.05.11-.07.19-.07h.51c.3,0,.53.05.69.16.16.1.24.31.24.63,0,.34-.1.58-.3.73-.2.15-.47.23-.79.23h-.6v-1.48ZM12.8,11.75c-.1.14-.24.24-.41.3-.18.06-.39.09-.61.09h-.41c-.18,0-.26-.08-.26-.26v-1.71h.63c.23,0,.44.03.63.1.18.06.32.17.43.31.1.14.16.35.16.6s-.05.44-.15.58Z" style="fill: #66f;"/>
  <path d="M5.23,17.39c-.13-.16-.31-.29-.54-.38.19-.09.34-.21.45-.37.13-.19.2-.42.2-.69,0-.31-.07-.54-.2-.7-.13-.16-.31-.27-.52-.32-.21-.05-.44-.08-.7-.08h-.56c-.15,0-.29.06-.4.17s-.17.25-.17.4v3.4c0,.16.06.29.17.4s.25.16.4.16h.74c.25,0,.48-.05.69-.14.21-.09.37-.23.49-.42s.18-.41.18-.68c0-.31-.08-.57-.23-.76ZM3.44,15.64c0-.06.02-.1.05-.14.03-.03.07-.05.13-.05h.38c.22,0,.39.04.51.12.11.07.17.23.17.46,0,.25-.07.43-.22.54-.15.11-.35.17-.59.17h-.44v-1.1ZM4.69,18.5c-.07.1-.18.18-.3.22-.13.04-.29.07-.46.07h-.3c-.13,0-.18-.06-.18-.18v-1.27h.46c.17,0,.33.02.47.07.13.04.24.12.32.23s.12.25.12.44-.04.32-.11.42Z" style="fill: #66f;"/>
</svg>