<?xml version="1.0" encoding="UTF-8"?>
<svg id="TL" xmlns="http://www.w3.org/2000/svg" viewBox="0 0 24 24">
  <path d="M13.37,6.9h-2.43c-.19,0-.34.07-.47.2-.13.13-.19.29-.19.48v4.94c0,.13.03.25.08.35.06.1.17.16.33.16s.27-.05.33-.15c.06-.09.09-.21.09-.35v-2.23h1.88c.13,0,.24-.03.32-.08.09-.06.14-.16.14-.31s-.05-.25-.14-.31c-.09-.05-.19-.08-.32-.08h-1.88v-1.54c0-.18.08-.26.26-.26h1.99c.13,0,.24-.03.32-.08.09-.06.14-.16.14-.31s-.05-.25-.14-.31c-.09-.05-.19-.08-.32-.08Z"/>
  <path d="M5.14,16.65c.13-.19.2-.42.2-.69,0-.31-.07-.54-.2-.7-.13-.16-.31-.27-.52-.32-.21-.05-.45-.08-.7-.08h-.56c-.15,0-.29.06-.4.17s-.17.25-.17.4v3.4c0,.16.06.29.17.4s.25.16.4.16h.74c.25,0,.48-.05.69-.14.21-.09.37-.23.49-.42s.18-.41.18-.68c0-.31-.08-.57-.23-.76-.13-.16-.31-.29-.54-.38.19-.09.34-.21.45-.37ZM4.68,17.63c.08.11.12.25.12.44s-.04.32-.11.42c-.07.1-.17.18-.3.22-.13.04-.29.07-.46.07h-.3c-.13,0-.18-.06-.18-.18v-1.27h.46c.17,0,.33.02.47.07.13.04.24.12.32.23ZM4.46,16.57c-.15.11-.35.17-.59.17h-.44v-1.1c0-.06.02-.1.05-.14.03-.03.07-.05.13-.05h.38c.22,0,.39.04.51.12.11.07.17.23.17.46,0,.25-.07.43-.22.54Z"/>
  <path d="M21.4,9.25h-4.25v-3.65c0-.3-.21-.57-.51-.63L7.64,2.97c-.19-.04-.39,0-.55.13-.15.12-.24.31-.24.51v2.15H2.6c-.36,0-.65.29-.65.65s.29.65.65.65h4.25v5.7H2.6c-.36,0-.65.29-.65.65s.29.65.65.65h4.25v2.15c0,.2.09.38.24.51.12.09.26.14.41.14.05,0,.09,0,.14-.02l3.71-.82v3.74H2.6c-.36,0-.65.29-.65.65s.29.65.65.65h9.4c.36,0,.65-.29.65-.65v-4.68l3.99-.89c.3-.07.51-.33.51-.63v-3.65h4.25c.36,0,.65-.29.65-.65s-.29-.65-.65-.65ZM15.85,13.68l-7.7,1.71V4.41l7.7,1.71v7.56Z"/>
</svg>