<?xml version="1.0" encoding="UTF-8"?>
<svg id="TF" xmlns="http://www.w3.org/2000/svg" viewBox="0 0 24 24">
  <path d="M12.56,9.26c.22-.17.34-.44.34-.81,0-.35-.09-.59-.28-.71-.18-.12-.43-.18-.75-.18h-.51c-.11,0-.19.03-.26.1-.06.07-.1.15-.1.26v1.58h.7c.35,0,.64-.08.85-.25Z" style="fill: #333;"/>
  <path d="M12.4,10.17c-.2-.07-.42-.1-.66-.1h-.73v1.81c0,.24.12.36.36.36h.41c.24,0,.46-.03.64-.1.19-.07.35-.18.46-.33.11-.16.17-.37.17-.63s-.06-.5-.18-.66c-.12-.16-.28-.28-.48-.35Z" style="fill: #333;"/>
  <path d="M5,19.31s.07.06.14.06.12-.02.14-.06c.03-.05.04-.1.04-.17v-3.81c0-.13-.03-.24-.08-.33-.05-.08-.14-.12-.28-.12-.11,0-.18.03-.23.1-.05.07-.09.16-.11.27l-.49,2.97h-.1l-.49-2.97c-.01-.11-.05-.19-.1-.27-.05-.06-.12-.1-.23-.1-.14,0-.23.04-.28.12-.05.09-.08.2-.08.33v3.81c0,.07.02.13.04.17.03.04.07.06.14.06s.12-.02.14-.06c.03-.05.04-.1.04-.17v-3.59h.1s.58,3.63.58,3.63c0,.06.03.11.06.15.02.03.06.05.12.05s.1-.02.12-.05c.03-.04.05-.09.06-.15l.57-3.63h.1v3.6c0,.07.02.13.04.17Z" style="fill: #333;"/>
  <path d="M21.4,9.35h-4.35v-3.75c0-.26-.18-.48-.43-.54L7.62,3.06c-.16-.03-.33,0-.46.11-.13.1-.21.26-.21.43v2.25H2.6c-.3,0-.55.25-.55.55s.25.55.55.55h4.35v2.4H2.6c-.3,0-.55.25-.55.55s.25.55.55.55h4.35v2.4H2.6c-.3,0-.55.25-.55.55s.25.55.55.55h4.35v2.25c0,.17.08.32.21.43.1.08.22.12.34.12.04,0,.08,0,.12-.01l3.83-.85v3.96H2.6c-.3,0-.55.25-.55.55s.25.55.55.55h9.4c.3,0,.55-.25.55-.55v-4.76l4.07-.9c.25-.06.43-.28.43-.54v-3.75h4.35c.3,0,.55-.25.55-.55s-.25-.55-.55-.55ZM13.47,12.11c-.15.23-.35.4-.6.51-.26.12-.55.18-.87.18h-.98c-.18,0-.33-.06-.46-.19-.13-.12-.19-.27-.19-.45v-4.53c0-.18.06-.32.19-.45.13-.13.28-.19.45-.19h.74c.33,0,.63.04.9.1.26.07.48.2.64.39.16.19.24.48.24.86,0,.34-.08.62-.25.85-.17.23-.41.4-.72.52l-.14.05.15.04c.37.11.65.28.84.52.19.24.28.55.28.94,0,.33-.08.61-.22.84Z" style="fill: #333;"/>
</svg>