<?xml version="1.0" encoding="UTF-8"?>
<svg id="HL" xmlns="http://www.w3.org/2000/svg" viewBox="0 0 24 24">
  <path d="M10.69,13.01c-.16,0-.27-.05-.33-.16-.06-.09-.08-.21-.08-.35v-4.94c0-.18.07-.35.19-.48.13-.13.29-.2.47-.2h2.43c.13,0,.24.03.32.08.09.06.14.16.14.31s-.05.25-.14.31c-.08.05-.19.08-.32.08h-1.99c-.18,0-.26.08-.26.26v1.54h1.88c.13,0,.24.03.32.08.09.06.14.16.14.31s-.05.25-.14.31c-.08.05-.19.08-.32.08h-1.88v2.23c0,.14-.03.26-.09.35-.06.1-.18.15-.33.15Z" style="fill: #66f;"/>
  <path d="M5.23,17.39c-.13-.16-.31-.29-.54-.38.19-.09.34-.21.45-.37.13-.19.2-.42.2-.69,0-.31-.07-.54-.2-.7-.13-.16-.31-.27-.52-.32-.21-.05-.45-.08-.7-.08h-.56c-.15,0-.29.06-.4.17s-.17.25-.17.4v3.4c0,.16.06.29.17.4s.25.16.4.16h.74c.25,0,.48-.05.69-.14.21-.09.37-.23.49-.42s.18-.41.18-.68c0-.31-.08-.57-.23-.76ZM3.44,15.64c0-.06.02-.1.05-.14.03-.03.07-.05.13-.05h.38c.22,0,.39.04.51.12.11.07.17.23.17.46,0,.25-.07.43-.22.54-.15.11-.35.17-.59.17h-.44v-1.1ZM4.69,18.5c-.07.1-.17.18-.3.22-.13.04-.29.07-.46.07h-.3c-.13,0-.18-.06-.18-.18v-1.27h.46c.17,0,.33.02.47.07.13.04.24.12.32.23.08.11.12.25.12.44s-.04.32-.11.42Z" style="fill: #66f;"/>
</svg>