<?xml version="1.0" encoding="UTF-8"?>
<svg id="HF" xmlns="http://www.w3.org/2000/svg" viewBox="0 0 24 24">
  <path d="M5.06,16.59c.12-.17.18-.38.18-.63,0-.28-.06-.5-.18-.64-.12-.14-.28-.24-.47-.29-.2-.05-.43-.08-.67-.08h-.56c-.13,0-.24.05-.33.14s-.14.2-.14.33v3.4c0,.13.04.24.14.33s.2.14.33.14h.74c.24,0,.45-.04.64-.13.19-.09.34-.21.45-.38.11-.17.17-.38.17-.62,0-.29-.07-.52-.21-.7-.14-.18-.35-.31-.62-.38l-.15-.04.14-.05c.23-.09.41-.21.53-.38ZM4.4,17.31c.15.05.27.14.36.26.09.12.14.29.14.5s-.04.36-.13.48c-.09.12-.2.21-.35.26-.14.05-.31.07-.49.07h-.3c-.18,0-.28-.1-.28-.28v-1.37h.56c.18,0,.35.03.5.08ZM3.88,16.84h-.54v-1.2c0-.08.03-.15.08-.2.05-.05.12-.08.2-.08h.38c.24,0,.43.04.57.13.14.09.22.28.22.54,0,.28-.09.49-.26.62-.17.12-.38.19-.65.19Z" style="fill: #999;"/>
  <path d="M12,14.65c-.3,0-.55.25-.55.55v4.65H2.6c-.3,0-.55.25-.55.55s.25.55.55.55h9.4c.3,0,.55-.25.55-.55v-5.2c0-.3-.25-.55-.55-.55Z" style="fill: #999;"/>
  <path d="M2.6,13.95h4.9c.3,0,.55-.25.55-.55s-.25-.55-.55-.55H2.6c-.3,0-.55.25-.55.55s.25.55.55.55Z" style="fill: #999;"/>
  <path d="M2.6,6.95h4.9c.3,0,.55-.25.55-.55s-.25-.55-.55-.55H2.6c-.3,0-.55.25-.55.55s.25.55.55.55Z" style="fill: #999;"/>
  <path d="M21.4,9.35h-4.9c-.3,0-.55.25-.55.55s.25.55.55.55h4.9c.3,0,.55-.25.55-.55s-.25-.55-.55-.55Z" style="fill: #999;"/>
</svg>