<?xml version="1.0" encoding="UTF-8"?>
<svg id="HF" xmlns="http://www.w3.org/2000/svg" viewBox="0 0 24 24">
  <path d="M5,19.31s.07.06.14.06.12-.02.14-.06c.03-.05.04-.1.04-.17v-3.81c0-.13-.03-.24-.08-.33-.05-.08-.14-.12-.28-.12-.11,0-.18.03-.23.1-.05.07-.09.16-.11.27l-.49,2.97h-.1l-.49-2.97c-.01-.11-.05-.19-.1-.27-.05-.06-.12-.1-.23-.1-.14,0-.23.04-.28.12-.05.09-.08.2-.08.33v3.81c0,.07.02.13.04.17.03.04.07.06.14.06s.12-.02.14-.06c.03-.05.04-.1.04-.17v-3.59h.1s.58,3.63.58,3.63c0,.06.03.11.06.15.02.03.06.05.12.05s.1-.02.12-.05c.03-.04.05-.09.06-.15l.57-3.63h.1v3.6c0,.07.02.13.04.17Z" style="fill: #999;"/>
  <path d="M12,14.65c-.3,0-.55.25-.55.55v4.65H2.6c-.3,0-.55.25-.55.55s.25.55.55.55h9.4c.3,0,.55-.25.55-.55v-5.2c0-.3-.25-.55-.55-.55Z" style="fill: #999;"/>
  <path d="M2.6,13.95h4.9c.3,0,.55-.25.55-.55s-.25-.55-.55-.55H2.6c-.3,0-.55.25-.55.55s.25.55.55.55Z" style="fill: #999;"/>
  <path d="M2.6,6.95h4.9c.3,0,.55-.25.55-.55s-.25-.55-.55-.55H2.6c-.3,0-.55.25-.55.55s.25.55.55.55Z" style="fill: #999;"/>
  <path d="M21.4,9.35h-4.9c-.3,0-.55.25-.55.55s.25.55.55.55h4.9c.3,0,.55-.25.55-.55s-.25-.55-.55-.55Z" style="fill: #999;"/>
  <path d="M2.6,10.45h4.9c.3,0,.55-.25.55-.55s-.25-.55-.55-.55H2.6c-.3,0-.55.25-.55.55s.25.55.55.55Z" style="fill: #999;"/>
</svg>