<?xml version="1.0" encoding="UTF-8"?>
<svg id="TL" xmlns="http://www.w3.org/2000/svg" viewBox="0 0 24 24">
  <path d="M13.16,6.79c-.18,0-.32.06-.4.18-.08.11-.13.25-.16.4l-.6,3.66-.6-3.66c-.02-.16-.07-.29-.15-.41-.09-.12-.22-.18-.4-.18-.23,0-.38.07-.47.22-.08.14-.12.3-.12.5v5.09c0,.11.03.21.08.29.06.09.15.13.28.13s.23-.04.29-.13c.05-.08.07-.18.07-.29v-4.16l.67,4.23c.02.1.05.18.1.24.05.07.14.11.25.11s.2-.04.26-.12c.05-.07.08-.15.1-.24l.67-4.21v4.15c0,.11.03.21.08.29.06.09.15.13.28.13s.23-.04.29-.13c.05-.08.07-.18.07-.29v-5.09c0-.19-.04-.36-.12-.49-.09-.15-.24-.22-.47-.22Z"/>
  <path d="M4.92,19.36c.04.07.12.1.22.1s.18-.04.23-.11c.04-.06.06-.14.06-.23v-3.81c0-.15-.03-.27-.09-.38-.07-.11-.19-.17-.36-.17-.14,0-.25.05-.31.14-.06.08-.1.19-.12.31l-.44,2.67-.44-2.67c-.02-.12-.06-.23-.12-.31-.07-.09-.17-.14-.31-.14-.17,0-.3.06-.37.17-.06.1-.09.23-.09.38v3.81c0,.09.02.16.06.23.04.07.12.1.22.1s.18-.04.23-.11c.04-.06.06-.14.06-.23v-2.96l.48,3.02c.01.07.04.14.08.19.04.06.11.09.2.09s.16-.03.21-.09c.04-.05.07-.12.08-.19l.47-3v2.96c0,.09.02.16.06.23Z"/>
  <path d="M21.4,9.25h-4.25v-3.65c0-.3-.21-.57-.51-.63L7.64,2.97c-.19-.04-.39,0-.55.13-.15.12-.24.31-.24.51v2.15H2.6c-.36,0-.65.29-.65.65s.29.65.65.65h4.25v2.2H2.6c-.36,0-.65.29-.65.65s.29.65.65.65h4.25v2.2H2.6c-.36,0-.65.29-.65.65s.29.65.65.65h4.25v2.15c0,.2.09.38.24.51.12.09.26.14.41.14.05,0,.09,0,.14-.02l3.71-.82v3.74H2.6c-.36,0-.65.29-.65.65s.29.65.65.65h9.4c.36,0,.65-.29.65-.65v-4.68l3.99-.89c.3-.07.51-.33.51-.63v-3.65h4.25c.36,0,.65-.29.65-.65s-.29-.65-.65-.65ZM15.85,13.68l-7.7,1.71V4.41l7.7,1.71v7.56Z"/>
</svg>