<?xml version="1.0" encoding="UTF-8"?>
<svg id="TF" xmlns="http://www.w3.org/2000/svg" viewBox="0 0 24 24">
  <path d="M5.06,16.59c.12-.17.18-.38.18-.63,0-.28-.06-.5-.18-.64-.12-.14-.28-.24-.47-.29-.2-.05-.43-.08-.67-.08h-.56c-.13,0-.24.05-.33.14s-.14.2-.14.33v3.4c0,.13.04.24.14.33s.2.14.33.14h.74c.24,0,.45-.04.64-.13.19-.09.34-.21.45-.38.11-.17.17-.38.17-.62,0-.29-.07-.52-.21-.7-.14-.18-.35-.31-.62-.38l-.15-.04.14-.05c.23-.09.41-.21.53-.38ZM4.4,17.31c.15.05.27.14.36.26.09.12.14.29.14.5s-.04.36-.13.48c-.09.12-.21.21-.35.26-.14.05-.31.07-.49.07h-.3c-.18,0-.28-.1-.28-.28v-1.37h.56c.18,0,.35.03.5.08ZM3.88,16.84h-.54v-1.2c0-.08.03-.15.08-.2.05-.05.12-.08.2-.08h.38c.24,0,.43.04.57.13.14.09.22.28.22.54,0,.28-.09.49-.26.62-.17.12-.38.19-.65.19Z" style="fill: #333;"/>
  <path d="M21.4,9.35h-4.35v-3.75c0-.26-.18-.48-.43-.54L7.62,3.06c-.16-.03-.33,0-.46.11-.13.1-.21.26-.21.43v2.25H2.6c-.3,0-.55.25-.55.55s.25.55.55.55h4.35v5.9H2.6c-.3,0-.55.25-.55.55s.25.55.55.55h4.35v2.25c0,.17.08.32.21.43.1.08.22.12.34.12.04,0,.08,0,.12-.01l3.83-.85v3.96H2.6c-.3,0-.55.25-.55.55s.25.55.55.55h9.4c.3,0,.55-.25.55-.55v-4.76l4.07-.9c.25-.06.43-.28.43-.54v-3.75h4.35c.3,0,.55-.25.55-.55s-.25-.55-.55-.55ZM13.65,12.59c0,.09-.02.17-.06.24-.04.06-.1.09-.2.09s-.16-.03-.2-.09c-.04-.06-.06-.14-.06-.24v-4.79h-.1s-.76,4.83-.76,4.83c-.01.08-.04.14-.09.2-.04.05-.09.08-.18.08s-.14-.02-.17-.07c-.04-.05-.07-.12-.08-.2l-.77-4.85h-.1v4.8c0,.09-.02.17-.06.24-.04.06-.1.09-.2.09s-.16-.03-.2-.09c-.04-.06-.06-.14-.06-.24v-5.09c0-.18.04-.33.11-.45.07-.11.2-.17.39-.17.15,0,.26.04.32.14.07.1.12.22.14.36l.65,3.96h.1l.65-3.96c.02-.14.07-.26.14-.36.07-.09.17-.14.32-.14.19,0,.32.06.38.17.07.12.11.27.11.44v5.09Z" style="fill: #333;"/>
</svg>