<?xml version="1.0" encoding="UTF-8"?>
<svg id="HF" xmlns="http://www.w3.org/2000/svg" viewBox="0 0 24 24">
  <path d="M17.97,10.89c-.23-.34-.56-.59-.96-.75-.41-.16-.88-.24-1.41-.24-.45,0-.88.07-1.3.21-.41.14-.76.39-1.04.76-.09.12-.17.24-.24.38-.07.13-.1.27-.1.42,0,.19.05.31.16.39.12.08.26.12.43.12.21,0,.38-.06.49-.18.12-.12.24-.27.35-.44.12-.17.28-.33.47-.46.2-.13.49-.2.86-.2.44,0,.78.07,1,.21.22.14.37.34.43.61.06.26.1.59.1.97v.05h-.05c-.36.01-.75.03-1.18.05-.42.02-.84.08-1.24.16-.4.09-.77.22-1.1.4-.33.18-.59.43-.79.74-.2.31-.29.72-.29,1.21,0,.66.22,1.16.64,1.49.43.34.96.51,1.59.51.46,0,.9-.1,1.28-.31.39-.21.74-.48,1.05-.81l.09-.09v.65c0,.16.04.3.11.41.07.1.22.16.44.16.38,0,.57-.19.57-.57v-4.48c0-.57-.12-1.03-.35-1.37ZM17.2,14.68c0,.2-.09.41-.27.61-.17.2-.33.35-.46.46-.22.19-.47.33-.75.44-.27.11-.56.16-.86.16-.37,0-.65-.09-.86-.26-.21-.17-.31-.45-.31-.83,0-.33.08-.6.25-.82.16-.21.38-.38.66-.49.27-.12.56-.2.87-.25.31-.05.61-.08.9-.1.29-.01.55-.02.78-.03h.05s0,1.1,0,1.1Z" style="fill: #999;"/>
</svg>