<?xml version="1.0" encoding="UTF-8"?>
<svg id="TF" xmlns="http://www.w3.org/2000/svg" viewBox="0 0 24 24">
  <path d="M8.6,14.35h-1.2v-1.8h13c.3,0,.55-.25.55-.55s-.25-.55-.55-.55h-7.85v-1.8h1.2c1.13,0,2.05-.92,2.05-2.05v-2.5c0-1.13-.92-2.05-2.05-2.05h-3.5c-1.13,0-2.05.92-2.05,2.05v2.5c0,1.13.92,2.05,2.05,2.05h1.2v1.8H3.6c-.3,0-.55.25-.55.55s.25.55.55.55h2.7v1.8h-1.2c-1.13,0-2.05.92-2.05,2.05v2.5c0,1.13.92,2.05,2.05,2.05h3.5c1.13,0,2.05-.92,2.05-2.05v-2.5c0-1.13-.92-2.05-2.05-2.05Z" style="fill: #404040; stroke-width: 0px;"/>
  <rect x="13.35" y="14.35" width="7.6" height="6.6" rx="2.05" ry="2.05" style="fill: #404040; stroke-width: 0px;"/>
</svg>