<?xml version="1.0" encoding="UTF-8"?>
<svg id="FL" xmlns="http://www.w3.org/2000/svg" viewBox="0 0 24 24">
  <path d="M20.4,11.35h-7.75v-2.25c0-.36-.29-.65-.65-.65h-1.75c-.47,0-.85-.38-.85-.85v-2.5c0-.47.38-.85.85-.85h3.5c.47,0,.85.38.85.85v2.5c0,.36.29.65.65.65s.65-.29.65-.65v-2.5c0-1.19-.96-2.15-2.15-2.15h-3.5c-1.19,0-2.15.96-2.15,2.15v2.5c0,1.19.96,2.15,2.15,2.15h1.1v1.6H3.6c-.36,0-.65.29-.65.65s.29.65.65.65h2.6v1.6h-1.1c-1.19,0-2.15.96-2.15,2.15v2.5c0,1.19.96,2.15,2.15,2.15h3.5c1.19,0,2.15-.96,2.15-2.15v-2.5c0-.36-.29-.65-.65-.65s-.65.29-.65.65v2.5c0,.47-.38.85-.85.85h-3.5c-.47,0-.85-.38-.85-.85v-2.5c0-.47.38-.85.85-.85h1.75c.36,0,.65-.29.65-.65v-2.25h12.9c.36,0,.65-.29.65-.65s-.29-.65-.65-.65Z" style="fill: #000; stroke-width: 0px;"/>
</svg>