<?xml version="1.0" encoding="UTF-8"?>
<svg id="TF" xmlns="http://www.w3.org/2000/svg" viewBox="0 0 24 24">
  <path d="M4.67,4.95c-.3,0-.55.25-.55.55v13c0,.3.25.55.55.55s.55-.25.55-.55V5.5c0-.3-.25-.55-.55-.55Z" style="fill: #404040; stroke-width: 0px;"/>
  <path d="M18.85,5.23c-.64-.37-1.41-.37-2.05,0l-8.66,5c-.64.37-1.02,1.03-1.02,1.77s.38,1.4,1.02,1.77l8.66,5c.32.19.67.28,1.02.28s.7-.09,1.02-.28c.64-.37,1.02-1.03,1.02-1.78V7c0-.74-.38-1.4-1.02-1.78Z" style="fill: #404040; stroke-width: 0px;"/>
</svg>