<?xml version="1.0" encoding="UTF-8"?>
<svg id="HF" xmlns="http://www.w3.org/2000/svg" viewBox="0 0 24 24">
  <path d="M13.59,6.98c-.21-.27-.53-.47-.95-.58l-.15-.04.14-.05c.35-.13.63-.33.81-.58.19-.26.28-.58.28-.96,0-.43-.09-.76-.27-.97-.18-.22-.42-.36-.72-.44-.31-.08-.65-.12-1.02-.12h-.83c-.2,0-.37.07-.51.21s-.22.31-.22.51v5.1c0,.2.07.37.21.51s.31.21.52.21h1.11c.36,0,.69-.07.98-.2.29-.13.52-.33.68-.58.17-.25.25-.57.25-.95,0-.44-.11-.8-.32-1.06ZM10.89,4.28c0-.12.04-.22.11-.29.07-.07.17-.11.29-.11h.57c.35,0,.64.07.84.2.21.14.31.4.31.79,0,.41-.13.72-.38.91-.25.18-.57.28-.96.28h-.78v-1.77ZM12.99,8.64c-.13.17-.3.3-.52.37-.21.07-.46.11-.72.11h-.46c-.26,0-.4-.14-.4-.4v-2.03h.81c.27,0,.52.04.74.11.22.08.4.21.53.39s.2.43.2.74-.06.54-.19.71Z" style="fill: #999;"/>
</svg>