<?xml version="1.0" encoding="UTF-8"?>
<svg id="TL" xmlns="http://www.w3.org/2000/svg" viewBox="0 0 24 24">
  <path d="M10.52,10c.18,0,.3-.06.37-.17.07-.1.1-.24.1-.39v-2.52h2.12c.14,0,.27-.03.36-.09.1-.07.15-.18.15-.35s-.05-.28-.15-.35c-.1-.06-.22-.09-.36-.09h-2.12v-1.74c0-.21.1-.3.3-.3h2.24c.14,0,.27-.03.36-.09.1-.07.15-.18.15-.35s-.05-.28-.15-.35c-.1-.06-.22-.09-.36-.09h-2.73c-.21,0-.38.07-.53.22-.14.15-.22.33-.22.53v5.55c0,.15.03.28.09.39.07.12.19.17.37.17Z"/>
  <path d="M17,17.03h-5.2l2.03-2.7h3.17c.36,0,.65-.29.65-.65s-.29-.65-.65-.65h-2.2l.72-.96c.22-.29.16-.69-.13-.91-.29-.22-.69-.16-.91.13l-1.31,1.74h-6.17c-.36,0-.65.29-.65.65s.29.65.65.65h5.2l-2.03,2.7h-3.17c-.36,0-.65.29-.65.65s.29.65.65.65h2.2l-.72.96c-.22.29-.16.69.13.91.12.09.25.13.39.13.2,0,.39-.09.52-.26l1.31-1.74h6.17c.36,0,.65-.29.65-.65s-.29-.65-.65-.65Z"/>
</svg>