<?xml version="1.0" encoding="UTF-8"?>
<svg id="TL" xmlns="http://www.w3.org/2000/svg" viewBox="0 0 24 24">
  <path d="M10.44,10c.15,0,.26-.05.32-.15.05-.09.08-.2.08-.32v-4.76l.77,4.84c.02.11.06.2.11.27.06.08.15.12.28.12s.22-.04.29-.13c.06-.08.1-.17.11-.27l.76-4.82v4.75c0,.13.03.24.09.33.06.1.17.15.31.15s.26-.05.32-.15c.05-.09.08-.2.08-.32V3.8c0-.21-.04-.4-.13-.55-.09-.16-.27-.24-.52-.24-.2,0-.35.07-.45.2-.09.12-.15.27-.18.45l-.68,4.15-.68-4.15c-.02-.18-.08-.33-.17-.45-.09-.13-.25-.2-.45-.2-.25,0-.43.08-.53.24-.09.15-.14.34-.14.56v5.72c0,.13.03.24.09.33.06.1.17.15.31.15Z"/>
  <path d="M17,17.03h-5.2l2.03-2.7h3.17c.36,0,.65-.29.65-.65s-.29-.65-.65-.65h-2.2l.72-.96c.22-.29.16-.69-.13-.91-.29-.22-.69-.16-.91.13l-1.31,1.74h-6.17c-.36,0-.65.29-.65.65s.29.65.65.65h5.2l-2.03,2.7h-3.17c-.36,0-.65.29-.65.65s.29.65.65.65h2.2l-.72.96c-.22.29-.16.69.13.91.12.09.25.13.39.13.2,0,.39-.09.52-.26l1.31-1.74h6.17c.36,0,.65-.29.65-.65s-.29-.65-.65-.65Z"/>
</svg>