<?xml version="1.0" encoding="UTF-8"?>
<svg id="TL" xmlns="http://www.w3.org/2000/svg" viewBox="0 0 24 24">
  <path d="M12,22.05c-1.02,0-2.01-.44-2.7-1.21-.24-.27-.22-.68.05-.92.27-.24.68-.22.92.05.91,1.01,2.57,1.01,3.48,0,.24-.27.65-.29.92-.05.27.24.29.65.05.92-.7.77-1.68,1.21-2.7,1.21Z" style="fill: #000; stroke-width: 0px;"/>
  <path d="M20,17.75H5.57l.89-.89c.12-.12.19-.29.19-.46v-6.5c0-2.95,2.4-5.35,5.35-5.35s5.35,2.4,5.35,5.35v5.5c0,.36.29.65.65.65s.65-.29.65-.65v-5.5c0-3.45-2.64-6.29-6-6.62v-.68c0-.36-.29-.65-.65-.65s-.65.29-.65.65v.68c-3.36.33-6,3.17-6,6.62v6.23l-1.81,1.81c-.19.19-.24.47-.14.71.1.24.34.4.6.4h16c.36,0,.65-.29.65-.65s-.29-.65-.65-.65Z" style="fill: #000; stroke-width: 0px;"/>
</svg>