<?xml version="1.0" encoding="UTF-8"?>
<svg id="TF" xmlns="http://www.w3.org/2000/svg" viewBox="0 0 24 24">
  <path d="M20.39,18.01l-1.84-1.84v-6.27c0-3.43-2.65-6.24-6-6.52v-.78c0-.3-.25-.55-.55-.55s-.55.25-.55.55v.78c-3.35.28-6,3.1-6,6.52v6.27l-1.84,1.84c-.16.16-.2.39-.12.6.09.21.29.34.51.34h16c.22,0,.42-.13.51-.34.08-.21.04-.44-.12-.6Z" style="fill: #404040; stroke-width: 0px;"/>
  <path d="M14.22,19.85h-4.44c-.22,0-.41.13-.5.33-.09.2-.05.43.09.59.68.75,1.64,1.18,2.63,1.18s1.95-.43,2.63-1.18c.15-.16.18-.39.09-.59-.09-.2-.29-.33-.5-.33Z" style="fill: #404040; stroke-width: 0px;"/>
</svg>