<?xml version="1.0" encoding="UTF-8"?>
<svg id="TF" xmlns="http://www.w3.org/2000/svg" viewBox="0 0 24 24">
  <path d="M12.95,17.71c-.26-.27-.57-.41-.93-.41s-.69.13-.96.38c-.27.25-.4.57-.4.95,0,.92.44,1.37,1.34,1.37s1.34-.44,1.34-1.34c0-.35-.13-.67-.4-.94Z" style="fill: #333;"/>
  <path d="M11.42,15.75c.11.18.3.26.58.26s.47-.09.57-.26c.1-.18.17-.4.18-.65l.39-9.56v-.2c0-.4-.09-.72-.26-.97-.17-.24-.46-.36-.88-.36-.48,0-.8.14-.95.42-.15.29-.22.66-.21,1.1l.39,9.56c.01.25.08.47.19.65Z" style="fill: #333;"/>
</svg>