<?xml version="1.0" encoding="UTF-8"?>
<svg id="TF" xmlns="http://www.w3.org/2000/svg" viewBox="0 0 24 24">
  <path d="M10.8,3.23c-.18,0-.33.06-.46.19-.13.13-.19.28-.19.46v5.55c0,.13.03.24.08.33.05.08.14.12.28.12s.24-.04.29-.12c.06-.09.08-.2.08-.34v-2.62h2.22c.12,0,.23-.03.31-.08.07-.05.11-.13.11-.26s-.04-.21-.11-.26c-.08-.05-.18-.08-.31-.08h-2.22v-1.84c0-.26.14-.4.4-.4h2.24c.12,0,.23-.03.31-.08.07-.05.11-.13.11-.26s-.04-.21-.11-.26c-.08-.05-.18-.08-.31-.08h-2.73Z" style="fill: #333;"/>
  <path d="M17,17.13h-5.4l2.18-2.9h3.22c.3,0,.55-.25.55-.55s-.25-.55-.55-.55h-2.4l.84-1.12c.18-.24.13-.59-.11-.77-.24-.18-.59-.13-.77.11l-1.34,1.78h-6.22c-.3,0-.55.25-.55.55s.25.55.55.55h5.4l-2.18,2.9h-3.22c-.3,0-.55.25-.55.55s.25.55.55.55h2.4l-.84,1.12c-.18.24-.13.59.11.77.1.07.21.11.33.11.17,0,.33-.08.44-.22l1.34-1.78h6.22c.3,0,.55-.25.55-.55s-.25-.55-.55-.55Z" style="fill: #333;"/>
</svg>