<?xml version="1.0" encoding="UTF-8"?>
<svg id="TF" xmlns="http://www.w3.org/2000/svg" viewBox="0 0 24 24">
  <path d="M13.16,4.13h.1v5.4c0,.11.02.2.07.27.04.07.12.1.23.1s.19-.03.23-.1c.04-.07.07-.17.07-.27V3.8c0-.2-.04-.36-.12-.5-.08-.13-.22-.19-.44-.19-.17,0-.29.05-.37.16-.08.11-.13.25-.16.41l-.73,4.46h-.1l-.73-4.46c-.02-.16-.07-.3-.15-.41-.08-.1-.2-.16-.37-.16-.22,0-.36.06-.44.19-.08.14-.12.31-.12.51v5.72c0,.11.02.2.07.27.04.07.12.1.23.1s.19-.03.23-.1c.04-.07.07-.17.07-.27v-5.39h.1s.87,5.45.87,5.45c.02.09.05.17.09.23.04.05.11.08.2.08s.16-.03.21-.09c.05-.07.08-.14.1-.23l.86-5.45Z" style="fill: #333;"/>
  <path d="M17,17.13h-5.4l2.18-2.9h3.22c.3,0,.55-.25.55-.55s-.25-.55-.55-.55h-2.4l.84-1.12c.18-.24.13-.59-.11-.77-.24-.18-.59-.13-.77.11l-1.34,1.78h-6.22c-.3,0-.55.25-.55.55s.25.55.55.55h5.4l-2.18,2.9h-3.22c-.3,0-.55.25-.55.55s.25.55.55.55h2.4l-.84,1.12c-.18.24-.13.59.11.77.1.07.21.11.33.11.17,0,.33-.08.44-.22l1.34-1.78h6.22c.3,0,.55-.25.55-.55s-.25-.55-.55-.55Z" style="fill: #333;"/>
</svg>