<?xml version="1.0" encoding="UTF-8"?>
<svg id="TF" xmlns="http://www.w3.org/2000/svg" viewBox="0 0 24 24">
  <path d="M20.89,7.18c0-.2-.1-.38-.27-.48l-7.59-4.38c-.63-.36-1.42-.36-2.05,0l-6.84,3.95c-.63.37-1.02,1.05-1.02,1.77v7.9c0,.73.39,1.41,1.02,1.77l7.12,4.11h0c.13.08.28.12.43.12s.3-.04.43-.12c.27-.15.43-.44.43-.75v-8.22c0-.34.18-.65.48-.82l7.59-4.38c.17-.1.27-.28.27-.48Z" style="fill: #404040; stroke-width: 0px;"/>
  <path d="M20.07,9.71l-5.74,3.32c-.17.1-.27.28-.27.48v6.63c0,.2.1.38.27.48.09.05.18.07.28.07s.19-.02.28-.07l4.99-2.88c.63-.37,1.02-1.05,1.02-1.77v-5.77c0-.2-.1-.38-.27-.48-.17-.1-.38-.1-.55,0Z" style="fill: #404040; stroke-width: 0px;"/>
</svg>