<?xml version="1.0" encoding="UTF-8"?>
<svg id="FL" xmlns="http://www.w3.org/2000/svg" viewBox="0 0 24 24">
  <path d="M11.68,22.05c-.17,0-.33-.04-.48-.13,0,0,0,0,0,0l-7.12-4.11c-.66-.38-1.08-1.1-1.08-1.86v-7.9c0-.77.41-1.48,1.08-1.86l6.84-3.95c.66-.38,1.49-.38,2.15,0l7.59,4.38c.2.12.33.33.33.56s-.12.45-.33.56l-7.59,4.38c-.26.15-.42.43-.42.74v8.22c0,.34-.19.67-.48.84-.15.09-.32.13-.48.13ZM11.85,20.79h0s0,0,0,0h0ZM12,3.25c-.15,0-.29.04-.42.11l-6.84,3.95c-.26.15-.42.43-.42.74v7.9c0,.3.16.58.42.74l6.62,3.82v-7.64c0-.77.41-1.48,1.08-1.86l6.62-3.82-6.62-3.82c-.13-.08-.28-.11-.42-.11Z" style="fill: #000; stroke-width: 0px;"/>
</svg>