<?xml version="1.0" encoding="UTF-8"?>
<svg id="HL" xmlns="http://www.w3.org/2000/svg" viewBox="0 0 24 24">
  <path d="M20.31,6.35c-.12-.17-.24-.34-.37-.51-.22-.28-.63-.33-.91-.11-.28.22-.33.63-.11.91.11.15.22.29.32.45.13.18.33.28.54.28.13,0,.25-.04.37-.11.3-.2.37-.61.17-.9Z" style="fill: #66f; stroke-width: 0px;"/>
  <path d="M17.65,3.69c-.3-.2-.7-.13-.9.17-.2.3-.13.7.17.9.15.1.3.21.44.32.12.09.26.14.4.14.19,0,.39-.09.51-.25.22-.28.17-.69-.11-.91-.17-.13-.34-.25-.51-.37Z" style="fill: #66f; stroke-width: 0px;"/>
  <path d="M21.65,9.19c-.06-.2-.12-.4-.2-.6-.12-.34-.5-.51-.83-.39-.34.12-.51.49-.39.83.06.17.12.35.17.52.08.28.34.47.62.47.06,0,.12,0,.18-.03.34-.1.54-.46.44-.81Z" style="fill: #66f; stroke-width: 0px;"/>
  <path d="M14.45,3.6c.18.05.35.11.52.17.07.03.15.04.22.04.27,0,.52-.17.61-.43.12-.34-.05-.71-.39-.83-.2-.07-.4-.14-.6-.2-.34-.1-.71.1-.81.44-.1.34.1.71.44.81Z" style="fill: #66f; stroke-width: 0px;"/>
  <path d="M17.5,11.35h-5.5c-.17,0-.34.07-.46.19l-2.83,2.83c-.25.25-.25.67,0,.92.13.13.29.19.46.19s.33-.06.46-.19l2.64-2.64h5.23c.36,0,.65-.29.65-.65s-.29-.65-.65-.65Z" style="fill: #66f; stroke-width: 0px;"/>
</svg>