<?xml version="1.0" encoding="UTF-8"?>
<svg id="TF" xmlns="http://www.w3.org/2000/svg" viewBox="0 0 24 24">
  <path d="M12,2.05C6.51,2.05,2.05,6.51,2.05,12s4.46,9.95,9.95,9.95,9.95-4.46,9.95-9.95S17.49,2.05,12,2.05ZM11.45,4.6c0-.3.25-.55.55-.55s.55.25.55.55v1.5c0,.3-.25.55-.55.55s-.55-.25-.55-.55v-1.5ZM17.5,12.55h-5.27l-2.67,2.67c-.11.11-.25.16-.39.16s-.28-.05-.39-.16c-.21-.21-.21-.56,0-.78l2.83-2.83c.1-.1.24-.16.39-.16h5.5c.3,0,.55.25.55.55s-.25.55-.55.55Z" style="fill: #404040; stroke-width: 0px;"/>
</svg>