<?xml version="1.0" encoding="UTF-8"?>
<svg id="FL" xmlns="http://www.w3.org/2000/svg" viewBox="0 0 24 24">
  <path d="M12.65,6.1v-1.5c0-.36-.29-.65-.65-.65s-.65.29-.65.65v1.5c0,.36.29.65.65.65s.65-.29.65-.65Z" style="fill: #000; stroke-width: 0px;"/>
  <path d="M22.05,11.68c-.01-.36-.32-.63-.67-.63-.36.01-.64.31-.63.67v.28c0,4.82-3.92,8.75-8.75,8.75S3.25,16.82,3.25,12,7.18,3.25,12,3.25h.28s.01,0,.02,0c.35,0,.64-.28.65-.63.01-.36-.27-.66-.63-.67h-.32c-5.54,0-10.05,4.5-10.05,10.05s4.51,10.05,10.05,10.05,10.05-4.51,10.05-10.05v-.32Z" style="fill: #000; stroke-width: 0px;"/>
</svg>