<?xml version="1.0" encoding="UTF-8"?>
<svg id="TF" xmlns="http://www.w3.org/2000/svg" viewBox="0 0 24 24">
  <path d="M6.75,2.39c-.26,0-.43.08-.53.24-.1.17-.16.37-.16.61v17.51c0,.24.05.44.16.61.1.16.27.24.53.24s.43-.08.53-.24c.1-.17.16-.37.16-.61V3.24c0-.24-.05-.44-.16-.61-.1-.16-.27-.24-.53-.24Z" style="fill: #333;"/>
  <path d="M17.78,2.63c-.1-.16-.27-.24-.53-.24s-.43.08-.53.24c-.1.17-.16.37-.16.61v17.51c0,.24.05.44.16.61.1.16.27.24.53.24s.43-.08.53-.24c.1-.17.16-.37.16-.61V3.24c0-.24-.05-.44-.16-.61Z" style="fill: #333;"/>
</svg>