<?xml version="1.0" encoding="UTF-8"?>
<svg id="FL" xmlns="http://www.w3.org/2000/svg" viewBox="0 0 24 24">
  <path d="M18.9,14.15c.36,0,.65-.29.65-.65v-.85h.85c.36,0,.65-.29.65-.65s-.29-.65-.65-.65h-.85v-.85c0-.36-.29-.65-.65-.65s-.65.29-.65.65v.85h-5.6v-5.6h5.6v.85c0,.36.29.65.65.65s.65-.29.65-.65v-.85h.85c.36,0,.65-.29.65-.65s-.29-.65-.65-.65h-.85v-.85c0-.36-.29-.65-.65-.65s-.65.29-.65.65v.85h-6.25c-.36,0-.65.29-.65.65v6.25H3.6c-.36,0-.65.29-.65.65s.29.65.65.65h7.75v6.25c0,.36.29.65.65.65h6.25v.85c0,.36.29.65.65.65s.65-.29.65-.65v-.85h.85c.36,0,.65-.29.65-.65s-.29-.65-.65-.65h-.85v-.85c0-.36-.29-.65-.65-.65s-.65.29-.65.65v.85h-5.6v-5.6h5.6v.85c0,.36.29.65.65.65Z" style="fill: #000; stroke-width: 0px;"/>
</svg>