<?xml version="1.0" encoding="UTF-8"?>
<svg id="FF" xmlns="http://www.w3.org/2000/svg" viewBox="0 0 24 24">
  <path d="M18.9,14.05c.3,0,.55-.25.55-.55v-.95h.95c.3,0,.55-.25.55-.55s-.25-.55-.55-.55h-.95v-.95c0-.3-.25-.55-.55-.55s-.55.25-.55.55v.95h-5.8v-5.8h5.8v.95c0,.3.25.55.55.55s.55-.25.55-.55v-.95h.95c.3,0,.55-.25.55-.55s-.25-.55-.55-.55h-.95v-.95c0-.3-.25-.55-.55-.55s-.55.25-.55.55v.95h-6.35c-.3,0-.55.25-.55.55v6.35H3.6c-.3,0-.55.25-.55.55s.25.55.55.55h7.85v6.35c0,.3.25.55.55.55h6.35v.95c0,.3.25.55.55.55s.55-.25.55-.55v-.95h.95c.3,0,.55-.25.55-.55s-.25-.55-.55-.55h-.95v-.95c0-.3-.25-.55-.55-.55s-.55.25-.55.55v.95h-5.8v-5.8h5.8v.95c0,.3.25.55.55.55Z" style="fill: #000; stroke-width: 0px;"/>
</svg>