<?xml version="1.0" encoding="UTF-8"?>
<svg id="TF" xmlns="http://www.w3.org/2000/svg" viewBox="0 0 24 24">
  <path d="M10.52,10.23c-.14-.14-.35-.19-.54-.14l-4.79,1.37c-.2.06-.35.22-.39.42l-1.71,8.24,4.06-4.06c-.16-.46-.07-.99.3-1.36.51-.51,1.33-.51,1.84,0,.51.51.51,1.33,0,1.84-.25.25-.59.38-.92.38-.15,0-.3-.03-.44-.08l-4.06,4.06,8.24-1.71c.2-.04.36-.19.42-.39l1.37-4.79c.06-.19,0-.4-.14-.54l-3.24-3.24Z" style="fill: #404040; stroke-width: 0px;"/>
  <path d="M20.79,7.87l-4.66-4.66c-.11-.11-.27-.17-.43-.16-.16.01-.31.1-.4.23l-3.49,4.9c-.16.22-.13.52.06.71l3.24,3.24c.11.11.25.16.39.16.11,0,.22-.03.32-.1l4.9-3.49c.13-.09.22-.24.23-.4s-.04-.32-.16-.44Z" style="fill: #404040; stroke-width: 0px;"/>
</svg>