<?xml version="1.0" encoding="UTF-8"?>
<svg id="TL" xmlns="http://www.w3.org/2000/svg" viewBox="0 0 24 24">
  <path d="M15.5,12.39c-.17,0-.33-.06-.46-.19l-3.24-3.24c-.22-.22-.25-.58-.07-.84l3.49-4.9c.21-.29.61-.36.91-.15.29.21.36.61.15.91l-3.17,4.45,2.46,2.46,4.45-3.17c.29-.21.7-.14.91.15.21.29.14.7-.15.91l-4.9,3.49c-.11.08-.25.12-.38.12Z" style="fill: #000; stroke-width: 0px;"/>
  <path d="M13.84,13.4l-3.24-3.24c-.17-.17-.41-.23-.64-.17l-4.79,1.37c-.23.07-.41.26-.46.49l-1.74,8.4c-.04.21.02.44.18.59.12.12.29.19.46.19.04,0,.09,0,.13-.01l8.4-1.74c.24-.05.43-.23.49-.46l1.37-4.79c.07-.23,0-.47-.17-.64ZM11.49,18.1l-5.89,1.22,2.37-2.37c.13.04.26.08.4.08.37,0,.73-.15.99-.41.26-.26.41-.62.41-.99s-.15-.73-.41-.99c-.53-.53-1.45-.53-1.98,0-.26.26-.41.62-.41.99,0,.14.04.27.08.4l-2.37,2.37,1.22-5.89,4.05-1.16,2.7,2.7-1.16,4.05Z" style="fill: #000; stroke-width: 0px;"/>
</svg>