<?xml version="1.0" encoding="UTF-8"?>
<svg id="TL" xmlns="http://www.w3.org/2000/svg" viewBox="0 0 24 24">
  <path d="M17.22,8.05H3.77c-1.06,0-1.93.86-1.93,1.93v9.37c0,1.06.86,1.93,1.93,1.93h11.72c.36,0,.65-.29.65-.65s-.29-.65-.65-.65l-9.39.08,6.91-6.98,5.03,5.02c.06.06.13.11.21.14.07.03.14.04.25.05.09,0,.17-.02.25-.05.16-.07.29-.19.35-.35.03-.08.05-.16.05-.25v-7.66c0-1.06-.86-1.93-1.93-1.93ZM13.51,11.73c-.12-.12-.28-.18-.46-.18s-.34.07-.46.18l-8.22,8.24h-.6c-.35,0-.63-.28-.63-.63v-9.37c0-.35.28-.63.63-.63h13.45c.35,0,.63.28.63.63l.08,6.18-4.43-4.43Z"/>
  <path d="M6.24,10.18c-1.06,0-1.93.86-1.93,1.93s.86,1.93,1.93,1.93,1.93-.86,1.93-1.93-.86-1.93-1.93-1.93ZM6.24,12.73c-.35,0-.63-.28-.63-.63s.28-.63.63-.63.63.28.63.63-.28.63-.63.63Z"/>
  <path d="M20.23,2.73H6.78c-1.06,0-1.93.86-1.93,1.93v1.05c0,.36.29.65.65.65s.65-.29.65-.65v-1.05c0-.35.28-.63.63-.63h13.45c.35,0,.63.28.63.63v9.37c0,.36.29.65.65.65s.65-.29.65-.65V4.66c0-1.06-.86-1.93-1.93-1.93Z"/>
</svg>