<?xml version="1.0" encoding="UTF-8"?>
<svg id="TF" xmlns="http://www.w3.org/2000/svg" viewBox="0 0 24 24">
  <path d="M19.9,4.45H4.1c-1.13,0-2.05.92-2.05,2.05v11c0,1.03.76,1.87,1.75,2.02l10.81-10.81c.21-.21.56-.21.78,0l6.56,6.56V6.5c0-1.13-.92-2.05-2.05-2.05ZM7,11.05c-1.13,0-2.05-.92-2.05-2.05s.92-2.05,2.05-2.05,2.05.92,2.05,2.05-.92,2.05-2.05,2.05Z" style="fill: #404040; stroke-width: 0px;"/>
  <path d="M5.33,19.55h14.57c1.13,0,2.05-.92,2.05-2.05v-.67l-6.95-6.95-9.67,9.67Z" style="fill: #404040; stroke-width: 0px;"/>
</svg>