<?xml version="1.0" encoding="UTF-8"?>
<svg id="TF" xmlns="http://www.w3.org/2000/svg" viewBox="0 0 24 24">
  <path d="M17.22,8.15H3.77c-1.01,0-1.83.82-1.83,1.83v9.37c0,.86.6,1.58,1.41,1.77l9.31-9.31c.21-.21.57-.21.78,0l5.61,5.61v-7.44c0-1.01-.82-1.83-1.83-1.83ZM6.24,13.93c-1.01,0-1.83-.82-1.83-1.83s.82-1.83,1.83-1.83,1.83.82,1.83,1.83-.82,1.83-1.83,1.83Z" style="fill: #404040;"/>
  <path d="M4.85,21.17h12.37c1.01,0,1.83-.82,1.83-1.83v-.37l-6-6-8.2,8.2Z" style="fill: #404040;"/>
  <path d="M20.23,2.83H6.78c-1.01,0-1.83.82-1.83,1.83v2.39h12.27c1.61,0,2.93,1.31,2.93,2.93v5.87h.09c1.01,0,1.83-.82,1.83-1.83V4.66c0-1.01-.82-1.83-1.83-1.83Z" style="fill: #404040;"/>
</svg>