<?xml version="1.0" encoding="UTF-8"?>
<svg id="FL" xmlns="http://www.w3.org/2000/svg" viewBox="0 0 24 24">
  <path d="M3.77,21.27c-1.06,0-1.93-.86-1.93-1.93v-9.37c0-1.06.86-1.93,1.93-1.93h13.45c1.06,0,1.93.86,1.93,1.93v7.66c0,.08-.02.17-.05.25-.06.16-.19.29-.35.35-.08.03-.16.05-.25.05-.1,0-.18-.02-.25-.05-.08-.03-.15-.08-.21-.14l-5.03-5.02-6.91,6.98,9.39-.08c.36,0,.65.29.65.65s-.29.65-.65.65H3.77ZM3.77,9.35c-.35,0-.63.28-.63.63v9.37c0,.35.28.63.63.63h.6l8.22-8.24c.12-.12.28-.18.46-.18s.34.07.46.18l4.43,4.43-.08-6.18c0-.35-.28-.63-.63-.63H3.77Z"/>
  <path d="M21.51,14.67c-.36,0-.65-.29-.65-.65V4.66c0-.35-.28-.63-.63-.63H6.78c-.35,0-.63.28-.63.63v1.05c0,.36-.29.65-.65.65s-.65-.29-.65-.65v-1.05c0-1.06.86-1.93,1.93-1.93h13.45c1.06,0,1.93.86,1.93,1.93v9.37c0,.36-.29.65-.65.65Z"/>
</svg>