<?xml version="1.0" encoding="UTF-8"?>
<svg id="TF" xmlns="http://www.w3.org/2000/svg" viewBox="0 0 24 24">
  <path d="M18,7.45h-9.41c.14-1.24.75-2.36,1.7-3.15.21.15.44.25.72.25.69,0,1.25-.56,1.25-1.25s-.56-1.25-1.25-1.25-1.25.56-1.25,1.25c0,0,0,0,0,.01-1.29,1.01-2.11,2.5-2.26,4.14h-1.49c-.3,0-.55.25-.55.55v3c0,.85.7,1.55,1.55,1.55h10c.85,0,1.55-.7,1.55-1.55v-3c0-.3-.25-.55-.55-.55Z" style="fill: #333;"/>
  <path d="M15.77,13.65h-7.53c-.16,0-.3.07-.41.18-.1.12-.15.27-.14.43l.77,7.2c.03.28.27.49.55.49h6c.28,0,.52-.21.55-.49l.77-7.2c.02-.16-.03-.31-.14-.43-.1-.12-.25-.18-.41-.18Z" style="fill: #333;"/>
</svg>