<?xml version="1.0" encoding="UTF-8"?>
<svg id="FL" xmlns="http://www.w3.org/2000/svg" viewBox="0 0 24 24">
  <path d="M18,7.35h-9.31c.16-1.14.72-2.16,1.58-2.92.21.13.46.21.73.21.74,0,1.35-.61,1.35-1.35s-.61-1.35-1.35-1.35-1.33.59-1.35,1.31c-1.27,1-2.08,2.47-2.26,4.09h-1.39c-.36,0-.65.29-.65.65v3c0,.91.74,1.65,1.65,1.65h10c.91,0,1.65-.74,1.65-1.65v-3c0-.36-.29-.65-.65-.65ZM17.35,11c0,.19-.16.35-.35.35H7c-.19,0-.35-.16-.35-.35v-2.35h10.7v2.35Z"/>
  <path d="M15.83,13.55c-.35-.04-.68.22-.71.58l-.7,6.62h-4.83l-.7-6.62c-.04-.36-.36-.62-.71-.58-.36.04-.62.36-.58.72l.77,7.2c.04.33.31.58.65.58h6c.33,0,.61-.25.65-.58l.77-7.2c.04-.36-.22-.68-.58-.72Z"/>
</svg>