<?xml version="1.0" encoding="UTF-8"?>
<svg id="HF" xmlns="http://www.w3.org/2000/svg" viewBox="0 0 24 24">
  <path d="M2.69,12h18.61l.48-3.2c.09-.59-.08-1.19-.47-1.64-.39-.45-.96-.71-1.55-.71H4.24c-.6,0-1.16.26-1.55.71-.39.45-.56,1.05-.47,1.64l.48,3.2ZM18,9.2c.58,0,1.05.47,1.05,1.05s-.47,1.05-1.05,1.05-1.05-.47-1.05-1.05.47-1.05,1.05-1.05ZM14,9.2c.58,0,1.05.47,1.05,1.05s-.47,1.05-1.05,1.05-1.05-.47-1.05-1.05.47-1.05,1.05-1.05ZM10,9.2c.58,0,1.05.47,1.05,1.05s-.47,1.05-1.05,1.05-1.05-.47-1.05-1.05.47-1.05,1.05-1.05ZM6,9.2c.58,0,1.05.47,1.05,1.05s-.47,1.05-1.05,1.05-1.05-.47-1.05-1.05.47-1.05,1.05-1.05Z" style="fill: #999;"/>
</svg>