<?xml version="1.0" encoding="UTF-8"?>
<svg id="TL" xmlns="http://www.w3.org/2000/svg" viewBox="0 0 24 24">
  <path d="M21.39,7.1c-.41-.47-1-.75-1.63-.75H4.24c-.63,0-1.22.27-1.63.75-.41.47-.59,1.1-.5,1.72l1.05,7c.16,1.04,1.07,1.83,2.12,1.83h12.42c.36,0,.65-.29.65-.65s-.29-.65-.65-.65H5.29c-.42,0-.78-.31-.84-.72l-1.05-7c-.04-.25.03-.49.2-.68s.39-.29.64-.29h15.52c.25,0,.48.1.64.29s.23.43.2.68l-.93,6.18c-.05.36.19.69.55.74.35.06.69-.19.74-.55l.93-6.18c.09-.62-.09-1.25-.5-1.72Z"/>
  <circle cx="14" cy="10.25" r="1.15"/>
  <circle cx="10" cy="10.25" r="1.15"/>
  <circle cx="6" cy="10.25" r="1.15"/>
  <circle cx="18" cy="10.25" r="1.15"/>
  <circle cx="12" cy="13.75" r="1.15"/>
  <circle cx="8" cy="13.75" r="1.15"/>
  <circle cx="16" cy="13.75" r="1.15"/>
</svg>