<?xml version="1.0" encoding="UTF-8"?>
<svg id="TF" xmlns="http://www.w3.org/2000/svg" viewBox="0 0 24 24">
  <path d="M15.1,20.42c0-.06-.01-.07-.01-.07h0s0-.02,0-.02l-2.24-9.15c-.05-.23-.14-.42-.27-.58-.12-.15-.31-.23-.56-.23s-.42.07-.54.2c-.13.14-.22.32-.27.55l-2.27,9.22h0s0,0,0,0c0,0,0,.02,0,.06,0,.05,0,.09,0,.11,0,.17.05.28.14.36.1.08.23.11.39.11s.28-.05.37-.15c.09-.1.16-.23.19-.37l.58-2.44h2.84v.04s.57,2.41.57,2.41c.03.15.1.27.19.37.09.1.21.15.37.15.17,0,.3-.04.4-.11.09-.07.14-.19.14-.36,0-.01,0-.04,0-.08v-.03ZM10.83,17l1.14-4.76h.1s1.12,4.76,1.12,4.76h-2.36Z" style="fill: #333;"/>
  <path d="M20.34,6.98c-.21-.27-.53-.47-.95-.58l-.15-.04.14-.05c.35-.13.63-.33.81-.58.19-.26.28-.58.28-.96,0-.43-.09-.76-.27-.97-.18-.22-.42-.36-.72-.44-.3-.08-.65-.12-1.02-.12h-.83c-.2,0-.37.07-.51.21-.15.14-.22.31-.22.51v5.1c0,.2.07.37.21.51s.31.21.52.21h1.11c.36,0,.69-.07.98-.2.29-.13.51-.33.68-.58.17-.25.25-.57.25-.95,0-.44-.11-.79-.32-1.06ZM17.64,4.28c0-.12.04-.22.11-.29.07-.07.17-.11.29-.11h.57c.35,0,.63.07.84.2.21.14.31.4.31.79,0,.41-.13.72-.38.91-.25.18-.57.28-.96.28h-.78v-1.77ZM19.74,8.64c-.13.17-.3.3-.52.37-.21.07-.46.11-.72.11h-.46c-.26,0-.4-.14-.4-.4v-2.03h.81c.27,0,.52.04.74.11.22.08.4.21.53.39.13.18.2.43.2.74s-.06.54-.19.71Z" style="fill: #333;"/>
</svg>