<?xml version="1.0" encoding="UTF-8"?>
<svg id="HL" xmlns="http://www.w3.org/2000/svg" viewBox="0 0 24 24">
  <path d="M15.2,20.41c0-.06-.01-.09-.02-.11l-2.24-9.14c-.06-.24-.15-.45-.29-.62-.14-.18-.36-.26-.63-.26s-.48.08-.62.23c-.14.15-.24.35-.29.6l-2.27,9.19s-.02.06-.02.11c0,.06,0,.09,0,.11,0,.2.06.34.18.44.12.09.27.13.45.13s.34-.06.45-.18c.1-.12.18-.26.22-.42l.56-2.37h2.68l.55,2.37c.04.16.11.3.22.42.11.12.26.18.45.18s.35-.04.46-.13c.12-.09.18-.24.18-.44,0-.02,0-.04,0-.09v-.03ZM10.96,16.9l1.06-4.44,1.04,4.44h-2.1Z" style="fill: #66f;"/>
</svg>