<?xml version="1.0" encoding="UTF-8"?>
<svg id="HF" xmlns="http://www.w3.org/2000/svg" viewBox="0 0 24 24">
  <path d="M15.1,20.44v-.03c0-.06-.01-.07-.01-.07h0s0-.02,0-.02l-2.24-9.15c-.05-.23-.14-.42-.27-.58-.12-.15-.31-.23-.56-.23s-.42.07-.54.2c-.13.14-.22.32-.27.55l-2.27,9.22h0s0,0,0,0c0,0,0,.02,0,.06,0,.05,0,.09,0,.11,0,.17.05.28.14.36.1.08.23.11.39.11s.28-.05.37-.15c.09-.1.16-.23.19-.37l.58-2.44h2.84v.04s.57,2.41.57,2.41c.03.15.1.27.19.37.09.1.21.15.37.15.17,0,.3-.04.4-.11.09-.07.14-.19.14-.36,0-.01,0-.04,0-.08ZM10.83,17l1.14-4.76h.1s1.12,4.76,1.12,4.76h-2.36Z" style="fill: #999;"/>
</svg>