<?xml version="1.0" encoding="UTF-8"?>
<svg id="FL" xmlns="http://www.w3.org/2000/svg" viewBox="0 0 24 24">
  <path d="M20.42,6.92c-.2-.26-.49-.45-.86-.58.31-.14.55-.33.73-.57.2-.27.3-.62.3-1.02,0-.46-.1-.8-.29-1.04-.19-.23-.45-.39-.77-.47-.31-.08-.66-.12-1.04-.12h-.83c-.22,0-.42.08-.58.24s-.25.36-.25.58v5.1c0,.23.08.43.24.58s.36.24.59.24h1.11c.37,0,.72-.07,1.02-.21.3-.14.55-.35.72-.62.18-.27.27-.61.27-1,0-.46-.11-.84-.34-1.12ZM17.74,4.28c0-.09.03-.17.08-.22.05-.05.12-.08.21-.08h.57c.33,0,.6.06.78.18.18.12.27.35.27.71,0,.38-.11.66-.34.83-.23.17-.53.26-.9.26h-.68v-1.67ZM19.65,8.58c-.11.16-.27.27-.47.34-.2.07-.43.1-.69.1h-.46c-.21,0-.3-.1-.3-.3v-1.93h.71c.26,0,.5.04.71.11.2.07.37.19.49.35.12.16.18.39.18.68s-.06.49-.17.65Z"/>
</svg>