<?xml version="1.0" encoding="UTF-8"?>
<svg id="TF" xmlns="http://www.w3.org/2000/svg" viewBox="0 0 24 24">
  <path d="M21.79,9.26l-4.7-4.7c-.1-.1-.24-.16-.39-.16H7.3c-.15,0-.29.06-.39.16l-4.7,4.7c-.1.1-.16.24-.16.39s.06.29.16.39l9.4,9.4c.11.11.25.16.39.16s.28-.05.39-.16l9.4-9.4c.1-.1.16-.24.16-.39s-.06-.29-.16-.39ZM16.89,10.04l-4.5,4.5c-.11.11-.25.16-.39.16s-.28-.05-.39-.16l-4.5-4.5c-.21-.21-.21-.56,0-.78.21-.21.56-.21.78,0l4.11,4.11,4.11-4.11c.21-.21.56-.21.78,0,.21.21.21.56,0,.78Z" style="fill: #404040; stroke-width: 0px;"/>
</svg>