<?xml version="1.0" encoding="UTF-8"?>
<svg id="HF" xmlns="http://www.w3.org/2000/svg" viewBox="0 0 24 24">
  <path d="M18.9,3.05h-9.9v2.9c.3,0,.55.25.55.55v.45h7.51c.3,0,.55.25.55.55s-.25.55-.55.55h-7.51v.45c0,.08-.02.14-.05.21l4.99,2.08c.08-.2.28-.34.51-.34.3,0,.55.25.55.55v.45h1.51c.3,0,.55.25.55.55s-.25.55-.55.55h-1.51v.45c0,.3-.25.55-.55.55-.2,0-.36-.11-.46-.26l-3.08,1.92c.05.08.09.18.09.29v.45h5.51c.3,0,.55.25.55.55s-.25.55-.55.55h-5.51v.45c0,.3-.25.55-.55.55v2.9h7.9c1.13,0,2.05-.92,2.05-2.05V5.1c0-1.13-.92-2.05-2.05-2.05Z" style="fill: #606060; stroke-width: 0px;"/>
</svg>