<?xml version="1.0" encoding="UTF-8"?>
<svg id="FF" xmlns="http://www.w3.org/2000/svg" viewBox="0 0 24 24">
  <path d="M20,8.71c-.27-1.98-1.95-3.51-4-3.51s-3.72,1.53-3.99,3.5h-7.91c-1.13,0-2.05.92-2.05,2.05v5c0,1.13.92,2.05,2.05,2.05h.35v.45c0,.3.25.55.55.55s.55-.25.55-.55v-.45h12.9v.45c0,.3.25.55.55.55s.55-.25.55-.55v-.45h.35c1.13,0,2.05-.92,2.05-2.05v-5c0-1.1-.87-1.99-1.96-2.04ZM8.6,15.3h-4c-.3,0-.55-.25-.55-.55s.25-.55.55-.55h4c.3,0,.55.25.55.55s-.25.55-.55.55ZM8.6,12.3h-4c-.3,0-.55-.25-.55-.55s.25-.55.55-.55h4c.3,0,.55.25.55.55s-.25.55-.55.55ZM16,12.2c-1.63,0-2.95-1.32-2.95-2.95s1.32-2.95,2.95-2.95,2.95,1.32,2.95,2.95-1.32,2.95-2.95,2.95Z"/>
</svg>