<?xml version="1.0" encoding="UTF-8"?>
<svg id="FF" xmlns="http://www.w3.org/2000/svg" viewBox="0 0 24 24">
  <path d="M10.45,17.5v-.45h-3.51c-.3,0-.55-.25-.55-.55s.25-.55.55-.55h3.51v-.45c0-.3.25-.55.55-.55.2,0,.36.11.46.26l3.08-1.93c-.05-.08-.09-.18-.09-.29v-.45h-7.51c-.3,0-.55-.25-.55-.55s.25-.55.55-.55h7.51v-.45c0-.07.02-.15.04-.21l-4.99-2.08c-.08.2-.28.34-.51.34-.3,0-.55-.25-.55-.55v-.45h-1.51c-.3,0-.55-.25-.55-.55s.25-.55.55-.55h1.51v-.45c0-.3.25-.55.55-.55v-2.9h-3.9c-1.13,0-2.05.92-2.05,2.05v13.8c0,1.13.92,2.05,2.05,2.05h5.9v-2.9c-.3,0-.55-.25-.55-.55Z" style="fill: #000; stroke-width: 0px;"/>
</svg>