<?xml version="1.0" encoding="UTF-8"?>
<svg id="TF" xmlns="http://www.w3.org/2000/svg" viewBox="0 0 24 24">
  <path d="M19.9,4.45H4.1c-1.13,0-2.05.92-2.05,2.05v1.5c0,.3.25.55.55.55h18.8c.3,0,.55-.25.55-.55v-1.5c0-1.13-.92-2.05-2.05-2.05Z" style="fill: #404040; stroke-width: 0px;"/>
  <path d="M21.4,9.45H2.6c-.3,0-.55.25-.55.55v7.5c0,1.13.92,2.05,2.05,2.05h15.8c1.13,0,2.05-.92,2.05-2.05v-7.5c0-.3-.25-.55-.55-.55ZM10.64,14.39l-2.5,2.5c-.11.11-.25.16-.39.16s-.28-.05-.39-.16c-.21-.21-.21-.56,0-.78l2.11-2.11-2.11-2.11c-.21-.21-.21-.56,0-.78.21-.21.56-.21.78,0l2.5,2.5c.21.21.21.56,0,.78ZM16.25,17.05h-4c-.3,0-.55-.25-.55-.55s.25-.55.55-.55h4c.3,0,.55.25.55.55s-.25.55-.55.55Z" style="fill: #404040; stroke-width: 0px;"/>
</svg>