<?xml version="1.0" encoding="UTF-8"?>
<svg id="HL" xmlns="http://www.w3.org/2000/svg" viewBox="0 0 24 24">
  <path d="M16,7.1c-1.19,0-2.15.96-2.15,2.15s.96,2.15,2.15,2.15,2.15-.96,2.15-2.15-.96-2.15-2.15-2.15ZM16,10.1c-.47,0-.85-.38-.85-.85s.38-.85.85-.85.85.38.85.85-.38.85-.85.85Z" style="fill: #66f;"/>
  <path d="M8.6,11.1h-4c-.36,0-.65.29-.65.65s.29.65.65.65h4c.36,0,.65-.29.65-.65s-.29-.65-.65-.65Z" style="fill: #66f;"/>
  <path d="M8.6,14.1h-4c-.36,0-.65.29-.65.65s.29.65.65.65h4c.36,0,.65-.29.65-.65s-.29-.65-.65-.65Z" style="fill: #66f;"/>
</svg>