<?xml version="1.0" encoding="UTF-8"?>
<svg id="TF" xmlns="http://www.w3.org/2000/svg" viewBox="0 0 24 24">
  <path d="M18.9,3.05H5.1c-1.13,0-2.05.92-2.05,2.05v13.8c0,1.13.92,2.05,2.05,2.05h13.8c1.13,0,2.05-.92,2.05-2.05V5.1c0-1.13-.92-2.05-2.05-2.05ZM17.06,17.05h-5.51v.45c0,.3-.25.55-.55.55s-.55-.25-.55-.55v-.45h-3.51c-.3,0-.55-.25-.55-.55s.25-.55.55-.55h3.51v-.45c0-.3.25-.55.55-.55s.55.25.55.55v.45h5.51c.3,0,.55.25.55.55s-.25.55-.55.55ZM17.06,12.55h-1.51v.45c0,.3-.25.55-.55.55s-.55-.25-.55-.55v-.45h-7.51c-.3,0-.55-.25-.55-.55s.25-.55.55-.55h7.51v-.45c0-.3.25-.55.55-.55s.55.25.55.55v.45h1.51c.3,0,.55.25.55.55s-.25.55-.55.55ZM17.06,8.05h-7.51v.45c0,.3-.25.55-.55.55s-.55-.25-.55-.55v-.45h-1.51c-.3,0-.55-.25-.55-.55s.25-.55.55-.55h1.51v-.45c0-.3.25-.55.55-.55s.55.25.55.55v.45h7.51c.3,0,.55.25.55.55s-.25.55-.55.55Z" style="fill: #404040; stroke-width: 0px;"/>
</svg>