<?xml version="1.0" encoding="UTF-8"?>
<svg id="TF" xmlns="http://www.w3.org/2000/svg" viewBox="0 0 24 24">
  <path d="M17.34,12.55l-1.85,3.7c-.09.18-.28.3-.48.3h-.01c-.2,0-.38-.11-.48-.28l-4.54-8.17-2.51,4.18c-.1.17-.28.27-.47.27H2.08c.29,5.23,4.62,9.4,9.92,9.4s9.63-4.17,9.92-9.4h-4.58Z" style="fill: #404040; stroke-width: 0px;"/>
  <path d="M6.69,11.45l2.84-4.73c.1-.17.26-.27.48-.27.2,0,.38.11.47.28l4.49,8.09,1.53-3.07c.09-.19.28-.3.49-.3h4.92c-.29-5.23-4.62-9.4-9.92-9.4S2.37,6.22,2.08,11.45h4.61Z" style="fill: #404040; stroke-width: 0px;"/>
</svg>