<?xml version="1.0" encoding="UTF-8"?>
<svg id="TL" xmlns="http://www.w3.org/2000/svg" viewBox="0 0 24 24">
  <path d="M12,1.95C6.46,1.95,1.95,6.46,1.95,12s4.51,10.05,10.05,10.05c1.76,0,3.49-.47,5.02-1.35.31-.18.42-.58.24-.89-.18-.31-.58-.42-.89-.24-1.33.77-2.84,1.18-4.37,1.18-4.61,0-8.38-3.58-8.72-8.1h3.72c.23,0,.44-.12.56-.32l2.42-4.04,4.45,8.02c.11.21.33.33.57.33h.01c.24,0,.46-.14.57-.36l1.82-3.64h3.3c-.1,1.3-.47,2.58-1.13,3.72-.18.31-.07.71.24.89.31.18.71.07.89-.24.89-1.53,1.35-3.27,1.35-5.02,0-5.54-4.51-10.05-10.05-10.05ZM17,11.35c-.25,0-.47.14-.58.36l-1.45,2.9-4.4-7.92c-.11-.2-.33-.33-.56-.33-.24,0-.45.12-.57.32l-2.81,4.68h-3.35C3.62,6.83,7.39,3.25,12,3.25s8.38,3.58,8.72,8.1h-3.72Z" style="fill: #000; stroke-width: 0px;"/>
</svg>