<?xml version="1.0" encoding="UTF-8"?>
<svg id="HF" xmlns="http://www.w3.org/2000/svg" viewBox="0 0 24 24">
  <path d="M13.47,9.91c0-.51-.16-.87-.47-1.08-.31-.21-.7-.31-1.16-.31h-.76c-.16,0-.29.05-.39.14-.1.1-.15.23-.15.4v2.49h.96c.36,0,.7-.05.99-.15.3-.1.54-.27.72-.52.18-.24.27-.57.27-.97Z" style="fill: #999;"/>
  <path d="M18.9,3.05H5.1c-1.13,0-2.05.92-2.05,2.05v6.9h6.48v-3.46c0-.25.09-.47.27-.65.18-.18.4-.27.65-.27h1.46c.52,0,.98.08,1.37.23.38.15.68.39.9.72.21.33.32.78.32,1.34,0,.62-.17,1.11-.52,1.44-.32.31-.75.52-1.27.66h8.23v-6.9c0-1.13-.92-2.05-2.05-2.05Z" style="fill: #999;"/>
</svg>