<?xml version="1.0" encoding="UTF-8"?>
<svg id="TF" xmlns="http://www.w3.org/2000/svg" viewBox="0 0 24 24">
  <path d="M13.47,9.91c0-.51-.16-.87-.47-1.08-.31-.21-.7-.31-1.16-.31h-.76c-.16,0-.29.05-.39.14-.1.1-.15.23-.15.4v2.49h.96c.36,0,.7-.05.99-.15.3-.1.54-.27.72-.52.18-.24.27-.57.27-.97Z" style="fill: #333;"/>
  <path d="M18.9,3.05H5.1c-1.13,0-2.05.92-2.05,2.05v13.8c0,1.13.92,2.05,2.05,2.05h13.8c1.13,0,2.05-.92,2.05-2.05V5.1c0-1.13-.92-2.05-2.05-2.05ZM14.41,16.43c-.1.08-.23.12-.4.12-.18,0-.31-.07-.4-.2-.1-.14-.17-.33-.21-.57-.05-.24-.09-.51-.12-.8-.04-.29-.08-.59-.14-.88-.06-.3-.15-.57-.27-.82-.12-.25-.31-.45-.54-.61s-.54-.23-.92-.23h-.87v3.47c0,.18-.04.33-.11.46-.07.12-.2.17-.39.17s-.32-.06-.39-.17c-.07-.12-.11-.28-.11-.46v-7.37c0-.25.09-.47.27-.65.18-.18.4-.27.65-.27h1.46c.52,0,.98.08,1.37.23.38.15.68.39.9.72.21.33.32.78.32,1.34,0,.62-.17,1.11-.52,1.44-.35.34-.82.57-1.4.7v.1c.2.05.39.13.58.21.18.09.34.21.46.37.13.16.24.39.33.68.09.29.17.6.24.9.07.31.12.56.16.77l.13.49c.05.17.07.34.07.49,0,.17-.05.3-.14.37Z" style="fill: #333;"/>
</svg>