<?xml version="1.0" encoding="UTF-8"?>
<svg id="TL" xmlns="http://www.w3.org/2000/svg" viewBox="0 0 24 24">
  <path d="M14.6,9.9c0-.58-.11-1.05-.34-1.39-.22-.35-.54-.6-.94-.76-.4-.15-.87-.23-1.41-.23h-1.46c-.28,0-.52.1-.72.3s-.3.44-.3.72v7.37c0,.2.04.37.12.51.09.15.25.22.48.22s.39-.08.48-.22c.08-.14.12-.31.12-.51v-3.37h.77c.36,0,.65.07.86.21.22.14.39.33.5.57.12.24.21.5.27.79.06.29.1.58.14.88.04.29.08.56.12.81.05.25.12.45.23.6.11.16.27.24.49.24.19,0,.34-.05.46-.14.12-.1.18-.25.18-.45,0-.16-.02-.33-.07-.52l-.13-.49c-.04-.2-.09-.46-.16-.77-.07-.31-.15-.62-.24-.91-.1-.3-.21-.54-.35-.71-.13-.17-.3-.3-.49-.4-.14-.06-.28-.12-.42-.17.52-.14.94-.37,1.27-.68.36-.35.55-.86.55-1.51ZM13.12,10.82c-.17.23-.39.39-.67.48-.28.1-.6.14-.96.14h-.86v-2.39c0-.14.04-.25.12-.33.08-.08.19-.12.32-.12h.76c.44,0,.81.1,1.1.3.29.19.43.53.43,1,0,.38-.08.68-.25.91Z"/>
  <path d="M18.9,2.95H5.1c-1.19,0-2.15.96-2.15,2.15v13.8c0,1.19.96,2.15,2.15,2.15h11.8c.36,0,.65-.29.65-.65s-.29-.65-.65-.65H5.1c-.47,0-.85-.38-.85-.85V5.1c0-.47.38-.85.85-.85h13.8c.47,0,.85.38.85.85v11.8c0,.36.29.65.65.65s.65-.29.65-.65V5.1c0-1.19-.96-2.15-2.15-2.15Z"/>
</svg>