<?xml version="1.0" encoding="UTF-8"?>
<svg id="FF" xmlns="http://www.w3.org/2000/svg" viewBox="0 0 24 24">
  <path d="M12.72,12s-.08.03-.13.04v.1c.2.05.39.13.58.21.18.09.34.21.46.37.13.16.24.39.33.68.09.29.17.6.24.9.07.31.12.56.16.77l.13.49c.05.17.07.34.07.49,0,.17-.05.3-.14.37-.1.08-.23.12-.4.12-.18,0-.31-.07-.4-.2-.1-.14-.17-.33-.21-.57-.05-.24-.09-.51-.12-.8-.04-.29-.08-.59-.14-.88-.06-.3-.15-.57-.27-.82-.12-.25-.31-.45-.54-.61s-.54-.23-.92-.23h-.87v3.47c0,.18-.04.33-.11.46-.07.12-.2.17-.39.17s-.32-.06-.39-.17c-.07-.12-.11-.28-.11-.46v-3.91H3.05v6.9c0,1.13.92,2.05,2.05,2.05h13.8c1.13,0,2.05-.92,2.05-2.05v-6.9h-8.23Z"/>
</svg>