<?xml version="1.0" encoding="UTF-8"?>
<svg id="TL" xmlns="http://www.w3.org/2000/svg" viewBox="0 0 24 24">
  <path d="M20.86,6.94l-3.8-3.8c-.25-.25-.67-.25-.92,0s-.25.67,0,.92l2.69,2.69h-8.73c-3.94,0-7.15,3.21-7.15,7.15s3.21,7.15,7.15,7.15h6.3c.36,0,.65-.29.65-.65s-.29-.65-.65-.65h-6.3c-3.23,0-5.85-2.62-5.85-5.85s2.62-5.85,5.85-5.85h10.3c.26,0,.5-.16.6-.4.1-.24.04-.52-.14-.71Z" style="fill: #000; stroke-width: 0px;"/>
  <path d="M17.14,9.74l-1,1c-.25.25-.25.67,0,.92.13.13.29.19.46.19s.33-.06.46-.19l1-1c.25-.25.25-.67,0-.92s-.67-.25-.92,0Z" style="fill: #000; stroke-width: 0px;"/>
</svg>