<?xml version="1.0" encoding="UTF-8"?>
<svg id="HL" xmlns="http://www.w3.org/2000/svg" viewBox="0 0 24 24">
  <path d="M14.6,2.29c-.84-.23-1.72-.34-2.6-.34C6.46,1.95,1.95,6.46,1.95,12c0,2.11.65,4.12,1.85,5.8l-1.12-.14c-.35-.04-.68.21-.72.57-.04.36.21.68.57.72l2.75.34s.05,0,.08,0c.14,0,.29-.05.4-.14.14-.11.22-.26.25-.43l.34-2.79c.04-.36-.21-.68-.57-.72-.36-.04-.68.21-.72.57l-.16,1.31c-1.06-1.48-1.64-3.23-1.64-5.09C3.25,7.18,7.17,3.25,12,3.25c.77,0,1.53.1,2.27.3.35.09.7-.11.8-.46.09-.35-.11-.7-.46-.8Z" style="fill: #66f; stroke-width: 0px;"/>
</svg>