<?xml version="1.0" encoding="UTF-8"?>
<svg id="FF" xmlns="http://www.w3.org/2000/svg" viewBox="0 0 24 24">
  <path d="M19.98,6.07l1.35.17c.31.04.58-.18.61-.48.04-.3-.18-.58-.48-.61l-2.75-.34c-.15-.02-.29.02-.41.11s-.19.22-.21.37l-.34,2.79c-.04.3.18.58.48.61.02,0,.05,0,.07,0,.27,0,.51-.2.54-.48l.19-1.56c1.17,1.53,1.81,3.39,1.81,5.35,0,4.88-3.97,8.85-8.85,8.85-.78,0-1.55-.1-2.29-.3-.29-.08-.59.1-.67.39-.08.29.1.6.39.67.83.22,1.7.34,2.58.34,5.49,0,9.95-4.46,9.95-9.95,0-2.17-.7-4.22-1.97-5.93Z" style="fill: #000; stroke-width: 0px;"/>
</svg>