<?xml version="1.0" encoding="UTF-8"?>
<svg id="HF" xmlns="http://www.w3.org/2000/svg" viewBox="0 0 24 24">
  <path d="M14.58,2.39c-.83-.22-1.7-.34-2.58-.34C6.51,2.05,2.05,6.51,2.05,12c0,2.17.7,4.22,1.97,5.93l-1.35-.17c-.31-.04-.58.18-.61.48-.04.3.18.58.48.61l2.75.34s.04,0,.07,0c.12,0,.24-.04.34-.12.12-.09.19-.22.21-.37l.34-2.79c.04-.3-.18-.58-.48-.61-.31-.04-.58.18-.61.48l-.19,1.56c-1.17-1.53-1.81-3.39-1.81-5.35C3.15,7.12,7.12,3.15,12,3.15c.78,0,1.55.1,2.29.3.29.08.59-.1.67-.39.08-.29-.1-.6-.39-.67Z" style="fill: #606060; stroke-width: 0px;"/>
</svg>