<?xml version="1.0" encoding="UTF-8"?>
<svg id="TL" xmlns="http://www.w3.org/2000/svg" viewBox="0 0 24 24">
  <path d="M9.71,10.33c.06.09.15.13.28.13s.24-.04.29-.13c.05-.08.07-.18.07-.29v-5.09c0-.19-.04-.36-.12-.49-.08-.15-.24-.22-.47-.22-.18,0-.32.06-.4.18-.08.11-.13.25-.16.4l-.6,3.66-.6-3.66c-.02-.16-.07-.29-.15-.41-.09-.12-.22-.18-.4-.18-.23,0-.38.07-.47.22-.08.14-.12.3-.12.5v5.09c0,.11.03.21.08.29.06.09.15.13.28.13s.24-.04.29-.13c.05-.08.07-.18.07-.29v-4.16l.67,4.23c.02.1.05.18.1.24.05.07.14.11.26.11s.2-.04.26-.12c.05-.07.09-.15.1-.24l.67-4.21v4.15c0,.11.03.21.08.29Z"/>
  <path d="M18,1.95H6c-1.19,0-2.15.96-2.15,2.15v15.8c0,1.19.96,2.15,2.15,2.15h10c.36,0,.65-.29.65-.65s-.29-.65-.65-.65H6c-.47,0-.85-.38-.85-.85V4.1c0-.47.38-.85.85-.85h12c.47,0,.85.38.85.85v13.8c0,.36.29.65.65.65s.65-.29.65-.65V4.1c0-1.19-.96-2.15-2.15-2.15Z"/>
  <path d="M17,18.08c.41-.59.65-1.3.65-2.08,0-2.01-1.64-3.65-3.65-3.65s-3.65,1.64-3.65,3.65,1.64,3.65,3.65,3.65c.77,0,1.49-.24,2.08-.65l1.59,1.59c.13.13.29.19.46.19s.33-.06.46-.19c.25-.25.25-.67,0-.92l-1.59-1.59ZM14,18.35c-1.3,0-2.35-1.05-2.35-2.35s1.05-2.35,2.35-2.35,2.35,1.05,2.35,2.35-1.05,2.35-2.35,2.35Z"/>
</svg>