<?xml version="1.0" encoding="UTF-8"?>
<svg id="TL" xmlns="http://www.w3.org/2000/svg" viewBox="0 0 24 24">
  <path d="M21.4,7.35h-4.25v-2.25c0-1.19-.96-2.15-2.15-2.15h-6c-1.19,0-2.15.96-2.15,2.15v2.25h-.35c-.36,0-.65.29-.65.65s.29.65.65.65h.35v6.7H2.6c-.36,0-.65.29-.65.65s.29.65.65.65h4.25v2.25c0,1.19.96,2.15,2.15,2.15h6c1.19,0,2.15-.96,2.15-2.15v-10.25h4.25c.36,0,.65-.29.65-.65s-.29-.65-.65-.65ZM15.85,18.9c0,.47-.38.85-.85.85h-6c-.47,0-.85-.38-.85-.85V5.1c0-.47.38-.85.85-.85h6c.47,0,.85.38.85.85v13.8Z"/>
  <path d="M10.69,11.47c-.16,0-.27-.05-.33-.16-.06-.1-.08-.21-.08-.35v-4.94c0-.18.06-.35.19-.48.13-.13.29-.2.47-.2h2.43c.13,0,.24.03.32.08.09.06.14.16.14.31s-.05.25-.14.31c-.09.05-.19.08-.32.08h-1.99c-.18,0-.26.08-.26.26v1.54h1.88c.13,0,.24.03.32.08.09.06.14.16.14.31s-.05.25-.14.31c-.09.05-.19.08-.32.08h-1.88v2.23c0,.14-.03.26-.09.35-.06.1-.18.15-.33.15Z"/>
  <path d="M3.6,8.65h-1c-.36,0-.65-.29-.65-.65s.29-.65.65-.65h.6l.82-1.64c.16-.32.55-.45.87-.29.32.16.45.55.29.87l-1,2c-.11.22-.34.36-.58.36Z"/>
</svg>