<?xml version="1.0" encoding="UTF-8"?>
<svg id="FF" xmlns="http://www.w3.org/2000/svg" viewBox="0 0 24 24">
  <path d="M15,3.05h-6c-1.13,0-2.05.92-2.05,2.05v13.8c0,1.13.92,2.05,2.05,2.05h6c1.13,0,2.05-.92,2.05-2.05V5.1c0-1.13-.92-2.05-2.05-2.05ZM13.65,11.04c0,.09-.02.17-.06.24-.03.06-.1.09-.2.09s-.16-.03-.2-.09c-.04-.06-.06-.14-.06-.24v-4.79h-.1s-.77,4.83-.77,4.83c-.01.08-.04.14-.08.2-.04.05-.1.08-.18.08s-.14-.02-.17-.07c-.04-.05-.07-.12-.08-.2l-.77-4.85h-.1v4.8c0,.09-.02.17-.06.24-.03.06-.1.09-.2.09s-.16-.03-.2-.09c-.04-.06-.06-.14-.06-.24v-5.09c0-.18.04-.33.11-.45.07-.11.2-.17.39-.17.15,0,.26.04.32.14.07.1.12.22.14.36l.65,3.96h.1l.65-3.96c.02-.14.07-.26.14-.36.07-.09.17-.14.32-.14.19,0,.32.06.38.17.07.12.11.27.11.44v5.09Z"/>
</svg>