<?xml version="1.0" encoding="UTF-8"?>
<svg id="TF" xmlns="http://www.w3.org/2000/svg" viewBox="0 0 24 24">
  <path d="M12.4,8.62c-.2-.07-.42-.1-.66-.1h-.73v1.81c0,.24.12.36.36.36h.41c.24,0,.46-.03.65-.1.19-.07.35-.18.46-.33.11-.16.17-.37.17-.63s-.06-.5-.18-.66c-.12-.16-.28-.28-.48-.35Z" style="fill: #333;"/>
  <path d="M12.56,7.71c.22-.17.34-.44.34-.81,0-.35-.09-.59-.28-.71-.18-.12-.43-.18-.75-.18h-.51c-.11,0-.19.03-.26.1-.06.07-.1.15-.1.26v1.58h.7c.35,0,.64-.08.85-.25Z" style="fill: #333;"/>
  <path d="M21.4,7.45h-4.35v-2.35c0-1.13-.92-2.05-2.05-2.05h-6c-1.13,0-2.05.92-2.05,2.05v2.35h-.45c-.3,0-.55.25-.55.55s.25.55.55.55h.45v6.9H2.6c-.3,0-.55.25-.55.55s.25.55.55.55h4.35v2.35c0,1.13.92,2.05,2.05,2.05h6c1.13,0,2.05-.92,2.05-2.05v-10.35h4.35c.3,0,.55-.25.55-.55s-.25-.55-.55-.55ZM13.47,10.57c-.15.23-.35.4-.6.51-.25.12-.55.18-.87.18h-.98c-.18,0-.33-.06-.46-.19-.13-.12-.19-.27-.19-.45v-4.53c0-.17.06-.32.19-.45.13-.13.28-.19.45-.19h.74c.33,0,.63.04.9.1.26.07.48.2.64.39.16.19.24.48.24.86,0,.34-.08.62-.25.85-.17.23-.41.4-.72.52l-.14.05.15.04c.37.11.65.28.84.52.19.24.28.55.28.94,0,.33-.08.61-.22.84Z" style="fill: #333;"/>
  <path d="M2.6,8.55h1c.21,0,.4-.12.49-.3l1-2c.14-.27.03-.6-.25-.74s-.6-.03-.74.25l-.85,1.7h-.66c-.3,0-.55.25-.55.55s.25.55.55.55Z" style="fill: #333;"/>
</svg>