<?xml version="1.0" encoding="UTF-8"?>
<svg id="TL" xmlns="http://www.w3.org/2000/svg" viewBox="0 0 24 24">
  <path d="M21.4,7.35h-4.25v-2.25c0-1.19-.96-2.15-2.15-2.15h-6c-1.19,0-2.15.96-2.15,2.15v2.25h-.35c-.36,0-.65.29-.65.65s.29.65.65.65h.35v6.7H2.6c-.36,0-.65.29-.65.65s.29.65.65.65h4.25v2.25c0,1.19.96,2.15,2.15,2.15h6c1.19,0,2.15-.96,2.15-2.15v-10.25h4.25c.36,0,.65-.29.65-.65s-.29-.65-.65-.65ZM15.85,18.9c0,.47-.38.85-.85.85h-6c-.47,0-.85-.38-.85-.85V5.1c0-.47.38-.85.85-.85h6c.47,0,.85.38.85.85v13.8Z"/>
  <path d="M13.49,8.72c-.18-.23-.43-.4-.76-.51.27-.12.48-.29.64-.5.18-.24.27-.55.27-.91,0-.41-.09-.72-.26-.93-.17-.21-.41-.35-.69-.42-.28-.07-.59-.11-.93-.11h-.74c-.2,0-.38.07-.52.22s-.22.32-.22.52v4.53c0,.21.07.38.22.52s.32.21.53.21h.98c.33,0,.64-.06.91-.18.27-.12.49-.31.65-.55.16-.24.24-.54.24-.89,0-.41-.1-.75-.3-1ZM11.1,6.38c0-.08.02-.14.07-.19.05-.05.11-.07.19-.07h.51c.3,0,.53.05.69.16.16.1.24.31.24.63,0,.34-.1.58-.3.73-.2.15-.47.23-.79.23h-.6v-1.48ZM12.8,10.2c-.1.14-.24.24-.41.3-.18.06-.39.09-.61.09h-.41c-.18,0-.26-.08-.26-.26v-1.71h.63c.23,0,.44.03.63.1.18.06.32.17.43.31.1.14.16.35.16.6s-.05.44-.15.58Z"/>
  <path d="M3.6,8.65h-1c-.36,0-.65-.29-.65-.65s.29-.65.65-.65h.6l.82-1.64c.16-.32.55-.45.87-.29.32.16.45.55.29.87l-1,2c-.11.22-.34.36-.58.36Z"/>
</svg>