<?xml version="1.0" encoding="UTF-8"?>
<svg id="FL" xmlns="http://www.w3.org/2000/svg" viewBox="0 0 24 24">
  <path d="M18,1.95H6c-1.19,0-2.15.96-2.15,2.15v15.8c0,1.19.96,2.15,2.15,2.15h10c.36,0,.65-.29.65-.65s-.29-.65-.65-.65H6c-.47,0-.85-.38-.85-.85V4.1c0-.47.38-.85.85-.85h12c.47,0,.85.38.85.85v13.8c0,.36.29.65.65.65s.65-.29.65-.65V4.1c0-1.19-.96-2.15-2.15-2.15Z"/>
  <path d="M17,18.08c.41-.59.65-1.3.65-2.08,0-2.01-1.64-3.65-3.65-3.65s-3.65,1.64-3.65,3.65,1.64,3.65,3.65,3.65c.77,0,1.49-.24,2.08-.65l1.59,1.59c.13.13.29.19.46.19s.33-.06.46-.19c.25-.25.25-.67,0-.92l-1.59-1.59ZM11.65,16c0-1.3,1.05-2.35,2.35-2.35s2.35,1.05,2.35,2.35-1.05,2.35-2.35,2.35-2.35-1.05-2.35-2.35Z"/>
</svg>