<?xml version="1.0" encoding="UTF-8"?>
<svg id="TL" xmlns="http://www.w3.org/2000/svg" viewBox="0 0 24 24">
  <path d="M9.97,6.71c.18-.24.27-.55.27-.91,0-.41-.09-.72-.26-.93-.17-.21-.41-.35-.69-.42-.28-.07-.59-.11-.93-.11h-.74c-.2,0-.38.07-.52.22s-.22.32-.22.52v4.53c0,.21.07.38.22.52s.32.21.53.21h.98c.33,0,.64-.06.91-.18.27-.12.49-.31.65-.55.16-.24.24-.54.24-.89,0-.41-.1-.75-.3-1-.18-.23-.43-.4-.76-.51.27-.12.48-.29.64-.5ZM9.39,8.03c.1.14.16.35.16.6s-.05.44-.15.58-.24.24-.41.3c-.18.06-.39.09-.61.09h-.41c-.18,0-.26-.08-.26-.26v-1.71h.63c.23,0,.44.03.63.1.18.06.32.17.43.31ZM9.1,6.63c-.2.15-.47.23-.79.23h-.6v-1.48c0-.08.02-.14.07-.19.05-.05.11-.07.19-.07h.51c.3,0,.53.05.69.16.16.1.24.31.24.63,0,.34-.1.58-.3.73Z"/>
  <path d="M18,1.95H6c-1.19,0-2.15.96-2.15,2.15v15.8c0,1.19.96,2.15,2.15,2.15h10c.36,0,.65-.29.65-.65s-.29-.65-.65-.65H6c-.47,0-.85-.38-.85-.85V4.1c0-.47.38-.85.85-.85h12c.47,0,.85.38.85.85v13.8c0,.36.29.65.65.65s.65-.29.65-.65V4.1c0-1.19-.96-2.15-2.15-2.15Z"/>
  <path d="M17,18.08c.41-.59.65-1.3.65-2.08,0-2.01-1.64-3.65-3.65-3.65s-3.65,1.64-3.65,3.65,1.64,3.65,3.65,3.65c.77,0,1.49-.24,2.08-.65l1.59,1.59c.13.13.29.19.46.19s.33-.06.46-.19c.25-.25.25-.67,0-.92l-1.59-1.59ZM14,18.35c-1.3,0-2.35-1.05-2.35-2.35s1.05-2.35,2.35-2.35,2.35,1.05,2.35,2.35-1.05,2.35-2.35,2.35Z"/>
</svg>