<?xml version="1.0" encoding="UTF-8"?>
<svg id="HF" xmlns="http://www.w3.org/2000/svg" viewBox="0 0 24 24">
  <path d="M7.5,16.55H2.6c-.3,0-.55-.25-.55-.55s.25-.55.55-.55h4.9c.3,0,.55.25.55.55s-.25.55-.55.55Z" style="fill: #999;"/>
  <path d="M7.5,8.55h-1c-.3,0-.55-.25-.55-.55s.25-.55.55-.55h1c.3,0,.55.25.55.55s-.25.55-.55.55Z" style="fill: #999;"/>
  <path d="M21.4,8.55h-4.9c-.3,0-.55-.25-.55-.55s.25-.55.55-.55h4.9c.3,0,.55.25.55.55s-.25.55-.55.55Z" style="fill: #999;"/>
  <path d="M3.6,8.55h-1c-.3,0-.55-.25-.55-.55s.25-.55.55-.55h.66l.85-1.7c.14-.27.47-.38.74-.25s.38.47.25.74l-1,2c-.09.19-.28.3-.49.3Z" style="fill: #999;"/>
</svg>