<?xml version="1.0" encoding="UTF-8"?>
<svg id="TL" xmlns="http://www.w3.org/2000/svg" viewBox="0 0 24 24">
  <path d="M21.4,7.35h-4.25v-2.25c0-1.19-.96-2.15-2.15-2.15h-6c-1.19,0-2.15.96-2.15,2.15v2.25h-.35c-.36,0-.65.29-.65.65s.29.65.65.65h.35v6.7H2.6c-.36,0-.65.29-.65.65s.29.65.65.65h4.25v2.25c0,1.19.96,2.15,2.15,2.15h6c1.19,0,2.15-.96,2.15-2.15v-10.25h4.25c.36,0,.65-.29.65-.65s-.29-.65-.65-.65ZM15.85,18.9c0,.47-.38.85-.85.85h-6c-.47,0-.85-.38-.85-.85V5.1c0-.47.38-.85.85-.85h6c.47,0,.85.38.85.85v13.8Z"/>
  <path d="M13.39,11.47c-.13,0-.23-.04-.28-.13-.05-.08-.08-.18-.08-.29v-4.15l-.67,4.21c-.02.09-.05.17-.1.24-.06.08-.14.12-.26.12s-.2-.04-.26-.11c-.05-.06-.08-.15-.1-.24l-.67-4.23v4.16c0,.11-.02.21-.07.29-.05.09-.15.13-.29.13s-.23-.04-.28-.13c-.05-.08-.08-.18-.08-.29v-5.09c0-.2.04-.36.12-.5.09-.14.25-.22.47-.22.18,0,.32.06.4.18.08.11.13.25.15.41l.6,3.66.6-3.66c.03-.16.08-.29.16-.4.08-.12.22-.18.4-.18.23,0,.38.07.47.22.08.14.12.3.12.49v5.09c0,.11-.02.21-.07.29-.05.09-.15.13-.29.13Z"/>
  <path d="M3.6,8.65h-1c-.36,0-.65-.29-.65-.65s.29-.65.65-.65h.6l.82-1.64c.16-.32.55-.45.87-.29.32.16.45.55.29.87l-1,2c-.11.22-.34.36-.58.36Z"/>
</svg>