<?xml version="1.0" encoding="UTF-8"?>
<svg id="TF" xmlns="http://www.w3.org/2000/svg" viewBox="0 0 24 24">
  <path d="M18,2.05H6c-1.13,0-2.05.92-2.05,2.05v15.8c0,1.13.92,2.05,2.05,2.05h11.76l-1.83-1.83c-.6.29-1.25.43-1.92.43-2.51,0-4.55-2.04-4.55-4.55s2.04-4.55,4.55-4.55,4.55,2.04,4.55,4.55c0,.67-.15,1.32-.43,1.92l1.93,1.93V4.1c0-1.13-.92-2.05-2.05-2.05ZM10.24,4.97c-.07.04-.16.07-.27.07h-1.99c-.24,0-.36.12-.36.36v1.64h1.98c.11,0,.2.02.27.07.06.04.09.11.09.23s-.03.19-.09.23c-.07.04-.16.07-.27.07h-1.98v2.33c0,.12-.03.22-.07.3-.05.07-.13.11-.25.11s-.2-.04-.25-.11c-.05-.08-.07-.18-.07-.29v-4.94c0-.16.05-.29.17-.41.11-.11.24-.17.4-.17h2.43c.11,0,.2.02.27.07.06.04.09.11.09.23s-.03.19-.09.23Z" style="fill: #333;"/>
  <path d="M18.51,19.73l-1.65-1.65c.43-.59.69-1.3.69-2.08,0-1.96-1.59-3.55-3.55-3.55s-3.55,1.59-3.55,3.55,1.59,3.55,3.55,3.55c.78,0,1.5-.26,2.08-.69l1.65,1.65c.11.11.25.16.39.16s.28-.05.39-.16c.21-.21.21-.56,0-.78Z" style="fill: #333;"/>
</svg>