<?xml version="1.0" encoding="UTF-8"?>
<svg id="FL" xmlns="http://www.w3.org/2000/svg" viewBox="0 0 24 24">
  <path d="M21.4,7.35h-4.25v-2.25c0-1.19-.96-2.15-2.15-2.15h-6c-1.19,0-2.15.96-2.15,2.15v2.25h-.35c-.36,0-.65.29-.65.65s.29.65.65.65h.35v6.7H2.6c-.36,0-.65.29-.65.65s.29.65.65.65h4.25v2.25c0,1.19.96,2.15,2.15,2.15h6c1.19,0,2.15-.96,2.15-2.15v-10.25h4.25c.36,0,.65-.29.65-.65s-.29-.65-.65-.65ZM15.85,18.9c0,.47-.38.85-.85.85h-6c-.47,0-.85-.38-.85-.85V5.1c0-.47.38-.85.85-.85h6c.47,0,.85.38.85.85v13.8Z"/>
  <path d="M2.6,8.65h1c.25,0,.47-.14.58-.36l1-2c.16-.32.03-.71-.29-.87-.32-.16-.71-.03-.87.29l-.82,1.64h-.6c-.36,0-.65.29-.65.65s.29.65.65.65Z"/>
</svg>