<?xml version="1.0" encoding="UTF-8"?>
<svg id="TF" xmlns="http://www.w3.org/2000/svg" viewBox="0 0 24 24">
  <path d="M21.4,7.45h-4.35v-2.35c0-1.13-.92-2.05-2.05-2.05h-6c-1.13,0-2.05.92-2.05,2.05v2.35h-.45c-.3,0-.55.25-.55.55s.25.55.55.55h.45v6.9H2.6c-.3,0-.55.25-.55.55s.25.55.55.55h4.35v2.35c0,1.13.92,2.05,2.05,2.05h6c1.13,0,2.05-.92,2.05-2.05v-10.35h4.35c.3,0,.55-.25.55-.55s-.25-.55-.55-.55ZM13.64,5.97c-.07.04-.16.07-.27.07h-1.99c-.24,0-.36.12-.36.36v1.64h1.98c.11,0,.2.02.27.07.06.04.09.11.09.23s-.03.19-.09.23c-.07.04-.16.07-.27.07h-1.98v2.33c0,.12-.03.22-.07.3-.05.07-.13.11-.25.11s-.2-.04-.25-.11c-.05-.08-.07-.18-.07-.29v-4.94c0-.16.05-.29.17-.41.11-.11.24-.17.4-.17h2.43c.11,0,.2.02.27.07.06.04.09.11.09.23s-.03.19-.09.23Z" style="fill: #333;"/>
  <path d="M2.6,8.55h1c.21,0,.4-.12.49-.3l1-2c.14-.27.03-.6-.25-.74s-.6-.03-.74.25l-.85,1.7h-.66c-.3,0-.55.25-.55.55s.25.55.55.55Z" style="fill: #333;"/>
</svg>