<?xml version="1.0" encoding="UTF-8"?>
<svg id="TF" xmlns="http://www.w3.org/2000/svg" viewBox="0 0 24 24">
  <path d="M6.03,8.32c-.16.26-.07.6.19.75.09.05.19.08.28.08.19,0,.37-.1.47-.27.92-1.53.39-2.42,0-3.07-.35-.58-.58-.97,0-1.93.16-.26.07-.6-.19-.75-.26-.16-.6-.07-.75.19-.92,1.53-.39,2.42,0,3.07.35.58.58.97,0,1.93Z"/>
  <path d="M10.03,8.32c-.16.26-.07.6.19.75.09.05.19.08.28.08.19,0,.37-.1.47-.27.92-1.53.39-2.42,0-3.07-.35-.58-.58-.97,0-1.93.16-.26.07-.6-.19-.75-.26-.16-.6-.07-.75.19-.92,1.53-.39,2.42,0,3.07.35.58.58.97,0,1.93Z"/>
  <path d="M14.03,8.32c-.16.26-.07.6.19.75.09.05.19.08.28.08.19,0,.37-.1.47-.27.92-1.53.39-2.42,0-3.07-.35-.58-.58-.97,0-1.93.16-.26.07-.6-.19-.75-.26-.16-.6-.07-.75.19-.92,1.53-.39,2.42,0,3.07.35.58.58.97,0,1.93Z"/>
  <path d="M18.5,10.05H3.6c-.3,0-.55.25-.55.55v3.8c0,2.51,2.04,4.55,4.55,4.55h5.8c2.32,0,4.22-1.75,4.49-4h.61c1.35,0,2.45-1.1,2.45-2.45s-1.1-2.45-2.45-2.45ZM18.5,13.85h-.55v-2.7h.55c.74,0,1.35.61,1.35,1.35s-.61,1.35-1.35,1.35Z"/>
  <path d="M16,19.85H5c-.3,0-.55.25-.55.55s.25.55.55.55h11c.3,0,.55-.25.55-.55s-.25-.55-.55-.55Z"/>
</svg>