<?xml version="1.0" encoding="UTF-8"?>
<svg id="HF" xmlns="http://www.w3.org/2000/svg" viewBox="0 0 24 24">
  <path d="M6.5,9.15c-.1,0-.19-.03-.28-.08-.26-.16-.34-.49-.19-.75.58-.97.35-1.35,0-1.93-.39-.65-.92-1.53,0-3.07.16-.26.49-.35.75-.19.26.16.34.49.19.75-.58.97-.35,1.35,0,1.93.39.65.92,1.53,0,3.07-.1.17-.29.27-.47.27Z" style="fill: #999;"/>
  <path d="M10.5,9.15c-.1,0-.19-.03-.28-.08-.26-.16-.34-.49-.19-.75.58-.97.35-1.35,0-1.93-.39-.65-.92-1.53,0-3.07.16-.26.49-.35.75-.19.26.16.34.49.19.75-.58.97-.35,1.35,0,1.93.39.65.92,1.53,0,3.07-.1.17-.29.27-.47.27Z" style="fill: #999;"/>
  <path d="M14.5,9.15c-.1,0-.19-.03-.28-.08-.26-.16-.34-.49-.19-.75.58-.97.35-1.35,0-1.93-.39-.65-.92-1.53,0-3.07.16-.26.49-.35.75-.19.26.16.34.49.19.75-.58.97-.35,1.35,0,1.93.39.65.92,1.53,0,3.07-.1.17-.29.27-.47.27Z" style="fill: #999;"/>
</svg>