<?xml version="1.0" encoding="UTF-8"?>
<svg id="TL" xmlns="http://www.w3.org/2000/svg" viewBox="0 0 24 24">
  <path d="M20.2,6.2l1.12.14c.35.05.68-.21.72-.57.04-.36-.21-.68-.57-.72l-2.75-.34c-.17-.02-.34.03-.48.13-.14.11-.22.26-.25.43l-.34,2.79c-.04.36.21.68.57.72.03,0,.05,0,.08,0,.32,0,.6-.24.64-.57l.16-1.31c1.06,1.48,1.64,3.23,1.64,5.09,0,4.82-3.92,8.75-8.75,8.75S3.25,16.82,3.25,12,7.17,3.25,12,3.25c.74,0,1.5.1,2.26.31.35.1.7-.11.8-.46.09-.35-.11-.7-.46-.8-.87-.23-1.75-.35-2.6-.35C6.46,1.95,1.95,6.46,1.95,12s4.51,10.05,10.05,10.05,10.05-4.51,10.05-10.05c0-2.11-.65-4.12-1.85-5.8Z" style="fill: #000; stroke-width: 0px;"/>
</svg>