<?xml version="1.0" encoding="UTF-8"?>
<svg id="HL" xmlns="http://www.w3.org/2000/svg" viewBox="0 0 24 24">
  <path d="M6.5,9.25c-.11,0-.23-.03-.33-.09-.31-.18-.41-.58-.22-.89.55-.92.34-1.26,0-1.83-.4-.67-.95-1.58,0-3.17.18-.31.58-.41.89-.22.31.18.41.58.22.89-.55.92-.34,1.26,0,1.83.4.67.95,1.58,0,3.17-.12.2-.34.32-.56.32Z" style="fill: #66f;"/>
  <path d="M10.5,9.25c-.11,0-.23-.03-.33-.09-.31-.18-.41-.58-.22-.89.55-.92.34-1.26,0-1.83-.4-.67-.95-1.58,0-3.17.18-.31.58-.41.89-.22.31.18.41.58.22.89-.55.92-.34,1.26,0,1.83.4.67.95,1.58,0,3.17-.12.2-.34.32-.56.32Z" style="fill: #66f;"/>
  <path d="M14.5,9.25c-.11,0-.23-.03-.33-.09-.31-.18-.41-.58-.22-.89.55-.92.34-1.26,0-1.83-.4-.67-.95-1.58,0-3.17.18-.31.58-.41.89-.22.31.18.41.58.22.89-.55.92-.34,1.26,0,1.83.4.67.95,1.58,0,3.17-.12.2-.34.32-.56.32Z" style="fill: #66f;"/>
</svg>