<?xml version="1.0" encoding="UTF-8"?>
<svg id="FL" xmlns="http://www.w3.org/2000/svg" viewBox="0 0 24 24">
  <path d="M16,19.75H5c-.36,0-.65.29-.65.65s.29.65.65.65h11c.36,0,.65-.29.65-.65s-.29-.65-.65-.65Z"/>
  <path d="M18.5,9.95H3.6c-.36,0-.65.29-.65.65v3.8c0,2.56,2.09,4.65,4.65,4.65h5.8c.61,0,1.21-.12,1.78-.36.33-.14.49-.52.35-.85-.14-.33-.52-.49-.85-.35-.41.17-.84.26-1.28.26h-5.8c-1.85,0-3.35-1.5-3.35-3.35v-3.15h12.5v3.15c0,.44-.09.87-.26,1.28-.14.33.02.71.35.85s.71-.02.85-.35c.15-.36.24-.74.29-1.13h.51c1.41,0,2.55-1.14,2.55-2.55s-1.14-2.55-2.55-2.55ZM18.5,13.75h-.45v-2.5h.45c.69,0,1.25.56,1.25,1.25s-.56,1.25-1.25,1.25Z"/>
</svg>