<?xml version="1.0" encoding="UTF-8"?>
<svg id="TF" xmlns="http://www.w3.org/2000/svg" viewBox="0 0 24 24">
  <path d="M3.08,10.23l8.66-5c.64-.37,1.41-.37,2.05,0,.64.37,1.02,1.03,1.02,1.78v.57s4.07-2.35,4.07-2.35c.64-.37,1.41-.37,2.05,0,.64.37,1.02,1.03,1.02,1.78v10c0,.74-.38,1.4-1.02,1.78-.32.19-.67.28-1.02.28s-.7-.09-1.02-.28l-4.07-2.35v.57c0,.74-.38,1.4-1.02,1.78-.32.19-.67.28-1.02.28s-.7-.09-1.02-.28L3.08,13.78c-.64-.37-1.02-1.03-1.02-1.78s.38-1.4,1.02-1.77Z" style="fill: #404040; stroke-width: 0px;"/>
</svg>