<?xml version="1.0" encoding="UTF-8"?>
<svg id="FL" xmlns="http://www.w3.org/2000/svg" viewBox="0 0 24 24">
  <path d="M20.98,5.14c-.67-.39-1.48-.39-2.15,0l-8.66,5c-.67.39-1.08,1.08-1.08,1.86s.4,1.47,1.07,1.86l5.2,3c.31.18.71.07.89-.24.18-.31.07-.71-.24-.89l-5.2-3c-.38-.22-.42-.59-.42-.74s.04-.51.43-.74l8.66-5c.39-.22.72-.07.85,0,.13.07.43.29.43.74v10c0,.44-.3.66-.43.74-.13.07-.46.22-.85,0-.31-.18-.71-.07-.89.24-.18.31-.07.71.24.89.34.19.71.29,1.07.29s.74-.1,1.08-.29c.67-.39,1.07-1.08,1.07-1.86V7c0-.78-.4-1.47-1.07-1.86Z" style="fill: #000; stroke-width: 0px;"/>
</svg>