<?xml version="1.0" encoding="UTF-8"?>
<svg id="HL" xmlns="http://www.w3.org/2000/svg" viewBox="0 0 24 24">
  <path d="M20.4,19.75h-3c-.36,0-.65.29-.65.65s.29.65.65.65h3c.36,0,.65-.29.65-.65s-.29-.65-.65-.65Z" style="fill: #66f; stroke-width: 0px;"/>
  <path d="M20.4,17.25h-4c-.36,0-.65.29-.65.65s.29.65.65.65h4c.36,0,.65-.29.65-.65s-.29-.65-.65-.65Z" style="fill: #66f; stroke-width: 0px;"/>
  <path d="M21.05,15.4c0-.36-.29-.65-.65-.65h-5c-.36,0-.65.29-.65.65s.29.65.65.65h5c.36,0,.65-.29.65-.65Z" style="fill: #66f; stroke-width: 0px;"/>
</svg>