<?xml version="1.0" encoding="UTF-8"?>
<svg id="TL" xmlns="http://www.w3.org/2000/svg" viewBox="0 0 24 24">
  <g>
    <path d="M20.4,19.75h-3c-.36,0-.65.29-.65.65s.29.65.65.65h3c.36,0,.65-.29.65-.65s-.29-.65-.65-.65Z" style="fill: #000; stroke-width: 0px;"/>
    <path d="M20.4,17.25h-4c-.36,0-.65.29-.65.65s.29.65.65.65h4c.36,0,.65-.29.65-.65s-.29-.65-.65-.65Z" style="fill: #000; stroke-width: 0px;"/>
    <path d="M21.05,15.4c0-.36-.29-.65-.65-.65h-5c-.36,0-.65.29-.65.65s.29.65.65.65h5c.36,0,.65-.29.65-.65Z" style="fill: #000; stroke-width: 0px;"/>
  </g>
  <path d="M12,2.95c-3.12,0-5.65,2.53-5.65,5.65,0,2.05,1.1,3.85,2.75,4.84-3.01,1.02-5.35,3.59-5.98,6.84-.07.35.16.69.52.76.04,0,.08.01.12.01.3,0,.58-.22.64-.53.7-3.63,3.9-6.27,7.6-6.27,3.12,0,5.65-2.53,5.65-5.65s-2.54-5.65-5.65-5.65ZM12,12.95c-2.4,0-4.35-1.95-4.35-4.35s1.95-4.35,4.35-4.35,4.35,1.95,4.35,4.35-1.95,4.35-4.35,4.35Z" style="fill: #000; stroke-width: 0px;"/>
</svg>