<?xml version="1.0" encoding="UTF-8"?>
<svg id="HF" xmlns="http://www.w3.org/2000/svg" viewBox="0 0 24 24">
  <circle cx="12" cy="8.6" r="5.55" style="fill: #606060; stroke-width: 0px;"/>
  <g>
    <path d="M20.4,19.85h-3c-.3,0-.55.25-.55.55s.25.55.55.55h3c.3,0,.55-.25.55-.55s-.25-.55-.55-.55Z" style="fill: #606060; stroke-width: 0px;"/>
    <path d="M20.4,17.35h-4c-.3,0-.55.25-.55.55s.25.55.55.55h4c.3,0,.55-.25.55-.55s-.25-.55-.55-.55Z" style="fill: #606060; stroke-width: 0px;"/>
    <path d="M20.95,15.4c0-.3-.25-.55-.55-.55h-5c-.3,0-.55.25-.55.55s.25.55.55.55h5c.3,0,.55-.25.55-.55Z" style="fill: #606060; stroke-width: 0px;"/>
  </g>
</svg>