<?xml version="1.0" encoding="UTF-8"?>
<svg id="TF" xmlns="http://www.w3.org/2000/svg" viewBox="0 0 24 24">
  <path d="M12.79,14.09c2.69-.38,4.76-2.7,4.76-5.49,0-3.06-2.49-5.55-5.55-5.55s-5.55,2.49-5.55,5.55c0,2.09,1.17,3.92,2.88,4.87-3.07.96-5.48,3.54-6.12,6.83-.03.16.01.33.12.45s.26.2.42.2h10.96c.18,0,.35-.09.46-.24.1-.15.12-.34.06-.51l-2.44-6.11Z" style="fill: #404040; stroke-width: 0px;"/>
  <path d="M20.4,19.85h-3c-.3,0-.55.25-.55.55s.25.55.55.55h3c.3,0,.55-.25.55-.55s-.25-.55-.55-.55Z" style="fill: #404040; stroke-width: 0px;"/>
  <path d="M20.4,17.35h-4c-.3,0-.55.25-.55.55s.25.55.55.55h4c.3,0,.55-.25.55-.55s-.25-.55-.55-.55Z" style="fill: #404040; stroke-width: 0px;"/>
  <path d="M20.95,15.4c0-.3-.25-.55-.55-.55h-5c-.3,0-.55.25-.55.55s.25.55.55.55h5c.3,0,.55-.25.55-.55Z" style="fill: #404040; stroke-width: 0px;"/>
</svg>