<?xml version="1.0" encoding="UTF-8"?>
<svg id="TF" xmlns="http://www.w3.org/2000/svg" viewBox="0 0 24 24">
  <path d="M11.53,3.42c-.64-.37-1.41-.37-2.05,0l-4.89,2.82c-.79.45-1.28,1.3-1.28,2.21v7.09c0,.91.49,1.75,1.28,2.21l4.89,2.82c.32.19.67.28,1.02.28s.7-.09,1.02-.28c.64-.37,1.02-1.03,1.02-1.77V5.19c0-.74-.38-1.4-1.02-1.77ZM9.55,13c0,.3-.25.55-.55.55s-.55-.25-.55-.55v-2c0-.3.25-.55.55-.55s.55.25.55.55v2Z" style="fill: #404040; stroke-width: 0px;"/>
  <path d="M18.64,5.45h-3.64c-.3,0-.55.25-.55.55v12c0,.3.25.55.55.55h3.64c1.13,0,2.05-.92,2.05-2.05V7.5c0-1.13-.92-2.05-2.05-2.05Z" style="fill: #404040; stroke-width: 0px;"/>
</svg>