<?xml version="1.0" encoding="UTF-8"?>
<svg id="FL" xmlns="http://www.w3.org/2000/svg" viewBox="0 0 24 24">
  <path d="M11.58,3.33c-.67-.39-1.48-.39-2.15,0l-4.89,2.82c-.82.47-1.33,1.35-1.33,2.3v7.09c0,.94.51,1.82,1.33,2.3l4.89,2.82c.34.19.71.29,1.07.29s.74-.1,1.07-.29c.67-.39,1.07-1.08,1.07-1.86V5.19c0-.78-.4-1.47-1.07-1.86ZM11.35,18.81c0,.44-.3.66-.42.73-.13.07-.46.22-.85,0l-4.89-2.82c-.42-.24-.68-.69-.68-1.17v-7.09c0-.48.26-.93.68-1.17l4.89-2.82c.15-.09.29-.12.42-.12.2,0,.35.07.43.12.13.07.42.29.42.73v13.61Z" style="fill: #000; stroke-width: 0px;"/>
  <path d="M9,10.35c-.36,0-.65.29-.65.65v2c0,.36.29.65.65.65s.65-.29.65-.65v-2c0-.36-.29-.65-.65-.65Z" style="fill: #000; stroke-width: 0px;"/>
</svg>