<?xml version="1.0" encoding="UTF-8"?>
<svg id="TL" xmlns="http://www.w3.org/2000/svg" viewBox="0 0 24 24">
  <path d="M20.4,14.75h-5c-.26,0-.5.16-.6.4-.1.24-.04.52.14.71l2.04,2.04-2.04,2.04c-.19.19-.24.47-.14.71.1.24.34.4.6.4h5c.36,0,.65-.29.65-.65v-1c0-.36-.29-.65-.65-.65s-.65.29-.65.65v.35h-2.78l1.39-1.39c.25-.25.25-.67,0-.92l-1.39-1.39h2.78v.35c0,.36.29.65.65.65s.65-.29.65-.65v-1c0-.36-.29-.65-.65-.65Z" style="fill: #000; stroke-width: 0px;"/>
  <g>
    <path d="M18.9,2.95H5.1c-1.19,0-2.15.96-2.15,2.15v13.8c0,1.19.96,2.15,2.15,2.15h6.9c.36,0,.65-.29.65-.65s-.29-.65-.65-.65h-6.9c-.47,0-.85-.38-.85-.85V5.1c0-.47.38-.85.85-.85h13.8c.47,0,.85.38.85.85v6.9c0,.36.29.65.65.65s.65-.29.65-.65v-6.9c0-1.19-.96-2.15-2.15-2.15Z" style="fill: #000; stroke-width: 0px;"/>
    <path d="M12,5.85c-.36,0-.65.29-.65.65v5.23l-2.64,2.64c-.25.25-.25.67,0,.92.13.13.29.19.46.19s.33-.06.46-.19l2.83-2.83c.12-.12.19-.29.19-.46v-5.5c0-.36-.29-.65-.65-.65Z" style="fill: #000; stroke-width: 0px;"/>
  </g>
</svg>