<?xml version="1.0" encoding="UTF-8"?>
<svg id="TF" xmlns="http://www.w3.org/2000/svg" viewBox="0 0 24 24">
  <path d="M20.79,8.21l-4.84-4.84v5.23c0,.3-.25.55-.55.55h-7.9c-.3,0-.55-.25-.55-.55V3.05h-1.85c-1.13,0-2.05.92-2.05,2.05v13.8c0,1.13.92,2.05,2.05,2.05h13.8c1.13,0,2.05-.92,2.05-2.05v-10.3c0-.15-.06-.29-.16-.39ZM17.45,16.9c0,.3-.25.55-.55.55s-.55-.25-.55-.55v-2.95H7.1c-.3,0-.55-.25-.55-.55s.25-.55.55-.55h9.8c.3,0,.55.25.55.55v3.5Z" style="fill: #404040; stroke-width: 0px;"/>
  <rect x="8.05" y="3.05" width="6.8" height="5" style="fill: #404040; stroke-width: 0px;"/>
</svg>