<?xml version="1.0" encoding="UTF-8"?>
<svg id="FL" xmlns="http://www.w3.org/2000/svg" viewBox="0 0 24 24">
  <path d="M20.86,8.14l-5-5c-.12-.12-.29-.19-.46-.19H5.1c-1.19,0-2.15.96-2.15,2.15v13.8c0,1.19.96,2.15,2.15,2.15h11.8c.36,0,.65-.29.65-.65s-.29-.65-.65-.65H5.1c-.47,0-.85-.38-.85-.85V5.1c0-.47.38-.85.85-.85h1.75v4.35c0,.36.29.65.65.65h7.9c.36,0,.65-.29.65-.65s-.29-.65-.65-.65h-7.25v-3.7h6.98l4.62,4.62v8.03c0,.36.29.65.65.65s.65-.29.65-.65v-8.3c0-.17-.07-.34-.19-.46Z" style="fill: #000; stroke-width: 0px;"/>
</svg>