<?xml version="1.0" encoding="UTF-8"?>
<svg id="TF" xmlns="http://www.w3.org/2000/svg" viewBox="0 0 24 24">
  <path d="M18.9,3.05H5.1c-1.13,0-2.05.92-2.05,2.05v2.5c0,.3.25.55.55.55h16.8c.3,0,.55-.25.55-.55v-2.5c0-1.13-.92-2.05-2.05-2.05Z" style="fill: #404040; stroke-width: 0px;"/>
  <path d="M20.4,15.85H3.6c-.3,0-.55.25-.55.55v2.5c0,1.13.92,2.05,2.05,2.05h13.8c1.13,0,2.05-.92,2.05-2.05v-2.5c0-.3-.25-.55-.55-.55Z" style="fill: #404040; stroke-width: 0px;"/>
  <path d="M20.4,11.45H3.6c-.3,0-.55.25-.55.55s.25.55.55.55h16.8c.3,0,.55-.25.55-.55s-.25-.55-.55-.55Z" style="fill: #404040; stroke-width: 0px;"/>
</svg>