<?xml version="1.0" encoding="UTF-8"?>
<svg id="FL" xmlns="http://www.w3.org/2000/svg" viewBox="0 0 24 24">
  <path d="M18.9,2.95H5.1c-1.19,0-2.15.96-2.15,2.15v2.5c0,.36.29.65.65.65s.65-.29.65-.65v-2.5c0-.47.38-.85.85-.85h13.8c.47,0,.85.38.85.85v2.5c0,.36.29.65.65.65s.65-.29.65-.65v-2.5c0-1.19-.96-2.15-2.15-2.15Z" style="fill: #000; stroke-width: 0px;"/>
  <path d="M20.4,15.75c-.36,0-.65.29-.65.65v2.5c0,.47-.38.85-.85.85H5.1c-.47,0-.85-.38-.85-.85v-2.5c0-.36-.29-.65-.65-.65s-.65.29-.65.65v2.5c0,1.19.96,2.15,2.15,2.15h13.8c1.19,0,2.15-.96,2.15-2.15v-2.5c0-.36-.29-.65-.65-.65Z" style="fill: #000; stroke-width: 0px;"/>
</svg>