<?xml version="1.0" encoding="UTF-8"?>
<svg id="TL" xmlns="http://www.w3.org/2000/svg" viewBox="0 0 24 24">
  <path d="M10.6,21.05h-5.5c-1.19,0-2.15-.96-2.15-2.15v-5.5c0-1.19.96-2.15,2.15-2.15h5.5c1.19,0,2.15.96,2.15,2.15v5.5c0,1.19-.96,2.15-2.15,2.15ZM5.1,12.55c-.47,0-.85.38-.85.85v5.5c0,.47.38.85.85.85h5.5c.47,0,.85-.38.85-.85v-5.5c0-.47-.38-.85-.85-.85h-5.5Z" style="fill: #000; stroke-width: 0px;"/>
  <path d="M18.9,21.05h-3.8c-.36,0-.65-.29-.65-.65s.29-.65.65-.65h3.8c.47,0,.85-.38.85-.85V5.1c0-.47-.38-.85-.85-.85H5.1c-.47,0-.85.38-.85.85v3.8c0,.36-.29.65-.65.65s-.65-.29-.65-.65v-3.8c0-1.19.96-2.15,2.15-2.15h13.8c1.19,0,2.15.96,2.15,2.15v13.8c0,1.19-.96,2.15-2.15,2.15Z" style="fill: #000; stroke-width: 0px;"/>
</svg>