<?xml version="1.0" encoding="UTF-8"?>
<svg id="FF" xmlns="http://www.w3.org/2000/svg" viewBox="0 0 24 24">
  <path d="M12,18.38c-.21-.22-.2-.57.02-.78.22-.21.57-.2.78.02l1.89,1.98,5.32-5.58c.21-.22.56-.23.78-.02.11.1.17.24.17.38v-5.09H3.05v9.6c0,1.13.92,2.05,2.05,2.05h9.59c-.15,0-.29-.06-.4-.17l-2.29-2.4Z" style="fill: #000; stroke-width: 0px;"/>
  <path d="M20.8,14.78l-5.71,6c-.1.11-.25.17-.4.17h4.21c1.13,0,2.05-.92,2.05-2.05v-4.51c0,.14-.05.28-.15.39Z" style="fill: #000; stroke-width: 0px;"/>
</svg>