<?xml version="1.0" encoding="UTF-8"?>
<svg id="TL" xmlns="http://www.w3.org/2000/svg" viewBox="0 0 24 24">
  <path d="M14.69,21.05c-.18,0-.35-.07-.47-.2l-2.29-2.4c-.25-.26-.24-.67.02-.92.26-.25.67-.24.92.02l1.81,1.91,5.24-5.51c.25-.26.66-.27.92-.02.26.25.27.66.02.92l-5.71,6c-.12.13-.29.2-.47.2Z" style="fill: #000; stroke-width: 0px;"/>
  <path d="M18.9,2.95H5.1c-1.19,0-2.15.96-2.15,2.15v13.8c0,1.19.96,2.15,2.15,2.15h4.8c.36,0,.65-.29.65-.65s-.29-.65-.65-.65h-4.8c-.47,0-.85-.38-.85-.85v-9.5h15.5v1.5c0,.36.29.65.65.65s.65-.29.65-.65v-5.8c0-1.19-.96-2.15-2.15-2.15ZM4.25,8.1v-3c0-.47.38-.85.85-.85h13.8c.47,0,.85.38.85.85v3H4.25Z" style="fill: #000; stroke-width: 0px;"/>
</svg>