<?xml version="1.0" encoding="UTF-8"?>
<svg id="TL" xmlns="http://www.w3.org/2000/svg" viewBox="0 0 24 24">
  <path d="M10.5,15.65c-.17,0-.33-.06-.46-.19l-3-3c-.25-.25-.25-.67,0-.92s.67-.25.92,0l2.54,2.54,5.54-5.54c.25-.25.67-.25.92,0s.25.67,0,.92l-6,6c-.13.13-.29.19-.46.19Z" style="fill: #000; stroke-width: 0px;"/>
  <path d="M12,22.05c-.11,0-.23-.03-.33-.09l-4.3-2.53c-2.48-1.46-4.02-4.15-4.02-7.03v-7.14c0-.28.18-.53.44-.62L11.79,1.98c.13-.04.28-.04.41,0l8,2.67c.27.09.44.34.44.62v2c0,.36-.29.65-.65.65s-.65-.29-.65-.65v-1.53l-7.35-2.45-7.35,2.45v6.67c0,2.42,1.29,4.68,3.38,5.91l3.97,2.33,3.97-2.33c2.08-1.22,3.38-3.49,3.38-5.91v-1.14c0-.36.29-.65.65-.65s.65.29.65.65v1.14c0,2.88-1.54,5.57-4.02,7.03l-4.3,2.53c-.1.06-.22.09-.33.09Z" style="fill: #000; stroke-width: 0px;"/>
</svg>