<?xml version="1.0" encoding="UTF-8"?>
<svg id="TF" xmlns="http://www.w3.org/2000/svg" viewBox="0 0 24 24">
  <path d="M20.17,4.75l-8-2.67c-.11-.04-.24-.04-.35,0L3.83,4.75c-.22.08-.38.29-.38.52v7.14c0,2.84,1.52,5.5,3.97,6.94l4.3,2.53c.09.05.18.08.28.08s.19-.02.28-.08l4.3-2.53c2.45-1.44,3.97-4.1,3.97-6.94v-7.14c0-.24-.15-.45-.38-.52ZM16.89,9.39l-6,6c-.11.11-.25.16-.39.16s-.28-.05-.39-.16l-3-3c-.21-.21-.21-.56,0-.78.21-.21.56-.21.78,0l2.61,2.61,5.61-5.61c.21-.21.56-.21.78,0,.21.21.21.56,0,.78Z" style="fill: #404040; stroke-width: 0px;"/>
</svg>