<?xml version="1.0" encoding="UTF-8"?>
<svg id="TF" xmlns="http://www.w3.org/2000/svg" viewBox="0 0 24 24">
  <rect x="12.35" y="12.35" width="8.6" height="8.6" rx="2.05" ry="2.05" style="fill: #404040; stroke-width: 0px;"/>
  <rect x="3.05" y="3.05" width="8.6" height="8.6" rx="2.05" ry="2.05" style="fill: #404040; stroke-width: 0px;"/>
  <path d="M14.07,10.48s.03,0,.04,0c.06,0,.11-.01.17-.02.04,0,.08-.01.12-.01h3c.3,0,.55-.25.55-.55v-1.8c0-1.13-.92-2.05-2.05-2.05h-1.8c-.3,0-.55.25-.55.55v3s0,.08-.01.12c0,.06-.02.11-.02.17-.01.16.05.32.16.43.1.1.24.16.39.16Z" style="fill: #404040; stroke-width: 0px;"/>
  <path d="M9.89,13.52c-.06,0-.11.01-.17.02-.04,0-.08.01-.12.01h-3c-.3,0-.55.25-.55.55v1.8c0,1.13.92,2.05,2.05,2.05h1.8c.3,0,.55-.25.55-.55v-3s0-.08.01-.12c0-.06.02-.11.02-.17.01-.16-.05-.32-.16-.43-.11-.11-.27-.17-.43-.16Z" style="fill: #404040; stroke-width: 0px;"/>
</svg>