<?xml version="1.0" encoding="UTF-8"?>
<svg id="FL" xmlns="http://www.w3.org/2000/svg" viewBox="0 0 24 24">
  <path d="M18.9,12.25h-4.5c-1.19,0-2.15.96-2.15,2.15v4.5c0,1.19.96,2.15,2.15,2.15h4.5c1.19,0,2.15-.96,2.15-2.15v-4.5c0-1.19-.96-2.15-2.15-2.15ZM19.75,18.9c0,.47-.38.85-.85.85h-4.5c-.47,0-.85-.38-.85-.85v-4.5c0-.47.38-.85.85-.85h4.5c.47,0,.85.38.85.85v4.5Z" style="fill: #000; stroke-width: 0px;"/>
  <path d="M9.6,2.95h-4.5c-1.19,0-2.15.96-2.15,2.15v4.5c0,1.19.96,2.15,2.15,2.15h4.5c1.19,0,2.15-.96,2.15-2.15v-4.5c0-1.19-.96-2.15-2.15-2.15ZM10.45,9.6c0,.47-.38.85-.85.85h-4.5c-.47,0-.85-.38-.85-.85v-4.5c0-.47.38-.85.85-.85h4.5c.47,0,.85.38.85.85v4.5Z" style="fill: #000; stroke-width: 0px;"/>
</svg>