<?xml version="1.0" encoding="UTF-8"?>
<svg id="HL" xmlns="http://www.w3.org/2000/svg" viewBox="0 0 24 24">
  <path d="M9.9,16.75h-1.8c-.47,0-.85-.38-.85-.85v-1.8c0-.36-.29-.65-.65-.65s-.65.29-.65.65v1.8c0,1.19.96,2.15,2.15,2.15h1.8c.36,0,.65-.29.65-.65s-.29-.65-.65-.65Z" style="fill: #66f; stroke-width: 0px;"/>
  <path d="M15.9,5.95h-1.8c-.36,0-.65.29-.65.65s.29.65.65.65h1.8c.47,0,.85.38.85.85v1.8c0,.36.29.65.65.65s.65-.29.65-.65v-1.8c0-1.19-.96-2.15-2.15-2.15Z" style="fill: #66f; stroke-width: 0px;"/>
</svg>