<?xml version="1.0" encoding="UTF-8"?>
<svg id="FF" xmlns="http://www.w3.org/2000/svg" viewBox="0 0 24 24">
  <path d="M21.38,13.84l-.21-.12c-.62-.36-1-1-1-1.72s.37-1.36,1-1.72c0,0,0,0,0,0l.21-.12c.21-.12.32-.37.26-.61-.45-1.77-1.38-3.39-2.69-4.66-.18-.17-.45-.21-.66-.08l-.21.12c-.62.36-1.37.36-1.99,0-.62-.36-1-1-1-1.72v-.24c0-.25-.16-.46-.4-.53-1.78-.5-3.59-.5-5.38,0-.24.07-.4.28-.4.53v.24c0,.72-.37,1.36-1,1.72-.62.36-1.37.36-1.99,0l-.21-.12c-.21-.12-.48-.09-.66.08-1.31,1.27-2.23,2.89-2.69,4.66-.06.24.04.49.26.61l.21.12c.62.36,1,1,1,1.72s-.37,1.36-1,1.72l-.21.12c-.21.12-.32.37-.26.61.45,1.77,1.38,3.39,2.69,4.66.18.17.45.21.66.08l.21-.12c.62-.36,1.37-.36,1.99,0,.62.36,1,1,1,1.72v.24c0,.25.16.46.4.53.89.25,1.8.38,2.69.38s1.8-.13,2.69-.38c.24-.07.4-.28.4-.53v-.24c0-.72.37-1.36,1-1.72.62-.36,1.37-.36,1.99,0l.21.12c.21.12.48.09.66-.08,1.31-1.27,2.23-2.89,2.69-4.66.06-.24-.04-.49-.26-.61ZM15.95,12c0,2.18-1.77,3.95-3.95,3.95s-3.95-1.77-3.95-3.95,1.77-3.95,3.95-3.95,3.95,1.77,3.95,3.95Z" style="fill: #000; stroke-width: 0px;"/>
</svg>