<?xml version="1.0" encoding="UTF-8"?>
<svg id="TL" xmlns="http://www.w3.org/2000/svg" viewBox="0 0 24 24">
  <path d="M5.24,6.7c-.16-.14-.34-.26-.53-.36-.19-.1-.38-.19-.57-.27-.19-.08-.36-.17-.52-.26-.15-.09-.28-.19-.37-.31-.09-.11-.13-.26-.13-.43,0-.27.07-.46.21-.59.14-.13.34-.19.6-.19.2,0,.36.04.46.1.11.07.19.16.24.26.05.11.1.22.14.33.04.12.09.22.16.3.07.09.18.13.32.13.28,0,.42-.15.42-.42,0-.31-.09-.57-.26-.79-.17-.22-.39-.38-.66-.5-.26-.11-.53-.17-.81-.17-.31,0-.59.06-.84.19-.25.13-.45.31-.59.54-.15.23-.22.52-.22.84,0,.28.05.52.15.71.1.19.23.35.39.48.16.12.34.23.53.33.19.09.38.18.57.26.19.08.36.17.51.27.15.1.27.22.36.36.09.14.14.31.14.52,0,.26-.08.49-.23.68-.15.19-.36.28-.63.28-.2,0-.36-.03-.47-.09s-.2-.14-.26-.24c-.06-.1-.11-.21-.14-.32-.03-.12-.06-.23-.09-.33-.03-.11-.08-.2-.14-.27-.07-.08-.17-.11-.3-.11-.29,0-.44.15-.44.45,0,.15.02.29.07.43.04.14.1.27.17.39.17.31.4.54.67.67.27.14.58.2.92.2.54,0,.97-.16,1.27-.48.31-.32.46-.75.46-1.28,0-.3-.05-.56-.15-.77-.1-.21-.23-.39-.4-.53Z"/>
  <path d="M5.6,19.49c-.03-.14-.06-.31-.11-.51-.04-.21-.1-.41-.16-.61-.06-.2-.14-.36-.23-.48-.09-.12-.2-.21-.33-.27-.08-.04-.15-.07-.23-.09.32-.1.59-.24.8-.44.25-.24.37-.58.37-1.02,0-.39-.08-.7-.23-.94-.15-.23-.37-.41-.64-.51-.27-.1-.59-.16-.94-.16h-.98c-.19,0-.36.07-.49.21s-.21.3-.21.49v4.91c0,.13.03.25.08.35.06.1.17.16.33.16s.27-.05.33-.16c.06-.1.08-.21.08-.35v-2.23h.5c.23,0,.42.05.57.14.14.09.25.22.33.37.08.16.14.33.18.52.04.19.07.39.09.58.02.2.05.38.08.54.03.17.09.31.16.41.08.11.19.17.34.17.13,0,.24-.03.32-.1.08-.07.12-.17.12-.31,0-.11-.02-.23-.05-.35l-.09-.33ZM4.24,16.98c-.19.06-.4.1-.63.1h-.56v-1.58c0-.09.02-.16.07-.21.05-.05.12-.07.2-.07h.51c.29,0,.53.07.73.19.19.13.28.34.28.65,0,.25-.05.45-.16.6-.11.15-.25.25-.44.31Z"/>
  <path d="M21.4,16.85h-1.63l-4.85-4.85,4.85-4.85h1.63c.36,0,.65-.29.65-.65s-.29-.65-.65-.65h-1.9c-.17,0-.34.07-.46.19l-5.04,5.04-5.04-5.04c-.12-.12-.29-.19-.46-.19h-1.9c-.36,0-.65.29-.65.65s.29.65.65.65h1.63l4.85,4.85-4.85,4.85h-1.63c-.36,0-.65.29-.65.65s.29.65.65.65h1.9c.17,0,.34-.07.46-.19l5.04-5.04,5.04,5.04c.12.12.29.19.46.19h1.9c.36,0,.65-.29.65-.65s-.29-.65-.65-.65Z"/>
</svg>