<?xml version="1.0" encoding="UTF-8"?>
<svg id="HF" xmlns="http://www.w3.org/2000/svg" viewBox="0 0 24 24">
  <path d="M21.4,16.95h-1.67l-4.95-4.95,4.95-4.95h1.67c.3,0,.55-.25.55-.55s-.25-.55-.55-.55h-1.9c-.15,0-.29.06-.39.16l-5.11,5.11-5.11-5.11c-.1-.1-.24-.16-.39-.16h-1.9c-.3,0-.55.25-.55.55s.25.55.55.55h1.67l4.95,4.95-4.95,4.95h-1.67c-.3,0-.55.25-.55.55s.25.55.55.55h1.9c.15,0,.29-.06.39-.16l5.11-5.11,5.11,5.11c.1.1.24.16.39.16h1.9c.3,0,.55-.25.55-.55s-.25-.55-.55-.55Z" style="fill: #999;"/>
</svg>