<?xml version="1.0" encoding="UTF-8"?>
<svg id="HL" xmlns="http://www.w3.org/2000/svg" viewBox="0 0 24 24">
  <path d="M4.05,9.76c-.34,0-.65-.07-.92-.2-.27-.14-.5-.36-.67-.67-.07-.12-.13-.25-.17-.39-.05-.14-.07-.28-.07-.43,0-.29.15-.45.44-.45.13,0,.24.04.3.11.06.07.11.16.14.27.03.1.06.22.09.33.03.11.08.22.14.32.06.1.14.18.26.24s.27.09.47.09c.27,0,.48-.09.63-.28.15-.19.23-.42.23-.68,0-.21-.05-.38-.14-.52-.09-.14-.22-.26-.36-.36-.15-.1-.32-.19-.51-.27-.18-.08-.38-.17-.57-.26-.19-.09-.37-.2-.53-.33-.16-.13-.29-.29-.39-.48-.1-.19-.15-.43-.15-.71,0-.33.07-.61.22-.84.14-.23.34-.42.59-.54.25-.13.53-.19.84-.19.28,0,.55.06.81.17.26.12.48.28.66.5.18.22.26.49.26.79,0,.28-.15.42-.42.42-.14,0-.25-.04-.32-.13-.06-.08-.12-.18-.16-.3-.04-.11-.08-.22-.14-.33-.05-.1-.13-.19-.24-.26-.11-.07-.26-.1-.46-.1-.26,0-.46.06-.6.19-.14.12-.21.32-.21.59,0,.17.05.31.13.43.09.12.22.22.37.31.16.09.33.18.52.26.19.08.38.17.57.27.19.1.37.22.53.36.16.14.3.32.4.53.1.21.15.47.15.77,0,.53-.16.96-.46,1.28-.31.32-.74.48-1.27.48Z" style="fill: #66f;"/>
  <path d="M5.68,19.81l-.09-.33c-.03-.14-.06-.31-.11-.51-.04-.21-.1-.41-.16-.61-.06-.2-.14-.36-.23-.48-.09-.12-.2-.21-.33-.27-.08-.04-.15-.07-.23-.09.32-.1.59-.24.8-.44.25-.24.37-.58.37-1.02,0-.39-.08-.7-.23-.94-.15-.23-.37-.41-.64-.51-.27-.1-.59-.16-.94-.16h-.98c-.19,0-.36.07-.49.21s-.21.3-.21.49v4.91c0,.13.03.25.08.35.06.1.17.16.33.16s.27-.05.33-.16c.06-.1.08-.21.08-.35v-2.23h.5c.23,0,.42.05.57.14.14.09.25.22.33.37.08.16.14.33.18.52.04.19.07.39.09.58.02.2.05.38.08.54.03.17.09.31.16.41.08.11.19.17.34.17.13,0,.24-.03.32-.1.08-.07.12-.17.12-.31,0-.11-.02-.23-.05-.35ZM4.24,16.98c-.19.06-.4.1-.63.1h-.56v-1.58c0-.09.02-.16.07-.21.05-.05.12-.07.2-.07h.51c.29,0,.53.07.73.19.19.13.28.34.28.65,0,.25-.05.45-.16.6-.11.15-.25.25-.44.31Z" style="fill: #66f;"/>
</svg>