<?xml version="1.0" encoding="UTF-8"?>
<svg id="FL" xmlns="http://www.w3.org/2000/svg" viewBox="0 0 24 24">
  <path d="M21.73,9.52c-.46-1.79-1.39-3.42-2.71-4.71-.21-.2-.53-.24-.78-.1l-.21.12c-.59.34-1.3.34-1.89,0-.59-.34-.95-.95-.95-1.64v-.24c0-.29-.19-.55-.47-.63-1.8-.51-3.63-.51-5.43,0-.28.08-.47.33-.47.63v.24c0,.68-.35,1.3-.95,1.64-.59.34-1.3.34-1.89,0l-.21-.12c-.25-.15-.57-.11-.78.1-1.32,1.29-2.26,2.92-2.71,4.71-.07.28.05.58.3.72l.21.12c.59.34.95.95.95,1.64s-.35,1.3-.95,1.64l-.21.12c-.25.15-.38.44-.3.72.46,1.79,1.39,3.42,2.71,4.71.21.2.53.24.78.1l.21-.12c.59-.34,1.3-.34,1.89,0s.95.95.95,1.64v.24c0,.29.19.55.47.63.9.25,1.81.38,2.72.38s1.81-.13,2.72-.38c.28-.08.47-.33.47-.63v-.24c0-.68.35-1.3.95-1.64s1.3-.34,1.89,0l.21.12c.25.15.57.11.78-.1.65-.64,1.21-1.36,1.67-2.15.18-.31.07-.71-.24-.89-.31-.18-.71-.07-.89.24-.32.55-.69,1.06-1.12,1.53-.95-.45-2.03-.41-2.96.12-.92.53-1.5,1.45-1.58,2.5-1.27.29-2.53.29-3.8,0-.08-1.04-.66-1.96-1.58-2.5-.92-.53-2.01-.57-2.96-.12-.87-.94-1.51-2.07-1.9-3.3.86-.6,1.37-1.56,1.37-2.62s-.51-2.02-1.37-2.62c.38-1.23,1.03-2.35,1.9-3.29.95.45,2.03.41,2.96-.12.92-.53,1.5-1.45,1.58-2.5,1.27-.29,2.53-.29,3.8,0,.08,1.04.66,1.97,1.58,2.5.92.53,2.01.57,2.96.12.87.94,1.51,2.07,1.9,3.29-.86.6-1.37,1.56-1.37,2.62,0,.36.29.65.65.65s.65-.29.65-.65c0-.68.35-1.3.95-1.64l.21-.12c.25-.15.38-.44.3-.72Z" style="fill: #000; stroke-width: 0px;"/>
  <path d="M12,9.85c-1.19,0-2.15.96-2.15,2.15s.96,2.15,2.15,2.15,2.15-.96,2.15-2.15-.96-2.15-2.15-2.15ZM12,12.85c-.47,0-.85-.38-.85-.85s.38-.85.85-.85.85.38.85.85-.38.85-.85.85Z" style="fill: #000; stroke-width: 0px;"/>
</svg>