<?xml version="1.0" encoding="UTF-8"?>
<svg id="FF" xmlns="http://www.w3.org/2000/svg" viewBox="0 0 24 24">
  <path d="M2.66,7.72c-.23,0-.34.11-.34.35,0,.14.02.27.06.39.04.13.1.25.16.37.16.29.37.5.63.63.26.13.55.19.88.19.51,0,.91-.15,1.2-.45.29-.3.44-.71.44-1.21,0-.29-.05-.53-.14-.73s-.22-.36-.37-.5c-.16-.13-.33-.25-.51-.34-.19-.09-.38-.18-.57-.26-.19-.08-.37-.17-.53-.26-.16-.09-.3-.21-.4-.33-.1-.13-.15-.29-.15-.49,0-.29.08-.52.24-.66.16-.14.38-.22.67-.22h0c.22,0,.4.04.52.12.12.08.21.18.27.3s.1.22.14.34c.04.11.08.2.14.27.05.06.13.09.24.09.22,0,.33-.1.33-.33,0-.28-.08-.53-.24-.73-.16-.2-.37-.36-.62-.47-.25-.11-.51-.16-.77-.16-.29,0-.56.06-.79.18-.23.12-.42.29-.55.51s-.2.48-.2.79c0,.26.05.48.14.66.09.18.22.33.37.44.15.12.33.23.51.31.19.09.38.18.56.26.19.08.37.18.52.28.16.1.29.23.39.39.1.15.15.35.15.57,0,.28-.08.53-.25.74-.17.21-.41.32-.71.32-.22,0-.39-.03-.52-.1-.13-.07-.23-.16-.3-.27-.06-.11-.11-.22-.15-.35-.03-.12-.06-.23-.09-.33-.03-.1-.07-.18-.12-.24-.05-.05-.12-.08-.23-.08Z"/>
  <path d="M5.58,19.84l-.09-.33c-.03-.14-.06-.31-.11-.51-.04-.2-.1-.41-.16-.6-.06-.19-.13-.34-.22-.44-.08-.1-.18-.18-.3-.24-.13-.06-.26-.11-.39-.14v-.1c.39-.09.7-.24.93-.46.23-.22.34-.54.34-.95,0-.37-.07-.67-.21-.88-.14-.22-.34-.38-.59-.47-.26-.1-.56-.15-.91-.15h-.98c-.17,0-.3.06-.42.18-.12.12-.18.26-.18.42v4.91c0,.12.02.21.07.29.04.07.12.11.25.11s.2-.04.25-.11c.05-.08.07-.18.07-.29v-2.33h.6c.25,0,.46.05.62.16.16.1.28.24.36.41.08.17.14.35.18.55.04.2.07.39.09.59.02.19.05.37.08.53.03.15.08.28.14.37.06.09.14.13.26.13.11,0,.19-.03.25-.07.06-.05.09-.12.09-.23,0-.1-.02-.21-.05-.32ZM3.61,17.17h-.66v-1.67c0-.12.04-.21.1-.28.07-.07.16-.1.27-.1h.51c.31,0,.57.07.78.21.21.15.32.39.32.74,0,.27-.06.49-.18.65-.12.16-.28.28-.49.35-.2.07-.42.1-.66.1Z"/>
</svg>