<?xml version="1.0" encoding="UTF-8"?>
<svg id="FL" xmlns="http://www.w3.org/2000/svg" viewBox="0 0 24 24">
  <path d="M12,18.96c-4.4,0-8.33-2.63-10-6.71-.06-.16-.06-.34,0-.49,1.67-4.08,5.6-6.71,10-6.71s8.33,2.63,10,6.71c.06.16.06.34,0,.49-.64,1.55-1.65,2.96-2.94,4.07-.27.23-.68.2-.92-.07-.23-.27-.21-.68.07-.92,1.07-.92,1.92-2.07,2.48-3.34-1.53-3.44-4.91-5.66-8.69-5.66s-7.17,2.21-8.69,5.66c1.53,3.45,4.91,5.66,8.69,5.66,1.05,0,2.1-.18,3.1-.53.34-.12.71.06.83.4s-.06.71-.4.83c-1.15.4-2.33.6-3.53.6Z" style="fill: #000; stroke-width: 0px;"/>
</svg>