<?xml version="1.0" encoding="UTF-8"?>
<svg id="TL" xmlns="http://www.w3.org/2000/svg" viewBox="0 0 24 24">
  <path d="M9.1,21.05h-4c-1.19,0-2.15-.96-2.15-2.15V5.1c0-1.19.96-2.15,2.15-2.15h4c.36,0,.65.29.65.65v16.8c0,.36-.29.65-.65.65ZM5.1,4.25c-.47,0-.85.38-.85.85v13.8c0,.47.38.85.85.85h3.35V4.25h-3.35Z" style="fill: #000; stroke-width: 0px;"/>
  <path d="M18.9,21.05h-6.8c-.36,0-.65-.29-.65-.65s.29-.65.65-.65h6.8c.47,0,.85-.38.85-.85V5.1c0-.47-.38-.85-.85-.85h-6.8c-.36,0-.65-.29-.65-.65s.29-.65.65-.65h6.8c1.19,0,2.15.96,2.15,2.15v13.8c0,1.19-.96,2.15-2.15,2.15Z" style="fill: #000; stroke-width: 0px;"/>
</svg>