<?xml version="1.0" encoding="UTF-8"?>
<svg id="FF" xmlns="http://www.w3.org/2000/svg" viewBox="0 0 24 24">
  <path d="M18.9,9.45H5.1c-1.13,0-2.05.92-2.05,2.05v1c0,1.13.92,2.05,2.05,2.05h13.8c1.13,0,2.05-.92,2.05-2.05v-1c0-1.13-.92-2.05-2.05-2.05ZM6,12.8c-.44,0-.8-.36-.8-.8s.36-.8.8-.8.8.36.8.8-.36.8-.8.8ZM9,12.8c-.44,0-.8-.36-.8-.8s.36-.8.8-.8.8.36.8.8-.36.8-.8.8Z" style="fill: #000; stroke-width: 0px;"/>
  <path d="M18.9,15.85H5.1c-1.13,0-2.05.92-2.05,2.05v1c0,1.13.92,2.05,2.05,2.05h13.8c1.13,0,2.05-.92,2.05-2.05v-1c0-1.13-.92-2.05-2.05-2.05ZM6,19.2c-.44,0-.8-.36-.8-.8s.36-.8.8-.8.8.36.8.8-.36.8-.8.8ZM9,19.2c-.44,0-.8-.36-.8-.8s.36-.8.8-.8.8.36.8.8-.36.8-.8.8Z" style="fill: #000; stroke-width: 0px;"/>
</svg>