<?xml version="1.0" encoding="UTF-8"?>
<svg id="HL" xmlns="http://www.w3.org/2000/svg" viewBox="0 0 24 24">
  <path d="M6,4.7c-.5,0-.9.4-.9.9s.4.9.9.9.9-.4.9-.9-.4-.9-.9-.9Z" style="fill: #66f; stroke-width: 0px;"/>
  <path d="M9,4.7c-.5,0-.9.4-.9.9s.4.9.9.9.9-.4.9-.9-.4-.9-.9-.9Z" style="fill: #66f; stroke-width: 0px;"/>
  <path d="M6,11.1c-.5,0-.9.4-.9.9s.4.9.9.9.9-.4.9-.9-.4-.9-.9-.9Z" style="fill: #66f; stroke-width: 0px;"/>
  <path d="M9,11.1c-.5,0-.9.4-.9.9s.4.9.9.9.9-.4.9-.9-.4-.9-.9-.9Z" style="fill: #66f; stroke-width: 0px;"/>
  <path d="M5.1,18.4c0,.5.4.9.9.9s.9-.4.9-.9-.4-.9-.9-.9-.9.4-.9.9Z" style="fill: #66f; stroke-width: 0px;"/>
  <path d="M8.1,18.4c0,.5.4.9.9.9s.9-.4.9-.9-.4-.9-.9-.9-.9.4-.9.9Z" style="fill: #66f; stroke-width: 0px;"/>
</svg>