<?xml version="1.0" encoding="UTF-8"?>
<svg id="FL" xmlns="http://www.w3.org/2000/svg" viewBox="0 0 24 24">
  <path d="M6.7,20.75h-1.6c-.47,0-.85-.38-.85-.85V7.51c0-.3.16-.58.42-.74l5.28-3.05v5.27c0,.36.29.65.65.65s.65-.29.65-.65V2.6c0-.23-.12-.45-.32-.56-.2-.12-.45-.12-.65,0l-6.25,3.61c-.66.38-1.07,1.1-1.07,1.86v12.39c0,1.19.96,2.15,2.15,2.15h1.6c.36,0,.65-.29.65-.65s-.29-.65-.65-.65Z" style="fill: #000; stroke-width: 0px;"/>
  <path d="M14.72,8.84l-5.35,3.09c-.2.12-.32.33-.32.56v7.41c0,1.19.96,2.15,2.15,2.15h3.85c.36,0,.65-.29.65-.65v-12c0-.23-.12-.45-.32-.56-.2-.12-.45-.12-.65,0ZM14.4,20.75h-3.2c-.47,0-.85-.38-.85-.85v-7.04l4.05-2.34v10.22Z" style="fill: #000; stroke-width: 0px;"/>
</svg>