<?xml version="1.0" encoding="UTF-8"?>
<svg id="TL" xmlns="http://www.w3.org/2000/svg" viewBox="0 0 24 24">
  <path d="M6,4.7c-.5,0-.9.4-.9.9s.4.9.9.9.9-.4.9-.9-.4-.9-.9-.9Z" style="fill: #000; stroke-width: 0px;"/>
  <path d="M9,4.7c-.5,0-.9.4-.9.9s.4.9.9.9.9-.4.9-.9-.4-.9-.9-.9Z" style="fill: #000; stroke-width: 0px;"/>
  <path d="M6,11.1c-.5,0-.9.4-.9.9s.4.9.9.9.9-.4.9-.9-.4-.9-.9-.9Z" style="fill: #000; stroke-width: 0px;"/>
  <path d="M9,11.1c-.5,0-.9.4-.9.9s.4.9.9.9.9-.4.9-.9-.4-.9-.9-.9Z" style="fill: #000; stroke-width: 0px;"/>
  <path d="M5.1,18.4c0,.5.4.9.9.9s.9-.4.9-.9-.4-.9-.9-.9-.9.4-.9.9Z" style="fill: #000; stroke-width: 0px;"/>
  <path d="M8.1,18.4c0,.5.4.9.9.9s.9-.4.9-.9-.4-.9-.9-.9-.9.4-.9.9Z" style="fill: #000; stroke-width: 0px;"/>
  <g>
    <path d="M18.9,15.75H5.1c-1.19,0-2.15.96-2.15,2.15v1c0,1.19.96,2.15,2.15,2.15h12.8c.36,0,.65-.29.65-.65s-.29-.65-.65-.65H5.1c-.47,0-.85-.38-.85-.85v-1c0-.47.38-.85.85-.85h13.8c.47,0,.85.38.85.85,0,.36.29.65.65.65s.65-.29.65-.65c0-1.19-.96-2.15-2.15-2.15Z" style="fill: #000; stroke-width: 0px;"/>
    <path d="M18.9,9.35H5.1c-1.19,0-2.15.96-2.15,2.15v1c0,1.19.96,2.15,2.15,2.15h13.8c1.19,0,2.15-.96,2.15-2.15v-1c0-1.19-.96-2.15-2.15-2.15ZM19.75,12.5c0,.47-.38.85-.85.85H5.1c-.47,0-.85-.38-.85-.85v-1c0-.47.38-.85.85-.85h13.8c.47,0,.85.38.85.85v1Z" style="fill: #000; stroke-width: 0px;"/>
    <path d="M18.9,2.95H5.1c-1.19,0-2.15.96-2.15,2.15v1c0,1.19.96,2.15,2.15,2.15h13.8c1.19,0,2.15-.96,2.15-2.15v-1c0-1.19-.96-2.15-2.15-2.15ZM19.75,6.1c0,.47-.38.85-.85.85H5.1c-.47,0-.85-.38-.85-.85v-1c0-.47.38-.85.85-.85h13.8c.47,0,.85.38.85.85v1Z" style="fill: #000; stroke-width: 0px;"/>
  </g>
</svg>