<?xml version="1.0" encoding="UTF-8"?>
<svg id="HF" xmlns="http://www.w3.org/2000/svg" viewBox="0 0 24 24">
  <path d="M21.72,13.85c-.08-.29-.38-.47-.67-.39l-3.71.99-4.79-2.77v-5.53l2.71-2.71c.21-.21.21-.56,0-.78-.21-.21-.56-.21-.78,0l-1.94,1.94v-1.99c0-.3-.25-.55-.55-.55s-.55.25-.55.55v1.99l-1.94-1.94c-.21-.21-.56-.21-.78,0-.21.21-.21.56,0,.78l2.71,2.71v5.53l-4.79,2.77-3.71-.99c-.29-.08-.6.1-.67.39-.08.29.1.59.39.67l2.64.71-1.73,1c-.26.15-.35.49-.2.75.1.18.29.28.48.28.09,0,.19-.02.27-.07l1.73-1-.71,2.64c-.08.29.1.6.39.67.05.01.1.02.14.02.24,0,.47-.16.53-.41l.99-3.71,4.79-2.77,4.79,2.77.99,3.71c.07.25.29.41.53.41.05,0,.09,0,.14-.02.29-.08.47-.38.39-.67l-.71-2.64,1.73,1c.09.05.18.07.27.07.19,0,.38-.1.48-.28.15-.26.06-.6-.2-.75l-1.73-1,2.64-.71c.29-.08.47-.38.39-.67Z" style="fill: #606060; stroke-width: 0px;"/>
</svg>