<?xml version="1.0" encoding="UTF-8"?>
<svg id="TL" xmlns="http://www.w3.org/2000/svg" viewBox="0 0 24 24">
  <path d="M10.6,19.75h-5.5l5.98-6.41c.18-.19.22-.46.12-.7-.1-.24-.34-.39-.6-.39H3.6c-.36,0-.65.29-.65.65s.29.65.65.65h5.5l-5.98,6.41c-.18.19-.22.46-.12.7.1.24.34.39.6.39h7c.36,0,.65-.29.65-.65s-.29-.65-.65-.65Z" style="fill: #000; stroke-width: 0px;"/>
  <path d="M3.33,11.69c.33.15.71.01.86-.31l.76-1.62h4.31l.76,1.62c.11.24.34.38.59.38.09,0,.19-.02.27-.06.33-.15.47-.54.31-.86l-3.5-7.5c-.21-.46-.96-.46-1.18,0l-3.5,7.5c-.15.33-.01.71.31.86ZM7.1,5.14l1.55,3.31h-3.09l1.55-3.31Z" style="fill: #000; stroke-width: 0px;"/>
  <path d="M16.65,3.05c-.24-.1-.52-.05-.71.14l-4,4c-.25.25-.25.67,0,.92s.67.25.92,0l2.89-2.89v15.18c0,.36.29.65.65.65s.65-.29.65-.65V3.65c0-.26-.16-.5-.4-.6Z" style="fill: #000; stroke-width: 0px;"/>
  <path d="M20.86,7.19l-1.5-1.5c-.25-.25-.67-.25-.92,0s-.25.67,0,.92l1.5,1.5c.13.13.29.19.46.19s.33-.06.46-.19c.25-.25.25-.67,0-.92Z" style="fill: #000; stroke-width: 0px;"/>
</svg>