<?xml version="1.0" encoding="UTF-8"?>
<svg id="FF" xmlns="http://www.w3.org/2000/svg" viewBox="0 0 24 24">
  <path d="M10.6,19.85h-5.73l6.14-6.57c.15-.16.19-.39.1-.59s-.29-.33-.5-.33H3.6c-.3,0-.55.25-.55.55s.25.55.55.55h5.73l-6.14,6.57c-.15.16-.19.39-.1.59s.29.33.5.33h7c.3,0,.55-.25.55-.55s-.25-.55-.55-.55Z" style="fill: #000; stroke-width: 0px;"/>
  <path d="M3.37,11.6c.28.13.6,0,.73-.27l.79-1.68h4.43l.79,1.68c.09.2.29.32.5.32.08,0,.16-.02.23-.05.28-.13.39-.46.27-.73l-3.5-7.5c-.18-.39-.82-.39-1,0l-3.5,7.5c-.13.27,0,.6.27.73ZM7.1,4.9l1.7,3.65h-3.41l1.7-3.65Z" style="fill: #000; stroke-width: 0px;"/>
</svg>