<?xml version="1.0" encoding="UTF-8"?>
<svg id="TF" xmlns="http://www.w3.org/2000/svg" viewBox="0 0 24 24">
  <path d="M17.4,3.1c-.3,0-.55.25-.55.55v15.42l-2.06-2.06c-.21-.21-.56-.21-.78,0-.21.21-.21.56,0,.78l3,3c.1.11.25.16.39.16.07,0,.14-.01.21-.04.21-.09.34-.29.34-.51V3.65c0-.3-.25-.55-.55-.55Z"/>
  <path d="M10.6,17.45H3.6c-.3,0-.55.25-.55.55s.25.55.55.55h7c.3,0,.55-.25.55-.55s-.25-.55-.55-.55Z"/>
  <path d="M3.6,6.55h11c.3,0,.55-.25.55-.55s-.25-.55-.55-.55H3.6c-.3,0-.55.25-.55.55s.25.55.55.55Z"/>
  <path d="M12.6,11.45H3.6c-.3,0-.55.25-.55.55s.25.55.55.55h9c.3,0,.55-.25.55-.55s-.25-.55-.55-.55Z"/>
  <path d="M20.79,17.01c-.21-.21-.56-.21-.78,0l-1,1c-.21.21-.21.56,0,.78.11.11.25.16.39.16s.28-.05.39-.16l1-1c.21-.21.21-.56,0-.78Z"/>
</svg>