<?xml version="1.0" encoding="UTF-8"?>
<svg id="TF" xmlns="http://www.w3.org/2000/svg" viewBox="0 0 24 24">
  <path d="M10.6,19.85h-5.73l6.14-6.57c.15-.16.19-.39.1-.59s-.29-.33-.5-.33H3.6c-.3,0-.55.25-.55.55s.25.55.55.55h5.73l-6.14,6.57c-.15.16-.19.39-.1.59s.29.33.5.33h7c.3,0,.55-.25.55-.55s-.25-.55-.55-.55Z" style="fill: #404040; stroke-width: 0px;"/>
  <path d="M7.6,3.37c-.18-.39-.82-.39-1,0l-3.5,7.5c-.13.27,0,.6.27.73.28.13.6,0,.73-.27l.79-1.68h4.43l.79,1.68c.09.2.29.32.5.32.08,0,.16-.02.23-.05.28-.13.39-.46.27-.73l-3.5-7.5ZM5.4,8.55l1.7-3.65,1.7,3.65h-3.41Z" style="fill: #404040; stroke-width: 0px;"/>
  <path d="M16.4,3.1c-.3,0-.55.25-.55.55v15.42l-3.06-3.06c-.21-.21-.56-.21-.78,0-.21.21-.21.56,0,.78l4,4c.1.11.25.16.39.16.07,0,.14-.01.21-.04.21-.09.34-.29.34-.51V3.65c0-.3-.25-.55-.55-.55Z" style="fill: #404040; stroke-width: 0px;"/>
  <path d="M20.79,16.01c-.21-.21-.56-.21-.78,0l-1.5,1.5c-.21.21-.21.56,0,.78.11.11.25.16.39.16s.28-.05.39-.16l1.5-1.5c.21-.21.21-.56,0-.78Z" style="fill: #404040; stroke-width: 0px;"/>
</svg>