<?xml version="1.0" encoding="UTF-8"?>
<svg id="HF" xmlns="http://www.w3.org/2000/svg" viewBox="0 0 24 24">
  <path d="M16.4,3.1c-.3,0-.55.25-.55.55v15.42l-3.06-3.06c-.21-.21-.56-.21-.78,0-.21.21-.21.56,0,.78l4,4c.1.11.25.16.39.16.07,0,.14-.01.21-.04.21-.09.34-.29.34-.51V3.65c0-.3-.25-.55-.55-.55Z" style="fill: #606060; stroke-width: 0px;"/>
  <path d="M20.79,16.01c-.21-.21-.56-.21-.78,0l-1.5,1.5c-.21.21-.21.56,0,.78.11.11.25.16.39.16s.28-.05.39-.16l1.5-1.5c.21-.21.21-.56,0-.78Z" style="fill: #606060; stroke-width: 0px;"/>
</svg>