<?xml version="1.0" encoding="UTF-8"?>
<svg id="HF" xmlns="http://www.w3.org/2000/svg" viewBox="0 0 24 24">
  <path d="M16.61,3.14c-.21-.08-.44-.04-.6.12l-4,4c-.21.21-.21.56,0,.78.21.21.56.21.78,0l3.06-3.06v15.42c0,.3.25.55.55.55s.55-.25.55-.55V3.65c0-.22-.13-.42-.34-.51Z" style="fill: #606060; stroke-width: 0px;"/>
  <path d="M20.79,7.26l-1.5-1.5c-.21-.21-.56-.21-.78,0-.21.21-.21.56,0,.78l1.5,1.5c.11.11.25.16.39.16s.28-.05.39-.16c.21-.21.21-.56,0-.78Z" style="fill: #606060; stroke-width: 0px;"/>
</svg>