<?xml version="1.0" encoding="UTF-8"?>
<svg id="HL" xmlns="http://www.w3.org/2000/svg" viewBox="0 0 24 24">
  <path d="M16.4,3c-.36,0-.65.29-.65.65v15.18l-2.89-2.89c-.25-.25-.67-.25-.92,0s-.25.67,0,.92l4,4c.12.12.29.19.46.19.08,0,.17-.02.25-.05.24-.1.4-.34.4-.6V3.65c0-.36-.29-.65-.65-.65Z" style="fill: #66f; stroke-width: 0px;"/>
  <path d="M20.86,15.94c-.25-.25-.67-.25-.92,0l-1.5,1.5c-.25.25-.25.67,0,.92.13.13.29.19.46.19s.33-.06.46-.19l1.5-1.5c.25-.25.25-.67,0-.92Z" style="fill: #66f; stroke-width: 0px;"/>
</svg>