<?xml version="1.0" encoding="UTF-8"?>
<svg id="FF" xmlns="http://www.w3.org/2000/svg" viewBox="0 0 24 24">
  <path d="M20.62,16.34l-7.59-4.38c-.63-.37-1.42-.37-2.05,0l-7.59,4.38c-.17.1-.27.28-.27.48s.1.38.27.48l7.59,4.38c.32.18.67.27,1.02.27s.71-.09,1.03-.27l7.59-4.38c.17-.1.27-.28.27-.48s-.1-.38-.27-.48Z" style="fill: #000; stroke-width: 0px;"/>
  <path d="M3.66,13.9c.09,0,.19-.02.28-.07l6.09-3.52c.6-.35,1.29-.51,1.97-.51V2.07c-.35,0-.71.08-1.03.26l-6.84,3.95c-.63.37-1.02,1.05-1.02,1.77v5.3c0,.2.1.38.27.48.09.05.18.07.28.07Z" style="fill: #000; stroke-width: 0px;"/>
</svg>