<?xml version="1.0" encoding="UTF-8"?>
<svg id="TF" xmlns="http://www.w3.org/2000/svg" viewBox="0 0 24 24">
  <path d="M12,21.95c-.35,0-.71-.09-1.02-.27l-7.59-4.38c-.17-.1-.27-.28-.27-.48s.1-.38.27-.48l7.59-4.38c.63-.37,1.42-.37,2.05,0l7.59,4.38c.17.1.27.28.27.48s-.1.38-.27.48l-7.59,4.38c-.32.18-.67.27-1.03.27Z" style="fill: #404040; stroke-width: 0px;"/>
  <path d="M3.66,13.9c-.09,0-.19-.02-.28-.07-.17-.1-.27-.28-.27-.48v-5.3c0-.73.39-1.41,1.02-1.77l6.84-3.95c.63-.37,1.42-.36,2.05,0l6.84,3.95c.63.37,1.02,1.05,1.02,1.77v5.3c0,.2-.1.38-.27.48-.17.1-.38.1-.55,0l-6.09-3.52c-1.2-.69-2.75-.69-3.95,0h0l-6.09,3.52c-.09.05-.18.07-.28.07Z" style="fill: #404040; stroke-width: 0px;"/>
</svg>