<?xml version="1.0" encoding="UTF-8"?>
<svg id="TL" xmlns="http://www.w3.org/2000/svg" viewBox="0 0 24 24">
  <path d="M9.25,18.9V5.1c0-1.19-.96-2.15-2.15-2.15h-3.5c-.36,0-.65.29-.65.65s.29.65.65.65h3.5c.47,0,.85.38.85.85v13.8c0,.47-.38.85-.85.85h-3.5c-.36,0-.65.29-.65.65s.29.65.65.65h3.5c1.19,0,2.15-.96,2.15-2.15Z" style="fill: #fff;"/>
  <path d="M21.05,20.4c0-.36-.29-.65-.65-.65h-3.5c-.47,0-.85-.38-.85-.85V5.1c0-.47.38-.85.85-.85h3.5c.36,0,.65-.29.65-.65s-.29-.65-.65-.65h-3.5c-1.19,0-2.15.96-2.15,2.15v13.8c0,1.19.96,2.15,2.15,2.15h3.5c.36,0,.65-.29.65-.65Z" style="fill: #fff;"/>
  <path d="M12.65,20.4V3.6c0-.36-.29-.65-.65-.65s-.65.29-.65.65v16.8c0,.36.29.65.65.65s.65-.29.65-.65Z" style="fill: #fff;"/>
</svg>