<?xml version="1.0" encoding="UTF-8"?>
<svg id="FL" xmlns="http://www.w3.org/2000/svg" viewBox="0 0 24 24">
  <path d="M18.9,14.75H5.1c-1.19,0-2.15.96-2.15,2.15v3.5c0,.36.29.65.65.65s.65-.29.65-.65v-3.5c0-.47.38-.85.85-.85h13.8c.47,0,.85.38.85.85v3.5c0,.36.29.65.65.65s.65-.29.65-.65v-3.5c0-1.19-.96-2.15-2.15-2.15Z"/>
  <path d="M20.4,2.95c-.36,0-.65.29-.65.65v3.5c0,.47-.38.85-.85.85H5.1c-.47,0-.85-.38-.85-.85v-3.5c0-.36-.29-.65-.65-.65s-.65.29-.65.65v3.5c0,1.19.96,2.15,2.15,2.15h13.8c1.19,0,2.15-.96,2.15-2.15v-3.5c0-.36-.29-.65-.65-.65Z"/>
</svg>