<?xml version="1.0" encoding="UTF-8"?>
<svg id="TF" xmlns="http://www.w3.org/2000/svg" viewBox="0 0 24 24">
  <path d="M4.56,12.89c.16,0,.31,0,.44.03.19.03.32.15.37.37l1.67,6.26c.06.18.14.34.26.48.11.14.27.2.48.2.22,0,.38-.07.5-.2.12-.14.21-.31.28-.49l4.97-14.31c.11-.31.29-.56.54-.74.25-.18.55-.27.89-.27h5.98v-1.17h-6.47c-.93,0-1.54.43-1.85,1.3l-4.5,12.9-.04-.16-1.21-4.55c-.09-.37-.27-.6-.54-.7-.28-.1-.59-.15-.93-.13-.35.02-.67.03-.98.03-.2,0-.36.04-.48.13-.11.08-.17.24-.17.45,0,.26.06.42.18.48.12.06.27.09.44.09.01,0,.03,0,.04,0,.04,0,.08,0,.12,0Z" style="fill: #333;"/>
</svg>