<?xml version="1.0" encoding="UTF-8"?>
<svg id="TL" xmlns="http://www.w3.org/2000/svg" viewBox="0 0 24 24">
  <path d="M7.78,20.33c-.24,0-.42-.08-.56-.24-.13-.15-.22-.33-.28-.52l-1.67-6.26c-.04-.18-.14-.28-.28-.3-.17-.02-.35-.03-.54-.03-.21,0-.39-.03-.53-.1-.16-.08-.24-.27-.24-.57,0-.25.07-.43.21-.53.14-.1.32-.15.54-.15.3,0,.63,0,.97-.03.35-.02.68.03.97.13.3.11.5.37.6.77l1.17,4.39,4.39-12.59c.32-.91.98-1.37,1.95-1.37h6.57v1.37h-6.08c-.32,0-.6.09-.83.25-.24.17-.41.4-.51.7l-4.97,14.31c-.07.19-.17.37-.3.52-.13.16-.33.24-.57.24Z"/>
</svg>