<?xml version="1.0" encoding="UTF-8"?>
<svg id="TL" xmlns="http://www.w3.org/2000/svg" viewBox="0 0 24 24">
  <path d="M21.4,12.65h-9.4c-.36,0-.65-.29-.65-.65V2.6c0-.36.29-.65.65-.65,5.54,0,10.05,4.51,10.05,10.05,0,.36-.29.65-.65.65ZM12.65,11.35h8.08c-.32-4.31-3.77-7.76-8.08-8.08v8.08Z"/>
  <path d="M11.6,22.05c-5.32,0-9.65-4.33-9.65-9.65,0-4.04,2.55-7.68,6.35-9.06.34-.12.71.05.83.39.12.34-.05.71-.39.83-3.29,1.2-5.5,4.35-5.5,7.84,0,4.6,3.75,8.35,8.35,8.35,3.49,0,6.64-2.21,7.84-5.5.12-.34.5-.51.83-.39.34.12.51.5.39.83-1.38,3.8-5.02,6.35-9.06,6.35Z"/>
</svg>