<?xml version="1.0" encoding="UTF-8"?>
<svg id="TL" xmlns="http://www.w3.org/2000/svg" viewBox="0 0 24 24">
  <path d="M19.9,4.35H4.1c-1.19,0-2.15.96-2.15,2.15v1.5c0,.36.29.65.65.65s.65-.29.65-.65v-1.5c0-.47.38-.85.85-.85h15.8c.47,0,.85.38.85.85v1.5c0,.36.29.65.65.65s.65-.29.65-.65v-1.5c0-1.19-.96-2.15-2.15-2.15Z" style="fill: #000; stroke-width: 0px;"/>
  <path d="M21.4,9.35H2.6c-.36,0-.65.29-.65.65v7.5c0,1.19.96,2.15,2.15,2.15h15.8c1.19,0,2.15-.96,2.15-2.15v-7.5c0-.36-.29-.65-.65-.65ZM3.25,13.5h3.1v2h-3.1v-2ZM7.65,13.5h3.7v2h-3.7v-2ZM11.35,12.2h-3.7v-1.55h3.7v1.55ZM12.65,10.65h3.7v1.55h-3.7v-1.55ZM11.35,16.8v1.55h-3.7v-1.55h3.7ZM12.65,16.8h3.7v1.55h-3.7v-1.55ZM12.65,15.5v-2h3.7v2h-3.7ZM17.65,13.5h3.1v2h-3.1v-2ZM20.75,12.2h-3.1v-1.55h3.1v1.55ZM6.35,10.65v1.55h-3.1v-1.55h3.1ZM3.25,17.5v-.7h3.1v1.55h-2.25c-.47,0-.85-.38-.85-.85ZM19.9,18.35h-2.25v-1.55h3.1v.7c0,.47-.38.85-.85.85Z" style="fill: #000; stroke-width: 0px;"/>
</svg>