<?xml version="1.0" encoding="UTF-8"?>
<svg id="TL" xmlns="http://www.w3.org/2000/svg" viewBox="0 0 24 24">
  <path d="M16.95,11.15c2.26,0,4.1-1.84,4.1-4.1s-1.84-4.1-4.1-4.1-4.1,1.84-4.1,4.1,1.84,4.1,4.1,4.1ZM16.95,4.25c1.54,0,2.8,1.26,2.8,2.8s-1.26,2.8-2.8,2.8-2.8-1.26-2.8-2.8,1.26-2.8,2.8-2.8Z" style="fill: #000; stroke-width: 0px;"/>
  <g>
    <path d="M9,2.95h-3.9c-1.19,0-2.15.96-2.15,2.15v3.9c0,1.19.96,2.15,2.15,2.15h3.9c1.19,0,2.15-.96,2.15-2.15v-3.9c0-1.19-.96-2.15-2.15-2.15ZM9.85,9c0,.47-.38.85-.85.85h-3.9c-.47,0-.85-.38-.85-.85v-3.9c0-.47.38-.85.85-.85h3.9c.47,0,.85.38.85.85v3.9Z" style="fill: #000; stroke-width: 0px;"/>
    <path d="M9,12.85h-3.9c-1.19,0-2.15.96-2.15,2.15v3.9c0,1.19.96,2.15,2.15,2.15h3.9c1.19,0,2.15-.96,2.15-2.15v-3.9c0-1.19-.96-2.15-2.15-2.15ZM9.85,18.9c0,.47-.38.85-.85.85h-3.9c-.47,0-.85-.38-.85-.85v-3.9c0-.47.38-.85.85-.85h3.9c.47,0,.85.38.85.85v3.9Z" style="fill: #000; stroke-width: 0px;"/>
    <path d="M18.9,12.85h-3.9c-1.19,0-2.15.96-2.15,2.15v3.9c0,1.19.96,2.15,2.15,2.15h2.9c.36,0,.65-.29.65-.65s-.29-.65-.65-.65h-2.9c-.47,0-.85-.38-.85-.85v-3.9c0-.47.38-.85.85-.85h3.9c.47,0,.85.38.85.85v2.9c0,.36.29.65.65.65s.65-.29.65-.65v-2.9c0-1.19-.96-2.15-2.15-2.15Z" style="fill: #000; stroke-width: 0px;"/>
  </g>
</svg>