<?xml version="1.0" encoding="UTF-8"?>
<svg id="TL" xmlns="http://www.w3.org/2000/svg" viewBox="0 0 24 24">
  <path d="M20.42,11.72l-7.14-7.14c-.25-.25-.67-.25-.92,0s-.25.67,0,.92l7.14,7.14c.33.33.33.87,0,1.2l-5.66,5.66c-.32.32-.88.32-1.2,0L4.5,11.36c-.16-.16-.25-.38-.25-.6v-5.66c0-.47.38-.85.85-.85h4.66c.36,0,.65-.29.65-.65s-.29-.65-.65-.65h-4.66c-1.19,0-2.15.96-2.15,2.15v5.66c0,.57.22,1.11.63,1.52l8.14,8.14c.41.41.95.63,1.52.63s1.11-.22,1.52-.63l5.66-5.66c.84-.84.84-2.2,0-3.04Z"/>
  <path d="M5.34,7.49c0,1.19.96,2.15,2.15,2.15s2.15-.96,2.15-2.15-.96-2.15-2.15-2.15-2.15.96-2.15,2.15ZM8.34,7.49c0,.47-.38.85-.85.85s-.85-.38-.85-.85.38-.85.85-.85.85.38.85.85Z"/>
</svg>