<?xml version="1.0" encoding="UTF-8"?>
<svg id="FL" xmlns="http://www.w3.org/2000/svg" viewBox="0 0 24 24">
  <path d="M6.6,11.2c.19,0,.36-.04.5-.12.15-.09.23-.25.23-.47s-.08-.39-.23-.47c-.14-.08-.31-.12-.5-.12h-1.14v-1.8c0-.22-.05-.41-.14-.56-.1-.16-.27-.24-.53-.24s-.43.08-.53.23c-.1.15-.14.34-.14.57v1.8h-.95c-.19,0-.36.04-.5.12-.15.09-.23.25-.23.47s.08.39.23.47c.14.08.31.12.5.12h.95v4.15c0,.45.04.81.12,1.08.09.28.26.48.51.6.25.12.62.18,1.1.18h.74c.19,0,.35-.05.47-.14.13-.1.19-.25.19-.47,0-.29-.09-.46-.28-.52-.17-.05-.36-.08-.58-.08-.24,0-.44-.01-.58-.04-.13-.02-.22-.09-.27-.2-.06-.12-.08-.32-.08-.59v-3.97h1.14Z"/>
  <path d="M13.54,10.05c-.42-.16-.91-.24-1.45-.24-.46,0-.91.07-1.33.21-.43.14-.79.41-1.09.79-.09.12-.18.25-.25.4-.08.15-.11.3-.11.47,0,.22.07.38.21.47.13.09.29.14.49.14.24,0,.43-.07.56-.21.12-.13.25-.28.36-.45.11-.16.26-.31.44-.43.18-.12.45-.18.81-.18.43,0,.74.06.94.19.2.12.33.31.39.55.06.24.09.54.09.9-.34,0-.73.02-1.14.05-.42.02-.85.08-1.25.17-.41.09-.79.23-1.13.41-.34.19-.62.45-.83.78-.2.33-.31.76-.31,1.26,0,.69.23,1.22.68,1.57.45.35,1,.53,1.65.53.48,0,.93-.11,1.33-.32.36-.19.69-.44.99-.74v.39c0,.18.04.34.13.47.09.13.27.2.52.2.44,0,.67-.23.67-.67v-4.48c0-.59-.12-1.07-.37-1.43-.25-.36-.59-.62-1.01-.78ZM13.6,14.68c0,.18-.08.36-.25.55-.17.19-.32.34-.45.45-.21.18-.45.32-.72.42-.26.1-.54.15-.82.15-.34,0-.61-.08-.79-.23-.18-.15-.28-.41-.28-.75,0-.31.08-.56.23-.76.15-.2.36-.35.62-.46.26-.11.54-.19.84-.24.31-.05.6-.08.89-.1.27-.01.51-.02.73-.03v1Z"/>
  <path d="M21.42,10.52c-.34-.47-.91-.71-1.69-.71-.51,0-.97.13-1.36.38-.35.22-.67.51-.94.85,0-.14,0-.28,0-.43,0-.21-.04-.4-.12-.55-.09-.16-.28-.24-.56-.24-.24,0-.42.07-.52.21-.1.14-.15.32-.15.53v6.06c0,.22.05.41.14.56.1.16.28.24.52.24s.43-.08.53-.23c.1-.15.14-.34.14-.57v-3.71c0-.24.06-.46.18-.67.13-.21.27-.4.42-.57.39-.43.87-.65,1.44-.65.3,0,.54.07.69.21.16.14.27.33.33.56.06.23.09.49.09.75v4.07c0,.22.05.41.14.56.1.16.28.24.52.24s.43-.08.53-.23c.1-.15.14-.34.14-.57v-4.29c0-.73-.17-1.33-.5-1.8Z"/>
</svg>