<?xml version="1.0" encoding="UTF-8"?>
<svg id="HF" xmlns="http://www.w3.org/2000/svg" viewBox="0 0 24 24">
  <path d="M15,6.15h2c.3,0,.55-.25.55-.55s-.25-.55-.55-.55h-2c-.3,0-.55.25-.55.55s.25.55.55.55Z" style="fill: #606060; stroke-width: 0px;"/>
  <path d="M17,7.9h-2c-.3,0-.55.25-.55.55s.25.55.55.55h2c.3,0,.55-.25.55-.55s-.25-.55-.55-.55Z" style="fill: #606060; stroke-width: 0px;"/>
  <path d="M17,10.74h-2c-.3,0-.55.25-.55.55s.25.55.55.55h2c.3,0,.55-.25.55-.55s-.25-.55-.55-.55Z" style="fill: #606060; stroke-width: 0px;"/>
</svg>