<?xml version="1.0" encoding="UTF-8"?>
<svg id="TF" xmlns="http://www.w3.org/2000/svg" viewBox="0 0 24 24">
  <path d="M17,9c.3,0,.55-.25.55-.55s-.25-.55-.55-.55h-1.45v-1.75h1.45c.3,0,.55-.25.55-.55s-.25-.55-.55-.55h-1.51c-.27-1.7-1.73-3-3.49-3-1.96,0-3.55,1.59-3.55,3.55v8.32c-.81.89-1.25,2.02-1.25,3.23,0,2.65,2.15,4.8,4.8,4.8s4.8-2.15,4.8-4.8c0-1.21-.44-2.34-1.25-3.23v-2.08h1.45c.3,0,.55-.25.55-.55s-.25-.55-.55-.55h-1.45v-1.75h1.45ZM12,18.7c-.85,0-1.55-.7-1.55-1.55,0-.66.42-1.22,1-1.44v-7.31c0-.3.25-.55.55-.55s.55.25.55.55v7.31c.58.22,1,.78,1,1.44,0,.85-.7,1.55-1.55,1.55Z" style="fill: #404040; stroke-width: 0px;"/>
</svg>