<?xml version="1.0" encoding="UTF-8"?>
<svg id="TL" xmlns="http://www.w3.org/2000/svg" viewBox="0 0 24 24">
  <path d="M12.65,15.63v-7.23c0-.36-.29-.65-.65-.65s-.65.29-.65.65v7.23c-.59.25-1,.84-1,1.52,0,.91.74,1.65,1.65,1.65s1.65-.74,1.65-1.65c0-.68-.41-1.26-1-1.52Z" style="fill: #000; stroke-width: 0px;"/>
  <g>
    <path d="M14.54,13.68c-.25.25-.25.67,0,.92.68.68,1.06,1.59,1.06,2.55,0,1.98-1.61,3.6-3.6,3.6s-3.6-1.62-3.6-3.6c0-.96.38-1.87,1.06-2.55.12-.12.19-.29.19-.46V5.6c0-1.3,1.05-2.35,2.35-2.35s2.35,1.05,2.35,2.35c0,.36.29.65.65.65h2c.36,0,.65-.29.65-.65s-.29-.65-.65-.65h-1.41c-.31-1.7-1.8-3-3.59-3-2.01,0-3.65,1.64-3.65,3.65v8.28c-.81.9-1.25,2.05-1.25,3.27,0,2.7,2.2,4.9,4.9,4.9s4.9-2.2,4.9-4.9c0-1.31-.51-2.54-1.44-3.47-.25-.25-.67-.25-.92,0Z" style="fill: #000; stroke-width: 0px;"/>
    <path d="M17,7.8h-2c-.36,0-.65.29-.65.65s.29.65.65.65h2c.36,0,.65-.29.65-.65s-.29-.65-.65-.65Z" style="fill: #000; stroke-width: 0px;"/>
    <path d="M17,10.64h-2c-.36,0-.65.29-.65.65s.29.65.65.65h2c.36,0,.65-.29.65-.65s-.29-.65-.65-.65Z" style="fill: #000; stroke-width: 0px;"/>
  </g>
</svg>