<?xml version="1.0" encoding="UTF-8"?>
<svg id="HL" xmlns="http://www.w3.org/2000/svg" viewBox="0 0 24 24">
  <path d="M8.6,11.35h3.05c1.88,0,3.4-1.52,3.4-3.4s-1.53-3.4-3.4-3.4h-3.05c-.36,0-.65.29-.65.65v5.5c0,.36.29.65.65.65ZM9.25,5.85h2.4c1.16,0,2.1.94,2.1,2.1s-.94,2.1-2.1,2.1h-2.4v-4.2Z" style="fill: #66f;"/>
  <path d="M12.65,12.65h-4.05c-.36,0-.65.29-.65.65v5.5c0,.36.29.65.65.65h4.05c1.88,0,3.4-1.52,3.4-3.4s-1.53-3.4-3.4-3.4ZM12.65,18.15h-3.4v-4.2h3.4c1.16,0,2.1.94,2.1,2.1s-.94,2.1-2.1,2.1Z" style="fill: #66f;"/>
</svg>