<?xml version="1.0" encoding="UTF-8"?>
<svg id="FL" xmlns="http://www.w3.org/2000/svg" viewBox="0 0 24 24">
  <path d="M12.65,22.05h-4.05c-1.79,0-3.25-1.46-3.25-3.25V5c0-1.68,1.37-3.05,3.05-3.05h3.25c3.31,0,6,2.69,6,6,0,1.26-.4,2.48-1.15,3.51,1.36,1.13,2.15,2.8,2.15,4.59,0,.79-.15,1.56-.46,2.3-.14.33-.52.49-.85.35-.33-.14-.49-.52-.35-.85.24-.58.36-1.18.36-1.8,0-1.59-.8-3.06-2.14-3.93-.16-.1-.27-.27-.29-.46s.04-.38.17-.52c.81-.88,1.26-2.01,1.26-3.18,0-2.59-2.11-4.7-4.7-4.7h-3.25c-.96,0-1.75.79-1.75,1.75v13.8c0,1.08.87,1.95,1.95,1.95h4.05c.62,0,1.22-.12,1.8-.36.33-.14.71.02.85.35.14.33-.02.71-.35.85-.73.3-1.51.46-2.29.46Z"/>
</svg>