<?xml version="1.0" encoding="UTF-8"?>
<svg id="TL" xmlns="http://www.w3.org/2000/svg" viewBox="0 0 24 24">
  <path d="M8.6,11.35h3.05c1.88,0,3.4-1.52,3.4-3.4s-1.53-3.4-3.4-3.4h-3.05c-.36,0-.65.29-.65.65v5.5c0,.36.29.65.65.65ZM9.25,5.85h2.4c1.16,0,2.1.94,2.1,2.1s-.94,2.1-2.1,2.1h-2.4v-4.2Z"/>
  <path d="M7.95,18.8c0,.36.29.65.65.65h4.05c1.88,0,3.4-1.52,3.4-3.4s-1.53-3.4-3.4-3.4h-4.05c-.36,0-.65.29-.65.65v5.5ZM9.25,13.95h3.4c1.16,0,2.1.94,2.1,2.1s-.94,2.1-2.1,2.1h-3.4v-4.2Z"/>
  <path d="M16.5,11.46c.75-1.02,1.15-2.25,1.15-3.51,0-3.31-2.69-6-6-6h-3.25c-1.68,0-3.05,1.37-3.05,3.05v13.8c0,1.79,1.46,3.25,3.25,3.25h4.05c.79,0,1.56-.15,2.29-.46.33-.14.49-.52.35-.85-.14-.33-.52-.49-.85-.35-.58.24-1.18.36-1.8.36h-4.05c-1.08,0-1.95-.88-1.95-1.95V5c0-.96.79-1.75,1.75-1.75h3.25c2.59,0,4.7,2.11,4.7,4.7,0,1.17-.45,2.3-1.26,3.18-.13.14-.19.33-.17.52s.13.36.29.46c1.34.87,2.14,2.34,2.14,3.93,0,.62-.12,1.22-.36,1.8-.14.33.02.71.35.85.33.14.71-.02.85-.35.3-.73.46-1.51.46-2.3,0-1.79-.79-3.46-2.15-4.59Z"/>
</svg>