<?xml version="1.0" encoding="UTF-8"?>
<svg id="TL" xmlns="http://www.w3.org/2000/svg" viewBox="0 0 24 24">
  <path d="M18.5,20.75H5.5c-.36,0-.65.29-.65.65s.29.65.65.65h13c.36,0,.65-.29.65-.65s-.29-.65-.65-.65Z"/>
  <path d="M18.5,1.95h-2c-.36,0-.65.29-.65.65v10.3c0,2.12-1.73,3.85-3.85,3.85s-3.85-1.73-3.85-3.85V2.6c0-.36-.29-.65-.65-.65h-2c-.36,0-.65.29-.65.65v10.3c0,3.94,3.21,7.15,7.15,7.15,1.25,0,2.48-.33,3.57-.96.31-.18.42-.58.24-.89-.18-.31-.58-.42-.89-.24-.89.52-1.9.79-2.92.79-3.23,0-5.85-2.62-5.85-5.85V3.25h.7v9.65c0,2.84,2.31,5.15,5.15,5.15s5.15-2.31,5.15-5.15V3.25h.7v9.65c0,1.02-.27,2.03-.79,2.92-.18.31-.07.71.24.89.31.18.71.07.89-.24.63-1.09.96-2.32.96-3.57V2.6c0-.36-.29-.65-.65-.65Z"/>
</svg>