<?xml version="1.0" encoding="UTF-8"?>
<svg id="TL" xmlns="http://www.w3.org/2000/svg" viewBox="0 0 24 24">
  <path d="M16.4,6.35H7.6c-3.12,0-5.65,2.53-5.65,5.65s2.53,5.65,5.65,5.65h8.8c3.12,0,5.65-2.53,5.65-5.65s-2.53-5.65-5.65-5.65ZM16.4,16.35H7.6c-2.4,0-4.35-1.95-4.35-4.35s1.95-4.35,4.35-4.35h8.8c2.4,0,4.35,1.95,4.35,4.35s-1.95,4.35-4.35,4.35Z"/>
  <path d="M16.4,8.35c-2.01,0-3.65,1.64-3.65,3.65s1.64,3.65,3.65,3.65,3.65-1.64,3.65-3.65-1.64-3.65-3.65-3.65ZM16.4,14.35c-1.3,0-2.35-1.05-2.35-2.35s1.05-2.35,2.35-2.35,2.35,1.05,2.35,2.35-1.05,2.35-2.35,2.35Z"/>
</svg>