<?xml version="1.0" encoding="UTF-8"?>
<svg id="HF" xmlns="http://www.w3.org/2000/svg" viewBox="0 0 24 24">
  <path d="M20.6,5.08c-.08-.16-.23-.27-.4-.31-.18-.03-.36.03-.48.15l-1.6,1.6-.64-.64,1.6-1.6c.13-.13.18-.31.15-.48-.03-.18-.14-.33-.31-.4-.49-.23-1-.35-1.52-.35-1.96,0-3.55,1.59-3.55,3.55,0,.39.07.78.2,1.16l-6.29,6.29c-.38-.13-.77-.2-1.16-.2-1.96,0-3.55,1.59-3.55,3.55,0,.52.12,1.03.35,1.52.08.16.23.27.4.31.18.03.36-.03.48-.15l1.6-1.6.64.64-1.6,1.6c-.13.13-.18.31-.15.48.03.18.14.33.31.4.49.23,1,.35,1.52.35,1.96,0,3.55-1.59,3.55-3.55,0-.39-.07-.78-.2-1.16l6.29-6.29c.38.13.77.2,1.16.2,1.96,0,3.55-1.59,3.55-3.55,0-.52-.12-1.03-.35-1.52Z" style="fill: #606060; stroke-width: 0px;"/>
</svg>