<?xml version="1.0" encoding="UTF-8"?>
<svg id="TL" xmlns="http://www.w3.org/2000/svg" viewBox="0 0 24 24">
  <path d="M18.9,21.05c-.57,0-1.11-.22-1.52-.63l-4.6-4.6c-.25-.25-.25-.67,0-.92l2.12-2.12c.25-.25.67-.25.92,0l4.6,4.6c.41.41.63.95.63,1.52s-.22,1.11-.63,1.52-.95.63-1.52.63ZM14.16,15.36l4.14,4.14c.32.32.88.32,1.2,0,.16-.16.25-.37.25-.6s-.09-.44-.25-.6l-4.14-4.14-1.2,1.2Z" style="fill: #000; stroke-width: 0px;"/>
  <path d="M14.3,14.95c-.17,0-.33-.06-.46-.19l-7.3-7.3-1.6-.33c-.16-.03-.3-.12-.39-.25l-1.48-2.02c-.19-.26-.16-.62.06-.84l.87-.87c.23-.23.58-.25.84-.06l2.02,1.48c.29.21.35.62.14.91-.21.29-.62.35-.91.14l-1.57-1.15-.09.09,1,1.37,1.54.32c.12.03.24.09.33.18l7.44,7.44c.25.25.25.67,0,.92-.13.13-.29.19-.46.19Z" style="fill: #000; stroke-width: 0px;"/>
  <path d="M6.6,21.05c-.53,0-1.06-.12-1.57-.36-.19-.09-.33-.27-.36-.48-.04-.21.03-.42.18-.57l1.53-1.53-.49-.49-1.53,1.53c-.15.15-.36.22-.57.18-.21-.04-.39-.17-.48-.36-.24-.51-.36-1.03-.36-1.57,0-2.01,1.64-3.65,3.65-3.65.38,0,.76.06,1.13.19l1.7-1.7c.25-.25.67-.25.92,0s.25.67,0,.92l-2,2c-.19.2-.49.25-.74.13-.33-.16-.67-.24-1.01-.24-1.3,0-2.35,1.05-2.35,2.35v.02l1.18-1.18c.25-.25.67-.25.92,0l1.41,1.41c.25.25.25.67,0,.92l-1.18,1.18c1.29,0,2.37-1.05,2.37-2.35,0-.34-.08-.68-.24-1.01-.12-.25-.07-.54.13-.74l1-1c.25-.25.67-.25.92,0s.25.67,0,.92l-.7.7c.12.37.19.75.19,1.13,0,2.01-1.64,3.65-3.65,3.65Z" style="fill: #000; stroke-width: 0px;"/>
  <path d="M15.11,10.95c-.17,0-.33-.06-.46-.19-.25-.25-.25-.67,0-.92l1-1c.2-.19.49-.24.74-.13.33.16.67.24,1.01.24,1.3,0,2.35-1.05,2.35-2.35v-.02l-1.18,1.18c-.25.25-.67.25-.92,0l-1.41-1.41c-.25-.25-.25-.67,0-.92l1.18-1.18h-.02c-1.3,0-2.35,1.05-2.35,2.35,0,.34.08.68.24,1.01.12.25.07.54-.13.74l-2,2c-.25.25-.67.25-.92,0s-.25-.67,0-.92l1.7-1.7c-.12-.37-.19-.75-.19-1.13,0-2.01,1.64-3.65,3.65-3.65.53,0,1.06.12,1.57.36.19.09.33.27.36.48.04.21-.03.42-.18.57l-1.53,1.53.49.49,1.53-1.53c.15-.15.36-.22.57-.18.21.04.39.17.48.36.24.51.36,1.03.36,1.57,0,2.01-1.64,3.65-3.65,3.65-.38,0-.76-.06-1.13-.19l-.7.7c-.13.13-.29.19-.46.19Z" style="fill: #000; stroke-width: 0px;"/>
</svg>