<?xml version="1.0" encoding="UTF-8"?>
<svg id="TF" xmlns="http://www.w3.org/2000/svg" viewBox="0 0 24 24">
  <path d="M15.75,12.85c-.21-.21-.56-.21-.78,0l-.67.67-.82-.82,2.76-2.76c.38.13.77.2,1.16.2,1.96,0,3.55-1.59,3.55-3.55,0-.52-.12-1.03-.35-1.52-.08-.16-.23-.27-.4-.31-.18-.03-.36.03-.48.15l-1.6,1.6-.64-.64,1.6-1.6c.13-.13.18-.31.15-.48-.03-.18-.14-.33-.31-.4-.49-.23-1-.35-1.52-.35-1.96,0-3.55,1.59-3.55,3.55,0,.39.07.78.2,1.16l-2.76,2.76-3.92-3.92-.34-1.63c-.03-.13-.1-.25-.21-.33l-2.02-1.48c-.22-.16-.52-.14-.71.06l-.87.87c-.19.19-.22.49-.06.71l1.48,2.02c.08.11.2.19.33.21l1.63.34,3.92,3.92-2.76,2.76c-.38-.13-.77-.2-1.16-.2-1.96,0-3.55,1.59-3.55,3.55,0,.52.12,1.03.35,1.52.08.16.23.27.4.31.18.03.36-.03.48-.15l1.6-1.6.64.64-1.6,1.6c-.13.13-.18.31-.15.48.03.18.14.33.31.4.49.23,1,.35,1.52.35,1.96,0,3.55-1.59,3.55-3.55,0-.39-.07-.78-.2-1.16l2.76-2.76.82.82-.67.67c-.21.21-.21.56,0,.78l4.6,4.6c.39.39.9.6,1.45.6s1.06-.21,1.45-.6.6-.9.6-1.45-.21-1.06-.6-1.45l-4.6-4.6Z" style="fill: #404040; stroke-width: 0px;"/>
</svg>