<?xml version="1.0" encoding="UTF-8"?>
<svg id="HL" xmlns="http://www.w3.org/2000/svg" viewBox="0 0 24 24">
  <path d="M8.99,11.47c-.13,0-.23-.04-.28-.13-.05-.08-.08-.18-.08-.29v-4.15l-.67,4.21c-.02.09-.05.17-.1.24-.06.08-.14.12-.26.12s-.2-.04-.25-.11c-.05-.07-.08-.15-.1-.24l-.67-4.23v4.16c0,.11-.02.21-.07.29-.05.09-.15.13-.29.13s-.23-.04-.28-.13c-.05-.08-.08-.18-.08-.29v-5.09c0-.2.04-.36.12-.5.09-.14.25-.22.47-.22.18,0,.32.06.4.18.08.11.13.25.15.41l.6,3.66.6-3.66c.03-.16.08-.29.16-.4.08-.12.22-.18.4-.18.23,0,.38.07.47.22.08.14.12.3.12.49v5.09c0,.11-.02.21-.07.29-.05.09-.15.13-.29.13Z" style="fill: #66f;"/>
</svg>