<?xml version="1.0" encoding="UTF-8"?>
<svg id="FF" xmlns="http://www.w3.org/2000/svg" viewBox="0 0 24 24">
  <path d="M6.97,10.69h.41c.24,0,.46-.03.64-.1.2-.07.35-.18.46-.33.11-.16.17-.37.17-.63s-.06-.5-.18-.66c-.12-.16-.28-.28-.48-.35-.2-.07-.42-.1-.66-.1h-.73v1.81c0,.24.12.36.36.36Z"/>
  <path d="M20.4,16.95c.3,0,.55-.25.55-.55v-1c0-.3-.25-.55-.55-.55h-5c-.22,0-.42.13-.51.34-.08.21-.04.44.12.6l2.11,2.11-2.11,2.11c-.16.16-.2.39-.12.6.09.21.29.34.51.34h5c.3,0,.55-.25.55-.55v-1c0-.3-.25-.55-.55-.55s-.55.25-.55.55v.45h-3.12l1.56-1.56c.21-.21.21-.56,0-.78l-1.56-1.56h3.12v.45c0,.3.25.55.55.55Z"/>
  <path d="M20.95,13.85v-4.55h-11.72c.03.13.06.27.06.43,0,.33-.08.61-.22.84-.15.23-.35.4-.6.51-.25.12-.55.18-.87.18h-.98c-.18,0-.33-.06-.46-.19-.13-.12-.19-.27-.19-.45v-1.32h-2.92v9.6c0,1.13.92,2.05,2.05,2.05h8.75v-5.55c0-.85.7-1.55,1.55-1.55h5.55Z"/>
</svg>