<?xml version="1.0" encoding="UTF-8"?>
<svg id="TL" xmlns="http://www.w3.org/2000/svg" viewBox="0 0 24 24">
  <path d="M18.9,2.95H5.1c-1.19,0-2.15.96-2.15,2.15v13.8c0,1.19.96,2.15,2.15,2.15h6.8c.36,0,.65-.29.65-.65s-.29-.65-.65-.65h-6.8c-.47,0-.85-.38-.85-.85V5.1c0-.47.38-.85.85-.85h13.8c.47,0,.85.38.85.85v6.8c0,.36.29.65.65.65s.65-.29.65-.65v-6.8c0-1.19-.96-2.15-2.15-2.15Z"/>
  <path d="M20.4,14.75h-5c-.26,0-.5.16-.6.4-.1.24-.04.52.14.71l2.04,2.04-2.04,2.04c-.19.19-.24.47-.14.71.1.24.34.4.6.4h5c.36,0,.65-.29.65-.65v-1c0-.36-.29-.65-.65-.65s-.65.29-.65.65v.35h-2.78l1.39-1.39c.25-.25.25-.67,0-.92l-1.39-1.39h2.78v.35c0,.36.29.65.65.65s.65-.29.65-.65v-1c0-.36-.29-.65-.65-.65Z"/>
  <path d="M8.97,7.71c.18-.24.27-.55.27-.91,0-.41-.09-.72-.26-.93-.17-.21-.41-.35-.69-.42-.28-.07-.59-.11-.93-.11h-.74c-.2,0-.38.07-.52.22-.15.15-.22.32-.22.52v4.53c0,.21.07.38.22.52s.32.21.53.21h.98c.33,0,.64-.06.91-.18.27-.12.49-.31.65-.55.16-.24.24-.54.24-.89,0-.41-.1-.75-.3-1-.18-.23-.43-.4-.76-.51.27-.12.48-.29.64-.5ZM8.39,9.03c.1.14.16.35.16.6s-.05.44-.15.58c-.1.14-.24.24-.41.3-.18.06-.38.09-.61.09h-.41c-.18,0-.26-.08-.26-.26v-1.71h.63c.23,0,.44.03.63.1.18.06.32.16.43.31ZM8.1,7.63c-.2.15-.47.23-.79.23h-.6v-1.48c0-.08.02-.14.07-.19.04-.05.11-.07.19-.07h.51c.3,0,.53.05.69.16.16.1.24.31.24.63,0,.34-.1.58-.3.73Z"/>
  <path d="M12,5.86c-.36,0-.65.29-.65.65v5.23l-2.64,2.64c-.25.25-.25.67,0,.92.13.13.29.19.46.19s.33-.06.46-.19l2.83-2.83c.12-.12.19-.29.19-.46v-5.5c0-.36-.29-.65-.65-.65Z"/>
</svg>