<?xml version="1.0" encoding="UTF-8"?>
<svg id="FF" xmlns="http://www.w3.org/2000/svg" viewBox="0 0 24 24">
  <path d="M20.4,16.95c.3,0,.55-.25.55-.55v-1c0-.3-.25-.55-.55-.55h-5c-.22,0-.42.13-.51.34-.08.21-.04.44.12.6l2.11,2.11-2.11,2.11c-.16.16-.2.39-.12.6.09.21.29.34.51.34h5c.3,0,.55-.25.55-.55v-1c0-.3-.25-.55-.55-.55s-.55.25-.55.55v.45h-3.12l1.56-1.56c.21-.21.21-.56,0-.78l-1.56-1.56h3.12v.45c0,.3.25.55.55.55Z"/>
  <path d="M20.95,13.85v-4.55h-11.7v1.74c0,.09-.02.17-.06.24-.03.06-.1.09-.2.09s-.16-.03-.2-.09c-.04-.06-.06-.14-.06-.24v-1.74h-.58l-.28,1.79c-.01.08-.04.14-.09.2-.04.05-.09.08-.18.08s-.14-.02-.17-.07c-.04-.05-.07-.12-.08-.2l-.29-1.8h-.59v1.74c0,.09-.02.17-.06.24-.03.06-.1.09-.2.09s-.16-.03-.2-.09c-.04-.06-.06-.14-.06-.24v-1.74h-2.9v9.6c0,1.13.92,2.05,2.05,2.05h8.75v-5.55c0-.85.7-1.55,1.55-1.55h5.55Z"/>
  <polygon points="7.65 9.8 7.73 9.3 7.47 9.3 7.55 9.8 7.65 9.8"/>
</svg>