<?xml version="1.0" encoding="UTF-8"?>
<svg id="HF" xmlns="http://www.w3.org/2000/svg" viewBox="0 0 24 24">
  <polygon points="8.32 8.2 8.73 8.2 8.73 6.25 8.63 6.24 8.32 8.2" style="fill: #999;"/>
  <polygon points="6.47 6.25 6.47 8.2 6.88 8.2 6.57 6.24 6.47 6.25" style="fill: #999;"/>
  <path d="M18.9,3.05H5.1c-1.13,0-2.05.92-2.05,2.05v3.1h2.9v-2.25c0-.18.04-.33.11-.45.07-.11.2-.17.39-.17.15,0,.26.04.32.14.07.1.12.22.14.36l.39,2.36h.62l.39-2.36c.03-.14.07-.26.14-.36.07-.09.17-.14.32-.14.19,0,.32.06.38.17.07.12.11.27.11.44v2.25h11.7v-3.1c0-1.13-.92-2.05-2.05-2.05Z" style="fill: #999;"/>
</svg>