<?xml version="1.0" encoding="UTF-8"?>
<svg id="TL" xmlns="http://www.w3.org/2000/svg" viewBox="0 0 24 24">
  <path d="M6.5,14.65c-.16,0-.31-.06-.44-.17-.26-.24-.28-.65-.04-.92l3.67-4c.25-.27.71-.27.96,0l3.19,3.48,3.19-3.48c.24-.26.65-.28.92-.04.26.24.28.65.04.92l-3.67,4c-.25.27-.71.27-.96,0l-3.19-3.48-3.19,3.48c-.13.14-.3.21-.48.21Z" style="fill: #000; stroke-width: 0px;"/>
  <path d="M16.9,21.05H5.1c-1.19,0-2.15-.96-2.15-2.15V5.1c0-1.19.96-2.15,2.15-2.15h13.8c1.19,0,2.15.96,2.15,2.15v11.8c0,.36-.29.65-.65.65s-.65-.29-.65-.65V5.1c0-.47-.38-.85-.85-.85H5.1c-.47,0-.85.38-.85.85v13.8c0,.47.38.85.85.85h11.8c.36,0,.65.29.65.65s-.29.65-.65.65Z" style="fill: #000; stroke-width: 0px;"/>
</svg>