<?xml version="1.0" encoding="UTF-8"?>
<svg id="FL" xmlns="http://www.w3.org/2000/svg" viewBox="0 0 24 24">
  <path d="M13.9,6.75H5.17l2.69-2.69c.25-.25.25-.67,0-.92s-.67-.25-.92,0l-3.8,3.8c-.19.19-.24.47-.14.71.1.24.34.4.6.4h10.3c3.23,0,5.85,2.62,5.85,5.85s-2.62,5.85-5.85,5.85h-6.3c-.36,0-.65.29-.65.65s.29.65.65.65h6.3c3.94,0,7.15-3.21,7.15-7.15s-3.21-7.15-7.15-7.15Z" style="fill: #000; stroke-width: 0px;"/>
  <path d="M7.86,11.66c.25-.25.25-.67,0-.92l-1-1c-.25-.25-.67-.25-.92,0s-.25.67,0,.92l1,1c.13.13.29.19.46.19s.33-.06.46-.19Z" style="fill: #000; stroke-width: 0px;"/>
</svg>