<?xml version="1.0" encoding="UTF-8"?>
<svg id="TL" xmlns="http://www.w3.org/2000/svg" viewBox="0 0 24 24">
  <path d="M15.1,9.38c0-1.78-1.27-2.69-3.03-2.69-1.29,0-2.34.59-3.12,1.48l1.15,1.06c.53-.59,1.08-.88,1.75-.88.8,0,1.27.45,1.27,1.2,0,1.4-2.49,1.92-2.19,4.17h1.81c-.21-1.99,2.35-2.24,2.35-4.36Z" style="fill: #000; stroke-width: 0px;"/>
  <path d="M11.85,14.98c-.7,0-1.23.5-1.23,1.25s.52,1.23,1.23,1.23,1.23-.5,1.23-1.23-.52-1.25-1.23-1.25Z" style="fill: #000; stroke-width: 0px;"/>
  <path d="M12,1.95C6.46,1.95,1.95,6.46,1.95,12s4.51,10.05,10.05,10.05c1.76,0,3.49-.47,5.02-1.35.31-.18.42-.58.24-.89-.18-.31-.58-.42-.89-.24-1.33.77-2.84,1.18-4.37,1.18-4.82,0-8.75-3.93-8.75-8.75S7.18,3.25,12,3.25s8.75,3.93,8.75,8.75c0,1.53-.41,3.04-1.18,4.37-.18.31-.07.71.24.89.31.18.71.07.89-.24.89-1.53,1.35-3.27,1.35-5.02,0-5.54-4.51-10.05-10.05-10.05Z" style="fill: #000; stroke-width: 0px;"/>
</svg>