<?xml version="1.0" encoding="UTF-8"?>
<svg id="TF" xmlns="http://www.w3.org/2000/svg" viewBox="0 0 24 24">
  <path d="M12,2.05C6.51,2.05,2.05,6.51,2.05,12s4.46,9.95,9.95,9.95,9.95-4.46,9.95-9.95S17.49,2.05,12,2.05ZM11.85,17.36c-.67,0-1.13-.47-1.13-1.13s.47-1.15,1.13-1.15,1.13.47,1.13,1.15-.47,1.13-1.13,1.13ZM13.79,11.52c-.6.56-1.21,1.13-1.15,2.12h-1.61c-.13-1.19.56-1.85,1.22-2.49.5-.49.98-.94.98-1.58,0-.82-.51-1.3-1.38-1.3-.65,0-1.21.27-1.76.84l-1-.93c.82-.9,1.85-1.38,2.98-1.38,1.83,0,2.93.97,2.93,2.59,0,1.01-.61,1.58-1.21,2.14Z" style="fill: #404040; stroke-width: 0px;"/>
</svg>