<?xml version="1.0" encoding="UTF-8"?>
<svg id="FL" xmlns="http://www.w3.org/2000/svg" viewBox="0 0 24 24">
  <path d="M14.02,15.43l-4.6,4.6c-.92.92-2.41.92-3.32,0-.44-.44-.69-1.03-.69-1.66s.24-1.22.69-1.66l1.06-1.06c.25-.25.25-.67,0-.92s-.67-.25-.92,0l-1.06,1.06c-.69.69-1.07,1.61-1.07,2.58s.38,1.89,1.07,2.58,1.65,1.07,2.58,1.07,1.87-.36,2.58-1.07l4.6-4.6c.25-.25.25-.67,0-.92s-.67-.25-.92,0Z" style="fill: #000; stroke-width: 0px;"/>
  <path d="M18.82,3.06c-1.42-1.42-3.74-1.42-5.16,0l-4.6,4.6c-.25.25-.25.67,0,.92s.67.25.92,0l4.6-4.6c.92-.92,2.41-.92,3.32,0,.44.44.69,1.03.69,1.66s-.24,1.22-.69,1.66l-1.06,1.06c-.25.25-.25.67,0,.92.13.13.29.19.46.19s.33-.06.46-.19l1.06-1.06c.69-.69,1.07-1.61,1.07-2.58s-.38-1.89-1.07-2.58Z" style="fill: #000; stroke-width: 0px;"/>
</svg>