<?xml version="1.0" encoding="UTF-8"?>
<svg id="TF" xmlns="http://www.w3.org/2000/svg" viewBox="0 0 24 24">
  <path d="M18.75,3.13c-1.38-1.38-3.64-1.38-5.02,0l-4.6,4.6c-.15.15-.2.38-.13.58.07.2.25.34.47.36l7.78.71s.03,0,.05,0c.15,0,.29-.06.39-.16l1.06-1.06c.67-.67,1.04-1.56,1.04-2.51s-.37-1.84-1.04-2.51Z" style="fill: #404040; stroke-width: 0px;"/>
  <path d="M17.88,11.98l-11.67-1.06c-.31-.03-.57.2-.6.5s.2.57.5.6l11.67,1.06s.03,0,.05,0c.28,0,.52-.21.55-.5.03-.3-.2-.57-.5-.6Z" style="fill: #404040; stroke-width: 0px;"/>
  <path d="M14.52,15.34l-7.78-.71c-.16-.01-.32.04-.44.16l-1.06,1.06c-.67.67-1.04,1.56-1.04,2.51s.37,1.84,1.04,2.51c.69.69,1.6,1.04,2.51,1.04s1.82-.35,2.51-1.04l4.6-4.6c.15-.15.2-.38.13-.58-.07-.2-.25-.34-.47-.36Z" style="fill: #404040; stroke-width: 0px;"/>
</svg>