<?xml version="1.0" encoding="UTF-8"?>
<svg id="TF" xmlns="http://www.w3.org/2000/svg" viewBox="0 0 24 24">
  <path d="M12,15.55c.3,0,.55-.25.55-.55V4.93l3.06,3.06c.21.21.56.21.78,0,.21-.21.21-.56,0-.78l-4-4c-.16-.16-.39-.2-.6-.12-.21.09-.34.29-.34.51v11.4c0,.3.25.55.55.55Z" style="fill: #404040; stroke-width: 0px;"/>
  <path d="M8,8.15c.14,0,.28-.05.39-.16l1.5-1.5c.21-.21.21-.56,0-.78-.21-.21-.56-.21-.78,0l-1.5,1.5c-.21.21-.21.56,0,.78.11.11.25.16.39.16Z" style="fill: #404040; stroke-width: 0px;"/>
  <path d="M20.4,11.45h-5.9c-.3,0-.55.25-.55.55v3c0,1.08-.88,1.95-1.95,1.95s-1.95-.88-1.95-1.95v-3c0-.3-.25-.55-.55-.55H3.6c-.3,0-.55.25-.55.55v6.9c0,1.13.92,2.05,2.05,2.05h13.8c1.13,0,2.05-.92,2.05-2.05v-6.9c0-.3-.25-.55-.55-.55Z" style="fill: #404040; stroke-width: 0px;"/>
</svg>