<?xml version="1.0" encoding="UTF-8"?>
<svg id="HL" xmlns="http://www.w3.org/2000/svg" viewBox="0 0 24 24">
  <path d="M19.15,8.6c0-2.01-1.05-3.83-2.8-4.86-.31-.18-.71-.08-.89.23-.18.31-.08.71.23.89,1.35.79,2.16,2.19,2.16,3.74s-.81,2.94-2.16,3.74c-.31.18-.41.58-.23.89.12.21.34.32.56.32.11,0,.23-.03.33-.09,1.75-1.03,2.8-2.85,2.8-4.86Z" style="fill: #66f; stroke-width: 0px;"/>
  <path d="M18.33,14.42c-.3-.2-.7-.12-.9.18-.2.3-.12.7.18.9,1.7,1.15,2.85,2.97,3.16,5,.05.32.33.55.64.55.03,0,.06,0,.1,0,.35-.05.6-.38.55-.74-.36-2.39-1.72-4.53-3.72-5.88Z" style="fill: #66f; stroke-width: 0px;"/>
</svg>