<?xml version="1.0" encoding="UTF-8"?>
<svg id="TL" xmlns="http://www.w3.org/2000/svg" viewBox="0 0 24 24">
  <path d="M17.47,14.8c-.28-.22-.69-.16-.91.12-.22.29-.16.69.12.91,1.52,1.16,2.56,2.83,2.92,4.69.06.31.33.53.64.53.04,0,.08,0,.12-.01.35-.07.58-.41.52-.76-.42-2.17-1.63-4.12-3.41-5.47Z" style="fill: #000; stroke-width: 0px;"/>
  <path d="M12,2.95c-3.12,0-5.65,2.53-5.65,5.65,0,2.05,1.1,3.85,2.74,4.84-3.01,1.02-5.35,3.59-5.98,6.84-.07.35.16.69.52.76.04,0,.08.01.12.01.31,0,.58-.22.64-.53.7-3.63,3.9-6.27,7.61-6.27,3.12,0,5.65-2.53,5.65-5.65s-2.53-5.65-5.65-5.65ZM12,12.95c-2.4,0-4.35-1.95-4.35-4.35s1.95-4.35,4.35-4.35,4.35,1.95,4.35,4.35-1.95,4.35-4.35,4.35Z" style="fill: #000; stroke-width: 0px;"/>
</svg>