<?xml version="1.0" encoding="UTF-8"?>
<svg id="TF" xmlns="http://www.w3.org/2000/svg" viewBox="0 0 24 24">
  <path d="M15.74,4.78c1.38.81,2.21,2.24,2.21,3.82s-.83,3.01-2.21,3.82c-.26.15-.35.49-.2.75.1.17.29.27.47.27.09,0,.19-.02.28-.08,1.72-1.01,2.75-2.8,2.75-4.77s-1.03-3.76-2.75-4.77c-.26-.15-.6-.07-.75.2-.15.26-.07.6.2.75Z" style="fill: #404040; stroke-width: 0px;"/>
  <path d="M13.13,13.48c1.73-.94,2.91-2.78,2.91-4.88,0-3.06-2.49-5.55-5.55-5.55s-5.55,2.49-5.55,5.55c0,2.11,1.18,3.94,2.91,4.88-2.99.99-5.32,3.6-5.81,6.83-.02.16.02.32.13.44.1.12.26.19.42.19h15.8c.16,0,.31-.07.42-.19.1-.12.15-.28.13-.44-.49-3.24-2.82-5.85-5.81-6.83Z" style="fill: #404040; stroke-width: 0px;"/>
  <path d="M18.27,14.5c-.25-.17-.59-.1-.76.15-.17.25-.1.59.15.76,1.72,1.16,2.89,3.01,3.2,5.07.04.27.28.47.54.47.03,0,.05,0,.08,0,.3-.05.51-.33.46-.63-.36-2.36-1.7-4.48-3.67-5.81Z" style="fill: #404040; stroke-width: 0px;"/>
</svg>