<?xml version="1.0" encoding="UTF-8"?>
<svg id="FL" xmlns="http://www.w3.org/2000/svg" viewBox="0 0 24 24">
  <path d="M16.15,8.6c0-3.12-2.53-5.65-5.65-5.65s-5.65,2.53-5.65,5.65c0,2.07,1.12,3.87,2.78,4.86-2.93,1.05-5.19,3.64-5.67,6.85-.05.35.19.69.55.74.03,0,.07,0,.1,0,.32,0,.59-.23.64-.55.54-3.56,3.66-6.25,7.26-6.25,3.12,0,5.65-2.53,5.65-5.65ZM10.5,12.95c-2.4,0-4.35-1.95-4.35-4.35s1.95-4.35,4.35-4.35,4.35,1.95,4.35,4.35-1.95,4.35-4.35,4.35Z" style="fill: #000; stroke-width: 0px;"/>
  <path d="M14.82,14.11c-.31-.18-.71-.08-.89.24-.18.31-.07.71.24.89,1.95,1.13,3.25,3.05,3.59,5.26.05.32.33.55.64.55.03,0,.06,0,.1,0,.35-.05.6-.38.55-.74-.39-2.6-1.93-4.86-4.22-6.19Z" style="fill: #000; stroke-width: 0px;"/>
</svg>