<?xml version="1.0" encoding="UTF-8"?>
<svg id="TL" xmlns="http://www.w3.org/2000/svg" viewBox="0 0 24 24">
  <path d="M21.4,5.65H2.6c-.36,0-.65-.29-.65-.65s.29-.65.65-.65h18.8c.36,0,.65.29.65.65s-.29.65-.65.65Z" style="fill: #000; stroke-width: 0px;"/>
  <g>
    <path d="M18,7.35c-.36,0-.65.29-.65.65v6.35h-2.7v-6.35c0-.36-.29-.65-.65-.65s-.65.29-.65.65v7c0,.36.29.65.65.65h4c.36,0,.65-.29.65-.65v-7c0-.36-.29-.65-.65-.65Z" style="fill: #000; stroke-width: 0px;"/>
    <path d="M10,7.35c-.36,0-.65.29-.65.65v10.35h-2.7v-10.35c0-.36-.29-.65-.65-.65s-.65.29-.65.65v11c0,.36.29.65.65.65h4c.36,0,.65-.29.65-.65v-11c0-.36-.29-.65-.65-.65Z" style="fill: #000; stroke-width: 0px;"/>
  </g>
</svg>