<?xml version="1.0" encoding="UTF-8"?>
<svg id="FL" xmlns="http://www.w3.org/2000/svg" viewBox="0 0 24 24">
  <path d="M18,8.35h-4c-.36,0-.65.29-.65.65v7c0,.36.29.65.65.65s.65-.29.65-.65v-6.35h2.7v6.35c0,.36.29.65.65.65s.65-.29.65-.65v-7c0-.36-.29-.65-.65-.65Z" style="fill: #000; stroke-width: 0px;"/>
  <path d="M10,4.35h-4c-.36,0-.65.29-.65.65v11c0,.36.29.65.65.65s.65-.29.65-.65V5.65h2.7v10.35c0,.36.29.65.65.65s.65-.29.65-.65V5c0-.36-.29-.65-.65-.65Z" style="fill: #000; stroke-width: 0px;"/>
</svg>