<?xml version="1.0" encoding="UTF-8"?>
<svg id="FL" xmlns="http://www.w3.org/2000/svg" viewBox="0 0 24 24">
  <path d="M18,6.35h-4c-.36,0-.65.29-.65.65v2c0,.36.29.65.65.65s.65-.29.65-.65v-1.35h2.7v1.35c0,.36.29.65.65.65s.65-.29.65-.65v-2c0-.36-.29-.65-.65-.65Z" style="fill: #000; stroke-width: 0px;"/>
  <path d="M18,14.35c-.36,0-.65.29-.65.65v1.35h-2.7v-1.35c0-.36-.29-.65-.65-.65s-.65.29-.65.65v2c0,.36.29.65.65.65h4c.36,0,.65-.29.65-.65v-2c0-.36-.29-.65-.65-.65Z" style="fill: #000; stroke-width: 0px;"/>
  <path d="M10,4.35h-4c-.36,0-.65.29-.65.65v4c0,.36.29.65.65.65s.65-.29.65-.65v-3.35h2.7v3.35c0,.36.29.65.65.65s.65-.29.65-.65v-4c0-.36-.29-.65-.65-.65Z" style="fill: #000; stroke-width: 0px;"/>
  <path d="M10,14.35c-.36,0-.65.29-.65.65v3.35h-2.7v-3.35c0-.36-.29-.65-.65-.65s-.65.29-.65.65v4c0,.36.29.65.65.65h4c.36,0,.65-.29.65-.65v-4c0-.36-.29-.65-.65-.65Z" style="fill: #000; stroke-width: 0px;"/>
</svg>