<?xml version="1.0" encoding="UTF-8"?>
<svg id="TL" xmlns="http://www.w3.org/2000/svg" viewBox="0 0 24 24">
  <g>
    <path d="M12,2.1c-.36,0-.65.29-.65.65v9.75c0,.36.29.65.65.65s.65-.29.65-.65V2.75c0-.36-.29-.65-.65-.65Z" style="fill: #000; stroke-width: 0px;"/>
    <path d="M12,17.85c-.36,0-.65.29-.65.65v2.75c0,.36.29.65.65.65s.65-.29.65-.65v-2.75c0-.36-.29-.65-.65-.65Z" style="fill: #000; stroke-width: 0px;"/>
  </g>
  <path d="M16.76,8.48l1.02-.59c.31-.18.42-.58.24-.89s-.58-.42-.89-.24l-2.45,1.41c-.31.18-.42.58-.24.89l1.41,2.45c.12.21.34.33.56.33.11,0,.22-.03.32-.09.31-.18.42-.58.24-.89l-.67-1.17c2.16.59,3.3,1.54,3.3,2.3,0,1.35-3.25,2.85-7.6,2.85s-7.6-1.5-7.6-2.85c0-.91,1.62-2.1,4.71-2.62.35-.06.59-.39.54-.75-.06-.35-.39-.6-.75-.53-3.57.59-5.79,2.09-5.79,3.9,0,2.37,3.83,4.15,8.9,4.15s8.9-1.78,8.9-4.15c0-1.51-1.56-2.79-4.14-3.52Z" style="fill: #000; stroke-width: 0px;"/>
</svg>