<?xml version="1.0" encoding="UTF-8"?>
<svg id="FF" xmlns="http://www.w3.org/2000/svg" viewBox="0 0 24 24">
  <path d="M15.09,8.2c-.29-.05-.58.15-.63.45-.05.3.15.58.45.63,2.82.47,4.79,1.58,4.79,2.72,0,1.4-3.16,2.95-7.7,2.95s-7.7-1.55-7.7-2.95c0-.96,1.44-1.91,3.61-2.46l-.8,1.38c-.15.26-.06.6.2.75.09.05.18.07.27.07.19,0,.38-.1.48-.28l1.41-2.45c.15-.26.06-.6-.2-.75l-2.45-1.41c-.26-.15-.6-.06-.75.2-.15.26-.06.6.2.75l1.22.7c-2.68.7-4.29,1.99-4.29,3.49,0,2.31,3.78,4.05,8.8,4.05s8.8-1.74,8.8-4.05c0-1.76-2.19-3.22-5.71-3.8Z" style="fill: #000; stroke-width: 0px;"/>
</svg>