<?xml version="1.0" encoding="UTF-8"?>
<svg id="FF" xmlns="http://www.w3.org/2000/svg" viewBox="0 0 24 24">
  <path d="M16.51,8.51l1.22-.7c.26-.15.35-.49.2-.75-.15-.26-.49-.35-.75-.2l-2.45,1.41c-.26.15-.35.49-.2.75l1.41,2.45c.1.18.29.28.48.28.09,0,.19-.02.27-.07.26-.15.35-.49.2-.75l-.8-1.38c2.17.55,3.61,1.5,3.61,2.46,0,1.4-3.16,2.95-7.7,2.95s-7.7-1.55-7.7-2.95c0-1.13,1.97-2.25,4.79-2.72.3-.05.5-.33.45-.63-.05-.3-.34-.5-.63-.45-3.52.58-5.71,2.04-5.71,3.8,0,2.31,3.78,4.05,8.8,4.05s8.8-1.74,8.8-4.05c0-1.51-1.62-2.79-4.29-3.49Z" style="fill: #000; stroke-width: 0px;"/>
</svg>