<?xml version="1.0" encoding="UTF-8"?>
<svg id="TL" xmlns="http://www.w3.org/2000/svg" viewBox="0 0 24 24">
  <g>
    <path d="M12,2.1c-.36,0-.65.29-.65.65v9.75c0,.36.29.65.65.65s.65-.29.65-.65V2.75c0-.36-.29-.65-.65-.65Z" style="fill: #000; stroke-width: 0px;"/>
    <path d="M12,17.85c-.36,0-.65.29-.65.65v2.75c0,.36.29.65.65.65s.65-.29.65-.65v-2.75c0-.36-.29-.65-.65-.65Z" style="fill: #000; stroke-width: 0px;"/>
  </g>
  <path d="M15.11,8.1c-.36-.06-.69.18-.75.53s.18.69.54.75c3.09.51,4.71,1.7,4.71,2.62,0,1.35-3.25,2.85-7.6,2.85s-7.6-1.5-7.6-2.85c0-.76,1.14-1.71,3.3-2.3l-.67,1.17c-.18.31-.07.71.24.89.1.06.21.09.32.09.22,0,.44-.12.56-.33l1.41-2.45c.18-.31.07-.71-.24-.89l-2.45-1.41c-.31-.18-.71-.07-.89.24-.18.31-.07.71.24.89l1.02.59c-2.58.73-4.14,2.01-4.14,3.52,0,2.37,3.83,4.15,8.9,4.15s8.9-1.78,8.9-4.15c0-1.81-2.22-3.31-5.79-3.9Z" style="fill: #000; stroke-width: 0px;"/>
</svg>