<?xml version="1.0" encoding="UTF-8"?>
<svg id="FL" xmlns="http://www.w3.org/2000/svg" viewBox="0 0 24 24">
  <path d="M19.75,20.86H4.25c-.78,0-1.47-.4-1.86-1.07-.39-.67-.39-1.48,0-2.15l7.75-13.42c.39-.67,1.08-1.07,1.86-1.07s1.47.4,1.86,1.08l6.06,10.5c.18.31.07.71-.24.89-.31.18-.71.07-.89-.24l-6.06-10.5c-.22-.38-.59-.43-.74-.43s-.51.04-.74.42l-7.75,13.42c-.22.38-.07.72,0,.85.07.13.29.43.74.43h15.5c.44,0,.66-.3.74-.43.07-.13.22-.47,0-.85-.18-.31-.07-.71.24-.89.31-.18.71-.07.89.24.39.67.39,1.48,0,2.15-.39.67-1.08,1.07-1.86,1.07Z" style="fill: #000; stroke-width: 0px;"/>
</svg>