<?xml version="1.0" encoding="UTF-8"?>
<svg id="FL" xmlns="http://www.w3.org/2000/svg" viewBox="0 0 24 24">
  <path d="M17.5,11.15c-.36,0-.65-.29-.65-.65v-3.35H7.15v3.35c0,.36-.29.65-.65.65s-.65-.29-.65-.65v-4c0-.36.29-.65.65-.65h11c.36,0,.65.29.65.65v4c0,.36-.29.65-.65.65Z" style="fill: #000; stroke-width: 0px;"/>
  <path d="M17.9,21.05H5.1c-1.19,0-2.15-.96-2.15-2.15V5.1c0-1.19.96-2.15,2.15-2.15h13.8c1.19,0,2.15.96,2.15,2.15v12.8c0,.36-.29.65-.65.65s-.65-.29-.65-.65V5.1c0-.47-.38-.85-.85-.85H5.1c-.47,0-.85.38-.85.85v13.8c0,.47.38.85.85.85h12.8c.36,0,.65.29.65.65s-.29.65-.65.65Z" style="fill: #000; stroke-width: 0px;"/>
</svg>