<?xml version="1.0" encoding="UTF-8"?>
<svg id="HL" xmlns="http://www.w3.org/2000/svg" viewBox="0 0 24 24">
  <path d="M18,15.05c-.9,0-1.43-.33-1.85-.6-.36-.23-.63-.4-1.15-.4s-.79.17-1.15.4c-.42.27-.95.6-1.85.6s-1.43-.33-1.85-.6c-.36-.23-.63-.4-1.15-.4s-.79.17-1.15.4c-.42.27-.95.6-1.85.6-.36,0-.65-.29-.65-.65s.29-.65.65-.65c.52,0,.79-.17,1.15-.4.42-.27.95-.6,1.85-.6s1.43.33,1.85.6c.36.23.63.4,1.15.4s.79-.17,1.15-.4c.42-.27.95-.6,1.85-.6s1.43.33,1.85.6c.36.23.63.4,1.15.4.36,0,.65.29.65.65s-.29.65-.65.65Z" style="fill: #66f; stroke-width: 0px;"/>
  <path d="M18,18.55c-.9,0-1.43-.33-1.85-.6-.36-.23-.63-.4-1.15-.4s-.79.17-1.15.4c-.42.27-.95.6-1.85.6s-1.43-.33-1.85-.6c-.36-.23-.63-.4-1.15-.4s-.79.17-1.15.4c-.42.27-.95.6-1.85.6-.36,0-.65-.29-.65-.65s.29-.65.65-.65c.52,0,.79-.17,1.15-.4.42-.27.95-.6,1.85-.6s1.43.33,1.85.6c.36.23.63.4,1.15.4s.79-.17,1.15-.4c.42-.27.95-.6,1.85-.6s1.43.33,1.85.6c.36.23.63.4,1.15.4.36,0,.65.29.65.65s-.29.65-.65.65Z" style="fill: #66f; stroke-width: 0px;"/>
  <path d="M14.75,10.15h-1.5c-.36,0-.65-.29-.65-.65s.29-.65.65-.65h1.5c.36,0,.65.29.65.65s-.29.65-.65.65Z" style="fill: #66f; stroke-width: 0px;"/>
</svg>