<?xml version="1.0" encoding="UTF-8"?>
<svg id="FL" xmlns="http://www.w3.org/2000/svg" viewBox="0 0 24 24">
  <path d="M19.25,13.5c-.36,0-.65.29-.65.65,0,1.97-.87,3.83-2.4,5.09-1.52,1.26-3.53,1.76-5.51,1.39-2.58-.49-4.66-2.57-5.17-5.16-.36-1.85.04-3.69,1.14-5.2l4.95-6.83c.18-.24.58-.24.75,0l4.95,6.83c.21.29.62.35.91.14.29-.21.35-.62.14-.91l-4.95-6.83c-.67-.93-2.19-.93-2.86,0l-4.95,6.83c-1.31,1.8-1.8,4-1.37,6.21.61,3.11,3.1,5.59,6.2,6.19.51.1,1.02.15,1.53.15,1.84,0,3.62-.63,5.05-1.81,1.82-1.51,2.87-3.73,2.87-6.09,0-.36-.29-.65-.65-.65Z" style="fill: #000; stroke-width: 0px;"/>
</svg>