<?xml version="1.0" encoding="UTF-8"?>
<svg id="TL" xmlns="http://www.w3.org/2000/svg" viewBox="0 0 24 24">
  <path d="M18,18.55c-.9,0-1.43-.33-1.85-.6-.36-.23-.63-.4-1.15-.4s-.79.17-1.15.4c-.42.27-.95.6-1.85.6s-1.43-.33-1.85-.6c-.36-.23-.63-.4-1.15-.4s-.79.17-1.15.4c-.42.27-.95.6-1.85.6-.36,0-.65-.29-.65-.65s.29-.65.65-.65c.52,0,.79-.17,1.15-.4.42-.27.95-.6,1.85-.6s1.43.33,1.85.6c.36.23.63.4,1.15.4s.79-.17,1.15-.4c.42-.27.95-.6,1.85-.6s1.43.33,1.85.6c.36.23.63.4,1.15.4.36,0,.65.29.65.65s-.29.65-.65.65Z" style="fill: #000; stroke-width: 0px;"/>
  <path d="M17.5,13.15H6.5c-.36,0-.65-.29-.65-.65v-6c0-.36.29-.65.65-.65h11c.36,0,.65.29.65.65v6c0,.36-.29.65-.65.65ZM7.15,11.85h9.7v-4.7H7.15v4.7Z" style="fill: #000; stroke-width: 0px;"/>
  <path d="M14.75,10.15h-1.5c-.36,0-.65-.29-.65-.65s.29-.65.65-.65h1.5c.36,0,.65.29.65.65s-.29.65-.65.65Z" style="fill: #000; stroke-width: 0px;"/>
  <path d="M17.9,21.05H5.1c-1.19,0-2.15-.96-2.15-2.15V5.1c0-1.19.96-2.15,2.15-2.15h13.8c1.19,0,2.15.96,2.15,2.15v12.8c0,.36-.29.65-.65.65s-.65-.29-.65-.65V5.1c0-.47-.38-.85-.85-.85H5.1c-.47,0-.85.38-.85.85v13.8c0,.47.38.85.85.85h12.8c.36,0,.65.29.65.65s-.29.65-.65.65Z" style="fill: #000; stroke-width: 0px;"/>
</svg>