<?xml version="1.0" encoding="UTF-8"?>
<svg id="TF" xmlns="http://www.w3.org/2000/svg" viewBox="0 0 24 24">
  <path d="M13.25,10.05h1.5c.3,0,.55-.25.55-.55s-.25-.55-.55-.55h-1.5c-.3,0-.55.25-.55.55s.25.55.55.55Z" style="fill: #000; stroke-width: 0px;"/>
  <path d="M18.9,3.05H5.1c-1.13,0-2.05.92-2.05,2.05v13.8c0,1.13.92,2.05,2.05,2.05h13.8c1.13,0,2.05-.92,2.05-2.05V5.1c0-1.13-.92-2.05-2.05-2.05ZM5.95,6.5c0-.3.25-.55.55-.55h11c.3,0,.55.25.55.55v6c0,.3-.25.55-.55.55H6.5c-.3,0-.55-.25-.55-.55v-6ZM18,18.45c-.87,0-1.39-.32-1.8-.59-.36-.23-.65-.41-1.2-.41s-.84.18-1.2.41c-.41.26-.92.59-1.8.59s-1.39-.32-1.8-.59c-.36-.23-.65-.41-1.2-.41s-.84.18-1.2.41c-.41.26-.92.59-1.8.59-.3,0-.55-.25-.55-.55s.25-.55.55-.55c.55,0,.84-.18,1.2-.41.41-.26.92-.59,1.8-.59s1.39.32,1.8.59c.36.23.65.41,1.2.41s.84-.18,1.2-.41c.41-.26.92-.59,1.8-.59s1.39.32,1.8.59c.36.23.65.41,1.2.41.3,0,.55.25.55.55s-.25.55-.55.55Z" style="fill: #000; stroke-width: 0px;"/>
</svg>