<?xml version="1.0" encoding="UTF-8"?>
<svg id="FF" xmlns="http://www.w3.org/2000/svg" viewBox="0 0 24 24">
  <path d="M18.9,3.05H5.1c-1.13,0-2.05.92-2.05,2.05v9.3h2.95c1.43,0,1.57-1,3-1s1.57,1,3,1,1.57-1,3-1,1.57,1,3,1h2.95V5.1c0-1.13-.92-2.05-2.05-2.05ZM18.05,10.85c0,.17-.07.32-.2.43-.13.1-.3.15-.46.11-.52-.1-.87-.33-1.18-.53-.36-.23-.65-.41-1.21-.41s-.84.18-1.2.41c-.41.26-.92.59-1.8.59s-1.39-.32-1.8-.59c-.36-.23-.65-.41-1.2-.41s-.84.18-1.21.41c-.31.2-.67.42-1.18.53-.16.03-.33,0-.46-.11-.13-.1-.2-.26-.2-.43v-4.35c0-.3.25-.55.55-.55h11c.3,0,.55.25.55.55v4.35Z" style="fill: #000; stroke-width: 0px;"/>
  <path d="M15,16.9c-1.43,0-1.57,1-3,1s-1.57-1-3-1-1.57,1-3,1h-2.95v1c0,1.13.92,2.05,2.05,2.05h13.8c1.13,0,2.05-.92,2.05-2.05v-1h-2.95c-1.43,0-1.57-1-3-1Z" style="fill: #000; stroke-width: 0px;"/>
</svg>