<?xml version="1.0" encoding="UTF-8"?>
<svg id="TF" xmlns="http://www.w3.org/2000/svg" viewBox="0 0 24 24">
  <polygon points="16.95 19.23 21.63 14.55 16.95 14.55 16.95 19.23" style="fill: #404040; stroke-width: 0px;"/>
  <path d="M9.45,17c0-.3.25-.55.55-.55s.55.25.55.55v2.55h5.3v-5.55c0-.3.25-.55.55-.55h5.55v-6.95c0-1.13-.92-2.05-2.05-2.05h-9.35v2.55c0,.3-.25.55-.55.55s-.55-.25-.55-.55v-2.55h-5.35c-1.13,0-2.05.92-2.05,2.05v4.95h2.95c.3,0,.55.25.55.55s-.25.55-.55.55h-2.95v4.95c0,1.13.92,2.05,2.05,2.05h5.35v-2.55ZM7.61,14.39c-.21-.21-.21-.56,0-.78l1.61-1.61-1.61-1.61c-.21-.21-.21-.56,0-.78.21-.21.56-.21.78,0l1.61,1.61,1.61-1.61c.21-.21.56-.21.78,0,.21.21.21.56,0,.78l-1.61,1.61,1.61,1.61c.21.21.21.56,0,.78-.11.11-.25.16-.39.16s-.28-.05-.39-.16l-1.61-1.61-1.61,1.61c-.11.11-.25.16-.39.16s-.28-.05-.39-.16Z" style="fill: #404040; stroke-width: 0px;"/>
</svg>