<?xml version="1.0" encoding="UTF-8"?>
<svg id="TF" xmlns="http://www.w3.org/2000/svg" viewBox="0 0 24 24">
  <path d="M16.41,16.96c.14,0,.28-.05.39-.16.21-.21.21-.56,0-.78l-2.65-2.65c.61-.77.98-1.73.98-2.79,0-2.51-2.04-4.55-4.55-4.55s-4.55,2.04-4.55,4.55,2.04,4.55,4.55,4.55c1.06,0,2.02-.38,2.79-.98l2.65,2.65c.11.11.25.16.39.16Z" style="fill: #404040; stroke-width: 0px;"/>
  <path d="M3.39,8.11c.07.03.14.04.21.04.14,0,.28-.06.39-.16L7.99,3.99c.16-.16.2-.39.12-.6s-.29-.34-.51-.34h-2.5c-1.13,0-2.05.92-2.05,2.05v2.5c0,.22.13.42.34.51Z" style="fill: #404040; stroke-width: 0px;"/>
  <path d="M18.9,3.05h-2.5c-.22,0-.42.13-.51.34s-.04.44.12.6l4,4c.1.11.25.16.39.16.07,0,.14-.01.21-.04.21-.09.34-.29.34-.51v-2.5c0-1.13-.92-2.05-2.05-2.05Z" style="fill: #404040; stroke-width: 0px;"/>
  <path d="M20.61,15.89c-.21-.08-.44-.04-.6.12l-4,4c-.16.16-.2.39-.12.6s.29.34.51.34h2.5c1.13,0,2.05-.92,2.05-2.05v-2.5c0-.22-.13-.42-.34-.51Z" style="fill: #404040; stroke-width: 0px;"/>
  <path d="M3.99,16.01c-.16-.16-.4-.2-.6-.12-.21.09-.34.29-.34.51v2.5c0,1.13.92,2.05,2.05,2.05h2.5c.22,0,.42-.13.51-.34s.04-.44-.12-.6l-4-4Z" style="fill: #404040; stroke-width: 0px;"/>
</svg>