<?xml version="1.0" encoding="UTF-8"?>
<svg id="TL" xmlns="http://www.w3.org/2000/svg" viewBox="0 0 24 24">
  <g>
    <path d="M7.6,2.95h-2.5c-1.19,0-2.15.96-2.15,2.15v2.5c0,.36.29.65.65.65s.65-.29.65-.65v-2.5c0-.47.38-.85.85-.85h2.5c.36,0,.65-.29.65-.65s-.29-.65-.65-.65Z" style="fill: #000; stroke-width: 0px;"/>
    <path d="M18.9,2.95h-2.5c-.36,0-.65.29-.65.65s.29.65.65.65h2.5c.47,0,.85.38.85.85v2.5c0,.36.29.65.65.65s.65-.29.65-.65v-2.5c0-1.19-.96-2.15-2.15-2.15Z" style="fill: #000; stroke-width: 0px;"/>
    <path d="M20.4,15.75c-.36,0-.65.29-.65.65v2.5c0,.47-.38.85-.85.85h-2.5c-.36,0-.65.29-.65.65s.29.65.65.65h2.5c1.19,0,2.15-.96,2.15-2.15v-2.5c0-.36-.29-.65-.65-.65Z" style="fill: #000; stroke-width: 0px;"/>
    <path d="M7.6,19.75h-2.5c-.47,0-.85-.38-.85-.85v-2.5c0-.36-.29-.65-.65-.65s-.65.29-.65.65v2.5c0,1.19.96,2.15,2.15,2.15h2.5c.36,0,.65-.29.65-.65s-.29-.65-.65-.65Z" style="fill: #000; stroke-width: 0px;"/>
  </g>
  <path d="M16.87,15.95l-2.59-2.59c.59-.78.95-1.74.95-2.78,0-2.56-2.09-4.65-4.65-4.65s-4.65,2.09-4.65,4.65,2.09,4.65,4.65,4.65c1.05,0,2-.36,2.78-.95l2.59,2.59c.13.13.29.19.46.19s.33-.06.46-.19c.25-.25.25-.67,0-.92ZM7.24,10.59c0-1.85,1.5-3.35,3.35-3.35s3.35,1.5,3.35,3.35-1.5,3.35-3.35,3.35-3.35-1.5-3.35-3.35Z" style="fill: #000; stroke-width: 0px;"/>
</svg>