<?xml version="1.0" encoding="UTF-8"?>
<svg id="TL" xmlns="http://www.w3.org/2000/svg" viewBox="0 0 24 24">
  <path d="M13.6,11.25h-6c-.36,0-.65-.29-.65-.65s.29-.65.65-.65h6c.36,0,.65.29.65.65s-.29.65-.65.65Z" style="fill: #000; stroke-width: 0px;"/>
  <path d="M20.42,17.38l-3.13-3.13c.29-.52.53-1.07.69-1.67.09-.35-.11-.7-.46-.8-.35-.09-.7.11-.8.46-.74,2.77-3.26,4.71-6.13,4.71-3.5,0-6.35-2.85-6.35-6.35s2.85-6.35,6.35-6.35c2.87,0,5.39,1.94,6.13,4.71.09.35.44.55.8.46.35-.09.55-.45.46-.8-.89-3.34-3.93-5.67-7.38-5.67-4.22,0-7.65,3.43-7.65,7.65s3.43,7.65,7.65,7.65c1.31,0,2.57-.34,3.67-.94l3.11,3.11c.41.41.95.63,1.52.63s1.11-.22,1.52-.63.63-.95.63-1.52-.22-1.11-.63-1.52ZM19.5,19.5c-.16.16-.38.25-.6.25s-.44-.09-.6-.25l-2.94-2.94c.44-.35.83-.77,1.19-1.21l2.95,2.95c.16.16.25.37.25.6s-.09.44-.25.6Z" style="fill: #000; stroke-width: 0px;"/>
</svg>